G04 ================== begin FILE IDENTIFICATION RECORD ==================*
G04 Layout Name:  D:/Projects/Mini_Audio/01.Hardware/MH18/PCB/MH18.brd*
G04 Film Name:    01.TOP*
G04 File Format:  Gerber RS274X*
G04 File Origin:  Cadence Allegro 17.4-S037*
G04 Origin Date:  Thu Feb  1 18:32:08 2024*
G04 *
G04 Layer:  VIA CLASS/TOP*
G04 Layer:  PIN/TOP*
G04 Layer:  ETCH/TOP*
G04 *
G04 Offset:    (0.000 0.000)*
G04 Mirror:    No*
G04 Mode:      Positive*
G04 Rotation:  0*
G04 FullContactRelief:  No*
G04 UndefLineWidth:     5.000*
G04 ================== end FILE IDENTIFICATION RECORD ====================*
%FSLAX35Y35*MOIN*%
%IR0*IPPOS*OFA0.00000B0.00000*MIA0B0*SFA1.00000B1.00000*%
%ADD12R,.062988X.07874*%
%ADD20R,.177201X.177201*%
%ADD24R,.047201X.137799*%
%ADD19O,.0315X.011*%
%ADD17R,.032X.03*%
%ADD21O,.011X.0315*%
%ADD16R,.03X.032*%
%ADD28R,.045X.04*%
%ADD26R,.05X.045*%
%ADD18R,.045X.05*%
%ADD27C,.06*%
%ADD10C,.024*%
%ADD23R,.062X.0265*%
%ADD29R,.06X.06*%
%ADD13R,.051181X.011811*%
%ADD25R,.047201X.055098*%
%ADD14C,.062988*%
%ADD15O,.094488X.047244*%
%ADD11O,.047244X.094488*%
%ADD30C,.008*%
%ADD31C,.01*%
%ADD32C,.02*%
G75*
%LPD*%
G75*
G36*
G01X102433Y85380D02*
X99076Y88737D01*
G03X98157Y89118I-919J-919D01*
G01X93095D01*
Y89417D01*
G03X92295Y90218I-800J0D01*
G01X89295D01*
G03X88495Y89417I0J-800D01*
G01Y86217D01*
G03X89295Y85417I800J0D01*
G01X92295D01*
G03X93095Y86217I0J800D01*
G01Y86517D01*
X97618D01*
X99621Y84514D01*
G02X99601Y83930I-283J-283D01*
G03X99146Y83068I887J-1018D01*
G02X98466Y82831I-397J46D01*
G01X97908Y83390D01*
G03X97059Y83741I-849J-849D01*
G01X93118D01*
Y84141D01*
G03X92317Y84941I-800J0D01*
G01X89317D01*
G03X88517Y84141I0J-800D01*
G01Y80941D01*
G03X89317Y80141I800J0D01*
G01X91327D01*
G02X91468Y79799I0J-200D01*
G01X91257Y79588D01*
X89295D01*
G03X88495Y78787I0J-800D01*
G01Y75587D01*
G03X89295Y74787I800J0D01*
G01X92295D01*
G03X93095Y75587I0J800D01*
G01Y77749D01*
X93687Y78341D01*
X94302D01*
G02X94377Y77677I-182J-356D01*
G03X93657Y76141I1281J-1536D01*
G03X95658Y74141I2000J0D01*
G03X95813Y74147I1J2000D01*
G01X95842Y74118D01*
G03X96761Y73737I919J919D01*
G01X100123D01*
X100147Y73731D01*
G03X100488Y73687I340J1307D01*
G01X102538D01*
G03X103098Y73809I0J1350D01*
G02X103663Y73445I166J-364D01*
G01Y68756D01*
G02X103098Y68392I-400J0D01*
G03X102538Y68514I-560J-1229D01*
G01X100488D01*
G03X100148Y68470I0J-1350D01*
G01X100123Y68464D01*
X98363D01*
G03X98138Y68444I0J-1300D01*
G01X98121Y68441D01*
X96598D01*
X93018Y72021D01*
Y73441D01*
G03X92217Y74241I-800J0D01*
G01X89217D01*
G03X88417Y73441I0J-800D01*
G01Y70241D01*
G03X89217Y69441I800J0D01*
G01X91921D01*
X92141Y69220D01*
G02X92000Y68879I-141J-141D01*
G01X89216D01*
G03X88416Y68079I0J-800D01*
G01Y64879D01*
G03X89216Y64078I800J0D01*
G01X92216D01*
G03X92844Y64382I0J800D01*
G02X93440Y64416I314J-248D01*
G01X93580Y64276D01*
G03X94500Y63896I919J919D01*
G01X100122D01*
X100147Y63889D01*
G03X100488Y63845I340J1307D01*
G01X102538D01*
G03X102910Y63898I0J1350D01*
G01X102937Y63906D01*
X103166D01*
Y63632D01*
X103159Y63608D01*
G03X103116Y63268I1307J-340D01*
G01Y62616D01*
X101800Y61300D01*
X94200D01*
X90600Y57700D01*
Y16600D01*
X84900Y10900D01*
X51800D01*
X50400Y12300D01*
Y30900D01*
X52000Y32500D01*
X60059D01*
X60088Y32491D01*
G03X61024Y32349I936J3021D01*
G01X65748D01*
G03X66684Y32491I0J3162D01*
G01X66713Y32500D01*
X68100D01*
X69400Y33800D01*
Y72900D01*
X67500Y74800D01*
X33600D01*
X31800Y76600D01*
Y92196D01*
X39365D01*
X41415Y90146D01*
Y89467D01*
G03X38766Y85738I1300J-3729D01*
G03X46665I3950J0D01*
G03X44016Y89467I-3950J0D01*
G01Y90684D01*
G03X43635Y91604I-1300J0D01*
G01X41750Y93489D01*
G02X42032Y94172I283J283D01*
G01X52127D01*
X58844Y87456D01*
G03X58451Y85738I3556J-1718D01*
G03X62400Y89687I3950J0D01*
G03X60683Y89294I0J-3950D01*
G01X54226Y95751D01*
G02X54509Y96434I283J283D01*
G01X74372D01*
Y96134D01*
G03X75172Y95334I800J0D01*
G01X78372D01*
G03X79172Y96134I0J800D01*
G01Y99134D01*
G03X79149Y99323I-800J0D01*
G02X79538Y99817I389J94D01*
G01X80665D01*
X82246Y98237D01*
Y96134D01*
G03X83046Y95334I800J0D01*
G01X86246D01*
G03X87046Y96134I0J800D01*
G01Y99134D01*
G03X86246Y99934I-800J0D01*
G01X83943D01*
X82011Y101866D01*
G03X81162Y102217I-849J-849D01*
G01X79505D01*
X79172Y102551D01*
Y104654D01*
G03X78372Y105454I-800J0D01*
G01X75172D01*
G03X74372Y104654I0J-800D01*
G01Y104354D01*
X54644D01*
X53757Y105241D01*
Y106581D01*
G03X56506Y110344I-1200J3763D01*
G03X48607I-3950J0D01*
G03X51356Y106581I3950J0D01*
G01Y104744D01*
G03X51708Y103895I1200J0D01*
G01X53298Y102305D01*
G03X54147Y101953I849J849D01*
G01X74372D01*
Y101654D01*
G03X75172Y100853I800J0D01*
G01X77475D01*
X77711Y100617D01*
G02X77428Y99934I-283J-283D01*
G01X75172D01*
G03X74372Y99134I0J-800D01*
G01Y98834D01*
X48263D01*
X43916Y103182D01*
Y106581D01*
G03X46665Y110344I-1200J3763D01*
G03X38766I-3950J0D01*
G03X41515Y106581I3950J0D01*
G01Y102685D01*
G03X41867Y101836I1200J0D01*
G01X46248Y97455D01*
G02X45965Y96772I-283J-283D01*
G01X31800D01*
Y113300D01*
X34200Y115700D01*
X85300D01*
X89000Y112000D01*
Y93800D01*
X90400Y92400D01*
X96600D01*
X100802Y88198D01*
X100817Y88151D01*
G03X101667Y87301I1240J390D01*
G01X101714Y87286D01*
X103116Y85885D01*
Y85663D01*
G02X102433Y85380I-400J0D01*
G37*
G36*
G01X119747Y64393D02*
X120768D01*
X120881Y64280D01*
Y63632D01*
X120875Y63608D01*
G03X120831Y63268I1307J-340D01*
G01Y61217D01*
G03X121158Y60338I1350J0D01*
G01Y59904D01*
X122058Y59004D01*
X123658D01*
X125458Y57204D01*
X129358D01*
X129858Y56704D01*
Y49704D01*
X128458Y48304D01*
Y39004D01*
X130558Y36904D01*
X158758D01*
X165658Y43804D01*
X172858D01*
X173858Y42804D01*
Y35141D01*
X173808Y35092D01*
Y31223D01*
X170157Y27572D01*
Y27457D01*
X168300Y25600D01*
X160117D01*
X155920Y21404D01*
X102158D01*
X99058Y24504D01*
Y48004D01*
X98058Y49004D01*
Y55004D01*
X100058Y57004D01*
X104258D01*
X105458Y58204D01*
Y60301D01*
G03X105816Y61217I-992J916D01*
G01Y63268D01*
G03X105772Y63608I-1350J0D01*
G01X105766Y63632D01*
Y64212D01*
X105947Y64393D01*
X107168D01*
X107358Y64204D01*
Y64122D01*
G03X107053Y63268I1045J-855D01*
G01Y61217D01*
G03X107096Y60877I1350J0D01*
G01X107103Y60852D01*
Y60249D01*
G03X107358Y59476I1300J0D01*
G01Y55904D01*
X106058Y54604D01*
X103658D01*
X102758Y53704D01*
Y49104D01*
X103408Y48454D01*
X105608D01*
X106208Y47854D01*
Y40954D01*
X106958Y40204D01*
X120958D01*
X121758Y41004D01*
Y48004D01*
X122358Y48604D01*
X124258D01*
X124958Y49304D01*
Y53704D01*
X122758Y55904D01*
X121258D01*
X119458Y57704D01*
Y59648D01*
X119469Y59680D01*
G03X119545Y60117I-1225J437D01*
G01Y60853D01*
X119551Y60877D01*
G03X119595Y61217I-1307J340D01*
G01Y63268D01*
G03X119475Y63823I-1350J0D01*
G01X119458Y63862D01*
Y64104D01*
X119747Y64393D01*
G37*
G36*
G01X108347D02*
X110768D01*
X111183Y63978D01*
X111122Y63851D01*
G03X110990Y63268I1218J-583D01*
G01Y61217D01*
G03X111033Y60877I1350J0D01*
G01X111040Y60852D01*
Y56165D01*
X110164Y55290D01*
G03X109829Y54713I919J-919D01*
G01X109815Y54662D01*
X109253Y54100D01*
X109224Y54085D01*
G03X108868Y53729I359J-715D01*
G01X108854Y53700D01*
X108558Y53404D01*
Y50304D01*
X108787Y50075D01*
X108798Y50015D01*
G03X109429Y49385I785J155D01*
G01X109488Y49373D01*
X110358Y48504D01*
X112358D01*
X113458Y47404D01*
Y41504D01*
X112958Y41004D01*
X107457D01*
X107058Y41404D01*
Y48104D01*
X107008Y48154D01*
Y48185D01*
X105939Y49254D01*
X103739D01*
X103558Y49435D01*
Y53372D01*
X103989Y53804D01*
X106389D01*
X108158Y55572D01*
Y64204D01*
X108347Y64393D01*
G37*
G36*
G01X103458Y74004D02*
X103663Y73798D01*
Y68510D01*
X103376Y68222D01*
G03X102538Y68514I-838J-1059D01*
G01X100488D01*
G03X100148Y68470I0J-1350D01*
G01X100123Y68464D01*
X98363D01*
G03X98138Y68444I0J-1300D01*
G01X98121Y68441D01*
X96598D01*
X93458Y71581D01*
Y72504D01*
X94958Y74004D01*
X95972D01*
G03X96761Y73737I789J1033D01*
G01X100123D01*
X100147Y73731D01*
G03X100488Y73687I340J1307D01*
G01X102538D01*
G03X103406Y74004I0J1350D01*
G01X103458D01*
G37*
G36*
G01X100858Y126504D02*
X171858D01*
X173658Y124704D01*
Y109604D01*
X172458Y108404D01*
X130558D01*
X128958Y106804D01*
Y99204D01*
X129458Y98704D01*
Y91304D01*
X128958Y90804D01*
X122158D01*
X121058Y89704D01*
Y87638D01*
G03X120831Y86890I1124J-748D01*
G01Y84840D01*
G03X120952Y84282I1350J0D01*
G01X121009Y84156D01*
X120758Y83904D01*
X119758D01*
X119448Y84213D01*
X119497Y84336D01*
G03X119595Y84840I-1253J504D01*
G01Y86890D01*
G03X119551Y87230I-1350J0D01*
G01X119545Y87254D01*
Y88417D01*
G03X119258Y89232I-1300J0D01*
G01Y90504D01*
X121058Y92304D01*
X124858D01*
Y98704D01*
X124558Y99004D01*
X122958D01*
X122158Y99804D01*
Y105804D01*
X121358Y106604D01*
X106958D01*
X106258Y105904D01*
Y100604D01*
X105158Y99504D01*
X104158D01*
X102958Y98304D01*
Y93304D01*
X103358Y92904D01*
X105358D01*
X107358Y90904D01*
Y88922D01*
G03X107103Y88149I1045J-773D01*
G01Y87255D01*
X107096Y87230D01*
G03X107053Y86890I1307J-340D01*
G01Y84840D01*
G03X107349Y83995I1350J0D01*
G01X107067Y83714D01*
X105948D01*
X105666Y83996D01*
Y84219D01*
X105685Y84260D01*
G03X105816Y84840I-1220J579D01*
G01Y86890D01*
G03X105458Y87806I-1350J0D01*
G01Y89204D01*
X104458Y90204D01*
X99958D01*
X98458Y91704D01*
Y98204D01*
X99658Y99404D01*
Y125304D01*
X100858Y126504D01*
G37*
G36*
G01X107458Y105604D02*
X113258D01*
X113758Y105104D01*
Y99404D01*
X113358Y99004D01*
X109358D01*
X108758Y98404D01*
Y94104D01*
X109258Y93604D01*
X109658D01*
X110065Y93197D01*
X110080Y93150D01*
G03X110400Y92621I1240J390D01*
G01X111040Y91982D01*
Y87255D01*
X111033Y87230D01*
G03X110990Y86890I1307J-340D01*
G01Y84840D01*
G03X111095Y84317I1350J0D01*
G01X111147Y84193D01*
X110758Y83804D01*
X108158D01*
Y91235D01*
X105689Y93704D01*
X103758D01*
Y97972D01*
X104489Y98704D01*
X105489D01*
X105789Y99004D01*
X105858D01*
X106958Y100104D01*
Y100172D01*
X107058Y100272D01*
Y105204D01*
X107458Y105604D01*
G37*
G36*
G01X124900Y9500D02*
X134900D01*
X135100Y9300D01*
Y7969D01*
X136368Y6700D01*
X142268D01*
X144300Y4668D01*
Y2600D01*
X143700Y2000D01*
X124800D01*
X124400Y2400D01*
Y9000D01*
X124900Y9500D01*
G37*
G36*
G01X115747Y64393D02*
X118568D01*
X118657Y64304D01*
Y57372D01*
X120926Y55104D01*
X122426D01*
X124157Y53372D01*
Y49804D01*
X123758Y49404D01*
X122026D01*
X121658Y49404D01*
X120958Y48704D01*
Y48336D01*
X120957Y48335D01*
Y41335D01*
X120626Y41004D01*
X115557D01*
X114658Y41904D01*
Y47704D01*
X115458Y48504D01*
X117558D01*
X119058Y50004D01*
Y53404D01*
X117552Y54909D01*
X117537Y54943D01*
G03X117271Y55329I-1186J-533D01*
G01X115608Y56992D01*
Y60853D01*
X115614Y60877D01*
G03X115658Y61217I-1307J340D01*
G01Y63268D01*
G03X115486Y63926I-1350J0D01*
G01X115412Y64059D01*
X115747Y64393D01*
G37*
G36*
G01X115657Y105804D02*
X120658D01*
X121357Y105104D01*
Y99472D01*
X122626Y98204D01*
X124057D01*
Y93104D01*
X120726D01*
X118457Y90835D01*
Y84104D01*
X115858D01*
X115582Y84379D01*
X115612Y84491D01*
G03X115658Y84840I-1305J349D01*
G01Y86890D01*
G03X115614Y87230I-1350J0D01*
G01X115608Y87254D01*
Y90722D01*
X117507Y92621D01*
G03X117857Y93259I-919J919D01*
G01X117869Y93316D01*
X118058Y93504D01*
X118758D01*
X119458Y94204D01*
Y98604D01*
X119058Y99004D01*
X115358D01*
X114958Y99404D01*
Y105104D01*
X115657Y105804D01*
G37*
G36*
G01X164358Y82604D02*
X173358D01*
X173858Y82104D01*
Y68804D01*
X172958Y67904D01*
X164058D01*
X163158Y68804D01*
Y72504D01*
X160358Y75304D01*
X135758D01*
X134750Y74297D01*
X134662Y74301D01*
G03X134558Y74304I-104J-1998D01*
G03X133961Y74213I0J-2000D01*
G01X133932Y74204D01*
X132229D01*
X132186Y74226D01*
G03X131592Y74370I-595J-1156D01*
G01X126524D01*
X126499Y74376D01*
G03X126160Y74420I-340J-1307D01*
G01X124110D01*
G03X123548Y74298I0J-1350D01*
G01X123422Y74240D01*
X123158Y74504D01*
Y75504D01*
X123466Y75812D01*
X123590Y75761D01*
G03X124110Y75656I520J1246D01*
G01X126160D01*
G03X126500Y75700I0J1350D01*
G01X126525Y75707D01*
X130160D01*
G03X130805Y75878I0J1300D01*
G01X130851Y75904D01*
X131958D01*
X133758Y77704D01*
X159458D01*
X164358Y82604D01*
G37*
G36*
G01X165800Y24200D02*
X169400D01*
X170100Y23500D01*
Y21800D01*
X171800Y20100D01*
X180100D01*
X180500Y19700D01*
Y7300D01*
X179000Y5800D01*
X144300D01*
X144046Y6054D01*
Y6139D01*
G03X143246Y6939I-800J0D01*
G01X143161D01*
X142600Y7500D01*
X136700D01*
X135900Y8300D01*
Y12700D01*
X136400Y13200D01*
X142100D01*
X143415Y14515D01*
X143465Y14529D01*
G03X144015Y15079I-220J770D01*
G01X144029Y15129D01*
X144300Y15400D01*
X156800D01*
X159600Y12600D01*
X164400D01*
X165200Y13400D01*
Y23600D01*
X165800Y24200D01*
G37*
G36*
G01X180058Y25104D02*
Y22741D01*
X179058Y21741D01*
X172158D01*
X170958Y22941D01*
Y27241D01*
X175058Y31341D01*
Y47904D01*
X173458Y49504D01*
X166958D01*
X166058Y50404D01*
Y56104D01*
X166958Y57004D01*
X174358D01*
X175258Y57904D01*
Y87304D01*
X174358Y88204D01*
X166658D01*
X166258Y88604D01*
Y101204D01*
X167058Y102004D01*
X181358D01*
X186858Y96504D01*
Y53604D01*
X191958Y48504D01*
X197958D01*
X199058Y47404D01*
Y29404D01*
X196958Y27304D01*
X182258D01*
X180058Y25104D01*
G37*
%LPC*%
G75*
G36*
G01X82898Y73141D02*
Y73441D01*
G02X83698Y74241I800J0D01*
G01X86698D01*
G02X87498Y73441I0J-800D01*
G01Y70241D01*
G02X86698Y69441I-800J0D01*
G01X83698D01*
G02X82898Y70241I0J800D01*
G01Y70541D01*
X82139D01*
X80500Y68902D01*
Y50639D01*
X86219Y44919D01*
G02X86600Y44000I-919J-919D01*
G01Y28000D01*
G02X86219Y27081I-1300J0D01*
G01X83592Y24453D01*
G02X82672Y24072I-919J919D01*
G01X80718D01*
Y23772D01*
G02X79917Y22972I-800J0D01*
G01X76917D01*
G02X76117Y23772I0J800D01*
G01Y26972D01*
G02X76917Y27773I800J0D01*
G01X79917D01*
G02X80718Y26972I0J-800D01*
G01Y26673D01*
X82134D01*
X84000Y28539D01*
Y43461D01*
X78281Y49181D01*
G02X77900Y50100I919J919D01*
G01Y69441D01*
G02X78281Y70360I1300J0D01*
G01X80681Y72760D01*
G02X81600Y73141I919J-919D01*
G01X82898D01*
G37*
G36*
G01X75050Y109144D02*
X66163D01*
G02X62400Y106394I-3763J1200D01*
G02Y114294I0J3950D01*
G02X66163Y111544I0J-3950D01*
G01X75441D01*
X75448D01*
G03X75649Y111744I1J200D01*
G01Y111836D01*
G02X76449Y112636I800J0D01*
G01X79449D01*
G02X80249Y111836I0J-800D01*
G01Y108636D01*
G02X79449Y107836I-800J0D01*
G01X76449D01*
G02X75649Y108636I0J800D01*
G01Y108840D01*
G03X75463Y109039I-200J0D01*
G02X75087Y109128I86J1197D01*
G01X75050Y109144D01*
G37*
G36*
G01X82998Y84141D02*
G02X83798Y84941I800J0D01*
G01X86798D01*
G02X87598Y84141I0J-800D01*
G01Y80941D01*
G02X86798Y80141I-800J0D01*
G01X83798D01*
G02X82998Y80941I0J800D01*
G01Y81241D01*
X80980D01*
X75600Y75861D01*
Y33700D01*
G02X75219Y32781I-1300J0D01*
G01X71719Y29281D01*
G02X70800Y28900I-919J919D01*
G01X67688D01*
G03X67470Y28164I0J-400D01*
G02X68631Y26812I-1722J-2653D01*
G01X70590D01*
X70598Y27004D01*
G02X71398Y27773I800J-32D01*
G01X74398D01*
G02X75198Y26972I0J-800D01*
G01Y23772D01*
G02X74398Y22972I-800J0D01*
G01X71398D01*
G02X70598Y23772I0J800D01*
G01Y23872D01*
G03X70398Y24072I-200J0D01*
G02X69850Y24193I0J1300D01*
G01X69810Y24212D01*
X68631D01*
G02X65748Y22349I-2883J1300D01*
G01X61024D01*
G02X57861Y25512I0J3162D01*
G02X59302Y28164I3162J0D01*
G03X59084Y28900I-218J335D01*
G01X57839D01*
X56800Y27861D01*
Y22739D01*
X57939Y21600D01*
X76900D01*
G02X77819Y21219I0J-1300D01*
G01X79337Y19702D01*
G02X79718Y18783I-919J-919D01*
G01Y17973D01*
G03X79918Y17773I200J0D01*
G02X80718Y16972I0J-800D01*
G01Y13772D01*
G02X79917Y12972I-800J0D01*
G01X76917D01*
G02X76117Y13772I0J800D01*
G01Y16972D01*
G02X76917Y17773I800J0D01*
G03X77117Y17973I0J200D01*
G01Y18244D01*
X76361Y19000D01*
X67524D01*
G03X67325Y18253I0J-400D01*
G02X68631Y16812I-1577J-2741D01*
G01X70590D01*
X70598Y17004D01*
G02X71398Y17773I800J-32D01*
G01X74398D01*
G02X75198Y16972I0J-800D01*
G01Y13772D01*
G02X74398Y12972I-800J0D01*
G01X71398D01*
G02X70598Y13772I0J800D01*
G01Y13872D01*
G03X70398Y14072I-200J0D01*
G02X69850Y14193I0J1300D01*
G01X69810Y14212D01*
X68631D01*
G02X65748Y12349I-2883J1300D01*
G01X61024D01*
G02X57861Y15512I0J3162D01*
G02X59447Y18253I3162J0D01*
G03X59247Y19000I-199J347D01*
G01X57400D01*
G02X56481Y19381I0J1300D01*
G01X54581Y21281D01*
G02X54200Y22200I919J919D01*
G01Y28400D01*
G02X54581Y29319I1300J0D01*
G01X56381Y31119D01*
G02X57300Y31500I919J-919D01*
G01X70261D01*
X73000Y34239D01*
Y76400D01*
G02X73381Y77319I1300J0D01*
G01X79522Y83460D01*
G02X80441Y83841I919J-919D01*
G01X82998D01*
Y84141D01*
G37*
%LPD*%
G75*
G54D10*
X19900Y30000D03*
X17500Y45300D03*
X16700Y100900D03*
X7500Y101600D03*
X15500Y122800D03*
X47300Y28700D03*
X47200Y36800D03*
X36600Y101800D03*
X46300Y122100D03*
X47900Y12900D03*
X47800Y16900D03*
X54500Y13100D03*
X52200Y29600D03*
X52500Y22400D03*
X50200Y40800D03*
X55300Y39500D03*
X50400Y88200D03*
X52400Y81000D03*
X66000Y93500D03*
X48400Y102200D03*
X85600Y21100D03*
X88200Y25900D03*
X70700Y44000D03*
X79500Y35900D03*
X78800Y40700D03*
X89000Y42100D03*
X87000Y47700D03*
X71400Y51800D03*
X71200Y57400D03*
X84300Y52200D03*
X83900Y57800D03*
X83600Y61500D03*
X71200Y64500D03*
X70800Y71300D03*
X78500Y74500D03*
X68400Y79400D03*
X76300Y92900D03*
X76100Y121300D03*
X87800Y122800D03*
X96500Y14800D03*
X94800Y21900D03*
X108658Y46341D03*
Y43341D03*
X94300Y32600D03*
X107158Y67841D03*
X110158D03*
X107158Y70841D03*
X110158D03*
X97937Y69641D03*
X95458Y72241D03*
X107158Y73841D03*
X110158D03*
X107158Y76841D03*
X110158D03*
X107158Y79841D03*
X110158D03*
X95658Y76141D03*
X95858Y79641D03*
X108658Y104204D03*
Y101304D03*
X95358Y109441D03*
X91400Y109400D03*
X95358Y119441D03*
Y114441D03*
X90358D03*
Y119441D03*
X110300Y13300D03*
X111858Y46341D03*
X112058Y43341D03*
X116358Y46241D03*
X119258D03*
X116258Y42941D03*
X119258D03*
X113158Y67841D03*
X116158D03*
X119158D03*
X113158Y70841D03*
X116158D03*
X119158D03*
X128058Y61641D03*
X113158Y73841D03*
X116158D03*
X119158D03*
X113158Y76841D03*
X116158D03*
X119158D03*
X113158Y79841D03*
X116158D03*
X119158D03*
X111958Y104204D03*
Y101304D03*
X116758Y104204D03*
X119458D03*
X116758Y101404D03*
X119558D03*
X144558Y26804D03*
X134558Y72304D03*
X148958Y68241D03*
Y73241D03*
X148600Y80400D03*
X138400Y102700D03*
X145658Y115204D03*
X163300Y3100D03*
X155758Y31804D03*
X158958Y68241D03*
X153958D03*
X158958Y73241D03*
X153958D03*
X161700Y101900D03*
X156758Y114804D03*
X181400Y122100D03*
G54D11*
X10158Y66535D03*
X20158D03*
X30158D03*
X40158D03*
G54D20*
X113324Y74054D03*
G54D30*
G01X76772Y97634D02*
X47766D01*
X42715Y102685D01*
Y110344D01*
G01X47300Y27781D02*
Y28700D01*
G01D02*
Y29601D01*
G01X46399Y28700D02*
X47300D01*
G01D02*
X49100D01*
G01X47800Y15968D02*
Y16900D01*
G01D02*
Y18788D01*
G01X46868Y16900D02*
X47800D01*
G01D02*
X48741D01*
G01X63386Y34373D02*
Y35512D01*
G01D02*
Y37151D01*
G01X62197Y35512D02*
X63386D01*
G01D02*
X64524D01*
G01X52556Y110344D02*
Y104744D01*
X54147Y103154D01*
X76772D01*
G01X62400Y110344D02*
X75441D01*
X75549Y110236D01*
X77949D01*
G01X76772Y103154D02*
X76872D01*
X79008Y101017D01*
X81162D01*
X84546Y97634D01*
X84646D01*
G01X94800Y20533D02*
Y21900D01*
G01D02*
Y22708D01*
G01X93339Y21900D02*
X94800D01*
G01D02*
X95608D01*
G01X94300Y31693D02*
Y32600D01*
G01D02*
Y34175D01*
G01X93393Y32600D02*
X94300D01*
G01D02*
X95554D01*
G01X90717Y71841D02*
X91359D01*
X91367Y71833D01*
G01X107158Y66919D02*
Y67841D01*
G01D02*
Y69660D01*
G01X106235Y67841D02*
X107158D01*
G01D02*
X108167D01*
G01X107158Y69747D02*
Y70841D01*
G01D02*
Y72488D01*
G01X106064Y70841D02*
X107158D01*
G01D02*
X108339D01*
G01X108892D02*
X110158D01*
G01X90817Y82541D02*
X97059D01*
X98656Y80944D01*
X101513D01*
G01X104466Y85864D02*
Y82911D01*
X113324Y74054D01*
G01X107158Y78232D02*
Y79841D01*
G01D02*
Y80974D01*
G01X106025Y79841D02*
X107158D01*
G01D02*
X108378D01*
G01X107158Y72576D02*
Y73841D01*
G01D02*
Y75317D01*
G01X105892Y73841D02*
X107158D01*
G01D02*
X108510D01*
G01X108853Y79841D02*
X110158D01*
G01X108721Y73841D02*
X110158D01*
G01X107158Y75404D02*
Y76841D01*
G01D02*
Y78145D01*
G01X105853Y76841D02*
X107158D01*
G01D02*
X108549D01*
G01X108682D02*
X110158D01*
G01X91400Y108132D02*
Y109400D01*
G01D02*
Y110471D01*
G01X90329Y109400D02*
X91400D01*
G01D02*
X92960D01*
G01X90358Y117914D02*
Y119441D01*
G01D02*
Y120488D01*
G01X89056Y119441D02*
X90358D01*
G01D02*
X91405D01*
G01X110158Y67003D02*
Y67841D01*
G01D02*
Y69576D01*
G01X109064Y67841D02*
X110158D01*
G01D02*
X110996D01*
G01X110158Y69831D02*
Y70841D01*
G01D02*
Y72404D01*
G01Y70841D02*
X111167D01*
G01X113158Y70003D02*
Y70841D01*
G01D02*
Y72233D01*
G01X111721Y70841D02*
X113158D01*
G01D02*
X113996D01*
G01X116158Y73003D02*
Y73841D01*
G01D02*
Y74889D01*
G01X114378Y73841D02*
X116158D01*
G01D02*
X116995D01*
G01X110158Y78317D02*
Y79841D01*
G01D02*
Y80889D01*
G01Y79841D02*
X111206D01*
G01X113158Y78488D02*
Y79841D01*
G01D02*
Y80718D01*
G01X111682Y79841D02*
X113158D01*
G01D02*
X114034D01*
G01X110158Y72660D02*
Y73841D01*
G01D02*
Y75232D01*
G01Y73841D02*
X111339D01*
G01X116158Y75831D02*
Y76841D01*
G01D02*
Y77718D01*
G01X114339Y76841D02*
X116158D01*
G01D02*
X117034D01*
G01X110158Y75488D02*
Y76841D01*
G01D02*
Y78061D01*
G01Y76841D02*
X111378D01*
G01X113158Y72831D02*
Y73841D01*
G01D02*
Y75061D01*
G01X111549Y73841D02*
X113158D01*
G01D02*
X114167D01*
G01X113158Y75660D02*
Y76841D01*
G01D02*
Y77889D01*
G01X111510Y76841D02*
X113158D01*
G01D02*
X114206D01*
G01X132658Y49906D02*
Y51809D01*
G01X143564Y55968D02*
Y56770D01*
G01D02*
Y57983D01*
G01X142762Y56770D02*
X143564D01*
G01D02*
X145180D01*
G01X132658Y51809D02*
Y52732D01*
G01X131734Y51809D02*
X132658D01*
G01D02*
X133581D01*
G01X143800Y89673D02*
Y91061D01*
G01D02*
Y92160D01*
G01X142701Y91061D02*
X143800D01*
G01D02*
X145240D01*
G01X149721Y97894D02*
X151058D01*
G01X132894Y95397D02*
Y96140D01*
G01D02*
Y97750D01*
G01X131676Y96140D02*
X132894D01*
G01D02*
X133638D01*
G01X138400Y100902D02*
Y102700D01*
G01D02*
Y103558D01*
G01X137369Y102700D02*
X138400D01*
G01D02*
X139258D01*
G01X163300Y2500D02*
Y3100D01*
G01D02*
Y4180D01*
G01X162491Y3100D02*
X163300D01*
G01D02*
X165048D01*
G01X151058Y96589D02*
Y97894D01*
G01D02*
Y99386D01*
G01Y97894D02*
X152362D01*
G01X192160Y21727D02*
X192946D01*
G01Y20728D02*
Y21727D01*
G01D02*
Y22513D01*
G01Y21727D02*
X194776D01*
G54D21*
X108403Y62242D03*
X106433D03*
X104466D03*
Y85864D03*
X106433D03*
X108403D03*
X122182Y62242D03*
X120214D03*
X118244D03*
X116277D03*
X114308D03*
X112340D03*
X110370D03*
Y85864D03*
X112340D03*
X114308D03*
X116277D03*
X118244D03*
X120214D03*
X122182D03*
G54D12*
X14409Y84843D03*
Y112007D03*
G54D31*
G01X3937Y127421D02*
X99936D01*
X98357Y125842D01*
Y99942D01*
X97157Y98742D01*
Y93682D01*
X97139Y93700D01*
X90939D01*
X90300Y94339D01*
Y112539D01*
X85839Y117000D01*
X33661D01*
X30500Y113839D01*
Y97272D01*
X28820D01*
Y98032D01*
G03X28759Y98425I-1300J0D01*
G03X28820Y98819I-1239J393D01*
G01Y101969D01*
G03X28820Y102002I-1300J1D01*
G03X28896Y102073I-1198J1344D01*
G01X29865Y103042D01*
G03Y105588I-1273J1273D01*
G01X28865Y106588D01*
G03X28217Y107004I-1273J-1273D01*
G03X27520Y107206I-697J-1098D01*
G01X22402D01*
G03X21102Y105906I0J-1300D01*
G01Y102756D01*
G03X21163Y102362I1300J0D01*
G03X21102Y101969I1239J-393D01*
G01Y98819D01*
G03X21163Y98425I1300J0D01*
G03X21102Y98032I1239J-393D01*
G01Y94882D01*
G03X21160Y94495I1300J0D01*
G03X21095Y94087I1234J-409D01*
G01Y92906D01*
G03X21158Y92504I1300J0D01*
G03X21102Y92126I1244J-378D01*
G01Y90944D01*
G03X22402Y89644I1300J0D01*
G01X27520D01*
G03X28820Y90944I0J1300D01*
G01Y91696D01*
X30500D01*
Y76061D01*
X33061Y73500D01*
X66961D01*
X68100Y72361D01*
Y68319D01*
G03X65748Y69174I-2352J-2807D01*
G01X61024D01*
G03Y61849I0J-3662D01*
G01X65748D01*
G03X68100Y62704I0J3662D01*
G01Y58319D01*
G03X65748Y59174I-2352J-2807D01*
G01X61024D01*
G03Y51849I0J-3662D01*
G01X65748D01*
G03X68100Y52704I0J3662D01*
G01Y48319D01*
G03X65748Y49174I-2352J-2807D01*
G01X61024D01*
G03X58174Y47812I0J-3662D01*
G01X47212D01*
G03X45585Y47138I0J-2300D01*
G01X41274Y42826D01*
G03X40600Y41200I1627J-1626D01*
G01Y10100D01*
G03X41274Y8474I2300J0D01*
G01X44128Y5619D01*
G03X45754Y4946I1627J1627D01*
G01X123100D01*
Y2500D01*
X3937D01*
G02X2500Y3937I0J1437D01*
G01Y125984D01*
G02X3937Y127421I1437J0D01*
G01X11260Y117244D02*
X17558D01*
G02X18859Y115944I0J-1300D01*
G01Y108070D01*
G02X17558Y106770I-1300J0D01*
G01X11260D01*
G02X9959Y108070I0J1300D01*
G01Y115944D01*
G02X11260Y117244I1300J0D01*
G01Y90080D02*
X17558D01*
G02X18859Y88780I0J-1300D01*
G01Y80906D01*
G02X17558Y79606I-1300J0D01*
G01X11260D01*
G02X9959Y80906I0J1300D01*
G01Y88780D01*
G02X11260Y90080I1300J0D01*
G01X26495Y68898D02*
G02X33820I3662J0D01*
G01Y64173D01*
G02X26495I-3662J0D01*
G01Y68898D01*
G01X16495D02*
G02X23820I3662J0D01*
G01Y64173D01*
G02X16495I-3662J0D01*
G01Y68898D01*
G01X6495D02*
G02X13820I3662J0D01*
G01Y64173D01*
G02X6495I-3662J0D01*
G01Y68898D01*
G01X36495D02*
G02X43820I3662J0D01*
G01Y64173D01*
G02X36495I-3662J0D01*
G01Y68898D01*
G01X2524Y126247D02*
X3674Y127397D01*
G01X2500Y123394D02*
X6527Y127421D01*
G01X2500Y120566D02*
X9356Y127421D01*
G01X2500Y117737D02*
X12184Y127421D01*
G01X2500Y114909D02*
X15012Y127421D01*
G01X2500Y112080D02*
X17841Y127421D01*
G01X2500Y109252D02*
X20669Y127421D01*
G01X13321Y117244D02*
X23498Y127421D01*
G01X2500Y106424D02*
X9959Y113883D01*
G01X16149Y117244D02*
X26326Y127421D01*
G01X2500Y103595D02*
X9959Y111055D01*
G01X18535Y116802D02*
X29155Y127421D01*
G01X2500Y100767D02*
X9959Y108226D01*
G01X18859Y114297D02*
X31983Y127421D01*
G01X2500Y97938D02*
X11332Y106770D01*
G01X18859Y111469D02*
X34811Y127421D01*
G01X2500Y95110D02*
X14160Y106770D01*
G01X18859Y108640D02*
X37640Y127421D01*
G01X2500Y92282D02*
X16988Y106770D01*
G01X2500Y89453D02*
X40468Y127421D01*
G01X23082Y107206D02*
X43297Y127421D01*
G01X2500Y86625D02*
X21102Y105226D01*
G01X35704Y117000D02*
X46125Y127421D01*
G01X25910Y107206D02*
X30500Y111796D01*
G01X2500Y83796D02*
X21141Y102437D01*
G01X38532Y117000D02*
X48954Y127421D01*
G01X28437Y106905D02*
X30500Y108968D01*
G01X11613Y90081D02*
X21102Y99570D01*
G01X2500Y80968D02*
X9959Y88427D01*
G01X41361Y117000D02*
X51782Y127421D01*
G01X29906Y105546D02*
X30500Y106139D01*
G01X14441Y90081D02*
X21102Y96741D01*
G01X2500Y78139D02*
X9959Y85599D01*
G01X44189Y117000D02*
X54610Y127421D01*
G01X28820Y101631D02*
X30500Y103311D01*
G01X17270Y90080D02*
X21095Y93906D01*
G01X2500Y75311D02*
X9959Y82770D01*
G01X47018Y117000D02*
X57439Y127421D01*
G01X28820Y98803D02*
X30500Y100482D01*
G01X18857Y88840D02*
X21102Y91084D01*
G01X2500Y72482D02*
X10188Y80170D01*
G01X49846Y117000D02*
X60267Y127421D01*
G01X30118Y97272D02*
X30500Y97654D01*
G01X18859Y86013D02*
X22490Y89644D01*
G01X2500Y69654D02*
X12452Y79606D01*
G01X52675Y117000D02*
X63096Y127421D01*
G01X18859Y83184D02*
X25319Y89644D01*
G01X2500Y66826D02*
X15280Y79606D01*
G01X55503Y117000D02*
X65924Y127421D01*
G01X10971Y72468D02*
X30199Y91696D01*
G01X2500Y63997D02*
X6495Y67992D01*
G01X58332Y117000D02*
X68752Y127421D01*
G01X12783Y71452D02*
X30500Y89169D01*
G01X2500Y61169D02*
X6495Y65164D01*
G01X61160Y117000D02*
X71581Y127421D01*
G01X13753Y69594D02*
X30500Y86340D01*
G01X2500Y58340D02*
X6821Y62662D01*
G01X63988Y117000D02*
X74409Y127421D01*
G01X19486Y72498D02*
X30500Y83512D01*
G01X13820Y66832D02*
X16557Y69569D01*
G01X2500Y55512D02*
X8119Y61131D01*
G01X66817Y117000D02*
X77238Y127421D01*
G01X21923Y72106D02*
X30500Y80683D01*
G01X13816Y63999D02*
X16495Y66679D01*
G01X2500Y52684D02*
X10331Y60515D01*
G01X69645Y117000D02*
X80066Y127421D01*
G01X23346Y70700D02*
X30500Y77855D01*
G01X2500Y49855D02*
X16508Y63863D01*
G01X72474Y117000D02*
X82895Y127421D01*
G01X23820Y68347D02*
X31017Y75544D01*
G01X2500Y47027D02*
X17325Y61852D01*
G01X75302Y117000D02*
X85723Y127421D01*
G01X30804Y72502D02*
X32432Y74130D01*
G01X23820Y65518D02*
X26495Y68193D01*
G01X2500Y44198D02*
X19000Y60698D01*
G01X78130Y117000D02*
X88552Y127421D01*
G01X32682Y71551D02*
X34630Y73500D01*
G01X23025Y61894D02*
X26495Y65365D01*
G01X2500Y41370D02*
X22436Y61306D01*
G01X80959Y117000D02*
X91380Y127421D01*
G01X33717Y69759D02*
X37458Y73500D01*
G01X2500Y38541D02*
X26761Y62803D01*
G01X83787Y117000D02*
X94208Y127421D01*
G01X39227Y72440D02*
X40287Y73500D01*
G01X33820Y67033D02*
X36615Y69828D01*
G01X2500Y35713D02*
X28000Y61213D01*
G01X86227Y116612D02*
X97037Y127421D01*
G01X41791Y72176D02*
X43115Y73500D01*
G01X33820Y64204D02*
X36495Y66880D01*
G01X2500Y32885D02*
X30126Y60511D01*
G01X87641Y115198D02*
X99865Y127421D01*
G01X43271Y70827D02*
X45944Y73500D01*
G01X2500Y30056D02*
X36497Y64053D01*
G01X89056Y113783D02*
X98357Y123085D01*
G01X43820Y68548D02*
X48772Y73500D01*
G01X2500Y27228D02*
X37236Y61964D01*
G01X90300Y112199D02*
X98357Y120257D01*
G01X43820Y65719D02*
X51601Y73500D01*
G01X2500Y24399D02*
X38852Y60751D01*
G01X90300Y109371D02*
X98357Y117428D01*
G01X43400Y62471D02*
X54429Y73500D01*
G01X2500Y21571D02*
X41859Y60930D01*
G01X90300Y106543D02*
X98357Y114600D01*
G01X2500Y18742D02*
X57257Y73500D01*
G01X90300Y103714D02*
X98357Y111771D01*
G01X2500Y15914D02*
X60086Y73500D01*
G01X90300Y100886D02*
X98357Y108943D01*
G01X2500Y13086D02*
X62914Y73500D01*
G01X90300Y98057D02*
X98357Y106114D01*
G01X61417Y69174D02*
X65743Y73500D01*
G01X2500Y10257D02*
X57380Y65137D01*
G01X90300Y95229D02*
X98357Y103286D01*
G01X64246Y69174D02*
X67766Y72695D01*
G01X2500Y7429D02*
X58223Y63152D01*
G01X91600Y93700D02*
X98357Y100458D01*
G01X66891Y68991D02*
X68100Y70200D01*
G01X2500Y4600D02*
X59920Y62020D01*
G01X94428Y93700D02*
X97157Y96429D01*
G01X59625Y58897D02*
X62578Y61849D01*
G01X48540Y47812D02*
X57639Y56911D01*
G01X3352Y2624D02*
X40600Y39872D01*
G01X62731Y59174D02*
X65406Y61849D01*
G01X51369Y47812D02*
X57648Y54091D01*
G01X6057Y2500D02*
X40600Y37043D01*
G01X65559Y59174D02*
X68100Y61715D01*
G01X54197Y47812D02*
X58908Y52523D01*
G01X8885Y2500D02*
X40600Y34215D01*
G01X67775Y58562D02*
X68100Y58886D01*
G01X57025Y47812D02*
X61063Y51849D01*
G01X11714Y2500D02*
X40600Y31386D01*
G01X61216Y49174D02*
X63891Y51849D01*
G01X14542Y2500D02*
X40600Y28558D01*
G01X64045Y49174D02*
X66908Y52038D01*
G01X17370Y2500D02*
X40600Y25730D01*
G01X66737Y49038D02*
X68100Y50401D01*
G01X20199Y2500D02*
X40600Y22901D01*
G01X23027Y2500D02*
X40600Y20073D01*
G01X25856Y2500D02*
X40600Y17244D01*
G01X28684Y2500D02*
X40600Y14416D01*
G01X31512Y2500D02*
X40600Y11587D01*
G01X34341Y2500D02*
X40866Y9025D01*
G01X37169Y2500D02*
X42208Y7539D01*
G01X39998Y2500D02*
X43622Y6125D01*
G01X42826Y2500D02*
X45314Y4988D01*
G01X45655Y2500D02*
X48100Y4945D01*
G01X48483Y2500D02*
X50928Y4946D01*
G01X51312Y2500D02*
X53757Y4946D01*
G01X54140Y2500D02*
X56585Y4945D01*
G01X56968Y2500D02*
X59414Y4945D01*
G01X59797Y2500D02*
X62242Y4946D01*
G01X62625Y2500D02*
X65071Y4946D01*
G01X65454Y2500D02*
X67899Y4945D01*
G01X68282Y2500D02*
X70728Y4946D01*
G01X71110Y2500D02*
X73556Y4946D01*
G01X73939Y2500D02*
X76384Y4945D01*
G01X76767Y2500D02*
X79213Y4945D01*
G01X79596Y2500D02*
X82041Y4946D01*
G01X82424Y2500D02*
X84870Y4946D01*
G01X85253Y2500D02*
X87698Y4946D01*
G01X88081Y2500D02*
X90526Y4946D01*
G01X90910Y2500D02*
X93355Y4946D01*
G01X93738Y2500D02*
X96183Y4946D01*
G01X96566Y2500D02*
X99012Y4946D01*
G01X99395Y2500D02*
X101840Y4946D01*
G01X102223Y2500D02*
X104669Y4946D01*
G01X105052Y2500D02*
X107497Y4946D01*
G01X107880Y2500D02*
X110326Y4946D01*
G01X110709Y2500D02*
X113154Y4946D01*
G01X113537Y2500D02*
X115982Y4946D01*
G01X116365Y2500D02*
X118811Y4946D01*
G01X119194Y2500D02*
X121639Y4946D01*
G01X122022Y2500D02*
X123100Y3578D01*
G01X4699Y2500D02*
X2500Y4699D01*
G01X7527Y2500D02*
X2500Y7527D01*
G01X10356Y2500D02*
X2500Y10356D01*
G01X13184Y2500D02*
X2500Y13184D01*
G01X16013Y2500D02*
X2500Y16013D01*
G01X18841Y2500D02*
X2500Y18841D01*
G01X21670Y2500D02*
X2500Y21670D01*
G01X24498Y2500D02*
X2500Y24498D01*
G01X27326Y2500D02*
X2500Y27326D01*
G01X30155Y2500D02*
X2500Y30155D01*
G01X32983Y2500D02*
X2500Y32983D01*
G01X35812Y2500D02*
X2500Y35812D01*
G01X38640Y2500D02*
X2500Y38640D01*
G01X41469Y2500D02*
X2500Y41469D01*
G01X44297Y2500D02*
X2500Y44297D01*
G01X47125Y2500D02*
X2500Y47125D01*
G01X40600Y11854D02*
X2500Y49954D01*
G01X49954Y2500D02*
X47508Y4946D01*
G01X40600Y14682D02*
X2500Y52782D01*
G01X52782Y2500D02*
X50337Y4945D01*
G01X40600Y17511D02*
X2500Y55611D01*
G01X55611Y2500D02*
X53165Y4945D01*
G01X40600Y20339D02*
X2500Y58439D01*
G01X58439Y2500D02*
X55994Y4946D01*
G01X40600Y23168D02*
X2500Y61268D01*
G01X61268Y2500D02*
X58822Y4946D01*
G01X40600Y25996D02*
X2500Y64096D01*
G01X64096Y2500D02*
X61650Y4946D01*
G01X6874Y62550D02*
X2500Y66924D01*
G01X40600Y28825D02*
X8534Y60890D01*
G01X66924Y2500D02*
X64479Y4946D01*
G01X6495Y65758D02*
X2500Y69753D01*
G01X40600Y31653D02*
X11491Y60762D01*
G01X69753Y2500D02*
X67307Y4946D01*
G01X6495Y68586D02*
X2500Y72581D01*
G01X40600Y34482D02*
X13095Y61986D01*
G01X72581Y2500D02*
X70136Y4946D01*
G01X7059Y70850D02*
X2500Y75410D01*
G01X40600Y37310D02*
X13819Y64091D01*
G01X75410Y2500D02*
X72964Y4946D01*
G01X8550Y72188D02*
X2500Y78238D01*
G01X16495Y64243D02*
X13820Y66918D01*
G01X40600Y40138D02*
X20227Y60511D01*
G01X78238Y2500D02*
X75793Y4946D01*
G01X11141Y72426D02*
X2500Y81066D01*
G01X16495Y67072D02*
X13685Y69881D01*
G01X41029Y42538D02*
X22337Y61230D01*
G01X81066Y2500D02*
X78621Y4946D01*
G01X16605Y69790D02*
X2500Y83895D01*
G01X42421Y43974D02*
X23565Y62830D01*
G01X83895Y2500D02*
X81450Y4946D01*
G01X17653Y71570D02*
X2500Y86723D01*
G01X27173Y62050D02*
X23820Y65404D01*
G01X43835Y45388D02*
X28035Y61189D01*
G01X86723Y2500D02*
X84278Y4946D01*
G01X9959Y82092D02*
X2500Y89552D01*
G01X19544Y72508D02*
X12446Y79606D01*
G01X26495Y65557D02*
X23820Y68232D01*
G01X45249Y46802D02*
X31344Y60708D01*
G01X89552Y2500D02*
X87106Y4946D01*
G01X9959Y84921D02*
X2500Y92380D01*
G01X26495Y68385D02*
X15274Y79606D01*
G01X47073Y47808D02*
X33007Y61873D01*
G01X92380Y2500D02*
X89935Y4946D01*
G01X9959Y87749D02*
X2500Y95209D01*
G01X26984Y70725D02*
X18018Y79690D01*
G01X49897Y47812D02*
X33810Y63899D01*
G01X95209Y2500D02*
X92763Y4946D01*
G01X10623Y89914D02*
X2500Y98037D01*
G01X28417Y72120D02*
X18859Y81678D01*
G01X36498Y64040D02*
X33820Y66717D01*
G01X52725Y47812D02*
X40024Y60513D01*
G01X98037Y2500D02*
X95592Y4946D01*
G01X13285Y90081D02*
X2500Y100866D01*
G01X30877Y72489D02*
X18859Y84507D01*
G01X36495Y66871D02*
X33749Y69617D01*
G01X55554Y47812D02*
X42219Y61146D01*
G01X100866Y2500D02*
X98420Y4946D01*
G01X16114Y90080D02*
X2500Y103694D01*
G01X36568Y69626D02*
X18859Y87335D01*
G01X58269Y47925D02*
X43506Y62688D01*
G01X103694Y2500D02*
X101249Y4946D01*
G01X30500Y78523D02*
X2500Y106522D01*
G01X37552Y71471D02*
X35523Y73500D01*
G01X59995Y49027D02*
X43820Y65202D01*
G01X106522Y2500D02*
X104077Y4945D01*
G01X21119Y90732D02*
X2500Y109351D01*
G01X30500Y81351D02*
X22189Y89662D01*
G01X39375Y72476D02*
X38351Y73500D01*
G01X57577Y54274D02*
X43820Y68031D01*
G01X62677Y49174D02*
X59786Y52065D01*
G01X109351Y2500D02*
X106905Y4946D01*
G01X21095Y93585D02*
X2500Y112179D01*
G01X30500Y84180D02*
X25035Y89644D01*
G01X57678Y57002D02*
X41180Y73500D01*
G01X65505Y49174D02*
X62830Y51849D01*
G01X112179Y2500D02*
X109734Y4946D01*
G01X10225Y107283D02*
X2500Y115008D01*
G01X21102Y96406D02*
X10472Y107035D01*
G01X30500Y87008D02*
X27827Y89681D01*
G01X58966Y58542D02*
X44008Y73500D01*
G01X68100Y49408D02*
X65658Y51849D01*
G01X115008Y2500D02*
X112562Y4945D01*
G01X9959Y110377D02*
X2500Y117836D01*
G01X21102Y99234D02*
X13566Y106770D01*
G01X30500Y89836D02*
X28820Y91516D01*
G01X61162Y59174D02*
X46836Y73500D01*
G01X68100Y52236D02*
X67834Y52502D01*
G01X117836Y2500D02*
X115391Y4945D01*
G01X9959Y113205D02*
X2500Y120664D01*
G01X21105Y102060D02*
X16395Y106770D01*
G01X57372Y65793D02*
X49665Y73500D01*
G01X63990Y59174D02*
X61315Y61849D01*
G01X120664Y2500D02*
X118219Y4946D01*
G01X9962Y116031D02*
X2500Y123493D01*
G01X21102Y104891D02*
X18642Y107351D01*
G01X58177Y67816D02*
X52493Y73500D01*
G01X67063Y58930D02*
X64144Y61849D01*
G01X123100Y2893D02*
X121048Y4946D01*
G01X11577Y117244D02*
X2533Y126289D01*
G01X21776Y107046D02*
X18859Y109963D01*
G01X30500Y98322D02*
X28820Y100001D01*
G01X59843Y68979D02*
X55322Y73500D01*
G01X68100Y60722D02*
X66814Y62008D01*
G01X14406Y117244D02*
X4228Y127421D01*
G01X24444Y107206D02*
X18859Y112791D01*
G01X30500Y101150D02*
X29236Y102414D01*
G01X62476Y69174D02*
X58150Y73500D01*
G01X17234Y117244D02*
X7057Y127421D01*
G01X27272Y107206D02*
X18859Y115620D01*
G01X30500Y103979D02*
X30379Y104099D01*
G01X65304Y69174D02*
X60978Y73500D01*
G01X30500Y106807D02*
X9885Y127421D01*
G01X68100Y69207D02*
X63807Y73500D01*
G01X30500Y109635D02*
X12714Y127421D01*
G01X68100Y72035D02*
X66635Y73500D01*
G01X30500Y112464D02*
X15542Y127421D01*
G01X31227Y114565D02*
X18371Y127421D01*
G01X32641Y115980D02*
X21199Y127421D01*
G01X34449Y117000D02*
X24028Y127421D01*
G01X37277Y117000D02*
X26856Y127421D01*
G01X40105Y117000D02*
X29684Y127421D01*
G01X42934Y117000D02*
X32513Y127421D01*
G01X45762Y117000D02*
X35341Y127421D01*
G01X48591Y117000D02*
X38170Y127421D01*
G01X51419Y117000D02*
X40998Y127421D01*
G01X54248Y117000D02*
X43826Y127421D01*
G01X57076Y117000D02*
X46655Y127421D01*
G01X59904Y117000D02*
X49483Y127421D01*
G01X62733Y117000D02*
X52312Y127421D01*
G01X65561Y117000D02*
X55140Y127421D01*
G01X68390Y117000D02*
X57969Y127421D01*
G01X91690Y93700D02*
X90300Y95090D01*
G01X71218Y117000D02*
X60797Y127421D01*
G01X94518Y93700D02*
X90300Y97918D01*
G01X74047Y117000D02*
X63626Y127421D01*
G01X97157Y93890D02*
X90300Y100747D01*
G01X76875Y117000D02*
X66454Y127421D01*
G01X97157Y96718D02*
X90300Y103575D01*
G01X79703Y117000D02*
X69282Y127421D01*
G01X97559Y99144D02*
X90300Y106403D01*
G01X82532Y117000D02*
X72111Y127421D01*
G01X98357Y101175D02*
X90300Y109232D01*
G01X85360Y117000D02*
X74939Y127421D01*
G01X98357Y104003D02*
X90300Y112060D01*
G01X98357Y106832D02*
X77768Y127421D01*
G01X98357Y109660D02*
X80596Y127421D01*
G01X98357Y112488D02*
X83424Y127421D01*
G01X98357Y115317D02*
X86253Y127421D01*
G01X98357Y118145D02*
X89081Y127421D01*
G01X98357Y120974D02*
X91910Y127421D01*
G01X98357Y123802D02*
X94738Y127421D01*
G01X98751Y126237D02*
X97567Y127421D01*
G01X24961Y95472D02*
X52666D01*
X62400Y85738D01*
G01X42715D02*
Y90684D01*
X39904Y93496D01*
X24954D01*
G01X24961Y103346D02*
X27623D01*
X28592Y104315D01*
X27592Y105315D01*
X24961D01*
G01X102339Y60000D02*
X104157Y61818D01*
Y58742D01*
X103719Y58304D01*
X99519D01*
X96757Y55542D01*
Y48465D01*
X97757Y47465D01*
Y23965D01*
X101619Y20104D01*
X156459D01*
X160655Y24300D01*
X164061D01*
X163900Y24139D01*
Y13939D01*
X163861Y13900D01*
X160139D01*
X157339Y16700D01*
X143761D01*
X141561Y14500D01*
X135861D01*
X134600Y13239D01*
Y10800D01*
X124361D01*
X123107Y9546D01*
X46707D01*
X45200Y11053D01*
Y40247D01*
X48165Y43212D01*
X58174D01*
G03X61024Y41849I2850J2300D01*
G01X65748D01*
G03X68100Y42704I0J3662D01*
G01Y34339D01*
X67561Y33800D01*
X51461D01*
X49100Y31439D01*
Y11761D01*
X51261Y9600D01*
X85439D01*
X91900Y16061D01*
Y57161D01*
X94739Y60000D01*
X102339D01*
G01X45200Y38815D02*
X49597Y43212D01*
G01X45200Y35987D02*
X52425Y43212D01*
G01X45200Y33158D02*
X55254Y43212D01*
G01X45200Y30330D02*
X58082Y43212D01*
G01X51499Y33800D02*
X59770Y42071D01*
G01X45200Y27502D02*
X49100Y31401D01*
G01X54327Y33800D02*
X62377Y41849D01*
G01X45200Y24673D02*
X49100Y28573D01*
G01X57156Y33800D02*
X65205Y41849D01*
G01X45200Y21845D02*
X49100Y25744D01*
G01X59984Y33800D02*
X68100Y41916D01*
G01X45200Y19016D02*
X49100Y22916D01*
G01X62813Y33800D02*
X68100Y39087D01*
G01X45200Y16188D02*
X49100Y20087D01*
G01X65641Y33800D02*
X68100Y36259D01*
G01X45200Y13359D02*
X49100Y17259D01*
G01X45461Y10792D02*
X49100Y14431D01*
G01X91900Y54402D02*
X97498Y60000D01*
G01X47044Y9546D02*
X49179Y11682D01*
G01X91900Y51574D02*
X100326Y60000D01*
G01X49872Y9546D02*
X50594Y10268D01*
G01X101459Y58304D02*
X104157Y61003D01*
G01X91900Y48746D02*
X96757Y53603D01*
G01X52701Y9546D02*
X52754Y9600D01*
G01X91900Y45917D02*
X96757Y50774D01*
G01X55529Y9546D02*
X55583Y9600D01*
G01X91900Y43089D02*
X97017Y48206D01*
G01X58357Y9546D02*
X58411Y9600D01*
G01X91900Y40260D02*
X97757Y46117D01*
G01X61186Y9546D02*
X61240Y9600D01*
G01X91900Y37432D02*
X97757Y43289D01*
G01X64014Y9546D02*
X64068Y9600D01*
G01X91900Y34604D02*
X97757Y40461D01*
G01X66843Y9546D02*
X66896Y9600D01*
G01X91900Y31775D02*
X97757Y37632D01*
G01X69671Y9546D02*
X69725Y9600D01*
G01X91900Y28947D02*
X97757Y34804D01*
G01X72500Y9546D02*
X72553Y9600D01*
G01X91900Y26118D02*
X97757Y31975D01*
G01X75328Y9546D02*
X75382Y9600D01*
G01X91900Y23290D02*
X97757Y29147D01*
G01X78156Y9546D02*
X78210Y9600D01*
G01X91900Y20461D02*
X97757Y26318D01*
G01X80985Y9546D02*
X81039Y9600D01*
G01X91900Y17633D02*
X97995Y23728D01*
G01X83813Y9546D02*
X83867Y9600D01*
G01X86642Y9546D02*
X99409Y22313D01*
G01X89470Y9546D02*
X100823Y20899D01*
G01X92298Y9546D02*
X102856Y20104D01*
G01X95127Y9546D02*
X105685Y20104D01*
G01X97955Y9546D02*
X108513Y20104D01*
G01X100784Y9546D02*
X111342Y20104D01*
G01X103612Y9546D02*
X114170Y20104D01*
G01X106441Y9546D02*
X116998Y20104D01*
G01X109269Y9546D02*
X119827Y20104D01*
G01X112097Y9546D02*
X122655Y20104D01*
G01X114926Y9546D02*
X125484Y20104D01*
G01X117754Y9546D02*
X128312Y20104D01*
G01X120583Y9546D02*
X131140Y20104D01*
G01X124666Y10800D02*
X133969Y20104D01*
G01X127494Y10800D02*
X136797Y20104D01*
G01X130322Y10800D02*
X139626Y20104D01*
G01X136851Y14500D02*
X142454Y20104D01*
G01X133151Y10800D02*
X134600Y12249D01*
G01X139679Y14500D02*
X145283Y20104D01*
G01X144708Y16700D02*
X148111Y20104D01*
G01X147536Y16700D02*
X150940Y20104D01*
G01X150364Y16700D02*
X153768Y20104D01*
G01X153193Y16700D02*
X160792Y24300D01*
G01X156021Y16700D02*
X163621Y24300D01*
G01X158094Y15945D02*
X163900Y21750D01*
G01X159508Y14530D02*
X163900Y18922D01*
G01X161707Y13900D02*
X163900Y16093D01*
G01X48565Y9546D02*
X45200Y12910D01*
G01X49100Y11839D02*
X45200Y15739D01*
G01X51393Y9546D02*
X51339Y9600D01*
G01X49100Y14668D02*
X45200Y18567D01*
G01X54222Y9546D02*
X54168Y9600D01*
G01X49100Y17496D02*
X45200Y21396D01*
G01X57050Y9546D02*
X56996Y9600D01*
G01X49100Y20325D02*
X45200Y24224D01*
G01X59879Y9546D02*
X59825Y9600D01*
G01X49100Y23153D02*
X45200Y27053D01*
G01X62707Y9546D02*
X62653Y9600D01*
G01X49100Y25982D02*
X45200Y29881D01*
G01X65535Y9546D02*
X65482Y9600D01*
G01X49100Y28810D02*
X45200Y32710D01*
G01X68364Y9546D02*
X68310Y9600D01*
G01X49200Y31538D02*
X45200Y35538D01*
G01X71192Y9546D02*
X71138Y9600D01*
G01X50614Y32953D02*
X45200Y38366D01*
G01X74021Y9546D02*
X73967Y9600D01*
G01X52595Y33800D02*
X45674Y40721D01*
G01X76849Y9546D02*
X76795Y9600D01*
G01X55423Y33800D02*
X47088Y42135D01*
G01X79678Y9546D02*
X79624Y9600D01*
G01X58252Y33800D02*
X48840Y43212D01*
G01X82506Y9546D02*
X82452Y9600D01*
G01X61080Y33800D02*
X51669Y43212D01*
G01X85334Y9546D02*
X85280Y9600D01*
G01X63908Y33800D02*
X54497Y43212D01*
G01X88163Y9546D02*
X86774Y10935D01*
G01X66737Y33800D02*
X57325Y43212D01*
G01X90991Y9546D02*
X88188Y12349D01*
G01X68100Y35266D02*
X61516Y41849D01*
G01X93820Y9546D02*
X89602Y13763D01*
G01X68100Y38094D02*
X64345Y41849D01*
G01X96648Y9546D02*
X91016Y15178D01*
G01X68100Y40923D02*
X66965Y42057D01*
G01X99476Y9546D02*
X91900Y17122D01*
G01X102305Y9546D02*
X91900Y19951D01*
G01X105133Y9546D02*
X91900Y22779D01*
G01X107962Y9546D02*
X91900Y25608D01*
G01X110790Y9546D02*
X91900Y28436D01*
G01X97757Y25407D02*
X91900Y31264D01*
G01X113619Y9546D02*
X103061Y20104D01*
G01X97757Y28236D02*
X91900Y34093D01*
G01X116447Y9546D02*
X105889Y20104D01*
G01X97757Y31064D02*
X91900Y36921D01*
G01X119276Y9546D02*
X108718Y20104D01*
G01X97757Y33892D02*
X91900Y39750D01*
G01X122104Y9546D02*
X111546Y20104D01*
G01X97757Y36721D02*
X91900Y42578D01*
G01X124020Y10459D02*
X114375Y20104D01*
G01X97757Y39549D02*
X91900Y45406D01*
G01X126507Y10800D02*
X117203Y20104D01*
G01X97757Y42378D02*
X91900Y48235D01*
G01X129335Y10800D02*
X120032Y20104D01*
G01X97757Y45206D02*
X91900Y51063D01*
G01X132163Y10800D02*
X122860Y20104D01*
G01X96757Y49035D02*
X91900Y53892D01*
G01X134600Y11192D02*
X125688Y20104D01*
G01X96757Y51863D02*
X91900Y56720D01*
G01X134991Y13630D02*
X128517Y20104D01*
G01X96757Y54691D02*
X93094Y58355D01*
G01X136949Y14500D02*
X131345Y20104D01*
G01X97746Y56531D02*
X94508Y59769D01*
G01X139777Y14500D02*
X134174Y20104D01*
G01X99160Y57946D02*
X97106Y60000D01*
G01X142083Y15022D02*
X137002Y20104D01*
G01X101630Y58304D02*
X99934Y60000D01*
G01X143498Y16436D02*
X139830Y20104D01*
G01X104089Y58674D02*
X102551Y60212D01*
G01X146062Y16700D02*
X142659Y20104D01*
G01X104157Y61434D02*
X103965Y61626D01*
G01X148891Y16700D02*
X145487Y20104D01*
G01X151719Y16700D02*
X148316Y20104D01*
G01X154548Y16700D02*
X151144Y20104D01*
G01X160176Y13900D02*
X153973Y20104D01*
G01X163004Y13900D02*
X156630Y20275D01*
G01X163900Y15833D02*
X158044Y21689D01*
G01X163900Y18662D02*
X159458Y23103D01*
G01X163900Y21490D02*
X161090Y24300D01*
G01X163990Y24229D02*
X163919Y24300D01*
G01X78417Y15372D02*
Y18783D01*
X76900Y20300D01*
X57400D01*
X55500Y22200D01*
Y28400D01*
X57300Y30200D01*
X70800D01*
X74300Y33700D01*
Y76400D01*
X80441Y82541D01*
X85298D01*
G01X63386Y15512D02*
X70258D01*
X70398Y15372D01*
X72898D01*
G01X63386Y25512D02*
X70258D01*
X70398Y25372D01*
X72898D01*
G01X78417D02*
X82672D01*
X85300Y28000D01*
Y44000D01*
X79200Y50100D01*
Y69441D01*
X81600Y71841D01*
X85198D01*
G01X91367Y71833D02*
X96059Y67141D01*
X98340D01*
X98363Y67163D01*
X101513D01*
G01Y65196D02*
X94500Y65196D01*
X93216Y66479D01*
X90716D01*
G01X106434Y59228D02*
Y62242D01*
X106433D01*
G01X108403Y60249D02*
Y62242D01*
G01X104466D02*
Y65196D01*
X113324Y74054D01*
G01X122696Y89504D02*
X129328D01*
G03X129257Y89004I1729J-500D01*
G01Y85750D01*
X128219Y84712D01*
X126587D01*
G03X126160Y84762I-427J-1800D01*
G01X124110D01*
G03X122543Y81928I0J-1850D01*
G03X124110Y79094I1567J-984D01*
G01X126160D01*
G03X126587Y79144I0J1850D01*
G01X129751D01*
X129415Y78807D01*
X126586D01*
G03X126160Y78857I-427J-1800D01*
G01X124110D01*
G03X122327Y76512I0J-1850D01*
G01X121857Y76042D01*
Y73965D01*
X122313Y73510D01*
G03X124110Y71219I1797J-440D01*
G01X126160D01*
G03X126587Y71270I0J1850D01*
G01X130846D01*
X131085Y71031D01*
G03X131191Y70933I1274J1272D01*
G01X126586D01*
G03X126160Y70983I-427J-1800D01*
G01X124110D01*
G03X122543Y68148I0J-1850D01*
G03X122543Y66179I1566J-985D01*
G03X122338Y64662I1567J-984D01*
G01X121296Y65704D01*
X119219D01*
X119158Y65643D01*
X119096Y65704D01*
X115219D01*
X114608Y65093D01*
G03X113324Y64834I-301J-1826D01*
G03X111929Y65072I-984J-1567D01*
G01X111296Y65704D01*
X107819D01*
X107758Y65643D01*
X107696Y65704D01*
X105419D01*
X105100Y65385D01*
Y68108D01*
X105158Y68165D01*
Y74142D01*
X105100Y74200D01*
Y82722D01*
X105419Y82404D01*
X107596D01*
X107696Y82504D01*
X111296D01*
X111848Y83056D01*
G03X113324Y83273I492J1784D01*
G03X114999Y83124I984J1567D01*
G01X115319Y82804D01*
X119019D01*
X119219Y82604D01*
X121296D01*
X122358Y83665D01*
Y89165D01*
X122696Y89504D01*
G01X105100Y81745D02*
X105759Y82404D01*
G01X105100Y78916D02*
X108688Y82504D01*
G01X105100Y76088D02*
X112028Y83016D01*
G01X105158Y73317D02*
X114943Y83102D01*
G01X122358Y87688D02*
X124173Y89504D01*
G01X105158Y70488D02*
X117473Y82804D01*
G01X122358Y84860D02*
X127001Y89504D01*
G01X105100Y67602D02*
X120101Y82604D01*
G01X125088Y84762D02*
X129257Y88931D01*
G01X106030Y65704D02*
X122440Y82114D01*
G01X127866Y84712D02*
X129257Y86103D01*
G01X108859Y65704D02*
X122796Y79641D01*
G01X124840Y78857D02*
X125077Y79094D01*
G01X111492Y65509D02*
X121857Y75874D01*
G01X127618Y78807D02*
X127955Y79144D01*
G01X113879Y65067D02*
X122310Y73498D01*
G01X117344Y65704D02*
X123136Y71496D01*
G01X125451Y70983D02*
X125688Y71219D01*
G01X120172Y65704D02*
X122450Y67982D01*
G01X128230Y70933D02*
X128566Y71270D01*
G01X122148Y64852D02*
X122272Y64976D01*
G01X131058Y70933D02*
X131121Y70996D01*
G01X105544Y65704D02*
X105100Y66148D01*
G01X108372Y65704D02*
X105158Y68918D01*
G01X111201Y65704D02*
X105158Y71747D01*
G01X114624Y65109D02*
X105100Y74633D01*
G01X116857Y65704D02*
X105100Y77461D01*
G01X119686Y65704D02*
X105100Y80290D01*
G01X122376Y65842D02*
X105815Y82404D01*
G01X122300Y68747D02*
X108543Y82504D01*
G01X123157Y70719D02*
X111334Y82541D01*
G01X121857Y74846D02*
X113554Y83150D01*
G01X125721Y70983D02*
X125484Y71219D01*
G01X122276Y77256D02*
X116728Y82804D01*
G01X128599Y70933D02*
X128263Y71270D01*
G01X123581Y78780D02*
X119757Y82604D01*
G01X122260Y82930D02*
X121941Y83248D01*
G01X126341Y78848D02*
X126096Y79094D01*
G01X123398Y84619D02*
X122358Y85660D01*
G01X129210Y78807D02*
X128874Y79144D01*
G01X126084Y84762D02*
X122358Y88488D01*
G01X128591Y85083D02*
X124170Y89504D01*
G01X129257Y87245D02*
X126999Y89504D01*
G01X101513Y82911D02*
Y84461D01*
X98157Y87817D01*
X90795D01*
G01X106434Y88028D02*
Y85865D01*
X106433Y85864D01*
G01X108403Y88149D02*
Y85865D01*
X108403Y85864D01*
G01X102058Y88541D02*
X102814D01*
X104466Y86889D01*
Y85864D01*
G01X101513Y75037D02*
X96761D01*
X95658Y76141D01*
G01X101513Y77007D02*
X98492Y77007D01*
X96524Y78974D01*
G01X101513D02*
X96524D01*
G01X95858Y79641D02*
X93149D01*
X90795Y77287D01*
Y77187D01*
G01X96524Y78974D02*
X95858Y79641D01*
G01X140898Y74004D02*
X159819D01*
X161857Y71965D01*
Y68265D01*
X163519Y66604D01*
X173496D01*
X173957Y67065D01*
Y58442D01*
X173819Y58304D01*
X166419D01*
X164757Y56642D01*
Y49865D01*
X166419Y48204D01*
X172919D01*
X173757Y47365D01*
Y44743D01*
X173396Y45104D01*
X165119D01*
X158219Y38204D01*
X131096D01*
X129758Y39542D01*
Y47765D01*
X131158Y49165D01*
Y57242D01*
X129896Y58504D01*
X125996D01*
X124196Y60304D01*
X122596D01*
X122458Y60442D01*
Y64362D01*
G03X124110Y63345I1652J833D01*
G01X126160D01*
G03X126587Y63396I0J1850D01*
G01X128675D01*
X131657Y60413D01*
Y58304D01*
G03X132185Y57031I1800J0D01*
G01X133718Y55497D01*
G03X134991Y54970I1273J1273D01*
G01X135259D01*
G03X136544Y53870I1285J200D01*
G01X139544D01*
G03X140844Y55170I0J1300D01*
G01Y58370D01*
G03X140347Y59393I-1300J0D01*
G03X140884Y60446I-763J1053D01*
G01Y63646D01*
G03X140235Y64771I-1300J0D01*
G03X140923Y65918I-612J1147D01*
G01Y69118D01*
G03X140387Y70170I-1300J0D01*
G03X140898Y71204I-789J1033D01*
G01Y74004D01*
G01X122458Y62333D02*
X123555Y63430D01*
G01X123258Y60304D02*
X126305Y63351D01*
G01X125141Y59359D02*
X128926Y63144D01*
G01X140898Y72288D02*
X142614Y74004D01*
G01X127115Y58504D02*
X130340Y61730D01*
G01X140882Y69443D02*
X145443Y74004D01*
G01X129920Y58481D02*
X131657Y60218D01*
G01X140923Y66656D02*
X148271Y74004D01*
G01X131158Y56890D02*
X131821Y57554D01*
G01X140877Y63781D02*
X151099Y74004D01*
G01X131158Y54062D02*
X133156Y56060D01*
G01X140884Y60960D02*
X153928Y74004D01*
G01X131158Y51234D02*
X134896Y54972D01*
G01X140844Y58092D02*
X156756Y74004D01*
G01X129758Y47005D02*
X136622Y53870D01*
G01X140844Y55263D02*
X159585Y74004D01*
G01X129758Y44177D02*
X139451Y53870D01*
G01X129758Y41348D02*
X161116Y72707D01*
G01X130269Y39031D02*
X161857Y70620D01*
G01X132270Y38204D02*
X162094Y68028D01*
G01X135099Y38204D02*
X163509Y66614D01*
G01X137927Y38204D02*
X166327Y66604D01*
G01X140756Y38204D02*
X169155Y66604D01*
G01X143584Y38204D02*
X171984Y66604D01*
G01X166513Y58304D02*
X173957Y65749D01*
G01X146413Y38204D02*
X164757Y56549D01*
G01X169341Y58304D02*
X173957Y62920D01*
G01X149241Y38204D02*
X164757Y53721D01*
G01X172169Y58304D02*
X173957Y60092D01*
G01X152069Y38204D02*
X164757Y50892D01*
G01X154898Y38204D02*
X165658Y48964D01*
G01X157726Y38204D02*
X167726Y48204D01*
G01X167455Y45104D02*
X170554Y48204D01*
G01X170283Y45104D02*
X173151Y47972D01*
G01X173112Y45104D02*
X173757Y45750D01*
G01X133044Y38204D02*
X129758Y41490D01*
G01X135872Y38204D02*
X129758Y44318D01*
G01X138701Y38204D02*
X129758Y47147D01*
G01X141529Y38204D02*
X130863Y48870D01*
G01X144357Y38204D02*
X131158Y51404D01*
G01X126886Y58504D02*
X122458Y62932D01*
G01X147186Y38204D02*
X131158Y54232D01*
G01X129714Y58504D02*
X124873Y63345D01*
G01X150014Y38204D02*
X131158Y57061D01*
G01X131657Y59389D02*
X127651Y63396D01*
G01X152843Y38204D02*
X137177Y53870D01*
G01X155671Y38204D02*
X139943Y53933D01*
G01X158359Y38344D02*
X140844Y55859D01*
G01X159773Y39759D02*
X140790Y58742D01*
G01X161188Y41173D02*
X140884Y61477D01*
G01X162602Y42587D02*
X140349Y64840D01*
G01X164016Y44001D02*
X140923Y67094D01*
G01X165742Y45104D02*
X140539Y70307D01*
G01X168570Y45104D02*
X140898Y72776D01*
G01X164757Y51745D02*
X142499Y74004D01*
G01X171398Y45104D02*
X168299Y48204D01*
G01X164757Y54574D02*
X145327Y74004D01*
G01X173757Y45574D02*
X171127Y48204D01*
G01X165137Y57022D02*
X148156Y74004D01*
G01X166684Y58304D02*
X150984Y74004D01*
G01X169512Y58304D02*
X153813Y74004D01*
G01X161857Y68788D02*
X156641Y74004D01*
G01X172341Y58304D02*
X164041Y66604D01*
G01X161857Y71616D02*
X159470Y74004D01*
G01X173957Y59516D02*
X166870Y66604D01*
G01X173957Y62344D02*
X169698Y66604D01*
G01X173957Y65173D02*
X172526Y66604D01*
G01X125135Y69133D02*
X132429Y69133D01*
X134043Y67518D01*
X138123D01*
G01X125135Y67163D02*
X130135Y67163D01*
X135253Y62046D01*
X138084D01*
G01X125135Y65196D02*
X129420Y65196D01*
X133458Y61158D01*
Y58304D01*
X134991Y56770D01*
X138044D01*
G01X114308Y62242D02*
Y56453D01*
X116351Y54409D01*
Y51809D01*
G01X112340Y62242D02*
X112340Y55626D01*
X111084Y54370D01*
Y51770D01*
X111083D01*
G01X120214Y62242D02*
Y60148D01*
G01X110370Y62242D02*
Y60417D01*
G01X118244Y62242D02*
Y60117D01*
G01X116277Y60123D02*
Y62242D01*
G01X125135Y71100D02*
X128517D01*
G01X122182Y62242D02*
Y65196D01*
G01D02*
X113324Y74054D01*
G01X125135Y73070D02*
X131592Y73070D01*
X132358Y72304D01*
X134558D01*
G01X112340Y85864D02*
X112340Y85865D01*
Y92520D01*
X111320Y93540D01*
Y96140D01*
G01X114308Y85864D02*
Y91260D01*
X116587Y93540D01*
Y96140D01*
G01X120214Y85864D02*
Y89160D01*
G01X110370Y85864D02*
Y88491D01*
G01X118244Y85864D02*
Y88417D01*
G01X116277Y88585D02*
Y85865D01*
X116277Y85864D01*
G01X125135Y78974D02*
X121958D01*
G01X125135D02*
X128724D01*
G01X125681Y85865D02*
X122182D01*
Y85864D01*
G01X125135Y80944D02*
X129997D01*
X134721Y85668D01*
X138320D01*
G01X125135Y75037D02*
X128224D01*
G01X138280Y91061D02*
X133115D01*
X131058Y89004D01*
Y85004D01*
X128965Y82911D01*
X125135D01*
G01X138280Y80313D02*
X133467D01*
X130160Y77007D01*
X125135D01*
G01X172779Y127421D02*
X204724D01*
G02X206161Y125984I0J-1437D01*
G01Y3937D01*
G02X204724Y2500I-1437J0D01*
G01X145600D01*
Y4500D01*
X179539D01*
X181800Y6761D01*
Y20239D01*
X180639Y21400D01*
X180556D01*
X181358Y22202D01*
Y24565D01*
X182796Y26004D01*
X197496D01*
X200358Y28865D01*
Y47943D01*
X198496Y49804D01*
X192496D01*
X188158Y54142D01*
Y97042D01*
X181896Y103304D01*
X166519D01*
X164957Y101742D01*
Y88065D01*
X166119Y86904D01*
X173819D01*
X173957Y86765D01*
Y83843D01*
X173896Y83904D01*
X163819D01*
X158919Y79004D01*
X153192D01*
Y84668D01*
G03X152664Y85940I-1800J0D01*
G01X151664Y86941D01*
G03X150391Y87468I-1273J-1273D01*
G01X146624D01*
G03X145339Y88568I-1285J-200D01*
G01X140725D01*
G03X141081Y89461I-945J894D01*
G01Y92661D01*
G03X139780Y93962I-1300J0D01*
G01X136780D01*
G03X135496Y92862I0J-1300D01*
G01X133115D01*
G03X131842Y92334I0J-1800D01*
G01X130758Y91250D01*
Y99242D01*
X130258Y99742D01*
Y106265D01*
X131096Y107104D01*
X172996D01*
X174958Y109065D01*
Y125242D01*
X172779Y127421D01*
G01X190183Y106933D02*
X196183D01*
G02X197483Y105632I0J-1300D01*
G01Y99632D01*
G02X196183Y98332I-1300J0D01*
G01X190183D01*
G02X188882Y99632I0J1300D01*
G01Y105632D01*
G02X190183Y106933I1300J0D01*
G01X197483Y92790D02*
G02I-4300J0D01*
G01X190065Y76145D02*
X196065D01*
G02X197365Y74845I0J-1300D01*
G01Y68845D01*
G02X196065Y67545I-1300J0D01*
G01X190065D01*
G02X188764Y68845I0J1300D01*
G01Y74845D01*
G02X190065Y76145I1300J0D01*
G01X197365Y62002D02*
G02I-4300J0D01*
G01X130258Y104074D02*
X133288Y107104D01*
G01X130258Y101245D02*
X136116Y107104D01*
G01X130758Y98917D02*
X138945Y107104D01*
G01X130758Y96088D02*
X141773Y107104D01*
G01X130758Y93260D02*
X144601Y107104D01*
G01X133188Y92862D02*
X147430Y107104D01*
G01X137116Y93962D02*
X150258Y107104D01*
G01X173092Y127109D02*
X173404Y127421D01*
G01X139935Y93952D02*
X153087Y107104D01*
G01X174506Y125694D02*
X176233Y127421D01*
G01X141081Y92269D02*
X155915Y107104D01*
G01X174958Y123318D02*
X179061Y127421D01*
G01X141080Y89441D02*
X158744Y107104D01*
G01X174958Y120490D02*
X181890Y127421D01*
G01X143036Y88568D02*
X161572Y107104D01*
G01X174958Y117661D02*
X184718Y127421D01*
G01X145786Y88489D02*
X164401Y107104D01*
G01X174958Y114833D02*
X187546Y127421D01*
G01X147593Y87468D02*
X167229Y107104D01*
G01X174958Y112004D02*
X190375Y127421D01*
G01X150421Y87468D02*
X170057Y107104D01*
G01X174958Y109176D02*
X193203Y127421D01*
G01X169086Y103304D02*
X172886Y107104D01*
G01X152193Y86411D02*
X164957Y99175D01*
G01X171915Y103304D02*
X196032Y127421D01*
G01X153192Y84581D02*
X164957Y96347D01*
G01X174743Y103304D02*
X198860Y127421D01*
G01X153192Y81753D02*
X164957Y93518D01*
G01X177571Y103304D02*
X201689Y127421D01*
G01X153271Y79004D02*
X164957Y90690D01*
G01X180400Y103304D02*
X204517Y127421D01*
G01X156100Y79004D02*
X165059Y87963D01*
G01X182562Y102638D02*
X206142Y126218D01*
G01X163828Y83904D02*
X166828Y86904D01*
G01X189477Y106724D02*
X206161Y123409D01*
G01X183976Y101224D02*
X189091Y106338D01*
G01X166657Y83904D02*
X169656Y86904D01*
G01X192514Y106933D02*
X206161Y120580D01*
G01X185391Y99810D02*
X188882Y103302D01*
G01X169485Y83904D02*
X172485Y86904D01*
G01X195342Y106933D02*
X206161Y117752D01*
G01X186805Y98395D02*
X188882Y100473D01*
G01X172314Y83904D02*
X173957Y85548D01*
G01X197379Y106141D02*
X206161Y114924D01*
G01X188158Y96920D02*
X189674Y98436D01*
G01X197483Y103417D02*
X206161Y112095D01*
G01X188158Y94092D02*
X192398Y98332D01*
G01X197483Y100588D02*
X206161Y109267D01*
G01X193921Y97026D02*
X195227Y98332D01*
G01X188158Y91263D02*
X188946Y92052D01*
G01X195870Y96147D02*
X206161Y106438D01*
G01X188158Y88435D02*
X189826Y90102D01*
G01X197105Y94553D02*
X206161Y103610D01*
G01X188158Y85606D02*
X191419Y88868D01*
G01X197416Y92036D02*
X206161Y100781D01*
G01X188158Y82778D02*
X193936Y88556D01*
G01X188158Y79949D02*
X206161Y97953D01*
G01X188158Y77121D02*
X206161Y95125D01*
G01X190009Y76144D02*
X206161Y92296D01*
G01X188158Y74292D02*
X188766Y74900D01*
G01X192839Y76145D02*
X206161Y89468D01*
G01X188158Y71464D02*
X188764Y72071D01*
G01X195667Y76145D02*
X206161Y86639D01*
G01X188158Y68636D02*
X188764Y69242D01*
G01X197355Y75004D02*
X206161Y83811D01*
G01X188158Y65807D02*
X189905Y67554D01*
G01X197365Y72186D02*
X206161Y80982D01*
G01X190893Y65714D02*
X192724Y67545D01*
G01X188158Y62979D02*
X189353Y64174D01*
G01X197365Y69358D02*
X206161Y78154D01*
G01X194166Y66159D02*
X195552Y67545D01*
G01X188158Y60150D02*
X188908Y60900D01*
G01X195990Y65154D02*
X206161Y75326D01*
G01X188158Y57322D02*
X189913Y59077D01*
G01X197114Y63450D02*
X206161Y72497D01*
G01X188158Y54493D02*
X191617Y57953D01*
G01X197149Y60656D02*
X206161Y69669D01*
G01X189396Y52904D02*
X194411Y57918D01*
G01X190811Y51490D02*
X206161Y66840D01*
G01X192225Y50075D02*
X206161Y64012D01*
G01X145600Y3451D02*
X146649Y4500D01*
G01X194782Y49804D02*
X206161Y61183D01*
G01X147478Y2500D02*
X149478Y4500D01*
G01X197610Y49804D02*
X206161Y58355D01*
G01X150306Y2500D02*
X152306Y4500D01*
G01X199468Y48833D02*
X206161Y55527D01*
G01X153135Y2500D02*
X155135Y4500D01*
G01X200358Y46894D02*
X206161Y52698D01*
G01X155963Y2500D02*
X157963Y4500D01*
G01X200358Y44066D02*
X206161Y49870D01*
G01X158792Y2500D02*
X160792Y4500D01*
G01X200358Y41238D02*
X206161Y47041D01*
G01X181358Y22238D02*
X185124Y26004D01*
G01X161620Y2500D02*
X163620Y4500D01*
G01X200358Y38409D02*
X206161Y44213D01*
G01X181800Y19852D02*
X187952Y26004D01*
G01X164449Y2500D02*
X166448Y4500D01*
G01X200358Y35581D02*
X206161Y41384D01*
G01X181800Y17023D02*
X190781Y26004D01*
G01X167277Y2500D02*
X169277Y4500D01*
G01X200358Y32752D02*
X206161Y38556D01*
G01X181800Y14195D02*
X193609Y26004D01*
G01X170105Y2500D02*
X172105Y4500D01*
G01X200358Y29924D02*
X206161Y35728D01*
G01X181800Y11366D02*
X196438Y26004D01*
G01X172934Y2500D02*
X174934Y4500D01*
G01X181800Y8538D02*
X206161Y32899D01*
G01X175762Y2500D02*
X177762Y4500D01*
G01X178591Y2500D02*
X206161Y30071D01*
G01X181419Y2500D02*
X206161Y27242D01*
G01X184248Y2500D02*
X206161Y24414D01*
G01X187076Y2500D02*
X206161Y21586D01*
G01X189904Y2500D02*
X206161Y18757D01*
G01X192733Y2500D02*
X206161Y15929D01*
G01X195561Y2500D02*
X206161Y13100D01*
G01X198390Y2500D02*
X206161Y10272D01*
G01X201218Y2500D02*
X206161Y7443D01*
G01X204046Y2500D02*
X206161Y4615D01*
G01X146120Y2500D02*
X145600Y3020D01*
G01X148949Y2500D02*
X146949Y4500D01*
G01X151777Y2500D02*
X149778Y4500D01*
G01X154606Y2500D02*
X152606Y4500D01*
G01X157434Y2500D02*
X155434Y4500D01*
G01X160262Y2500D02*
X158263Y4500D01*
G01X163091Y2500D02*
X161091Y4500D01*
G01X165919Y2500D02*
X163920Y4500D01*
G01X168748Y2500D02*
X166748Y4500D01*
G01X171576Y2500D02*
X169577Y4500D01*
G01X174405Y2500D02*
X172405Y4500D01*
G01X177233Y2500D02*
X175233Y4500D01*
G01X180062Y2500D02*
X178062Y4500D01*
G01X182890Y2500D02*
X180214Y5176D01*
G01X185718Y2500D02*
X181629Y6590D01*
G01X188547Y2500D02*
X181800Y9247D01*
G01X191375Y2500D02*
X181800Y12075D01*
G01X194204Y2500D02*
X181800Y14903D01*
G01X197032Y2500D02*
X181800Y17732D01*
G01X199860Y2500D02*
X180758Y21603D01*
G01X202689Y2500D02*
X181358Y23831D01*
G01X205366Y2651D02*
X182405Y25612D01*
G01X206161Y4684D02*
X184842Y26004D01*
G01X206161Y7513D02*
X187670Y26004D01*
G01X206161Y10341D02*
X190499Y26004D01*
G01X206161Y13170D02*
X193327Y26004D01*
G01X130834Y91326D02*
X130758Y91402D01*
G01X206161Y15998D02*
X196156Y26004D01*
G01X132314Y92674D02*
X130758Y94230D01*
G01X206161Y18826D02*
X198240Y26748D01*
G01X134955Y92862D02*
X130758Y97059D01*
G01X206161Y21655D02*
X199654Y28162D01*
G01X136686Y93958D02*
X130258Y100387D01*
G01X142077Y88568D02*
X141081Y89564D01*
G01X206161Y24483D02*
X200358Y30287D01*
G01X139512Y93962D02*
X130258Y103216D01*
G01X144905Y88568D02*
X141081Y92393D01*
G01X154469Y79004D02*
X153192Y80282D01*
G01X206161Y27312D02*
X200358Y33116D01*
G01X148834Y87468D02*
X130258Y106044D01*
G01X157298Y79004D02*
X153192Y83110D01*
G01X206161Y30140D02*
X200358Y35944D01*
G01X159522Y79608D02*
X132026Y107104D01*
G01X206161Y32969D02*
X200358Y38772D01*
G01X160937Y81022D02*
X134855Y107104D01*
G01X206161Y35797D02*
X200358Y41601D01*
G01X162351Y82436D02*
X137683Y107104D01*
G01X194983Y49804D02*
X188158Y56629D01*
G01X206161Y38626D02*
X200358Y44429D01*
G01X163765Y83850D02*
X140512Y107104D01*
G01X197811Y49804D02*
X188158Y59458D01*
G01X206161Y41454D02*
X200358Y47258D01*
G01X166540Y83904D02*
X143340Y107104D01*
G01X188778Y61666D02*
X188158Y62286D01*
G01X206161Y44282D02*
X192729Y57715D01*
G01X164957Y88315D02*
X146168Y107104D01*
G01X169368Y83904D02*
X166368Y86904D01*
G01X189262Y64010D02*
X188158Y65114D01*
G01X206161Y47111D02*
X195073Y58200D01*
G01X164957Y91143D02*
X148997Y107104D01*
G01X172196Y83904D02*
X169197Y86904D01*
G01X190585Y65516D02*
X188158Y67943D01*
G01X206161Y49939D02*
X196578Y59523D01*
G01X164957Y93972D02*
X151825Y107104D01*
G01X173957Y84972D02*
X172025Y86904D01*
G01X188764Y70165D02*
X188158Y70771D01*
G01X192647Y66282D02*
X191384Y67545D01*
G01X206161Y52768D02*
X197344Y61585D01*
G01X164957Y96800D02*
X154654Y107104D01*
G01X188764Y72993D02*
X188158Y73600D01*
G01X206161Y55596D02*
X194213Y67545D01*
G01X164957Y99629D02*
X157482Y107104D01*
G01X188998Y75588D02*
X188158Y76428D01*
G01X206161Y58424D02*
X196808Y67778D01*
G01X165314Y102100D02*
X160311Y107104D01*
G01X191269Y76145D02*
X188158Y79257D01*
G01X206161Y61253D02*
X197365Y70050D01*
G01X166939Y103304D02*
X163139Y107104D01*
G01X194098Y76145D02*
X188158Y82085D01*
G01X206161Y64081D02*
X197365Y72878D01*
G01X169767Y103304D02*
X165968Y107104D01*
G01X206161Y66910D02*
X188158Y84914D01*
G01X172596Y103304D02*
X168796Y107104D01*
G01X206161Y69738D02*
X188158Y87742D01*
G01X175424Y103304D02*
X171624Y107104D01*
G01X206161Y72567D02*
X188158Y90570D01*
G01X178252Y103304D02*
X173724Y107832D01*
G01X188884Y92672D02*
X188158Y93399D01*
G01X206161Y75395D02*
X193065Y88491D01*
G01X181081Y103304D02*
X174958Y109427D01*
G01X189454Y94931D02*
X188158Y96227D01*
G01X206161Y78224D02*
X195324Y89061D01*
G01X190826Y96387D02*
X174958Y112256D01*
G01X206161Y81052D02*
X196780Y90433D01*
G01X188882Y101159D02*
X174958Y115084D01*
G01X192958Y97084D02*
X191710Y98332D01*
G01X206161Y83880D02*
X197477Y92565D01*
G01X188882Y103988D02*
X174958Y117912D01*
G01X206161Y86709D02*
X194538Y98332D01*
G01X189207Y106492D02*
X174958Y120741D01*
G01X206161Y89537D02*
X197042Y98656D01*
G01X191594Y106933D02*
X174958Y123569D01*
G01X206161Y92366D02*
X197483Y101044D01*
G01X194423Y106933D02*
X173934Y127421D01*
G01X206161Y95194D02*
X197483Y103872D01*
G01X206161Y98022D02*
X176763Y127421D01*
G01X206161Y100851D02*
X179591Y127421D01*
G01X206161Y103679D02*
X182420Y127421D01*
G01X206161Y106508D02*
X185248Y127421D01*
G01X206161Y109336D02*
X188076Y127421D01*
G01X206161Y112165D02*
X190905Y127421D01*
G01X206161Y114993D02*
X193733Y127421D01*
G01X206161Y117822D02*
X196562Y127421D01*
G01X206161Y120650D02*
X199390Y127421D01*
G01X206161Y123478D02*
X202218Y127421D01*
G01X206113Y126356D02*
X205096Y127372D01*
G01X138098Y72804D02*
X135058D01*
X134558Y72304D01*
G01X146624Y83868D02*
X149591D01*
Y79004D01*
X141081D01*
Y81913D01*
G03X140761Y82768I-1300J0D01*
G01X145339D01*
G03X146624Y83868I0J1300D01*
G01X141081Y80955D02*
X142893Y82768D01*
G01X146552Y83598D02*
X146821Y83868D01*
G01X141958Y79004D02*
X145809Y82855D01*
G01X144786Y79004D02*
X149591Y83809D01*
G01X147615Y79004D02*
X149591Y80981D01*
G01X143155Y79004D02*
X141081Y81079D01*
G01X145984Y79004D02*
X142220Y82768D01*
G01X148812Y79004D02*
X145049Y82768D01*
G01X149591Y81054D02*
X146777Y83868D01*
G01X151391Y77200D02*
Y84668D01*
X150391Y85668D01*
X143839D01*
G36*
G01X154706Y6974D02*
X154886Y6994D01*
X155056Y7014D01*
X155226Y7034D01*
X155396Y7074D01*
X155566Y7124D01*
X155736Y7174D01*
X155906Y7234D01*
X156066Y7304D01*
X156226Y7374D01*
X156376Y7464D01*
X156526Y7554D01*
X156676Y7644D01*
X156816Y7754D01*
X156946Y7864D01*
X157086Y7974D01*
X157206Y8104D01*
X157326Y8234D01*
X157436Y8364D01*
X157546Y8504D01*
X157646Y8644D01*
X157736Y8794D01*
X157826Y8944D01*
X157906Y9104D01*
X157976Y9264D01*
X158046Y9424D01*
X158096Y9594D01*
X158146Y9764D01*
X158186Y9934D01*
X158226Y10104D01*
X158246Y10274D01*
X158266Y10454D01*
Y10624D01*
Y10804D01*
Y10974D01*
X158246Y11154D01*
X158226Y11324D01*
X158186Y11494D01*
X158146Y11664D01*
X158096Y11834D01*
X158046Y12004D01*
X157976Y12164D01*
X157906Y12324D01*
X157826Y12484D01*
X157736Y12634D01*
X157646Y12784D01*
X157546Y12924D01*
X157436Y13064D01*
X157326Y13194D01*
X157206Y13324D01*
X157086Y13454D01*
X156946Y13564D01*
X156816Y13674D01*
X156676Y13784D01*
X156526Y13874D01*
X156376Y13964D01*
X156226Y14054D01*
X156066Y14124D01*
X155906Y14194D01*
X155736Y14254D01*
X155566Y14304D01*
X155396Y14354D01*
X155226Y14394D01*
X155056Y14414D01*
X154886Y14434D01*
X154706Y14454D01*
X154526D01*
X147226D01*
X147056D01*
X146886Y14434D01*
X146706Y14414D01*
X146536Y14394D01*
X146366Y14354D01*
X146196Y14304D01*
X146026Y14254D01*
X145866Y14194D01*
X145696Y14124D01*
X145546Y14054D01*
X145386Y13964D01*
X145236Y13874D01*
X145086Y13784D01*
X144946Y13674D01*
X144816Y13564D01*
X144686Y13454D01*
X144556Y13324D01*
X144436Y13194D01*
X144326Y13064D01*
X144216Y12924D01*
X144116Y12784D01*
X144026Y12634D01*
X143936Y12484D01*
X143856Y12324D01*
X143786Y12014D01*
X137106D01*
Y9414D01*
X143786D01*
X143856Y9104D01*
X143936Y8944D01*
X144026Y8794D01*
X144116Y8644D01*
X144216Y8504D01*
X144326Y8364D01*
X144436Y8234D01*
X144556Y8104D01*
X144686Y7974D01*
X144816Y7864D01*
X144946Y7754D01*
X145086Y7644D01*
X145236Y7554D01*
X145386Y7464D01*
X145546Y7374D01*
X145696Y7304D01*
X145866Y7234D01*
X146026Y7174D01*
X146196Y7124D01*
X146366Y7074D01*
X146536Y7034D01*
X146706Y7014D01*
X146886Y6994D01*
X147056Y6974D01*
X147226D01*
X154526D01*
X154706D01*
G37*
G54D13*
X24961Y91535D03*
Y105315D03*
Y103346D03*
Y101378D03*
Y99409D03*
Y97441D03*
Y95472D03*
X24954Y93496D03*
G54D32*
G01X63386Y45512D02*
X47212D01*
X42900Y41200D01*
Y10100D01*
X45754Y7246D01*
X127691D01*
G54D14*
X42715Y85738D03*
Y110344D03*
X62400Y85738D03*
Y110344D03*
X52556D03*
G54D23*
X140146Y4814D03*
Y16624D03*
G54D15*
X63386Y25512D03*
Y15512D03*
Y45512D03*
Y35512D03*
Y65512D03*
Y55512D03*
G54D24*
X150458Y29094D03*
Y50114D03*
X151058Y97894D03*
Y118914D03*
G54D25*
X169724Y39548D03*
Y53208D03*
X169803Y91672D03*
Y78013D03*
X169724Y98249D03*
Y111909D03*
G54D16*
X78417Y25372D03*
X72898D03*
X78417Y15372D03*
X72898D03*
X85197Y66479D03*
X85198Y71841D03*
X85276Y77187D03*
Y87817D03*
X85298Y82541D03*
X77949Y110236D03*
X83468D03*
X105564Y51770D03*
X94776Y51731D03*
X100296D03*
X90716Y66479D03*
X90717Y71841D03*
X90795Y77187D03*
Y87817D03*
X90817Y82541D03*
X105800Y96140D03*
X94973D03*
X100493D03*
X111083Y51770D03*
X121871Y51809D03*
X116351D03*
X127139D03*
X111320Y96140D03*
X127375D03*
X122107D03*
X116587D03*
X132658Y51809D03*
X138044Y56770D03*
X143564D03*
X138084Y62046D03*
X143603D03*
X143642Y67518D03*
X138123D03*
X143617Y72804D03*
X138098D03*
X138280Y80313D03*
X143800D03*
X138280Y91061D03*
X143800D03*
X143839Y85668D03*
X138320D03*
X132894Y96140D03*
X161901Y20967D03*
X167420D03*
X161862Y15534D03*
X167381D03*
G54D26*
X169567Y64374D03*
Y71374D03*
G54D17*
X76772Y97634D03*
Y103154D03*
X84646Y97634D03*
Y103154D03*
X127691Y7246D03*
Y12765D03*
X133163Y7285D03*
Y12805D03*
G54D27*
X192946Y11884D03*
Y21727D03*
Y31569D03*
X193065Y62002D03*
X193183Y92790D03*
G54D18*
X102454Y45156D03*
X95454D03*
X102690Y102833D03*
X95690D03*
X131942Y45235D03*
X124942D03*
X125257Y102991D03*
X132257D03*
G54D28*
X175158Y16841D03*
Y24841D03*
G54D19*
X101513Y67163D03*
Y69133D03*
Y71100D03*
Y65196D03*
Y73070D03*
Y75037D03*
Y77007D03*
Y78974D03*
Y80944D03*
Y82911D03*
X125135Y71100D03*
Y69133D03*
Y67163D03*
Y65196D03*
Y82911D03*
Y80944D03*
Y78974D03*
Y77007D03*
Y75037D03*
Y73070D03*
G54D29*
X192946Y41412D03*
X193065Y71845D03*
X193183Y102632D03*
M02*
