G04 ================== begin FILE IDENTIFICATION RECORD ==================*
G04 Layout Name:  D:/Projects/Mini_Audio/01.Hardware/MH18/PCB/MH18.brd*
G04 Film Name:    02.BOTTOM*
G04 File Format:  Gerber RS274X*
G04 File Origin:  Cadence Allegro 17.4-S037*
G04 Origin Date:  Thu Feb  1 18:32:08 2024*
G04 *
G04 Layer:  VIA CLASS/BOTTOM*
G04 Layer:  PIN/BOTTOM*
G04 Layer:  ETCH/BOTTOM*
G04 *
G04 Offset:    (0.000 0.000)*
G04 Mirror:    No*
G04 Mode:      Positive*
G04 Rotation:  0*
G04 FullContactRelief:  No*
G04 UndefLineWidth:     6.000*
G04 ================== end FILE IDENTIFICATION RECORD ====================*
%FSLAX35Y35*MOIN*%
%IR0*IPPOS*OFA0.00000B0.00000*MIA0B0*SFA1.00000B1.00000*%
%ADD12R,.032X.03*%
%ADD13C,.06*%
%ADD10C,.024*%
%ADD14R,.06X.06*%
%ADD11C,.062988*%
%ADD15C,.008*%
%ADD16C,.01*%
%ADD17C,.078992*%
G75*
%LPD*%
G75*
G36*
G01X34200Y115700D02*
X85300D01*
X89000Y112000D01*
Y93800D01*
X90400Y92400D01*
X96600D01*
X103800Y85200D01*
Y63300D01*
X101800Y61300D01*
X94200D01*
X90600Y57700D01*
Y16600D01*
X84900Y10900D01*
X51800D01*
X50400Y12300D01*
Y30900D01*
X52000Y32500D01*
X68100D01*
X69400Y33800D01*
Y72900D01*
X67500Y74800D01*
X33600D01*
X31800Y76600D01*
Y113300D01*
X34200Y115700D01*
G37*
G36*
G01X107558Y47904D02*
X112958D01*
X113458Y47404D01*
Y40804D01*
X114158Y40104D01*
X130058D01*
X142258Y52304D01*
X170058D01*
X184258Y66504D01*
X199458D01*
X200658Y65304D01*
Y54304D01*
X198758Y52404D01*
X181058D01*
X174058Y45404D01*
X147358D01*
X146758Y44804D01*
Y44604D01*
X137358Y35204D01*
X109858D01*
X107058Y38004D01*
Y47404D01*
X107558Y47904D01*
G37*
G36*
G01X107458Y105604D02*
X113258D01*
X113758Y105104D01*
Y99404D01*
X113058Y98704D01*
Y94204D01*
X115758Y91504D01*
X179958D01*
X184958Y96504D01*
X198258D01*
X200058Y94704D01*
Y87904D01*
X197458Y85304D01*
X108758D01*
X106858Y87204D01*
Y105004D01*
X107458Y105604D01*
G37*
G36*
G01X176958Y78004D02*
X199858D01*
X200758Y77104D01*
Y68304D01*
X199758Y67304D01*
X183926D01*
X170426Y53804D01*
X142158D01*
X129358Y41004D01*
X115558D01*
X114658Y41904D01*
Y47704D01*
X115458Y48504D01*
X124258D01*
X141458Y65704D01*
X173058D01*
X174758Y67404D01*
Y75804D01*
X176958Y78004D01*
G37*
G36*
G01X122458Y99004D02*
X175158D01*
X184058Y107904D01*
X198258D01*
X200158Y106004D01*
Y99704D01*
X198258Y97804D01*
X183858D01*
X178558Y92504D01*
X117158D01*
X115958Y93704D01*
Y98404D01*
X114958Y99404D01*
Y105104D01*
X115658Y105804D01*
X120658D01*
X121458Y105004D01*
Y100004D01*
X122458Y99004D01*
G37*
%LPC*%
G75*
G36*
G01X54370Y106833D02*
X54243Y106773D01*
G02X52556Y106394I-1687J3571D01*
G02X56506Y110344I0J3950D01*
G02X56066Y108532I-3950J0D01*
G01X67508Y97090D01*
G02X67669Y96955I-687J-984D01*
G01X79524Y85100D01*
X97100D01*
G02X97949Y84749I0J-1200D01*
G01X100060Y82638D01*
G02X100411Y81789I-849J-849D01*
G01Y77594D01*
G02X100060Y76746I-1200J0D01*
G01X98606Y75292D01*
G02X97758Y74941I-849J849D01*
G01X97258D01*
G02X95658Y74141I-1600J1200D01*
G02X93657Y76141I0J2000D01*
G02X94377Y77677I2000J0D01*
G03X94410Y78260I-256J307D01*
G02X94257Y78441I1447J1380D01*
G01X76059D01*
G02X75210Y78792I0J1200D01*
G01X66895Y87108D01*
G03X66225Y86725I-283J-283D01*
G02X66350Y85738I-3824J-987D01*
G02X62400Y89687I-3950J0D01*
G02X63388Y89562I0J-3950D01*
G03X63771Y90232I100J387D01*
G01X56103Y97900D01*
X46600D01*
G02X45751Y98251I0J1200D01*
G01X41867Y102136D01*
G02X41515Y102985I849J849D01*
G01Y106581D01*
G02X38766Y110344I1200J3763D01*
G02X46665I3950J0D01*
G02X43916Y106581I-3950J0D01*
G01Y103482D01*
X47097Y100300D01*
X56600D01*
G02X57449Y99949I0J-1200D01*
G01X76556Y80841D01*
X94257D01*
G02X95858Y81641I1600J-1200D01*
G02X97633Y80562I0J-2000D01*
G01X97689Y80454D01*
X98011D01*
Y81292D01*
X96603Y82700D01*
X79026D01*
G02X78178Y83051I0J1200D01*
G01X66107Y95122D01*
G02X65946Y95257I687J984D01*
G01X54370Y106833D01*
G37*
G54D17*
X42715Y85738D03*
X62400Y110344D03*
%LPD*%
G75*
G54D10*
X19900Y30000D03*
X17500Y45300D03*
X16700Y100900D03*
X7500Y101600D03*
X15500Y122800D03*
X47300Y28700D03*
X47200Y36800D03*
X36600Y101800D03*
X46300Y122100D03*
X47900Y12900D03*
X47800Y16900D03*
X54500Y13100D03*
X52200Y29600D03*
X52500Y22400D03*
X50200Y40800D03*
X55300Y39500D03*
X50400Y88200D03*
X52400Y81000D03*
X66000Y93500D03*
X48400Y102200D03*
X85600Y21100D03*
X88200Y25900D03*
X70700Y44000D03*
X79500Y35900D03*
X78800Y40700D03*
X89000Y42100D03*
X87000Y47700D03*
X71400Y51800D03*
X71200Y57400D03*
X84300Y52200D03*
X83900Y57800D03*
X83600Y61500D03*
X71200Y64500D03*
X70800Y71300D03*
X78500Y74500D03*
X68400Y79400D03*
X76300Y92900D03*
X76100Y121300D03*
X87800Y122800D03*
X96500Y14800D03*
X94800Y21900D03*
X108658Y46341D03*
Y43341D03*
X94300Y32600D03*
X107158Y67841D03*
X110158D03*
X107158Y70841D03*
X110158D03*
X97937Y69641D03*
X95458Y72241D03*
X107158Y73841D03*
X110158D03*
X107158Y76841D03*
X110158D03*
X107158Y79841D03*
X110158D03*
X95658Y76141D03*
X95858Y79641D03*
X108658Y104204D03*
Y101304D03*
X95358Y109441D03*
X91400Y109400D03*
X95358Y119441D03*
Y114441D03*
X90358D03*
Y119441D03*
X110300Y13300D03*
X111858Y46341D03*
X112058Y43341D03*
X116358Y46241D03*
X119258D03*
X116258Y42941D03*
X119258D03*
X113158Y67841D03*
X116158D03*
X119158D03*
X113158Y70841D03*
X116158D03*
X119158D03*
X128058Y61641D03*
X113158Y73841D03*
X116158D03*
X119158D03*
X113158Y76841D03*
X116158D03*
X119158D03*
X113158Y79841D03*
X116158D03*
X119158D03*
X111958Y104204D03*
Y101304D03*
X116758Y104204D03*
X119458D03*
X116758Y101404D03*
X119558D03*
X144558Y26804D03*
X134558Y72304D03*
X148958Y68241D03*
Y73241D03*
X148600Y80400D03*
X138400Y102700D03*
X145658Y115204D03*
X163300Y3100D03*
X155758Y31804D03*
X158958Y68241D03*
X153958D03*
X158958Y73241D03*
X153958D03*
X161700Y101900D03*
X156758Y114804D03*
X181400Y122100D03*
G54D11*
X42715Y85738D03*
Y110344D03*
X62400Y85738D03*
Y110344D03*
X52556D03*
G54D12*
X144558Y30644D03*
Y36164D03*
X145658Y110664D03*
Y105144D03*
X155758Y40964D03*
Y35444D03*
X156758Y110364D03*
Y104844D03*
G54D13*
X192946Y11884D03*
Y21727D03*
Y31569D03*
X193065Y62002D03*
X193183Y92790D03*
G54D14*
X192946Y41412D03*
X193065Y71845D03*
X193183Y102632D03*
G54D15*
G01X95858Y79641D02*
X76059D01*
X56600Y99100D01*
X46600D01*
X42715Y102985D01*
Y110344D01*
G01X47300Y27781D02*
Y28700D01*
G01D02*
Y29601D01*
G01X46399Y28700D02*
X47300D01*
G01D02*
X49100D01*
G01X47800Y15968D02*
Y16900D01*
G01D02*
Y18788D01*
G01X46868Y16900D02*
X47800D01*
G01D02*
X48741D01*
G01X52556Y110344D02*
X66794Y96106D01*
X66820D01*
X79026Y83900D01*
X97100D01*
X99211Y81789D01*
Y77594D01*
X97758Y76141D01*
X95658D01*
G01X94800Y20533D02*
Y21900D01*
G01D02*
Y22708D01*
G01X93339Y21900D02*
X94800D01*
G01D02*
X95608D01*
G01X94300Y31693D02*
Y32600D01*
G01D02*
Y34175D01*
G01X93393Y32600D02*
X94300D01*
G01D02*
X95554D01*
G01X107158Y66919D02*
Y67841D01*
G01D02*
Y69660D01*
G01X106235Y67841D02*
X107158D01*
G01D02*
X108167D01*
G01X107158Y69747D02*
Y70841D01*
G01D02*
Y72488D01*
G01X106064Y70841D02*
X107158D01*
G01D02*
X108339D01*
G01X108892D02*
X110158D01*
G01X107158Y78232D02*
Y79841D01*
G01D02*
Y80974D01*
G01X106025Y79841D02*
X107158D01*
G01D02*
X108378D01*
G01X107158Y72576D02*
Y73841D01*
G01D02*
Y75317D01*
G01X105892Y73841D02*
X107158D01*
G01D02*
X108510D01*
G01X108721D02*
X110158D01*
G01X107158Y75404D02*
Y76841D01*
G01D02*
Y78145D01*
G01X105853Y76841D02*
X107158D01*
G01D02*
X108549D01*
G01X108682D02*
X110158D01*
G01X108853Y79841D02*
X110158D01*
G01X91400Y108132D02*
Y109400D01*
G01D02*
Y110471D01*
G01X90329Y109400D02*
X91400D01*
G01D02*
X92960D01*
G01X90358Y117914D02*
Y119441D01*
G01D02*
Y120488D01*
G01X89056Y119441D02*
X90358D01*
G01D02*
X91405D01*
G01X110158Y67003D02*
Y67841D01*
G01D02*
Y69576D01*
G01X109064Y67841D02*
X110158D01*
G01D02*
X110996D01*
G01X110158Y69831D02*
Y70841D01*
G01D02*
Y72404D01*
G01Y70841D02*
X111167D01*
G01X113158Y70003D02*
Y70841D01*
G01D02*
Y72233D01*
G01X111721Y70841D02*
X113158D01*
G01D02*
X113996D01*
G01X116158Y73003D02*
Y73841D01*
G01D02*
Y74889D01*
G01X114378Y73841D02*
X116158D01*
G01D02*
X116995D01*
G01X110158Y72660D02*
Y73841D01*
G01D02*
Y75232D01*
G01Y73841D02*
X111339D01*
G01X116158Y75831D02*
Y76841D01*
G01D02*
Y77718D01*
G01X114339Y76841D02*
X116158D01*
G01D02*
X117034D01*
G01X110158Y75488D02*
Y76841D01*
G01D02*
Y78061D01*
G01Y76841D02*
X111378D01*
G01X110158Y78317D02*
Y79841D01*
G01D02*
Y80889D01*
G01Y79841D02*
X111206D01*
G01X113158Y72831D02*
Y73841D01*
G01D02*
Y75061D01*
G01X111549Y73841D02*
X113158D01*
G01D02*
X114167D01*
G01X113158Y75660D02*
Y76841D01*
G01D02*
Y77889D01*
G01X111510Y76841D02*
X113158D01*
G01D02*
X114206D01*
G01X113158Y78488D02*
Y79841D01*
G01D02*
Y80718D01*
G01X111682Y79841D02*
X113158D01*
G01D02*
X114034D01*
G01X144958Y41064D02*
X149036D01*
G01D02*
X150000Y40100D01*
G01X138400Y100902D02*
Y102700D01*
G01D02*
Y103558D01*
G01X137369Y102700D02*
X138400D01*
G01D02*
X139258D01*
G01X163300Y2500D02*
Y3100D01*
G01D02*
Y4180D01*
G01X162491Y3100D02*
X163300D01*
G01D02*
X165048D01*
G01X192160Y21727D02*
X192946D01*
G01Y20728D02*
Y21727D01*
G01D02*
Y22513D01*
G01Y21727D02*
X194776D01*
G54D16*
G01X3937Y127421D02*
X204724D01*
G02X206161Y125984I0J-1437D01*
G01Y3937D01*
G02X204724Y2500I-1437J0D01*
G01X3937D01*
G02X2500Y3937I0J1437D01*
G01Y125984D01*
G02X3937Y127421I1437J0D01*
G01X173457Y76342D02*
X176419Y79304D01*
X200396D01*
X202058Y77642D01*
Y67765D01*
X201140Y66848D01*
X202090Y65897D01*
Y53710D01*
X199351Y50971D01*
X181651D01*
X174651Y43971D01*
X147951D01*
X147771Y43791D01*
Y43591D01*
X137951Y33771D01*
X109264D01*
X105625Y37410D01*
Y47997D01*
X106964Y49337D01*
X113551D01*
X114001Y48886D01*
X114919Y49804D01*
X123719D01*
X140919Y67004D01*
X172519D01*
X173457Y67942D01*
Y76342D01*
G01X189946Y45712D02*
X195946D01*
G02X197247Y44412I0J-1300D01*
G01Y38412D01*
G02X195946Y37112I-1300J0D01*
G01X189946D01*
G02X188646Y38412I0J1300D01*
G01Y44412D01*
G02X189946Y45712I1300J0D01*
G01X142958Y33444D02*
X146158D01*
G02X147458Y32144I0J-1300D01*
G01Y29144D01*
G02X146758Y27991I-1300J0D01*
G02X142357I-2200J-1187D01*
G02X141657Y29144I600J1153D01*
G01Y32144D01*
G02X142958Y33444I1300J0D01*
G01X154158Y38244D02*
X157358D01*
G02X158658Y36944I0J-1300D01*
G01Y33944D01*
G02X158035Y32835I-1300J0D01*
G02X153480I-2278J-1031D01*
G02X152857Y33944I678J1109D01*
G01Y36944D01*
G02X154158Y38244I1300J0D01*
G01X154894Y113137D02*
G02X158621I1863J1667D01*
G02X159658Y111864I-263J-1273D01*
G01Y108864D01*
G02X158358Y107564I-1300J0D01*
G01X155158D01*
G02X153857Y108864I0J1300D01*
G01Y111864D01*
G02X154894Y113137I1300J0D01*
G01X143857Y113469D02*
G02X147458I1800J1735D01*
G01Y113448D01*
G02X148558Y112164I-200J-1285D01*
G01Y109164D01*
G02X147258Y107864I-1300J0D01*
G01X144058D01*
G02X142757Y109164I0J1300D01*
G01Y112164D01*
G02X143857Y113448I1300J0D01*
G01Y113469D01*
G01X197247Y31569D02*
G02I-4300J0D01*
G01X137058Y72304D02*
G02I-2500J0D01*
G01X30500Y76061D02*
Y113839D01*
X33661Y117000D01*
X85839D01*
X90300Y112539D01*
Y94339D01*
X90939Y93700D01*
X97139D01*
X105100Y85739D01*
Y62761D01*
X102339Y60000D01*
X94739D01*
X91900Y57161D01*
Y16061D01*
X85439Y9600D01*
X51261D01*
X49100Y11761D01*
Y31439D01*
X51461Y33800D01*
X67561D01*
X68100Y34339D01*
Y72361D01*
X66961Y73500D01*
X33061D01*
X30500Y76061D01*
G01X183519Y109204D02*
X198796D01*
X201458Y106542D01*
Y99165D01*
X199446Y97154D01*
X201358Y95242D01*
Y87365D01*
X197996Y84004D01*
X108219D01*
X105557Y86665D01*
Y105542D01*
X106919Y106904D01*
X113796D01*
X114358Y106343D01*
X115119Y107104D01*
X121196D01*
X122758Y105542D01*
Y100542D01*
X122996Y100304D01*
X174619D01*
X183519Y109204D01*
G01X2524Y126247D02*
X3674Y127397D01*
G01X2500Y123394D02*
X6527Y127421D01*
G01X2500Y120566D02*
X9356Y127421D01*
G01X2500Y117737D02*
X12184Y127421D01*
G01X2500Y114909D02*
X15012Y127421D01*
G01X2500Y112080D02*
X17841Y127421D01*
G01X2500Y109252D02*
X20669Y127421D01*
G01X2500Y106424D02*
X23498Y127421D01*
G01X2500Y103595D02*
X26326Y127421D01*
G01X2500Y100767D02*
X29154Y127421D01*
G01X2500Y97938D02*
X31983Y127421D01*
G01X2500Y95110D02*
X34811Y127421D01*
G01X2500Y92282D02*
X37640Y127421D01*
G01X2500Y89453D02*
X40468Y127421D01*
G01X2500Y86625D02*
X43297Y127421D01*
G01X35704Y117000D02*
X46125Y127421D01*
G01X2500Y83796D02*
X30500Y111796D01*
G01X38532Y117000D02*
X48954Y127421D01*
G01X2500Y80968D02*
X30500Y108968D01*
G01X41361Y117000D02*
X51782Y127421D01*
G01X2500Y78139D02*
X30500Y106139D01*
G01X44189Y117000D02*
X54610Y127421D01*
G01X2500Y75311D02*
X30500Y103311D01*
G01X47018Y117000D02*
X57439Y127421D01*
G01X2500Y72482D02*
X30500Y100482D01*
G01X49846Y117000D02*
X60267Y127421D01*
G01X2500Y69654D02*
X30500Y97654D01*
G01X52675Y117000D02*
X63096Y127421D01*
G01X2500Y66826D02*
X30500Y94825D01*
G01X55503Y117000D02*
X65924Y127421D01*
G01X2500Y63997D02*
X30500Y91997D01*
G01X58332Y117000D02*
X68752Y127421D01*
G01X2500Y61169D02*
X30500Y89169D01*
G01X61160Y117000D02*
X71581Y127421D01*
G01X2500Y58340D02*
X30500Y86340D01*
G01X63988Y117000D02*
X74409Y127421D01*
G01X2500Y55512D02*
X30500Y83512D01*
G01X66817Y117000D02*
X77238Y127421D01*
G01X2500Y52684D02*
X30500Y80683D01*
G01X69645Y117000D02*
X80066Y127421D01*
G01X2500Y49855D02*
X30500Y77855D01*
G01X72474Y117000D02*
X82895Y127421D01*
G01X2500Y47027D02*
X31017Y75544D01*
G01X75302Y117000D02*
X85723Y127421D01*
G01X2500Y44198D02*
X32432Y74130D01*
G01X78130Y117000D02*
X88552Y127421D01*
G01X2500Y41370D02*
X34630Y73500D01*
G01X80959Y117000D02*
X91380Y127421D01*
G01X2500Y38541D02*
X37458Y73500D01*
G01X83787Y117000D02*
X94208Y127421D01*
G01X2500Y35713D02*
X40287Y73500D01*
G01X86227Y116612D02*
X97037Y127421D01*
G01X2500Y32885D02*
X43115Y73500D01*
G01X87641Y115198D02*
X99865Y127421D01*
G01X2500Y30056D02*
X45944Y73500D01*
G01X89056Y113783D02*
X102694Y127421D01*
G01X2500Y27228D02*
X48772Y73500D01*
G01X90300Y112199D02*
X105522Y127421D01*
G01X2500Y24399D02*
X51601Y73500D01*
G01X90300Y109371D02*
X108351Y127421D01*
G01X2500Y21571D02*
X54429Y73500D01*
G01X90300Y106543D02*
X111179Y127421D01*
G01X2500Y18742D02*
X57257Y73500D01*
G01X90300Y103714D02*
X114007Y127421D01*
G01X2500Y15914D02*
X60086Y73500D01*
G01X90300Y100886D02*
X116836Y127421D01*
G01X2500Y13086D02*
X62914Y73500D01*
G01X90300Y98057D02*
X119664Y127421D01*
G01X2500Y10257D02*
X65743Y73500D01*
G01X90300Y95229D02*
X122493Y127421D01*
G01X2500Y7429D02*
X67766Y72695D01*
G01X91600Y93700D02*
X125321Y127421D01*
G01X2500Y4600D02*
X68100Y70200D01*
G01X107632Y106904D02*
X128149Y127421D01*
G01X94428Y93700D02*
X105557Y104829D01*
G01X3352Y2624D02*
X68100Y67372D01*
G01X110461Y106904D02*
X130978Y127421D01*
G01X97198Y93641D02*
X105557Y102001D01*
G01X6057Y2500D02*
X68100Y64543D01*
G01X113289Y106904D02*
X133806Y127421D01*
G01X98612Y92227D02*
X105557Y99172D01*
G01X8885Y2500D02*
X68100Y61715D01*
G01X116318Y107104D02*
X136635Y127421D01*
G01X100026Y90813D02*
X105557Y96344D01*
G01X11714Y2500D02*
X68100Y58886D01*
G01X119146Y107104D02*
X139463Y127421D01*
G01X101440Y89398D02*
X105557Y93515D01*
G01X14542Y2500D02*
X68100Y56058D01*
G01X121585Y106715D02*
X142292Y127421D01*
G01X102855Y87984D02*
X105557Y90687D01*
G01X17370Y2500D02*
X68100Y53229D01*
G01X122758Y105059D02*
X145120Y127421D01*
G01X104269Y86570D02*
X105557Y87859D01*
G01X51499Y33800D02*
X68100Y50401D01*
G01X20199Y2500D02*
X49100Y31401D01*
G01X122758Y102231D02*
X147948Y127421D01*
G01X105100Y84573D02*
X106375Y85848D01*
G01X54327Y33800D02*
X68100Y47573D01*
G01X23027Y2500D02*
X49100Y28573D01*
G01X123660Y100304D02*
X150777Y127421D01*
G01X105100Y81745D02*
X107789Y84434D01*
G01X57156Y33800D02*
X68100Y44744D01*
G01X25856Y2500D02*
X49100Y25744D01*
G01X126488Y100304D02*
X153605Y127421D01*
G01X105100Y78916D02*
X110188Y84004D01*
G01X59984Y33800D02*
X68100Y41916D01*
G01X28684Y2500D02*
X49100Y22916D01*
G01X146551Y117539D02*
X156434Y127421D01*
G01X129317Y100304D02*
X143322Y114310D01*
G01X105100Y76088D02*
X113016Y84004D01*
G01X62813Y33800D02*
X68100Y39087D01*
G01X31512Y2500D02*
X49100Y20087D01*
G01X147977Y116136D02*
X159262Y127421D01*
G01X132145Y100304D02*
X142757Y110916D01*
G01X105100Y73259D02*
X115845Y84004D01*
G01X65641Y33800D02*
X68100Y36259D01*
G01X34341Y2500D02*
X49100Y17259D01*
G01X147940Y113270D02*
X162091Y127421D01*
G01X134974Y100304D02*
X143033Y108363D01*
G01X105100Y70431D02*
X118673Y84004D01*
G01X37169Y2500D02*
X49100Y14431D01*
G01X148558Y111060D02*
X164919Y127421D01*
G01X137802Y100304D02*
X145361Y107864D01*
G01X105100Y67602D02*
X121501Y84004D01*
G01X91900Y54402D02*
X97498Y60000D01*
G01X39998Y2500D02*
X49179Y11682D01*
G01X157513Y117187D02*
X167748Y127421D01*
G01X140630Y100304D02*
X154374Y114048D01*
G01X105100Y64774D02*
X124330Y84004D01*
G01X91900Y51574D02*
X100326Y60000D01*
G01X42826Y2500D02*
X50594Y10268D01*
G01X159021Y115866D02*
X170576Y127421D01*
G01X143459Y100304D02*
X153857Y110703D01*
G01X91900Y48746D02*
X127158Y84004D01*
G01X45655Y2500D02*
X52754Y9600D01*
G01X158985Y113002D02*
X173404Y127421D01*
G01X146287Y100304D02*
X154096Y108113D01*
G01X91900Y45917D02*
X129987Y84004D01*
G01X48483Y2500D02*
X55583Y9600D01*
G01X159658Y110846D02*
X176233Y127421D01*
G01X149116Y100304D02*
X156375Y107564D01*
G01X91900Y43089D02*
X132815Y84004D01*
G01X51311Y2500D02*
X58411Y9600D01*
G01X151944Y100304D02*
X179061Y127421D01*
G01X91900Y40260D02*
X135644Y84004D01*
G01X54140Y2500D02*
X61240Y9600D01*
G01X154772Y100304D02*
X181890Y127421D01*
G01X91900Y37432D02*
X138472Y84004D01*
G01X56968Y2500D02*
X64068Y9600D01*
G01X157601Y100304D02*
X184718Y127421D01*
G01X91900Y34604D02*
X141300Y84004D01*
G01X59797Y2500D02*
X66896Y9600D01*
G01X160429Y100304D02*
X187546Y127421D01*
G01X134905Y74780D02*
X144129Y84004D01*
G01X109462Y49337D02*
X132082Y71956D01*
G01X91900Y31775D02*
X105625Y45500D01*
G01X62625Y2500D02*
X69725Y9600D01*
G01X163258Y100304D02*
X190375Y127421D01*
G01X136640Y73687D02*
X146957Y84004D01*
G01X112290Y49337D02*
X133174Y70221D01*
G01X91900Y28947D02*
X105625Y42671D01*
G01X65454Y2500D02*
X72553Y9600D01*
G01X166086Y100304D02*
X193203Y127421D01*
G01X136436Y70654D02*
X149786Y84004D01*
G01X115586Y49804D02*
X136207Y70425D01*
G01X91900Y26118D02*
X105625Y39843D01*
G01X68282Y2500D02*
X75382Y9600D01*
G01X168915Y100304D02*
X196032Y127421D01*
G01X118415Y49804D02*
X152614Y84004D01*
G01X91900Y23290D02*
X105823Y37212D01*
G01X71110Y2500D02*
X78210Y9600D01*
G01X171743Y100304D02*
X198860Y127421D01*
G01X121243Y49804D02*
X155443Y84004D01*
G01X91900Y20461D02*
X107237Y35798D01*
G01X73939Y2500D02*
X81039Y9600D01*
G01X174571Y100304D02*
X201689Y127421D01*
G01X141271Y67004D02*
X158271Y84004D01*
G01X91900Y17633D02*
X108651Y34384D01*
G01X76767Y2500D02*
X83867Y9600D01*
G01X186300Y109204D02*
X204517Y127421D01*
G01X144100Y67004D02*
X161099Y84004D01*
G01X79596Y2500D02*
X110867Y33771D01*
G01X189128Y109204D02*
X206142Y126218D01*
G01X146928Y67004D02*
X163928Y84004D01*
G01X82424Y2500D02*
X113695Y33771D01*
G01X191957Y109204D02*
X206161Y123409D01*
G01X149757Y67004D02*
X166756Y84004D01*
G01X85253Y2500D02*
X116524Y33771D01*
G01X194785Y109204D02*
X206161Y120580D01*
G01X152585Y67004D02*
X169585Y84004D01*
G01X88081Y2500D02*
X119352Y33771D01*
G01X197614Y109204D02*
X206161Y117752D01*
G01X155414Y67004D02*
X172413Y84004D01*
G01X90909Y2500D02*
X122180Y33771D01*
G01X199619Y108381D02*
X206161Y114924D01*
G01X158242Y67004D02*
X175242Y84004D01*
G01X93738Y2500D02*
X125009Y33771D01*
G01X201033Y106967D02*
X206161Y112095D01*
G01X161070Y67004D02*
X178070Y84004D01*
G01X96566Y2500D02*
X127837Y33771D01*
G01X201458Y104563D02*
X206161Y109267D01*
G01X163899Y67004D02*
X180898Y84004D01*
G01X99395Y2500D02*
X130666Y33771D01*
G01X201458Y101735D02*
X206161Y106438D01*
G01X179027Y79304D02*
X183727Y84004D01*
G01X166727Y67004D02*
X173457Y73734D01*
G01X102223Y2500D02*
X133494Y33771D01*
G01X199576Y97024D02*
X206161Y103610D01*
G01X181856Y79304D02*
X186555Y84004D01*
G01X169556Y67004D02*
X173457Y70906D01*
G01X105052Y2500D02*
X136323Y33771D01*
G01X200990Y95610D02*
X206161Y100781D01*
G01X184684Y79304D02*
X189384Y84004D01*
G01X172384Y67004D02*
X173457Y68077D01*
G01X107880Y2500D02*
X149351Y43971D01*
G01X201358Y93149D02*
X206161Y97953D01*
G01X187513Y79304D02*
X192212Y84004D01*
G01X110709Y2500D02*
X152180Y43971D01*
G01X201358Y90321D02*
X206161Y95125D01*
G01X190341Y79304D02*
X195040Y84004D01*
G01X144481Y33444D02*
X155008Y43971D01*
G01X113537Y2500D02*
X141657Y30620D01*
G01X201358Y87492D02*
X206161Y92296D01*
G01X193169Y79304D02*
X197869Y84004D01*
G01X147000Y33135D02*
X157836Y43971D01*
G01X116365Y2500D02*
X142064Y28199D01*
G01X195998Y79304D02*
X206161Y89468D01*
G01X154938Y38244D02*
X160665Y43971D01*
G01X147458Y30764D02*
X152857Y36164D01*
G01X119194Y2500D02*
X142341Y25647D01*
G01X198826Y79304D02*
X206161Y86639D01*
G01X157716Y38194D02*
X163493Y43971D01*
G01X146973Y27451D02*
X152960Y33438D01*
G01X122022Y2500D02*
X143911Y24389D01*
G01X201025Y78675D02*
X206161Y83811D01*
G01X158658Y36307D02*
X166322Y43971D01*
G01X124851Y2500D02*
X153380Y31030D01*
G01X202058Y76879D02*
X206161Y80982D01*
G01X158497Y33318D02*
X169150Y43971D01*
G01X127679Y2500D02*
X154712Y29533D01*
G01X202058Y74050D02*
X206161Y78154D01*
G01X130507Y2500D02*
X171978Y43971D01*
G01X202058Y71222D02*
X206161Y75326D01*
G01X133336Y2500D02*
X181807Y50971D01*
G01X202058Y68394D02*
X206161Y72497D01*
G01X136164Y2500D02*
X184635Y50971D01*
G01X202090Y65598D02*
X206161Y69669D01*
G01X138993Y2500D02*
X187464Y50971D01*
G01X202090Y62769D02*
X206161Y66840D01*
G01X141821Y2500D02*
X190292Y50971D01*
G01X202090Y59941D02*
X206161Y64012D01*
G01X144650Y2500D02*
X193121Y50971D01*
G01X202090Y57112D02*
X206161Y61183D01*
G01X190690Y45712D02*
X195949Y50971D01*
G01X147478Y2500D02*
X188646Y43668D01*
G01X202090Y54284D02*
X206161Y58355D01*
G01X193518Y45712D02*
X198777Y50971D01*
G01X150306Y2500D02*
X188646Y40840D01*
G01X196298Y45664D02*
X206161Y55526D01*
G01X153135Y2500D02*
X188695Y38060D01*
G01X197247Y43784D02*
X206161Y52698D01*
G01X155963Y2500D02*
X190575Y37112D01*
G01X197247Y40955D02*
X206161Y49870D01*
G01X192071Y35780D02*
X193403Y37112D01*
G01X158792Y2500D02*
X188736Y32445D01*
G01X197205Y38085D02*
X206161Y47041D01*
G01X194642Y35521D02*
X196273Y37153D01*
G01X161620Y2500D02*
X188994Y29874D01*
G01X196260Y34311D02*
X206161Y44213D01*
G01X164448Y2500D02*
X190205Y28256D01*
G01X197168Y32391D02*
X206161Y41384D01*
G01X167277Y2500D02*
X192125Y27348D01*
G01X170105Y2500D02*
X206161Y38556D01*
G01X172934Y2500D02*
X206161Y35728D01*
G01X175762Y2500D02*
X206161Y32899D01*
G01X178591Y2500D02*
X206161Y30071D01*
G01X181419Y2500D02*
X206161Y27242D01*
G01X184248Y2500D02*
X206161Y24414D01*
G01X187076Y2500D02*
X206161Y21586D01*
G01X189904Y2500D02*
X206161Y18757D01*
G01X192733Y2500D02*
X206161Y15929D01*
G01X195561Y2500D02*
X206161Y13100D01*
G01X198390Y2500D02*
X206161Y10272D01*
G01X201218Y2500D02*
X206161Y7443D01*
G01X204046Y2500D02*
X206161Y4615D01*
G01X4699Y2500D02*
X2500Y4699D01*
G01X7528Y2500D02*
X2500Y7527D01*
G01X10356Y2500D02*
X2500Y10356D01*
G01X13184Y2500D02*
X2500Y13184D01*
G01X16013Y2500D02*
X2500Y16013D01*
G01X18841Y2500D02*
X2500Y18841D01*
G01X21670Y2500D02*
X2500Y21670D01*
G01X24498Y2500D02*
X2500Y24498D01*
G01X27326Y2500D02*
X2500Y27326D01*
G01X30155Y2500D02*
X2500Y30155D01*
G01X32983Y2500D02*
X2500Y32983D01*
G01X35812Y2500D02*
X2500Y35812D01*
G01X38640Y2500D02*
X2500Y38640D01*
G01X41469Y2500D02*
X2500Y41469D01*
G01X44297Y2500D02*
X2500Y44297D01*
G01X47126Y2500D02*
X2500Y47125D01*
G01X49954Y2500D02*
X2500Y49954D01*
G01X52782Y2500D02*
X2500Y52782D01*
G01X55611Y2500D02*
X2500Y55611D01*
G01X49100Y11839D02*
X2500Y58439D01*
G01X58439Y2500D02*
X51339Y9600D01*
G01X49100Y14668D02*
X2500Y61268D01*
G01X61268Y2500D02*
X54168Y9600D01*
G01X49100Y17496D02*
X2500Y64096D01*
G01X64096Y2500D02*
X56996Y9600D01*
G01X49100Y20325D02*
X2500Y66924D01*
G01X66924Y2500D02*
X59825Y9600D01*
G01X49100Y23153D02*
X2500Y69753D01*
G01X69753Y2500D02*
X62653Y9600D01*
G01X49100Y25982D02*
X2500Y72581D01*
G01X72581Y2500D02*
X65482Y9600D01*
G01X49100Y28810D02*
X2500Y75410D01*
G01X75410Y2500D02*
X68310Y9600D01*
G01X49200Y31538D02*
X2500Y78238D01*
G01X78238Y2500D02*
X71138Y9600D01*
G01X50614Y32953D02*
X2500Y81066D01*
G01X81067Y2500D02*
X73967Y9600D01*
G01X52595Y33800D02*
X2500Y83895D01*
G01X83895Y2500D02*
X76795Y9600D01*
G01X55423Y33800D02*
X2500Y86723D01*
G01X86723Y2500D02*
X79624Y9600D01*
G01X58252Y33800D02*
X2500Y89552D01*
G01X89552Y2500D02*
X82452Y9600D01*
G01X61080Y33800D02*
X2500Y92380D01*
G01X92380Y2500D02*
X85280Y9600D01*
G01X63908Y33800D02*
X2500Y95209D01*
G01X95209Y2500D02*
X86774Y10935D01*
G01X66737Y33800D02*
X2500Y98037D01*
G01X98037Y2500D02*
X88188Y12349D01*
G01X68100Y35266D02*
X2500Y100866D01*
G01X100866Y2500D02*
X89602Y13763D01*
G01X68100Y38094D02*
X2500Y103694D01*
G01X103694Y2500D02*
X91016Y15178D01*
G01X30500Y78523D02*
X2500Y106522D01*
G01X68100Y40923D02*
X35523Y73500D01*
G01X106522Y2500D02*
X91900Y17122D01*
G01X30500Y81351D02*
X2500Y109351D01*
G01X68100Y43751D02*
X38351Y73500D01*
G01X109351Y2500D02*
X91900Y19951D01*
G01X30500Y84180D02*
X2500Y112179D01*
G01X68100Y46580D02*
X41180Y73500D01*
G01X112179Y2500D02*
X91900Y22779D01*
G01X30500Y87008D02*
X2500Y115008D01*
G01X68100Y49408D02*
X44008Y73500D01*
G01X115008Y2500D02*
X91900Y25608D01*
G01X30500Y89836D02*
X2500Y117836D01*
G01X68100Y52236D02*
X46836Y73500D01*
G01X117836Y2500D02*
X91900Y28436D01*
G01X30500Y92665D02*
X2500Y120664D01*
G01X68100Y55065D02*
X49665Y73500D01*
G01X120665Y2500D02*
X91900Y31264D01*
G01X30500Y95493D02*
X2500Y123493D01*
G01X68100Y57893D02*
X52493Y73500D01*
G01X123493Y2500D02*
X91900Y34093D01*
G01X30500Y98322D02*
X2533Y126289D01*
G01X68100Y60722D02*
X55322Y73500D01*
G01X126321Y2500D02*
X91900Y36921D01*
G01X30500Y101150D02*
X4228Y127421D01*
G01X68100Y63550D02*
X58150Y73500D01*
G01X129150Y2500D02*
X91900Y39750D01*
G01X30500Y103979D02*
X7057Y127421D01*
G01X68100Y66378D02*
X60978Y73500D01*
G01X131978Y2500D02*
X91900Y42578D01*
G01X30500Y106807D02*
X9885Y127421D01*
G01X68100Y69207D02*
X63807Y73500D01*
G01X134807Y2500D02*
X91900Y45406D01*
G01X30500Y109635D02*
X12714Y127421D01*
G01X68100Y72035D02*
X66635Y73500D01*
G01X137635Y2500D02*
X91900Y48235D01*
G01X30500Y112464D02*
X15542Y127421D01*
G01X140464Y2500D02*
X91900Y51063D01*
G01X31227Y114565D02*
X18371Y127421D01*
G01X105625Y40167D02*
X91900Y53892D01*
G01X143292Y2500D02*
X112021Y33771D01*
G01X32641Y115980D02*
X21199Y127421D01*
G01X105625Y42996D02*
X91900Y56720D01*
G01X146120Y2500D02*
X114849Y33771D01*
G01X34449Y117000D02*
X24028Y127421D01*
G01X105625Y45824D02*
X93094Y58355D01*
G01X148949Y2500D02*
X117678Y33771D01*
G01X37277Y117000D02*
X26856Y127421D01*
G01X105952Y48325D02*
X94508Y59769D01*
G01X151777Y2500D02*
X120506Y33771D01*
G01X40105Y117000D02*
X29684Y127421D01*
G01X107769Y49337D02*
X97106Y60000D01*
G01X154606Y2500D02*
X123335Y33771D01*
G01X42934Y117000D02*
X32513Y127421D01*
G01X110597Y49337D02*
X99934Y60000D01*
G01X157434Y2500D02*
X126163Y33771D01*
G01X45762Y117000D02*
X35341Y127421D01*
G01X113426Y49337D02*
X102551Y60212D01*
G01X160262Y2500D02*
X128991Y33771D01*
G01X48591Y117000D02*
X38170Y127421D01*
G01X115787Y49804D02*
X103965Y61626D01*
G01X163091Y2500D02*
X131820Y33771D01*
G01X51419Y117000D02*
X40998Y127421D01*
G01X118615Y49804D02*
X105100Y63319D01*
G01X142106Y26314D02*
X134648Y33771D01*
G01X165919Y2500D02*
X144067Y24352D01*
G01X54248Y117000D02*
X43826Y127421D01*
G01X121444Y49804D02*
X105100Y66148D01*
G01X141657Y29590D02*
X137477Y33771D01*
G01X168748Y2500D02*
X146268Y24980D01*
G01X57076Y117000D02*
X46655Y127421D01*
G01X123995Y50081D02*
X105100Y68976D01*
G01X141682Y32395D02*
X139128Y34948D01*
G01X171576Y2500D02*
X147048Y27029D01*
G01X59904Y117000D02*
X49483Y127421D01*
G01X125410Y51495D02*
X105100Y71804D01*
G01X143460Y33444D02*
X140542Y36362D01*
G01X174405Y2500D02*
X147458Y29447D01*
G01X62733Y117000D02*
X52312Y127421D01*
G01X126824Y52909D02*
X105100Y74633D01*
G01X146296Y33437D02*
X141957Y37777D01*
G01X177233Y2500D02*
X147450Y32283D01*
G01X65561Y117000D02*
X55140Y127421D01*
G01X128238Y54323D02*
X105100Y77461D01*
G01X180062Y2500D02*
X143371Y39191D01*
G01X68390Y117000D02*
X57969Y127421D01*
G01X91690Y93700D02*
X90300Y95090D01*
G01X129652Y55738D02*
X105100Y80290D01*
G01X153277Y32114D02*
X144785Y40605D01*
G01X182890Y2500D02*
X156067Y29323D01*
G01X71218Y117000D02*
X60797Y127421D01*
G01X94518Y93700D02*
X90300Y97918D01*
G01X131067Y57152D02*
X105100Y83118D01*
G01X152857Y35361D02*
X146199Y42019D01*
G01X185718Y2500D02*
X157823Y30395D01*
G01X74047Y117000D02*
X63626Y127421D01*
G01X132481Y58566D02*
X90300Y100747D01*
G01X153211Y37836D02*
X147613Y43434D01*
G01X188547Y2500D02*
X158141Y32906D01*
G01X76875Y117000D02*
X66454Y127421D01*
G01X105557Y88318D02*
X90300Y103575D01*
G01X133895Y59980D02*
X109871Y84004D01*
G01X155631Y38244D02*
X149904Y43971D01*
G01X191375Y2500D02*
X158658Y35218D01*
G01X79703Y117000D02*
X69282Y127421D01*
G01X105557Y91146D02*
X90300Y106403D01*
G01X135309Y61395D02*
X112700Y84004D01*
G01X194204Y2500D02*
X152733Y43971D01*
G01X82532Y117000D02*
X72111Y127421D01*
G01X105557Y93975D02*
X90300Y109232D01*
G01X136723Y62809D02*
X115528Y84004D01*
G01X197032Y2500D02*
X155561Y43971D01*
G01X85360Y117000D02*
X74939Y127421D01*
G01X105557Y96803D02*
X90300Y112060D01*
G01X138138Y64223D02*
X118357Y84004D01*
G01X199860Y2500D02*
X158389Y43971D01*
G01X105557Y99632D02*
X77768Y127421D01*
G01X132164Y73025D02*
X121185Y84004D01*
G01X139552Y65637D02*
X135279Y69910D01*
G01X202689Y2500D02*
X161218Y43971D01*
G01X105557Y102460D02*
X80596Y127421D01*
G01X133465Y74553D02*
X124014Y84004D01*
G01X141013Y67004D02*
X136806Y71211D01*
G01X205366Y2651D02*
X164046Y43971D01*
G01X105557Y105288D02*
X83424Y127421D01*
G01X143842Y67004D02*
X126842Y84004D01*
G01X206161Y4684D02*
X166875Y43971D01*
G01X106844Y106830D02*
X86253Y127421D01*
G01X146670Y67004D02*
X129670Y84004D01*
G01X206161Y7513D02*
X169703Y43971D01*
G01X109598Y106904D02*
X89081Y127421D01*
G01X149498Y67004D02*
X132499Y84004D01*
G01X206161Y10341D02*
X172532Y43971D01*
G01X112427Y106904D02*
X91910Y127421D01*
G01X152327Y67004D02*
X135327Y84004D01*
G01X188765Y30566D02*
X175006Y44326D01*
G01X206161Y13170D02*
X191943Y27388D01*
G01X115087Y107072D02*
X94738Y127421D01*
G01X155155Y67004D02*
X138156Y84004D01*
G01X188965Y33194D02*
X176420Y45740D01*
G01X206161Y15998D02*
X194572Y27588D01*
G01X117884Y107104D02*
X97567Y127421D01*
G01X124684Y100304D02*
X122758Y102230D01*
G01X157984Y67004D02*
X140984Y84004D01*
G01X190151Y34837D02*
X177834Y47154D01*
G01X206161Y18826D02*
X196214Y28774D01*
G01X120712Y107104D02*
X100395Y127421D01*
G01X127512Y100304D02*
X122758Y105059D01*
G01X160812Y67004D02*
X143813Y84004D01*
G01X188646Y39170D02*
X179248Y48568D01*
G01X192043Y35774D02*
X190705Y37112D01*
G01X206161Y21655D02*
X197151Y30666D01*
G01X130341Y100304D02*
X103224Y127421D01*
G01X163641Y67004D02*
X146641Y84004D01*
G01X188646Y41998D02*
X180662Y49982D01*
G01X206161Y24483D02*
X193533Y37112D01*
G01X133169Y100304D02*
X106052Y127421D01*
G01X166469Y67004D02*
X149470Y84004D01*
G01X188698Y44775D02*
X182502Y50971D01*
G01X206161Y27312D02*
X196310Y37163D01*
G01X135998Y100304D02*
X108880Y127421D01*
G01X169298Y67004D02*
X152298Y84004D01*
G01X190590Y45712D02*
X185331Y50971D01*
G01X206161Y30140D02*
X197247Y39055D01*
G01X138826Y100304D02*
X111709Y127421D01*
G01X172126Y67004D02*
X155126Y84004D01*
G01X193418Y45712D02*
X188159Y50971D01*
G01X206161Y32969D02*
X197247Y41883D01*
G01X141654Y100304D02*
X114537Y127421D01*
G01X173457Y68501D02*
X157955Y84004D01*
G01X196294Y45665D02*
X190987Y50971D01*
G01X206161Y35797D02*
X197200Y44759D01*
G01X144483Y100304D02*
X117366Y127421D01*
G01X173457Y71330D02*
X160783Y84004D01*
G01X206161Y38626D02*
X193816Y50971D01*
G01X147311Y100304D02*
X120194Y127421D01*
G01X173457Y74158D02*
X163612Y84004D01*
G01X206161Y41454D02*
X196644Y50971D01*
G01X150140Y100304D02*
X123022Y127421D01*
G01X173779Y76664D02*
X166440Y84004D01*
G01X206161Y44282D02*
X199412Y51032D01*
G01X142757Y110515D02*
X125851Y127421D01*
G01X152968Y100304D02*
X145409Y107864D01*
G01X175194Y78079D02*
X169268Y84004D01*
G01X206161Y47111D02*
X200826Y52446D01*
G01X143080Y113021D02*
X128679Y127421D01*
G01X155796Y100304D02*
X148003Y108098D01*
G01X176796Y79304D02*
X172097Y84004D01*
G01X206161Y49939D02*
X202090Y54010D01*
G01X143211Y115718D02*
X131508Y127421D01*
G01X158625Y100304D02*
X148558Y110371D01*
G01X179625Y79304D02*
X174925Y84004D01*
G01X206161Y52768D02*
X202090Y56839D01*
G01X144395Y117362D02*
X134336Y127421D01*
G01X161453Y100304D02*
X147816Y113942D01*
G01X182453Y79304D02*
X177754Y84004D01*
G01X206161Y55596D02*
X202090Y59667D01*
G01X153857Y110729D02*
X137165Y127421D01*
G01X164282Y100304D02*
X157022Y107564D01*
G01X185282Y79304D02*
X180582Y84004D01*
G01X206161Y58424D02*
X202090Y62496D01*
G01X154456Y112958D02*
X139993Y127421D01*
G01X167110Y100304D02*
X159368Y108046D01*
G01X188110Y79304D02*
X183411Y84004D01*
G01X206161Y61253D02*
X202090Y65324D01*
G01X154458Y115785D02*
X142822Y127421D01*
G01X169939Y100304D02*
X159658Y110585D01*
G01X190939Y79304D02*
X186239Y84004D01*
G01X206161Y64081D02*
X202058Y68185D01*
G01X155914Y117158D02*
X145650Y127421D01*
G01X172767Y100304D02*
X159111Y113960D01*
G01X193767Y79304D02*
X189068Y84004D01*
G01X206161Y66910D02*
X202058Y71014D01*
G01X175107Y100792D02*
X148478Y127421D01*
G01X196596Y79304D02*
X191896Y84004D01*
G01X206161Y69738D02*
X202058Y73842D01*
G01X176521Y102207D02*
X151307Y127421D01*
G01X199424Y79304D02*
X194724Y84004D01*
G01X206161Y72567D02*
X202058Y76670D01*
G01X177936Y103621D02*
X154135Y127421D01*
G01X206161Y75395D02*
X197553Y84004D01*
G01X179350Y105035D02*
X156964Y127421D01*
G01X206161Y78224D02*
X199189Y85196D01*
G01X180764Y106449D02*
X159792Y127421D01*
G01X206161Y81052D02*
X200603Y86610D01*
G01X182178Y107864D02*
X162620Y127421D01*
G01X206161Y83880D02*
X201358Y88684D01*
G01X183666Y109204D02*
X165449Y127421D01*
G01X206161Y86709D02*
X201358Y91512D01*
G01X186494Y109204D02*
X168277Y127421D01*
G01X206161Y89537D02*
X201358Y94341D01*
G01X189323Y109204D02*
X171106Y127421D01*
G01X206161Y92366D02*
X200410Y98117D01*
G01X192151Y109204D02*
X173934Y127421D01*
G01X206161Y95194D02*
X201458Y99898D01*
G01X194980Y109204D02*
X176763Y127421D01*
G01X206161Y98022D02*
X201458Y102726D01*
G01X197808Y109204D02*
X179591Y127421D01*
G01X206161Y100851D02*
X201458Y105555D01*
G01X206161Y103679D02*
X182420Y127421D01*
G01X206161Y106508D02*
X185248Y127421D01*
G01X206161Y109336D02*
X188076Y127421D01*
G01X206161Y112165D02*
X190905Y127421D01*
G01X206161Y114993D02*
X193733Y127421D01*
G01X206161Y117822D02*
X196562Y127421D01*
G01X206161Y120650D02*
X199390Y127421D01*
G01X206161Y123478D02*
X202218Y127421D01*
G01X206113Y126356D02*
X205096Y127372D01*
G01X144558Y30644D02*
Y26804D01*
G01X145658Y110664D02*
Y115204D01*
G01X155758Y35444D02*
Y31804D01*
G01X156758Y110364D02*
Y114804D01*
M02*
