G04 ================== begin FILE IDENTIFICATION RECORD ==================*
G04 Layout Name:  D:/Projects/Mini_Audio/01.Hardware/MH18/PCB/MH18.brd*
G04 Film Name:    SILKTOP*
G04 File Format:  Gerber RS274X*
G04 File Origin:  Cadence Allegro 17.4-S037*
G04 Origin Date:  Thu Feb  1 18:32:08 2024*
G04 *
G04 Layer:  BOARD GEOMETRY/SILKSCREEN_TOP*
G04 Layer:  PACKAGE GEOMETRY/SILKSCREEN_TOP*
G04 Layer:  REF DES/SILKSCREEN_TOP*
G04 Layer:  MANUFACTURING/PEN3*
G04 Layer:  MANUFACTURING/PROBE_BOTTOM*
G04 *
G04 Offset:    (0.000 0.000)*
G04 Mirror:    No*
G04 Mode:      Positive*
G04 Rotation:  0*
G04 FullContactRelief:  No*
G04 UndefLineWidth:     6.000*
G04 ================== end FILE IDENTIFICATION RECORD ====================*
%FSLAX35Y35*MOIN*%
%IR0*IPPOS*OFA0.00000B0.00000*MIA0B0*SFA1.00000B1.00000*%
%ADD10C,.003*%
%ADD11C,.005*%
%ADD12C,.006*%
%ADD13C,.003902*%
%ADD14C,.004921*%
%ADD15C,.005902*%
%ADD16C,.00787*%
%ADD17C,.009843*%
%ADD18C,.01*%
%ADD19C,.011811*%
%ADD20C,.019685*%
%ADD21R,.000434X.000916*%
G75*
%LPD*%
G75*
G36*
G01X3471Y93189D02*
X4085D01*
Y93155D01*
X4068D01*
Y93123D01*
X4052D01*
Y93091D01*
X4036D01*
Y93059D01*
X4020D01*
Y93026D01*
X4004D01*
Y92994D01*
X3988D01*
Y92946D01*
X3972D01*
Y92914D01*
X3956D01*
Y92882D01*
X3940D01*
Y92849D01*
X3924D01*
Y92817D01*
X3907D01*
Y92785D01*
X3891D01*
Y92753D01*
X3875D01*
Y92721D01*
X3859D01*
Y92688D01*
X3843D01*
Y92640D01*
X3827D01*
Y92608D01*
X3811D01*
Y92576D01*
X3795D01*
Y92543D01*
X3779D01*
Y92511D01*
X3763D01*
Y92479D01*
X3746D01*
Y92447D01*
X3730D01*
Y92415D01*
X3714D01*
Y92382D01*
X3698D01*
Y92334D01*
X3682D01*
Y92302D01*
X3666D01*
Y92270D01*
X3650D01*
Y92238D01*
X3634D01*
Y92205D01*
X3618D01*
Y92173D01*
X3602D01*
Y92141D01*
X3585D01*
Y92109D01*
X3569D01*
Y92077D01*
X3553D01*
Y92028D01*
X3537D01*
Y91996D01*
X3521D01*
Y91964D01*
X3505D01*
Y91932D01*
X3489D01*
Y91899D01*
X3473D01*
Y91867D01*
X3457D01*
Y91835D01*
X3441D01*
Y91803D01*
X3424D01*
Y91771D01*
X3408D01*
Y91722D01*
X3392D01*
Y91690D01*
X3376D01*
Y91658D01*
X3360D01*
Y91626D01*
X3344D01*
Y91594D01*
X3328D01*
Y91561D01*
X3312D01*
Y91529D01*
X3296D01*
Y91497D01*
X3280D01*
Y91465D01*
X3263D01*
Y91416D01*
X3247D01*
Y91384D01*
X3231D01*
Y91368D01*
X2360D01*
Y91384D01*
X2344D01*
Y91465D01*
X2328D01*
Y91545D01*
X2312D01*
Y91626D01*
X2296D01*
Y91706D01*
X2280D01*
Y91787D01*
X2264D01*
Y91883D01*
X2248D01*
Y91964D01*
X2231D01*
Y92044D01*
X2215D01*
Y92125D01*
X2199D01*
Y92205D01*
X2183D01*
Y92286D01*
X2167D01*
Y92366D01*
X2151D01*
Y92447D01*
X2135D01*
Y92527D01*
X2119D01*
Y92608D01*
X2103D01*
Y92688D01*
X2087D01*
Y92769D01*
X2070D01*
Y92849D01*
X2054D01*
Y92946D01*
X2038D01*
Y93026D01*
X2022D01*
Y93091D01*
X2006D01*
Y93123D01*
X1990D01*
Y93139D01*
X1974D01*
Y93171D01*
X1958D01*
Y93189D01*
X2603D01*
Y93157D01*
X2619D01*
Y93076D01*
X2636D01*
Y92996D01*
X2652D01*
Y92915D01*
X2668D01*
Y92835D01*
X2684D01*
Y92754D01*
X2700D01*
Y92658D01*
X2716D01*
Y92577D01*
X2732D01*
Y92497D01*
X2748D01*
Y92416D01*
X2764D01*
Y92336D01*
X2780D01*
Y92239D01*
X2797D01*
Y92159D01*
X2813D01*
Y92078D01*
X2829D01*
Y91998D01*
X2845D01*
Y91917D01*
X2859D01*
Y91949D01*
X2875D01*
Y91981D01*
X2892D01*
Y92014D01*
X2908D01*
Y92046D01*
X2924D01*
Y92078D01*
X2940D01*
Y92110D01*
X2956D01*
Y92159D01*
X2972D01*
Y92191D01*
X2988D01*
Y92223D01*
X3004D01*
Y92255D01*
X3020D01*
Y92287D01*
X3036D01*
Y92320D01*
X3053D01*
Y92352D01*
X3069D01*
Y92384D01*
X3085D01*
Y92416D01*
X3101D01*
Y92448D01*
X3117D01*
Y92481D01*
X3133D01*
Y92513D01*
X3149D01*
Y92545D01*
X3165D01*
Y92577D01*
X3181D01*
Y92609D01*
X3197D01*
Y92642D01*
X3214D01*
Y92674D01*
X3230D01*
Y92706D01*
X3246D01*
Y92738D01*
X3262D01*
Y92770D01*
X3278D01*
Y92819D01*
X3294D01*
Y92851D01*
X3310D01*
Y92883D01*
X3326D01*
Y92915D01*
X3342D01*
Y92947D01*
X3358D01*
Y92980D01*
X3375D01*
Y93012D01*
X3391D01*
Y93044D01*
X3407D01*
Y93076D01*
X3423D01*
Y93108D01*
X3439D01*
Y93141D01*
X3455D01*
Y93173D01*
X3471D01*
Y93189D01*
G37*
G36*
G01X2262Y89669D02*
X4019D01*
Y89603D01*
X4003D01*
Y89442D01*
X3986D01*
Y89362D01*
X2972D01*
Y89346D01*
X2956D01*
Y89233D01*
X2940D01*
Y89136D01*
X2924D01*
Y89024D01*
X2908D01*
Y88961D01*
X3858D01*
Y88830D01*
X3842D01*
Y88653D01*
X2843D01*
Y88605D01*
X2827D01*
Y88476D01*
X2811D01*
Y88347D01*
X2795D01*
Y88219D01*
X2779D01*
Y88156D01*
X3858D01*
Y88025D01*
X3842D01*
Y87848D01*
X2101D01*
Y87914D01*
X2117D01*
Y88027D01*
X2133D01*
Y88140D01*
X2149D01*
Y88252D01*
X2166D01*
Y88365D01*
X2182D01*
Y88462D01*
X2198D01*
Y88574D01*
X2214D01*
Y88687D01*
X2230D01*
Y88800D01*
X2246D01*
Y88912D01*
X2262D01*
Y89025D01*
X2278D01*
Y89122D01*
X2294D01*
Y89234D01*
X2310D01*
Y89347D01*
X2327D01*
Y89460D01*
X2343D01*
Y89555D01*
X2327D01*
Y89571D01*
X2310D01*
Y89603D01*
X2294D01*
Y89619D01*
X2278D01*
Y89635D01*
X2262D01*
Y89669D01*
G37*
G36*
G01X2039Y85968D02*
X3989D01*
Y85950D01*
X3973D01*
Y85805D01*
X3957D01*
Y85677D01*
X3941D01*
Y85532D01*
X3925D01*
Y85435D01*
X3295D01*
Y85453D01*
X3311D01*
Y85565D01*
X3327D01*
Y85661D01*
X2588D01*
Y85564D01*
X2572D01*
Y85435D01*
X2556D01*
Y85306D01*
X2540D01*
Y85178D01*
X2524D01*
Y85065D01*
X2508D01*
Y84936D01*
X2492D01*
Y84807D01*
X2476D01*
Y84678D01*
X2459D01*
Y84550D01*
X2443D01*
Y84455D01*
X3182D01*
Y84616D01*
X3198D01*
Y84793D01*
X3215D01*
Y84823D01*
X3198D01*
Y84856D01*
X3182D01*
Y84872D01*
X3166D01*
Y84904D01*
X3150D01*
Y84920D01*
X3134D01*
Y84952D01*
X3118D01*
Y84984D01*
X3102D01*
Y85000D01*
X3086D01*
Y85033D01*
X3070D01*
Y85065D01*
X3054D01*
Y85081D01*
X3037D01*
Y85113D01*
X3021D01*
Y85131D01*
X3860D01*
Y85081D01*
X3844D01*
Y84952D01*
X3828D01*
Y84823D01*
X3812D01*
Y84695D01*
X3796D01*
Y84566D01*
X3780D01*
Y84437D01*
X3764D01*
Y84308D01*
X3747D01*
Y84179D01*
X3731D01*
Y84147D01*
X1910D01*
Y84163D01*
X1894D01*
Y84179D01*
X1862D01*
Y84195D01*
X1846D01*
Y84212D01*
X1830D01*
Y84244D01*
X1814D01*
Y84390D01*
X1830D01*
Y84503D01*
X1846D01*
Y84632D01*
X1862D01*
Y84744D01*
X1878D01*
Y84873D01*
X1894D01*
Y84986D01*
X1910D01*
Y85115D01*
X1927D01*
Y85227D01*
X1943D01*
Y85340D01*
X1959D01*
Y85469D01*
X1975D01*
Y85582D01*
X1991D01*
Y85710D01*
X2007D01*
Y85823D01*
X2023D01*
Y85952D01*
X2039D01*
Y85968D01*
G37*
G36*
G01X3404Y111803D02*
X4018D01*
Y111770D01*
X4002D01*
Y111737D01*
X3985D01*
Y111705D01*
X3969D01*
Y111673D01*
X3953D01*
Y111641D01*
X3937D01*
Y111609D01*
X3921D01*
Y111560D01*
X3905D01*
Y111528D01*
X3889D01*
Y111496D01*
X3873D01*
Y111464D01*
X3857D01*
Y111431D01*
X3841D01*
Y111399D01*
X3824D01*
Y111367D01*
X3808D01*
Y111335D01*
X3792D01*
Y111303D01*
X3776D01*
Y111254D01*
X3760D01*
Y111222D01*
X3744D01*
Y111190D01*
X3728D01*
Y111158D01*
X3712D01*
Y111126D01*
X3696D01*
Y111093D01*
X3680D01*
Y111061D01*
X3663D01*
Y111029D01*
X3647D01*
Y110997D01*
X3631D01*
Y110948D01*
X3615D01*
Y110916D01*
X3599D01*
Y110884D01*
X3583D01*
Y110852D01*
X3567D01*
Y110820D01*
X3551D01*
Y110787D01*
X3535D01*
Y110755D01*
X3519D01*
Y110723D01*
X3502D01*
Y110691D01*
X3486D01*
Y110643D01*
X3470D01*
Y110610D01*
X3454D01*
Y110578D01*
X3438D01*
Y110546D01*
X3422D01*
Y110514D01*
X3406D01*
Y110482D01*
X3390D01*
Y110449D01*
X3374D01*
Y110417D01*
X3358D01*
Y110385D01*
X3341D01*
Y110337D01*
X3325D01*
Y110304D01*
X3309D01*
Y110272D01*
X3293D01*
Y110240D01*
X3277D01*
Y110208D01*
X3261D01*
Y110176D01*
X3245D01*
Y110143D01*
X3229D01*
Y110111D01*
X3213D01*
Y110079D01*
X3197D01*
Y110031D01*
X3180D01*
Y109999D01*
X3164D01*
Y109982D01*
X2293D01*
Y109999D01*
X2277D01*
Y110079D01*
X2261D01*
Y110160D01*
X2245D01*
Y110240D01*
X2229D01*
Y110321D01*
X2213D01*
Y110401D01*
X2197D01*
Y110498D01*
X2181D01*
Y110578D01*
X2165D01*
Y110659D01*
X2148D01*
Y110739D01*
X2132D01*
Y110820D01*
X2116D01*
Y110900D01*
X2100D01*
Y110981D01*
X2084D01*
Y111061D01*
X2068D01*
Y111142D01*
X2052D01*
Y111222D01*
X2036D01*
Y111303D01*
X2020D01*
Y111383D01*
X2004D01*
Y111464D01*
X1987D01*
Y111560D01*
X1971D01*
Y111641D01*
X1955D01*
Y111705D01*
X1939D01*
Y111737D01*
X1923D01*
Y111753D01*
X1907D01*
Y111786D01*
X1891D01*
Y111803D01*
X2536D01*
Y111771D01*
X2553D01*
Y111691D01*
X2569D01*
Y111610D01*
X2585D01*
Y111530D01*
X2601D01*
Y111449D01*
X2617D01*
Y111369D01*
X2633D01*
Y111272D01*
X2649D01*
Y111192D01*
X2665D01*
Y111111D01*
X2681D01*
Y111030D01*
X2697D01*
Y110950D01*
X2714D01*
Y110853D01*
X2730D01*
Y110773D01*
X2746D01*
Y110692D01*
X2762D01*
Y110612D01*
X2778D01*
Y110531D01*
X2792D01*
Y110564D01*
X2809D01*
Y110596D01*
X2825D01*
Y110628D01*
X2841D01*
Y110660D01*
X2857D01*
Y110692D01*
X2873D01*
Y110725D01*
X2889D01*
Y110773D01*
X2905D01*
Y110805D01*
X2921D01*
Y110837D01*
X2937D01*
Y110869D01*
X2953D01*
Y110902D01*
X2970D01*
Y110934D01*
X2986D01*
Y110966D01*
X3002D01*
Y110998D01*
X3018D01*
Y111030D01*
X3034D01*
Y111063D01*
X3050D01*
Y111095D01*
X3066D01*
Y111127D01*
X3082D01*
Y111159D01*
X3098D01*
Y111192D01*
X3114D01*
Y111224D01*
X3131D01*
Y111256D01*
X3147D01*
Y111288D01*
X3163D01*
Y111320D01*
X3179D01*
Y111352D01*
X3195D01*
Y111385D01*
X3211D01*
Y111433D01*
X3227D01*
Y111465D01*
X3243D01*
Y111497D01*
X3259D01*
Y111530D01*
X3275D01*
Y111562D01*
X3292D01*
Y111594D01*
X3308D01*
Y111626D01*
X3324D01*
Y111658D01*
X3340D01*
Y111691D01*
X3356D01*
Y111723D01*
X3372D01*
Y111755D01*
X3388D01*
Y111787D01*
X3404D01*
Y111803D01*
G37*
G36*
G01Y107768D02*
X4018D01*
Y107734D01*
X4002D01*
Y107702D01*
X3985D01*
Y107670D01*
X3969D01*
Y107638D01*
X3953D01*
Y107606D01*
X3937D01*
Y107573D01*
X3921D01*
Y107525D01*
X3905D01*
Y107493D01*
X3889D01*
Y107461D01*
X3873D01*
Y107428D01*
X3857D01*
Y107396D01*
X3841D01*
Y107364D01*
X3824D01*
Y107332D01*
X3808D01*
Y107300D01*
X3792D01*
Y107267D01*
X3776D01*
Y107219D01*
X3760D01*
Y107187D01*
X3744D01*
Y107155D01*
X3728D01*
Y107123D01*
X3712D01*
Y107090D01*
X3696D01*
Y107058D01*
X3680D01*
Y107026D01*
X3663D01*
Y106994D01*
X3647D01*
Y106961D01*
X3631D01*
Y106913D01*
X3615D01*
Y106881D01*
X3599D01*
Y106849D01*
X3583D01*
Y106817D01*
X3567D01*
Y106784D01*
X3551D01*
Y106752D01*
X3535D01*
Y106720D01*
X3519D01*
Y106688D01*
X3502D01*
Y106656D01*
X3486D01*
Y106607D01*
X3470D01*
Y106575D01*
X3454D01*
Y106543D01*
X3438D01*
Y106511D01*
X3422D01*
Y106479D01*
X3406D01*
Y106446D01*
X3390D01*
Y106414D01*
X3374D01*
Y106382D01*
X3358D01*
Y106350D01*
X3341D01*
Y106301D01*
X3325D01*
Y106269D01*
X3309D01*
Y106237D01*
X3293D01*
Y106205D01*
X3277D01*
Y106173D01*
X3261D01*
Y106140D01*
X3245D01*
Y106108D01*
X3229D01*
Y106076D01*
X3213D01*
Y106044D01*
X3197D01*
Y105996D01*
X3180D01*
Y105963D01*
X3164D01*
Y105947D01*
X2293D01*
Y105963D01*
X2277D01*
Y106044D01*
X2261D01*
Y106124D01*
X2245D01*
Y106205D01*
X2229D01*
Y106285D01*
X2213D01*
Y106366D01*
X2197D01*
Y106462D01*
X2181D01*
Y106543D01*
X2165D01*
Y106623D01*
X2148D01*
Y106704D01*
X2132D01*
Y106784D01*
X2116D01*
Y106865D01*
X2100D01*
Y106945D01*
X2084D01*
Y107026D01*
X2068D01*
Y107106D01*
X2052D01*
Y107187D01*
X2036D01*
Y107267D01*
X2020D01*
Y107348D01*
X2004D01*
Y107428D01*
X1987D01*
Y107525D01*
X1971D01*
Y107606D01*
X1955D01*
Y107670D01*
X1939D01*
Y107702D01*
X1923D01*
Y107718D01*
X1907D01*
Y107750D01*
X1891D01*
Y107768D01*
X2536D01*
Y107736D01*
X2553D01*
Y107655D01*
X2569D01*
Y107575D01*
X2585D01*
Y107494D01*
X2601D01*
Y107414D01*
X2617D01*
Y107333D01*
X2633D01*
Y107237D01*
X2649D01*
Y107156D01*
X2665D01*
Y107076D01*
X2681D01*
Y106995D01*
X2697D01*
Y106915D01*
X2714D01*
Y106818D01*
X2730D01*
Y106738D01*
X2746D01*
Y106657D01*
X2762D01*
Y106577D01*
X2778D01*
Y106496D01*
X2792D01*
Y106528D01*
X2809D01*
Y106561D01*
X2825D01*
Y106593D01*
X2841D01*
Y106625D01*
X2857D01*
Y106657D01*
X2873D01*
Y106689D01*
X2889D01*
Y106738D01*
X2905D01*
Y106770D01*
X2921D01*
Y106802D01*
X2937D01*
Y106834D01*
X2953D01*
Y106866D01*
X2970D01*
Y106899D01*
X2986D01*
Y106931D01*
X3002D01*
Y106963D01*
X3018D01*
Y106995D01*
X3034D01*
Y107027D01*
X3050D01*
Y107060D01*
X3066D01*
Y107092D01*
X3082D01*
Y107124D01*
X3098D01*
Y107156D01*
X3114D01*
Y107188D01*
X3131D01*
Y107221D01*
X3147D01*
Y107253D01*
X3163D01*
Y107285D01*
X3179D01*
Y107317D01*
X3195D01*
Y107349D01*
X3211D01*
Y107398D01*
X3227D01*
Y107430D01*
X3243D01*
Y107462D01*
X3259D01*
Y107494D01*
X3275D01*
Y107527D01*
X3292D01*
Y107559D01*
X3308D01*
Y107591D01*
X3324D01*
Y107623D01*
X3340D01*
Y107655D01*
X3356D01*
Y107688D01*
X3372D01*
Y107720D01*
X3388D01*
Y107752D01*
X3404D01*
Y107768D01*
G37*
G36*
G01X3588Y103680D02*
X4121D01*
Y103581D01*
X4105D01*
Y103469D01*
X4088D01*
Y103356D01*
X4072D01*
Y103227D01*
X4056D01*
Y103115D01*
X4040D01*
Y103002D01*
X4024D01*
Y102873D01*
X4008D01*
Y102760D01*
X3992D01*
Y102648D01*
X3976D01*
Y102519D01*
X3960D01*
Y102406D01*
X3944D01*
Y102293D01*
X3927D01*
Y102165D01*
X3911D01*
Y102052D01*
X3895D01*
Y101939D01*
X3879D01*
Y101859D01*
X3250D01*
Y101875D01*
X3234D01*
Y101907D01*
X3217D01*
Y101939D01*
X3201D01*
Y101971D01*
X3185D01*
Y101988D01*
X3169D01*
Y102020D01*
X3153D01*
Y102052D01*
X3137D01*
Y102084D01*
X3121D01*
Y102116D01*
X3105D01*
Y102132D01*
X3089D01*
Y102165D01*
X3073D01*
Y102197D01*
X3056D01*
Y102229D01*
X3040D01*
Y102261D01*
X3024D01*
Y102277D01*
X3008D01*
Y102309D01*
X2992D01*
Y102342D01*
X2976D01*
Y102374D01*
X2960D01*
Y102406D01*
X2944D01*
Y102422D01*
X2928D01*
Y102454D01*
X2912D01*
Y102487D01*
X2895D01*
Y102519D01*
X2879D01*
Y102551D01*
X2863D01*
Y102567D01*
X2847D01*
Y102599D01*
X2831D01*
Y102632D01*
X2815D01*
Y102664D01*
X2799D01*
Y102696D01*
X2783D01*
Y102712D01*
X2767D01*
Y102744D01*
X2751D01*
Y102776D01*
X2734D01*
Y102809D01*
X2718D01*
Y102841D01*
X2702D01*
Y102857D01*
X2686D01*
Y102889D01*
X2670D01*
Y102921D01*
X2654D01*
Y102954D01*
X2639D01*
Y102905D01*
X2623D01*
Y102793D01*
X2607D01*
Y102680D01*
X2591D01*
Y102551D01*
X2575D01*
Y102438D01*
X2559D01*
Y102326D01*
X2543D01*
Y102213D01*
X2527D01*
Y102084D01*
X2511D01*
Y101971D01*
X2495D01*
Y101859D01*
X1929D01*
Y101925D01*
X1946D01*
Y102037D01*
X1962D01*
Y102150D01*
X1978D01*
Y102263D01*
X1994D01*
Y102375D01*
X2010D01*
Y102472D01*
X2026D01*
Y102585D01*
X2042D01*
Y102697D01*
X2058D01*
Y102810D01*
X2074D01*
Y102923D01*
X2090D01*
Y103036D01*
X2107D01*
Y103132D01*
X2123D01*
Y103245D01*
X2139D01*
Y103358D01*
X2155D01*
Y103470D01*
X2171D01*
Y103565D01*
X2155D01*
Y103581D01*
X2139D01*
Y103598D01*
X2123D01*
Y103614D01*
X2107D01*
Y103630D01*
X2090D01*
Y103646D01*
X2074D01*
Y103662D01*
X2058D01*
Y103680D01*
X2800D01*
Y103647D01*
X2817D01*
Y103615D01*
X2833D01*
Y103599D01*
X2849D01*
Y103567D01*
X2865D01*
Y103535D01*
X2881D01*
Y103502D01*
X2897D01*
Y103486D01*
X2913D01*
Y103454D01*
X2929D01*
Y103422D01*
X2945D01*
Y103390D01*
X2961D01*
Y103358D01*
X2978D01*
Y103341D01*
X2994D01*
Y103309D01*
X3010D01*
Y103277D01*
X3026D01*
Y103245D01*
X3042D01*
Y103229D01*
X3058D01*
Y103197D01*
X3074D01*
Y103164D01*
X3090D01*
Y103132D01*
X3106D01*
Y103116D01*
X3122D01*
Y103084D01*
X3139D01*
Y103052D01*
X3155D01*
Y103019D01*
X3171D01*
Y103003D01*
X3187D01*
Y102971D01*
X3203D01*
Y102939D01*
X3219D01*
Y102907D01*
X3235D01*
Y102875D01*
X3251D01*
Y102858D01*
X3267D01*
Y102826D01*
X3283D01*
Y102794D01*
X3300D01*
Y102762D01*
X3316D01*
Y102746D01*
X3332D01*
Y102714D01*
X3348D01*
Y102681D01*
X3364D01*
Y102649D01*
X3380D01*
Y102633D01*
X3396D01*
Y102601D01*
X3412D01*
Y102569D01*
X3428D01*
Y102536D01*
X3443D01*
Y102617D01*
X3459D01*
Y102730D01*
X3475D01*
Y102858D01*
X3491D01*
Y102971D01*
X3507D01*
Y103084D01*
X3523D01*
Y103213D01*
X3539D01*
Y103325D01*
X3556D01*
Y103438D01*
X3572D01*
Y103567D01*
X3588D01*
Y103680D01*
G37*
G36*
G01X2213Y100073D02*
X4275D01*
Y99991D01*
X4259D01*
Y99878D01*
X4243D01*
Y99766D01*
X4227D01*
Y99637D01*
X4211D01*
Y99524D01*
X4195D01*
Y99411D01*
X4179D01*
Y99283D01*
X4163D01*
Y99170D01*
X4147D01*
Y99057D01*
X4130D01*
Y98928D01*
X4114D01*
Y98816D01*
X4098D01*
Y98703D01*
X4082D01*
Y98574D01*
X4066D01*
Y98461D01*
X4050D01*
Y98397D01*
X4034D01*
Y98365D01*
X4018D01*
Y98349D01*
X4002D01*
Y98333D01*
X3986D01*
Y98317D01*
X3969D01*
Y98300D01*
X3937D01*
Y98284D01*
X3905D01*
Y98268D01*
X2084D01*
Y98350D01*
X2100D01*
Y98479D01*
X2116D01*
Y98608D01*
X2132D01*
Y98721D01*
X2149D01*
Y98849D01*
X2165D01*
Y98978D01*
X2181D01*
Y99107D01*
X2197D01*
Y99236D01*
X2213D01*
Y99365D01*
X2229D01*
Y99493D01*
X2245D01*
Y99606D01*
X2261D01*
Y99735D01*
X2277D01*
Y99864D01*
X2293D01*
Y99975D01*
X2277D01*
Y99991D01*
X2261D01*
Y100023D01*
X2245D01*
Y100039D01*
X2229D01*
Y100055D01*
X2213D01*
Y100073D01*
G37*
G36*
G01X2090Y96665D02*
X4152D01*
Y96583D01*
X4136D01*
Y96471D01*
X4120D01*
Y96358D01*
X4104D01*
Y96229D01*
X4088D01*
Y96116D01*
X4072D01*
Y96004D01*
X4056D01*
Y95875D01*
X4040D01*
Y95762D01*
X4024D01*
Y95649D01*
X4008D01*
Y95521D01*
X3991D01*
Y95408D01*
X3975D01*
Y95295D01*
X3959D01*
Y95166D01*
X3943D01*
Y95054D01*
X3927D01*
Y94989D01*
X3911D01*
Y94957D01*
X3895D01*
Y94941D01*
X3879D01*
Y94925D01*
X3863D01*
Y94909D01*
X3847D01*
Y94893D01*
X3814D01*
Y94877D01*
X3782D01*
Y94861D01*
X1961D01*
Y94943D01*
X1977D01*
Y95071D01*
X1993D01*
Y95200D01*
X2010D01*
Y95313D01*
X2026D01*
Y95442D01*
X2042D01*
Y95570D01*
X2058D01*
Y95699D01*
X2074D01*
Y95828D01*
X2090D01*
Y95957D01*
X2106D01*
Y96086D01*
X2122D01*
Y96198D01*
X2138D01*
Y96327D01*
X2154D01*
Y96456D01*
X2171D01*
Y96567D01*
X2154D01*
Y96583D01*
X2138D01*
Y96615D01*
X2122D01*
Y96632D01*
X2106D01*
Y96648D01*
X2090D01*
Y96665D01*
G37*
G36*
G01X4582Y93189D02*
X6355D01*
Y93155D01*
X6339D01*
Y92978D01*
X6322D01*
Y92882D01*
X5292D01*
Y92769D01*
X5276D01*
Y92672D01*
X5260D01*
Y92560D01*
X5244D01*
Y92481D01*
X6194D01*
Y92382D01*
X6178D01*
Y92205D01*
X6161D01*
Y92173D01*
X5179D01*
Y92141D01*
X5163D01*
Y92012D01*
X5147D01*
Y91883D01*
X5131D01*
Y91755D01*
X5115D01*
Y91676D01*
X6194D01*
Y91577D01*
X6178D01*
Y91400D01*
X6161D01*
Y91368D01*
X4437D01*
Y91450D01*
X4453D01*
Y91563D01*
X4469D01*
Y91676D01*
X4485D01*
Y91788D01*
X4502D01*
Y91901D01*
X4518D01*
Y91998D01*
X4534D01*
Y92110D01*
X4550D01*
Y92223D01*
X4566D01*
Y92336D01*
X4582D01*
Y92448D01*
X4598D01*
Y92561D01*
X4614D01*
Y92674D01*
X4630D01*
Y92770D01*
X4646D01*
Y92883D01*
X4663D01*
Y92996D01*
X4679D01*
Y93075D01*
X4663D01*
Y93091D01*
X4646D01*
Y93107D01*
X4630D01*
Y93139D01*
X4614D01*
Y93155D01*
X4598D01*
Y93171D01*
X4582D01*
Y93189D01*
G37*
G36*
G01X6820D02*
X7562D01*
Y93157D01*
X7578D01*
Y93125D01*
X7594D01*
Y93092D01*
X7610D01*
Y93076D01*
X7627D01*
Y93044D01*
X7643D01*
Y93012D01*
X7659D01*
Y92980D01*
X7675D01*
Y92964D01*
X7691D01*
Y92931D01*
X7707D01*
Y92899D01*
X7723D01*
Y92867D01*
X7739D01*
Y92835D01*
X7755D01*
Y92819D01*
X7771D01*
Y92786D01*
X7788D01*
Y92754D01*
X7804D01*
Y92722D01*
X7820D01*
Y92706D01*
X7836D01*
Y92674D01*
X7852D01*
Y92642D01*
X7868D01*
Y92609D01*
X7884D01*
Y92593D01*
X7900D01*
Y92561D01*
X7916D01*
Y92529D01*
X7932D01*
Y92497D01*
X7949D01*
Y92481D01*
X7965D01*
Y92448D01*
X7981D01*
Y92416D01*
X7997D01*
Y92384D01*
X8013D01*
Y92352D01*
X8029D01*
Y92336D01*
X8045D01*
Y92303D01*
X8061D01*
Y92271D01*
X8077D01*
Y92239D01*
X8093D01*
Y92223D01*
X8110D01*
Y92191D01*
X8126D01*
Y92159D01*
X8142D01*
Y92126D01*
X8158D01*
Y92110D01*
X8174D01*
Y92078D01*
X8190D01*
Y92046D01*
X8205D01*
Y92142D01*
X8221D01*
Y92255D01*
X8237D01*
Y92368D01*
X8253D01*
Y92497D01*
X8269D01*
Y92609D01*
X8285D01*
Y92738D01*
X8301D01*
Y92851D01*
X8317D01*
Y92964D01*
X8333D01*
Y93092D01*
X8349D01*
Y93173D01*
X8882D01*
Y93107D01*
X8866D01*
Y92994D01*
X8850D01*
Y92865D01*
X8834D01*
Y92753D01*
X8818D01*
Y92640D01*
X8802D01*
Y92511D01*
X8786D01*
Y92399D01*
X8770D01*
Y92286D01*
X8754D01*
Y92157D01*
X8737D01*
Y92044D01*
X8721D01*
Y91932D01*
X8705D01*
Y91803D01*
X8689D01*
Y91690D01*
X8673D01*
Y91577D01*
X8657D01*
Y91449D01*
X8641D01*
Y91368D01*
X8011D01*
Y91384D01*
X7995D01*
Y91416D01*
X7979D01*
Y91449D01*
X7963D01*
Y91465D01*
X7947D01*
Y91497D01*
X7931D01*
Y91529D01*
X7915D01*
Y91561D01*
X7899D01*
Y91594D01*
X7883D01*
Y91610D01*
X7866D01*
Y91642D01*
X7850D01*
Y91674D01*
X7834D01*
Y91706D01*
X7818D01*
Y91738D01*
X7802D01*
Y91755D01*
X7786D01*
Y91787D01*
X7770D01*
Y91819D01*
X7754D01*
Y91851D01*
X7738D01*
Y91883D01*
X7722D01*
Y91899D01*
X7705D01*
Y91932D01*
X7689D01*
Y91964D01*
X7673D01*
Y91996D01*
X7657D01*
Y92028D01*
X7641D01*
Y92044D01*
X7625D01*
Y92077D01*
X7609D01*
Y92109D01*
X7593D01*
Y92141D01*
X7577D01*
Y92173D01*
X7561D01*
Y92189D01*
X7544D01*
Y92221D01*
X7528D01*
Y92254D01*
X7512D01*
Y92286D01*
X7496D01*
Y92318D01*
X7480D01*
Y92334D01*
X7464D01*
Y92366D01*
X7448D01*
Y92399D01*
X7432D01*
Y92431D01*
X7416D01*
Y92463D01*
X7401D01*
Y92431D01*
X7385D01*
Y92318D01*
X7369D01*
Y92205D01*
X7353D01*
Y92077D01*
X7337D01*
Y91964D01*
X7321D01*
Y91851D01*
X7305D01*
Y91738D01*
X7288D01*
Y91610D01*
X7272D01*
Y91497D01*
X7256D01*
Y91384D01*
X7240D01*
Y91368D01*
X6691D01*
Y91450D01*
X6707D01*
Y91563D01*
X6723D01*
Y91676D01*
X6739D01*
Y91788D01*
X6756D01*
Y91885D01*
X6772D01*
Y91998D01*
X6788D01*
Y92110D01*
X6804D01*
Y92223D01*
X6820D01*
Y92336D01*
X6836D01*
Y92448D01*
X6852D01*
Y92545D01*
X6868D01*
Y92658D01*
X6884D01*
Y92770D01*
X6900D01*
Y92883D01*
X6917D01*
Y92996D01*
X6933D01*
Y93075D01*
X6917D01*
Y93091D01*
X6900D01*
Y93107D01*
X6884D01*
Y93123D01*
X6868D01*
Y93139D01*
X6852D01*
Y93155D01*
X6836D01*
Y93171D01*
X6820D01*
Y93189D01*
G37*
G36*
G01X4484Y89669D02*
X5226D01*
Y89637D01*
X5242D01*
Y89605D01*
X5258D01*
Y89589D01*
X5274D01*
Y89556D01*
X5291D01*
Y89524D01*
X5307D01*
Y89492D01*
X5323D01*
Y89476D01*
X5339D01*
Y89444D01*
X5355D01*
Y89412D01*
X5371D01*
Y89379D01*
X5387D01*
Y89363D01*
X5403D01*
Y89331D01*
X5419D01*
Y89299D01*
X5435D01*
Y89267D01*
X5452D01*
Y89251D01*
X5468D01*
Y89218D01*
X5484D01*
Y89186D01*
X5500D01*
Y89154D01*
X5516D01*
Y89122D01*
X5532D01*
Y89106D01*
X5548D01*
Y89073D01*
X5564D01*
Y89041D01*
X5580D01*
Y89009D01*
X5596D01*
Y88993D01*
X5613D01*
Y88961D01*
X5629D01*
Y88929D01*
X5645D01*
Y88896D01*
X5661D01*
Y88880D01*
X5677D01*
Y88848D01*
X5693D01*
Y88816D01*
X5709D01*
Y88784D01*
X5725D01*
Y88751D01*
X5741D01*
Y88735D01*
X5757D01*
Y88703D01*
X5774D01*
Y88671D01*
X5790D01*
Y88639D01*
X5806D01*
Y88623D01*
X5822D01*
Y88590D01*
X5838D01*
Y88558D01*
X5854D01*
Y88526D01*
X5869D01*
Y88590D01*
X5885D01*
Y88719D01*
X5901D01*
Y88832D01*
X5917D01*
Y88945D01*
X5933D01*
Y89073D01*
X5949D01*
Y89186D01*
X5965D01*
Y89315D01*
X5981D01*
Y89428D01*
X5997D01*
Y89540D01*
X6013D01*
Y89653D01*
X6546D01*
Y89571D01*
X6530D01*
Y89458D01*
X6514D01*
Y89330D01*
X6498D01*
Y89217D01*
X6482D01*
Y89104D01*
X6466D01*
Y88975D01*
X6450D01*
Y88863D01*
X6434D01*
Y88750D01*
X6418D01*
Y88621D01*
X6401D01*
Y88508D01*
X6385D01*
Y88396D01*
X6369D01*
Y88267D01*
X6353D01*
Y88154D01*
X6337D01*
Y88025D01*
X6321D01*
Y87913D01*
X6305D01*
Y87848D01*
X5675D01*
Y87864D01*
X5659D01*
Y87897D01*
X5643D01*
Y87929D01*
X5627D01*
Y87961D01*
X5611D01*
Y87977D01*
X5595D01*
Y88009D01*
X5579D01*
Y88042D01*
X5563D01*
Y88074D01*
X5547D01*
Y88106D01*
X5530D01*
Y88122D01*
X5514D01*
Y88154D01*
X5498D01*
Y88186D01*
X5482D01*
Y88219D01*
X5466D01*
Y88251D01*
X5450D01*
Y88267D01*
X5434D01*
Y88299D01*
X5418D01*
Y88331D01*
X5402D01*
Y88363D01*
X5386D01*
Y88396D01*
X5369D01*
Y88412D01*
X5353D01*
Y88444D01*
X5337D01*
Y88476D01*
X5321D01*
Y88508D01*
X5305D01*
Y88541D01*
X5289D01*
Y88557D01*
X5273D01*
Y88589D01*
X5257D01*
Y88621D01*
X5241D01*
Y88653D01*
X5225D01*
Y88685D01*
X5208D01*
Y88702D01*
X5192D01*
Y88734D01*
X5176D01*
Y88766D01*
X5160D01*
Y88798D01*
X5144D01*
Y88830D01*
X5128D01*
Y88847D01*
X5112D01*
Y88879D01*
X5096D01*
Y88911D01*
X5080D01*
Y88943D01*
X5065D01*
Y88895D01*
X5049D01*
Y88766D01*
X5033D01*
Y88653D01*
X5017D01*
Y88541D01*
X5001D01*
Y88428D01*
X4985D01*
Y88299D01*
X4969D01*
Y88186D01*
X4952D01*
Y88074D01*
X4936D01*
Y87961D01*
X4920D01*
Y87848D01*
X4355D01*
Y87914D01*
X4371D01*
Y88027D01*
X4387D01*
Y88140D01*
X4403D01*
Y88236D01*
X4420D01*
Y88349D01*
X4436D01*
Y88462D01*
X4452D01*
Y88574D01*
X4468D01*
Y88687D01*
X4484D01*
Y88800D01*
X4500D01*
Y88912D01*
X4516D01*
Y89009D01*
X4532D01*
Y89122D01*
X4548D01*
Y89234D01*
X4564D01*
Y89347D01*
X4581D01*
Y89460D01*
X4597D01*
Y89555D01*
X4581D01*
Y89571D01*
X4564D01*
Y89587D01*
X4548D01*
Y89603D01*
X4532D01*
Y89619D01*
X4516D01*
Y89635D01*
X4500D01*
Y89652D01*
X4484D01*
Y89669D01*
G37*
G36*
G01X7046Y85952D02*
X9093D01*
Y85822D01*
X9077D01*
Y85709D01*
X9060D01*
Y85596D01*
X9044D01*
Y85467D01*
X9028D01*
Y85355D01*
X9012D01*
Y85242D01*
X8996D01*
Y85113D01*
X8980D01*
Y85000D01*
X8964D01*
Y84888D01*
X8948D01*
Y84759D01*
X8932D01*
Y84646D01*
X8916D01*
Y84517D01*
X8899D01*
Y84405D01*
X8883D01*
Y84292D01*
X8867D01*
Y84260D01*
X8851D01*
Y84244D01*
X8835D01*
Y84212D01*
X8819D01*
Y84195D01*
X8787D01*
Y84179D01*
X8771D01*
Y84163D01*
X8738D01*
Y84147D01*
X6901D01*
Y84165D01*
X6918D01*
Y84294D01*
X6934D01*
Y84422D01*
X6950D01*
Y84551D01*
X6966D01*
Y84680D01*
X6982D01*
Y84809D01*
X6998D01*
Y84938D01*
X7014D01*
Y85066D01*
X7030D01*
Y85195D01*
X7046D01*
Y85324D01*
X7062D01*
Y85437D01*
X7079D01*
Y85565D01*
X7095D01*
Y85694D01*
X7111D01*
Y85823D01*
X7127D01*
Y85838D01*
X7111D01*
Y85870D01*
X7095D01*
Y85886D01*
X7079D01*
Y85902D01*
X7062D01*
Y85918D01*
X7046D01*
Y85952D01*
G37*
G36*
G01X6016Y85968D02*
X6549D01*
Y85950D01*
X6533D01*
Y85822D01*
X6517D01*
Y85709D01*
X6501D01*
Y85596D01*
X6484D01*
Y85467D01*
X6468D01*
Y85355D01*
X6452D01*
Y85242D01*
X6436D01*
Y85113D01*
X6420D01*
Y85000D01*
X6404D01*
Y84888D01*
X6388D01*
Y84759D01*
X6372D01*
Y84646D01*
X6356D01*
Y84517D01*
X6340D01*
Y84405D01*
X6323D01*
Y84292D01*
X6307D01*
Y84163D01*
X6291D01*
Y84147D01*
X5662D01*
Y84179D01*
X5646D01*
Y84212D01*
X5630D01*
Y84244D01*
X5613D01*
Y84260D01*
X5597D01*
Y84292D01*
X5581D01*
Y84324D01*
X5565D01*
Y84356D01*
X5549D01*
Y84389D01*
X5533D01*
Y84405D01*
X5517D01*
Y84437D01*
X5501D01*
Y84469D01*
X5485D01*
Y84501D01*
X5469D01*
Y84533D01*
X5452D01*
Y84550D01*
X5436D01*
Y84582D01*
X5420D01*
Y84614D01*
X5404D01*
Y84646D01*
X5388D01*
Y84678D01*
X5372D01*
Y84695D01*
X5356D01*
Y84727D01*
X5340D01*
Y84759D01*
X5324D01*
Y84791D01*
X5308D01*
Y84823D01*
X5291D01*
Y84839D01*
X5275D01*
Y84872D01*
X5259D01*
Y84904D01*
X5243D01*
Y84936D01*
X5227D01*
Y84968D01*
X5211D01*
Y84984D01*
X5195D01*
Y85017D01*
X5179D01*
Y85049D01*
X5163D01*
Y85081D01*
X5147D01*
Y85113D01*
X5130D01*
Y85129D01*
X5114D01*
Y85161D01*
X5098D01*
Y85194D01*
X5082D01*
Y85226D01*
X5066D01*
Y85258D01*
X5052D01*
Y85145D01*
X5035D01*
Y85033D01*
X5019D01*
Y84904D01*
X5003D01*
Y84791D01*
X4987D01*
Y84678D01*
X4971D01*
Y84566D01*
X4955D01*
Y84437D01*
X4939D01*
Y84324D01*
X4923D01*
Y84212D01*
X4907D01*
Y84147D01*
X4342D01*
Y84165D01*
X4358D01*
Y84277D01*
X4374D01*
Y84390D01*
X4390D01*
Y84503D01*
X4406D01*
Y84616D01*
X4422D01*
Y84728D01*
X4438D01*
Y84825D01*
X4454D01*
Y84938D01*
X4470D01*
Y85050D01*
X4486D01*
Y85163D01*
X4503D01*
Y85276D01*
X4519D01*
Y85388D01*
X4535D01*
Y85501D01*
X4551D01*
Y85598D01*
X4567D01*
Y85710D01*
X4583D01*
Y85823D01*
X4599D01*
Y85838D01*
X4583D01*
Y85854D01*
X4567D01*
Y85870D01*
X4551D01*
Y85886D01*
X4535D01*
Y85902D01*
X4519D01*
Y85918D01*
X4503D01*
Y85934D01*
X4486D01*
Y85950D01*
X4470D01*
Y85968D01*
X5213D01*
Y85952D01*
X5229D01*
Y85920D01*
X5245D01*
Y85887D01*
X5261D01*
Y85871D01*
X5277D01*
Y85839D01*
X5293D01*
Y85807D01*
X5309D01*
Y85775D01*
X5325D01*
Y85759D01*
X5341D01*
Y85726D01*
X5357D01*
Y85694D01*
X5374D01*
Y85662D01*
X5390D01*
Y85630D01*
X5406D01*
Y85614D01*
X5422D01*
Y85582D01*
X5438D01*
Y85549D01*
X5454D01*
Y85517D01*
X5470D01*
Y85501D01*
X5486D01*
Y85469D01*
X5502D01*
Y85437D01*
X5518D01*
Y85404D01*
X5535D01*
Y85388D01*
X5551D01*
Y85356D01*
X5567D01*
Y85324D01*
X5583D01*
Y85292D01*
X5599D01*
Y85276D01*
X5615D01*
Y85243D01*
X5631D01*
Y85211D01*
X5647D01*
Y85179D01*
X5663D01*
Y85147D01*
X5679D01*
Y85131D01*
X5696D01*
Y85099D01*
X5712D01*
Y85066D01*
X5728D01*
Y85034D01*
X5744D01*
Y85018D01*
X5760D01*
Y84986D01*
X5776D01*
Y84954D01*
X5792D01*
Y84921D01*
X5808D01*
Y84905D01*
X5824D01*
Y84873D01*
X5840D01*
Y84841D01*
X5855D01*
Y84857D01*
X5871D01*
Y84970D01*
X5887D01*
Y85082D01*
X5903D01*
Y85211D01*
X5919D01*
Y85324D01*
X5935D01*
Y85437D01*
X5952D01*
Y85565D01*
X5968D01*
Y85678D01*
X5984D01*
Y85807D01*
X6000D01*
Y85920D01*
X6016D01*
Y85968D01*
G37*
G36*
G01X9732Y111787D02*
X11552D01*
Y111689D01*
X11536D01*
Y111560D01*
X11520D01*
Y111415D01*
X11504D01*
Y111287D01*
X11488D01*
Y111270D01*
X10875D01*
Y111320D01*
X10891D01*
Y111433D01*
X10907D01*
Y111496D01*
X10313D01*
Y111415D01*
X10297D01*
Y111335D01*
X10281D01*
Y111254D01*
X10264D01*
Y111174D01*
X10248D01*
Y111093D01*
X10232D01*
Y111030D01*
X11456D01*
Y110916D01*
X11440D01*
Y110820D01*
X11424D01*
Y110707D01*
X11408D01*
Y110594D01*
X11391D01*
Y110482D01*
X11375D01*
Y110369D01*
X11359D01*
Y110272D01*
X11343D01*
Y110143D01*
X11327D01*
Y110111D01*
X11311D01*
Y110079D01*
X11295D01*
Y110063D01*
X11279D01*
Y110047D01*
X11263D01*
Y110031D01*
X11247D01*
Y110015D01*
X11214D01*
Y109999D01*
X11182D01*
Y109982D01*
X9490D01*
Y110097D01*
X9506D01*
Y110225D01*
X9522D01*
Y110354D01*
X9538D01*
Y110451D01*
X9572D01*
Y110419D01*
X9588D01*
Y110403D01*
X9604D01*
Y110386D01*
X9620D01*
Y110354D01*
X10762D01*
Y110451D01*
X10778D01*
Y110547D01*
X10794D01*
Y110644D01*
X10810D01*
Y110723D01*
X9587D01*
Y110837D01*
X9603D01*
Y110950D01*
X9619D01*
Y111063D01*
X9635D01*
Y111175D01*
X9651D01*
Y111288D01*
X9667D01*
Y111401D01*
X9683D01*
Y111514D01*
X9699D01*
Y111626D01*
X9715D01*
Y111739D01*
X9732D01*
Y111787D01*
G37*
G36*
G01X4483Y111803D02*
X6561D01*
Y111721D01*
X6545D01*
Y111592D01*
X6529D01*
Y111464D01*
X6513D01*
Y111335D01*
X6497D01*
Y111222D01*
X6481D01*
Y111093D01*
X6465D01*
Y111045D01*
X6433D01*
Y111029D01*
X6417D01*
Y111013D01*
X6384D01*
Y110997D01*
X6368D01*
Y110981D01*
X6336D01*
Y110965D01*
X6320D01*
Y110948D01*
X6288D01*
Y110918D01*
X6320D01*
Y110902D01*
X6336D01*
Y110886D01*
X6352D01*
Y110869D01*
X6368D01*
Y110853D01*
X6384D01*
Y110837D01*
X6417D01*
Y110821D01*
X6433D01*
Y110723D01*
X6417D01*
Y110626D01*
X6400D01*
Y110514D01*
X6384D01*
Y110401D01*
X6368D01*
Y110304D01*
X6352D01*
Y110192D01*
X6336D01*
Y110143D01*
X6320D01*
Y110111D01*
X6304D01*
Y110079D01*
X6288D01*
Y110063D01*
X6272D01*
Y110047D01*
X6256D01*
Y110031D01*
X6239D01*
Y110015D01*
X6223D01*
Y109999D01*
X6191D01*
Y109982D01*
X4370D01*
Y110081D01*
X4386D01*
Y110209D01*
X4402D01*
Y110338D01*
X4419D01*
Y110467D01*
X4435D01*
Y110580D01*
X4451D01*
Y110708D01*
X4467D01*
Y110837D01*
X4483D01*
Y110966D01*
X4499D01*
Y111095D01*
X4515D01*
Y111224D01*
X4531D01*
Y111352D01*
X4547D01*
Y111481D01*
X4563D01*
Y111610D01*
X4580D01*
Y111689D01*
X4563D01*
Y111705D01*
X4547D01*
Y111721D01*
X4531D01*
Y111753D01*
X4515D01*
Y111770D01*
X4499D01*
Y111786D01*
X4483D01*
Y111803D01*
G37*
G36*
G01X8379D02*
X9121D01*
Y111737D01*
X9105D01*
Y111609D01*
X9089D01*
Y111496D01*
X9073D01*
Y111383D01*
X9057D01*
Y111254D01*
X9041D01*
Y111142D01*
X9025D01*
Y111029D01*
X9009D01*
Y110900D01*
X8993D01*
Y110787D01*
X8976D01*
Y110675D01*
X8960D01*
Y110546D01*
X8944D01*
Y110433D01*
X8928D01*
Y110321D01*
X8912D01*
Y110192D01*
X8896D01*
Y110079D01*
X8880D01*
Y109982D01*
X7027D01*
Y109999D01*
X6995D01*
Y110015D01*
X6978D01*
Y110031D01*
X6962D01*
Y110063D01*
X6946D01*
Y110095D01*
X6930D01*
Y110290D01*
X6946D01*
Y110403D01*
X6962D01*
Y110515D01*
X6978D01*
Y110628D01*
X6995D01*
Y110741D01*
X7011D01*
Y110853D01*
X7027D01*
Y110966D01*
X7043D01*
Y111079D01*
X7059D01*
Y111192D01*
X7075D01*
Y111304D01*
X7091D01*
Y111417D01*
X7107D01*
Y111530D01*
X7123D01*
Y111642D01*
X7139D01*
Y111721D01*
X7123D01*
Y111737D01*
X7107D01*
Y111753D01*
X7091D01*
Y111770D01*
X7059D01*
Y111786D01*
X7043D01*
Y111803D01*
X7753D01*
Y111689D01*
X7737D01*
Y111576D01*
X7721D01*
Y111464D01*
X7705D01*
Y111351D01*
X7688D01*
Y111238D01*
X7672D01*
Y111126D01*
X7656D01*
Y111013D01*
X7640D01*
Y110900D01*
X7624D01*
Y110787D01*
X7608D01*
Y110675D01*
X7592D01*
Y110562D01*
X7576D01*
Y110449D01*
X7560D01*
Y110337D01*
X7544D01*
Y110290D01*
X8283D01*
Y110338D01*
X8299D01*
Y110435D01*
X8315D01*
Y110547D01*
X8331D01*
Y110644D01*
X8347D01*
Y110757D01*
X8363D01*
Y110853D01*
X8379D01*
Y110966D01*
X8395D01*
Y111063D01*
X8411D01*
Y111175D01*
X8427D01*
Y111272D01*
X8444D01*
Y111385D01*
X8460D01*
Y111481D01*
X8476D01*
Y111594D01*
X8492D01*
Y111691D01*
X8508D01*
Y111705D01*
X8492D01*
Y111721D01*
X8476D01*
Y111737D01*
X8444D01*
Y111753D01*
X8427D01*
Y111770D01*
X8411D01*
Y111786D01*
X8379D01*
Y111803D01*
G37*
G36*
G01X9732Y107752D02*
X11552D01*
Y107654D01*
X11536D01*
Y107525D01*
X11520D01*
Y107380D01*
X11504D01*
Y107251D01*
X11488D01*
Y107235D01*
X10875D01*
Y107285D01*
X10891D01*
Y107398D01*
X10907D01*
Y107461D01*
X10313D01*
Y107380D01*
X10297D01*
Y107300D01*
X10281D01*
Y107219D01*
X10264D01*
Y107139D01*
X10248D01*
Y107058D01*
X10232D01*
Y106995D01*
X11456D01*
Y106881D01*
X11440D01*
Y106784D01*
X11424D01*
Y106672D01*
X11408D01*
Y106559D01*
X11391D01*
Y106446D01*
X11375D01*
Y106334D01*
X11359D01*
Y106237D01*
X11343D01*
Y106108D01*
X11327D01*
Y106076D01*
X11311D01*
Y106044D01*
X11295D01*
Y106028D01*
X11279D01*
Y106012D01*
X11263D01*
Y105996D01*
X11247D01*
Y105979D01*
X11214D01*
Y105963D01*
X11182D01*
Y105947D01*
X9490D01*
Y106061D01*
X9506D01*
Y106190D01*
X9522D01*
Y106319D01*
X9538D01*
Y106416D01*
X9572D01*
Y106383D01*
X9588D01*
Y106367D01*
X9604D01*
Y106351D01*
X9620D01*
Y106319D01*
X10762D01*
Y106416D01*
X10778D01*
Y106512D01*
X10794D01*
Y106609D01*
X10810D01*
Y106688D01*
X9587D01*
Y106802D01*
X9603D01*
Y106915D01*
X9619D01*
Y107027D01*
X9635D01*
Y107140D01*
X9651D01*
Y107253D01*
X9667D01*
Y107366D01*
X9683D01*
Y107478D01*
X9699D01*
Y107591D01*
X9715D01*
Y107704D01*
X9732D01*
Y107752D01*
G37*
G36*
G01X4483Y107768D02*
X6561D01*
Y107686D01*
X6545D01*
Y107557D01*
X6529D01*
Y107428D01*
X6513D01*
Y107300D01*
X6497D01*
Y107187D01*
X6481D01*
Y107058D01*
X6465D01*
Y107010D01*
X6433D01*
Y106994D01*
X6417D01*
Y106978D01*
X6384D01*
Y106961D01*
X6368D01*
Y106945D01*
X6336D01*
Y106929D01*
X6320D01*
Y106913D01*
X6288D01*
Y106883D01*
X6320D01*
Y106866D01*
X6336D01*
Y106850D01*
X6352D01*
Y106834D01*
X6368D01*
Y106818D01*
X6384D01*
Y106802D01*
X6417D01*
Y106786D01*
X6433D01*
Y106688D01*
X6417D01*
Y106591D01*
X6400D01*
Y106479D01*
X6384D01*
Y106366D01*
X6368D01*
Y106269D01*
X6352D01*
Y106157D01*
X6336D01*
Y106108D01*
X6320D01*
Y106076D01*
X6304D01*
Y106044D01*
X6288D01*
Y106028D01*
X6272D01*
Y106012D01*
X6256D01*
Y105996D01*
X6239D01*
Y105979D01*
X6223D01*
Y105963D01*
X6191D01*
Y105947D01*
X4370D01*
Y106045D01*
X4386D01*
Y106174D01*
X4402D01*
Y106303D01*
X4419D01*
Y106432D01*
X4435D01*
Y106544D01*
X4451D01*
Y106673D01*
X4467D01*
Y106802D01*
X4483D01*
Y106931D01*
X4499D01*
Y107060D01*
X4515D01*
Y107188D01*
X4531D01*
Y107317D01*
X4547D01*
Y107446D01*
X4563D01*
Y107575D01*
X4580D01*
Y107654D01*
X4563D01*
Y107670D01*
X4547D01*
Y107686D01*
X4531D01*
Y107718D01*
X4515D01*
Y107734D01*
X4499D01*
Y107750D01*
X4483D01*
Y107768D01*
G37*
G36*
G01X8379D02*
X9121D01*
Y107702D01*
X9105D01*
Y107573D01*
X9089D01*
Y107461D01*
X9073D01*
Y107348D01*
X9057D01*
Y107219D01*
X9041D01*
Y107106D01*
X9025D01*
Y106994D01*
X9009D01*
Y106865D01*
X8993D01*
Y106752D01*
X8976D01*
Y106640D01*
X8960D01*
Y106511D01*
X8944D01*
Y106398D01*
X8928D01*
Y106285D01*
X8912D01*
Y106157D01*
X8896D01*
Y106044D01*
X8880D01*
Y105947D01*
X7027D01*
Y105963D01*
X6995D01*
Y105979D01*
X6978D01*
Y105996D01*
X6962D01*
Y106028D01*
X6946D01*
Y106060D01*
X6930D01*
Y106255D01*
X6946D01*
Y106367D01*
X6962D01*
Y106480D01*
X6978D01*
Y106593D01*
X6995D01*
Y106705D01*
X7011D01*
Y106818D01*
X7027D01*
Y106931D01*
X7043D01*
Y107044D01*
X7059D01*
Y107156D01*
X7075D01*
Y107269D01*
X7091D01*
Y107382D01*
X7107D01*
Y107494D01*
X7123D01*
Y107607D01*
X7139D01*
Y107686D01*
X7123D01*
Y107702D01*
X7107D01*
Y107718D01*
X7091D01*
Y107734D01*
X7059D01*
Y107750D01*
X7043D01*
Y107768D01*
X7753D01*
Y107654D01*
X7737D01*
Y107541D01*
X7721D01*
Y107428D01*
X7705D01*
Y107316D01*
X7688D01*
Y107203D01*
X7672D01*
Y107090D01*
X7656D01*
Y106978D01*
X7640D01*
Y106865D01*
X7624D01*
Y106752D01*
X7608D01*
Y106640D01*
X7592D01*
Y106527D01*
X7576D01*
Y106414D01*
X7560D01*
Y106301D01*
X7544D01*
Y106255D01*
X8283D01*
Y106303D01*
X8299D01*
Y106400D01*
X8315D01*
Y106512D01*
X8331D01*
Y106609D01*
X8347D01*
Y106722D01*
X8363D01*
Y106818D01*
X8379D01*
Y106931D01*
X8395D01*
Y107027D01*
X8411D01*
Y107140D01*
X8427D01*
Y107237D01*
X8444D01*
Y107349D01*
X8460D01*
Y107446D01*
X8476D01*
Y107559D01*
X8492D01*
Y107655D01*
X8508D01*
Y107670D01*
X8492D01*
Y107686D01*
X8476D01*
Y107702D01*
X8444D01*
Y107718D01*
X8427D01*
Y107734D01*
X8411D01*
Y107750D01*
X8379D01*
Y107768D01*
G37*
G36*
G01X4699Y103663D02*
X6664D01*
Y103646D01*
X6648D01*
Y103501D01*
X6632D01*
Y103372D01*
X5264D01*
Y103276D01*
X5248D01*
Y103147D01*
X5232D01*
Y103018D01*
X5215D01*
Y102905D01*
X5199D01*
Y102776D01*
X5183D01*
Y102648D01*
X5167D01*
Y102519D01*
X5151D01*
Y102390D01*
X5135D01*
Y102277D01*
X5119D01*
Y102166D01*
X6325D01*
Y102182D01*
X6357D01*
Y102198D01*
X6373D01*
Y102214D01*
X6389D01*
Y102231D01*
X6421D01*
Y102247D01*
X6437D01*
Y102263D01*
X6471D01*
Y102229D01*
X6455D01*
Y102116D01*
X6439D01*
Y102004D01*
X6423D01*
Y101891D01*
X6407D01*
Y101859D01*
X4586D01*
Y101875D01*
X4570D01*
Y101891D01*
X4538D01*
Y101907D01*
X4522D01*
Y101923D01*
X4505D01*
Y101955D01*
X4489D01*
Y102102D01*
X4505D01*
Y102231D01*
X4522D01*
Y102343D01*
X4538D01*
Y102456D01*
X4554D01*
Y102585D01*
X4570D01*
Y102697D01*
X4586D01*
Y102826D01*
X4602D01*
Y102939D01*
X4618D01*
Y103068D01*
X4634D01*
Y103180D01*
X4650D01*
Y103293D01*
X4666D01*
Y103422D01*
X4683D01*
Y103535D01*
X4699D01*
Y103663D01*
G37*
G36*
G01X5304Y99735D02*
X5805D01*
Y99685D01*
X5789D01*
Y99572D01*
X5773D01*
Y99460D01*
X5757D01*
Y99347D01*
X5740D01*
Y99234D01*
X5724D01*
Y99187D01*
X6272D01*
Y99105D01*
X6256D01*
Y98993D01*
X6240D01*
Y98880D01*
X5676D01*
Y98767D01*
X5660D01*
Y98655D01*
X5644D01*
Y98542D01*
X5628D01*
Y98429D01*
X5612D01*
Y98317D01*
X5596D01*
Y98268D01*
X5111D01*
Y98366D01*
X5127D01*
Y98479D01*
X5143D01*
Y98592D01*
X5159D01*
Y98704D01*
X5175D01*
Y98817D01*
X5191D01*
Y98880D01*
X4644D01*
Y98946D01*
X4660D01*
Y99075D01*
X4676D01*
Y99187D01*
X5240D01*
Y99284D01*
X5256D01*
Y99397D01*
X5272D01*
Y99509D01*
X5288D01*
Y99622D01*
X5304D01*
Y99735D01*
G37*
G36*
G01X4553Y95764D02*
X5666D01*
Y95730D01*
X5650D01*
Y95633D01*
X5634D01*
Y95537D01*
X5618D01*
Y95440D01*
X4505D01*
Y95474D01*
X4521D01*
Y95570D01*
X4537D01*
Y95667D01*
X4553D01*
Y95764D01*
G37*
G36*
G01X89557Y123952D02*
X91489D01*
Y123658D01*
X91441D01*
Y123320D01*
X91393D01*
Y122983D01*
X91345D01*
Y122597D01*
X91297D01*
Y122260D01*
X91248D01*
Y121922D01*
X91200D01*
Y121537D01*
X91152D01*
Y121200D01*
X91104D01*
Y120862D01*
X91056D01*
Y120476D01*
X91007D01*
Y120139D01*
X90959D01*
Y119802D01*
X90911D01*
Y119416D01*
X90863D01*
Y119079D01*
X90815D01*
Y118741D01*
X90766D01*
Y118500D01*
X89075D01*
Y118553D01*
X89123D01*
Y118842D01*
X89171D01*
Y119180D01*
X89219D01*
Y119469D01*
X89267D01*
Y119758D01*
X89316D01*
Y120048D01*
X89364D01*
Y120337D01*
X89412D01*
Y120674D01*
X89460D01*
Y120963D01*
X89508D01*
Y121248D01*
X89465D01*
Y121151D01*
X89417D01*
Y121055D01*
X89369D01*
Y121007D01*
X89320D01*
Y120910D01*
X89272D01*
Y120814D01*
X89224D01*
Y120766D01*
X89176D01*
Y120669D01*
X89128D01*
Y120573D01*
X89079D01*
Y120525D01*
X89031D01*
Y120428D01*
X88983D01*
Y120332D01*
X88935D01*
Y120236D01*
X88887D01*
Y120187D01*
X88838D01*
Y120091D01*
X88790D01*
Y119994D01*
X88742D01*
Y119946D01*
X88694D01*
Y119850D01*
X88646D01*
Y119754D01*
X88597D01*
Y119705D01*
X88549D01*
Y119609D01*
X88501D01*
Y119512D01*
X88453D01*
Y119416D01*
X88405D01*
Y119368D01*
X88356D01*
Y119272D01*
X88308D01*
Y119175D01*
X88260D01*
Y119127D01*
X88212D01*
Y119031D01*
X88164D01*
Y118934D01*
X88115D01*
Y118838D01*
X86568D01*
Y118982D01*
X86520D01*
Y119127D01*
X86472D01*
Y119320D01*
X86424D01*
Y119464D01*
X86375D01*
Y119609D01*
X86327D01*
Y119754D01*
X86279D01*
Y119946D01*
X86231D01*
Y120091D01*
X86183D01*
Y120236D01*
X86134D01*
Y120380D01*
X86086D01*
Y120525D01*
X86038D01*
Y120717D01*
X85990D01*
Y120862D01*
X85942D01*
Y121007D01*
X85893D01*
Y121151D01*
X85850D01*
Y121055D01*
X85802D01*
Y120717D01*
X85754D01*
Y120332D01*
X85705D01*
Y119946D01*
X85657D01*
Y119609D01*
X85609D01*
Y119223D01*
X85561D01*
Y118886D01*
X85513D01*
Y118500D01*
X83821D01*
Y118698D01*
X83869D01*
Y119035D01*
X83917D01*
Y119373D01*
X83965D01*
Y119710D01*
X84014D01*
Y120048D01*
X84062D01*
Y120337D01*
X84110D01*
Y120674D01*
X84158D01*
Y121012D01*
X84206D01*
Y121349D01*
X84255D01*
Y121686D01*
X84303D01*
Y122024D01*
X84351D01*
Y122313D01*
X84399D01*
Y122650D01*
X84447D01*
Y122988D01*
X84496D01*
Y123325D01*
X84544D01*
Y123610D01*
X84496D01*
Y123658D01*
X84447D01*
Y123706D01*
X84399D01*
Y123754D01*
X84351D01*
Y123802D01*
X84303D01*
Y123850D01*
X84255D01*
Y123899D01*
X84206D01*
Y123952D01*
X86573D01*
Y123903D01*
X86621D01*
Y123759D01*
X86669D01*
Y123614D01*
X86718D01*
Y123421D01*
X86766D01*
Y123277D01*
X86814D01*
Y123132D01*
X86862D01*
Y122940D01*
X86910D01*
Y122795D01*
X86959D01*
Y122650D01*
X87007D01*
Y122458D01*
X87055D01*
Y122313D01*
X87103D01*
Y122168D01*
X87151D01*
Y121976D01*
X87200D01*
Y121831D01*
X87248D01*
Y121686D01*
X87296D01*
Y121493D01*
X87344D01*
Y121349D01*
X87392D01*
Y121204D01*
X87441D01*
Y121012D01*
X87489D01*
Y120867D01*
X87537D01*
Y120674D01*
X87585D01*
Y120529D01*
X87629D01*
Y120578D01*
X87677D01*
Y120674D01*
X87725D01*
Y120770D01*
X87773D01*
Y120867D01*
X87821D01*
Y120915D01*
X87870D01*
Y121012D01*
X87918D01*
Y121108D01*
X87966D01*
Y121204D01*
X88014D01*
Y121253D01*
X88062D01*
Y121349D01*
X88111D01*
Y121445D01*
X88159D01*
Y121542D01*
X88207D01*
Y121590D01*
X88255D01*
Y121686D01*
X88303D01*
Y121783D01*
X88352D01*
Y121879D01*
X88400D01*
Y121976D01*
X88448D01*
Y122024D01*
X88496D01*
Y122120D01*
X88544D01*
Y122216D01*
X88593D01*
Y122313D01*
X88641D01*
Y122361D01*
X88689D01*
Y122458D01*
X88737D01*
Y122554D01*
X88785D01*
Y122650D01*
X88834D01*
Y122698D01*
X88882D01*
Y122795D01*
X88930D01*
Y122891D01*
X88978D01*
Y122988D01*
X89026D01*
Y123036D01*
X89075D01*
Y123132D01*
X89123D01*
Y123229D01*
X89171D01*
Y123325D01*
X89219D01*
Y123421D01*
X89267D01*
Y123470D01*
X89316D01*
Y123566D01*
X89364D01*
Y123663D01*
X89412D01*
Y123759D01*
X89460D01*
Y123807D01*
X89508D01*
Y123903D01*
X89557D01*
Y123952D01*
G37*
G36*
G01X97076D02*
X99201D01*
Y123754D01*
X99153D01*
Y123417D01*
X99105D01*
Y123079D01*
X99057D01*
Y122694D01*
X99009D01*
Y122356D01*
X98960D01*
Y122019D01*
X98912D01*
Y121633D01*
X98864D01*
Y121296D01*
X98816D01*
Y120959D01*
X98768D01*
Y120573D01*
X98719D01*
Y120236D01*
X98671D01*
Y119850D01*
X98623D01*
Y119512D01*
X98575D01*
Y119175D01*
X98527D01*
Y118789D01*
X98478D01*
Y118500D01*
X96594D01*
Y118602D01*
X96642D01*
Y118939D01*
X96690D01*
Y119228D01*
X96738D01*
Y119565D01*
X96787D01*
Y119855D01*
X96835D01*
Y120192D01*
X96883D01*
Y120481D01*
X96931D01*
Y120819D01*
X96979D01*
Y120910D01*
X94815D01*
Y120717D01*
X94767D01*
Y120380D01*
X94719D01*
Y120043D01*
X94671D01*
Y119705D01*
X94622D01*
Y119368D01*
X94574D01*
Y119031D01*
X94526D01*
Y118693D01*
X94478D01*
Y118500D01*
X92641D01*
Y118794D01*
X92690D01*
Y119132D01*
X92738D01*
Y119469D01*
X92786D01*
Y119807D01*
X92834D01*
Y120144D01*
X92882D01*
Y120481D01*
X92931D01*
Y120819D01*
X92979D01*
Y121156D01*
X93027D01*
Y121493D01*
X93075D01*
Y121831D01*
X93123D01*
Y122168D01*
X93172D01*
Y122506D01*
X93220D01*
Y122843D01*
X93268D01*
Y123180D01*
X93316D01*
Y123518D01*
X93364D01*
Y123658D01*
X93316D01*
Y123706D01*
X93268D01*
Y123754D01*
X93220D01*
Y123802D01*
X93123D01*
Y123850D01*
X93075D01*
Y123899D01*
X92979D01*
Y123952D01*
X95201D01*
Y123610D01*
X95153D01*
Y123224D01*
X95104D01*
Y122887D01*
X95056D01*
Y122501D01*
X95008D01*
Y122164D01*
X94960D01*
Y121831D01*
X97076D01*
Y121927D01*
X97124D01*
Y122265D01*
X97172D01*
Y122602D01*
X97220D01*
Y122891D01*
X97269D01*
Y123229D01*
X97317D01*
Y123610D01*
X97269D01*
Y123706D01*
X97220D01*
Y123754D01*
X97172D01*
Y123802D01*
X97124D01*
Y123899D01*
X97076D01*
Y123952D01*
G37*
G36*
G01X105559Y124000D02*
X110384D01*
Y123802D01*
X110336D01*
Y123465D01*
X110287D01*
Y123127D01*
X110239D01*
Y122790D01*
X110191D01*
Y122453D01*
X110143D01*
Y122115D01*
X110095D01*
Y121730D01*
X110046D01*
Y121392D01*
X109998D01*
Y121055D01*
X109950D01*
Y120717D01*
X109902D01*
Y120380D01*
X109854D01*
Y120043D01*
X109805D01*
Y119705D01*
X109757D01*
Y119368D01*
X109709D01*
Y119079D01*
X109661D01*
Y118934D01*
X109613D01*
Y118838D01*
X109564D01*
Y118741D01*
X109516D01*
Y118693D01*
X109468D01*
Y118645D01*
X109372D01*
Y118597D01*
X109323D01*
Y118548D01*
X109227D01*
Y118500D01*
X104113D01*
Y118650D01*
X104161D01*
Y118987D01*
X104209D01*
Y119324D01*
X104258D01*
Y119710D01*
X104306D01*
Y120048D01*
X104354D01*
Y120385D01*
X104402D01*
Y120722D01*
X104450D01*
Y121060D01*
X104499D01*
Y121397D01*
X104547D01*
Y121735D01*
X104595D01*
Y122120D01*
X104643D01*
Y122458D01*
X104691D01*
Y122795D01*
X104740D01*
Y123132D01*
X104788D01*
Y123421D01*
X104836D01*
Y123518D01*
X104884D01*
Y123614D01*
X104932D01*
Y123663D01*
X104981D01*
Y123711D01*
X105029D01*
Y123807D01*
X105125D01*
Y123855D01*
X105173D01*
Y123903D01*
X105270D01*
Y123952D01*
X105559D01*
Y124000D01*
G37*
G36*
G01X102812Y124048D02*
X103106D01*
Y123947D01*
X103057D01*
Y123610D01*
X103009D01*
Y123272D01*
X102961D01*
Y122935D01*
X102913D01*
Y122597D01*
X102865D01*
Y122260D01*
X102816D01*
Y121922D01*
X102768D01*
Y121585D01*
X102720D01*
Y121200D01*
X102672D01*
Y120862D01*
X102624D01*
Y120525D01*
X102575D01*
Y120187D01*
X102527D01*
Y119850D01*
X102479D01*
Y119512D01*
X102431D01*
Y119175D01*
X102383D01*
Y118838D01*
X102334D01*
Y118500D01*
X100498D01*
Y118842D01*
X100546D01*
Y119180D01*
X100594D01*
Y119517D01*
X100643D01*
Y119855D01*
X100691D01*
Y120192D01*
X100739D01*
Y120529D01*
X100787D01*
Y120867D01*
X100835D01*
Y121204D01*
X100884D01*
Y121542D01*
X100932D01*
Y121879D01*
X100980D01*
Y122265D01*
X101028D01*
Y122602D01*
X101076D01*
Y122790D01*
X100888D01*
Y122742D01*
X100551D01*
Y122694D01*
X100353D01*
Y123036D01*
X100402D01*
Y123373D01*
X100450D01*
Y123711D01*
X100739D01*
Y123759D01*
X101125D01*
Y123807D01*
X101462D01*
Y123855D01*
X101799D01*
Y123903D01*
X102137D01*
Y123952D01*
X102474D01*
Y124000D01*
X102812D01*
Y124048D01*
G37*
G36*
G01X102199Y116346D02*
X105152D01*
Y116203D01*
X105124D01*
Y116006D01*
X105096D01*
Y115809D01*
X105068D01*
Y115613D01*
X105040D01*
Y115416D01*
X105012D01*
Y115219D01*
X104984D01*
Y114994D01*
X104955D01*
Y114798D01*
X104927D01*
Y114601D01*
X104899D01*
Y114404D01*
X104871D01*
Y114208D01*
X104843D01*
Y114011D01*
X104815D01*
Y113786D01*
X104787D01*
Y113589D01*
X104759D01*
Y113449D01*
X104731D01*
Y113393D01*
X104703D01*
Y113337D01*
X104674D01*
Y113308D01*
X104646D01*
Y113280D01*
X104618D01*
Y113252D01*
X104590D01*
Y113224D01*
X104534D01*
Y113196D01*
X104478D01*
Y113168D01*
X101524D01*
Y113367D01*
X101553D01*
Y113564D01*
X101581D01*
Y113761D01*
X101609D01*
Y113986D01*
X101637D01*
Y114182D01*
X101665D01*
Y114379D01*
X101693D01*
Y114576D01*
X101721D01*
Y114772D01*
X101749D01*
Y114969D01*
X101777D01*
Y115194D01*
X101805D01*
Y115391D01*
X101834D01*
Y115587D01*
X101862D01*
Y115784D01*
X101890D01*
Y115981D01*
X101918D01*
Y116065D01*
X101946D01*
Y116149D01*
X101974D01*
Y116177D01*
X102002D01*
Y116206D01*
X102030D01*
Y116234D01*
X102058D01*
Y116262D01*
X102086D01*
Y116290D01*
X102143D01*
Y116318D01*
X102199D01*
Y116346D01*
G37*
G36*
G01X97675Y116374D02*
X100881D01*
Y116259D01*
X100853D01*
Y116062D01*
X100825D01*
Y115866D01*
X100797D01*
Y115641D01*
X100769D01*
Y115444D01*
X100740D01*
Y115247D01*
X100712D01*
Y115051D01*
X100684D01*
Y114854D01*
X100656D01*
Y114657D01*
X100628D01*
Y114461D01*
X100600D01*
Y114432D01*
X98380D01*
Y114404D01*
X98352D01*
Y114208D01*
X98324D01*
Y113983D01*
X98296D01*
Y113786D01*
X98268D01*
Y113705D01*
X100316D01*
Y113733D01*
X100372D01*
Y113761D01*
X100400D01*
Y113789D01*
X100429D01*
Y113817D01*
X100457D01*
Y113845D01*
X100485D01*
Y113873D01*
X100544D01*
Y113842D01*
X100516D01*
Y113646D01*
X100488D01*
Y113449D01*
X100459D01*
Y113252D01*
X100431D01*
Y113168D01*
X97478D01*
Y113196D01*
X97422D01*
Y113224D01*
X97394D01*
Y113252D01*
X97366D01*
Y113280D01*
X97338D01*
Y113308D01*
X97309D01*
Y113365D01*
X97281D01*
Y113648D01*
X97309D01*
Y113845D01*
X97338D01*
Y114042D01*
X97366D01*
Y114239D01*
X97394D01*
Y114435D01*
X97422D01*
Y114632D01*
X97450D01*
Y114829D01*
X97478D01*
Y114969D01*
X99614D01*
Y115053D01*
X99642D01*
Y115250D01*
X99670D01*
Y115447D01*
X99698D01*
Y115644D01*
X99726D01*
Y115837D01*
X98661D01*
Y115641D01*
X98633D01*
Y115416D01*
X98605D01*
Y115388D01*
X97534D01*
Y115419D01*
X97562D01*
Y115615D01*
X97590D01*
Y115812D01*
X97619D01*
Y116009D01*
X97647D01*
Y116206D01*
X97675D01*
Y116374D01*
G37*
G36*
G01X106189D02*
X109395D01*
Y116287D01*
X109367D01*
Y116090D01*
X109339D01*
Y115894D01*
X109311D01*
Y115697D01*
X109283D01*
Y115472D01*
X109255D01*
Y115275D01*
X109227D01*
Y115079D01*
X109199D01*
Y114882D01*
X109170D01*
Y114685D01*
X109142D01*
Y114489D01*
X109114D01*
Y114432D01*
X106866D01*
Y114236D01*
X106838D01*
Y114039D01*
X106810D01*
Y113814D01*
X106782D01*
Y113705D01*
X108830D01*
Y113733D01*
X108859D01*
Y113761D01*
X108887D01*
Y113789D01*
X108943D01*
Y113817D01*
X108971D01*
Y113845D01*
X109030D01*
Y113674D01*
X109002D01*
Y113477D01*
X108974D01*
Y113280D01*
X108946D01*
Y113168D01*
X105964D01*
Y113196D01*
X105936D01*
Y113224D01*
X105880D01*
Y113252D01*
X105852D01*
Y113308D01*
X105824D01*
Y113365D01*
X105796D01*
Y113648D01*
X105824D01*
Y113873D01*
X105852D01*
Y114070D01*
X105880D01*
Y114267D01*
X105908D01*
Y114463D01*
X105936D01*
Y114660D01*
X105964D01*
Y114857D01*
X105992D01*
Y114969D01*
X108128D01*
Y115082D01*
X108156D01*
Y115278D01*
X108184D01*
Y115475D01*
X108212D01*
Y115672D01*
X108240D01*
Y115837D01*
X107175D01*
Y115697D01*
X107147D01*
Y115444D01*
X107119D01*
Y115388D01*
X106049D01*
Y115447D01*
X106077D01*
Y115644D01*
X106105D01*
Y115840D01*
X106133D01*
Y116037D01*
X106161D01*
Y116234D01*
X106189D01*
Y116374D01*
G37*
G36*
G01X111584Y121204D02*
X114866D01*
Y120959D01*
X114818D01*
Y120669D01*
X114770D01*
Y120380D01*
X114722D01*
Y120236D01*
X111439D01*
Y120433D01*
X111488D01*
Y120722D01*
X111536D01*
Y121060D01*
X111584D01*
Y121204D01*
G37*
G36*
G01X121610Y123952D02*
X123591D01*
Y123899D01*
X123542D01*
Y123561D01*
X123494D01*
Y123224D01*
X123446D01*
Y122838D01*
X123398D01*
Y122501D01*
X123350D01*
Y122115D01*
X123301D01*
Y121778D01*
X123253D01*
Y121440D01*
X123205D01*
Y121055D01*
X123157D01*
Y120717D01*
X123109D01*
Y120380D01*
X123060D01*
Y119994D01*
X123012D01*
Y119657D01*
X122964D01*
Y119320D01*
X122916D01*
Y118934D01*
X122868D01*
Y118597D01*
X122819D01*
Y118500D01*
X121176D01*
Y118746D01*
X121224D01*
Y119035D01*
X121272D01*
Y119373D01*
X121320D01*
Y119662D01*
X121369D01*
Y119951D01*
X121417D01*
Y120240D01*
X121465D01*
Y120529D01*
X121513D01*
Y120867D01*
X121561D01*
Y121156D01*
X121610D01*
Y121296D01*
X121566D01*
Y121200D01*
X121518D01*
Y121103D01*
X121470D01*
Y121055D01*
X121422D01*
Y120959D01*
X121373D01*
Y120862D01*
X121325D01*
Y120814D01*
X121277D01*
Y120717D01*
X121229D01*
Y120621D01*
X121181D01*
Y120573D01*
X121132D01*
Y120476D01*
X121084D01*
Y120380D01*
X121036D01*
Y120332D01*
X120988D01*
Y120236D01*
X120940D01*
Y120139D01*
X120891D01*
Y120043D01*
X120843D01*
Y119994D01*
X120795D01*
Y119898D01*
X120747D01*
Y119802D01*
X120699D01*
Y119754D01*
X120650D01*
Y119657D01*
X120602D01*
Y119561D01*
X120554D01*
Y119512D01*
X120506D01*
Y119416D01*
X120458D01*
Y119320D01*
X120409D01*
Y119223D01*
X120361D01*
Y119175D01*
X120313D01*
Y119079D01*
X120265D01*
Y118982D01*
X120217D01*
Y118934D01*
X120168D01*
Y118838D01*
X118669D01*
Y118886D01*
X118621D01*
Y119031D01*
X118573D01*
Y119175D01*
X118525D01*
Y119368D01*
X118477D01*
Y119512D01*
X118428D01*
Y119657D01*
X118380D01*
Y119802D01*
X118332D01*
Y119994D01*
X118284D01*
Y120139D01*
X118236D01*
Y120284D01*
X118187D01*
Y120428D01*
X118139D01*
Y120621D01*
X118091D01*
Y120766D01*
X118043D01*
Y120910D01*
X117995D01*
Y121055D01*
X117946D01*
Y121248D01*
X117903D01*
Y120910D01*
X117855D01*
Y120573D01*
X117807D01*
Y120187D01*
X117758D01*
Y119850D01*
X117710D01*
Y119464D01*
X117662D01*
Y119127D01*
X117614D01*
Y118741D01*
X117566D01*
Y118500D01*
X115874D01*
Y118602D01*
X115922D01*
Y118939D01*
X115970D01*
Y119228D01*
X116018D01*
Y119565D01*
X116067D01*
Y119903D01*
X116115D01*
Y120240D01*
X116163D01*
Y120578D01*
X116211D01*
Y120915D01*
X116259D01*
Y121253D01*
X116308D01*
Y121542D01*
X116356D01*
Y121879D01*
X116404D01*
Y122216D01*
X116452D01*
Y122554D01*
X116500D01*
Y122891D01*
X116549D01*
Y123229D01*
X116597D01*
Y123610D01*
X116549D01*
Y123658D01*
X116500D01*
Y123706D01*
X116452D01*
Y123754D01*
X116404D01*
Y123802D01*
X116356D01*
Y123850D01*
X116308D01*
Y123899D01*
X116259D01*
Y123952D01*
X118674D01*
Y123807D01*
X118722D01*
Y123663D01*
X118771D01*
Y123470D01*
X118819D01*
Y123325D01*
X118867D01*
Y123180D01*
X118915D01*
Y122988D01*
X118963D01*
Y122843D01*
X119012D01*
Y122698D01*
X119060D01*
Y122506D01*
X119108D01*
Y122361D01*
X119156D01*
Y122216D01*
X119204D01*
Y122024D01*
X119253D01*
Y121879D01*
X119301D01*
Y121735D01*
X119349D01*
Y121542D01*
X119397D01*
Y121397D01*
X119445D01*
Y121253D01*
X119494D01*
Y121060D01*
X119542D01*
Y120915D01*
X119590D01*
Y120770D01*
X119638D01*
Y120578D01*
X119730D01*
Y120626D01*
X119778D01*
Y120722D01*
X119826D01*
Y120819D01*
X119874D01*
Y120915D01*
X119923D01*
Y120963D01*
X119971D01*
Y121060D01*
X120019D01*
Y121156D01*
X120067D01*
Y121253D01*
X120115D01*
Y121349D01*
X120164D01*
Y121397D01*
X120212D01*
Y121493D01*
X120260D01*
Y121590D01*
X120308D01*
Y121686D01*
X120356D01*
Y121735D01*
X120405D01*
Y121831D01*
X120453D01*
Y121927D01*
X120501D01*
Y122024D01*
X120549D01*
Y122072D01*
X120597D01*
Y122168D01*
X120646D01*
Y122265D01*
X120694D01*
Y122361D01*
X120742D01*
Y122409D01*
X120790D01*
Y122506D01*
X120838D01*
Y122602D01*
X120887D01*
Y122698D01*
X120935D01*
Y122795D01*
X120983D01*
Y122843D01*
X121031D01*
Y122940D01*
X121079D01*
Y123036D01*
X121128D01*
Y123132D01*
X121176D01*
Y123180D01*
X121224D01*
Y123277D01*
X121272D01*
Y123373D01*
X121320D01*
Y123470D01*
X121369D01*
Y123518D01*
X121417D01*
Y123614D01*
X121465D01*
Y123711D01*
X121513D01*
Y123807D01*
X121561D01*
Y123855D01*
X121610D01*
Y123952D01*
G37*
G36*
G01X126912Y124000D02*
X127495D01*
Y123850D01*
X127447D01*
Y123513D01*
X127398D01*
Y123176D01*
X127350D01*
Y122838D01*
X127302D01*
Y122501D01*
X127254D01*
Y122115D01*
X127206D01*
Y121778D01*
X127157D01*
Y121440D01*
X127109D01*
Y121103D01*
X127061D01*
Y120766D01*
X127013D01*
Y120428D01*
X126965D01*
Y120091D01*
X126916D01*
Y119705D01*
X126868D01*
Y119368D01*
X126820D01*
Y119031D01*
X126772D01*
Y118693D01*
X126724D01*
Y118500D01*
X124887D01*
Y118698D01*
X124935D01*
Y119035D01*
X124984D01*
Y119373D01*
X125032D01*
Y119710D01*
X125080D01*
Y120048D01*
X125128D01*
Y120385D01*
X125176D01*
Y120722D01*
X125225D01*
Y121108D01*
X125273D01*
Y121445D01*
X125321D01*
Y121783D01*
X125369D01*
Y122120D01*
X125417D01*
Y122458D01*
X125466D01*
Y122790D01*
X125278D01*
Y122742D01*
X124940D01*
Y122694D01*
X124743D01*
Y122891D01*
X124791D01*
Y123229D01*
X124839D01*
Y123566D01*
X124887D01*
Y123711D01*
X125176D01*
Y123759D01*
X125514D01*
Y123807D01*
X125851D01*
Y123855D01*
X126189D01*
Y123903D01*
X126526D01*
Y123952D01*
X126912D01*
Y124000D01*
G37*
G36*
G01X129948D02*
X134773D01*
Y123658D01*
X134725D01*
Y123320D01*
X134677D01*
Y122983D01*
X134628D01*
Y122645D01*
X134580D01*
Y122308D01*
X134532D01*
Y121971D01*
X134484D01*
Y121633D01*
X134436D01*
Y121296D01*
X134387D01*
Y120959D01*
X134339D01*
Y120621D01*
X134291D01*
Y120284D01*
X134243D01*
Y119898D01*
X134195D01*
Y119561D01*
X134146D01*
Y119223D01*
X134098D01*
Y118982D01*
X134050D01*
Y118886D01*
X134002D01*
Y118789D01*
X133954D01*
Y118741D01*
X133905D01*
Y118693D01*
X133857D01*
Y118645D01*
X133809D01*
Y118597D01*
X133713D01*
Y118548D01*
X133616D01*
Y118500D01*
X128550D01*
Y118891D01*
X128599D01*
Y119228D01*
X128647D01*
Y119565D01*
X128695D01*
Y119903D01*
X128743D01*
Y120240D01*
X128791D01*
Y120578D01*
X128840D01*
Y120915D01*
X128888D01*
Y121301D01*
X128936D01*
Y121638D01*
X128984D01*
Y121976D01*
X129032D01*
Y122313D01*
X129081D01*
Y122650D01*
X129129D01*
Y122988D01*
X129177D01*
Y123325D01*
X129225D01*
Y123470D01*
X129273D01*
Y123566D01*
X129322D01*
Y123663D01*
X129370D01*
Y123711D01*
X129418D01*
Y123759D01*
X129466D01*
Y123807D01*
X129514D01*
Y123855D01*
X129611D01*
Y123903D01*
X129707D01*
Y123952D01*
X129948D01*
Y124000D01*
G37*
G36*
G01X114085Y114744D02*
X115999D01*
Y114601D01*
X115971D01*
Y114432D01*
X115943D01*
Y114264D01*
X115914D01*
Y114180D01*
X114001D01*
Y114295D01*
X114029D01*
Y114463D01*
X114057D01*
Y114660D01*
X114085D01*
Y114744D01*
G37*
G36*
G01X125157D02*
X127098D01*
Y114685D01*
X127070D01*
Y114517D01*
X127042D01*
Y114348D01*
X127014D01*
Y114180D01*
X125072D01*
Y114210D01*
X125100D01*
Y114379D01*
X125128D01*
Y114548D01*
X125157D01*
Y114744D01*
G37*
G36*
G01X112034Y116346D02*
X113301D01*
Y116203D01*
X113273D01*
Y116006D01*
X113245D01*
Y115809D01*
X113217D01*
Y115613D01*
X113189D01*
Y115416D01*
X113161D01*
Y115219D01*
X113133D01*
Y115023D01*
X113104D01*
Y114798D01*
X113076D01*
Y114601D01*
X113048D01*
Y114404D01*
X113020D01*
Y114323D01*
X113442D01*
Y114180D01*
X113414D01*
Y113983D01*
X113385D01*
Y113786D01*
X112936D01*
Y113618D01*
X112908D01*
Y113393D01*
X112880D01*
Y113196D01*
X112852D01*
Y113168D01*
X111781D01*
Y113199D01*
X111809D01*
Y113396D01*
X111837D01*
Y113620D01*
X111865D01*
Y113786D01*
X109954D01*
Y113845D01*
X109983D01*
Y114042D01*
X110011D01*
Y114267D01*
X110039D01*
Y114379D01*
X110067D01*
Y114491D01*
X110095D01*
Y114576D01*
X110123D01*
Y114660D01*
X110151D01*
Y114772D01*
X110179D01*
Y114857D01*
X110207D01*
Y114941D01*
X110235D01*
Y115053D01*
X110264D01*
Y115138D01*
X110292D01*
Y115222D01*
X110320D01*
Y115334D01*
X110348D01*
Y115419D01*
X110376D01*
Y115503D01*
X110404D01*
Y115615D01*
X110432D01*
Y115700D01*
X110460D01*
Y115784D01*
X110488D01*
Y115896D01*
X110516D01*
Y115981D01*
X110545D01*
Y116065D01*
X110573D01*
Y116177D01*
X110601D01*
Y116231D01*
X110573D01*
Y116259D01*
X110545D01*
Y116287D01*
X110516D01*
Y116315D01*
X110488D01*
Y116346D01*
X111699D01*
Y116287D01*
X111671D01*
Y116175D01*
X111643D01*
Y116090D01*
X111615D01*
Y115978D01*
X111587D01*
Y115894D01*
X111559D01*
Y115781D01*
X111531D01*
Y115697D01*
X111503D01*
Y115585D01*
X111475D01*
Y115500D01*
X111447D01*
Y115416D01*
X111418D01*
Y115304D01*
X111390D01*
Y115219D01*
X111362D01*
Y115107D01*
X111334D01*
Y115023D01*
X111306D01*
Y114910D01*
X111278D01*
Y114826D01*
X111250D01*
Y114713D01*
X111222D01*
Y114629D01*
X111194D01*
Y114517D01*
X111166D01*
Y114432D01*
X111137D01*
Y114323D01*
X111950D01*
Y114407D01*
X111978D01*
Y114604D01*
X112006D01*
Y114801D01*
X112034D01*
Y114997D01*
X112062D01*
Y115194D01*
X112090D01*
Y115391D01*
X112118D01*
Y115615D01*
X112146D01*
Y115812D01*
X112174D01*
Y116009D01*
X112202D01*
Y116175D01*
X112174D01*
Y116203D01*
X112146D01*
Y116231D01*
X112118D01*
Y116259D01*
X112090D01*
Y116287D01*
X112062D01*
Y116315D01*
X112034D01*
Y116346D01*
G37*
G36*
G01X117289D02*
X120242D01*
Y116259D01*
X120214D01*
Y116062D01*
X120186D01*
Y115866D01*
X120158D01*
Y115669D01*
X120129D01*
Y115444D01*
X120101D01*
Y115247D01*
X120073D01*
Y115051D01*
X120045D01*
Y114854D01*
X120017D01*
Y114657D01*
X119989D01*
Y114461D01*
X119961D01*
Y114264D01*
X119933D01*
Y114039D01*
X119905D01*
Y113842D01*
X119877D01*
Y113646D01*
X119848D01*
Y113477D01*
X119820D01*
Y113421D01*
X119792D01*
Y113365D01*
X119764D01*
Y113308D01*
X119736D01*
Y113280D01*
X119708D01*
Y113252D01*
X119652D01*
Y113224D01*
X119624D01*
Y113196D01*
X119567D01*
Y113168D01*
X116586D01*
Y113227D01*
X116614D01*
Y113424D01*
X116642D01*
Y113620D01*
X116670D01*
Y113845D01*
X116698D01*
Y114042D01*
X116727D01*
Y114239D01*
X116755D01*
Y114435D01*
X116783D01*
Y114632D01*
X116811D01*
Y114829D01*
X116839D01*
Y115053D01*
X116867D01*
Y115250D01*
X116895D01*
Y115447D01*
X116923D01*
Y115644D01*
X116951D01*
Y115840D01*
X116979D01*
Y116009D01*
X117008D01*
Y116093D01*
X117036D01*
Y116149D01*
X117064D01*
Y116177D01*
X117092D01*
Y116206D01*
X117120D01*
Y116234D01*
X117148D01*
Y116262D01*
X117176D01*
Y116290D01*
X117232D01*
Y116318D01*
X117289D01*
Y116346D01*
G37*
G36*
G01X128360D02*
X131313D01*
Y116175D01*
X131285D01*
Y115950D01*
X131257D01*
Y115753D01*
X131229D01*
Y115556D01*
X131201D01*
Y115360D01*
X131173D01*
Y115163D01*
X131145D01*
Y114966D01*
X131117D01*
Y114742D01*
X131088D01*
Y114545D01*
X131060D01*
Y114348D01*
X131032D01*
Y114151D01*
X131004D01*
Y113955D01*
X130976D01*
Y113758D01*
X130948D01*
Y113561D01*
X130920D01*
Y113449D01*
X130892D01*
Y113393D01*
X130864D01*
Y113337D01*
X130836D01*
Y113308D01*
X130807D01*
Y113280D01*
X130779D01*
Y113252D01*
X130751D01*
Y113224D01*
X130695D01*
Y113196D01*
X130639D01*
Y113168D01*
X127686D01*
Y113311D01*
X127714D01*
Y113508D01*
X127742D01*
Y113733D01*
X127770D01*
Y113929D01*
X127798D01*
Y114126D01*
X127826D01*
Y114323D01*
X127854D01*
Y114520D01*
X127882D01*
Y114716D01*
X127910D01*
Y114941D01*
X127938D01*
Y115138D01*
X127967D01*
Y115334D01*
X127995D01*
Y115531D01*
X128023D01*
Y115728D01*
X128051D01*
Y115925D01*
X128079D01*
Y116065D01*
X128107D01*
Y116121D01*
X128135D01*
Y116177D01*
X128163D01*
Y116206D01*
X128191D01*
Y116234D01*
X128219D01*
Y116262D01*
X128248D01*
Y116290D01*
X128304D01*
Y116318D01*
X128360D01*
Y116346D01*
G37*
G36*
G01X121279Y116374D02*
X124485D01*
Y116343D01*
X124457D01*
Y116147D01*
X124429D01*
Y115950D01*
X124401D01*
Y115753D01*
X124373D01*
Y115528D01*
X124344D01*
Y115332D01*
X124316D01*
Y115135D01*
X124288D01*
Y114938D01*
X124260D01*
Y114742D01*
X124232D01*
Y114545D01*
X124204D01*
Y114432D01*
X121956D01*
Y114292D01*
X121928D01*
Y114095D01*
X121900D01*
Y113870D01*
X121872D01*
Y113705D01*
X123920D01*
Y113733D01*
X123948D01*
Y113761D01*
X123976D01*
Y113789D01*
X124004D01*
Y113817D01*
X124033D01*
Y113845D01*
X124120D01*
Y113730D01*
X124092D01*
Y113533D01*
X124063D01*
Y113337D01*
X124035D01*
Y113168D01*
X121054D01*
Y113196D01*
X120998D01*
Y113224D01*
X120970D01*
Y113252D01*
X120942D01*
Y113280D01*
X120913D01*
Y113337D01*
X120885D01*
Y113449D01*
X120857D01*
Y113508D01*
X120885D01*
Y113733D01*
X120913D01*
Y113929D01*
X120942D01*
Y114126D01*
X120970D01*
Y114323D01*
X120998D01*
Y114520D01*
X121026D01*
Y114716D01*
X121054D01*
Y114913D01*
X121082D01*
Y114969D01*
X123218D01*
Y115138D01*
X123246D01*
Y115334D01*
X123274D01*
Y115531D01*
X123302D01*
Y115728D01*
X123330D01*
Y115837D01*
X122265D01*
Y115753D01*
X122237D01*
Y115528D01*
X122209D01*
Y115388D01*
X121138D01*
Y115503D01*
X121166D01*
Y115700D01*
X121194D01*
Y115896D01*
X121223D01*
Y116093D01*
X121251D01*
Y116318D01*
X121279D01*
Y116374D01*
G37*
G36*
G01X133249D02*
X133589D01*
Y116287D01*
X133561D01*
Y116090D01*
X133533D01*
Y115866D01*
X133505D01*
Y115669D01*
X133477D01*
Y115472D01*
X133449D01*
Y115275D01*
X133421D01*
Y115079D01*
X133393D01*
Y114882D01*
X133365D01*
Y114685D01*
X133336D01*
Y114461D01*
X133308D01*
Y114264D01*
X133280D01*
Y114067D01*
X133252D01*
Y113870D01*
X133224D01*
Y113674D01*
X133196D01*
Y113477D01*
X133168D01*
Y113280D01*
X133140D01*
Y113168D01*
X132069D01*
Y113283D01*
X132097D01*
Y113480D01*
X132125D01*
Y113677D01*
X132153D01*
Y113873D01*
X132182D01*
Y114070D01*
X132210D01*
Y114267D01*
X132238D01*
Y114463D01*
X132266D01*
Y114660D01*
X132294D01*
Y114885D01*
X132322D01*
Y115082D01*
X132350D01*
Y115278D01*
X132378D01*
Y115475D01*
X132406D01*
Y115669D01*
X132297D01*
Y115641D01*
X132100D01*
Y115613D01*
X131985D01*
Y115728D01*
X132013D01*
Y115925D01*
X132041D01*
Y116121D01*
X132069D01*
Y116206D01*
X132238D01*
Y116234D01*
X132434D01*
Y116262D01*
X132631D01*
Y116290D01*
X132828D01*
Y116318D01*
X133025D01*
Y116346D01*
X133249D01*
Y116374D01*
G37*
G36*
G01X180756Y46857D02*
X182560D01*
Y46826D01*
X182546D01*
Y46677D01*
X182531D01*
Y46587D01*
X181264D01*
Y46468D01*
X181249D01*
Y46349D01*
X181234D01*
Y46244D01*
X181219D01*
Y46125D01*
X181204D01*
Y46006D01*
X181190D01*
Y45887D01*
X181175D01*
Y45783D01*
X181160D01*
Y45663D01*
X181145D01*
Y45544D01*
X181130D01*
Y45471D01*
X182261D01*
Y45486D01*
X182276D01*
Y45501D01*
X182291D01*
Y45516D01*
X182306D01*
Y45531D01*
X182335D01*
Y45546D01*
X182350D01*
Y45561D01*
X182382D01*
Y45500D01*
X182366D01*
Y45395D01*
X182352D01*
Y45291D01*
X182337D01*
Y45187D01*
X180652D01*
Y45202D01*
X180622D01*
Y45217D01*
X180592D01*
Y45232D01*
X180577D01*
Y45261D01*
X180562D01*
Y45291D01*
X180547D01*
Y45382D01*
X180562D01*
Y45501D01*
X180577D01*
Y45606D01*
X180592D01*
Y45724D01*
X180607D01*
Y45829D01*
X180622D01*
Y45948D01*
X180637D01*
Y46052D01*
X180652D01*
Y46172D01*
X180666D01*
Y46276D01*
X180682D01*
Y46395D01*
X180696D01*
Y46499D01*
X180711D01*
Y46604D01*
X180726D01*
Y46723D01*
X180741D01*
Y46827D01*
X180756D01*
Y46857D01*
G37*
G36*
G01X177329Y46872D02*
X177897D01*
Y46841D01*
X177882D01*
Y46811D01*
X177867D01*
Y46781D01*
X177852D01*
Y46751D01*
X177837D01*
Y46721D01*
X177822D01*
Y46692D01*
X177807D01*
Y46647D01*
X177792D01*
Y46617D01*
X177778D01*
Y46587D01*
X177763D01*
Y46558D01*
X177748D01*
Y46528D01*
X177733D01*
Y46498D01*
X177718D01*
Y46468D01*
X177703D01*
Y46438D01*
X177688D01*
Y46408D01*
X177673D01*
Y46364D01*
X177658D01*
Y46334D01*
X177643D01*
Y46304D01*
X177628D01*
Y46274D01*
X177613D01*
Y46244D01*
X177599D01*
Y46215D01*
X177584D01*
Y46185D01*
X177569D01*
Y46155D01*
X177554D01*
Y46125D01*
X177539D01*
Y46081D01*
X177524D01*
Y46051D01*
X177509D01*
Y46021D01*
X177494D01*
Y45991D01*
X177480D01*
Y45961D01*
X177465D01*
Y45932D01*
X177450D01*
Y45902D01*
X177435D01*
Y45872D01*
X177420D01*
Y45842D01*
X177405D01*
Y45798D01*
X177390D01*
Y45768D01*
X177375D01*
Y45738D01*
X177360D01*
Y45708D01*
X177345D01*
Y45678D01*
X177330D01*
Y45648D01*
X177316D01*
Y45619D01*
X177301D01*
Y45589D01*
X177286D01*
Y45559D01*
X177271D01*
Y45515D01*
X177256D01*
Y45485D01*
X177241D01*
Y45455D01*
X177226D01*
Y45425D01*
X177211D01*
Y45395D01*
X177196D01*
Y45365D01*
X177182D01*
Y45336D01*
X177166D01*
Y45306D01*
X177152D01*
Y45276D01*
X177137D01*
Y45232D01*
X177122D01*
Y45202D01*
X177107D01*
Y45187D01*
X176301D01*
Y45202D01*
X176286D01*
Y45276D01*
X176271D01*
Y45350D01*
X176256D01*
Y45425D01*
X176241D01*
Y45500D01*
X176226D01*
Y45574D01*
X176211D01*
Y45663D01*
X176196D01*
Y45738D01*
X176182D01*
Y45813D01*
X176167D01*
Y45887D01*
X176152D01*
Y45961D01*
X176137D01*
Y46036D01*
X176122D01*
Y46111D01*
X176107D01*
Y46185D01*
X176092D01*
Y46259D01*
X176078D01*
Y46334D01*
X176063D01*
Y46408D01*
X176048D01*
Y46483D01*
X176033D01*
Y46558D01*
X176018D01*
Y46647D01*
X176003D01*
Y46721D01*
X175988D01*
Y46781D01*
X175973D01*
Y46811D01*
X175958D01*
Y46826D01*
X175943D01*
Y46856D01*
X175928D01*
Y46872D01*
X176526D01*
Y46842D01*
X176541D01*
Y46768D01*
X176556D01*
Y46693D01*
X176570D01*
Y46618D01*
X176585D01*
Y46544D01*
X176600D01*
Y46470D01*
X176615D01*
Y46380D01*
X176630D01*
Y46306D01*
X176645D01*
Y46231D01*
X176660D01*
Y46157D01*
X176675D01*
Y46082D01*
X176690D01*
Y45993D01*
X176705D01*
Y45918D01*
X176720D01*
Y45844D01*
X176735D01*
Y45769D01*
X176749D01*
Y45695D01*
X176763D01*
Y45724D01*
X176778D01*
Y45754D01*
X176792D01*
Y45784D01*
X176808D01*
Y45814D01*
X176822D01*
Y45844D01*
X176837D01*
Y45874D01*
X176852D01*
Y45918D01*
X176867D01*
Y45948D01*
X176882D01*
Y45978D01*
X176897D01*
Y46008D01*
X176912D01*
Y46037D01*
X176927D01*
Y46067D01*
X176942D01*
Y46097D01*
X176956D01*
Y46127D01*
X176971D01*
Y46157D01*
X176986D01*
Y46187D01*
X177001D01*
Y46216D01*
X177016D01*
Y46246D01*
X177031D01*
Y46276D01*
X177046D01*
Y46306D01*
X177061D01*
Y46335D01*
X177076D01*
Y46365D01*
X177091D01*
Y46395D01*
X177106D01*
Y46425D01*
X177120D01*
Y46455D01*
X177135D01*
Y46484D01*
X177150D01*
Y46529D01*
X177165D01*
Y46559D01*
X177180D01*
Y46589D01*
X177195D01*
Y46618D01*
X177210D01*
Y46648D01*
X177225D01*
Y46678D01*
X177240D01*
Y46708D01*
X177254D01*
Y46738D01*
X177269D01*
Y46768D01*
X177284D01*
Y46797D01*
X177299D01*
Y46827D01*
X177314D01*
Y46857D01*
X177329D01*
Y46872D01*
G37*
G36*
G01X178416D02*
X180221D01*
Y46736D01*
X180206D01*
Y46587D01*
X178940D01*
Y46513D01*
X178925D01*
Y46394D01*
X178910D01*
Y46289D01*
X178895D01*
Y46170D01*
X178880D01*
Y46051D01*
X178865D01*
Y45932D01*
X178850D01*
Y45813D01*
X178835D01*
Y45708D01*
X178820D01*
Y45589D01*
X178806D01*
Y45471D01*
X179922D01*
Y45486D01*
X179952D01*
Y45501D01*
X179966D01*
Y45516D01*
X179981D01*
Y45531D01*
X179996D01*
Y45546D01*
X180026D01*
Y45561D01*
X180057D01*
Y45544D01*
X180042D01*
Y45440D01*
X180028D01*
Y45336D01*
X180013D01*
Y45232D01*
X179998D01*
Y45187D01*
X178312D01*
Y45202D01*
X178283D01*
Y45217D01*
X178268D01*
Y45232D01*
X178253D01*
Y45246D01*
X178238D01*
Y45276D01*
X178223D01*
Y45426D01*
X178238D01*
Y45546D01*
X178253D01*
Y45650D01*
X178268D01*
Y45769D01*
X178283D01*
Y45874D01*
X178298D01*
Y45978D01*
X178312D01*
Y46097D01*
X178327D01*
Y46201D01*
X178342D01*
Y46320D01*
X178357D01*
Y46425D01*
X178372D01*
Y46544D01*
X178387D01*
Y46648D01*
X178402D01*
Y46768D01*
X178416D01*
Y46872D01*
G37*
G36*
G01X180666Y43499D02*
X182470D01*
Y43467D01*
X182456D01*
Y43318D01*
X182441D01*
Y43229D01*
X181174D01*
Y43110D01*
X181159D01*
Y42991D01*
X181144D01*
Y42886D01*
X181130D01*
Y42767D01*
X181115D01*
Y42648D01*
X181100D01*
Y42529D01*
X181085D01*
Y42424D01*
X181070D01*
Y42305D01*
X181055D01*
Y42186D01*
X181040D01*
Y42113D01*
X182171D01*
Y42128D01*
X182186D01*
Y42143D01*
X182201D01*
Y42158D01*
X182216D01*
Y42173D01*
X182246D01*
Y42187D01*
X182260D01*
Y42202D01*
X182292D01*
Y42141D01*
X182277D01*
Y42037D01*
X182262D01*
Y41933D01*
X182247D01*
Y41828D01*
X180562D01*
Y41843D01*
X180532D01*
Y41858D01*
X180502D01*
Y41873D01*
X180487D01*
Y41903D01*
X180472D01*
Y41933D01*
X180458D01*
Y42024D01*
X180472D01*
Y42143D01*
X180487D01*
Y42247D01*
X180502D01*
Y42366D01*
X180517D01*
Y42470D01*
X180532D01*
Y42590D01*
X180547D01*
Y42694D01*
X180562D01*
Y42813D01*
X180577D01*
Y42918D01*
X180592D01*
Y43037D01*
X180606D01*
Y43141D01*
X180621D01*
Y43245D01*
X180636D01*
Y43365D01*
X180651D01*
Y43469D01*
X180666D01*
Y43499D01*
G37*
G36*
G01X177239Y43514D02*
X177807D01*
Y43482D01*
X177792D01*
Y43452D01*
X177777D01*
Y43423D01*
X177762D01*
Y43393D01*
X177747D01*
Y43363D01*
X177732D01*
Y43334D01*
X177717D01*
Y43289D01*
X177702D01*
Y43259D01*
X177687D01*
Y43229D01*
X177673D01*
Y43199D01*
X177658D01*
Y43169D01*
X177643D01*
Y43140D01*
X177628D01*
Y43110D01*
X177613D01*
Y43080D01*
X177598D01*
Y43050D01*
X177584D01*
Y43006D01*
X177568D01*
Y42976D01*
X177554D01*
Y42946D01*
X177539D01*
Y42916D01*
X177524D01*
Y42886D01*
X177509D01*
Y42857D01*
X177494D01*
Y42827D01*
X177479D01*
Y42797D01*
X177464D01*
Y42767D01*
X177449D01*
Y42722D01*
X177434D01*
Y42692D01*
X177419D01*
Y42663D01*
X177404D01*
Y42633D01*
X177390D01*
Y42603D01*
X177375D01*
Y42574D01*
X177360D01*
Y42544D01*
X177345D01*
Y42514D01*
X177330D01*
Y42484D01*
X177315D01*
Y42439D01*
X177300D01*
Y42409D01*
X177285D01*
Y42380D01*
X177270D01*
Y42350D01*
X177256D01*
Y42320D01*
X177241D01*
Y42290D01*
X177226D01*
Y42261D01*
X177211D01*
Y42231D01*
X177196D01*
Y42201D01*
X177181D01*
Y42156D01*
X177166D01*
Y42126D01*
X177151D01*
Y42096D01*
X177136D01*
Y42067D01*
X177121D01*
Y42037D01*
X177106D01*
Y42007D01*
X177092D01*
Y41978D01*
X177077D01*
Y41948D01*
X177062D01*
Y41918D01*
X177047D01*
Y41873D01*
X177032D01*
Y41843D01*
X177017D01*
Y41828D01*
X176211D01*
Y41843D01*
X176196D01*
Y41918D01*
X176181D01*
Y41992D01*
X176166D01*
Y42067D01*
X176152D01*
Y42141D01*
X176137D01*
Y42216D01*
X176122D01*
Y42305D01*
X176107D01*
Y42380D01*
X176092D01*
Y42454D01*
X176077D01*
Y42529D01*
X176062D01*
Y42603D01*
X176047D01*
Y42678D01*
X176032D01*
Y42752D01*
X176017D01*
Y42827D01*
X176002D01*
Y42901D01*
X175987D01*
Y42976D01*
X175972D01*
Y43050D01*
X175958D01*
Y43125D01*
X175943D01*
Y43199D01*
X175928D01*
Y43289D01*
X175913D01*
Y43363D01*
X175898D01*
Y43423D01*
X175883D01*
Y43452D01*
X175868D01*
Y43467D01*
X175854D01*
Y43497D01*
X175839D01*
Y43514D01*
X176436D01*
Y43484D01*
X176451D01*
Y43409D01*
X176466D01*
Y43335D01*
X176481D01*
Y43260D01*
X176496D01*
Y43186D01*
X176511D01*
Y43111D01*
X176525D01*
Y43022D01*
X176540D01*
Y42948D01*
X176555D01*
Y42873D01*
X176570D01*
Y42798D01*
X176585D01*
Y42724D01*
X176600D01*
Y42635D01*
X176615D01*
Y42560D01*
X176630D01*
Y42485D01*
X176644D01*
Y42411D01*
X176659D01*
Y42337D01*
X176673D01*
Y42366D01*
X176688D01*
Y42396D01*
X176703D01*
Y42426D01*
X176718D01*
Y42456D01*
X176732D01*
Y42485D01*
X176747D01*
Y42515D01*
X176762D01*
Y42560D01*
X176777D01*
Y42590D01*
X176792D01*
Y42620D01*
X176807D01*
Y42650D01*
X176822D01*
Y42679D01*
X176837D01*
Y42709D01*
X176852D01*
Y42739D01*
X176866D01*
Y42769D01*
X176882D01*
Y42798D01*
X176896D01*
Y42828D01*
X176911D01*
Y42858D01*
X176926D01*
Y42888D01*
X176941D01*
Y42918D01*
X176956D01*
Y42948D01*
X176971D01*
Y42977D01*
X176986D01*
Y43007D01*
X177001D01*
Y43037D01*
X177016D01*
Y43066D01*
X177030D01*
Y43096D01*
X177045D01*
Y43126D01*
X177060D01*
Y43171D01*
X177075D01*
Y43201D01*
X177090D01*
Y43231D01*
X177105D01*
Y43260D01*
X177120D01*
Y43290D01*
X177135D01*
Y43320D01*
X177150D01*
Y43350D01*
X177165D01*
Y43380D01*
X177180D01*
Y43409D01*
X177194D01*
Y43439D01*
X177209D01*
Y43469D01*
X177224D01*
Y43499D01*
X177239D01*
Y43514D01*
G37*
G36*
G01X178327D02*
X180131D01*
Y43378D01*
X180116D01*
Y43229D01*
X178850D01*
Y43155D01*
X178835D01*
Y43035D01*
X178820D01*
Y42931D01*
X178805D01*
Y42812D01*
X178790D01*
Y42692D01*
X178775D01*
Y42574D01*
X178760D01*
Y42454D01*
X178746D01*
Y42350D01*
X178731D01*
Y42231D01*
X178716D01*
Y42113D01*
X179832D01*
Y42128D01*
X179861D01*
Y42143D01*
X179876D01*
Y42158D01*
X179891D01*
Y42173D01*
X179906D01*
Y42187D01*
X179936D01*
Y42202D01*
X179967D01*
Y42186D01*
X179952D01*
Y42082D01*
X179937D01*
Y41978D01*
X179922D01*
Y41873D01*
X179908D01*
Y41828D01*
X178222D01*
Y41843D01*
X178192D01*
Y41858D01*
X178178D01*
Y41873D01*
X178163D01*
Y41888D01*
X178148D01*
Y41918D01*
X178133D01*
Y42068D01*
X178148D01*
Y42187D01*
X178163D01*
Y42292D01*
X178178D01*
Y42411D01*
X178192D01*
Y42515D01*
X178208D01*
Y42620D01*
X178222D01*
Y42739D01*
X178237D01*
Y42843D01*
X178252D01*
Y42962D01*
X178267D01*
Y43066D01*
X178282D01*
Y43186D01*
X178297D01*
Y43290D01*
X178312D01*
Y43409D01*
X178327D01*
Y43514D01*
G37*
G36*
G01X180509Y40096D02*
X182365D01*
Y39978D01*
X182350D01*
Y39875D01*
X182336D01*
Y39773D01*
X182321D01*
Y39656D01*
X182306D01*
Y39554D01*
X182292D01*
Y39452D01*
X182277D01*
Y39335D01*
X182263D01*
Y39233D01*
X182248D01*
Y39131D01*
X182234D01*
Y39014D01*
X182219D01*
Y38912D01*
X182204D01*
Y38795D01*
X182190D01*
Y38693D01*
X182175D01*
Y38591D01*
X182161D01*
Y38561D01*
X182146D01*
Y38547D01*
X182131D01*
Y38518D01*
X182116D01*
Y38503D01*
X182087D01*
Y38488D01*
X182073D01*
Y38474D01*
X182044D01*
Y38459D01*
X180378D01*
Y38475D01*
X180392D01*
Y38592D01*
X180407D01*
Y38709D01*
X180422D01*
Y38826D01*
X180436D01*
Y38942D01*
X180451D01*
Y39059D01*
X180465D01*
Y39176D01*
X180480D01*
Y39293D01*
X180494D01*
Y39409D01*
X180509D01*
Y39526D01*
X180524D01*
Y39629D01*
X180538D01*
Y39745D01*
X180553D01*
Y39862D01*
X180567D01*
Y39979D01*
X180582D01*
Y39992D01*
X180567D01*
Y40021D01*
X180553D01*
Y40036D01*
X180538D01*
Y40050D01*
X180524D01*
Y40065D01*
X180509D01*
Y40096D01*
G37*
G36*
G01X175968Y40110D02*
X177737D01*
Y40094D01*
X177722D01*
Y39963D01*
X177708D01*
Y39846D01*
X177693D01*
Y39715D01*
X177678D01*
Y39627D01*
X177107D01*
Y39643D01*
X177122D01*
Y39745D01*
X177137D01*
Y39832D01*
X176466D01*
Y39744D01*
X176452D01*
Y39627D01*
X176437D01*
Y39510D01*
X176423D01*
Y39394D01*
X176408D01*
Y39291D01*
X176393D01*
Y39174D01*
X176379D01*
Y39058D01*
X176364D01*
Y38941D01*
X176350D01*
Y38824D01*
X176335D01*
Y38738D01*
X177005D01*
Y38884D01*
X177020D01*
Y39044D01*
X177034D01*
Y39072D01*
X177020D01*
Y39102D01*
X177005D01*
Y39116D01*
X176991D01*
Y39145D01*
X176976D01*
Y39160D01*
X176961D01*
Y39189D01*
X176947D01*
Y39218D01*
X176932D01*
Y39233D01*
X176917D01*
Y39262D01*
X176903D01*
Y39291D01*
X176888D01*
Y39306D01*
X176874D01*
Y39335D01*
X176859D01*
Y39351D01*
X177620D01*
Y39306D01*
X177605D01*
Y39189D01*
X177591D01*
Y39072D01*
X177576D01*
Y38956D01*
X177561D01*
Y38839D01*
X177547D01*
Y38722D01*
X177532D01*
Y38605D01*
X177518D01*
Y38488D01*
X177503D01*
Y38459D01*
X175852D01*
Y38474D01*
X175837D01*
Y38488D01*
X175808D01*
Y38503D01*
X175793D01*
Y38518D01*
X175779D01*
Y38547D01*
X175764D01*
Y38680D01*
X175779D01*
Y38782D01*
X175793D01*
Y38898D01*
X175808D01*
Y39001D01*
X175822D01*
Y39118D01*
X175837D01*
Y39220D01*
X175852D01*
Y39337D01*
X175866D01*
Y39439D01*
X175881D01*
Y39541D01*
X175896D01*
Y39658D01*
X175910D01*
Y39760D01*
X175925D01*
Y39877D01*
X175939D01*
Y39979D01*
X175954D01*
Y40096D01*
X175968D01*
Y40110D01*
G37*
G36*
G01X179575D02*
X180058D01*
Y40094D01*
X180043D01*
Y39978D01*
X180029D01*
Y39875D01*
X180014D01*
Y39773D01*
X180000D01*
Y39656D01*
X179985D01*
Y39554D01*
X179970D01*
Y39452D01*
X179956D01*
Y39335D01*
X179941D01*
Y39233D01*
X179927D01*
Y39131D01*
X179912D01*
Y39014D01*
X179898D01*
Y38912D01*
X179883D01*
Y38795D01*
X179868D01*
Y38693D01*
X179854D01*
Y38591D01*
X179839D01*
Y38474D01*
X179824D01*
Y38459D01*
X179254D01*
Y38488D01*
X179239D01*
Y38518D01*
X179224D01*
Y38547D01*
X179210D01*
Y38561D01*
X179195D01*
Y38591D01*
X179180D01*
Y38620D01*
X179166D01*
Y38649D01*
X179151D01*
Y38678D01*
X179137D01*
Y38693D01*
X179122D01*
Y38722D01*
X179108D01*
Y38751D01*
X179093D01*
Y38780D01*
X179078D01*
Y38809D01*
X179064D01*
Y38824D01*
X179049D01*
Y38853D01*
X179035D01*
Y38883D01*
X179020D01*
Y38912D01*
X179005D01*
Y38941D01*
X178991D01*
Y38956D01*
X178976D01*
Y38985D01*
X178961D01*
Y39014D01*
X178947D01*
Y39043D01*
X178932D01*
Y39072D01*
X178918D01*
Y39087D01*
X178903D01*
Y39116D01*
X178889D01*
Y39145D01*
X178874D01*
Y39174D01*
X178859D01*
Y39204D01*
X178844D01*
Y39218D01*
X178830D01*
Y39248D01*
X178815D01*
Y39277D01*
X178801D01*
Y39306D01*
X178786D01*
Y39335D01*
X178772D01*
Y39350D01*
X178757D01*
Y39379D01*
X178742D01*
Y39408D01*
X178728D01*
Y39437D01*
X178713D01*
Y39467D01*
X178700D01*
Y39364D01*
X178686D01*
Y39262D01*
X178671D01*
Y39145D01*
X178656D01*
Y39043D01*
X178642D01*
Y38941D01*
X178627D01*
Y38839D01*
X178613D01*
Y38722D01*
X178598D01*
Y38620D01*
X178584D01*
Y38518D01*
X178569D01*
Y38459D01*
X178056D01*
Y38475D01*
X178071D01*
Y38577D01*
X178085D01*
Y38680D01*
X178100D01*
Y38782D01*
X178115D01*
Y38884D01*
X178129D01*
Y38986D01*
X178144D01*
Y39074D01*
X178159D01*
Y39176D01*
X178173D01*
Y39278D01*
X178188D01*
Y39380D01*
X178202D01*
Y39483D01*
X178217D01*
Y39585D01*
X178232D01*
Y39687D01*
X178246D01*
Y39774D01*
X178261D01*
Y39877D01*
X178275D01*
Y39979D01*
X178290D01*
Y39992D01*
X178275D01*
Y40007D01*
X178261D01*
Y40021D01*
X178246D01*
Y40036D01*
X178232D01*
Y40050D01*
X178217D01*
Y40065D01*
X178202D01*
Y40080D01*
X178188D01*
Y40094D01*
X178173D01*
Y40110D01*
X178846D01*
Y40096D01*
X178861D01*
Y40067D01*
X178876D01*
Y40037D01*
X178890D01*
Y40023D01*
X178905D01*
Y39994D01*
X178919D01*
Y39964D01*
X178934D01*
Y39935D01*
X178948D01*
Y39920D01*
X178963D01*
Y39891D01*
X178978D01*
Y39862D01*
X178992D01*
Y39833D01*
X179007D01*
Y39804D01*
X179022D01*
Y39789D01*
X179036D01*
Y39760D01*
X179051D01*
Y39731D01*
X179065D01*
Y39702D01*
X179080D01*
Y39687D01*
X179094D01*
Y39658D01*
X179109D01*
Y39629D01*
X179124D01*
Y39599D01*
X179138D01*
Y39585D01*
X179153D01*
Y39556D01*
X179167D01*
Y39526D01*
X179182D01*
Y39497D01*
X179197D01*
Y39483D01*
X179211D01*
Y39453D01*
X179226D01*
Y39424D01*
X179241D01*
Y39395D01*
X179255D01*
Y39366D01*
X179270D01*
Y39351D01*
X179284D01*
Y39322D01*
X179299D01*
Y39293D01*
X179313D01*
Y39263D01*
X179328D01*
Y39249D01*
X179342D01*
Y39220D01*
X179357D01*
Y39191D01*
X179372D01*
Y39161D01*
X179387D01*
Y39147D01*
X179401D01*
Y39118D01*
X179416D01*
Y39088D01*
X179429D01*
Y39103D01*
X179443D01*
Y39205D01*
X179458D01*
Y39308D01*
X179472D01*
Y39424D01*
X179487D01*
Y39526D01*
X179502D01*
Y39629D01*
X179516D01*
Y39745D01*
X179531D01*
Y39848D01*
X179546D01*
Y39964D01*
X179560D01*
Y40067D01*
X179575D01*
Y40110D01*
G37*
G36*
G01X180187Y36817D02*
X182042D01*
Y36698D01*
X182028D01*
Y36596D01*
X182013D01*
Y36494D01*
X181999D01*
Y36377D01*
X181984D01*
Y36275D01*
X181969D01*
Y36173D01*
X181955D01*
Y36056D01*
X181940D01*
Y35954D01*
X181926D01*
Y35852D01*
X181911D01*
Y35735D01*
X181896D01*
Y35633D01*
X181882D01*
Y35516D01*
X181867D01*
Y35414D01*
X181853D01*
Y35311D01*
X181838D01*
Y35282D01*
X181824D01*
Y35268D01*
X181809D01*
Y35239D01*
X181794D01*
Y35224D01*
X181765D01*
Y35209D01*
X181750D01*
Y35195D01*
X181721D01*
Y35180D01*
X180056D01*
Y35196D01*
X180070D01*
Y35313D01*
X180085D01*
Y35430D01*
X180099D01*
Y35546D01*
X180114D01*
Y35663D01*
X180128D01*
Y35780D01*
X180143D01*
Y35897D01*
X180158D01*
Y36014D01*
X180172D01*
Y36131D01*
X180187D01*
Y36247D01*
X180202D01*
Y36350D01*
X180216D01*
Y36466D01*
X180231D01*
Y36583D01*
X180245D01*
Y36700D01*
X180260D01*
Y36713D01*
X180245D01*
Y36742D01*
X180231D01*
Y36757D01*
X180216D01*
Y36772D01*
X180202D01*
Y36786D01*
X180187D01*
Y36817D01*
G37*
G36*
G01X175646Y36832D02*
X177414D01*
Y36815D01*
X177400D01*
Y36684D01*
X177385D01*
Y36567D01*
X177370D01*
Y36436D01*
X177356D01*
Y36348D01*
X176785D01*
Y36364D01*
X176800D01*
Y36466D01*
X176814D01*
Y36552D01*
X176144D01*
Y36465D01*
X176130D01*
Y36348D01*
X176115D01*
Y36232D01*
X176100D01*
Y36115D01*
X176086D01*
Y36012D01*
X176071D01*
Y35896D01*
X176056D01*
Y35779D01*
X176042D01*
Y35662D01*
X176027D01*
Y35545D01*
X176013D01*
Y35459D01*
X176683D01*
Y35605D01*
X176698D01*
Y35765D01*
X176712D01*
Y35793D01*
X176698D01*
Y35822D01*
X176683D01*
Y35837D01*
X176668D01*
Y35866D01*
X176654D01*
Y35881D01*
X176639D01*
Y35910D01*
X176624D01*
Y35939D01*
X176610D01*
Y35954D01*
X176595D01*
Y35983D01*
X176581D01*
Y36012D01*
X176566D01*
Y36027D01*
X176552D01*
Y36056D01*
X176537D01*
Y36072D01*
X177298D01*
Y36027D01*
X177283D01*
Y35910D01*
X177268D01*
Y35793D01*
X177254D01*
Y35676D01*
X177239D01*
Y35560D01*
X177224D01*
Y35443D01*
X177210D01*
Y35326D01*
X177195D01*
Y35209D01*
X177181D01*
Y35180D01*
X175530D01*
Y35195D01*
X175515D01*
Y35209D01*
X175486D01*
Y35224D01*
X175471D01*
Y35239D01*
X175456D01*
Y35268D01*
X175442D01*
Y35400D01*
X175456D01*
Y35503D01*
X175471D01*
Y35620D01*
X175486D01*
Y35722D01*
X175500D01*
Y35839D01*
X175515D01*
Y35941D01*
X175530D01*
Y36058D01*
X175544D01*
Y36160D01*
X175559D01*
Y36262D01*
X175573D01*
Y36379D01*
X175588D01*
Y36481D01*
X175602D01*
Y36598D01*
X175617D01*
Y36700D01*
X175632D01*
Y36817D01*
X175646D01*
Y36832D01*
G37*
G36*
G01X179252D02*
X179736D01*
Y36815D01*
X179721D01*
Y36698D01*
X179706D01*
Y36596D01*
X179692D01*
Y36494D01*
X179677D01*
Y36377D01*
X179663D01*
Y36275D01*
X179648D01*
Y36173D01*
X179634D01*
Y36056D01*
X179619D01*
Y35954D01*
X179604D01*
Y35852D01*
X179590D01*
Y35735D01*
X179575D01*
Y35633D01*
X179561D01*
Y35516D01*
X179546D01*
Y35414D01*
X179531D01*
Y35311D01*
X179516D01*
Y35195D01*
X179502D01*
Y35180D01*
X178931D01*
Y35209D01*
X178916D01*
Y35239D01*
X178902D01*
Y35268D01*
X178887D01*
Y35282D01*
X178873D01*
Y35311D01*
X178858D01*
Y35341D01*
X178844D01*
Y35370D01*
X178829D01*
Y35399D01*
X178815D01*
Y35414D01*
X178800D01*
Y35443D01*
X178785D01*
Y35472D01*
X178771D01*
Y35501D01*
X178756D01*
Y35531D01*
X178741D01*
Y35545D01*
X178727D01*
Y35574D01*
X178712D01*
Y35604D01*
X178698D01*
Y35633D01*
X178683D01*
Y35662D01*
X178668D01*
Y35676D01*
X178654D01*
Y35706D01*
X178639D01*
Y35735D01*
X178625D01*
Y35764D01*
X178610D01*
Y35793D01*
X178596D01*
Y35808D01*
X178581D01*
Y35837D01*
X178566D01*
Y35866D01*
X178552D01*
Y35896D01*
X178537D01*
Y35925D01*
X178522D01*
Y35939D01*
X178508D01*
Y35968D01*
X178493D01*
Y35998D01*
X178479D01*
Y36027D01*
X178464D01*
Y36056D01*
X178450D01*
Y36071D01*
X178435D01*
Y36100D01*
X178420D01*
Y36129D01*
X178406D01*
Y36158D01*
X178391D01*
Y36187D01*
X178378D01*
Y36085D01*
X178363D01*
Y35983D01*
X178349D01*
Y35866D01*
X178334D01*
Y35764D01*
X178319D01*
Y35662D01*
X178305D01*
Y35560D01*
X178290D01*
Y35443D01*
X178276D01*
Y35341D01*
X178261D01*
Y35239D01*
X178246D01*
Y35180D01*
X177734D01*
Y35196D01*
X177749D01*
Y35298D01*
X177763D01*
Y35400D01*
X177778D01*
Y35503D01*
X177792D01*
Y35605D01*
X177807D01*
Y35707D01*
X177822D01*
Y35795D01*
X177836D01*
Y35897D01*
X177851D01*
Y35999D01*
X177865D01*
Y36101D01*
X177880D01*
Y36204D01*
X177894D01*
Y36306D01*
X177909D01*
Y36408D01*
X177924D01*
Y36496D01*
X177939D01*
Y36598D01*
X177953D01*
Y36700D01*
X177968D01*
Y36713D01*
X177953D01*
Y36728D01*
X177939D01*
Y36742D01*
X177924D01*
Y36757D01*
X177909D01*
Y36772D01*
X177894D01*
Y36786D01*
X177880D01*
Y36801D01*
X177865D01*
Y36815D01*
X177851D01*
Y36832D01*
X178524D01*
Y36817D01*
X178539D01*
Y36787D01*
X178553D01*
Y36758D01*
X178568D01*
Y36744D01*
X178582D01*
Y36715D01*
X178597D01*
Y36685D01*
X178611D01*
Y36656D01*
X178626D01*
Y36642D01*
X178641D01*
Y36612D01*
X178655D01*
Y36583D01*
X178670D01*
Y36554D01*
X178685D01*
Y36525D01*
X178699D01*
Y36510D01*
X178714D01*
Y36481D01*
X178728D01*
Y36452D01*
X178743D01*
Y36422D01*
X178758D01*
Y36408D01*
X178772D01*
Y36379D01*
X178787D01*
Y36350D01*
X178801D01*
Y36320D01*
X178816D01*
Y36306D01*
X178830D01*
Y36276D01*
X178845D01*
Y36247D01*
X178860D01*
Y36218D01*
X178874D01*
Y36204D01*
X178889D01*
Y36174D01*
X178904D01*
Y36145D01*
X178918D01*
Y36116D01*
X178933D01*
Y36087D01*
X178947D01*
Y36072D01*
X178962D01*
Y36043D01*
X178976D01*
Y36014D01*
X178991D01*
Y35985D01*
X179006D01*
Y35970D01*
X179020D01*
Y35941D01*
X179035D01*
Y35911D01*
X179050D01*
Y35882D01*
X179064D01*
Y35868D01*
X179079D01*
Y35839D01*
X179093D01*
Y35809D01*
X179106D01*
Y35824D01*
X179121D01*
Y35926D01*
X179136D01*
Y36028D01*
X179150D01*
Y36145D01*
X179165D01*
Y36247D01*
X179180D01*
Y36350D01*
X179194D01*
Y36466D01*
X179209D01*
Y36568D01*
X179223D01*
Y36685D01*
X179238D01*
Y36787D01*
X179252D01*
Y36832D01*
G37*
G36*
G01X181199Y69930D02*
X181927D01*
Y69858D01*
X181904D01*
Y69694D01*
X181880D01*
Y69530D01*
X181857D01*
Y69366D01*
X181834D01*
Y69203D01*
X181810D01*
Y69135D01*
X182606D01*
Y68992D01*
X182582D01*
Y68852D01*
X182559D01*
Y68688D01*
X181740D01*
Y68524D01*
X181716D01*
Y68360D01*
X181693D01*
Y68196D01*
X181669D01*
Y68033D01*
X181646D01*
Y67869D01*
X181623D01*
Y67799D01*
X180918D01*
Y67918D01*
X180942D01*
Y68082D01*
X180965D01*
Y68246D01*
X180989D01*
Y68409D01*
X181012D01*
Y68596D01*
X181035D01*
Y68688D01*
X180240D01*
Y68784D01*
X180263D01*
Y68971D01*
X180287D01*
Y69135D01*
X181106D01*
Y69252D01*
X181129D01*
Y69439D01*
X181152D01*
Y69603D01*
X181176D01*
Y69766D01*
X181199D01*
Y69930D01*
G37*
G36*
G01X177315Y70422D02*
X178347D01*
Y70256D01*
X178323D01*
Y70092D01*
X178300D01*
Y69928D01*
X178276D01*
Y69764D01*
X178253D01*
Y69600D01*
X178230D01*
Y69437D01*
X178206D01*
Y69273D01*
X178183D01*
Y69109D01*
X178159D01*
Y68945D01*
X178136D01*
Y68782D01*
X178113D01*
Y68618D01*
X178089D01*
Y68431D01*
X178066D01*
Y68267D01*
X178042D01*
Y68246D01*
X179798D01*
Y68103D01*
X179774D01*
Y67846D01*
X179751D01*
Y67799D01*
X177291D01*
Y67822D01*
X177268D01*
Y67846D01*
X177221D01*
Y67892D01*
X177198D01*
Y67939D01*
X177174D01*
Y67986D01*
X177151D01*
Y68222D01*
X177174D01*
Y68409D01*
X177198D01*
Y68596D01*
X177221D01*
Y68784D01*
X177244D01*
Y68971D01*
X177268D01*
Y69158D01*
X177291D01*
Y69345D01*
X177315D01*
Y69533D01*
X177338D01*
Y69720D01*
X177361D01*
Y69907D01*
X177385D01*
Y70094D01*
X177408D01*
Y70279D01*
X177385D01*
Y70326D01*
X177361D01*
Y70349D01*
X177338D01*
Y70373D01*
X177315D01*
Y70422D01*
G37*
G36*
G01X180571Y64883D02*
X182341D01*
Y64829D01*
X182315D01*
Y64676D01*
X182289D01*
Y64522D01*
X182263D01*
Y64368D01*
X180494D01*
Y64396D01*
X180520D01*
Y64576D01*
X180546D01*
Y64729D01*
X180571D01*
Y64883D01*
G37*
G36*
G01X177320Y66316D02*
X178449D01*
Y66135D01*
X178424D01*
Y65956D01*
X178398D01*
Y65776D01*
X178372D01*
Y65597D01*
X178347D01*
Y65418D01*
X178321D01*
Y65239D01*
X178296D01*
Y65059D01*
X178270D01*
Y64880D01*
X178244D01*
Y64701D01*
X178219D01*
Y64522D01*
X178193D01*
Y64342D01*
X178168D01*
Y64138D01*
X178142D01*
Y63959D01*
X178116D01*
Y63936D01*
X180036D01*
Y63780D01*
X180011D01*
Y63498D01*
X179985D01*
Y63447D01*
X177294D01*
Y63472D01*
X177269D01*
Y63498D01*
X177218D01*
Y63549D01*
X177192D01*
Y63600D01*
X177166D01*
Y63652D01*
X177141D01*
Y63910D01*
X177166D01*
Y64115D01*
X177192D01*
Y64320D01*
X177218D01*
Y64524D01*
X177243D01*
Y64729D01*
X177269D01*
Y64934D01*
X177294D01*
Y65139D01*
X177320D01*
Y65344D01*
X177346D01*
Y65548D01*
X177371D01*
Y65753D01*
X177397D01*
Y65958D01*
X177422D01*
Y66160D01*
X177397D01*
Y66211D01*
X177371D01*
Y66237D01*
X177346D01*
Y66263D01*
X177320D01*
Y66316D01*
G37*
G36*
G01X180352Y100100D02*
X181039D01*
Y100054D01*
X181016D01*
Y99899D01*
X180994D01*
Y99744D01*
X180972D01*
Y99590D01*
X180950D01*
Y99435D01*
X180928D01*
Y99349D01*
X181680D01*
Y99236D01*
X181658D01*
Y99104D01*
X181635D01*
Y98949D01*
X181613D01*
Y98927D01*
X180862D01*
Y98794D01*
X180840D01*
Y98639D01*
X180818D01*
Y98485D01*
X180796D01*
Y98330D01*
X180774D01*
Y98153D01*
X180752D01*
Y98087D01*
X180086D01*
Y98222D01*
X180108D01*
Y98376D01*
X180130D01*
Y98531D01*
X180152D01*
Y98686D01*
X180175D01*
Y98841D01*
X180197D01*
Y98927D01*
X179445D01*
Y99039D01*
X179467D01*
Y99216D01*
X179489D01*
Y99349D01*
X180263D01*
Y99504D01*
X180285D01*
Y99658D01*
X180307D01*
Y99813D01*
X180329D01*
Y99968D01*
X180352D01*
Y100100D01*
G37*
G36*
G01X176197Y100564D02*
X178939D01*
Y100452D01*
X178917D01*
Y100275D01*
X178895D01*
Y100120D01*
X178873D01*
Y99943D01*
X178851D01*
Y99789D01*
X178829D01*
Y99612D01*
X178807D01*
Y99457D01*
X178785D01*
Y99280D01*
X178763D01*
Y99192D01*
X178740D01*
Y99148D01*
X178718D01*
Y99126D01*
X178696D01*
Y99104D01*
X178674D01*
Y99082D01*
X178630D01*
Y99059D01*
X178608D01*
Y99037D01*
X178541D01*
Y99015D01*
X177878D01*
Y98995D01*
X177900D01*
Y98973D01*
X177923D01*
Y98951D01*
X177944D01*
Y98929D01*
X177967D01*
Y98907D01*
X177989D01*
Y98885D01*
X178011D01*
Y98863D01*
X178033D01*
Y98841D01*
X178055D01*
Y98818D01*
X178077D01*
Y98797D01*
X178100D01*
Y98774D01*
X178122D01*
Y98752D01*
X178144D01*
Y98730D01*
X178166D01*
Y98708D01*
X178188D01*
Y98686D01*
X178210D01*
Y98664D01*
X178232D01*
Y98642D01*
X178254D01*
Y98620D01*
X178276D01*
Y98598D01*
X178298D01*
Y98575D01*
X178320D01*
Y98553D01*
X178342D01*
Y98509D01*
X178365D01*
Y98487D01*
X178387D01*
Y98465D01*
X178409D01*
Y98443D01*
X178431D01*
Y98421D01*
X178453D01*
Y98398D01*
X178475D01*
Y98376D01*
X178497D01*
Y98354D01*
X178519D01*
Y98332D01*
X178541D01*
Y98310D01*
X178563D01*
Y98288D01*
X178586D01*
Y98266D01*
X178608D01*
Y98244D01*
X178630D01*
Y98222D01*
X178652D01*
Y98200D01*
X178674D01*
Y98178D01*
X178696D01*
Y98156D01*
X178718D01*
Y98134D01*
X178740D01*
Y98111D01*
X178763D01*
Y98087D01*
X177832D01*
Y98109D01*
X177810D01*
Y98131D01*
X177788D01*
Y98153D01*
X177766D01*
Y98175D01*
X177744D01*
Y98198D01*
X177722D01*
Y98220D01*
X177700D01*
Y98242D01*
X177677D01*
Y98264D01*
X177655D01*
Y98286D01*
X177633D01*
Y98308D01*
X177611D01*
Y98352D01*
X177589D01*
Y98374D01*
X177567D01*
Y98397D01*
X177544D01*
Y98418D01*
X177523D01*
Y98441D01*
X177500D01*
Y98463D01*
X177478D01*
Y98485D01*
X177456D01*
Y98507D01*
X177434D01*
Y98529D01*
X177412D01*
Y98551D01*
X177390D01*
Y98573D01*
X177368D01*
Y98617D01*
X177346D01*
Y98639D01*
X177324D01*
Y98661D01*
X177302D01*
Y98684D01*
X177280D01*
Y98706D01*
X177258D01*
Y98728D01*
X177235D01*
Y98750D01*
X177213D01*
Y98772D01*
X177191D01*
Y98794D01*
X177169D01*
Y98816D01*
X177147D01*
Y98861D01*
X177125D01*
Y98883D01*
X177103D01*
Y98905D01*
X177081D01*
Y98927D01*
X177059D01*
Y98949D01*
X177037D01*
Y98971D01*
X177014D01*
Y98993D01*
X176994D01*
Y98927D01*
X176972D01*
Y98772D01*
X176950D01*
Y98595D01*
X176928D01*
Y98441D01*
X176906D01*
Y98286D01*
X176884D01*
Y98109D01*
X176862D01*
Y98087D01*
X176020D01*
Y98200D01*
X176042D01*
Y98376D01*
X176064D01*
Y98553D01*
X176086D01*
Y98708D01*
X176108D01*
Y98885D01*
X176130D01*
Y99061D01*
X176152D01*
Y99238D01*
X176174D01*
Y99415D01*
X176197D01*
Y99592D01*
X176218D01*
Y99769D01*
X176241D01*
Y99924D01*
X176263D01*
Y100100D01*
X176285D01*
Y100277D01*
X176307D01*
Y100430D01*
X176285D01*
Y100452D01*
X176263D01*
Y100496D01*
X176241D01*
Y100518D01*
X176218D01*
Y100540D01*
X176197D01*
Y100564D01*
G37*
G36*
G01X179935Y94096D02*
X181593D01*
Y94069D01*
X181569D01*
Y93926D01*
X181545D01*
Y93782D01*
X181521D01*
Y93637D01*
X181497D01*
Y93613D01*
X179863D01*
Y93664D01*
X179887D01*
Y93832D01*
X179911D01*
Y93976D01*
X179935D01*
Y94096D01*
G37*
G36*
G01X176359Y95440D02*
X179337D01*
Y95317D01*
X179313D01*
Y95126D01*
X179289D01*
Y94958D01*
X179265D01*
Y94765D01*
X179241D01*
Y94598D01*
X179217D01*
Y94406D01*
X179193D01*
Y94237D01*
X179169D01*
Y94045D01*
X179145D01*
Y93950D01*
X179121D01*
Y93902D01*
X179097D01*
Y93878D01*
X179073D01*
Y93854D01*
X179049D01*
Y93830D01*
X179002D01*
Y93806D01*
X178978D01*
Y93782D01*
X178906D01*
Y93758D01*
X178185D01*
Y93736D01*
X178209D01*
Y93712D01*
X178234D01*
Y93688D01*
X178258D01*
Y93664D01*
X178282D01*
Y93640D01*
X178306D01*
Y93616D01*
X178330D01*
Y93592D01*
X178354D01*
Y93568D01*
X178378D01*
Y93544D01*
X178402D01*
Y93520D01*
X178425D01*
Y93496D01*
X178449D01*
Y93472D01*
X178473D01*
Y93448D01*
X178497D01*
Y93424D01*
X178521D01*
Y93400D01*
X178545D01*
Y93376D01*
X178569D01*
Y93352D01*
X178593D01*
Y93328D01*
X178617D01*
Y93304D01*
X178641D01*
Y93280D01*
X178665D01*
Y93256D01*
X178689D01*
Y93208D01*
X178713D01*
Y93184D01*
X178737D01*
Y93160D01*
X178761D01*
Y93136D01*
X178785D01*
Y93112D01*
X178809D01*
Y93088D01*
X178834D01*
Y93064D01*
X178858D01*
Y93040D01*
X178882D01*
Y93016D01*
X178906D01*
Y92992D01*
X178930D01*
Y92968D01*
X178954D01*
Y92944D01*
X178978D01*
Y92920D01*
X179002D01*
Y92896D01*
X179025D01*
Y92872D01*
X179049D01*
Y92848D01*
X179073D01*
Y92824D01*
X179097D01*
Y92800D01*
X179121D01*
Y92776D01*
X179145D01*
Y92750D01*
X178135D01*
Y92774D01*
X178111D01*
Y92798D01*
X178087D01*
Y92821D01*
X178063D01*
Y92845D01*
X178039D01*
Y92869D01*
X178015D01*
Y92893D01*
X177991D01*
Y92917D01*
X177967D01*
Y92941D01*
X177943D01*
Y92965D01*
X177919D01*
Y92989D01*
X177895D01*
Y93037D01*
X177871D01*
Y93061D01*
X177847D01*
Y93085D01*
X177823D01*
Y93109D01*
X177799D01*
Y93134D01*
X177775D01*
Y93158D01*
X177751D01*
Y93182D01*
X177727D01*
Y93206D01*
X177703D01*
Y93230D01*
X177679D01*
Y93254D01*
X177655D01*
Y93278D01*
X177631D01*
Y93326D01*
X177607D01*
Y93350D01*
X177583D01*
Y93374D01*
X177559D01*
Y93398D01*
X177535D01*
Y93421D01*
X177511D01*
Y93445D01*
X177487D01*
Y93469D01*
X177463D01*
Y93493D01*
X177439D01*
Y93517D01*
X177415D01*
Y93541D01*
X177391D01*
Y93589D01*
X177367D01*
Y93613D01*
X177343D01*
Y93637D01*
X177319D01*
Y93661D01*
X177295D01*
Y93685D01*
X177271D01*
Y93709D01*
X177247D01*
Y93734D01*
X177225D01*
Y93661D01*
X177202D01*
Y93493D01*
X177178D01*
Y93302D01*
X177154D01*
Y93134D01*
X177130D01*
Y92965D01*
X177106D01*
Y92774D01*
X177082D01*
Y92750D01*
X176167D01*
Y92872D01*
X176191D01*
Y93064D01*
X176215D01*
Y93256D01*
X176239D01*
Y93424D01*
X176263D01*
Y93616D01*
X176287D01*
Y93808D01*
X176311D01*
Y94000D01*
X176335D01*
Y94192D01*
X176359D01*
Y94384D01*
X176383D01*
Y94576D01*
X176407D01*
Y94744D01*
X176431D01*
Y94936D01*
X176455D01*
Y95128D01*
X176479D01*
Y95293D01*
X176455D01*
Y95317D01*
X176431D01*
Y95365D01*
X176407D01*
Y95389D01*
X176383D01*
Y95413D01*
X176359D01*
Y95440D01*
G37*
%LPC*%
G75*
G36*
G01X2923Y99766D02*
Y99782D01*
X3662D01*
Y99735D01*
X3646D01*
Y99638D01*
X3630D01*
Y99542D01*
X3614D01*
Y99429D01*
X3598D01*
Y99332D01*
X3581D01*
Y99220D01*
X3565D01*
Y99123D01*
X3549D01*
Y99010D01*
X3533D01*
Y98914D01*
X3517D01*
Y98801D01*
X3501D01*
Y98704D01*
X3485D01*
Y98592D01*
X3469D01*
Y98576D01*
X2730D01*
Y98590D01*
X2746D01*
Y98703D01*
X2762D01*
Y98800D01*
X2778D01*
Y98912D01*
X2794D01*
Y99025D01*
X2810D01*
Y99122D01*
X2826D01*
Y99234D01*
X2842D01*
Y99331D01*
X2859D01*
Y99444D01*
X2875D01*
Y99556D01*
X2891D01*
Y99653D01*
X2907D01*
Y99766D01*
X2923D01*
G37*
G36*
G01X2800Y96358D02*
Y96374D01*
X3539D01*
Y96327D01*
X3523D01*
Y96231D01*
X3507D01*
Y96134D01*
X3491D01*
Y96021D01*
X3475D01*
Y95925D01*
X3459D01*
Y95812D01*
X3442D01*
Y95715D01*
X3426D01*
Y95603D01*
X3410D01*
Y95506D01*
X3394D01*
Y95393D01*
X3378D01*
Y95297D01*
X3362D01*
Y95184D01*
X3346D01*
Y95168D01*
X2607D01*
Y95183D01*
X2623D01*
Y95295D01*
X2639D01*
Y95392D01*
X2655D01*
Y95505D01*
X2671D01*
Y95617D01*
X2687D01*
Y95714D01*
X2703D01*
Y95827D01*
X2720D01*
Y95923D01*
X2736D01*
Y96036D01*
X2752D01*
Y96149D01*
X2768D01*
Y96245D01*
X2784D01*
Y96358D01*
X2800D01*
G37*
G36*
G01X7740Y85596D02*
Y85661D01*
X8479D01*
Y85582D01*
X8463D01*
Y85469D01*
X8447D01*
Y85372D01*
X8431D01*
Y85260D01*
X8415D01*
Y85163D01*
X8399D01*
Y85050D01*
X8383D01*
Y84954D01*
X8367D01*
Y84857D01*
X8350D01*
Y84744D01*
X8334D01*
Y84648D01*
X8318D01*
Y84535D01*
X8302D01*
Y84455D01*
X7563D01*
Y84533D01*
X7579D01*
Y84646D01*
X7595D01*
Y84743D01*
X7611D01*
Y84856D01*
X7628D01*
Y84968D01*
X7644D01*
Y85065D01*
X7660D01*
Y85178D01*
X7676D01*
Y85274D01*
X7692D01*
Y85387D01*
X7708D01*
Y85483D01*
X7724D01*
Y85596D01*
X7740D01*
G37*
G36*
G01X5080Y110723D02*
Y110787D01*
X5819D01*
Y110725D01*
X5803D01*
Y110596D01*
X5787D01*
Y110467D01*
X5771D01*
Y110338D01*
X5755D01*
Y110290D01*
X5016D01*
Y110337D01*
X5032D01*
Y110465D01*
X5048D01*
Y110594D01*
X5064D01*
Y110723D01*
X5080D01*
G37*
G36*
G01X5177Y111448D02*
Y111496D01*
X5916D01*
Y111465D01*
X5900D01*
Y111369D01*
X5884D01*
Y111256D01*
X5868D01*
Y111159D01*
X5851D01*
Y111095D01*
X5145D01*
Y111254D01*
X5161D01*
Y111448D01*
X5177D01*
G37*
G36*
G01X5080Y106688D02*
Y106752D01*
X5819D01*
Y106689D01*
X5803D01*
Y106561D01*
X5787D01*
Y106432D01*
X5771D01*
Y106303D01*
X5755D01*
Y106255D01*
X5016D01*
Y106301D01*
X5032D01*
Y106430D01*
X5048D01*
Y106559D01*
X5064D01*
Y106688D01*
X5080D01*
G37*
G36*
G01X5177Y107412D02*
Y107461D01*
X5916D01*
Y107430D01*
X5900D01*
Y107333D01*
X5884D01*
Y107221D01*
X5868D01*
Y107124D01*
X5851D01*
Y107060D01*
X5145D01*
Y107219D01*
X5161D01*
Y107412D01*
X5177D01*
G37*
G36*
G01X106287Y120669D02*
Y120862D01*
X108114D01*
Y120674D01*
X108065D01*
Y120337D01*
X108017D01*
Y120048D01*
X107969D01*
Y119710D01*
X107921D01*
Y119421D01*
X106094D01*
Y119705D01*
X106142D01*
Y120043D01*
X106190D01*
Y120332D01*
X106239D01*
Y120669D01*
X106287D01*
G37*
G36*
G01X106576Y122742D02*
Y123079D01*
X108403D01*
Y122747D01*
X108355D01*
Y122409D01*
X108306D01*
Y122072D01*
X108258D01*
Y121783D01*
X106431D01*
Y122067D01*
X106480D01*
Y122404D01*
X106528D01*
Y122742D01*
X106576D01*
G37*
G36*
G01X102960Y115753D02*
Y115837D01*
X104025D01*
Y115812D01*
X103997D01*
Y115615D01*
X103969D01*
Y115419D01*
X103941D01*
Y115222D01*
X103913D01*
Y115025D01*
X103885D01*
Y114801D01*
X103857D01*
Y114604D01*
X103829D01*
Y114407D01*
X103801D01*
Y114210D01*
X103772D01*
Y114014D01*
X103744D01*
Y113817D01*
X103716D01*
Y113705D01*
X102651D01*
Y113786D01*
X102679D01*
Y113983D01*
X102707D01*
Y114180D01*
X102736D01*
Y114376D01*
X102764D01*
Y114573D01*
X102792D01*
Y114770D01*
X102820D01*
Y114966D01*
X102848D01*
Y115163D01*
X102876D01*
Y115360D01*
X102904D01*
Y115556D01*
X102932D01*
Y115753D01*
X102960D01*
G37*
G36*
G01X130676Y120573D02*
Y120862D01*
X132503D01*
Y120578D01*
X132455D01*
Y120240D01*
X132406D01*
Y119903D01*
X132358D01*
Y119565D01*
X132310D01*
Y119421D01*
X130483D01*
Y119561D01*
X130531D01*
Y119898D01*
X130580D01*
Y120236D01*
X130628D01*
Y120573D01*
X130676D01*
G37*
G36*
G01X131013Y122983D02*
Y123079D01*
X132840D01*
Y122988D01*
X132792D01*
Y122650D01*
X132744D01*
Y122313D01*
X132696D01*
Y121927D01*
X132647D01*
Y121783D01*
X130821D01*
Y121922D01*
X130869D01*
Y122308D01*
X130917D01*
Y122645D01*
X130965D01*
Y122983D01*
X131013D01*
G37*
G36*
G01X118050Y115809D02*
Y115837D01*
X119087D01*
Y115672D01*
X119059D01*
Y115475D01*
X119031D01*
Y115278D01*
X119003D01*
Y115082D01*
X118975D01*
Y114857D01*
X118946D01*
Y114660D01*
X118918D01*
Y114463D01*
X118890D01*
Y114267D01*
X118862D01*
Y114070D01*
X118834D01*
Y113873D01*
X118806D01*
Y113705D01*
X117741D01*
Y113842D01*
X117769D01*
Y114039D01*
X117797D01*
Y114236D01*
X117825D01*
Y114432D01*
X117853D01*
Y114629D01*
X117881D01*
Y114826D01*
X117910D01*
Y115023D01*
X117938D01*
Y115219D01*
X117966D01*
Y115416D01*
X117994D01*
Y115613D01*
X118022D01*
Y115809D01*
X118050D01*
G37*
G36*
G01X129121Y115725D02*
Y115837D01*
X130186D01*
Y115756D01*
X130158D01*
Y115559D01*
X130130D01*
Y115363D01*
X130102D01*
Y115166D01*
X130074D01*
Y114969D01*
X130046D01*
Y114772D01*
X130018D01*
Y114576D01*
X129990D01*
Y114379D01*
X129962D01*
Y114182D01*
X129934D01*
Y113986D01*
X129905D01*
Y113789D01*
X129877D01*
Y113705D01*
X128812D01*
Y113730D01*
X128840D01*
Y113927D01*
X128869D01*
Y114123D01*
X128897D01*
Y114320D01*
X128925D01*
Y114517D01*
X128953D01*
Y114713D01*
X128981D01*
Y114910D01*
X129009D01*
Y115107D01*
X129037D01*
Y115304D01*
X129065D01*
Y115528D01*
X129093D01*
Y115725D01*
X129121D01*
G37*
G36*
G01X181139Y39773D02*
Y39832D01*
X181809D01*
Y39760D01*
X181794D01*
Y39658D01*
X181779D01*
Y39570D01*
X181765D01*
Y39468D01*
X181750D01*
Y39380D01*
X181735D01*
Y39278D01*
X181721D01*
Y39191D01*
X181706D01*
Y39103D01*
X181692D01*
Y39001D01*
X181677D01*
Y38913D01*
X181663D01*
Y38811D01*
X181648D01*
Y38738D01*
X180978D01*
Y38809D01*
X180992D01*
Y38912D01*
X181007D01*
Y38999D01*
X181022D01*
Y39102D01*
X181036D01*
Y39204D01*
X181051D01*
Y39291D01*
X181065D01*
Y39394D01*
X181080D01*
Y39481D01*
X181094D01*
Y39584D01*
X181109D01*
Y39671D01*
X181124D01*
Y39773D01*
X181139D01*
G37*
G36*
G01X180816Y36494D02*
Y36552D01*
X181486D01*
Y36481D01*
X181472D01*
Y36379D01*
X181457D01*
Y36291D01*
X181442D01*
Y36189D01*
X181428D01*
Y36101D01*
X181413D01*
Y35999D01*
X181399D01*
Y35911D01*
X181384D01*
Y35824D01*
X181369D01*
Y35722D01*
X181355D01*
Y35634D01*
X181340D01*
Y35532D01*
X181326D01*
Y35459D01*
X180656D01*
Y35531D01*
X180670D01*
Y35633D01*
X180685D01*
Y35720D01*
X180699D01*
Y35822D01*
X180714D01*
Y35925D01*
X180728D01*
Y36012D01*
X180743D01*
Y36115D01*
X180758D01*
Y36202D01*
X180772D01*
Y36304D01*
X180787D01*
Y36392D01*
X180802D01*
Y36494D01*
X180816D01*
G37*
G36*
G01X177127Y100098D02*
Y100164D01*
X178053D01*
Y100056D01*
X178031D01*
Y99857D01*
X178009D01*
Y99680D01*
X177987D01*
Y99482D01*
X177965D01*
Y99437D01*
X177039D01*
Y99546D01*
X177061D01*
Y99744D01*
X177083D01*
Y99921D01*
X177105D01*
Y100098D01*
X177127D01*
G37*
G36*
G01X177369Y94934D02*
Y95006D01*
X178375D01*
Y94888D01*
X178351D01*
Y94672D01*
X178327D01*
Y94480D01*
X178303D01*
Y94264D01*
X178279D01*
Y94216D01*
X177273D01*
Y94334D01*
X177297D01*
Y94550D01*
X177321D01*
Y94741D01*
X177345D01*
Y94934D01*
X177369D01*
G37*
G54D21*
X89535Y121298D03*
%LPD*%
G75*
G36*
G01X144687Y99314D02*
X145467D01*
Y96194D01*
X144687D01*
Y99314D01*
G37*
G36*
G01Y120614D02*
X145467D01*
Y117504D01*
X144687D01*
Y120614D01*
G37*
G36*
G01X142478Y119444D02*
X147678D01*
Y118664D01*
X142478D01*
Y119444D01*
G37*
G36*
G01X156828Y27394D02*
X156048D01*
Y30504D01*
X156828D01*
Y27394D01*
G37*
G36*
G01X159037Y28564D02*
X153837D01*
Y29344D01*
X159037D01*
Y28564D01*
G37*
G36*
G01X156828Y48694D02*
X156048D01*
Y51814D01*
X156828D01*
Y48694D01*
G37*
G36*
G01X167034Y40058D02*
X165774D01*
Y41258D01*
X167034D01*
Y40058D01*
G37*
G36*
G01X167113Y78522D02*
X165853D01*
Y79722D01*
X167113D01*
Y78522D01*
G37*
G36*
G01X165774Y111399D02*
X167034D01*
Y110199D01*
X165774D01*
Y111399D01*
G37*
G36*
G01X173674Y40058D02*
X172415D01*
Y41258D01*
X173674D01*
Y40058D01*
G37*
G36*
G01X173753Y78522D02*
X172493D01*
Y79722D01*
X173753D01*
Y78522D01*
G37*
G36*
G01X172415Y111399D02*
X173674D01*
Y110199D01*
X172415D01*
Y111399D01*
G37*
G54D10*
G01X49327Y26874D02*
Y24374D01*
X50394D01*
G01X49327Y14374D02*
Y16874D01*
X49994D01*
X50207Y16749D01*
X50341Y16582D01*
X50394Y16249D01*
X50341Y15916D01*
X50181Y15707D01*
X49994Y15582D01*
X49327D01*
G01X49994D02*
X50394Y14374D01*
G01X49194Y46874D02*
X49861Y44374D01*
X50527Y46874D01*
G01X52647Y46666D02*
X52487Y46791D01*
X52301Y46874D01*
X52087D01*
X51847Y46749D01*
X51661Y46541D01*
X51527Y46291D01*
X51421Y45874D01*
X51394Y45499D01*
X51447Y45124D01*
X51527Y44874D01*
X51687Y44624D01*
X51874Y44457D01*
X52061Y44374D01*
X52247D01*
X52434Y44457D01*
X52594Y44582D01*
X52727Y44749D01*
G01X54847Y46666D02*
X54687Y46791D01*
X54501Y46874D01*
X54287D01*
X54047Y46749D01*
X53861Y46541D01*
X53727Y46291D01*
X53621Y45874D01*
X53594Y45499D01*
X53647Y45124D01*
X53727Y44874D01*
X53887Y44624D01*
X54074Y44457D01*
X54261Y44374D01*
X54447D01*
X54634Y44457D01*
X54794Y44582D01*
X54927Y44749D01*
G01X50021Y35624D02*
X50554D01*
Y34874D01*
X50394Y34624D01*
X50207Y34457D01*
X49941Y34374D01*
X49674Y34457D01*
X49487Y34624D01*
X49327Y34874D01*
X49221Y35166D01*
X49167Y35499D01*
Y35791D01*
X49221Y36041D01*
X49327Y36332D01*
X49487Y36582D01*
X49647Y36749D01*
X49861Y36874D01*
X50047D01*
X50261Y36791D01*
X50421Y36624D01*
G01X51447Y34374D02*
Y36874D01*
X52674Y34374D01*
Y36874D01*
G01X53674Y34374D02*
Y36874D01*
X54207D01*
X54421Y36749D01*
X54581Y36582D01*
X54714Y36332D01*
X54821Y36041D01*
X54847Y35624D01*
X54821Y35207D01*
X54714Y34916D01*
X54581Y34666D01*
X54421Y34499D01*
X54207Y34374D01*
X53674D01*
G01X49274Y64374D02*
Y66874D01*
G01X50287D02*
X49274Y65332D01*
G01X50447Y64374D02*
X49727Y66041D01*
G01X52594Y64374D02*
X51527D01*
Y66874D01*
X52594D01*
G01X52167Y65666D02*
X51527D01*
G01X54261Y64374D02*
Y65499D01*
X53727Y66874D01*
G01X54794D02*
X54261Y65499D01*
G01X49167Y54374D02*
Y56874D01*
X49861Y54791D01*
X50554Y56874D01*
Y54374D01*
G01X51474Y56874D02*
Y55082D01*
X51581Y54707D01*
X51794Y54457D01*
X52061Y54374D01*
X52327Y54457D01*
X52541Y54707D01*
X52647Y55082D01*
Y56874D01*
G01X54261D02*
Y54374D01*
G01X53647Y56874D02*
X54874D01*
G01X56994Y54374D02*
X55927D01*
Y56874D01*
X56994D01*
G01X56567Y55666D02*
X55927D01*
G54D20*
G01X1181Y14961D02*
X-21260D01*
G54D11*
G01X74824Y32122D02*
X74574Y32272D01*
X74282Y32372D01*
X73949D01*
X73574Y32222D01*
X73282Y31972D01*
X73074Y31672D01*
X72907Y31172D01*
X72866Y30722D01*
X72949Y30272D01*
X73074Y29972D01*
X73324Y29672D01*
X73616Y29472D01*
X73908Y29372D01*
X74199D01*
X74491Y29472D01*
X74741Y29622D01*
X74949Y29822D01*
G01X75991D02*
X76241Y29572D01*
X76532Y29422D01*
X76908Y29372D01*
X77283Y29472D01*
X77574Y29672D01*
X77783Y30022D01*
X77824Y30422D01*
X77741Y30822D01*
X77532Y31072D01*
X77241Y31272D01*
X76949Y31322D01*
X76658Y31272D01*
X76283Y31072D01*
X76408Y32372D01*
X77532D01*
G01X79116Y31872D02*
X79366Y32172D01*
X79658Y32322D01*
X79991Y32372D01*
X80408Y32272D01*
X80699Y32022D01*
X80782Y31722D01*
X80741Y31422D01*
X80574Y31172D01*
X79741Y30672D01*
X79366Y30322D01*
X79116Y29822D01*
X79032Y29372D01*
X80782D01*
G01X78017Y27732D02*
X80778D01*
Y23013D01*
X78017D01*
G01X73298Y27732D02*
X70537D01*
Y23013D01*
X73298D01*
G01X74824Y22122D02*
X74574Y22272D01*
X74282Y22372D01*
X73949D01*
X73574Y22222D01*
X73282Y21972D01*
X73074Y21672D01*
X72907Y21172D01*
X72866Y20722D01*
X72949Y20272D01*
X73074Y19972D01*
X73324Y19672D01*
X73616Y19472D01*
X73908Y19372D01*
X74199D01*
X74491Y19472D01*
X74741Y19622D01*
X74949Y19822D01*
G01X75991D02*
X76241Y19572D01*
X76532Y19422D01*
X76908Y19372D01*
X77283Y19472D01*
X77574Y19672D01*
X77783Y20022D01*
X77824Y20422D01*
X77741Y20822D01*
X77532Y21072D01*
X77241Y21272D01*
X76949Y21322D01*
X76658Y21272D01*
X76283Y21072D01*
X76408Y22372D01*
X77532D01*
G01X78991Y19972D02*
X79241Y19622D01*
X79574Y19422D01*
X79949Y19372D01*
X80282Y19422D01*
X80616Y19672D01*
X80824Y19972D01*
X80866Y20272D01*
X80782Y20622D01*
X80491Y20872D01*
X80199Y20972D01*
X79824D01*
G01X80199D02*
X80449Y21122D01*
X80658Y21372D01*
X80741Y21672D01*
X80658Y21972D01*
X80449Y22222D01*
X80074Y22372D01*
X79699Y22322D01*
X79324Y22122D01*
G01X78017Y17732D02*
X80778D01*
Y13013D01*
X78017D01*
G01X73298Y17732D02*
X70537D01*
Y13013D01*
X73298D01*
G01X85597Y64119D02*
X82837D01*
Y68839D01*
X85597D01*
G01X75767Y73150D02*
X75517Y73300D01*
X75225Y73400D01*
X74892D01*
X74517Y73250D01*
X74225Y73000D01*
X74017Y72700D01*
X73850Y72200D01*
X73808Y71750D01*
X73892Y71300D01*
X74017Y71000D01*
X74267Y70700D01*
X74558Y70500D01*
X74850Y70400D01*
X75142D01*
X75433Y70500D01*
X75683Y70650D01*
X75892Y70850D01*
G01X77850Y70400D02*
Y73400D01*
X77350Y72800D01*
G01Y70400D02*
X78350D01*
G01X79933Y71000D02*
X80183Y70650D01*
X80517Y70450D01*
X80892Y70400D01*
X81225Y70450D01*
X81558Y70700D01*
X81767Y71000D01*
X81808Y71300D01*
X81725Y71650D01*
X81433Y71900D01*
X81142Y72000D01*
X80767D01*
G01X81142D02*
X81392Y72150D01*
X81600Y72400D01*
X81683Y72700D01*
X81600Y73000D01*
X81392Y73250D01*
X81017Y73400D01*
X80642Y73350D01*
X80267Y73150D01*
G01X85598Y69481D02*
X82837D01*
Y74201D01*
X85598D01*
G01X85676Y74827D02*
X82916D01*
Y79547D01*
X85676D01*
G01Y85458D02*
X82916D01*
Y90178D01*
X85676D01*
G01X75467Y84150D02*
X75217Y84300D01*
X74925Y84400D01*
X74592D01*
X74217Y84250D01*
X73925Y84000D01*
X73717Y83700D01*
X73550Y83200D01*
X73508Y82750D01*
X73592Y82300D01*
X73717Y82000D01*
X73967Y81700D01*
X74258Y81500D01*
X74550Y81400D01*
X74842D01*
X75133Y81500D01*
X75383Y81650D01*
X75592Y81850D01*
G01X77550Y81400D02*
Y84400D01*
X77050Y83800D01*
G01Y81400D02*
X78050D01*
G01X80550Y84400D02*
X80217Y84300D01*
X79967Y84050D01*
X79800Y83750D01*
X79675Y83350D01*
X79633Y82900D01*
X79675Y82450D01*
X79800Y82050D01*
X79967Y81750D01*
X80217Y81500D01*
X80550Y81400D01*
X80883Y81500D01*
X81133Y81750D01*
X81300Y82050D01*
X81425Y82450D01*
X81467Y82900D01*
X81425Y83350D01*
X81300Y83750D01*
X81133Y84050D01*
X80883Y84300D01*
X80550Y84400D01*
G01X85698Y80181D02*
X82937D01*
Y84901D01*
X85698D01*
G01X75589Y107876D02*
Y112596D01*
X85829D01*
Y107876D01*
X75589D01*
G01X79132Y95274D02*
X74412D01*
Y105514D01*
X79132D01*
Y95274D01*
G01X87006D02*
X82286D01*
Y105514D01*
X87006D01*
Y95274D01*
G01X105964Y49410D02*
X103204D01*
Y54130D01*
X105964D01*
G01X95176Y49371D02*
X92416D01*
Y54091D01*
X95176D01*
G01X99896Y49371D02*
X102656D01*
Y54091D01*
X99896D01*
G01X90316Y64119D02*
X93077D01*
Y68839D01*
X90316D01*
G01X90317Y69481D02*
X93078D01*
Y74201D01*
X90317D01*
G01X90396Y74827D02*
X93156D01*
Y79547D01*
X90396D01*
G01Y85458D02*
X93156D01*
Y90178D01*
X90396D01*
G01X90417Y80181D02*
X93178D01*
Y84901D01*
X90417D01*
G01X106200Y93780D02*
X103440D01*
Y98500D01*
X106200D01*
G01X95373Y93780D02*
X92613D01*
Y98500D01*
X95373D01*
G01X100093Y93780D02*
X102853D01*
Y98500D01*
X100093D01*
G01X125331Y7646D02*
Y4885D01*
X130050D01*
Y7646D01*
G01X125331Y12365D02*
Y15126D01*
X130050D01*
Y12365D01*
G01X110684Y49410D02*
X113444D01*
Y54130D01*
X110684D01*
G01X121471Y54169D02*
X124231D01*
Y49449D01*
X121471D01*
G01X116751Y54169D02*
X113991D01*
Y49449D01*
X116751D01*
G01X127539Y54169D02*
X124778D01*
Y49450D01*
X127539D01*
G01X110920Y93780D02*
X113680D01*
Y98500D01*
X110920D01*
G01X127775D02*
X125015D01*
Y93780D01*
X127775D01*
G01X121707Y98500D02*
X124467D01*
Y93780D01*
X121707D01*
G01X116987Y98500D02*
X114227D01*
Y93780D01*
X116987D01*
G01X130803Y7685D02*
Y4925D01*
X135523D01*
Y7685D01*
G01X130803Y12405D02*
Y15165D01*
X135523D01*
Y12405D01*
G01X132258Y54169D02*
X135018D01*
Y49450D01*
X132258D01*
G01X138444Y54410D02*
X135684D01*
Y59130D01*
X138444D01*
G01X143164Y54410D02*
X145924D01*
Y59130D01*
X143164D01*
G01X138484Y59686D02*
X135723D01*
Y64406D01*
X138484D01*
G01X143203Y59686D02*
X145963D01*
Y64406D01*
X143203D01*
G01X146003Y69878D02*
Y65158D01*
X135763D01*
Y69878D01*
X146003D01*
G01X145978Y75164D02*
Y70444D01*
X135737D01*
Y75164D01*
X145978D01*
G01X138680Y77953D02*
X135920D01*
Y82673D01*
X138680D01*
G01X143400Y77953D02*
X146160D01*
Y82673D01*
X143400D01*
G01X138680Y88702D02*
X135920D01*
Y93421D01*
X138680D01*
G01X143400Y88702D02*
X146160D01*
Y93421D01*
X143400D01*
G01X146200Y88028D02*
Y83308D01*
X135959D01*
Y88028D01*
X146200D01*
G01X132494Y98500D02*
X135255D01*
Y93780D01*
X132494D01*
G01X162300Y18607D02*
X159541D01*
Y23327D01*
X162300D01*
G01X167020Y18607D02*
X169780D01*
Y23327D01*
X167020D01*
G01X162261Y13174D02*
X159501D01*
Y17894D01*
X162261D01*
G01X166981Y13174D02*
X169741D01*
Y17894D01*
X166981D01*
G01X205947Y50648D02*
X183446D01*
Y44648D01*
X184946D01*
Y38648D01*
X183446D01*
Y14648D01*
X184946D01*
Y8648D01*
X183446D01*
Y2648D01*
X205947D01*
Y50648D01*
G01X173189Y21235D02*
X173976Y20447D01*
X174763Y21235D01*
X175552Y20447D01*
X176339Y21235D01*
X177126Y20447D01*
G54D12*
G01X105454Y41656D02*
X99954D01*
G01X99254Y43656D02*
Y46656D01*
G01X98554Y43656D02*
Y46656D01*
G01X97954Y41656D02*
X92454D01*
Y42156D01*
Y48656D01*
X97954D01*
G01X99954D02*
X105454D01*
Y41656D01*
G01X105690Y99333D02*
X100190D01*
G01X99490Y101333D02*
Y104333D01*
G01X98790Y101333D02*
Y104333D01*
G01X98190Y99333D02*
X92690D01*
Y99833D01*
Y106333D01*
X98190D01*
G01X100190D02*
X105690D01*
Y99333D01*
G01X134942Y41735D02*
X129442D01*
G01X128742Y43735D02*
Y46735D01*
G01X128042Y43735D02*
Y46735D01*
G01X127442Y41735D02*
X121942D01*
Y42235D01*
Y48735D01*
X127442D01*
G01X129442D02*
X134942D01*
Y41735D01*
G01X129057Y101491D02*
Y104491D01*
G01X128357Y101491D02*
Y104491D01*
G01X127757Y99491D02*
X122257D01*
Y99991D01*
Y106491D01*
X127757D01*
G01X153166Y1554D02*
X142716D01*
G01X142658Y26314D02*
X137167Y31804D01*
G01X147758Y26314D02*
X142658D01*
G01X153166Y19874D02*
X142716D01*
G01X137167Y31804D02*
Y52894D01*
G01X147667Y52874D02*
X137167Y52894D01*
G01X148148Y95194D02*
X137767Y95114D01*
G01Y116204D02*
Y95114D01*
G01X135257Y99491D02*
X129757D01*
G01Y106491D02*
X135257D01*
Y99491D01*
G01X143258Y121694D02*
X137767Y116204D01*
G01X143258Y121694D02*
X148358Y121644D01*
G01X153166Y6074D02*
Y1554D01*
G01X158258Y26314D02*
X163748Y31804D01*
G01X158258Y26314D02*
X153158Y26364D01*
G01X153166Y19874D02*
Y15354D01*
G01X163748Y31804D02*
Y52894D01*
G01X166074Y40958D02*
Y51798D01*
G01X173174Y42768D02*
X166274D01*
G01X153367Y52814D02*
X163748Y52894D01*
G01X166834Y51798D02*
X166074D01*
G01X166067Y61374D02*
Y66874D01*
G01X168067Y67574D02*
X171067D01*
G01X168067Y68274D02*
X171067D01*
G01X166067Y68874D02*
Y74374D01*
X166567D01*
X173067D01*
Y68874D01*
G01Y66874D02*
Y61374D01*
X166067D01*
G01X166153Y79422D02*
Y90263D01*
G01X166913D02*
X166153D01*
G01X173253Y81233D02*
X166353D01*
G01X153848Y95134D02*
X164348Y95114D01*
G01Y116204D02*
Y95114D01*
G01X166074Y110499D02*
Y99659D01*
G01D02*
X166834D01*
G01X166274Y108689D02*
X173174D01*
G01X158858Y121694D02*
X164348Y116204D01*
G01X153758Y121694D02*
X158858D01*
G01X178658Y27841D02*
Y13841D01*
X171658D01*
Y27841D01*
X178658D01*
G01X173374Y40958D02*
Y51798D01*
G01D02*
X172615D01*
G01X173453Y79422D02*
Y90263D01*
G01D02*
X172693D01*
G01X173374Y110499D02*
Y99659D01*
G01X172615D02*
X173374D01*
G01X-25591Y72441D02*
Y7874D01*
X64961D01*
Y72441D01*
X-25591D01*
G01X1575Y7874D02*
Y72441D01*
G54D13*
G01X75267Y26952D02*
Y23793D01*
G01X76048Y26952D02*
Y23793D01*
G01X75267Y16952D02*
Y13793D01*
G01X76048Y16952D02*
Y13793D01*
G01X87566Y64899D02*
Y68059D01*
G01X87567Y70261D02*
Y73421D01*
G01X87646Y75608D02*
Y78767D01*
G01Y86237D02*
Y89398D01*
G01X87667Y80961D02*
Y84121D01*
G01X81099Y109056D02*
X80318D01*
Y111416D01*
X81099D01*
Y109056D01*
G01X80318D02*
X80709D01*
Y107876D01*
G01X81099Y111416D02*
X80709D01*
Y112596D01*
G01X77952Y100784D02*
Y100004D01*
X75592D01*
Y100784D01*
X77952D01*
G01Y100004D02*
Y100394D01*
X79132D01*
G01X75592Y100784D02*
Y100394D01*
X74412D01*
G01X85826Y100784D02*
Y100004D01*
X83466D01*
Y100784D01*
X85826D01*
G01Y100004D02*
Y100394D01*
X87006D01*
G01X83466Y100784D02*
Y100394D01*
X82286D01*
G01X107934Y50190D02*
Y53350D01*
G01X88347Y64899D02*
Y68059D01*
G01X97926Y50151D02*
Y53311D01*
G01X97146Y50151D02*
Y53311D01*
G01X88348Y70261D02*
Y73421D01*
G01X88426Y75608D02*
Y78767D01*
G01Y86237D02*
Y89398D01*
G01X88448Y80961D02*
Y84121D01*
G01X108170Y94560D02*
Y97720D01*
G01X98123Y94560D02*
Y97720D01*
G01X97343Y94560D02*
Y97720D01*
G01X126111Y9615D02*
X129270D01*
G01X126111Y10396D02*
X129270D01*
G01X108714Y50190D02*
Y53350D01*
G01X118721Y53389D02*
Y50229D01*
G01X119501Y53389D02*
Y50229D01*
G01X129508Y53389D02*
Y50230D01*
G01X108950Y94560D02*
Y97720D01*
G01X118957D02*
Y94560D01*
G01X119737Y97720D02*
Y94560D01*
G01X131583Y9655D02*
X134743D01*
G01X131583Y10435D02*
X134743D01*
G01X141194Y55190D02*
Y58350D01*
G01X140414Y55190D02*
Y58350D01*
G01X141234Y60466D02*
Y63626D01*
G01X140453Y60466D02*
Y63626D01*
G01X130289Y53389D02*
Y50230D01*
G01X140492Y68698D02*
X141273D01*
Y66338D01*
X140492D01*
Y68698D01*
G01X141273D02*
X140883D01*
Y69878D01*
G01X140492Y66338D02*
X140883D01*
Y65158D01*
G01X140467Y71624D02*
X140858D01*
Y70444D01*
G01X141430Y78734D02*
Y81893D01*
G01X140650Y78734D02*
Y81893D01*
G01X141430Y89482D02*
Y92641D01*
G01X140650Y89482D02*
Y92641D01*
G01X140689Y86848D02*
X141470D01*
Y84488D01*
X140689D01*
Y86848D01*
G01X141470D02*
X141080D01*
Y88028D01*
G01X140689Y84488D02*
X141080D01*
Y83308D01*
G01X140467Y73984D02*
X141248D01*
Y71624D01*
X140467D01*
Y73984D01*
G01X141248D02*
X140858D01*
Y75164D01*
G01X129744Y97720D02*
Y94560D01*
G01X130525Y97720D02*
Y94560D01*
G01X165050Y19387D02*
Y22547D01*
G01X164270Y19387D02*
Y22547D01*
G01X165011Y13954D02*
Y17114D01*
G01X164231Y13954D02*
Y17114D01*
G54D14*
G01X183419Y65349D02*
X186568D01*
Y58656D01*
X183419D01*
G01Y75191D02*
X186568D01*
Y68498D01*
X183419D01*
G01X206057Y81491D02*
X183419D01*
Y52357D01*
X206057D01*
Y81491D01*
G01X183537Y96136D02*
X186687D01*
Y89443D01*
X183537D01*
G01X206175Y112278D02*
X183537D01*
Y83144D01*
X206175D01*
Y112278D01*
G01X183537Y105979D02*
X186687D01*
Y99286D01*
X183537D01*
G54D15*
G01X4353Y74100D02*
Y77250D01*
X5350Y74625D01*
X6347Y77250D01*
Y74100D01*
G01X8450D02*
Y77250D01*
X7990Y76620D01*
G01Y74100D02*
X8910D01*
G01X19383Y77830D02*
X19575Y77515D01*
X19805Y77305D01*
X20073Y77200D01*
X20380Y77305D01*
X20610Y77515D01*
X20840Y77830D01*
X20917Y78250D01*
Y80350D01*
G01X22407Y77672D02*
X22637Y77410D01*
X22905Y77252D01*
X23250Y77200D01*
X23595Y77305D01*
X23863Y77515D01*
X24055Y77883D01*
X24093Y78302D01*
X24017Y78722D01*
X23825Y78985D01*
X23557Y79195D01*
X23288Y79247D01*
X23020Y79195D01*
X22675Y78985D01*
X22790Y80350D01*
X23825D01*
G01X75450Y67966D02*
X75220Y68124D01*
X74952Y68229D01*
X74645D01*
X74300Y68071D01*
X74032Y67809D01*
X73840Y67494D01*
X73687Y66969D01*
X73648Y66496D01*
X73725Y66024D01*
X73840Y65709D01*
X74070Y65394D01*
X74338Y65184D01*
X74607Y65079D01*
X74875D01*
X75143Y65184D01*
X75373Y65341D01*
X75565Y65551D01*
G01X77707Y65079D02*
Y68229D01*
X77247Y67599D01*
G01Y65079D02*
X78167D01*
G01X79963Y65551D02*
X80193Y65289D01*
X80462Y65131D01*
X80807Y65079D01*
X81152Y65184D01*
X81420Y65394D01*
X81612Y65761D01*
X81650Y66181D01*
X81573Y66601D01*
X81382Y66864D01*
X81113Y67074D01*
X80845Y67126D01*
X80577Y67074D01*
X80232Y66864D01*
X80347Y68229D01*
X81382D01*
G01X75529Y78675D02*
X75299Y78832D01*
X75030Y78937D01*
X74724D01*
X74379Y78780D01*
X74110Y78517D01*
X73919Y78202D01*
X73765Y77677D01*
X73727Y77205D01*
X73804Y76732D01*
X73919Y76417D01*
X74149Y76102D01*
X74417Y75892D01*
X74685Y75787D01*
X74954D01*
X75222Y75892D01*
X75452Y76050D01*
X75644Y76260D01*
G01X77785Y75787D02*
Y78937D01*
X77325Y78307D01*
G01Y75787D02*
X78245D01*
G01X80157Y78412D02*
X80387Y78727D01*
X80655Y78885D01*
X80962Y78937D01*
X81345Y78832D01*
X81614Y78570D01*
X81690Y78255D01*
X81652Y77940D01*
X81499Y77677D01*
X80732Y77152D01*
X80387Y76785D01*
X80157Y76260D01*
X80080Y75787D01*
X81690D01*
G01X75529Y89305D02*
X75299Y89462D01*
X75030Y89567D01*
X74724D01*
X74379Y89410D01*
X74110Y89147D01*
X73919Y88832D01*
X73765Y88307D01*
X73727Y87835D01*
X73804Y87362D01*
X73919Y87047D01*
X74149Y86732D01*
X74417Y86522D01*
X74685Y86417D01*
X74954D01*
X75222Y86522D01*
X75452Y86680D01*
X75644Y86890D01*
G01X77134Y86785D02*
X77402Y86522D01*
X77709Y86417D01*
X78015Y86522D01*
X78284Y86837D01*
X78475Y87310D01*
X78552Y87782D01*
Y88360D01*
X78475Y88832D01*
X78284Y89252D01*
X78054Y89462D01*
X77785Y89567D01*
X77479Y89462D01*
X77249Y89252D01*
X77095Y88937D01*
X77019Y88517D01*
X77095Y88150D01*
X77287Y87782D01*
X77517Y87572D01*
X77785Y87520D01*
X78092Y87625D01*
X78322Y87887D01*
X78552Y88360D01*
G01X73283Y91000D02*
Y94150D01*
X74242D01*
X74548Y93992D01*
X74740Y93782D01*
X74817Y93362D01*
X74740Y92942D01*
X74510Y92680D01*
X74242Y92523D01*
X73283D01*
G01X74242D02*
X74817Y91000D01*
G01X77150D02*
Y94150D01*
X76690Y93520D01*
G01Y91000D02*
X77610D01*
G01X79407Y91472D02*
X79637Y91210D01*
X79905Y91052D01*
X80250Y91000D01*
X80595Y91105D01*
X80863Y91315D01*
X81055Y91683D01*
X81093Y92102D01*
X81017Y92523D01*
X80825Y92785D01*
X80557Y92995D01*
X80288Y93047D01*
X80020Y92995D01*
X79675Y92785D01*
X79790Y94150D01*
X80825D01*
G01X78083Y114300D02*
Y117450D01*
X79042D01*
X79348Y117292D01*
X79540Y117082D01*
X79617Y116662D01*
X79540Y116242D01*
X79310Y115980D01*
X79042Y115822D01*
X78083D01*
G01X79042D02*
X79617Y114300D01*
G01X81950D02*
Y117450D01*
X81490Y116820D01*
G01Y114300D02*
X82410D01*
G01X85510D02*
Y117450D01*
X84092Y115193D01*
X86008D01*
G01X73883Y123600D02*
Y126750D01*
X74842D01*
X75148Y126592D01*
X75340Y126382D01*
X75417Y125962D01*
X75340Y125542D01*
X75110Y125280D01*
X74842Y125122D01*
X73883D01*
G01X74842D02*
X75417Y123600D01*
G01X76983D02*
Y126750D01*
X77903D01*
X78210Y126592D01*
X78440Y126225D01*
X78517Y125805D01*
X78440Y125385D01*
X78248Y125070D01*
X77903Y124912D01*
X76983D01*
G01X80850Y123600D02*
Y126750D01*
X80390Y126120D01*
G01Y123600D02*
X81310D01*
G01X99951Y40028D02*
X99721Y40186D01*
X99452Y40291D01*
X99146D01*
X98801Y40133D01*
X98533Y39871D01*
X98341Y39556D01*
X98188Y39031D01*
X98149Y38558D01*
X98226Y38086D01*
X98341Y37771D01*
X98571Y37456D01*
X98839Y37246D01*
X99108Y37141D01*
X99376D01*
X99644Y37246D01*
X99874Y37403D01*
X100066Y37613D01*
G01X101364Y37771D02*
X101594Y37403D01*
X101901Y37193D01*
X102246Y37141D01*
X102552Y37193D01*
X102859Y37456D01*
X103051Y37771D01*
X103089Y38086D01*
X103012Y38453D01*
X102744Y38716D01*
X102476Y38821D01*
X102131D01*
G01X102476D02*
X102706Y38978D01*
X102898Y39241D01*
X102974Y39556D01*
X102898Y39871D01*
X102706Y40133D01*
X102361Y40291D01*
X102016Y40238D01*
X101671Y40028D01*
G01X105308Y40291D02*
X105001Y40186D01*
X104771Y39923D01*
X104618Y39608D01*
X104503Y39188D01*
X104464Y38716D01*
X104503Y38243D01*
X104618Y37823D01*
X104771Y37508D01*
X105001Y37246D01*
X105308Y37141D01*
X105614Y37246D01*
X105844Y37508D01*
X105997Y37823D01*
X106113Y38243D01*
X106151Y38716D01*
X106113Y39188D01*
X105997Y39608D01*
X105844Y39923D01*
X105614Y40186D01*
X105308Y40291D01*
G01X106751Y58128D02*
X106521Y58286D01*
X106253Y58391D01*
X105946D01*
X105601Y58233D01*
X105332Y57971D01*
X105141Y57656D01*
X104988Y57131D01*
X104949Y56658D01*
X105026Y56186D01*
X105141Y55871D01*
X105371Y55556D01*
X105639Y55346D01*
X105908Y55241D01*
X106176D01*
X106444Y55346D01*
X106674Y55503D01*
X106866Y55713D01*
G01X108279Y57866D02*
X108509Y58181D01*
X108778Y58338D01*
X109084Y58391D01*
X109468Y58286D01*
X109736Y58023D01*
X109812Y57708D01*
X109774Y57393D01*
X109621Y57131D01*
X108854Y56606D01*
X108509Y56238D01*
X108279Y55713D01*
X108202Y55241D01*
X109812D01*
G01X112031D02*
X112108Y55923D01*
X112222Y56501D01*
X112376Y57026D01*
X112568Y57603D01*
X112874Y58391D01*
X111341D01*
G01X95251Y58228D02*
X95021Y58386D01*
X94752Y58491D01*
X94446D01*
X94101Y58333D01*
X93833Y58071D01*
X93641Y57756D01*
X93488Y57231D01*
X93449Y56758D01*
X93526Y56286D01*
X93641Y55971D01*
X93871Y55656D01*
X94139Y55446D01*
X94408Y55341D01*
X94676D01*
X94944Y55446D01*
X95174Y55603D01*
X95366Y55813D01*
G01X96779Y57966D02*
X97009Y58281D01*
X97278Y58438D01*
X97584Y58491D01*
X97968Y58386D01*
X98236Y58123D01*
X98312Y57808D01*
X98274Y57493D01*
X98121Y57231D01*
X97354Y56706D01*
X97009Y56338D01*
X96779Y55813D01*
X96702Y55341D01*
X98312D01*
G01X100608D02*
X100876Y55393D01*
X101182Y55551D01*
X101374Y55813D01*
X101451Y56181D01*
X101374Y56548D01*
X101144Y56863D01*
X100799Y57021D01*
X100416D01*
X100186Y57126D01*
X99994Y57388D01*
X99917Y57756D01*
X100033Y58123D01*
X100301Y58386D01*
X100608Y58491D01*
X100914Y58386D01*
X101182Y58123D01*
X101298Y57756D01*
X101221Y57388D01*
X101029Y57126D01*
X100799Y57021D01*
X100416D01*
X100071Y56863D01*
X99841Y56548D01*
X99764Y56181D01*
X99841Y55813D01*
X100033Y55551D01*
X100339Y55393D01*
X100608Y55341D01*
G01X98564Y63291D02*
Y61033D01*
X98718Y60561D01*
X99024Y60246D01*
X99408Y60141D01*
X99791Y60246D01*
X100098Y60561D01*
X100251Y61033D01*
Y63291D01*
G01X102508Y60141D02*
Y63291D01*
X102048Y62661D01*
G01Y60141D02*
X102967D01*
G01X107851Y92528D02*
X107621Y92686D01*
X107352Y92791D01*
X107046D01*
X106701Y92633D01*
X106432Y92371D01*
X106241Y92056D01*
X106088Y91531D01*
X106049Y91058D01*
X106126Y90586D01*
X106241Y90271D01*
X106471Y89956D01*
X106739Y89746D01*
X107008Y89641D01*
X107276D01*
X107544Y89746D01*
X107774Y89903D01*
X107966Y90113D01*
G01X110031Y89641D02*
X110108Y90323D01*
X110222Y90901D01*
X110376Y91426D01*
X110568Y92003D01*
X110874Y92791D01*
X109341D01*
G01X100051Y92528D02*
X99821Y92686D01*
X99552Y92791D01*
X99246D01*
X98901Y92633D01*
X98633Y92371D01*
X98441Y92056D01*
X98288Y91531D01*
X98249Y91058D01*
X98326Y90586D01*
X98441Y90271D01*
X98671Y89956D01*
X98939Y89746D01*
X99208Y89641D01*
X99476D01*
X99744Y89746D01*
X99974Y89903D01*
X100166Y90113D01*
G01X102767Y89641D02*
Y92791D01*
X101349Y90533D01*
X103266D01*
G01X91100Y96283D02*
X87950D01*
Y97242D01*
X88108Y97548D01*
X88318Y97740D01*
X88738Y97817D01*
X89158Y97740D01*
X89420Y97510D01*
X89578Y97242D01*
Y96283D01*
G01Y97242D02*
X91100Y97817D01*
G01Y100150D02*
X87950D01*
X88580Y99690D01*
G01X91100D02*
Y100610D01*
G01X89788Y102522D02*
X89420Y102790D01*
X89210Y103020D01*
X89105Y103327D01*
X89210Y103595D01*
X89420Y103787D01*
X89735Y103940D01*
X90102Y103978D01*
X90418Y103940D01*
X90733Y103787D01*
X90995Y103557D01*
X91100Y103288D01*
X90995Y102982D01*
X90680Y102713D01*
X90208Y102560D01*
X89683Y102522D01*
X89000Y102598D01*
X88632Y102713D01*
X88265Y102905D01*
X88002Y103173D01*
X87950Y103442D01*
X88055Y103710D01*
X88318Y103902D01*
G01X99051Y110628D02*
X98821Y110786D01*
X98552Y110891D01*
X98246D01*
X97901Y110733D01*
X97633Y110471D01*
X97441Y110156D01*
X97288Y109631D01*
X97249Y109158D01*
X97326Y108686D01*
X97441Y108371D01*
X97671Y108056D01*
X97939Y107846D01*
X98208Y107741D01*
X98476D01*
X98744Y107846D01*
X98974Y108003D01*
X99166Y108213D01*
G01X100464Y108371D02*
X100694Y108003D01*
X101001Y107793D01*
X101346Y107741D01*
X101652Y107793D01*
X101959Y108056D01*
X102151Y108371D01*
X102189Y108686D01*
X102112Y109053D01*
X101844Y109316D01*
X101576Y109421D01*
X101231D01*
G01X101576D02*
X101806Y109578D01*
X101998Y109841D01*
X102074Y110156D01*
X101998Y110471D01*
X101806Y110733D01*
X101461Y110891D01*
X101116Y110838D01*
X100771Y110628D01*
G01X115760Y8510D02*
X115603Y8280D01*
X115498Y8011D01*
Y7705D01*
X115656Y7360D01*
X115918Y7092D01*
X116233Y6900D01*
X116758Y6747D01*
X117231Y6708D01*
X117703Y6785D01*
X118018Y6900D01*
X118333Y7130D01*
X118543Y7398D01*
X118648Y7667D01*
Y7935D01*
X118543Y8203D01*
X118386Y8433D01*
X118176Y8625D01*
G01X118648Y11226D02*
X115498D01*
X117756Y9808D01*
Y11725D01*
G01X116023Y13138D02*
X115708Y13368D01*
X115551Y13637D01*
X115498Y13943D01*
X115603Y14326D01*
X115866Y14595D01*
X116181Y14672D01*
X116496Y14633D01*
X116758Y14480D01*
X117283Y13713D01*
X117651Y13368D01*
X118176Y13138D01*
X118648Y13062D01*
Y14672D01*
G01X121233Y8549D02*
X121076Y8319D01*
X120970Y8051D01*
Y7744D01*
X121128Y7399D01*
X121390Y7131D01*
X121706Y6939D01*
X122231Y6786D01*
X122703Y6747D01*
X123176Y6824D01*
X123490Y6939D01*
X123806Y7169D01*
X124015Y7438D01*
X124120Y7706D01*
Y7974D01*
X124015Y8243D01*
X123858Y8473D01*
X123648Y8664D01*
G01X124120Y11266D02*
X120970D01*
X123228Y9848D01*
Y11764D01*
G01X124120Y13906D02*
X120970D01*
X121601Y13446D01*
G01X124120D02*
Y14366D01*
G01X128051Y40428D02*
X127821Y40586D01*
X127552Y40691D01*
X127246D01*
X126901Y40533D01*
X126633Y40271D01*
X126441Y39956D01*
X126288Y39431D01*
X126249Y38958D01*
X126326Y38486D01*
X126441Y38171D01*
X126671Y37856D01*
X126939Y37646D01*
X127208Y37541D01*
X127476D01*
X127744Y37646D01*
X127974Y37803D01*
X128166Y38013D01*
G01X129579Y40166D02*
X129809Y40481D01*
X130078Y40638D01*
X130384Y40691D01*
X130767Y40586D01*
X131036Y40323D01*
X131112Y40008D01*
X131074Y39693D01*
X130921Y39431D01*
X130154Y38906D01*
X129809Y38538D01*
X129579Y38013D01*
X129503Y37541D01*
X131112D01*
G01X132756Y37908D02*
X133024Y37646D01*
X133331Y37541D01*
X133638Y37646D01*
X133906Y37961D01*
X134098Y38433D01*
X134174Y38906D01*
Y39483D01*
X134098Y39956D01*
X133906Y40376D01*
X133676Y40586D01*
X133408Y40691D01*
X133101Y40586D01*
X132871Y40376D01*
X132718Y40061D01*
X132641Y39641D01*
X132718Y39273D01*
X132909Y38906D01*
X133139Y38696D01*
X133408Y38643D01*
X133714Y38748D01*
X133944Y39011D01*
X134174Y39483D01*
G01X117651Y58328D02*
X117421Y58486D01*
X117153Y58591D01*
X116846D01*
X116501Y58433D01*
X116232Y58171D01*
X116041Y57856D01*
X115888Y57331D01*
X115849Y56858D01*
X115926Y56386D01*
X116041Y56071D01*
X116271Y55756D01*
X116539Y55546D01*
X116808Y55441D01*
X117076D01*
X117344Y55546D01*
X117574Y55703D01*
X117766Y55913D01*
G01X119179Y58066D02*
X119409Y58381D01*
X119678Y58538D01*
X119984Y58591D01*
X120368Y58486D01*
X120636Y58223D01*
X120712Y57908D01*
X120674Y57593D01*
X120521Y57331D01*
X119754Y56806D01*
X119409Y56438D01*
X119179Y55913D01*
X119103Y55441D01*
X120712D01*
G01X122279Y56753D02*
X122547Y57121D01*
X122778Y57331D01*
X123084Y57436D01*
X123353Y57331D01*
X123544Y57121D01*
X123698Y56806D01*
X123736Y56438D01*
X123698Y56123D01*
X123544Y55808D01*
X123314Y55546D01*
X123046Y55441D01*
X122739Y55546D01*
X122471Y55861D01*
X122317Y56333D01*
X122279Y56858D01*
X122356Y57541D01*
X122471Y57908D01*
X122663Y58276D01*
X122931Y58538D01*
X123199Y58591D01*
X123468Y58486D01*
X123659Y58223D01*
G01X127651Y58228D02*
X127421Y58386D01*
X127152Y58491D01*
X126846D01*
X126501Y58333D01*
X126233Y58071D01*
X126041Y57756D01*
X125888Y57231D01*
X125849Y56758D01*
X125926Y56286D01*
X126041Y55971D01*
X126271Y55656D01*
X126539Y55446D01*
X126808Y55341D01*
X127076D01*
X127344Y55446D01*
X127574Y55603D01*
X127766Y55813D01*
G01X129179Y57966D02*
X129409Y58281D01*
X129678Y58438D01*
X129984Y58491D01*
X130367Y58386D01*
X130636Y58123D01*
X130713Y57808D01*
X130674Y57493D01*
X130521Y57231D01*
X129754Y56706D01*
X129409Y56338D01*
X129179Y55813D01*
X129103Y55341D01*
X130713D01*
G01X132164Y55813D02*
X132394Y55551D01*
X132662Y55393D01*
X133008Y55341D01*
X133352Y55446D01*
X133621Y55656D01*
X133812Y56023D01*
X133851Y56443D01*
X133774Y56863D01*
X133582Y57126D01*
X133314Y57336D01*
X133046Y57388D01*
X132778Y57336D01*
X132432Y57126D01*
X132548Y58491D01*
X133582D01*
G01X129441Y66041D02*
Y69191D01*
X130399D01*
X130706Y69033D01*
X130898Y68823D01*
X130974Y68403D01*
X130898Y67983D01*
X130668Y67721D01*
X130399Y67563D01*
X129441D01*
G01X130399D02*
X130974Y66041D01*
G01X132464Y66513D02*
X132694Y66251D01*
X132962Y66093D01*
X133308Y66041D01*
X133653Y66146D01*
X133921Y66356D01*
X134112Y66723D01*
X134151Y67143D01*
X134074Y67563D01*
X133883Y67826D01*
X133614Y68036D01*
X133346Y68088D01*
X133078Y68036D01*
X132732Y67826D01*
X132847Y69191D01*
X133883D01*
G01X128041Y71441D02*
Y74591D01*
X128999D01*
X129306Y74433D01*
X129498Y74223D01*
X129574Y73803D01*
X129498Y73383D01*
X129268Y73121D01*
X128999Y72963D01*
X128041D01*
G01X128999D02*
X129574Y71441D01*
G01X132368D02*
Y74591D01*
X130949Y72333D01*
X132866D01*
G01X129351Y81628D02*
X129121Y81786D01*
X128853Y81891D01*
X128546D01*
X128201Y81733D01*
X127932Y81471D01*
X127741Y81156D01*
X127588Y80631D01*
X127549Y80158D01*
X127626Y79686D01*
X127741Y79371D01*
X127971Y79056D01*
X128239Y78846D01*
X128508Y78741D01*
X128776D01*
X129044Y78846D01*
X129274Y79003D01*
X129466Y79213D01*
G01X131608Y78741D02*
Y81891D01*
X131148Y81261D01*
G01Y78741D02*
X132067D01*
G01X134708D02*
Y81891D01*
X134248Y81261D01*
G01Y78741D02*
X135167D01*
G01X124451Y92328D02*
X124221Y92486D01*
X123953Y92591D01*
X123646D01*
X123301Y92433D01*
X123033Y92171D01*
X122841Y91856D01*
X122688Y91331D01*
X122649Y90858D01*
X122726Y90386D01*
X122841Y90071D01*
X123071Y89756D01*
X123339Y89546D01*
X123608Y89441D01*
X123876D01*
X124144Y89546D01*
X124374Y89703D01*
X124566Y89913D01*
G01X125979Y90753D02*
X126248Y91121D01*
X126478Y91331D01*
X126784Y91436D01*
X127053Y91331D01*
X127244Y91121D01*
X127397Y90806D01*
X127436Y90438D01*
X127397Y90123D01*
X127244Y89808D01*
X127014Y89546D01*
X126746Y89441D01*
X126439Y89546D01*
X126171Y89861D01*
X126018Y90333D01*
X125979Y90858D01*
X126056Y91541D01*
X126171Y91908D01*
X126362Y92276D01*
X126631Y92538D01*
X126899Y92591D01*
X127167Y92486D01*
X127359Y92223D01*
G01X131051Y92328D02*
X130821Y92486D01*
X130552Y92591D01*
X130246D01*
X129901Y92433D01*
X129633Y92171D01*
X129441Y91856D01*
X129288Y91331D01*
X129249Y90858D01*
X129326Y90386D01*
X129441Y90071D01*
X129671Y89756D01*
X129939Y89546D01*
X130208Y89441D01*
X130476D01*
X130744Y89546D01*
X130974Y89703D01*
X131166Y89913D01*
G01X133308Y89441D02*
X133576Y89493D01*
X133883Y89651D01*
X134074Y89913D01*
X134151Y90281D01*
X134074Y90648D01*
X133844Y90963D01*
X133499Y91121D01*
X133116D01*
X132886Y91226D01*
X132694Y91488D01*
X132618Y91856D01*
X132732Y92223D01*
X133001Y92486D01*
X133308Y92591D01*
X133614Y92486D01*
X133883Y92223D01*
X133998Y91856D01*
X133921Y91488D01*
X133729Y91226D01*
X133499Y91121D01*
X133116D01*
X132771Y90963D01*
X132541Y90648D01*
X132464Y90281D01*
X132541Y89913D01*
X132732Y89651D01*
X133039Y89493D01*
X133308Y89441D01*
G01X117751Y92028D02*
X117521Y92186D01*
X117252Y92291D01*
X116946D01*
X116601Y92133D01*
X116333Y91871D01*
X116141Y91556D01*
X115988Y91031D01*
X115949Y90558D01*
X116026Y90086D01*
X116141Y89771D01*
X116371Y89456D01*
X116639Y89246D01*
X116908Y89141D01*
X117176D01*
X117444Y89246D01*
X117674Y89403D01*
X117866Y89613D01*
G01X119164D02*
X119394Y89351D01*
X119662Y89193D01*
X120008Y89141D01*
X120353Y89246D01*
X120621Y89456D01*
X120813Y89823D01*
X120851Y90243D01*
X120774Y90663D01*
X120583Y90926D01*
X120314Y91136D01*
X120046Y91188D01*
X119778Y91136D01*
X119433Y90926D01*
X119547Y92291D01*
X120583D01*
G01X129741Y84141D02*
Y87291D01*
X130699D01*
X131006Y87133D01*
X131198Y86923D01*
X131274Y86503D01*
X131198Y86083D01*
X130967Y85821D01*
X130699Y85663D01*
X129741D01*
G01X130699D02*
X131274Y84141D01*
G01X132764Y84771D02*
X132994Y84403D01*
X133301Y84193D01*
X133646Y84141D01*
X133952Y84193D01*
X134259Y84456D01*
X134451Y84771D01*
X134489Y85086D01*
X134412Y85453D01*
X134144Y85716D01*
X133876Y85821D01*
X133531D01*
G01X133876D02*
X134106Y85978D01*
X134298Y86241D01*
X134374Y86556D01*
X134298Y86871D01*
X134106Y87133D01*
X133761Y87291D01*
X133416Y87238D01*
X133071Y87028D01*
G01X128351Y110628D02*
X128121Y110786D01*
X127853Y110891D01*
X127546D01*
X127201Y110733D01*
X126932Y110471D01*
X126741Y110156D01*
X126588Y109631D01*
X126549Y109158D01*
X126626Y108686D01*
X126741Y108371D01*
X126971Y108056D01*
X127239Y107846D01*
X127508Y107741D01*
X127776D01*
X128044Y107846D01*
X128274Y108003D01*
X128466Y108213D01*
G01X129879Y110366D02*
X130109Y110681D01*
X130378Y110838D01*
X130684Y110891D01*
X131068Y110786D01*
X131336Y110523D01*
X131412Y110208D01*
X131374Y109893D01*
X131221Y109631D01*
X130454Y109106D01*
X130109Y108738D01*
X129879Y108213D01*
X129803Y107741D01*
X131412D01*
G01X130764Y19291D02*
Y17033D01*
X130918Y16561D01*
X131224Y16246D01*
X131608Y16141D01*
X131991Y16246D01*
X132298Y16561D01*
X132451Y17033D01*
Y19291D01*
G01X133864Y16771D02*
X134094Y16403D01*
X134401Y16193D01*
X134746Y16141D01*
X135053Y16193D01*
X135359Y16456D01*
X135551Y16771D01*
X135589Y17086D01*
X135512Y17453D01*
X135244Y17716D01*
X134976Y17821D01*
X134631D01*
G01X134976D02*
X135206Y17978D01*
X135398Y18241D01*
X135474Y18556D01*
X135398Y18871D01*
X135206Y19133D01*
X134861Y19291D01*
X134516Y19238D01*
X134171Y19028D01*
G01X148997Y60658D02*
X148767Y60815D01*
X148499Y60920D01*
X148192D01*
X147847Y60762D01*
X147579Y60500D01*
X147387Y60185D01*
X147234Y59660D01*
X147196Y59188D01*
X147272Y58715D01*
X147387Y58400D01*
X147617Y58085D01*
X147886Y57875D01*
X148154Y57770D01*
X148422D01*
X148691Y57875D01*
X148921Y58033D01*
X149112Y58242D01*
G01X150526Y60395D02*
X150756Y60710D01*
X151024Y60868D01*
X151331Y60920D01*
X151714Y60815D01*
X151982Y60553D01*
X152059Y60238D01*
X152021Y59922D01*
X151867Y59660D01*
X151101Y59135D01*
X150756Y58768D01*
X150526Y58242D01*
X150449Y57770D01*
X152059D01*
G01X153511Y58400D02*
X153740Y58033D01*
X154047Y57823D01*
X154392Y57770D01*
X154699Y57823D01*
X155006Y58085D01*
X155197Y58400D01*
X155236Y58715D01*
X155159Y59083D01*
X154891Y59345D01*
X154622Y59450D01*
X154277D01*
G01X154622D02*
X154852Y59608D01*
X155044Y59870D01*
X155121Y60185D01*
X155044Y60500D01*
X154852Y60762D01*
X154507Y60920D01*
X154162Y60868D01*
X153817Y60658D01*
G01X149037Y65933D02*
X148807Y66091D01*
X148538Y66196D01*
X148232D01*
X147887Y66038D01*
X147618Y65776D01*
X147427Y65461D01*
X147273Y64936D01*
X147235Y64463D01*
X147312Y63991D01*
X147427Y63676D01*
X147657Y63361D01*
X147925Y63151D01*
X148193Y63046D01*
X148462D01*
X148730Y63151D01*
X148960Y63308D01*
X149152Y63518D01*
G01X151293Y63046D02*
Y66196D01*
X150833Y65566D01*
G01Y63046D02*
X151753D01*
G01X153665Y64358D02*
X153933Y64726D01*
X154163Y64936D01*
X154470Y65041D01*
X154738Y64936D01*
X154930Y64726D01*
X155083Y64411D01*
X155122Y64043D01*
X155083Y63728D01*
X154930Y63413D01*
X154700Y63151D01*
X154432Y63046D01*
X154125Y63151D01*
X153857Y63466D01*
X153703Y63938D01*
X153665Y64463D01*
X153742Y65146D01*
X153857Y65513D01*
X154048Y65881D01*
X154317Y66143D01*
X154585Y66196D01*
X154853Y66091D01*
X155045Y65828D01*
G01X163193Y11288D02*
X162963Y11445D01*
X162695Y11550D01*
X162388D01*
X162043Y11392D01*
X161775Y11130D01*
X161583Y10815D01*
X161430Y10290D01*
X161392Y9818D01*
X161468Y9345D01*
X161583Y9030D01*
X161813Y8715D01*
X162082Y8505D01*
X162350Y8400D01*
X162618D01*
X162887Y8505D01*
X163117Y8662D01*
X163308Y8872D01*
G01X164607Y9030D02*
X164837Y8662D01*
X165143Y8452D01*
X165488Y8400D01*
X165795Y8452D01*
X166102Y8715D01*
X166293Y9030D01*
X166332Y9345D01*
X166255Y9712D01*
X165987Y9975D01*
X165718Y10080D01*
X165373D01*
G01X165718D02*
X165948Y10238D01*
X166140Y10500D01*
X166217Y10815D01*
X166140Y11130D01*
X165948Y11392D01*
X165603Y11550D01*
X165258Y11498D01*
X164913Y11288D01*
G01X167898Y8767D02*
X168167Y8505D01*
X168473Y8400D01*
X168780Y8505D01*
X169048Y8820D01*
X169240Y9292D01*
X169317Y9765D01*
Y10342D01*
X169240Y10815D01*
X169048Y11235D01*
X168818Y11445D01*
X168550Y11550D01*
X168243Y11445D01*
X168013Y11235D01*
X167860Y10920D01*
X167783Y10500D01*
X167860Y10132D01*
X168052Y9765D01*
X168282Y9555D01*
X168550Y9503D01*
X168857Y9607D01*
X169087Y9870D01*
X169317Y10342D01*
G01X163793Y27188D02*
X163563Y27345D01*
X163295Y27450D01*
X162988D01*
X162643Y27292D01*
X162375Y27030D01*
X162183Y26715D01*
X162030Y26190D01*
X161992Y25718D01*
X162068Y25245D01*
X162183Y24930D01*
X162413Y24615D01*
X162682Y24405D01*
X162950Y24300D01*
X163218D01*
X163487Y24405D01*
X163717Y24562D01*
X163908Y24772D01*
G01X165207Y24930D02*
X165437Y24562D01*
X165743Y24353D01*
X166088Y24300D01*
X166395Y24353D01*
X166702Y24615D01*
X166893Y24930D01*
X166932Y25245D01*
X166855Y25612D01*
X166587Y25875D01*
X166318Y25980D01*
X165973D01*
G01X166318D02*
X166548Y26138D01*
X166740Y26400D01*
X166817Y26715D01*
X166740Y27030D01*
X166548Y27292D01*
X166203Y27450D01*
X165858Y27398D01*
X165513Y27188D01*
G01X169150Y24300D02*
X169418Y24353D01*
X169725Y24510D01*
X169917Y24772D01*
X169993Y25140D01*
X169917Y25507D01*
X169687Y25823D01*
X169342Y25980D01*
X168958D01*
X168728Y26085D01*
X168537Y26347D01*
X168460Y26715D01*
X168575Y27082D01*
X168843Y27345D01*
X169150Y27450D01*
X169457Y27345D01*
X169725Y27082D01*
X169840Y26715D01*
X169763Y26347D01*
X169572Y26085D01*
X169342Y25980D01*
X168958D01*
X168613Y25823D01*
X168383Y25507D01*
X168307Y25140D01*
X168383Y24772D01*
X168575Y24510D01*
X168882Y24353D01*
X169150Y24300D01*
G01X157351Y57028D02*
X157121Y57186D01*
X156853Y57291D01*
X156546D01*
X156201Y57133D01*
X155932Y56871D01*
X155741Y56556D01*
X155588Y56031D01*
X155549Y55558D01*
X155626Y55086D01*
X155741Y54771D01*
X155971Y54456D01*
X156239Y54246D01*
X156508Y54141D01*
X156776D01*
X157044Y54246D01*
X157274Y54403D01*
X157466Y54613D01*
G01X158764Y54771D02*
X158994Y54403D01*
X159301Y54193D01*
X159646Y54141D01*
X159952Y54193D01*
X160259Y54456D01*
X160451Y54771D01*
X160489Y55086D01*
X160412Y55453D01*
X160144Y55716D01*
X159876Y55821D01*
X159531D01*
G01X159876D02*
X160106Y55978D01*
X160298Y56241D01*
X160374Y56556D01*
X160298Y56871D01*
X160106Y57133D01*
X159761Y57291D01*
X159416Y57238D01*
X159071Y57028D01*
G01X161864Y54771D02*
X162094Y54403D01*
X162401Y54193D01*
X162746Y54141D01*
X163053Y54193D01*
X163359Y54456D01*
X163551Y54771D01*
X163589Y55086D01*
X163512Y55453D01*
X163244Y55716D01*
X162976Y55821D01*
X162631D01*
G01X162976D02*
X163206Y55978D01*
X163398Y56241D01*
X163474Y56556D01*
X163398Y56871D01*
X163206Y57133D01*
X162861Y57291D01*
X162516Y57238D01*
X162171Y57028D01*
G01X167364Y56841D02*
Y59991D01*
X168131D01*
X168438Y59833D01*
X168668Y59623D01*
X168859Y59308D01*
X169012Y58941D01*
X169051Y58416D01*
X169012Y57891D01*
X168859Y57523D01*
X168668Y57208D01*
X168438Y56998D01*
X168131Y56841D01*
X167364D01*
G01X170464Y57471D02*
X170694Y57103D01*
X171001Y56893D01*
X171346Y56841D01*
X171652Y56893D01*
X171959Y57156D01*
X172151Y57471D01*
X172189Y57786D01*
X172112Y58153D01*
X171844Y58416D01*
X171576Y58521D01*
X171231D01*
G01X171576D02*
X171806Y58678D01*
X171998Y58941D01*
X172074Y59256D01*
X171998Y59571D01*
X171806Y59833D01*
X171461Y59991D01*
X171116Y59938D01*
X170771Y59728D01*
G01X162070Y65734D02*
X161912Y65504D01*
X161808Y65236D01*
Y64929D01*
X161965Y64584D01*
X162228Y64316D01*
X162542Y64124D01*
X163068Y63971D01*
X163540Y63932D01*
X164012Y64009D01*
X164328Y64124D01*
X164643Y64354D01*
X164852Y64623D01*
X164958Y64891D01*
Y65159D01*
X164852Y65428D01*
X164695Y65658D01*
X164485Y65849D01*
G01X164958Y67991D02*
X161808D01*
X162438Y67531D01*
G01X164958D02*
Y68451D01*
G01Y71551D02*
X161808D01*
X164065Y70133D01*
Y72049D01*
G01X157151Y94028D02*
X156921Y94186D01*
X156653Y94291D01*
X156346D01*
X156001Y94133D01*
X155732Y93871D01*
X155541Y93556D01*
X155388Y93031D01*
X155349Y92558D01*
X155426Y92086D01*
X155541Y91771D01*
X155771Y91456D01*
X156039Y91246D01*
X156308Y91141D01*
X156576D01*
X156844Y91246D01*
X157074Y91403D01*
X157266Y91613D01*
G01X159408Y91141D02*
Y94291D01*
X158948Y93661D01*
G01Y91141D02*
X159867D01*
G01X173883Y29400D02*
Y32550D01*
X174842D01*
X175148Y32392D01*
X175340Y32182D01*
X175417Y31762D01*
X175340Y31342D01*
X175110Y31080D01*
X174842Y30923D01*
X173883D01*
G01X174842D02*
X175417Y29400D01*
G01X177098Y29767D02*
X177367Y29505D01*
X177673Y29400D01*
X177980Y29505D01*
X178248Y29820D01*
X178440Y30292D01*
X178517Y30765D01*
Y31342D01*
X178440Y31815D01*
X178248Y32235D01*
X178018Y32445D01*
X177750Y32550D01*
X177443Y32445D01*
X177213Y32235D01*
X177060Y31920D01*
X176983Y31500D01*
X177060Y31133D01*
X177252Y30765D01*
X177482Y30555D01*
X177750Y30502D01*
X178057Y30607D01*
X178287Y30870D01*
X178517Y31342D01*
G01X176741Y48171D02*
X176932Y47856D01*
X177162Y47646D01*
X177431Y47541D01*
X177738Y47646D01*
X177968Y47856D01*
X178198Y48171D01*
X178274Y48591D01*
Y50691D01*
G01X181068Y47541D02*
Y50691D01*
X179649Y48433D01*
X181566D01*
G01X177658Y82248D02*
X174508D01*
Y83014D01*
X174665Y83321D01*
X174875Y83551D01*
X175190Y83743D01*
X175558Y83896D01*
X176082Y83934D01*
X176608Y83896D01*
X176975Y83743D01*
X177290Y83551D01*
X177500Y83321D01*
X177658Y83014D01*
Y82248D01*
G01X175032Y85462D02*
X174718Y85693D01*
X174560Y85961D01*
X174508Y86268D01*
X174612Y86651D01*
X174875Y86919D01*
X175190Y86996D01*
X175505Y86958D01*
X175768Y86804D01*
X176292Y86038D01*
X176660Y85693D01*
X177185Y85462D01*
X177658Y85386D01*
Y86996D01*
G01X177741Y78271D02*
X177932Y77956D01*
X178162Y77746D01*
X178431Y77641D01*
X178738Y77746D01*
X178968Y77956D01*
X179198Y78271D01*
X179274Y78691D01*
Y80791D01*
G01X180764Y78271D02*
X180994Y77903D01*
X181301Y77693D01*
X181646Y77641D01*
X181952Y77693D01*
X182259Y77956D01*
X182451Y78271D01*
X182489Y78586D01*
X182412Y78953D01*
X182144Y79216D01*
X181876Y79321D01*
X181531D01*
G01X181876D02*
X182106Y79478D01*
X182298Y79741D01*
X182374Y80056D01*
X182298Y80371D01*
X182106Y80633D01*
X181761Y80791D01*
X181416Y80738D01*
X181071Y80528D01*
G01X177558Y102548D02*
X174408D01*
Y103314D01*
X174565Y103621D01*
X174775Y103851D01*
X175090Y104043D01*
X175458Y104196D01*
X175982Y104234D01*
X176508Y104196D01*
X176875Y104043D01*
X177190Y103851D01*
X177400Y103621D01*
X177558Y103314D01*
Y102548D01*
G01Y106491D02*
X174408D01*
X175038Y106031D01*
G01X177558D02*
Y106951D01*
G01X184141Y114171D02*
X184332Y113856D01*
X184562Y113646D01*
X184831Y113541D01*
X185138Y113646D01*
X185368Y113856D01*
X185598Y114171D01*
X185674Y114591D01*
Y116691D01*
G01X187279Y116166D02*
X187509Y116481D01*
X187778Y116638D01*
X188084Y116691D01*
X188468Y116586D01*
X188736Y116323D01*
X188812Y116008D01*
X188774Y115693D01*
X188621Y115431D01*
X187854Y114906D01*
X187509Y114538D01*
X187279Y114013D01*
X187202Y113541D01*
X188812D01*
G54D16*
G01X100922Y61652D02*
X102496D01*
G01X100922Y63226D02*
Y61652D01*
G01Y86456D02*
Y84881D01*
G01Y86456D02*
X102496D01*
G01X124151Y61652D02*
X125726D01*
G01Y63226D02*
Y61652D01*
G01X124151Y86456D02*
X125726D01*
G01D02*
Y84881D01*
G54D17*
G01X38778Y129537D02*
X38774Y129541D01*
Y136958D01*
G01X66335D02*
X66337Y136956D01*
Y129537D01*
G01X45865Y177962D02*
Y137017D01*
G01X43896Y177962D02*
Y137017D01*
G01X64368D02*
Y178139D01*
G01X40750D02*
X40746Y178136D01*
Y137017D01*
G01X61613Y177962D02*
Y137017D01*
G01X59644Y177962D02*
Y137017D01*
G01X57676Y177962D02*
Y137017D01*
G01X55707Y177962D02*
Y137017D01*
G01X53739Y177962D02*
Y137017D01*
G01X51770Y177962D02*
Y137017D01*
G01X49802Y177962D02*
Y137017D01*
G01X47833Y177962D02*
Y137017D01*
G54D18*
G01X945Y81882D02*
Y114968D01*
G01X10350Y81882D02*
X945D01*
G01X10350Y114968D02*
X945D01*
G01X24961Y81882D02*
X18469D01*
G01X24961D02*
Y90034D01*
G01Y106815D02*
Y114968D01*
G01D02*
X18469D01*
G01X71259Y77017D02*
X33856D01*
G01D02*
Y129419D01*
G01X38774Y136958D02*
X66335D01*
G01X71259Y129419D02*
X33856D01*
G01X64368Y178139D02*
X40750D01*
G01X71259Y77136D02*
Y129419D01*
G54D19*
G01X64961Y7874D02*
Y72441D01*
X-25591D01*
Y7874D01*
X64961D01*
G01X1575Y25197D02*
X-20866D01*
G01X-21260Y14961D02*
Y38976D01*
X-4331D01*
Y45669D01*
X-21260D01*
Y51575D01*
X-4724D01*
Y57874D01*
X-21260D01*
Y65354D01*
X-1575D01*
G01X1575Y72441D02*
Y7874D01*
G01X99344Y85663D02*
G03Y85654I-591J-5D01*
M02*
