G04 ================== begin FILE IDENTIFICATION RECORD ==================*
G04 Layout Name:  D:/Projects/Mini_Audio/01.Hardware/MH18/PCB/MH18.brd*
G04 Film Name:    SOLDTOP*
G04 File Format:  Gerber RS274X*
G04 File Origin:  Cadence Allegro 17.4-S037*
G04 Origin Date:  Thu Feb  1 18:32:08 2024*
G04 *
G04 Layer:  BOARD GEOMETRY/SOLDERMASK_TOP*
G04 Layer:  PACKAGE GEOMETRY/SOLDERMASK_TOP*
G04 Layer:  PIN/SOLDERMASK_TOP*
G04 *
G04 Offset:    (0.000 0.000)*
G04 Mirror:    No*
G04 Mode:      Positive*
G04 Rotation:  0*
G04 FullContactRelief:  No*
G04 UndefLineWidth:     6.000*
G04 ================== end FILE IDENTIFICATION RECORD ====================*
%FSLAX35Y35*MOIN*%
%IR0*IPPOS*OFA0.00000B0.00000*MIA0B0*SFA1.00000B1.00000*%
%ADD11R,.070988X.08674*%
%ADD19R,.185201X.185201*%
%ADD23R,.051201X.141799*%
%ADD16R,.042X.04*%
%ADD15R,.04X.042*%
%ADD27R,.051X.046*%
%ADD25R,.056X.051*%
%ADD17R,.051X.056*%
%ADD26C,.07*%
%ADD22R,.066X.0305*%
%ADD18O,.0395X.019*%
%ADD20O,.019X.0395*%
%ADD28R,.07X.07*%
%ADD24R,.055201X.063098*%
%ADD12R,.055118X.015748*%
%ADD13C,.066929*%
%ADD14O,.094488X.047244*%
%ADD10O,.047244X.094488*%
%LPD*%
G75*
G54D10*
X10158Y66535D03*
X20158D03*
X30158D03*
X40158D03*
G54D20*
X108403Y62242D03*
X106433D03*
X104466D03*
Y85864D03*
X106433D03*
X108403D03*
X122182Y62242D03*
X120214D03*
X118244D03*
X116277D03*
X114308D03*
X112340D03*
X110370D03*
Y85864D03*
X112340D03*
X114308D03*
X116277D03*
X118244D03*
X120214D03*
X122182D03*
G54D11*
X14409Y84843D03*
Y112007D03*
G54D12*
X24961Y91535D03*
Y105315D03*
Y103346D03*
Y101378D03*
Y99409D03*
Y97441D03*
Y95472D03*
X24954Y93496D03*
G75*
G36*
G01X154886Y6894D02*
X155066Y6914D01*
X155246Y6944D01*
X155426Y6974D01*
X155596Y7024D01*
X155766Y7074D01*
X155936Y7144D01*
X156106Y7214D01*
X156266Y7284D01*
X156426Y7374D01*
X156576Y7464D01*
X156726Y7564D01*
X156876Y7674D01*
X157016Y7784D01*
X157146Y7904D01*
X157276Y8034D01*
X157406Y8164D01*
X157516Y8304D01*
X157626Y8444D01*
X157726Y8594D01*
X157826Y8744D01*
X157916Y8894D01*
X157996Y9064D01*
X158066Y9224D01*
X158136Y9394D01*
X158196Y9564D01*
X158246Y9734D01*
X158286Y9914D01*
X158316Y10084D01*
X158346Y10264D01*
X158366Y10444D01*
Y10624D01*
Y10804D01*
Y10984D01*
X158346Y11164D01*
X158316Y11344D01*
X158286Y11514D01*
X158246Y11694D01*
X158196Y11864D01*
X158136Y12034D01*
X158066Y12204D01*
X157996Y12364D01*
X157916Y12534D01*
X157826Y12684D01*
X157726Y12834D01*
X157626Y12984D01*
X157516Y13124D01*
X157406Y13264D01*
X157276Y13394D01*
X157146Y13524D01*
X157016Y13644D01*
X156876Y13754D01*
X156726Y13864D01*
X156576Y13964D01*
X156426Y14054D01*
X156266Y14144D01*
X156106Y14214D01*
X155936Y14284D01*
X155766Y14354D01*
X155596Y14404D01*
X155426Y14454D01*
X155246Y14484D01*
X155066Y14514D01*
X154886Y14534D01*
X154706Y14554D01*
X154536D01*
X147226D01*
X147046D01*
X146876Y14534D01*
X146696Y14514D01*
X146516Y14484D01*
X146336Y14454D01*
X146166Y14404D01*
X145996Y14354D01*
X145826Y14284D01*
X145656Y14214D01*
X145496Y14144D01*
X145336Y14054D01*
X145186Y13964D01*
X145036Y13864D01*
X144886Y13754D01*
X144746Y13644D01*
X144616Y13524D01*
X144486Y13394D01*
X144366Y13264D01*
X144246Y13124D01*
X144136Y12984D01*
X144036Y12834D01*
X143936Y12684D01*
X143846Y12534D01*
X143766Y12354D01*
X143706Y12114D01*
X137006D01*
Y9314D01*
X143706D01*
X143766Y9074D01*
X143846Y8894D01*
X143936Y8744D01*
X144036Y8594D01*
X144136Y8444D01*
X144246Y8304D01*
X144366Y8164D01*
X144486Y8034D01*
X144616Y7904D01*
X144746Y7784D01*
X144886Y7674D01*
X145036Y7564D01*
X145186Y7464D01*
X145336Y7374D01*
X145496Y7284D01*
X145656Y7214D01*
X145826Y7144D01*
X145996Y7074D01*
X146166Y7024D01*
X146336Y6974D01*
X146516Y6944D01*
X146696Y6914D01*
X146876Y6894D01*
X147046Y6874D01*
X147226D01*
X154536D01*
X154706D01*
X154886Y6894D01*
G37*
G54D13*
X42715Y85738D03*
Y110344D03*
X62400Y85738D03*
Y110344D03*
X52556D03*
G54D22*
X140146Y4814D03*
Y16624D03*
G54D14*
X63386Y25512D03*
Y15512D03*
Y45512D03*
Y35512D03*
Y65512D03*
Y55512D03*
G54D23*
X150458Y29094D03*
Y50114D03*
X151058Y97894D03*
Y118914D03*
G54D24*
X169724Y39548D03*
Y53208D03*
X169803Y91672D03*
Y78013D03*
X169724Y98249D03*
Y111909D03*
G54D15*
X78417Y25372D03*
X72898D03*
X78417Y15372D03*
X72898D03*
X85197Y66479D03*
X85198Y71841D03*
X85276Y77187D03*
Y87817D03*
X85298Y82541D03*
X77949Y110236D03*
X83468D03*
X105564Y51770D03*
X94776Y51731D03*
X100296D03*
X90716Y66479D03*
X90717Y71841D03*
X90795Y77187D03*
Y87817D03*
X90817Y82541D03*
X105800Y96140D03*
X94973D03*
X100493D03*
X111083Y51770D03*
X121871Y51809D03*
X116351D03*
X127139D03*
X111320Y96140D03*
X127375D03*
X122107D03*
X116587D03*
X132658Y51809D03*
X138044Y56770D03*
X143564D03*
X138084Y62046D03*
X143603D03*
X143642Y67518D03*
X138123D03*
X143617Y72804D03*
X138098D03*
X138280Y80313D03*
X143800D03*
X138280Y91061D03*
X143800D03*
X143839Y85668D03*
X138320D03*
X132894Y96140D03*
X161901Y20967D03*
X167420D03*
X161862Y15534D03*
X167381D03*
G54D25*
X169567Y64374D03*
Y71374D03*
G54D16*
X76772Y97634D03*
Y103154D03*
X84646Y97634D03*
Y103154D03*
X127691Y7246D03*
Y12765D03*
X133163Y7285D03*
Y12805D03*
G54D26*
X192946Y11884D03*
Y21727D03*
Y31569D03*
X193065Y62002D03*
X193183Y92790D03*
G54D17*
X102454Y45156D03*
X95454D03*
X102690Y102833D03*
X95690D03*
X131942Y45235D03*
X124942D03*
X125257Y102991D03*
X132257D03*
G54D18*
X101513Y67163D03*
Y69133D03*
Y71100D03*
Y65196D03*
Y73070D03*
Y75037D03*
Y77007D03*
Y78974D03*
Y80944D03*
Y82911D03*
X125135Y71100D03*
Y69133D03*
Y67163D03*
Y65196D03*
Y82911D03*
Y80944D03*
Y78974D03*
Y77007D03*
Y75037D03*
Y73070D03*
G54D27*
X175158Y16841D03*
Y24841D03*
G54D28*
X192946Y41412D03*
X193065Y71845D03*
X193183Y102632D03*
G54D19*
X113324Y74054D03*
M02*
