G04 ================== begin FILE IDENTIFICATION RECORD ==================*
G04 Layout Name:  D:/Projects/Mini_Audio/01.Hardware/POWER/PCB/POWER.brd*
G04 Film Name:    01.TOP*
G04 File Format:  Gerber RS274X*
G04 File Origin:  Cadence Allegro 17.4-S037*
G04 Origin Date:  Wed Feb 28 20:17:22 2024*
G04 *
G04 Layer:  VIA CLASS/TOP*
G04 Layer:  PIN/TOP*
G04 Layer:  ETCH/TOP*
G04 *
G04 Offset:    (0.000 0.000)*
G04 Mirror:    No*
G04 Mode:      Positive*
G04 Rotation:  0*
G04 FullContactRelief:  No*
G04 UndefLineWidth:     5.000*
G04 ================== end FILE IDENTIFICATION RECORD ====================*
%FSLAX35Y35*MOIN*%
%IR0*IPPOS*OFA0.00000B0.00000*MIA0B0*SFA1.00000B1.00000*%
%ADD13R,.062988X.07874*%
%ADD23R,.0945X.126*%
%ADD29O,.007902X.0315*%
%ADD21O,.0315X.007902*%
%AMMACRO40*
4,1,26,.000098,.028598,
.000038,.029284,
-.00014,.029948,
-.000431,.030572,
-.000826,.031136,
-.001312,.031623,
-.001876,.032018,
-.0025,.032309,
-.003164,.032487,
-.00385,.032547,
-.004536,.032487,
-.005201,.032309,
-.005824,.032018,
-.006388,.031623,
-.006875,.031137,
-.00727,.030573,
-.007561,.029949,
-.007739,.029284,
-.007799,.028599,
-.007799,.028598,
-.007799,.001799,
.000098,-.003701,
.000098,-.0325,
.007902,-.0325,
.007902,.005299,
.000098,.010799,
.000098,.028598,
0.0*
%
%ADD40MACRO40*%
%AMMACRO27*
4,1,25,.007799,.000402,
0.0,-.006299,
0.0,-.031902,
-.007902,-.031902,
-.007902,-.001201,
0.0,.0055,
0.0,.028,
.000065,.028677,
.000247,.029332,
.00054,.029945,
.000935,.030498,
.00142,.030975,
.00198,.031359,
.002599,.031641,
.003257,.031811,
.003935,.031864,
.004611,.031799,
.005266,.031617,
.00588,.031324,
.006433,.030929,
.006909,.030444,
.007294,.029884,
.007576,.029265,
.007746,.028607,
.007799,.028,
.007799,.000402,
0.0*
%
%ADD27MACRO27*%
%AMMACRO28*
4,1,22,.004,-.031902,
.004,.028299,
.003897,.028966,
.003679,.029606,
.003353,.030198,
.00293,.030724,
.002422,.031169,
.001844,.031519,
.001214,.031763,
.000551,.031894,
-.000124,.031908,
-.000201,.031902,
-.000899,.031776,
-.001565,.031531,
-.002179,.031174,
-.00272,.030716,
-.003175,.030171,
-.003527,.029555,
-.003767,.028887,
-.003888,.028188,
-.003902,.027799,
-.003902,-.031902,
.004,-.031902,
0.0*
%
%ADD28MACRO28*%
%AMMACRO26*
4,1,25,.007902,-.031902,
0.0,-.031902,
0.0,-.006299,
-.007902,.000402,
-.007902,.028098,
-.007821,.028782,
-.007622,.029442,
-.007312,.030057,
-.0069,.030609,
-.006398,.031081,
-.005822,.031459,
-.005189,.031731,
-.004518,.031889,
-.00383,.031928,
-.003146,.031847,
-.002486,.031648,
-.001871,.031338,
-.001319,.030926,
-.000847,.030424,
-.000469,.029847,
-.000197,.029214,
-.000039,.028544,
0.0,.028098,
0.0,.0055,
.007902,-.001201,
.007902,-.031902,
0.0*
%
%ADD26MACRO26*%
%AMMACRO25*
4,1,25,-.007902,-.028598,
-.007832,-.029275,
-.007645,-.029929,
-.007347,-.03054,
-.006948,-.031091,
-.006459,-.031564,
-.005895,-.031945,
-.005274,-.032222,
-.004614,-.032388,
-.003936,-.032436,
-.003259,-.032365,
-.002605,-.032179,
-.001993,-.031881,
-.001443,-.031482,
-.00097,-.030993,
-.000589,-.030429,
-.000311,-.029808,
-.000146,-.029148,
-.000098,-.028598,
-.000098,-.010799,
.007799,-.005299,
.007799,.0325,
-.000098,.0325,
-.000098,.003701,
-.007902,-.001799,
-.007902,-.028598,
0.0*
%
%ADD25MACRO25*%
%ADD34R,.047201X.137799*%
%ADD46R,.04X.03*%
%ADD20R,.032X.03*%
%ADD11R,.03X.04*%
%ADD10R,.03X.032*%
%ADD19R,.05X.036*%
%ADD33C,.06*%
%ADD12C,.024*%
%ADD22R,.051181X.011811*%
%ADD31R,.0475X.067*%
%ADD18R,.036X.036*%
%ADD17O,.047201X.070902*%
%ADD14C,.039402*%
%AMMACRO24*
4,1,26,-.000098,-.028598,
-.000038,-.029284,
.00014,-.029948,
.000431,-.030572,
.000826,-.031136,
.001312,-.031623,
.001876,-.032018,
.0025,-.032309,
.003164,-.032487,
.00385,-.032547,
.004536,-.032487,
.005201,-.032309,
.005824,-.032018,
.006388,-.031623,
.006875,-.031137,
.00727,-.030573,
.007561,-.029949,
.007739,-.029284,
.007799,-.028599,
.007799,-.028598,
.007799,-.001799,
-.000098,.003701,
-.000098,.0325,
-.007902,.0325,
-.007902,-.005299,
-.000098,-.010799,
-.000098,-.028598,
0.0*
%
%ADD24MACRO24*%
%ADD16O,.047201X.078701*%
%ADD15R,.011799X.051201*%
%ADD32O,.055118X.08661*%
%AMMACRO38*
4,1,25,-.007799,-.000402,
0.0,.006299,
0.0,.031902,
.007902,.031902,
.007902,.001201,
0.0,-.0055,
0.0,-.028,
-.000065,-.028677,
-.000247,-.029332,
-.00054,-.029945,
-.000935,-.030498,
-.00142,-.030975,
-.00198,-.031359,
-.002599,-.031641,
-.003257,-.031811,
-.003935,-.031864,
-.004611,-.031799,
-.005266,-.031617,
-.00588,-.031324,
-.006433,-.030929,
-.006909,-.030444,
-.007294,-.029884,
-.007576,-.029265,
-.007746,-.028607,
-.007799,-.028,
-.007799,-.000402,
0.0*
%
%ADD38MACRO38*%
%ADD36R,.023201X.052799*%
%ADD42R,.04724X.098421*%
%AMMACRO39*
4,1,22,-.004,.031902,
-.004,-.028299,
-.003897,-.028966,
-.003679,-.029606,
-.003353,-.030198,
-.00293,-.030724,
-.002422,-.031169,
-.001844,-.031519,
-.001214,-.031763,
-.000551,-.031894,
.000124,-.031908,
.000201,-.031902,
.000899,-.031776,
.001565,-.031531,
.002179,-.031174,
.00272,-.030716,
.003175,-.030171,
.003527,-.029555,
.003767,-.028887,
.003888,-.028188,
.003902,-.027799,
.003902,.031902,
-.004,.031902,
0.0*
%
%ADD39MACRO39*%
%ADD35R,.052799X.023201*%
%ADD45R,.098421X.04724*%
%AMMACRO37*
4,1,25,-.007902,.031902,
0.0,.031902,
0.0,.006299,
.007902,-.000402,
.007902,-.028098,
.007821,-.028782,
.007622,-.029442,
.007312,-.030057,
.0069,-.030609,
.006398,-.031081,
.005822,-.031459,
.005189,-.031731,
.004518,-.031889,
.00383,-.031928,
.003146,-.031847,
.002486,-.031648,
.001871,-.031338,
.001319,-.030926,
.000847,-.030424,
.000469,-.029847,
.000197,-.029214,
.000039,-.028544,
0.0,-.028098,
0.0,-.0055,
-.007902,.001201,
-.007902,.031902,
0.0*
%
%ADD37MACRO37*%
%ADD30R,.080571X.06378*%
%AMMACRO41*
4,1,25,.007902,.028598,
.007832,.029275,
.007645,.029929,
.007347,.03054,
.006948,.031091,
.006459,.031564,
.005895,.031945,
.005274,.032222,
.004614,.032388,
.003936,.032436,
.003259,.032365,
.002605,.032179,
.001993,.031881,
.001443,.031482,
.00097,.030993,
.000589,.030429,
.000311,.029808,
.000146,.029148,
.000098,.028598,
.000098,.010799,
-.007799,.005299,
-.007799,-.0325,
.000098,-.0325,
.000098,-.003701,
.007902,.001799,
.007902,.028598,
0.0*
%
%ADD41MACRO41*%
%ADD43R,.023618X.066929*%
%ADD44R,.066929X.023618*%
%ADD47C,.008*%
%ADD48C,.01*%
%ADD49C,.02*%
%ADD50C,.03*%
G75*
%LPD*%
G75*
G36*
G01X18598Y36942D02*
X28519D01*
G02X28802Y36259I0J-400D01*
G01X24242Y31699D01*
X13271D01*
G03X12281Y31289I0J-1400D01*
G01X9404Y28411D01*
G03X9018Y27682I990J-990D01*
G02X8834Y27520I-196J37D01*
G03X7894Y26521I60J-998D01*
G01Y23321D01*
G03X8810Y22325I1000J0D01*
G02X8994Y22125I-17J-199D01*
G01Y22041D01*
X8979Y22004D01*
G03X8900Y21737I1297J-528D01*
G02X8715Y21575I-196J37D01*
G03X7775Y20576I60J-998D01*
G01Y17376D01*
G03X8776Y16376I1000J0D01*
G01X11776D01*
G03X12776Y17376I0J1000D01*
G01Y20576D01*
G03X11958Y21560I-1000J0D01*
G01X11794Y21590D01*
Y22125D01*
G02X11977Y22325I200J0D01*
G03X12894Y23321I-83J997D01*
G01Y26521D01*
G03X12651Y27174I-1000J0D01*
G02X12671Y27719I303J261D01*
G01X13851Y28898D01*
X24822D01*
G03X25812Y29308I0J1400D01*
G01X25970Y29466D01*
G02X26653Y29183I283J-283D01*
G01Y19685D01*
G02X26146Y19300I-400J0D01*
G03X25880Y19336I-266J-964D01*
G01X22558D01*
G02X22179Y19864I0J400D01*
G03X22294Y20567I-2085J703D01*
G03X20094Y22767I-2200J0D01*
G03X18187Y21664I0J-2200D01*
G02X17682Y21495I-347J199D01*
G03X17287Y21577I-395J-919D01*
G01X14287D01*
G03X13287Y20576I0J-1000D01*
G01Y17376D01*
G03X14227Y16378I1000J0D01*
G02X14412Y16216I-12J-200D01*
G03X14429Y16137I1376J261D01*
G02X14270Y15892I-194J-48D01*
G03X13445Y14907I175J-985D01*
G01Y11707D01*
G03X14445Y10707I1000J0D01*
G01X17419D01*
G02X17702Y10024I0J-400D01*
G01X16702Y9024D01*
X14682D01*
G03X13681Y8024I0J-1000D01*
G01Y3607D01*
X12382D01*
Y8024D01*
G03X11735Y8959I-1000J0D01*
G03X11833Y9475I-1302J516D01*
G01Y10511D01*
G02X12017Y10710I200J0D01*
G03X12933Y11707I-83J997D01*
G01Y14907D01*
G03X11933Y15907I-1000J0D01*
G01X8933D01*
G03X7933Y14907I0J-1000D01*
G01Y11707D01*
G03X8850Y10710I1000J0D01*
G02X9033Y10511I-17J-199D01*
G01Y10055D01*
X8891Y9914D01*
G03X8506Y9184I990J-990D01*
G02X8321Y9022I-196J37D01*
G03X7381Y8024I60J-998D01*
G01Y4024D01*
G03X8321Y3025I1000J0D01*
G02X8506Y2863I-12J-200D01*
G03X8788Y2250I1376J261D01*
G02X8475Y1600I-312J-250D01*
G01X3937D01*
G02X1600Y3937I0J2337D01*
G01Y36942D01*
X10299D01*
Y36339D01*
G03X11299Y35339I1000J0D01*
G01X17598D01*
G03X18598Y36339I0J1000D01*
G01Y36942D01*
G37*
G36*
G01X1600Y79705D02*
G02X2283Y79988I400J0D01*
G01X2659Y79612D01*
X7983D01*
Y72909D01*
X10299Y70593D01*
Y63503D01*
G03X11299Y62503I1000J0D01*
G01X17597D01*
Y61759D01*
X20236Y59119D01*
Y57541D01*
G02X19639Y57193I-400J0D01*
G03X18950Y57374I-689J-1219D01*
G01X18549D01*
X18490Y57441D01*
G03X16850Y58174I-1640J-1467D01*
G03X14891Y56976I0J-2200D01*
G02X14252Y56875I-356J182D01*
G01X14051Y57076D01*
X14056Y57165D01*
G03X14060Y57288I-2197J122D01*
G03X11859Y55087I-2200J0D01*
G03X11982Y55091I0J2200D01*
G01X12071Y55096D01*
X15282Y51884D01*
G03X15874Y51532I990J990D01*
G02X16027Y50850I-114J-383D01*
G03X15293Y49211I1467J-1640D01*
G03X17301Y47019I2200J0D01*
G02X17664Y46588I-35J-398D01*
G03X17657Y46413I2193J-175D01*
G03X17764Y45737I2200J0D01*
G02X17383Y45214I-381J-123D01*
G01X11299D01*
G03X10299Y44213I0J-1000D01*
G01Y37942D01*
X1600D01*
Y79705D01*
G37*
G36*
G01X31787Y95624D02*
X33725D01*
Y90101D01*
G03X34725Y89100I1000J0D01*
G01X37086D01*
G03X37868Y89477I0J1000D01*
G01X42119D01*
X44522Y91881D01*
Y93733D01*
X45074Y94284D01*
X53702D01*
X54924Y93063D01*
Y85301D01*
X53623Y84001D01*
X45428D01*
X43892Y82464D01*
Y72614D01*
X43931Y72575D01*
Y70211D01*
X43104Y69383D01*
X40149D01*
X39676Y68911D01*
Y56539D01*
X40858Y55357D01*
X43301D01*
X44167Y54490D01*
Y47319D01*
X43813Y46965D01*
X42000D01*
X41711Y47254D01*
X41706Y47329D01*
G03X41481Y48000I-1392J-93D01*
G01X41449Y48050D01*
Y48392D01*
X41481Y48442D01*
G03X41709Y49206I-1168J764D01*
G03X40652Y50560I-1395J0D01*
G01X40599Y50573D01*
X40346Y50826D01*
X36209D01*
X34869Y52166D01*
Y56894D01*
X33923Y57839D01*
X28466D01*
X28407Y57933D01*
G03X27559Y58402I-848J-531D01*
G01X22441D01*
G03X21866Y58220I0J-1000D01*
G02X21237Y58548I-230J327D01*
G01Y59533D01*
X18597Y62173D01*
Y63454D01*
X18597Y63459D01*
G03X18598Y63503I-999J45D01*
G01Y71377D01*
G03X18597Y71422I-1000J0D01*
G01X18597Y71426D01*
Y71550D01*
X18582Y71566D01*
X18568Y71619D01*
G03X17598Y72377I-970J-242D01*
G01X11299D01*
G03X10624Y72115I0J-1000D01*
G01X10566Y72063D01*
X10244D01*
X8983Y73323D01*
Y80061D01*
X8432Y80612D01*
X3073D01*
X1655Y82031D01*
Y87113D01*
X2758Y88217D01*
X11662D01*
X12332Y88886D01*
Y89197D01*
X12425Y89256D01*
G03X12889Y90101I-536J845D01*
G01Y95348D01*
X14827D01*
Y90101D01*
G03X15276Y89266I1000J0D01*
G01X15366Y89207D01*
Y78051D01*
X16469Y76948D01*
X17949D01*
G03X19779Y75969I1830J1221D01*
G03X21476Y76769I0J2200D01*
G01X22745D01*
X24187Y75328D01*
G03X25177Y74918I990J990D01*
G01X28092D01*
G03X29082Y75328I0J1400D01*
G01X30703Y76948D01*
X32229D01*
X33639Y78358D01*
G02X34322Y78077I283J-283D01*
G03X36522Y75889I2200J12D01*
G03X38722Y78089I0J2200D01*
G03X38620Y78752I-2200J0D01*
G02X39001Y79273I381J121D01*
G01X39164D01*
X40227Y80337D01*
Y84868D01*
X40247Y84887D01*
X39794Y85340D01*
X32190D01*
X31402Y86128D01*
Y89312D01*
G03X31787Y90101I-615J789D01*
G01Y95624D01*
G37*
G36*
G01X3937Y116510D02*
X47359D01*
X48285Y115584D01*
Y112688D01*
G03X46558Y109527I2030J-3160D01*
G01Y106378D01*
G03X48285Y103218I3756J0D01*
G01Y102381D01*
X49250Y101416D01*
X59888D01*
X61109Y100194D01*
Y98027D01*
X61090Y98008D01*
Y94655D01*
X60385Y93950D01*
Y83232D01*
X62941Y80676D01*
X63828D01*
Y74033D01*
X61543Y71747D01*
X56578D01*
Y81519D01*
X55475Y82622D01*
X54625D01*
G02X54342Y83305I0J400D01*
G01X55924Y84887D01*
Y93477D01*
X54116Y95284D01*
X44659D01*
X43522Y94147D01*
Y92295D01*
X41704Y90478D01*
X35278D01*
Y96280D01*
X35388Y96336D01*
G03X35445Y98944I-664J1319D01*
G02X35322Y99534I195J349D01*
G03X35769Y100864I-1753J1330D01*
G03X33569Y103064I-2200J0D01*
G03X31371Y100970I0J-2200D01*
G01X31362Y100779D01*
X29877D01*
G03X28887Y100369I0J-1400D01*
G01X27619Y99101D01*
G02X26962Y99243I-283J283D01*
G03X24901Y100673I-2061J-771D01*
G03X22758Y98972I0J-2200D01*
G02X22083Y98783I-390J91D01*
G03X20513Y99441I-1570J-1542D01*
G03X18313Y97241I0J-2200D01*
G03X18407Y96606I2200J0D01*
G01X18415Y96578D01*
Y96348D01*
X17817D01*
Y100786D01*
G03X17697Y101354I-1400J0D01*
G03X18472Y103031I-1424J1677D01*
G03X14072I-2200J0D01*
G03X14805Y101391I2200J0D01*
G01X14872Y101332D01*
Y100931D01*
G03X14999Y100349I1400J0D01*
G01X15017Y100310D01*
Y96348D01*
X13534D01*
G02X13183Y96941I0J400D01*
G03X11222Y96338I-1293J713D01*
G01X11332Y96282D01*
Y89301D01*
X11248Y89217D01*
X2344D01*
X2283Y89156D01*
G02X1600Y89439I-283J283D01*
G01Y114173D01*
G02X3937Y116510I2337J0D01*
G37*
G36*
G01X50925Y81622D02*
X52055D01*
G02X52448Y81146I0J-400D01*
G03X52408Y80731I2161J-416D01*
G03X53142Y79091I2200J0D01*
G01X53208Y79031D01*
Y78631D01*
G03X53618Y77640I1400J0D01*
G01X54414Y76844D01*
G03X55382Y76435I990J990D01*
G02X55578Y76235I-3J-200D01*
G01Y72240D01*
X54426Y71089D01*
G03X54568Y70747I141J-141D01*
G01X61957D01*
X64828Y73618D01*
Y80676D01*
X80040D01*
X80952Y79765D01*
Y71176D01*
X85128Y66999D01*
Y54174D01*
X91348Y47954D01*
X95820D01*
X102459Y41315D01*
X110971D01*
X113330Y43674D01*
Y61051D01*
X109193Y65188D01*
Y72560D01*
X110340D01*
X110419Y72638D01*
X111644D01*
Y67472D01*
X112511Y66605D01*
Y65640D01*
X115343Y62808D01*
X118121D01*
X122420Y58508D01*
Y43142D01*
X123740Y41822D01*
Y35537D01*
X123731Y35508D01*
G03Y34181I2098J-663D01*
G01X123740Y34152D01*
Y25984D01*
X124453Y25271D01*
G02X124170Y24589I-283J-283D01*
G01X123323D01*
G03X122671Y24440I0J-1500D01*
G02X122121Y24664I-174J360D01*
G03X121519Y25556I-2069J-748D01*
G01X121452Y25615D01*
Y26016D01*
G03X121042Y27006I-1400J0D01*
G01X120276Y27772D01*
G03X119286Y28182I-990J-990D01*
G01X115432D01*
G03X114441Y27772I0J-1400D01*
G01X112955Y26285D01*
G03X112545Y25295I990J-990D01*
G01Y21706D01*
X109652Y18814D01*
X105352D01*
G03X104352Y17814I0J-1000D01*
G01Y15494D01*
G03X104648Y14784I1000J0D01*
G03X104352Y14073I704J-710D01*
G01Y11778D01*
G02X104010Y11636I-200J0D01*
G01X103762Y11885D01*
Y20631D01*
X104365Y21234D01*
X106386D01*
G03X107995Y20534I1609J1500D01*
G03Y24934I0J2200D01*
G03X106386Y24234I0J-2200D01*
G01X103743D01*
G03X102683Y23795I0J-1500D01*
G01X101201Y22313D01*
G03X100762Y21252I1061J-1061D01*
G01Y18814D01*
X100029D01*
X99997Y18976D01*
G03X99612Y19704I-1375J-263D01*
G01X97300Y22016D01*
Y38218D01*
G03X96890Y39208I-1400J0D01*
G01X90822Y45276D01*
G03X89832Y45686I-990J-990D01*
G01X82596D01*
G03X81606Y45276I0J-1400D01*
G01X80348Y44018D01*
G03X79940Y43099I990J-990D01*
G03X79178Y42128I238J-971D01*
G01Y36848D01*
G03X79387Y36236I1000J0D01*
G02X79354Y35709I-316J-245D01*
G01X76904Y33259D01*
G03X76494Y32269I990J-990D01*
G01Y22956D01*
G03X76904Y21966I1400J0D01*
G01X79218Y19652D01*
Y15352D01*
G03X80218Y14352I1000J0D01*
G01X82370D01*
Y12262D01*
X80218D01*
G03X79218Y11262I0J-1000D01*
G01Y9937D01*
G03X78782Y8526I2065J-1410D01*
G01Y3388D01*
G03X79087Y2192I2500J0D01*
G02X78736Y1600I-351J-192D01*
G01X23471D01*
G02X23188Y2283I0J400D01*
G01X24125Y3220D01*
X26145D01*
G03X27146Y4220I0J1000D01*
G01Y8220D01*
G03X26145Y9221I-1000J0D01*
G01X23145D01*
G03X22145Y8220I0J-1000D01*
G01Y5200D01*
X20551Y3607D01*
X18682D01*
Y7044D01*
X24370Y12732D01*
G03X24771Y13559I-990J990D01*
G01X24792Y13735D01*
X25880D01*
G03X26146Y13771I0J1000D01*
G02X26653Y13392I106J-386D01*
G03X27063Y12423I1400J21D01*
G01X27690Y11795D01*
G03X28418Y11410I990J990D01*
G01X28580Y11379D01*
Y10985D01*
G03X29322Y10019I1000J0D01*
G02X29603Y9519I-103J-386D01*
G03X29570Y9381I1342J-398D01*
G02X29385Y9219I-196J37D01*
G03X28445Y8220I60J-998D01*
G01Y4220D01*
G03X29445Y3220I1000J0D01*
G01X32445D01*
G03X33446Y4220I0J1000D01*
G01Y8220D01*
G03X32729Y9180I-1000J0D01*
G03X32780Y9556I-1349J376D01*
G01Y9985D01*
X33180D01*
G03X34180Y10985I0J1000D01*
G01Y14585D01*
G03X33180Y15586I-1000J0D01*
G01X29453D01*
Y30310D01*
X34368Y35225D01*
G02X35051Y34942I283J-283D01*
G01Y32446D01*
X34302Y31698D01*
Y27048D01*
X35130Y26220D01*
Y10854D01*
X38355Y7628D01*
X50255D01*
X52496Y9869D01*
Y23660D01*
X50890Y25267D01*
G02X51173Y25949I283J283D01*
G01X54549D01*
X60109Y20389D01*
Y10145D01*
X61641Y8613D01*
X73856D01*
X75269Y10027D01*
Y28625D01*
X72162Y31732D01*
X57421D01*
Y34200D01*
G02X58104Y34483I400J0D01*
G01X58235Y34352D01*
G03X59226Y33942I990J990D01*
G01X59885D01*
G03X61582Y33142I1697J1400D01*
G03X62658Y33422I0J2200D01*
G02X62928Y33350I98J-174D01*
G03X63788Y32860I860J510D01*
G01X66788D01*
G03X67788Y33860I0J1000D01*
G01Y37060D01*
G03X67545Y37713I-1000J0D01*
G02X67559Y38252I303J261D01*
G03X67949Y39206I-1011J969D01*
G02X68132Y39404I200J-2D01*
G03X68694Y39637I-83J997D01*
G01X68835Y39755D01*
X69954Y38636D01*
X77244D01*
X78047Y39439D01*
Y43615D01*
X80391Y45960D01*
Y63257D01*
X79411Y64237D01*
X72122D01*
X72078Y64282D01*
Y67237D01*
X71098Y68217D01*
X62074D01*
X58095Y64237D01*
X52106D01*
X50102Y62233D01*
Y58017D01*
X47147Y55062D01*
Y47098D01*
X46196D01*
X45723Y46625D01*
X45168D01*
Y54904D01*
X43715Y56357D01*
X41272D01*
X40676Y56953D01*
Y68383D01*
X43518D01*
X44931Y69796D01*
Y70747D01*
X50487D01*
Y81183D01*
X50925Y81622D01*
G37*
G36*
G01X43695Y45625D02*
X45271D01*
X45704Y45192D01*
Y41015D01*
X44798Y40109D01*
Y27462D01*
X47162Y25098D01*
X49644D01*
X51496Y23246D01*
Y10283D01*
X49841Y8629D01*
X38770D01*
X36130Y11268D01*
Y26634D01*
X35302Y27462D01*
Y31284D01*
X35799Y31781D01*
X41390D01*
X42528Y32918D01*
Y33505D01*
X42985Y33963D01*
Y44916D01*
X43695Y45625D01*
G37*
G36*
G01X40826Y43970D02*
X41212D01*
X41528Y43655D01*
Y33332D01*
X40976Y32781D01*
X36642D01*
X36051Y33372D01*
Y36908D01*
X37632Y38489D01*
G03X38042Y39479I-990J990D01*
G01Y43869D01*
X39134D01*
G03X39243Y43873I0J1400D01*
G01X39251Y43874D01*
X40314D01*
G03X40792Y43958I0J1395D01*
G01X40826Y43970D01*
G37*
G36*
G01X28560Y50315D02*
Y52023D01*
G02X29238Y52310I400J0D01*
G03X29935Y52027I697J717D01*
G02X30135Y51827I0J-200D01*
G01Y51631D01*
G02X29955Y51432I-200J0D01*
G03X29053Y50437I99J-995D01*
G01Y47437D01*
G03X30054Y46437I1000J0D01*
G01X33469D01*
Y40926D01*
X30485Y37942D01*
X18598D01*
Y43959D01*
G02X19130Y44337I400J0D01*
G03X19858Y44213I727J2077D01*
G03X22058Y46413I0J2200D01*
G03X22012Y46858I-2200J0D01*
G02X22404Y47338I392J81D01*
G01X27552D01*
G03X28553Y48339I0J1000D01*
G01Y49520D01*
G03X28474Y49909I-1000J0D01*
G03X28560Y50315I-914J406D01*
G37*
G36*
G01X33510Y84340D02*
X39227D01*
Y80751D01*
X38749Y80273D01*
X34140D01*
X33093Y79226D01*
G02X32488Y79746I-283J283D01*
G03X32510Y79746I20J1000D01*
G03X33510Y80746I0J1000D01*
G01Y84340D01*
G37*
G36*
G01X51141Y42513D02*
X52205D01*
X53190Y41528D01*
Y39833D01*
X53383Y39641D01*
X53393Y39576D01*
G03X53786Y38801I1384J215D01*
G01X56421Y36166D01*
Y32269D01*
X56145Y31993D01*
X51575D01*
X50787Y32781D01*
Y42158D01*
X51141Y42513D01*
G37*
G36*
G01X46704Y46098D02*
X47678D01*
X47851Y45925D01*
X49699D01*
X50156Y45468D01*
Y42942D01*
X49786Y42572D01*
Y32367D01*
X51160Y30993D01*
X51590D01*
X51850Y30732D01*
X71747D01*
X74269Y28210D01*
Y10441D01*
X73442Y9614D01*
X62055D01*
X61109Y10559D01*
Y20803D01*
X54963Y26950D01*
X49171D01*
X45798Y30323D01*
Y37957D01*
X46216Y38376D01*
Y40113D01*
X46704Y40601D01*
Y46098D01*
G37*
G36*
G01X70703Y54396D02*
X71220Y53879D01*
Y50714D01*
X71051Y50687D01*
G03X68541Y47753I460J-2935D01*
G03X69319Y45748I2970J0D01*
G01X69448Y45607D01*
X68974Y45133D01*
Y44898D01*
G02X68424Y44528I-400J0D01*
G03X68049Y44601I-375J-927D01*
G01X65049D01*
G03X64049Y43600I0J-1000D01*
G01Y40400D01*
G03X64395Y39644I1000J0D01*
G02X64464Y39116I-262J-303D01*
G01X64300Y38953D01*
G03X64215Y38860I987J-993D01*
G03X63912Y38221I1073J-900D01*
G01X63728Y38058D01*
G03X62917Y37551I60J-998D01*
G02X62417Y37378I-348J196D01*
G03X61583Y37542I-834J-2036D01*
G01X61582D01*
G03X60109Y36976I0J-2200D01*
G02X59558Y36990I-268J297D01*
G01X58277Y38270D01*
G02X58378Y38909I283J283D01*
G03X59001Y39384I-1002J1959D01*
G01X62394D01*
G03X63394Y40384I0J1000D01*
G01Y43384D01*
G03X62394Y44385I-1000J0D01*
G01X60174D01*
X59217Y45342D01*
G03X58227Y45752I-990J-990D01*
G01X57557D01*
X57051Y46258D01*
G03X56061Y46668I-990J-990D01*
G01X54881D01*
G03X54771Y46664I0J-1400D01*
G01X54763Y46663D01*
X53701D01*
G03X52305Y45268I0J-1395D01*
G03X52712Y44283I1395J0D01*
G03X52353Y43661I989J-984D01*
G01X52314Y43513D01*
X51156D01*
Y45999D01*
X52023Y46866D01*
Y47944D01*
G02X52708Y48224I400J0D01*
G03X53701Y47810I993J980D01*
G01X54763D01*
X54771Y47809D01*
G03X54881Y47805I110J1396D01*
G01X55036D01*
G03X55146Y47809I0J1400D01*
G01X55153Y47810D01*
X56061D01*
G03X57363Y48705I0J1395D01*
G01X57366D01*
G03Y53105I0J2200D01*
G03X56238Y52793I0J-2200D01*
G02X55662Y52986I-205J343D01*
G03X55179Y53713I-2038J-828D01*
G02X55462Y54396I283J283D01*
G01X70703D01*
G37*
G36*
G01X62488Y67216D02*
X70684D01*
X71078Y66822D01*
Y63867D01*
X71708Y63237D01*
X78997D01*
X79391Y62843D01*
Y46374D01*
X77047Y44030D01*
Y39853D01*
X76830Y39636D01*
X70368D01*
X69974Y40030D01*
Y44719D01*
X72220Y46965D01*
Y54293D01*
X71117Y55396D01*
X52126D01*
X51327Y54597D01*
X51298Y54582D01*
G03X50534Y53338I631J-1245D01*
G01Y52275D01*
X50533Y52267D01*
G03X50529Y52158I1396J-110D01*
G03X50533Y52048I1400J0D01*
G01X50534Y52041D01*
Y50978D01*
G03X51023Y49917I1395J0D01*
G01Y47280D01*
X50668Y46925D01*
X48265D01*
X48147Y47044D01*
Y54648D01*
X50618Y57119D01*
X50651Y57134D01*
G03X51240Y58046I-411J912D01*
G01Y61246D01*
G03X51102Y61754I-1000J0D01*
G01Y61819D01*
X52520Y63237D01*
X58509D01*
X62488Y67216D01*
G37*
G36*
G01X49285Y116510D02*
X153543D01*
G02X155880Y114173I0J-2337D01*
G01Y92172D01*
X152175D01*
X152125Y92298D01*
G03X150079Y93690I-2046J-808D01*
G03X149869Y93680I0J-2200D01*
G01X149790Y93759D01*
G03X149480Y94210I-1371J-609D01*
G01X147871Y95820D01*
G03X146810Y96259I-1061J-1061D01*
G01X141893D01*
X141865Y96426D01*
G03X140879Y97259I-986J-167D01*
G01X137679D01*
G03X136679Y96259I0J-1000D01*
G01Y93259D01*
G03X136808Y92768I1000J0D01*
G02X136459Y92172I-349J-196D01*
G01X136225D01*
X130950Y86897D01*
Y79525D01*
X129405D01*
G03X128405Y78525I0J-1000D01*
G01Y75525D01*
G03X129405Y74525I1000J0D01*
G01X130950D01*
Y74013D01*
X129405D01*
G03X128602Y73609I0J-1000D01*
G02X127952Y73621I-321J238D01*
G03X127128Y74053I-823J-568D01*
G01X123928D01*
G03X122928Y73052I0J-1000D01*
G01Y71564D01*
X117244D01*
G03X117135Y71560I0J-1400D01*
G01X117127Y71560D01*
X115575D01*
Y72706D01*
X117127D01*
X117135Y72705D01*
G03X117244Y72701I110J1396D01*
G01X120002D01*
G03X120992Y73111I0J1400D01*
G01X121821Y73940D01*
X121874Y73954D01*
G03X123513Y76081I-561J2127D01*
G03X122954Y77547I-2200J0D01*
G02X122969Y78096I298J266D01*
G01X124839Y79967D01*
X127085D01*
X128183Y81065D01*
Y87725D01*
X127125Y88783D01*
X122406D01*
Y88989D01*
X122406Y88995D01*
G03X122410Y89119I-2197J128D01*
G01X122410Y89202D01*
X124049Y90841D01*
X127204D01*
X128201Y91838D01*
X129193D01*
G03X130253Y92278I0J1500D01*
G01X131396Y93420D01*
G03X131835Y94481I-1061J1061D01*
G01Y109256D01*
G03X131396Y110317I-1500J0D01*
G01X129426Y112287D01*
G03X128365Y112726I-1061J-1061D01*
G01X88956D01*
X86716Y114966D01*
G03X85656Y115406I-1061J-1061D01*
G01X68606D01*
G03X67545Y114966I0J-1500D01*
G01X65593Y113014D01*
G03X65153Y111953I1061J-1061D01*
G01Y111663D01*
X65034Y111611D01*
G03X63074Y109739I1619J-3658D01*
G02X62359I-358J179D01*
G03X58779Y111953I-3579J-1786D01*
G03Y103953I0J-4000D01*
G03X62359Y106166I0J4000D01*
G02X63074I358J-179D01*
G03X70233I3579J1786D01*
G02X70948I358J-179D01*
G03X73127Y104206I3579J1787D01*
G01Y103206D01*
G03X73537Y102216I1400J0D01*
G01X75903Y99851D01*
Y97601D01*
G02X75716Y97401I-200J0D01*
G03X74783Y96403I67J-998D01*
G01Y95520D01*
G02X74100Y95237I-400J0D01*
G01X73935Y95403D01*
X62090D01*
Y97593D01*
X62110Y97613D01*
Y100609D01*
X60302Y102416D01*
X52455D01*
G02X52249Y103159I0J400D01*
G03X54071Y106378I-1934J3219D01*
G01Y109527D01*
G03X50314Y113284I-3756J0D01*
G03X49746Y113240I0J-3756D01*
G02X49285Y113636I-61J395D01*
G01Y116510D01*
G37*
G36*
G01X62252Y94402D02*
X73520D01*
X74783Y93140D01*
X74792Y93072D01*
G03X75784Y92203I992J131D01*
G01X78784D01*
G03X79269Y92328I0J1000D01*
G01X79314Y92354D01*
X95978D01*
X98145Y90187D01*
Y84942D01*
G02X97952Y84742I-200J0D01*
G03X95827Y82543I75J-2199D01*
G03X95830Y82421I2200J0D01*
G01X95835Y82331D01*
X94910Y81406D01*
G03X94499Y80415I990J-990D01*
G01Y75545D01*
G03X94910Y74555I1400J0D01*
G01X96195Y73270D01*
G02X96146Y72663I-283J-283D01*
G03X95236Y70881I1290J-1782D01*
G03X97436Y68680I2200J0D01*
G03X97510Y68682I2J2200D01*
G02X97922Y68249I13J-400D01*
G03X97915Y68070I2193J-179D01*
G03X98145Y67090I2200J0D01*
G01Y65010D01*
X99958Y63198D01*
X101106D01*
G03X103065I980J1970D01*
G01X105001D01*
X105631Y63828D01*
Y65291D01*
G03X105844Y66032I-1182J741D01*
G01Y66660D01*
X105857Y66693D01*
G03X105949Y67212I-1408J519D01*
G03X105857Y67731I-1500J0D01*
G01X105844Y67764D01*
Y68392D01*
G03X105631Y69133I-1395J0D01*
G01Y72063D01*
X106262Y72693D01*
X107877D01*
X108192Y72378D01*
Y64774D01*
X112329Y60637D01*
Y44089D01*
X110556Y42316D01*
X102873D01*
X96234Y48954D01*
X91763D01*
X86128Y54589D01*
Y67413D01*
X81952Y71590D01*
Y76683D01*
G03X82312Y76943I-630J1250D01*
G01X83334Y77965D01*
X83445Y77936D01*
G03X84198Y77839I753J2873D01*
G03Y83780I0J2970D01*
G03X81343Y81628I0J-2970D01*
G02X80675Y81456I-384J110D01*
G01X80455Y81676D01*
X80301D01*
X80246Y81788D01*
G03X79348Y82348I-898J-440D01*
G01X74628D01*
G03X73729Y81788I0J-1000D01*
G01X73675Y81676D01*
X63355D01*
X61385Y83646D01*
Y93536D01*
X62252Y94402D01*
G37*
G36*
G01X69228Y112405D02*
X79656D01*
G02X79977Y111767I0J-400D01*
G03X79236Y109527I3016J-2239D01*
G01Y106378D01*
G03X86749I3756J0D01*
G01Y109527D01*
G03X86743Y109725I-3756J0D01*
G02X87394Y110058I399J21D01*
G03X88335Y109726I941J1168D01*
G01X93280D01*
G02X93563Y109043I0J-400D01*
G01X93560Y109040D01*
Y93949D01*
X93813Y93695D01*
G02X93672Y93354I-141J-141D01*
G01X85296D01*
Y96403D01*
G03X84295Y97403I-1000J0D01*
G01X81295D01*
G03X80295Y96403I0J-1000D01*
G01Y93354D01*
X79784D01*
Y96403D01*
G03X78883Y97398I-1000J0D01*
G01X78703Y97416D01*
Y100431D01*
G03X78293Y101421I-1400J0D01*
G01X75928Y103786D01*
Y104206D01*
G03X78528Y107953I-1400J3747D01*
G03X74528Y111953I-4000J0D01*
G03X70948Y109739I0J-4000D01*
G02X70233I-358J179D01*
G03X68822Y111314I-3579J-1787D01*
G02X68756Y111933I217J336D01*
G01X69228Y112405D01*
G37*
G36*
G01X118302Y21498D02*
G02X118833Y22084I310J253D01*
G03X119757Y21735I1219J1832D01*
G02X120023Y21099I-54J-396D01*
G03X119823Y20498I800J-601D01*
G01Y17298D01*
G03X120823Y16297I1000J0D01*
G01X123823D01*
G03X124823Y17298I0J1000D01*
G01Y20498D01*
G03X124693Y20991I-1000J0D01*
G02X125041Y21588I348J197D01*
G01X131716D01*
Y20162D01*
X130518D01*
G03X129457Y19722I0J-1500D01*
G01X125143Y15408D01*
G02X124564Y15422I-283J283D01*
G03X123823Y15750I-741J-672D01*
G01X120823D01*
G03X119823Y14750I0J-1000D01*
G01Y11550D01*
G03X120823Y10549I1000J0D01*
G01X123823D01*
G03X124820Y11466I0J1000D01*
G02X125017Y11649I199J-17D01*
G03X126067Y12089I-11J1500D01*
G01X130714Y16736D01*
G02X131397Y16453I283J-283D01*
G01Y12395D01*
G03X131494Y11707I2500J0D01*
G02X131109Y11197I-385J-110D01*
G01X126417D01*
G03X125417Y10197I0J-1000D01*
G01Y1600D01*
X83828D01*
G02X83477Y2192I0J400D01*
G03X83771Y3153I-2195J1197D01*
G01X83788Y3334D01*
X86700D01*
X87759Y4392D01*
Y12606D01*
G02X88442Y12888I400J0D01*
G01X89407Y11923D01*
G03X90397Y11513I990J990D01*
G01X95002D01*
X95052Y11386D01*
G03X95278Y11043I930J367D01*
G03X94982Y10333I704J-710D01*
G01Y8013D01*
G03X95982Y7013I1000J0D01*
G01X100141D01*
X101773Y5380D01*
G03X102834Y4941I1061J1061D01*
G01X113193D01*
G03X114121Y5262I0J1500D01*
G02X114403Y5228I124J-157D01*
G03X115193Y4841I790J613D01*
G01X118193D01*
G03X119193Y5841I0J1000D01*
G01Y9041D01*
G03X118193Y10041I-1000J0D01*
G01X115038D01*
Y10254D01*
X115040Y10268D01*
G03X115051Y10368I-2181J291D01*
G02X115261Y10551I199J-17D01*
G03X115311Y10549I51J999D01*
G01X118311D01*
G03X119311Y11550I0J1000D01*
G01Y14750D01*
G03X118311Y15750I-1000J0D01*
G01X115311D01*
G03X114311Y14750I0J-1000D01*
G01Y14132D01*
X113423Y13244D01*
X112693Y13974D01*
G03X111632Y14414I-1061J-1061D01*
G01X111573D01*
G03X111336Y14784I-941J-340D01*
G03X111632Y15494I-704J710D01*
G01Y16834D01*
X113628Y18829D01*
G02X114311Y18547I283J-283D01*
G01Y17298D01*
G03X115311Y16297I1000J0D01*
G01X118311D01*
G03X119311Y17298I0J1000D01*
G01Y20498D01*
G03X118311Y21498I-1000J0D01*
G01X118302D01*
G37*
G36*
G01X83940Y42885D02*
X86228D01*
X86659Y42455D01*
Y36848D01*
G03X86742Y36448I1000J0D01*
G01X86759Y36410D01*
Y33196D01*
X86742Y33158D01*
G03X86659Y32758I917J-400D01*
G01Y27478D01*
G03X86742Y27078I1000J0D01*
G01X86759Y27040D01*
Y20977D01*
X86749Y20946D01*
G03X86698Y20632I950J-314D01*
G01Y15352D01*
G03X86749Y15038I1000J0D01*
G01X86759Y15007D01*
Y11607D01*
X86749Y11576D01*
G03X86698Y11262I950J-314D01*
G01Y5982D01*
G03X86749Y5668I1000J0D01*
G01X86759Y5637D01*
Y4807D01*
X86286Y4334D01*
X84040D01*
X83782Y4592D01*
Y7936D01*
X83790Y7962D01*
G03X83878Y8622I-2412J660D01*
G03X83538Y9881I-2500J0D01*
G01Y11262D01*
G03X83398Y11772I-1000J0D01*
G01X83370Y11819D01*
Y14795D01*
X83398Y14842D01*
G03X83538Y15352I-860J510D01*
G01Y20632D01*
G03X83398Y21142I-1000J0D01*
G01X83370Y21189D01*
Y23343D01*
G03X83839Y24800I-2032J1457D01*
G01Y30118D01*
G03X83499Y31377I-2500J0D01*
G01Y32758D01*
G03X83392Y33208I-1000J0D01*
G01X83370Y33250D01*
Y36356D01*
X83392Y36398D01*
G03X83499Y36848I-893J450D01*
G01Y42444D01*
X83940Y42885D01*
G37*
G36*
G01X87759Y21632D02*
Y34062D01*
G02X88442Y34345I400J0D01*
G01X92805Y29982D01*
Y14314D01*
X90977D01*
X90821Y14470D01*
G02X90805Y14734I141J141D01*
G03X91019Y15352I-787J618D01*
G01Y20632D01*
G03X90018Y21632I-1000J0D01*
G01X87759D01*
G37*
G36*
G01X90979Y36848D02*
Y40193D01*
G02X91662Y40475I400J0D01*
G01X94499Y37638D01*
Y33214D01*
G02X93817Y32931I-400J0D01*
G01X90656Y36091D01*
X90766Y36230D01*
G03X90979Y36848I-787J618D01*
G37*
G36*
G01X95660Y109726D02*
X109023D01*
X109906Y108842D01*
Y86621D01*
X110241Y86286D01*
Y78505D01*
X110140Y78434D01*
Y73774D01*
X109926Y73560D01*
X108425D01*
X108292Y73693D01*
X106916D01*
X106262Y74348D01*
Y76755D01*
X106435Y76928D01*
Y82366D01*
X105489Y83312D01*
Y87331D01*
X105159Y87661D01*
Y91605D01*
X103464Y93299D01*
X96447D01*
X96393Y93354D01*
X95569D01*
X94560Y94363D01*
Y108626D01*
X95660Y109726D01*
G37*
G36*
G01X142552Y75842D02*
X145898Y72496D01*
Y66034D01*
X145268Y65404D01*
X142234D01*
X140816Y63986D01*
Y49959D01*
X142549Y48226D01*
X142628D01*
X143140Y47713D01*
Y45152D01*
X140106Y42119D01*
X124859D01*
X123421Y43557D01*
Y58923D01*
X118535Y63808D01*
X115757D01*
X113511Y66054D01*
Y67019D01*
X112645Y67886D01*
Y72693D01*
X112881Y72929D01*
X114181D01*
X114575Y72535D01*
Y70290D01*
X114667Y70198D01*
X114670Y70119D01*
G03X116064Y68769I1395J46D01*
G01X117127D01*
X117135Y68768D01*
G03X117244Y68764I110J1396D01*
G01X118150D01*
X118397Y68517D01*
X133487D01*
X134236Y69265D01*
Y74978D01*
X134950Y75692D01*
X142008D01*
G03X142426Y75784I0J1000D01*
G01X142552Y75842D01*
G37*
G36*
G01X117015Y109726D02*
X127744D01*
X128835Y108635D01*
Y95103D01*
X128571Y94839D01*
X124425D01*
G03X123364Y94399I0J-1500D01*
G01X120806Y91841D01*
X120328D01*
Y91522D01*
G02X120134Y91322I-200J0D01*
G03Y86924I75J-2199D01*
G02X120328Y86724I-7J-200D01*
G01Y81637D01*
X119343Y80652D01*
X115757D01*
X114378Y79273D01*
Y75254D01*
X113054Y73930D01*
X112467D01*
X112176Y73639D01*
X111241D01*
Y86700D01*
X110906Y87035D01*
Y103618D01*
X117015Y109726D01*
G37*
G36*
G01X99146Y75503D02*
Y78808D01*
G02X99828Y79091I400J0D01*
G01X100095Y78824D01*
X102341D01*
X102346Y78819D01*
Y77204D01*
X103562Y75987D01*
X105262D01*
Y73934D01*
X105675Y73520D01*
X104631Y72477D01*
Y69987D01*
G02X104434Y69787I-200J0D01*
G03X104285Y69778I15J-1395D01*
G02X104063Y70000I-24J199D01*
G03X104072Y70165I-1386J165D01*
G03X102677Y71561I-1395J0D01*
G01X102050D01*
X102016Y71573D01*
G03X101497Y71666I-519J-1408D01*
G03X100978Y71573I0J-1500D01*
G01X100945Y71561D01*
X100317D01*
G03X99718Y71425I0J-1395D01*
G02X99146Y71786I-172J361D01*
G01Y72702D01*
X101497D01*
G03X101607Y72706I0J1400D01*
G01X101615Y72707D01*
X102677D01*
G03Y75498I0J1395D01*
G01X101615D01*
X101607Y75498D01*
G03X101497Y75503I-110J-1396D01*
G01X99146D01*
G37*
G36*
G01X121957Y87783D02*
X122265D01*
X122325Y87705D01*
G03X124071Y86844I1746J1339D01*
G03X125554Y87419I0J2200D01*
G02X126094I270J-295D01*
G03X127033Y86912I1484J1625D01*
G01X127183Y86874D01*
Y81479D01*
X126671Y80967D01*
X124425D01*
X121706Y78248D01*
X121608Y78262D01*
G03X121313Y78282I-296J-2180D01*
G03X119112Y76081I0J-2200D01*
G03X119118Y75929I2200J0D01*
G02X118719Y75501I-399J-28D01*
G01X117244D01*
G03X117135Y75497I0J-1400D01*
G01X117127Y75496D01*
X116064D01*
G03X115842Y75479I0J-1395D01*
G02X115378Y75874I-64J395D01*
G01Y78859D01*
X116172Y79652D01*
X119757D01*
X121328Y81223D01*
Y87228D01*
G03X121897Y87712I-1118J1895D01*
G01X121957Y87783D01*
G37*
G36*
G01X100312Y87468D02*
X103937D01*
X104489Y86916D01*
Y82898D01*
X104990Y82396D01*
X105005Y82367D01*
G03X105434Y81925I897J443D01*
G01Y77342D01*
X105080Y76988D01*
X103977D01*
X103346Y77618D01*
Y79233D01*
X102755Y79824D01*
X100509D01*
X99761Y80573D01*
Y81187D01*
X99800Y81240D01*
G03X100227Y82543I-1772J1304D01*
G03X99761Y83898I-2200J0D01*
G01Y86916D01*
X100312Y87468D01*
G37*
G36*
G01X140334Y14315D02*
X143208D01*
Y7544D01*
X140821Y5156D01*
G03X140740Y5072I1768J-1767D01*
G02X140180Y5041I-296J269D01*
G03X138727Y5589I-1453J-1652D01*
G03X137160Y4933I0J-2200D01*
G02X136591I-285J281D01*
G03X135024Y5589I-1567J-1544D01*
G03X132824Y3388I0J-2200D01*
G03X133164Y2214I2200J0D01*
G02X132825Y1600I-338J-214D01*
G01X132141D01*
Y9831D01*
G02X132728Y10185I400J0D01*
G03X133897Y9895I1169J2210D01*
G03X135577Y10543I0J2500D01*
G02X136120Y10538I269J-296D01*
G03X137834Y9858I1714J1820D01*
G03X140334Y12359I0J2500D01*
G01Y14315D01*
G37*
G36*
G01X142648Y64404D02*
X146126D01*
Y62520D01*
G03X147126Y61519I1000J0D01*
G01X155880D01*
Y36568D01*
G02X155348Y36190I-400J0D01*
G03X154370Y36356I-978J-2804D01*
G03X152084Y35282I0J-2970D01*
G02X151823Y35241I-154J128D01*
G03X150640Y35586I-1182J-1856D01*
G03Y31186I0J-2200D01*
G03X151823Y31530I0J2200D01*
G02X152084Y31489I108J-169D01*
G03X153234Y30641I2286J1896D01*
G02X153225Y29898I-153J-370D01*
G03X151321Y27126I1066J-2772D01*
G03X151418Y26373I2970J0D01*
G01X151447Y26262D01*
X150501Y25316D01*
X144010D01*
G03X142313Y26116I-1697J-1400D01*
G03X140245Y24667I0J-2200D01*
G03X140097Y24469I1526J-1293D01*
G03X139510Y24589I-587J-1381D01*
G01X126550D01*
X124740Y26398D01*
Y41118D01*
X140521D01*
X144140Y44738D01*
Y48128D01*
X143042Y49226D01*
X142964D01*
X141816Y50374D01*
Y63571D01*
X142648Y64404D01*
G37*
G36*
G01X147985Y90814D02*
G02X147605Y90290I-381J-123D01*
G01X147126D01*
G03X146126Y89290I0J-1000D01*
G01Y84566D01*
G03X147126Y83566I1000J0D01*
G01X155880D01*
Y68244D01*
X146898D01*
Y72910D01*
X142964Y76845D01*
X135394D01*
X134154Y78086D01*
G03X133609Y78434I-1061J-1061D01*
G01Y78525D01*
G03X132605Y79529I-1004J0D01*
G01X131951D01*
Y86483D01*
X136639Y91172D01*
X147896D01*
X147930Y91015D01*
G03X147985Y90814I2148J476D01*
G37*
G36*
G01X150912Y19563D02*
X151610D01*
G03X154173Y18093I2564J1500D01*
G03X155325Y18325I0J2970D01*
G02X155880Y17956I155J-369D01*
G01Y3937D01*
G02X154804Y1969I-2337J0D01*
G02X154188Y2306I-216J337D01*
G01Y10197D01*
G03X153188Y11197I-1000J0D01*
G01X148208D01*
Y17188D01*
X148347Y17233D01*
G03X148950Y17601I-458J1429D01*
G01X150912Y19563D01*
G37*
%LPC*%
G75*
G36*
G01X146058Y103526D02*
X147972D01*
X147988Y103709D01*
G02X148984Y104626I997J-83D01*
G01X152984D01*
G02X153984Y103626I0J-1000D01*
G01Y100626D01*
G02X152984Y99625I-1000J0D01*
G01X148984D01*
G02X147988Y100542I0J1000D01*
G01X147972Y100725D01*
X146058D01*
G02X144365Y99925I-1697J1400D01*
G01X144282Y99925D01*
X143567Y99210D01*
G02X142506Y98771I-1061J1061D01*
G01X141893D01*
X141865Y98604D01*
G02X140879Y97771I-986J167D01*
G01X137679D01*
G02X136679Y98771I0J1000D01*
G01Y101771D01*
G02X137679Y102771I1000J0D01*
G01X140879D01*
G02X141569Y102495I0J-1000D01*
G03X142232Y102683I276J289D01*
G02X144361Y104326I2128J-557D01*
G02X146058Y103526I0J-2200D01*
G37*
G36*
G01X147494Y110217D02*
G03X148086Y110366I233J325D01*
G02X148984Y110926I898J-441D01*
G01X152984D01*
G02X153984Y109926I0J-1000D01*
G01Y106926D01*
G02X152984Y105925I-1000J0D01*
G01X148984D01*
G02X148085Y106488I0J1000D01*
G03X147493Y106639I-360J-175D01*
G02X146213Y106229I-1279J1790D01*
G02Y110629I0J2200D01*
G02X147494Y110217I0J-2200D01*
G37*
%LPD*%
G75*
G54D10*
X10433Y13307D03*
X15945D03*
X15787Y18976D03*
X10276D03*
X15906Y24921D03*
X10394D03*
X37244Y66260D03*
X37284Y59842D03*
X36522Y82346D03*
X31010D03*
X25529Y82425D03*
X20017D03*
X47598Y34685D03*
X53110D03*
X54252Y59646D03*
X48740D03*
X42756Y66260D03*
X42795Y59842D03*
X66549Y42000D03*
X72060D03*
X70800Y35460D03*
X65288D03*
X77284Y94803D03*
X82795D03*
X116811Y13150D03*
X116693Y7441D03*
X116811Y18898D03*
X118044Y84749D03*
X107402Y84409D03*
X101890D03*
X122323Y13150D03*
X122205Y7441D03*
X122323Y18898D03*
X123556Y84749D03*
G54D11*
X9882Y6024D03*
X16182D03*
X24645Y6220D03*
X30945D03*
G54D20*
X38494Y29788D03*
X31535Y54528D03*
X31654Y43425D03*
Y48937D03*
X38494Y35300D03*
X31535Y60039D03*
X60794Y41884D03*
Y47396D03*
X131005Y71513D03*
X125528Y71552D03*
X131005Y77025D03*
X125528Y77064D03*
X139279Y94759D03*
Y100271D03*
G54D30*
X49388Y89882D03*
X69588D03*
G54D12*
X4019Y13317D03*
X5122Y30062D03*
X17494Y49211D03*
X16850Y55974D03*
X11859Y57288D03*
X5004Y67177D03*
X4176Y59139D03*
X17100Y60440D03*
X13514Y85656D03*
X16272Y103031D03*
X8983Y101337D03*
X38415Y4452D03*
X23876Y25374D03*
X32544Y25846D03*
X20094Y20567D03*
X19858Y46413D03*
X23522Y40937D03*
X32452Y64774D03*
X19779Y78170D03*
X26871Y78918D03*
X36522Y78089D03*
X20513Y97241D03*
X24901Y98472D03*
X33569Y100864D03*
X19070Y110232D03*
X32702Y108468D03*
X57376Y40868D03*
X57366Y50905D03*
X53623Y52158D03*
X46906Y68438D03*
X46886Y65049D03*
X49723Y63946D03*
X51220Y80652D03*
X54608Y80731D03*
X57839Y84277D03*
Y87389D03*
Y90502D03*
X56303Y114418D03*
X45940Y98382D03*
X39479Y104568D03*
X73048Y3625D03*
X75412Y35302D03*
X65404Y52126D03*
X68792Y52166D03*
X61582Y35342D03*
X72575Y68832D03*
X72338Y71747D03*
X72260Y74978D03*
X60243Y60834D03*
X61897Y64183D03*
X65483Y64931D03*
X68635Y64852D03*
X63789Y91369D03*
X69699Y78327D03*
X61779Y113945D03*
X62449Y103740D03*
X92314Y8550D03*
X81282Y3388D03*
X89950Y23916D03*
X98500Y22655D03*
X81338Y24800D03*
X99485Y38257D03*
X92866Y36760D03*
X83173Y46925D03*
X100115Y68070D03*
X92551Y62922D03*
X92472Y59100D03*
X92551Y55121D03*
X95663Y62567D03*
Y59021D03*
Y55081D03*
X97436Y70881D03*
X98027Y82543D03*
X98579Y77810D03*
X89044Y96609D03*
X89005Y102401D03*
X97318Y114615D03*
X91014Y114693D03*
X88847Y107168D03*
X112860Y10559D03*
X104962Y19979D03*
X120052Y23916D03*
X116811Y24182D03*
X107995Y22734D03*
X109926Y43970D03*
X106419Y44010D03*
X102992Y35893D03*
X120131Y54214D03*
X102085Y65168D03*
X120012Y57721D03*
X120209Y89123D03*
X112329Y114299D03*
X105395Y114378D03*
X140028Y8038D03*
X129350Y12884D03*
X136954Y7880D03*
X133921Y7801D03*
X137834Y12359D03*
X133897Y12395D03*
X138727Y3388D03*
X135024D03*
X128168Y29077D03*
X132108Y29038D03*
X126592Y19700D03*
X137939Y44010D03*
X125829Y34844D03*
X122352D03*
X124071Y89044D03*
X127577D03*
X121313Y76081D03*
X141525Y105789D03*
X153699Y13317D03*
X142589Y3388D03*
X150587Y16193D03*
X150640Y33386D03*
X142313Y23916D03*
X141840Y46256D03*
X154369Y53269D03*
X154409Y47910D03*
X154448Y42749D03*
X143692Y52954D03*
X151887Y72890D03*
X154290Y58745D03*
X143692Y62528D03*
X143731Y59376D03*
X143771Y56224D03*
X153936Y75766D03*
X154133Y79667D03*
X153879Y95387D03*
X150079Y91490D03*
X143219Y113393D03*
X144361Y102126D03*
X146213Y108429D03*
G54D21*
X39134Y43301D03*
Y45269D03*
Y47236D03*
Y49206D03*
X54881Y49205D03*
Y47236D03*
Y45268D03*
Y43299D03*
X117244Y74101D03*
Y72134D03*
Y70164D03*
X101497Y70165D03*
Y72134D03*
Y74102D03*
X117244Y76069D03*
X101497Y76071D03*
G54D31*
X47485Y77835D03*
X59129D03*
G54D22*
X25000Y52874D03*
Y50905D03*
X24993Y48929D03*
X25000Y46968D03*
Y60749D03*
Y58779D03*
Y56811D03*
Y54842D03*
G54D40*
X108760Y77392D03*
G54D13*
X14448Y40276D03*
Y67440D03*
G54D50*
G01X47485Y77835D02*
Y72217D01*
X46906Y71638D01*
Y68438D01*
G01X71511Y47753D02*
X73663Y45600D01*
G01X81282Y3388D02*
Y8526D01*
X81378Y8622D01*
G01X81338Y30118D02*
Y24800D01*
G01X137834Y18661D02*
Y12359D01*
G01X133897Y18661D02*
Y12395D01*
G01X145708Y18661D02*
Y6508D01*
X142589Y3388D01*
G54D41*
X111920Y77382D03*
G54D32*
X50314Y107953D03*
X82992D03*
G54D14*
X5315Y76024D03*
X5433Y84409D03*
X71511Y47753D03*
X78622Y87480D03*
X84198Y80809D03*
X102008Y25591D03*
X130532Y58942D03*
X135276Y86614D03*
X154370Y33386D03*
X154291Y27126D03*
X154173Y21063D03*
G54D23*
X44488Y17323D03*
X68110D03*
X100945Y101575D03*
X124567D03*
G54D42*
X128779Y5276D03*
X150826D03*
G54D15*
X16417Y92661D03*
X14449D03*
X11299D03*
X13267D03*
X10118D03*
X32165D03*
X30197D03*
X26260D03*
X20354D03*
X35315D03*
X18387D03*
X22323D03*
X24291D03*
X28228D03*
X33346D03*
X36496D03*
G54D24*
X47618Y41978D03*
G54D33*
X58779Y107953D03*
X66654D03*
X74528D03*
G54D43*
X137834Y18661D03*
X133897D03*
X145708D03*
X141771D03*
G54D16*
X6279Y95686D03*
X40335D03*
G54D34*
X76988Y53434D03*
Y74458D03*
X109882Y32126D03*
Y53150D03*
X137716Y31929D03*
Y52953D03*
G54D25*
X44458Y41988D03*
G54D44*
X138661Y73937D03*
Y70000D03*
Y81811D03*
Y77874D03*
G54D35*
X98622Y9173D03*
Y12913D03*
Y16654D03*
X107992Y12913D03*
Y9173D03*
Y16654D03*
G54D17*
X6278Y112142D03*
X40336D03*
G54D26*
X42468Y50588D03*
G54D45*
X152047Y64882D03*
Y86928D03*
G54D36*
X88858Y8622D03*
X85118D03*
X81378D03*
Y17992D03*
X85118D03*
X88858D03*
X88819Y30118D03*
X85079D03*
X81338D03*
Y39488D03*
X85079D03*
X88819D03*
G54D18*
X31380Y12785D03*
Y20285D03*
G54D27*
X49568Y50558D03*
G54D37*
X113910Y68782D03*
G54D19*
X23380Y16535D03*
G54D46*
X150984Y108426D03*
Y102126D03*
G54D28*
X46008Y50558D03*
G54D47*
G01X16182Y6024D02*
Y6524D01*
X23380Y13722D01*
Y16535D01*
G01X10433Y13307D02*
Y9475D01*
X9882Y8924D01*
Y6024D01*
G01D02*
Y3124D01*
X10799Y2206D01*
X21131D01*
X24645Y5720D01*
Y6220D01*
G01X15945Y13307D02*
Y16319D01*
X15787Y16476D01*
Y18976D01*
G01X20094Y20567D02*
Y20252D01*
X18819Y18976D01*
X15787D01*
G01X10394Y24921D02*
Y21594D01*
X10276Y21476D01*
Y18976D01*
G01X39134Y47236D02*
X35180D01*
X34869Y46925D01*
Y40346D01*
X24822Y30299D01*
X13271D01*
X10394Y27421D01*
Y24921D01*
G01X25000Y52874D02*
X16273D01*
X11859Y57288D01*
G01X17494Y49211D02*
X19188Y50905D01*
X21524D01*
X21525Y50905D01*
X25000D01*
G01Y54842D02*
X20082D01*
X18950Y55974D01*
X16850D01*
G01X16417Y92661D02*
Y100786D01*
X16272Y100931D01*
Y103031D01*
G01X31380Y12785D02*
X28680D01*
X28053Y13413D01*
Y30890D01*
X36642Y39479D01*
Y44719D01*
X37192Y45269D01*
X39134D01*
G01X31380Y12785D02*
Y9556D01*
X30945Y9120D01*
Y6220D01*
G01X19858Y46413D02*
Y47661D01*
X21126Y48929D01*
X24993D01*
G01X31535Y54528D02*
Y51455D01*
X31654Y51337D01*
Y48937D01*
G01X39134Y49206D02*
X34422D01*
X34154Y48937D01*
X31654D01*
G01X24291Y92661D02*
Y89201D01*
X23662Y88571D01*
X21158D01*
X20354Y89375D01*
Y92661D01*
G01D02*
Y97082D01*
X20513Y97241D01*
G01X22323Y92661D02*
Y95116D01*
X23580Y96372D01*
X25002D01*
G01D02*
X26260Y95114D01*
Y92661D01*
G01X28228D02*
Y97730D01*
X29877Y99379D01*
X32084D01*
X33569Y100864D01*
G01X20017Y82425D02*
Y78408D01*
X19779Y78170D01*
G01D02*
X23325D01*
X25177Y76318D01*
X28092D01*
X31010Y79235D01*
Y82346D01*
G01X26871Y78918D02*
X26868Y78915D01*
X26329D01*
X25529Y79715D01*
Y82425D01*
G01X25002Y96372D02*
Y97571D01*
X24901Y97673D01*
Y98472D01*
G01X60226Y42353D02*
X58227Y44352D01*
X56976D01*
X56061Y45268D01*
X54881D01*
G01X60226Y42353D02*
X58861D01*
X57376Y40868D01*
G01X61582Y35342D02*
X59226D01*
X54776Y39791D01*
Y41899D01*
X54881Y42004D01*
Y43299D01*
G01X57366Y50905D02*
X56736D01*
X55036Y49205D01*
X54881D01*
G01X53623Y52158D02*
X51929D01*
G01X47485Y77835D02*
X48403D01*
X51220Y80652D01*
G01X59129Y77835D02*
X55404D01*
X54608Y78631D01*
Y80731D01*
G01X81338Y39488D02*
Y35713D01*
X77894Y32269D01*
Y22956D01*
X81378Y19472D01*
Y17992D01*
G01X60794Y41884D02*
X60694D01*
X60226Y42353D01*
G01X65288Y35460D02*
X61700D01*
X61582Y35342D01*
G01X66549Y42000D02*
Y39221D01*
X65288Y37960D01*
Y35460D01*
G01X77284Y94803D02*
Y97303D01*
X77303Y97322D01*
Y100431D01*
X74528Y103206D01*
Y107953D01*
G01X88858Y17992D02*
Y14452D01*
X90397Y12913D01*
X94205D01*
G01X98622Y16654D02*
Y18714D01*
X95900Y21436D01*
Y38218D01*
X89832Y44286D01*
X82596D01*
X81338Y43028D01*
Y39488D01*
G01X94205Y12913D02*
Y30562D01*
X88819Y35948D01*
Y39488D01*
G01X94205Y12913D02*
X98622D01*
G01X98027Y82543D02*
X95900Y80415D01*
Y75545D01*
X97342Y74102D01*
X101497D01*
G01X82795Y94803D02*
Y91353D01*
G01X80248Y77933D02*
X81322D01*
X84198Y80809D01*
G01X120052Y23916D02*
Y26016D01*
X119286Y26782D01*
X115432D01*
X113945Y25295D01*
Y21126D01*
X109472Y16654D01*
X107992D01*
G01X116811Y18898D02*
Y24182D01*
G01X117244Y70164D02*
X124140D01*
X125528Y71552D01*
G01X117244Y72134D02*
X121187D01*
X123362Y74308D01*
X124728D01*
X125528Y75108D01*
Y77064D01*
G01X121313Y76081D02*
Y75412D01*
X120002Y74101D01*
X117244D01*
G01X125528Y71552D02*
X128466D01*
X128505Y71513D01*
X131005D01*
G01X124071Y89044D02*
X127577D01*
G01X148419Y93150D02*
X150079Y91490D01*
G01X154291Y27126D02*
X151081Y23916D01*
X142313D01*
G01X150984Y102126D02*
X144361D01*
G01X146213Y108429D02*
X150981D01*
X150984Y108426D01*
G54D38*
X106810Y68812D03*
G54D29*
X51929Y40347D03*
Y52158D03*
X104449Y67212D03*
Y79023D03*
G54D48*
G01X36522Y82346D02*
Y78089D01*
G01X120209Y89123D02*
X124425Y93339D01*
X129193D01*
X130335Y94481D01*
Y109256D01*
X128365Y111226D01*
X88335D01*
X85656Y113905D01*
X68606D01*
X66654Y111953D01*
Y107953D01*
G01X116693Y7441D02*
X114193D01*
X113193Y6441D01*
X102834D01*
X100102Y9173D01*
X98622D01*
G01X101497Y72134D02*
X98690D01*
X97436Y70881D01*
G01X100317Y76071D02*
X98579Y77810D01*
G01X107995Y22734D02*
X103743D01*
X102262Y21252D01*
Y11263D01*
X104352Y9173D01*
X107992D01*
G01X112860Y10559D02*
X112645Y10774D01*
Y11901D01*
X111632Y12913D01*
X107992D01*
G01X116811Y13150D02*
X115450D01*
X112860Y10559D01*
G01X101497Y70165D02*
Y69832D01*
X100115Y68450D01*
Y68070D01*
G01X102085Y65168D02*
X102243Y65325D01*
Y66401D01*
X103054Y67212D01*
X104449D01*
G01X101497Y76071D02*
X100317D01*
G01X133897Y18661D02*
X130518D01*
X125006Y13150D01*
X122323D01*
G01Y18898D02*
Y22088D01*
X123323Y23088D01*
X139510D01*
X141771Y20827D01*
G01X131005Y77025D02*
X133093D01*
X136181Y73937D01*
G01D02*
X138661D01*
G01X139279Y94759D02*
X146810D01*
X148419Y93150D01*
G01X144361Y102126D02*
X142506Y100271D01*
X139279D01*
G01X154173Y21063D02*
X150291D01*
X147889Y18661D01*
X145708D01*
G01X154370Y33386D02*
X150640D01*
G54D39*
X110370Y68812D03*
G54D49*
G01X142313Y23916D02*
X141771Y23374D01*
Y20827D01*
G01D02*
Y18661D01*
M02*
