G04 ================== begin FILE IDENTIFICATION RECORD ==================*
G04 Layout Name:  D:/Projects/Mini_Audio/01.Hardware/POWER/PCB/POWER.brd*
G04 Film Name:    02.BOTTOM*
G04 File Format:  Gerber RS274X*
G04 File Origin:  Cadence Allegro 17.4-S037*
G04 Origin Date:  Thu Feb  1 14:49:59 2024*
G04 *
G04 Layer:  VIA CLASS/BOTTOM*
G04 Layer:  PIN/BOTTOM*
G04 Layer:  ETCH/BOTTOM*
G04 *
G04 Offset:    (0.000 0.000)*
G04 Mirror:    No*
G04 Mode:      Positive*
G04 Rotation:  0*
G04 FullContactRelief:  No*
G04 UndefLineWidth:     6.000*
G04 ================== end FILE IDENTIFICATION RECORD ====================*
%FSLAX35Y35*MOIN*%
%IR0*IPPOS*OFA0.00000B0.00000*MIA0B0*SFA1.00000B1.00000*%
%AMMACRO15*
21,1,.03,.032,0.0,0.0,45.*%
%ADD15MACRO15*%
%ADD14R,.03X.032*%
%ADD12C,.024*%
%ADD10C,.06*%
%ADD19R,.05118X.01181*%
%ADD20R,.019701X.0315*%
%ADD11R,.06X.06*%
%ADD17O,.047201X.070902*%
%ADD16O,.047201X.078701*%
%ADD13O,.055118X.08661*%
%ADD18R,.06299X.07874*%
%ADD21C,.008*%
G75*
%LPD*%
G75*
G36*
G01X57900Y25700D02*
X69400D01*
X71400Y23700D01*
Y10200D01*
X70100Y8900D01*
X58300D01*
X57400Y9800D01*
Y25200D01*
X57900Y25700D01*
G37*
G36*
G01X41800Y24700D02*
X42800Y25700D01*
X55300D01*
X56400Y24600D01*
Y9600D01*
X55700Y8900D01*
X43500D01*
X41800Y10600D01*
Y24700D01*
G37*
G36*
G01X57400Y37500D02*
Y52300D01*
X58100Y53000D01*
X68300D01*
X69400Y51900D01*
Y37600D01*
X68300Y36500D01*
X58400D01*
X57400Y37500D01*
G37*
G36*
G01X112010Y72580D02*
Y80020D01*
X113440Y81450D01*
X124700D01*
X125250Y80900D01*
Y72810D01*
X123580Y71140D01*
X113450D01*
X112010Y72580D01*
G37*
G36*
G01X129560Y56120D02*
X155620D01*
X155870Y55870D01*
Y46510D01*
X155750Y46390D01*
X138620D01*
X137270Y45040D01*
Y31280D01*
X136214Y30224D01*
G02X135677Y30197I-283J283D01*
G03X135557Y30281I-634J-773D01*
G01X135460Y30340D01*
Y33330D01*
X135070Y33720D01*
X129850D01*
X129590Y33460D01*
Y33280D01*
X129600Y33270D01*
Y30378D01*
X129488Y30323D01*
G03X129046Y29900I437J-899D01*
G01X128090D01*
X126100Y31890D01*
Y52660D01*
X129560Y56120D01*
G37*
G54D10*
X13780Y28150D03*
Y47835D03*
Y37992D03*
Y78543D03*
X17323Y108661D03*
X25197D03*
X33071D03*
G54D11*
X13780Y18307D03*
Y68701D03*
G54D20*
X129922Y109874D03*
X127952Y105086D03*
X131889D03*
G54D21*
G01X94235Y116210D02*
X153543D01*
G02X155580Y114173I0J-2037D01*
G01Y102528D01*
X147636Y110473D01*
G03X146657Y110976I-1273J-1273D01*
G03X146000Y111100I-657J-1676D01*
G01X137280D01*
Y112037D01*
G03X136753Y113310I-1800J0D01*
G01X135230Y114833D01*
G03X134776Y115163I-1273J-1273D01*
G03X133600Y115600I-1175J-1363D01*
G01X128200D01*
G03X126927Y115073I0J-1800D01*
G01X125827Y113973D01*
G03X125300Y112700I1273J-1273D01*
G01Y108100D01*
G03X125627Y107065I1800J0D01*
G03X125567Y106661I1341J-404D01*
G01Y103511D01*
G03X126152Y102373I1400J0D01*
G01Y100627D01*
G03X126680Y99354I1800J0D01*
G01X126715Y99319D01*
G03X130830Y97498I2585J281D01*
G01Y92336D01*
G03X128611Y90335I315J-2581D01*
G01X125271Y93675D01*
Y97024D01*
G03X121671I-1800J1876D01*
G01Y92929D01*
G03X122198Y91656I1800J0D01*
G01X134900Y78954D01*
Y78076D01*
G03X134682Y74560I1800J-1876D01*
G01X129680D01*
G03X128407Y74033I0J-1800D01*
G01X126650Y72276D01*
Y81480D01*
X125280Y82850D01*
X112860D01*
X110610Y80600D01*
Y72000D01*
X112870Y69740D01*
X124114D01*
X115597Y61223D01*
G03X115070Y59950I1273J-1273D01*
G01Y29890D01*
G03X115597Y28617I1800J0D01*
G01X119487Y24727D01*
X118459D01*
X114073Y29113D01*
G03X112800Y29640I-1273J-1273D01*
G01X98436D01*
X97266Y30810D01*
Y58894D01*
G03X96739Y60167I-1800J0D01*
G01X92233Y64673D01*
G03X90960Y65200I-1273J-1273D01*
G01X63926D01*
X58570Y70556D01*
Y89460D01*
G03X58043Y90733I-1800J0D01*
G01X48183Y100593D01*
G03X47404Y101051I-1273J-1273D01*
G03X46010Y102320I-1394J-131D01*
G01X37490D01*
G03X36309Y101672I0J-1400D01*
G03Y96968I-1109J-2352D01*
G03X37490Y96320I1181J752D01*
G01X46010D01*
G03X46977Y96707I0J1400D01*
G01X49154Y94530D01*
X29116D01*
X26997Y96649D01*
Y104646D01*
G03X29134Y106696I-1800J4015D01*
G03X37380Y107770I3937J1965D01*
G01Y107087D01*
G03X45692I4156J0D01*
G01Y110236D01*
G03X37380I-4156J0D01*
G01Y109553D01*
G03X29134Y110626I-4309J-892D01*
G03X21260I-3937J-1965D01*
G03X13014Y109553I-3937J-1965D01*
G01Y110236D01*
G03X4702I-4156J0D01*
G01Y107087D01*
G03X13014I4156J0D01*
G01Y107770D01*
G03X21260Y106696I4309J892D01*
G03X23397Y104646I3937J1965D01*
G01Y95903D01*
G03X23924Y94630I1800J0D01*
G01X27097Y91457D01*
G03X28370Y90930I1273J1273D01*
G01X50491D01*
X53370Y88051D01*
Y69147D01*
G03X53897Y67874I1800J0D01*
G01X61244Y60527D01*
G03X62517Y60000I1273J1273D01*
G01X89552D01*
X92066Y57485D01*
Y28242D01*
G03X92086Y27974I1800J0D01*
G03X95775Y24309I1813J-1864D01*
G01X111125D01*
X115756Y19678D01*
G03X117029Y19151I1273J1273D01*
G01X129227D01*
G03X129932Y18960I705J1210D01*
G01X135050D01*
G03X136450Y20360I0J1400D01*
G01Y21542D01*
G03X136389Y21951I-1400J0D01*
G03X136443Y22336I-1346J386D01*
G01Y25486D01*
G03X136387Y25880I-1400J0D01*
G03X136443Y26274I-1344J393D01*
G01Y28500D01*
X136470D01*
X138670Y30700D01*
Y34831D01*
G03X139886Y34125I1216J694D01*
G01X146186D01*
G03X147586Y35525I0J1400D01*
G01Y43399D01*
G03X146186Y44799I-1400J0D01*
G01X139886D01*
G03X138670Y44093I0J-1400D01*
G01Y44460D01*
X139200Y44990D01*
X155580D01*
Y3937D01*
G02X153543Y1900I-2037J0D01*
G01X3937D01*
G02X1900Y3937I0J2037D01*
G01Y114173D01*
G02X3937Y116210I2037J0D01*
G01X80666D01*
G03X80627Y116173I1235J-1310D01*
G01X79440Y114986D01*
G03X78912Y113713I1273J-1273D01*
G01Y104064D01*
G03Y100311I1800J-1876D01*
G01Y99458D01*
X67127Y87673D01*
G03X66600Y86400I1273J-1273D01*
G01Y71900D01*
G03X67127Y70627I1800J0D01*
G01X67900Y69854D01*
G03X70446Y72400I2600J-54D01*
G01X70200Y72646D01*
Y85654D01*
X81986Y97440D01*
G03X82513Y98713I-1273J1273D01*
G01Y100311D01*
G03Y104064I-1800J1876D01*
G01Y111169D01*
G03X83100Y110324I2387J1031D01*
G01Y103900D01*
G03X83627Y102627I1800J0D01*
G01X89253Y97001D01*
Y87732D01*
X88789Y87269D01*
G03X84598Y87885I-2315J-1184D01*
G01X84267D01*
G03X83874Y89091I-1383J216D01*
G01X81611Y91354D01*
G03X79631I-990J-990D01*
G01X77510Y89233D01*
G03Y87253I990J-990D01*
G01X79772Y84990D01*
G03X81517Y84801I990J990D01*
G03X82779Y84285I1262J1284D01*
G01X83339D01*
X80427Y81373D01*
G03X79900Y80100I1273J-1273D01*
G01Y73690D01*
G03X79426Y72474I1327J-1217D01*
G01Y72250D01*
G03X83241Y72017I1800J-1876D01*
G03X83500Y72947I-1541J930D01*
G01Y79354D01*
X85446Y81300D01*
X87167D01*
G03X88440Y81827I0J1800D01*
G01X91700Y85087D01*
Y76445D01*
X86554Y71299D01*
G03X89100Y68753I-54J-2600D01*
G01X92868Y72522D01*
G03X94424Y70983I2437J908D01*
G03X94832Y69930I1399J-63D01*
G01X97095Y67667D01*
G03X99075I990J990D01*
G01X101197Y69788D01*
G03Y71768I-990J990D01*
G01X98934Y74031D01*
G03X97709Y74421I-990J-990D01*
G03X95300Y76030I-2404J-992D01*
G01Y95254D01*
X102273Y102227D01*
G03X102800Y103500I-1273J1273D01*
G01Y110324D01*
G03X99200I-1800J1876D01*
G01Y104246D01*
X98005Y103051D01*
G03X97473Y103776I-2332J-1151D01*
G01Y112227D01*
G03X96946Y113500I-1800J0D01*
G01X94273Y116173D01*
G03X94235Y116210I-1273J-1272D01*
G01X10780Y73101D02*
X16780D01*
G02X18180Y71701I0J-1400D01*
G01Y65701D01*
G02X16780Y64301I-1400J0D01*
G01X10780D01*
G02X9379Y65701I0J1400D01*
G01Y71701D01*
G02X10780Y73101I1400J0D01*
G01Y22707D02*
X16780D01*
G02X18180Y21307I0J-1400D01*
G01Y15307D01*
G02X16780Y13907I-1400J0D01*
G01X10780D01*
G02X9379Y15307I0J1400D01*
G01Y21307D01*
G02X10780Y22707I1400J0D01*
G01X139886Y17635D02*
X146186D01*
G02X147586Y16235I0J-1400D01*
G01Y8361D01*
G02X146186Y6961I-1400J0D01*
G01X139886D01*
G02X138486Y8361I0J1400D01*
G01Y16235D01*
G02X139886Y17635I1400J0D01*
G01X27681Y78755D02*
G02X31281I1800J1876D01*
G01Y76495D01*
X33496Y74280D01*
X43370D01*
G02X43866Y74211I0J-1800D01*
G02X47394Y70391I1774J-1901D01*
G02X43724Y66707I-1824J-1853D01*
G02X43412Y66680I-312J1773D01*
G01X31316D01*
G02Y70280I-1876J1800D01*
G01X43016D01*
G02X43470Y70338I454J-1742D01*
G01X43694D01*
G02X43816Y70457I1876J-1800D01*
G02X43764Y70510I1823J1854D01*
G01X43540D01*
G02X42776Y70680I0J1800D01*
G01X32750D01*
G02X31477Y71207I0J1800D01*
G01X28208Y74476D01*
G02X27681Y75749I1273J1273D01*
G01Y78755D01*
G01X18180Y28150D02*
G02I-4400J0D01*
G01Y47835D02*
G02I-4400J0D01*
G01Y37992D02*
G02I-4400J0D01*
G01Y78543D02*
G02I-4400J0D01*
G01X120775Y99584D02*
G02I-1875J0D01*
G01X72454Y59820D02*
X77286D01*
X78300Y58806D01*
Y50384D01*
X75660Y47744D01*
Y31526D01*
X75906Y31280D01*
X71456Y26830D01*
X70250D01*
X72800Y24280D01*
Y9620D01*
X70680Y7500D01*
X57720D01*
X57000Y8220D01*
X56280Y7500D01*
X42920D01*
X40400Y10020D01*
Y25280D01*
X41950Y26830D01*
X38626D01*
X37166Y25370D01*
X34065D01*
G02X32864I-600J2530D01*
G01X31824D01*
X31140Y26054D01*
Y26735D01*
G02Y29065I2325J1165D01*
G01Y32726D01*
X31824Y33410D01*
X36136D01*
X37436Y32110D01*
X67984D01*
X69800Y33926D01*
Y36020D01*
X68880Y35100D01*
X57820D01*
X56000Y36920D01*
Y52880D01*
X57520Y54400D01*
X68880D01*
X69800Y53480D01*
Y57166D01*
X72454Y59820D01*
G01X1900Y113495D02*
X4615Y116210D01*
G01X1900Y111657D02*
X6453Y116210D01*
G01X1900Y109818D02*
X8292Y116210D01*
G01X8271Y114351D02*
X10130Y116210D01*
G01X1900Y107980D02*
X4744Y110823D01*
G01X9993Y114234D02*
X11969Y116210D01*
G01X1900Y106141D02*
X4702Y108943D01*
G01X11239Y113642D02*
X13807Y116210D01*
G01X1900Y104303D02*
X4702Y107105D01*
G01X12175Y112740D02*
X15646Y116210D01*
G01X1900Y102464D02*
X4993Y105558D01*
G01X12807Y111533D02*
X17484Y116210D01*
G01X1900Y100626D02*
X5681Y104407D01*
G01X15957Y112844D02*
X19323Y116210D01*
G01X13014Y109901D02*
X13140Y110027D01*
G01X1900Y98787D02*
X6667Y103555D01*
G01X17966Y113014D02*
X21161Y116210D01*
G01X1900Y96949D02*
X7976Y103025D01*
G01X19354Y112565D02*
X23000Y116210D01*
G01X12897Y106107D02*
X13420Y106630D01*
G01X1900Y95110D02*
X9837Y103048D01*
G01X20418Y111790D02*
X24838Y116210D01*
G01X1900Y93272D02*
X14195Y105567D01*
G01X22850Y112384D02*
X26677Y116210D01*
G01X21203Y110736D02*
X21475Y111008D01*
G01X1900Y91434D02*
X15248Y104781D01*
G01X25364Y113058D02*
X28515Y116210D01*
G01X1900Y89595D02*
X16622Y104317D01*
G01X26873Y112730D02*
X30354Y116210D01*
G01X1900Y87756D02*
X18592Y104448D01*
G01X28019Y112037D02*
X32192Y116210D01*
G01X1900Y85918D02*
X21821Y105839D01*
G01X28884Y111063D02*
X34031Y116210D01*
G01X1900Y84080D02*
X22795Y104974D01*
G01X32705Y113046D02*
X35869Y116210D01*
G01X1900Y82241D02*
X23397Y103738D01*
G01X34365Y112867D02*
X37708Y116210D01*
G01X1900Y80403D02*
X23397Y101899D01*
G01X35599Y112263D02*
X39546Y116210D01*
G01X26997Y103661D02*
X29469Y106133D01*
G01X1900Y78564D02*
X23397Y100061D01*
G01X36541Y111367D02*
X41385Y116210D01*
G01X26997Y101823D02*
X30365Y105191D01*
G01X1900Y76726D02*
X23397Y98222D01*
G01X41403Y114390D02*
X43223Y116210D01*
G01X37199Y110186D02*
X37382Y110369D01*
G01X26997Y99984D02*
X31546Y104534D01*
G01X1900Y74887D02*
X23397Y96384D01*
G01X42983Y114132D02*
X45062Y116210D01*
G01X26997Y98146D02*
X33113Y104261D01*
G01X1900Y73049D02*
X23722Y94871D01*
G01X44154Y113464D02*
X46900Y116210D01*
G01X27168Y96478D02*
X37397Y106707D01*
G01X13631Y82941D02*
X24622Y93932D01*
G01X1900Y71210D02*
X9382Y78692D01*
G01X45024Y112496D02*
X48738Y116210D01*
G01X34281Y101752D02*
X37798Y105270D01*
G01X28087Y95559D02*
X32768Y100239D01*
G01X15227Y82699D02*
X25541Y93013D01*
G01X1900Y69372D02*
X9624Y77096D01*
G01X45576Y111210D02*
X50577Y116210D01*
G01X36119Y101752D02*
X38556Y104189D01*
G01X29006Y94640D02*
X32768Y98401D01*
G01X16426Y82059D02*
X26460Y92094D01*
G01X1900Y67533D02*
X10264Y75897D01*
G01X45692Y109487D02*
X52416Y116210D01*
G01X38526Y102320D02*
X39609Y103404D01*
G01X30736Y94530D02*
X33531Y97326D01*
G01X17338Y81132D02*
X27411Y91206D01*
G01X1900Y65695D02*
X11191Y74985D01*
G01X45692Y107648D02*
X54254Y116210D01*
G01X40364Y102320D02*
X41008Y102964D01*
G01X32574Y94530D02*
X34795Y96751D01*
G01X17960Y79916D02*
X28974Y90930D01*
G01X11145Y73101D02*
X12406Y74363D01*
G01X1900Y63856D02*
X9379Y71336D01*
G01X45374Y105491D02*
X56092Y116210D01*
G01X42202Y102320D02*
X43131Y103249D01*
G01X34412Y94530D02*
X36558Y96675D01*
G01X18172Y78290D02*
X30812Y90930D01*
G01X12983Y73101D02*
X14032Y74150D01*
G01X1900Y62018D02*
X9379Y69497D01*
G01X44041Y102320D02*
X57931Y116210D01*
G01X36251Y94530D02*
X38040Y96320D01*
G01X14822Y73101D02*
X32650Y90930D01*
G01X1900Y60179D02*
X9379Y67659D01*
G01X45879Y102320D02*
X59769Y116210D01*
G01X38089Y94530D02*
X39879Y96320D01*
G01X16660Y73101D02*
X34489Y90930D01*
G01X1900Y58341D02*
X9379Y65820D01*
G01X47142Y101744D02*
X61608Y116210D01*
G01X39928Y94530D02*
X41717Y96320D01*
G01X28388Y82990D02*
X36327Y90930D01*
G01X17916Y72518D02*
X27122Y81724D01*
G01X1900Y56502D02*
X9962Y64564D01*
G01X47994Y100758D02*
X63446Y116210D01*
G01X41766Y94530D02*
X43556Y96320D01*
G01X30326Y83090D02*
X38166Y90930D01*
G01X18180Y70944D02*
X27022Y79786D01*
G01X1900Y54664D02*
X11537Y64301D01*
G01X48925Y99850D02*
X65285Y116210D01*
G01X43605Y94530D02*
X45394Y96320D01*
G01X31429Y82354D02*
X40004Y90930D01*
G01X18180Y69105D02*
X27681Y78606D01*
G01X1900Y52825D02*
X13375Y64301D01*
G01X49844Y98931D02*
X67123Y116210D01*
G01X45443Y94530D02*
X47299Y96385D01*
G01X32035Y81122D02*
X41843Y90930D01*
G01X18180Y67267D02*
X27681Y76768D01*
G01X1900Y50987D02*
X15214Y64301D01*
G01X50764Y98012D02*
X68962Y116210D01*
G01X47282Y94530D02*
X48218Y95466D01*
G01X31281Y78530D02*
X43681Y90930D01*
G01X18146Y65394D02*
X27816Y75064D01*
G01X1900Y49148D02*
X17086Y64334D01*
G01X51683Y97093D02*
X70800Y116210D01*
G01X49120Y94530D02*
X49137Y94547D01*
G01X31281Y76691D02*
X45520Y90930D01*
G01X1900Y47310D02*
X28637Y74047D01*
G01X52602Y96174D02*
X72639Y116210D01*
G01X32102Y75674D02*
X47358Y90930D01*
G01X1900Y45472D02*
X29556Y73128D01*
G01X53521Y95254D02*
X74477Y116210D01*
G01X33022Y74754D02*
X49197Y90930D01*
G01X29345Y71079D02*
X30476Y72209D01*
G01X1900Y43633D02*
X26841Y68574D01*
G01X54441Y94335D02*
X76316Y116210D01*
G01X34386Y74280D02*
X50763Y90658D01*
G01X30801Y70696D02*
X31395Y71289D01*
G01X11935Y51830D02*
X27224Y67119D01*
G01X1900Y41794D02*
X9784Y49679D01*
G01X55360Y93416D02*
X78154Y116210D01*
G01X36224Y74280D02*
X51683Y89739D01*
G01X32224Y70280D02*
X32628Y70684D01*
G01X14162Y52218D02*
X28160Y66216D01*
G01X1900Y39956D02*
X9396Y47452D01*
G01X56279Y92497D02*
X79993Y116210D01*
G01X38063Y74280D02*
X52602Y88819D01*
G01X34063Y70280D02*
X34462Y70680D01*
G01X15616Y51834D02*
X29673Y65890D01*
G01X1900Y38118D02*
X9781Y45998D01*
G01X57198Y91577D02*
X78912Y113291D01*
G01X39901Y74280D02*
X53370Y87749D01*
G01X35901Y70280D02*
X36301Y70680D01*
G01X16725Y51104D02*
X32301Y66680D01*
G01X1900Y36279D02*
X10510Y44889D01*
G01X58115Y90656D02*
X78912Y111453D01*
G01X41740Y74280D02*
X53370Y85910D01*
G01X37740Y70280D02*
X38139Y70680D01*
G01X17555Y50095D02*
X34139Y66680D01*
G01X1900Y34441D02*
X11519Y44060D01*
G01X58570Y89272D02*
X78912Y109615D01*
G01X43567Y74269D02*
X53370Y84072D01*
G01X39578Y70280D02*
X39978Y70680D01*
G01X18077Y48779D02*
X35978Y66680D01*
G01X1900Y32602D02*
X12835Y43537D01*
G01X58570Y87434D02*
X78912Y107776D01*
G01X46019Y74883D02*
X53370Y82234D01*
G01X41417Y70280D02*
X41816Y70680D01*
G01X18091Y46955D02*
X37816Y66680D01*
G01X13521Y42385D02*
X14660Y43523D01*
G01X1900Y30764D02*
X9387Y38250D01*
G01X82513Y109538D02*
X83100Y110125D01*
G01X58570Y85595D02*
X78912Y105938D01*
G01X47293Y74318D02*
X53370Y80395D01*
G01X43306Y70331D02*
X43485Y70511D01*
G01X15149Y42174D02*
X39655Y66680D01*
G01X1900Y28925D02*
X9598Y36623D01*
G01X82513Y107700D02*
X83100Y108286D01*
G01X58570Y83757D02*
X78912Y104099D01*
G01X48064Y73251D02*
X53370Y78556D01*
G01X16366Y41552D02*
X41493Y66680D01*
G01X1900Y27087D02*
X10219Y35406D01*
G01X82513Y105861D02*
X83100Y106448D01*
G01X58570Y81918D02*
X78194Y101542D01*
G01X48090Y71438D02*
X53370Y76718D01*
G01X17293Y40641D02*
X43332Y66680D01*
G01X1900Y25248D02*
X11131Y34479D01*
G01X94468Y115978D02*
X94700Y116210D01*
G01X82534Y104044D02*
X83100Y104610D01*
G01X58570Y80080D02*
X78856Y100366D01*
G01X47987Y69497D02*
X53370Y74880D01*
G01X17934Y39443D02*
X44611Y66121D01*
G01X1900Y23410D02*
X12328Y33838D01*
G01X95387Y115059D02*
X96539Y116210D01*
G01X83217Y102888D02*
X83336Y103008D01*
G01X58570Y78242D02*
X66600Y86271D01*
G01X48033Y67704D02*
X53370Y73041D01*
G01X18177Y37849D02*
X46404Y66075D01*
G01X12758Y32430D02*
X13923Y33594D01*
G01X1900Y21571D02*
X9499Y29171D01*
G01X96306Y114139D02*
X98377Y116210D01*
G01X82788Y100621D02*
X84211Y102043D01*
G01X58570Y76403D02*
X66600Y84433D01*
G01X14633Y32466D02*
X53370Y71203D01*
G01X1900Y19733D02*
X9463Y27296D01*
G01X97195Y113189D02*
X100216Y116210D01*
G01X82500Y98494D02*
X85130Y101124D01*
G01X58570Y74565D02*
X66600Y82594D01*
G01X15971Y31965D02*
X53370Y69364D01*
G01X1900Y17894D02*
X9964Y25958D01*
G01X100616Y114772D02*
X102054Y116210D01*
G01X97473Y111629D02*
X98428Y112584D01*
G01X70200Y84356D02*
X86049Y100205D01*
G01X58570Y72726D02*
X66600Y80756D01*
G01X16996Y31152D02*
X53811Y67967D01*
G01X1900Y16056D02*
X10777Y24933D01*
G01X102193Y114510D02*
X103893Y116210D01*
G01X97473Y109791D02*
X98690Y111007D01*
G01X70200Y82518D02*
X86968Y99286D01*
G01X58570Y70888D02*
X66600Y78917D01*
G01X17743Y30060D02*
X54727Y67044D01*
G01X10308Y22626D02*
X11869Y24186D01*
G01X1900Y14217D02*
X9461Y21778D01*
G01X103164Y113642D02*
X105731Y116210D01*
G01X97473Y107952D02*
X99200Y109679D01*
G01X81172Y91651D02*
X87888Y98366D01*
G01X70200Y80679D02*
X77212Y87691D01*
G01X59324Y69802D02*
X66600Y77079D01*
G01X18153Y28632D02*
X55646Y66125D01*
G01X12228Y22707D02*
X13297Y23776D01*
G01X1900Y12379D02*
X9379Y19858D01*
G01X103600Y112240D02*
X107570Y116210D01*
G01X97474Y106114D02*
X99200Y107840D01*
G01X82162Y90803D02*
X88807Y97447D01*
G01X70200Y78841D02*
X78061Y86701D01*
G01X60243Y68883D02*
X66600Y75240D01*
G01X17858Y26499D02*
X56566Y65206D01*
G01X14067Y22707D02*
X15430Y24071D01*
G01X1900Y10540D02*
X9379Y18020D01*
G01X102800Y109602D02*
X109408Y116210D01*
G01X97474Y104275D02*
X99200Y106002D01*
G01X83082Y89884D02*
X89253Y96055D01*
G01X70200Y77002D02*
X78980Y85782D01*
G01X61162Y67964D02*
X66600Y73402D01*
G01X15905Y22707D02*
X57485Y64287D01*
G01X1900Y8702D02*
X9379Y16181D01*
G01X102800Y107764D02*
X111247Y116210D01*
G01X83993Y88956D02*
X89253Y94216D01*
G01X70200Y75164D02*
X79908Y84871D01*
G01X62081Y67045D02*
X66627Y71590D01*
G01X17527Y22491D02*
X58404Y63367D01*
G01X1900Y6864D02*
X9596Y14559D01*
G01X102800Y105925D02*
X113085Y116210D01*
G01X85258Y88383D02*
X89253Y92378D01*
G01X70200Y73325D02*
X81600Y84725D01*
G01X63001Y66126D02*
X67315Y70440D01*
G01X18180Y21305D02*
X59323Y62448D01*
G01X1900Y5025D02*
X10782Y13907D01*
G01X102800Y104087D02*
X114924Y116210D01*
G01X87273Y88559D02*
X89253Y90539D01*
G01X71054Y72340D02*
X82998Y84285D01*
G01X63920Y65206D02*
X67960Y69246D01*
G01X32124Y33410D02*
X60242Y61529D01*
G01X18180Y19466D02*
X31140Y32426D01*
G01X2005Y3292D02*
X12620Y13907D01*
G01X95300Y94748D02*
X116762Y116210D01*
G01X88392Y87840D02*
X89253Y88701D01*
G01X72263Y71711D02*
X79900Y79348D01*
G01X65752Y65200D02*
X68589Y68037D01*
G01X33962Y33410D02*
X61162Y60610D01*
G01X18180Y17628D02*
X31140Y30588D01*
G01X2799Y2247D02*
X14459Y13907D01*
G01X95300Y92910D02*
X118601Y116210D01*
G01X72978Y70588D02*
X79900Y77509D01*
G01X67591Y65200D02*
X69712Y67322D01*
G01X35800Y33410D02*
X62394Y60004D01*
G01X18180Y15789D02*
X30949Y28559D01*
G01X4290Y1900D02*
X16297Y13907D01*
G01X95300Y91071D02*
X120439Y116210D01*
G01X83500Y79271D02*
X85529Y81300D01*
G01X72781Y68552D02*
X79900Y75671D01*
G01X69429Y65200D02*
X71748Y67519D01*
G01X58629Y54400D02*
X64229Y60000D01*
G01X36887Y32658D02*
X56000Y51771D01*
G01X6129Y1900D02*
X31084Y26855D01*
G01X95300Y89233D02*
X122278Y116210D01*
G01X83500Y77433D02*
X87380Y81312D01*
G01X71268Y65200D02*
X79900Y73832D01*
G01X60468Y54400D02*
X66067Y60000D01*
G01X38178Y32110D02*
X56000Y49932D01*
G01X7968Y1900D02*
X31631Y25563D01*
G01X95300Y87394D02*
X124116Y116210D01*
G01X83500Y75594D02*
X91700Y83794D01*
G01X73106Y65200D02*
X78653Y70747D01*
G01X62306Y54400D02*
X67906Y60000D01*
G01X40016Y32110D02*
X56000Y48094D01*
G01X9806Y1900D02*
X33217Y25312D01*
G01X95300Y85556D02*
X125955Y116210D01*
G01X83500Y73756D02*
X91700Y81955D01*
G01X74945Y65200D02*
X78919Y69175D01*
G01X64145Y54400D02*
X69744Y60000D01*
G01X41854Y32110D02*
X56000Y46255D01*
G01X11644Y1900D02*
X35114Y25370D01*
G01X95300Y83717D02*
X127793Y116210D01*
G01X83394Y71811D02*
X91700Y80117D01*
G01X76783Y65200D02*
X79789Y68206D01*
G01X65983Y54400D02*
X71583Y60000D01*
G01X43693Y32110D02*
X56000Y44417D01*
G01X13483Y1900D02*
X36953Y25370D01*
G01X129022Y115600D02*
X129632Y116210D01*
G01X95300Y81879D02*
X125300Y111879D01*
G01X83826Y70405D02*
X91700Y78278D01*
G01X78622Y65200D02*
X81195Y67773D01*
G01X73241Y59820D02*
X73421Y60000D01*
G01X67822Y54400D02*
X69800Y56379D01*
G01X45531Y32110D02*
X56000Y42578D01*
G01X15321Y1900D02*
X40251Y26830D01*
G01X130860Y115600D02*
X131470Y116210D01*
G01X95300Y80040D02*
X125300Y110040D01*
G01X80460Y65200D02*
X83900Y68641D01*
G01X75080Y59820D02*
X75260Y60000D01*
G01X69270Y54010D02*
X69800Y54540D01*
G01X47370Y32110D02*
X56000Y40740D01*
G01X17160Y1900D02*
X40400Y25140D01*
G01X132698Y115600D02*
X133308Y116210D01*
G01X118518Y101420D02*
X125300Y108202D01*
G01X95300Y78202D02*
X117064Y99966D01*
G01X82299Y65200D02*
X84344Y67246D01*
G01X76918Y59820D02*
X77098Y60000D01*
G01X49208Y32110D02*
X56000Y38902D01*
G01X18998Y1900D02*
X40400Y23302D01*
G01X134366Y115429D02*
X135147Y116210D01*
G01X120023Y101086D02*
X125567Y106630D01*
G01X95300Y76364D02*
X117398Y98461D01*
G01X84137Y65200D02*
X85319Y66382D01*
G01X78021Y59085D02*
X78936Y60000D01*
G01X51047Y32110D02*
X56000Y37063D01*
G01X20837Y1900D02*
X40400Y21463D01*
G01X135419Y114644D02*
X136985Y116210D01*
G01X120737Y99962D02*
X125567Y104792D01*
G01X96509Y75734D02*
X118522Y97747D01*
G01X89068Y68293D02*
X93000Y72225D01*
G01X85976Y65200D02*
X86906Y66131D01*
G01X78300Y57525D02*
X80775Y60000D01*
G01X52885Y32110D02*
X56848Y36072D01*
G01X22675Y1900D02*
X40400Y19625D01*
G01X136338Y113725D02*
X138824Y116210D01*
G01X124049Y101435D02*
X125650Y103036D01*
G01X97475Y74862D02*
X120936Y98322D01*
G01X87814Y65200D02*
X93873Y71259D01*
G01X78300Y55686D02*
X82614Y60000D01*
G01X54724Y32110D02*
X57767Y35153D01*
G01X24514Y1900D02*
X40400Y17786D01*
G01X137153Y112701D02*
X140662Y116210D01*
G01X125249Y100797D02*
X126152Y101700D01*
G01X98683Y74230D02*
X121574Y97122D01*
G01X89652Y65200D02*
X94633Y70181D01*
G01X78300Y53848D02*
X84452Y60000D01*
G01X56562Y32110D02*
X59552Y35100D01*
G01X26352Y1900D02*
X40400Y15948D01*
G01X137391Y111100D02*
X142501Y116210D01*
G01X125956Y99665D02*
X126272Y99981D01*
G01X99628Y73337D02*
X121671Y95380D01*
G01X91429Y65138D02*
X95526Y69236D01*
G01X78300Y52009D02*
X86290Y60000D01*
G01X58401Y32110D02*
X61390Y35100D01*
G01X28191Y1900D02*
X40400Y14109D01*
G01X139229Y111100D02*
X144339Y116210D01*
G01X125714Y97585D02*
X126852Y98723D01*
G01X100547Y72418D02*
X121671Y93542D01*
G01X92518Y64388D02*
X96446Y68316D01*
G01X75660Y47531D02*
X88129Y60000D01*
G01X60239Y32110D02*
X63229Y35100D01*
G01X30029Y1900D02*
X40400Y12271D01*
G01X141068Y111100D02*
X146178Y116210D01*
G01X125271Y95304D02*
X127600Y97632D01*
G01X101429Y71461D02*
X121944Y91976D01*
G01X93437Y63469D02*
X97402Y67435D01*
G01X75660Y45692D02*
X89759Y59792D01*
G01X62078Y32110D02*
X65067Y35100D01*
G01X31868Y1900D02*
X40400Y10432D01*
G01X142906Y111100D02*
X148016Y116210D01*
G01X125376Y93570D02*
X128846Y97040D01*
G01X114656Y82850D02*
X122830Y91024D01*
G01X94356Y62550D02*
X110610Y78804D01*
G01X75660Y43854D02*
X90679Y58873D01*
G01X63916Y32110D02*
X66906Y35100D01*
G01X33706Y1900D02*
X41113Y9307D01*
G01X144745Y111100D02*
X149855Y116210D01*
G01X126295Y92651D02*
X130830Y97185D01*
G01X116495Y82850D02*
X123749Y90105D01*
G01X95275Y61631D02*
X110610Y76965D01*
G01X75660Y42016D02*
X91598Y57953D01*
G01X65755Y32110D02*
X68744Y35100D01*
G01X35545Y1900D02*
X42032Y8388D01*
G01X146510Y111027D02*
X151693Y116210D01*
G01X127215Y91732D02*
X130830Y95347D01*
G01X118333Y82850D02*
X124669Y89186D01*
G01X96194Y60711D02*
X110610Y75127D01*
G01X75660Y40177D02*
X92066Y56583D01*
G01X67593Y32110D02*
X69800Y34317D01*
G01X37383Y1900D02*
X42983Y7500D01*
G01X147715Y110394D02*
X153532Y116210D01*
G01X128134Y90812D02*
X130830Y93508D01*
G01X120172Y82850D02*
X125588Y88266D01*
G01X97057Y59736D02*
X110610Y73288D01*
G01X75660Y38338D02*
X92066Y54745D01*
G01X39222Y1900D02*
X44821Y7500D01*
G01X148634Y109474D02*
X154875Y115715D01*
G01X122010Y82850D02*
X126507Y87347D01*
G01X97266Y58107D02*
X110885Y71725D01*
G01X75660Y36500D02*
X92066Y52906D01*
G01X41060Y1900D02*
X46660Y7500D01*
G01X149554Y108555D02*
X155546Y114547D01*
G01X123849Y82850D02*
X127426Y86428D01*
G01X97266Y56268D02*
X111804Y70806D01*
G01X75660Y34662D02*
X92066Y51068D01*
G01X42898Y1900D02*
X48498Y7500D01*
G01X150473Y107636D02*
X155580Y112743D01*
G01X125484Y82647D02*
X128346Y85509D01*
G01X97266Y54430D02*
X112723Y69886D01*
G01X75660Y32823D02*
X92066Y49229D01*
G01X44737Y1900D02*
X50337Y7500D01*
G01X151392Y106717D02*
X155580Y110905D01*
G01X126403Y81727D02*
X129265Y84589D01*
G01X97266Y52591D02*
X114415Y69740D01*
G01X70878Y26202D02*
X92066Y47391D01*
G01X46576Y1900D02*
X52175Y7500D01*
G01X152311Y105797D02*
X155580Y109066D01*
G01X126650Y80136D02*
X130184Y83670D01*
G01X97266Y50752D02*
X116254Y69740D01*
G01X71797Y25283D02*
X92066Y45552D01*
G01X48414Y1900D02*
X54014Y7500D01*
G01X153231Y104878D02*
X155580Y107228D01*
G01X126650Y78298D02*
X131103Y82751D01*
G01X97266Y48914D02*
X118092Y69740D01*
G01X72716Y24364D02*
X92066Y43714D01*
G01X50252Y1900D02*
X55852Y7500D01*
G01X154150Y103959D02*
X155580Y105389D01*
G01X126650Y76459D02*
X132022Y81832D01*
G01X97266Y47076D02*
X119931Y69740D01*
G01X72800Y22609D02*
X92066Y41875D01*
G01X52091Y1900D02*
X57705Y7514D01*
G01X155069Y103040D02*
X155580Y103551D01*
G01X126650Y74621D02*
X132942Y80912D01*
G01X97266Y45237D02*
X121769Y69740D01*
G01X72800Y20771D02*
X92066Y40037D01*
G01X53929Y1900D02*
X59529Y7500D01*
G01X126650Y72782D02*
X133861Y79993D01*
G01X97266Y43399D02*
X123608Y69740D01*
G01X72800Y18932D02*
X92066Y38198D01*
G01X55768Y1900D02*
X61368Y7500D01*
G01X130266Y74560D02*
X134780Y79074D01*
G01X97266Y41560D02*
X115070Y59364D01*
G01X72800Y17094D02*
X92066Y36360D01*
G01X57606Y1900D02*
X63206Y7500D01*
G01X132105Y74560D02*
X134128Y76583D01*
G01X97266Y39722D02*
X115070Y57525D01*
G01X72800Y15256D02*
X92066Y34521D01*
G01X59445Y1900D02*
X65045Y7500D01*
G01X133944Y74560D02*
X134390Y75007D01*
G01X97266Y37883D02*
X115070Y55687D01*
G01X72800Y13417D02*
X92066Y32683D01*
G01X61283Y1900D02*
X66883Y7500D01*
G01X97266Y36045D02*
X115070Y53848D01*
G01X72800Y11578D02*
X92066Y30844D01*
G01X63122Y1900D02*
X68722Y7500D01*
G01X97266Y34206D02*
X115070Y52010D01*
G01X72800Y9740D02*
X92066Y29006D01*
G01X64960Y1900D02*
X70560Y7500D01*
G01X97266Y32368D02*
X115070Y50171D01*
G01X66799Y1900D02*
X91317Y26418D01*
G01X97407Y30669D02*
X115070Y48333D01*
G01X68637Y1900D02*
X91611Y24874D01*
G01X98326Y29750D02*
X115070Y46494D01*
G01X70476Y1900D02*
X92496Y23920D01*
G01X100054Y29640D02*
X115070Y44656D01*
G01X72314Y1900D02*
X93923Y23509D01*
G01X101893Y29640D02*
X115070Y42817D01*
G01X74153Y1900D02*
X96562Y24309D01*
G01X103731Y29640D02*
X115070Y40979D01*
G01X75991Y1900D02*
X98400Y24309D01*
G01X105570Y29640D02*
X115070Y39140D01*
G01X77830Y1900D02*
X100239Y24309D01*
G01X107408Y29640D02*
X115070Y37302D01*
G01X79668Y1900D02*
X102077Y24309D01*
G01X109247Y29640D02*
X115070Y35463D01*
G01X81507Y1900D02*
X103916Y24309D01*
G01X111085Y29640D02*
X115070Y33625D01*
G01X83345Y1900D02*
X105754Y24309D01*
G01X112920Y29636D02*
X115070Y31786D01*
G01X85184Y1900D02*
X107593Y24309D01*
G01X114154Y29032D02*
X115070Y29948D01*
G01X87022Y1900D02*
X109431Y24309D01*
G01X115073Y28113D02*
X115587Y28627D01*
G01X88861Y1900D02*
X111197Y24237D01*
G01X115992Y27194D02*
X116506Y27708D01*
G01X90699Y1900D02*
X112116Y23318D01*
G01X116912Y26274D02*
X117426Y26788D01*
G01X92537Y1900D02*
X113036Y22398D01*
G01X117831Y25355D02*
X118345Y25869D01*
G01X94376Y1900D02*
X113955Y21479D01*
G01X138670Y44356D02*
X139304Y44990D01*
G01X119042Y24727D02*
X119264Y24950D01*
G01X96214Y1900D02*
X114874Y20560D01*
G01X140952Y44799D02*
X141143Y44990D01*
G01X98053Y1900D02*
X115794Y19641D01*
G01X142790Y44799D02*
X142981Y44990D01*
G01X99891Y1900D02*
X117142Y19151D01*
G01X144629Y44799D02*
X144820Y44990D01*
G01X101730Y1900D02*
X118981Y19151D01*
G01X146444Y44775D02*
X146658Y44990D01*
G01X103568Y1900D02*
X120819Y19151D01*
G01X147468Y43961D02*
X148496Y44990D01*
G01X105407Y1900D02*
X122658Y19151D01*
G01X147586Y42241D02*
X150335Y44990D01*
G01X138670Y33325D02*
X139519Y34174D01*
G01X107245Y1900D02*
X124496Y19151D01*
G01X147586Y40402D02*
X152173Y44990D01*
G01X138670Y31487D02*
X141309Y34125D01*
G01X109084Y1900D02*
X126335Y19151D01*
G01X147586Y38564D02*
X154012Y44990D01*
G01X136443Y27421D02*
X143147Y34125D01*
G01X110922Y1900D02*
X128173Y19151D01*
G01X147586Y36725D02*
X155580Y44720D01*
G01X136440Y25580D02*
X144986Y34125D01*
G01X112761Y1900D02*
X129825Y18964D01*
G01X136443Y23744D02*
X155580Y42881D01*
G01X114599Y1900D02*
X131659Y18960D01*
G01X136410Y21873D02*
X155580Y41043D01*
G01X116438Y1900D02*
X133498Y18960D01*
G01X136412Y20036D02*
X155580Y39204D01*
G01X118276Y1900D02*
X135374Y18998D01*
G01X120115Y1900D02*
X155580Y37366D01*
G01X121953Y1900D02*
X155580Y35527D01*
G01X139460Y17569D02*
X155580Y33689D01*
G01X123792Y1900D02*
X138553Y16661D01*
G01X141365Y17635D02*
X155580Y31850D01*
G01X125630Y1900D02*
X138486Y14756D01*
G01X143204Y17635D02*
X155580Y30012D01*
G01X127468Y1900D02*
X138486Y12918D01*
G01X145042Y17635D02*
X155580Y28173D01*
G01X129307Y1900D02*
X138486Y11079D01*
G01X146758Y17513D02*
X155580Y26335D01*
G01X131146Y1900D02*
X138486Y9241D01*
G01X147564Y16480D02*
X155580Y24496D01*
G01X132984Y1900D02*
X138700Y7617D01*
G01X147586Y14663D02*
X155580Y22658D01*
G01X134822Y1900D02*
X139883Y6961D01*
G01X147586Y12825D02*
X155580Y20820D01*
G01X136661Y1900D02*
X141722Y6961D01*
G01X147586Y10986D02*
X155580Y18981D01*
G01X138499Y1900D02*
X143560Y6961D01*
G01X147586Y9148D02*
X155580Y17143D01*
G01X140338Y1900D02*
X145399Y6961D01*
G01X142176Y1900D02*
X155580Y15304D01*
G01X144015Y1900D02*
X155580Y13466D01*
G01X145853Y1900D02*
X155580Y11627D01*
G01X147692Y1900D02*
X155580Y9789D01*
G01X149530Y1900D02*
X155580Y7950D01*
G01X151369Y1900D02*
X155580Y6112D01*
G01X153207Y1900D02*
X155580Y4273D01*
G01X3024Y2116D02*
X2116Y3024D01*
G01X5078Y1900D02*
X1900Y5078D01*
G01X6917Y1900D02*
X1900Y6917D01*
G01X8756Y1900D02*
X1900Y8756D01*
G01X10594Y1900D02*
X1900Y10594D01*
G01X12432Y1900D02*
X1900Y12432D01*
G01X14271Y1900D02*
X1900Y14271D01*
G01X16109Y1900D02*
X1900Y16109D01*
G01X17948Y1900D02*
X1900Y17948D01*
G01X19786Y1900D02*
X1900Y19786D01*
G01X21625Y1900D02*
X1900Y21625D01*
G01X9379Y15984D02*
X1900Y23463D01*
G01X23463Y1900D02*
X11456Y13907D01*
G01X9379Y17822D02*
X1900Y25302D01*
G01X25302Y1900D02*
X13295Y13907D01*
G01X9379Y19661D02*
X1900Y27140D01*
G01X27140Y1900D02*
X15133Y13907D01*
G01X9391Y21488D02*
X1900Y28979D01*
G01X28979Y1900D02*
X16960Y13919D01*
G01X10156Y22561D02*
X1900Y30817D01*
G01X30817Y1900D02*
X18033Y14684D01*
G01X11848Y22707D02*
X1900Y32656D01*
G01X32656Y1900D02*
X18180Y16376D01*
G01X9590Y26804D02*
X1900Y34494D01*
G01X13687Y22707D02*
X12434Y23960D01*
G01X34494Y1900D02*
X18180Y18214D01*
G01X9428Y28804D02*
X1900Y36333D01*
G01X15525Y22707D02*
X14434Y23798D01*
G01X36333Y1900D02*
X18180Y20053D01*
G01X9881Y30190D02*
X1900Y38171D01*
G01X38171Y1900D02*
X15820Y24251D01*
G01X10658Y31251D02*
X1900Y40010D01*
G01X40010Y1900D02*
X16881Y25028D01*
G01X11714Y32035D02*
X1900Y41848D01*
G01X41848Y1900D02*
X17665Y26084D01*
G01X10345Y35242D02*
X1900Y43687D01*
G01X13091Y32496D02*
X11029Y34558D01*
G01X43687Y1900D02*
X18126Y27461D01*
G01X9380Y38046D02*
X1900Y45525D01*
G01X15068Y32357D02*
X13833Y33592D01*
G01X45525Y1900D02*
X17987Y29438D01*
G01X9678Y39586D02*
X1900Y47364D01*
G01X47364Y1900D02*
X15373Y33891D01*
G01X10351Y40751D02*
X1900Y49202D01*
G01X40400Y10702D02*
X16538Y34564D01*
G01X49202Y1900D02*
X43602Y7500D01*
G01X11308Y41633D02*
X1900Y51040D01*
G01X40400Y12541D02*
X17420Y35520D01*
G01X51040Y1900D02*
X45441Y7500D01*
G01X12559Y42220D02*
X1900Y52879D01*
G01X40400Y14379D02*
X18007Y36772D01*
G01X52879Y1900D02*
X47279Y7500D01*
G01X9427Y47191D02*
X1900Y54717D01*
G01X14250Y42367D02*
X13136Y43482D01*
G01X40400Y16218D02*
X18154Y38463D01*
G01X54717Y1900D02*
X49118Y7500D01*
G01X9519Y48936D02*
X1900Y56556D01*
G01X30885Y27571D02*
X14881Y43575D01*
G01X40400Y18056D02*
X33135Y25321D01*
G01X56556Y1900D02*
X50956Y7500D01*
G01X10079Y50216D02*
X1900Y58394D01*
G01X31140Y29154D02*
X16160Y44134D01*
G01X40400Y19895D02*
X34924Y25370D01*
G01X58394Y1900D02*
X52795Y7500D01*
G01X10938Y51195D02*
X1900Y60233D01*
G01X31140Y30993D02*
X17140Y44993D01*
G01X40400Y21733D02*
X36763Y25370D01*
G01X60233Y1900D02*
X54633Y7500D01*
G01X12078Y51893D02*
X1900Y62071D01*
G01X31193Y32779D02*
X17838Y46134D01*
G01X40400Y23572D02*
X37884Y26088D01*
G01X62071Y1900D02*
X56376Y7596D01*
G01X13580Y52230D02*
X1900Y63910D01*
G01X32400Y33410D02*
X18175Y47635D01*
G01X40465Y25345D02*
X38980Y26830D01*
G01X63910Y1900D02*
X58310Y7500D01*
G01X16036Y51612D02*
X1900Y65748D01*
G01X34238Y33410D02*
X17557Y50091D01*
G01X41384Y26264D02*
X40818Y26830D01*
G01X65748Y1900D02*
X60149Y7500D01*
G01X36077Y33410D02*
X1900Y67587D01*
G01X67587Y1900D02*
X61987Y7500D01*
G01X39215Y32110D02*
X1900Y69425D01*
G01X69425Y1900D02*
X63826Y7500D01*
G01X41054Y32110D02*
X1900Y71264D01*
G01X71264Y1900D02*
X65664Y7500D01*
G01X9382Y65621D02*
X1900Y73102D01*
G01X42892Y32110D02*
X10700Y64303D01*
G01X73102Y1900D02*
X67502Y7500D01*
G01X9379Y67462D02*
X1900Y74941D01*
G01X44731Y32110D02*
X12540Y64301D01*
G01X74941Y1900D02*
X69341Y7500D01*
G01X9379Y69300D02*
X1900Y76779D01*
G01X46569Y32110D02*
X14379Y64301D01*
G01X76779Y1900D02*
X70930Y7750D01*
G01X9379Y71138D02*
X1900Y78618D01*
G01X48408Y32110D02*
X16217Y64301D01*
G01X78618Y1900D02*
X71849Y8669D01*
G01X9729Y72627D02*
X1900Y80456D01*
G01X50246Y32110D02*
X17706Y64650D01*
G01X80456Y1900D02*
X72768Y9588D01*
G01X11094Y73101D02*
X1900Y82295D01*
G01X52085Y32110D02*
X18180Y66015D01*
G01X82295Y1900D02*
X72800Y11394D01*
G01X12932Y73101D02*
X1900Y84133D01*
G01X53923Y32110D02*
X18180Y67853D01*
G01X84133Y1900D02*
X72800Y13233D01*
G01X9380Y78492D02*
X1900Y85972D01*
G01X14771Y73101D02*
X13728Y74143D01*
G01X55762Y32110D02*
X18180Y69692D01*
G01X85972Y1900D02*
X72800Y15071D01*
G01X9649Y80061D02*
X1900Y87810D01*
G01X16609Y73101D02*
X15297Y74413D01*
G01X57600Y32110D02*
X18180Y71530D01*
G01X87810Y1900D02*
X72800Y16910D01*
G01X10305Y81243D02*
X1900Y89649D01*
G01X59439Y32110D02*
X16480Y75069D01*
G01X89649Y1900D02*
X72800Y18748D01*
G01X11246Y82141D02*
X1900Y91487D01*
G01X56000Y37387D02*
X17377Y76010D01*
G01X61277Y32110D02*
X58287Y35100D01*
G01X91487Y1900D02*
X72800Y20587D01*
G01X12479Y82747D02*
X1900Y93326D01*
G01X26842Y68384D02*
X17983Y77242D01*
G01X56000Y39226D02*
X29344Y65882D01*
G01X63116Y32110D02*
X60126Y35100D01*
G01X93326Y1900D02*
X72800Y22425D01*
G01X14135Y82929D02*
X1900Y95164D01*
G01X27224Y69840D02*
X18165Y78899D01*
G01X56000Y41064D02*
X30800Y66264D01*
G01X64954Y32110D02*
X61964Y35100D01*
G01X95164Y1900D02*
X72800Y24264D01*
G01X28159Y70743D02*
X1900Y97002D01*
G01X56000Y42903D02*
X32223Y66680D01*
G01X66792Y32110D02*
X63803Y35100D01*
G01X97002Y1900D02*
X71764Y27138D01*
G01X29671Y71070D02*
X1900Y98841D01*
G01X56000Y44741D02*
X34061Y66680D01*
G01X68308Y32433D02*
X65641Y35100D01*
G01X98841Y1900D02*
X72683Y28058D01*
G01X32299Y70280D02*
X1900Y100679D01*
G01X56000Y46580D02*
X35900Y66680D01*
G01X69227Y33353D02*
X67480Y35100D01*
G01X100679Y1900D02*
X73603Y28977D01*
G01X27681Y76737D02*
X1900Y102518D01*
G01X34138Y70280D02*
X33738Y70680D01*
G01X56000Y48418D02*
X37738Y66680D01*
G01X69800Y34618D02*
X69099Y35319D01*
G01X102518Y1900D02*
X74522Y29896D01*
G01X27681Y78576D02*
X1900Y104356D01*
G01X35976Y70280D02*
X35577Y70680D01*
G01X56000Y50257D02*
X39577Y66680D01*
G01X104356Y1900D02*
X75441Y30815D01*
G01X26935Y81160D02*
X1900Y106195D01*
G01X33815Y74280D02*
X31281Y76814D01*
G01X37815Y70280D02*
X37415Y70680D01*
G01X56000Y52095D02*
X41415Y66680D01*
G01X106195Y1900D02*
X75660Y32435D01*
G01X27555Y82378D02*
X1900Y108033D01*
G01X35653Y74280D02*
X31281Y78652D01*
G01X39653Y70280D02*
X39254Y70680D01*
G01X56526Y53407D02*
X43254Y66680D01*
G01X108033Y1900D02*
X75660Y34273D01*
G01X4702Y107070D02*
X1900Y109872D01*
G01X28670Y83102D02*
X8841Y102931D01*
G01X37492Y74280D02*
X31952Y79820D01*
G01X41492Y70280D02*
X41092Y70680D01*
G01X57446Y54326D02*
X45822Y65950D01*
G01X109872Y1900D02*
X75660Y36112D01*
G01X4702Y108909D02*
X1900Y111710D01*
G01X30663Y82947D02*
X10388Y103222D01*
G01X39330Y74280D02*
X31797Y81813D01*
G01X43282Y70328D02*
X43025Y70585D01*
G01X59210Y54400D02*
X47143Y66468D01*
G01X111710Y1900D02*
X75660Y37950D01*
G01X4730Y110719D02*
X1900Y113549D01*
G01X41168Y74280D02*
X11538Y103910D01*
G01X61049Y54400D02*
X47952Y67496D01*
G01X113549Y1900D02*
X75660Y39789D01*
G01X5158Y112129D02*
X2145Y115142D01*
G01X43007Y74280D02*
X12390Y104897D01*
G01X62887Y54400D02*
X48084Y69204D01*
G01X91302Y25986D02*
X75660Y41627D01*
G01X115387Y1900D02*
X93775Y23512D01*
G01X5935Y113191D02*
X3097Y116029D01*
G01X23406Y95720D02*
X12920Y106206D01*
G01X44486Y74640D02*
X28187Y90939D01*
G01X64726Y54400D02*
X47970Y71156D01*
G01X91673Y27453D02*
X75660Y43466D01*
G01X117226Y1900D02*
X95242Y23883D01*
G01X7007Y113957D02*
X4754Y116210D01*
G01X23397Y97568D02*
X16652Y104313D01*
G01X46094Y74870D02*
X30034Y90930D01*
G01X66564Y54400D02*
X48200Y72764D01*
G01X92066Y28898D02*
X75660Y45304D01*
G01X119064Y1900D02*
X96655Y24309D01*
G01X8432Y114370D02*
X6592Y116210D01*
G01X13058Y109745D02*
X13014Y109789D01*
G01X23397Y99406D02*
X18406Y104397D01*
G01X53370Y69433D02*
X31873Y90930D01*
G01X68402Y54400D02*
X62803Y60000D01*
G01X92066Y30737D02*
X75660Y47143D01*
G01X120903Y1900D02*
X98494Y24309D01*
G01X10660Y113981D02*
X8431Y116210D01*
G01X13613Y111028D02*
X12603Y112038D01*
G01X23397Y101244D02*
X19689Y104952D01*
G01X30111Y94530D02*
X26997Y97644D01*
G01X53370Y71271D02*
X33711Y90930D01*
G01X69800Y54841D02*
X64641Y60000D01*
G01X92066Y32575D02*
X76278Y48363D01*
G01X122741Y1900D02*
X100332Y24309D01*
G01X14469Y112011D02*
X10269Y116210D01*
G01X23397Y103083D02*
X20672Y105808D01*
G01X31949Y94530D02*
X26997Y99482D01*
G01X53370Y73110D02*
X35550Y90930D01*
G01X69800Y56680D02*
X66480Y60000D01*
G01X92066Y34414D02*
X77198Y49282D01*
G01X124580Y1900D02*
X102170Y24309D01*
G01X15606Y112713D02*
X12108Y116210D01*
G01X33788Y94530D02*
X26997Y101321D01*
G01X53370Y74948D02*
X37388Y90930D01*
G01X70476Y57842D02*
X68318Y60000D01*
G01X92066Y36252D02*
X78117Y50201D01*
G01X98678Y29640D02*
X97266Y31052D01*
G01X126418Y1900D02*
X104009Y24309D01*
G01X17101Y113056D02*
X13946Y116210D01*
G01X35626Y94530D02*
X26997Y103160D01*
G01X53370Y76787D02*
X39227Y90930D01*
G01X64956Y65200D02*
X58570Y71586D01*
G01X71395Y58761D02*
X70157Y60000D01*
G01X92066Y38091D02*
X78300Y51857D01*
G01X100516Y29640D02*
X97266Y32890D01*
G01X128257Y1900D02*
X105847Y24309D01*
G01X19523Y112472D02*
X15785Y116210D01*
G01X21297Y110698D02*
X21134Y110862D01*
G01X32601Y99394D02*
X27234Y104761D01*
G01X37465Y94530D02*
X35274Y96721D01*
G01X53370Y78625D02*
X41065Y90930D01*
G01X66795Y65200D02*
X58570Y73425D01*
G01X72315Y59680D02*
X71995Y60000D01*
G01X92066Y39929D02*
X78300Y53695D01*
G01X102355Y29640D02*
X97266Y34729D01*
G01X130095Y1900D02*
X107686Y24309D01*
G01X22073Y111760D02*
X17623Y116210D01*
G01X33050Y100783D02*
X28296Y105538D01*
G01X39303Y94530D02*
X37514Y96320D01*
G01X53370Y80464D02*
X42904Y90930D01*
G01X68633Y65200D02*
X58570Y75263D01*
G01X74014Y59820D02*
X73834Y60000D01*
G01X92066Y41768D02*
X78300Y55534D01*
G01X104193Y29640D02*
X97266Y36567D01*
G01X131934Y1900D02*
X109524Y24309D01*
G01X23127Y112545D02*
X19462Y116210D01*
G01X29334Y106338D02*
X29080Y106592D01*
G01X34030Y101642D02*
X30747Y104925D01*
G01X41142Y94530D02*
X39352Y96320D01*
G01X53370Y82302D02*
X44742Y90930D01*
G01X70472Y65200D02*
X58570Y77102D01*
G01X75852Y59820D02*
X75672Y60000D01*
G01X92066Y43606D02*
X78300Y57372D01*
G01X106032Y29640D02*
X97266Y38406D01*
G01X133772Y1900D02*
X116412Y19260D01*
G01X24504Y113007D02*
X21300Y116210D01*
G01X35625Y101885D02*
X33246Y104265D01*
G01X42980Y94530D02*
X41191Y96320D01*
G01X53370Y84141D02*
X46581Y90930D01*
G01X67907Y69603D02*
X58570Y78940D01*
G01X72310Y65200D02*
X70303Y67207D01*
G01X92066Y45444D02*
X77511Y60000D01*
G01X107870Y29640D02*
X97266Y40244D01*
G01X135610Y1900D02*
X118360Y19151D01*
G01X26478Y112871D02*
X23139Y116210D01*
G01X37088Y102261D02*
X34753Y104596D01*
G01X44819Y94530D02*
X43029Y96320D01*
G01X53370Y85979D02*
X48419Y90930D01*
G01X66600Y72749D02*
X58570Y80779D01*
G01X74149Y65200D02*
X71801Y67548D01*
G01X92066Y47283D02*
X79349Y60000D01*
G01X109709Y29640D02*
X97266Y42082D01*
G01X137449Y1900D02*
X120198Y19151D01*
G01X29699Y111488D02*
X24977Y116210D01*
G01X38867Y102320D02*
X35898Y105289D01*
G01X46657Y94530D02*
X44868Y96320D01*
G01X53370Y87818D02*
X50258Y90930D01*
G01X66600Y74588D02*
X58570Y82617D01*
G01X75987Y65200D02*
X72728Y68459D01*
G01X92066Y49121D02*
X81188Y60000D01*
G01X111547Y29640D02*
X97266Y43921D01*
G01X139287Y1900D02*
X122037Y19151D01*
G01X30674Y112352D02*
X26816Y116210D01*
G01X37840Y105186D02*
X36761Y106265D01*
G01X40706Y102320D02*
X39635Y103391D01*
G01X48496Y94530D02*
X46583Y96443D01*
G01X66600Y76426D02*
X58570Y84456D01*
G01X70629Y72397D02*
X70200Y72826D01*
G01X77826Y65200D02*
X73097Y69929D01*
G01X92066Y50960D02*
X83026Y60000D01*
G01X113549Y29477D02*
X97266Y45760D01*
G01X141126Y1900D02*
X123875Y19151D01*
G01X31948Y112916D02*
X28654Y116210D01*
G01X37380Y107485D02*
X37326Y107539D01*
G01X42544Y102320D02*
X41916Y102948D01*
G01X66600Y78265D02*
X58570Y86294D01*
G01X79664Y65200D02*
X70200Y74664D01*
G01X92066Y52798D02*
X84865Y60000D01*
G01X115072Y29792D02*
X97266Y47598D01*
G01X142964Y1900D02*
X125714Y19151D01*
G01X33684Y113019D02*
X30493Y116210D01*
G01X44383Y102320D02*
X43354Y103349D01*
G01X66600Y80103D02*
X58570Y88133D01*
G01X81503Y65200D02*
X70200Y76503D01*
G01X92066Y54637D02*
X86703Y60000D01*
G01X115070Y31633D02*
X97266Y49436D01*
G01X138495Y8208D02*
X127552Y19151D01*
G01X144803Y1900D02*
X139734Y6969D01*
G01X37465Y111076D02*
X32331Y116210D01*
G01X46240Y102301D02*
X44434Y104108D01*
G01X47532Y101009D02*
X47391Y101150D01*
G01X66600Y81942D02*
X58459Y90082D01*
G01X78676Y69865D02*
X70200Y78341D01*
G01X83341Y65200D02*
X80718Y67824D01*
G01X92066Y56475D02*
X88542Y60000D01*
G01X115070Y33472D02*
X97266Y51275D01*
G01X138486Y10055D02*
X129519Y19023D01*
G01X146641Y1900D02*
X141581Y6961D01*
G01X37985Y112395D02*
X34170Y116210D01*
G01X66600Y83780D02*
X45219Y105161D01*
G01X78882Y71498D02*
X70200Y80180D01*
G01X85180Y65200D02*
X82351Y68029D01*
G01X115070Y35310D02*
X97266Y53113D01*
G01X138486Y11894D02*
X131420Y18960D01*
G01X148480Y1900D02*
X143419Y6961D01*
G01X38829Y113390D02*
X36008Y116210D01*
G01X66600Y85618D02*
X45658Y106560D01*
G01X79450Y72768D02*
X70200Y82018D01*
G01X83933Y68285D02*
X83348Y68870D01*
G01X87018Y65200D02*
X86086Y66132D01*
G01X115070Y37148D02*
X97266Y54952D01*
G01X138486Y13732D02*
X133258Y18960D01*
G01X150318Y1900D02*
X145258Y6961D01*
G01X39971Y114086D02*
X37847Y116210D01*
G01X66811Y87246D02*
X45692Y108365D01*
G01X79900Y74157D02*
X70200Y83857D01*
G01X84181Y69876D02*
X83823Y70234D01*
G01X88856Y65200D02*
X87677Y66380D01*
G01X115070Y38987D02*
X97266Y56790D01*
G01X138486Y15571D02*
X135096Y18961D01*
G01X152157Y1900D02*
X146900Y7157D01*
G01X41503Y114392D02*
X39685Y116210D01*
G01X67675Y88221D02*
X45692Y110203D01*
G01X79900Y75996D02*
X70221Y85675D01*
G01X85043Y70852D02*
X83434Y72462D01*
G01X90695Y65200D02*
X88654Y67242D01*
G01X115070Y40826D02*
X97266Y58629D01*
G01X138790Y17106D02*
X136252Y19643D01*
G01X153954Y1942D02*
X147585Y8311D01*
G01X68594Y89140D02*
X41524Y116210D01*
G01X79900Y77834D02*
X71140Y86594D01*
G01X86435Y71298D02*
X83500Y74234D01*
G01X115070Y42664D02*
X89099Y68634D01*
G01X140098Y17635D02*
X136450Y21284D01*
G01X155105Y2629D02*
X147586Y10148D01*
G01X69513Y90059D02*
X43362Y116210D01*
G01X79900Y79672D02*
X72059Y87513D01*
G01X87414Y72159D02*
X83500Y76072D01*
G01X115070Y44502D02*
X89960Y69613D01*
G01X141937Y17635D02*
X136443Y23129D01*
G01X155580Y3992D02*
X147586Y11986D01*
G01X70432Y90978D02*
X45200Y116210D01*
G01X80247Y81163D02*
X72978Y88432D01*
G01X88333Y73078D02*
X83500Y77910D01*
G01X115070Y46341D02*
X90879Y70532D01*
G01X143775Y17635D02*
X136443Y24967D01*
G01X155580Y5830D02*
X147586Y13825D01*
G01X71352Y91898D02*
X47039Y116210D01*
G01X81152Y82098D02*
X73898Y89352D01*
G01X89252Y73997D02*
X83698Y79552D01*
G01X115070Y48179D02*
X91798Y71451D01*
G01X145614Y17635D02*
X136443Y26806D01*
G01X155580Y7669D02*
X147586Y15663D01*
G01X72271Y92817D02*
X48878Y116210D01*
G01X77128Y87959D02*
X74817Y90271D01*
G01X82071Y83017D02*
X80479Y84609D01*
G01X90171Y74916D02*
X84617Y80471D01*
G01X93246Y71842D02*
X92717Y72370D01*
G01X94451Y70636D02*
X93717Y71371D01*
G01X115070Y50018D02*
X97802Y67286D01*
G01X155580Y9507D02*
X136529Y28559D01*
G01X73190Y93736D02*
X50716Y116210D01*
G01X77601Y89325D02*
X75736Y91190D01*
G01X82990Y83936D02*
X82636Y84290D01*
G01X91091Y75836D02*
X85626Y81300D01*
G01X115070Y51856D02*
X99167Y67759D01*
G01X155580Y11346D02*
X137448Y29478D01*
G01X74109Y94655D02*
X52554Y116210D01*
G01X78521Y90244D02*
X76655Y92109D01*
G01X91700Y77065D02*
X87443Y81321D01*
G01X115070Y53695D02*
X100087Y68678D01*
G01X155580Y13184D02*
X138367Y30397D01*
G01X75029Y95574D02*
X54393Y116210D01*
G01X79440Y91163D02*
X77574Y93029D01*
G01X91700Y78903D02*
X88608Y81995D01*
G01X115070Y55533D02*
X101006Y69597D01*
G01X155580Y15023D02*
X138670Y31933D01*
G01X75948Y96494D02*
X56231Y116210D01*
G01X80678Y91763D02*
X78494Y93948D01*
G01X84557Y87885D02*
X84283Y88159D01*
G01X91700Y80742D02*
X89527Y82914D01*
G01X98001Y74440D02*
X95300Y77141D01*
G01X115070Y57372D02*
X101606Y70836D01*
G01X155580Y16861D02*
X138670Y33771D01*
G01X76867Y97413D02*
X58070Y116210D01*
G01X85710Y88570D02*
X79413Y94867D01*
G01X91700Y82580D02*
X90446Y83834D01*
G01X115070Y59210D02*
X95300Y78980D01*
G01X155580Y18700D02*
X140155Y34125D01*
G01X77786Y98332D02*
X59908Y116210D01*
G01X87792Y88326D02*
X80332Y95786D01*
G01X88820Y87299D02*
X88716Y87403D01*
G01X91700Y84419D02*
X91366Y84753D01*
G01X115296Y60823D02*
X95300Y80818D01*
G01X155580Y20538D02*
X141994Y34125D01*
G01X78706Y99252D02*
X61747Y116210D01*
G01X89253Y88704D02*
X81252Y96706D01*
G01X116166Y61792D02*
X95300Y82657D01*
G01X155580Y22377D02*
X143832Y34125D01*
G01X78175Y101621D02*
X63585Y116210D01*
G01X89253Y90543D02*
X82157Y97638D01*
G01X117085Y62711D02*
X95300Y84495D01*
G01X155580Y24215D02*
X145671Y34125D01*
G01X78353Y103281D02*
X65424Y116210D01*
G01X89253Y92381D02*
X82513Y99121D01*
G01X118004Y63630D02*
X95300Y86334D01*
G01X155580Y26054D02*
X147137Y34497D01*
G01X78912Y104560D02*
X67262Y116210D01*
G01X89253Y94220D02*
X82815Y100657D01*
G01X110610Y72863D02*
X95300Y88172D01*
G01X118923Y64549D02*
X113733Y69740D01*
G01X138994Y44478D02*
X138841Y44631D01*
G01X155580Y27892D02*
X147586Y35887D01*
G01X78912Y106398D02*
X69101Y116210D01*
G01X89253Y96058D02*
X83306Y102005D01*
G01X110610Y74701D02*
X95300Y90011D01*
G01X119843Y65468D02*
X115571Y69740D01*
G01X140512Y44799D02*
X140321Y44990D01*
G01X155580Y29731D02*
X147586Y37725D01*
G01X78912Y108237D02*
X70939Y116210D01*
G01X83100Y104050D02*
X82513Y104636D01*
G01X110610Y76540D02*
X95300Y91849D01*
G01X120762Y66388D02*
X117410Y69740D01*
G01X142350Y44799D02*
X142160Y44990D01*
G01X155580Y31569D02*
X147586Y39564D01*
G01X78912Y110076D02*
X72778Y116210D01*
G01X83100Y105888D02*
X82513Y106475D01*
G01X110610Y78378D02*
X95300Y93688D01*
G01X121681Y67307D02*
X119248Y69740D01*
G01X144189Y44799D02*
X143998Y44990D01*
G01X155580Y33408D02*
X147586Y41402D01*
G01X78912Y111914D02*
X74616Y116210D01*
G01X83100Y107727D02*
X82513Y108314D01*
G01X110610Y80216D02*
X95436Y95390D01*
G01X122600Y68226D02*
X121087Y69740D01*
G01X146027Y44799D02*
X145836Y44990D01*
G01X155580Y35246D02*
X147586Y43241D01*
G01X78913Y113752D02*
X76455Y116210D01*
G01X83100Y109565D02*
X82513Y110152D01*
G01X111337Y81328D02*
X96355Y96309D01*
G01X123519Y69145D02*
X122925Y69740D01*
G01X155580Y37084D02*
X147675Y44990D01*
G01X79479Y115025D02*
X78293Y116210D01*
G01X112256Y82247D02*
X97275Y97229D01*
G01X155580Y38923D02*
X149514Y44990D01*
G01X80398Y115944D02*
X80132Y116210D01*
G01X113491Y82850D02*
X98194Y98148D01*
G01X155580Y40762D02*
X151352Y44990D01*
G01X115330Y82850D02*
X99113Y99067D01*
G01X155580Y42600D02*
X153190Y44990D01*
G01X117168Y82850D02*
X100032Y99986D01*
G01X127196Y72822D02*
X126650Y73368D01*
G01X155580Y44438D02*
X155029Y44990D01*
G01X98406Y103452D02*
X97473Y104384D01*
G01X119007Y82850D02*
X100952Y100906D01*
G01X128116Y73742D02*
X126650Y75207D01*
G01X99200Y104496D02*
X97474Y106222D01*
G01X120845Y82850D02*
X101871Y101825D01*
G01X129200Y74495D02*
X126650Y77045D01*
G01X99200Y106334D02*
X97474Y108061D01*
G01X122684Y82850D02*
X102680Y102854D01*
G01X130974Y74560D02*
X126650Y78884D01*
G01X99200Y108173D02*
X97473Y109899D01*
G01X124522Y82850D02*
X102800Y104572D01*
G01X132812Y74560D02*
X126650Y80722D01*
G01X99200Y110011D02*
X97473Y111738D01*
G01X134651Y74560D02*
X102800Y106411D01*
G01X98433Y112616D02*
X94839Y116210D01*
G01X134186Y76864D02*
X102800Y108249D01*
G01X99012Y113876D02*
X96678Y116210D01*
G01X134855Y78033D02*
X102800Y110088D01*
G01X100090Y114636D02*
X98516Y116210D01*
G01X121671Y93056D02*
X103436Y111290D01*
G01X101941Y114624D02*
X100355Y116210D01*
G01X117025Y99540D02*
X103424Y113141D01*
G01X121671Y94894D02*
X118856Y97709D01*
G01X117534Y100869D02*
X102193Y116210D01*
G01X121671Y96733D02*
X120185Y98218D01*
G01X118786Y101456D02*
X104032Y116210D01*
G01X120907Y99335D02*
X120772Y99470D01*
G01X129007Y91235D02*
X125271Y94971D01*
G01X121493Y100588D02*
X105870Y116210D01*
G01X129994Y92086D02*
X125271Y96809D01*
G01X122577Y101342D02*
X107709Y116210D01*
G01X130830Y93089D02*
X125913Y98006D01*
G01X124448Y101310D02*
X109547Y116210D01*
G01X126774Y98984D02*
X125881Y99877D01*
G01X130830Y94927D02*
X128684Y97074D01*
G01X126152Y101444D02*
X111386Y116210D01*
G01X130830Y96766D02*
X130367Y97229D01*
G01X125567Y103867D02*
X113224Y116210D01*
G01X125567Y105706D02*
X115063Y116210D01*
G01X125328Y107784D02*
X116901Y116210D01*
G01X125300Y109650D02*
X118740Y116210D01*
G01X125300Y111488D02*
X120578Y116210D01*
G01X125384Y113243D02*
X122416Y116210D01*
G01X126160Y114306D02*
X124255Y116210D01*
G01X127088Y115216D02*
X126093Y116210D01*
G01X128542Y115600D02*
X127932Y116210D01*
G01X130380Y115600D02*
X129770Y116210D01*
G01X132219Y115600D02*
X131609Y116210D01*
G01X134140Y115517D02*
X133447Y116210D01*
G01X138557Y111100D02*
X137239Y112418D01*
G01X140396Y111100D02*
X135286Y116210D01*
G01X142234Y111100D02*
X137124Y116210D01*
G01X144073Y111100D02*
X138963Y116210D01*
G01X145911Y111100D02*
X140801Y116210D01*
G01X155580Y103270D02*
X142640Y116210D01*
G01X155580Y105108D02*
X144478Y116210D01*
G01X155580Y106947D02*
X146317Y116210D01*
G01X155580Y108785D02*
X148155Y116210D01*
G01X155580Y110624D02*
X149994Y116210D01*
G01X155580Y112462D02*
X151832Y116210D01*
G01X155576Y114305D02*
X153675Y116206D01*
G01X33465Y27900D02*
X35700D01*
X36600Y28800D01*
X69424D01*
X73100Y32476D01*
Y48900D01*
X74400Y50200D01*
Y52300D01*
G01X74900Y57800D02*
X73400Y56300D01*
X73330D01*
X71500Y54470D01*
Y33138D01*
X68762Y30400D01*
X36700D01*
X35900Y31200D01*
X33465D01*
G01D02*
Y33410D01*
G01X31140Y31200D02*
X33465D01*
G01X34230Y41032D02*
Y41650D01*
G01D02*
Y42611D01*
G01X33352Y41650D02*
X34230D01*
G01D02*
X34848D01*
G01X31230Y43772D02*
Y44650D01*
G01D02*
Y45386D01*
G01X30494Y44650D02*
X31230D01*
G01D02*
X32191D01*
G01X45640Y72310D02*
X43540D01*
X43370Y72480D01*
X32750D01*
X29481Y75749D01*
Y80631D01*
G01X45570Y68538D02*
X43470D01*
X43412Y68480D01*
X29440D01*
G01X24880Y68507D02*
Y69460D01*
G01D02*
Y70290D01*
G01X24050Y69460D02*
X24880D01*
G01D02*
X25765D01*
G01X25610Y64100D02*
Y64720D01*
G01D02*
Y65504D01*
G01X24990Y64720D02*
X25610D01*
G01D02*
X26664D01*
G01X93899Y26109D02*
Y28209D01*
X93866Y28242D01*
Y58231D01*
X90297Y61800D01*
X62517D01*
X55170Y69147D01*
Y88797D01*
X51237Y92730D01*
X28370D01*
X25197Y95903D01*
Y108661D01*
G01X38990Y99320D02*
X35200D01*
G01X49840Y49288D02*
Y49940D01*
G01D02*
Y50901D01*
G01X48962Y49940D02*
X49840D01*
G01D02*
X50492D01*
G01X54445Y39185D02*
Y39882D01*
G01D02*
Y40781D01*
G01X53505Y39882D02*
X54445D01*
G01D02*
X55142D01*
G01X44100Y36418D02*
Y37100D01*
G01D02*
Y38033D01*
G01X43418Y37100D02*
X44100D01*
G01D02*
X45006D01*
G01X47100Y39194D02*
Y40100D01*
G01D02*
Y40772D01*
G01X46167Y40100D02*
X47100D01*
G01D02*
X47772D01*
G01X44510Y99320D02*
X46910D01*
X56770Y89460D01*
Y69810D01*
X63180Y63400D01*
X90960D01*
X95466Y58894D01*
Y30064D01*
X97690Y27840D01*
X112800D01*
X117713Y22927D01*
X132484D01*
G01X70500Y69800D02*
X68400Y71900D01*
Y86400D01*
X80713Y98713D01*
Y102187D01*
G01X74900Y57800D02*
Y59820D01*
G01Y57800D02*
X78300D01*
G01X62510Y97062D02*
Y97960D01*
G01D02*
Y98728D01*
G01X61742Y97960D02*
X62510D01*
G01D02*
X63451D01*
G01X132491Y20951D02*
X117029D01*
X111871Y26109D01*
X93899D01*
G01X86500Y68699D02*
X93500Y75699D01*
Y96000D01*
X101000Y103500D01*
Y112200D01*
G01X84900D02*
Y103900D01*
X91053Y97747D01*
Y86986D01*
X87167Y83100D01*
X84700D01*
X81700Y80100D01*
Y72947D01*
X81226Y72474D01*
Y70374D01*
G01X98014Y70849D02*
X97886D01*
X95305Y73430D01*
G01X84700Y76794D02*
Y77500D01*
G01D02*
Y78549D01*
G01X83911Y77500D02*
X84700D01*
G01D02*
X85406D01*
G01X86474Y86085D02*
X82779D01*
X80692Y88172D01*
G01X80713Y102187D02*
Y113713D01*
X81900Y114900D01*
X93000D01*
X95673Y112227D01*
Y101900D01*
G01X87340Y113100D02*
X92254D01*
X93873Y111481D01*
Y103776D01*
G03X94522Y99568I1800J-1876D01*
G01X92847Y97893D01*
G03X92326Y99020I-1794J-146D01*
G01X86700Y104646D01*
Y110324D01*
G03X87340Y113100I-1800J1876D01*
G01X87461Y112648D02*
X87913Y113100D01*
G01X86700Y110048D02*
X89752Y113100D01*
G01X86700Y108210D02*
X91590Y113100D01*
G01X86700Y106372D02*
X92841Y112513D01*
G01X86757Y104589D02*
X93761Y111593D01*
G01X87676Y103670D02*
X93873Y109867D01*
G01X88595Y102751D02*
X93873Y108029D01*
G01X89514Y101832D02*
X93873Y106190D01*
G01X90434Y100912D02*
X93873Y104352D01*
G01X91353Y99993D02*
X93079Y101720D01*
G01X92272Y99074D02*
X93570Y100372D01*
G01X92890Y97936D02*
X92837Y97990D01*
G01X93809Y98855D02*
X86700Y105965D01*
G01X93126Y101377D02*
X86700Y107803D01*
G01X93325Y103017D02*
X86700Y109641D01*
G01X93873Y104307D02*
X87198Y110983D01*
G01X93873Y106146D02*
X87478Y112541D01*
G01X93873Y107984D02*
X88757Y113100D01*
G01X93873Y109823D02*
X90596Y113100D01*
G01X132484Y26864D02*
X122159D01*
X118470Y30553D01*
Y59287D01*
X130343Y71160D01*
X146363D01*
X154645Y79442D01*
Y100918D01*
X146363Y109200D01*
X146100D01*
X146000Y109300D01*
X136100D01*
X135480Y109920D01*
Y112037D01*
X133957Y113560D01*
X133840D01*
X133600Y113800D01*
X128200D01*
X127100Y112700D01*
Y108100D01*
X127952Y107248D01*
Y105086D01*
G01X132484Y24896D02*
X121864D01*
X116870Y29890D01*
Y59950D01*
X129680Y72760D01*
X145700D01*
X153045Y80105D01*
Y100255D01*
X145700Y107600D01*
X133813D01*
X131889Y105676D01*
Y105086D01*
G01X132484Y32770D02*
X128110D01*
G01X132484Y30801D02*
X128791D01*
G01X132484D02*
X135969D01*
G01X132484Y32770D02*
X136250D01*
G01X147636Y69887D02*
X155580Y77832D01*
Y57520D01*
X149592D01*
G03X146353Y61535I-1363J2215D01*
G01X137711D01*
X136700Y62546D01*
G03X134154Y60000I-2600J54D01*
G01X135692Y58462D01*
G03X136965Y57934I1273J1273D01*
G01X146353D01*
G03X146866Y57520I1876J1800D01*
G01X128980D01*
X124700Y53240D01*
Y31310D01*
X127346Y28664D01*
X122905D01*
X120270Y31298D01*
Y58542D01*
X131088Y69360D01*
X146363D01*
G03X147636Y69887I0J1800D01*
G01X120270Y57210D02*
X132420Y69360D01*
G01X120270Y55372D02*
X134258Y69360D01*
G01X120270Y53533D02*
X136097Y69360D01*
G01X133752Y65177D02*
X137935Y69360D01*
G01X120270Y51695D02*
X131523Y62948D01*
G01X135314Y64900D02*
X139774Y69360D01*
G01X120270Y49856D02*
X131800Y61386D01*
G01X136276Y64023D02*
X141612Y69360D01*
G01X129773Y57520D02*
X132677Y60424D01*
G01X120270Y48018D02*
X124700Y52447D01*
G01X136700Y62609D02*
X143451Y69360D01*
G01X131611Y57520D02*
X134091Y60000D01*
G01X120270Y46179D02*
X124700Y50609D01*
G01X137588Y61658D02*
X145289Y69360D01*
G01X133450Y57520D02*
X135042Y59112D01*
G01X120270Y44341D02*
X124700Y48770D01*
G01X139303Y61535D02*
X155580Y77812D01*
G01X135288Y57520D02*
X135990Y58222D01*
G01X120270Y42502D02*
X124700Y46932D01*
G01X141142Y61535D02*
X155580Y75974D01*
G01X137127Y57520D02*
X137541Y57934D01*
G01X120270Y40664D02*
X124700Y45093D01*
G01X142980Y61535D02*
X155580Y74135D01*
G01X138965Y57520D02*
X139380Y57934D01*
G01X120270Y38825D02*
X124700Y43255D01*
G01X144818Y61535D02*
X155580Y72297D01*
G01X140804Y57520D02*
X141218Y57934D01*
G01X120270Y36987D02*
X124700Y41416D01*
G01X147276Y62154D02*
X155580Y70458D01*
G01X142642Y57520D02*
X143056Y57934D01*
G01X120270Y35148D02*
X124700Y39578D01*
G01X149133Y62173D02*
X155580Y68620D01*
G01X144481Y57520D02*
X144895Y57934D01*
G01X120270Y33310D02*
X124700Y37739D01*
G01X150214Y61415D02*
X155580Y66781D01*
G01X146319Y57520D02*
X146549Y57750D01*
G01X120270Y31471D02*
X124700Y35901D01*
G01X150795Y60157D02*
X155580Y64943D01*
G01X121103Y30466D02*
X124700Y34062D01*
G01X149996Y57520D02*
X155580Y63104D01*
G01X122022Y29546D02*
X124700Y32224D01*
G01X151835Y57520D02*
X155580Y61266D01*
G01X122979Y28664D02*
X125162Y30848D01*
G01X153673Y57520D02*
X155580Y59428D01*
G01X124817Y28664D02*
X126081Y29929D01*
G01X155512Y57520D02*
X155580Y57589D01*
G01X126656Y28664D02*
X127000Y29009D01*
G01X123554Y28664D02*
X120270Y31948D01*
G01X125392Y28664D02*
X120270Y33786D01*
G01X127231Y28664D02*
X120270Y35625D01*
G01X124700Y33034D02*
X120270Y37464D01*
G01X124700Y34872D02*
X120270Y39302D01*
G01X124700Y36711D02*
X120270Y41140D01*
G01X124700Y38549D02*
X120270Y42979D01*
G01X124700Y40388D02*
X120270Y44817D01*
G01X124700Y42226D02*
X120270Y46656D01*
G01X124700Y44065D02*
X120270Y48494D01*
G01X124700Y45903D02*
X120270Y50333D01*
G01X124700Y47742D02*
X120270Y52171D01*
G01X124700Y49580D02*
X120270Y54010D01*
G01X124700Y51419D02*
X120270Y55848D01*
G01X124708Y53249D02*
X120270Y57687D01*
G01X125628Y54168D02*
X120762Y59033D01*
G01X126547Y55087D02*
X121681Y59953D01*
G01X127466Y56006D02*
X122601Y60872D01*
G01X128385Y56926D02*
X123520Y61791D01*
G01X129629Y57520D02*
X124439Y62710D01*
G01X131468Y57520D02*
X125358Y63630D01*
G01X133306Y57520D02*
X126278Y64549D01*
G01X135145Y57520D02*
X127197Y65468D01*
G01X131527Y62976D02*
X128116Y66387D01*
G01X136983Y57520D02*
X136510Y57993D01*
G01X132091Y64251D02*
X129035Y67306D01*
G01X138822Y57520D02*
X138407Y57934D01*
G01X133157Y65023D02*
X129955Y68226D01*
G01X140660Y57520D02*
X140246Y57934D01*
G01X134968Y65051D02*
X130874Y69145D01*
G01X138484Y61535D02*
X136551Y63468D01*
G01X142498Y57520D02*
X142084Y57934D01*
G01X140322Y61535D02*
X132497Y69360D01*
G01X144337Y57520D02*
X143923Y57934D01*
G01X142161Y61535D02*
X134336Y69360D01*
G01X146175Y57520D02*
X145761Y57934D01*
G01X143999Y61535D02*
X136174Y69360D01*
G01X145838Y61535D02*
X138013Y69360D01*
G01X149852Y57520D02*
X149748Y57624D01*
G01X147123Y62088D02*
X139851Y69360D01*
G01X151691Y57520D02*
X150582Y58629D01*
G01X148772Y62278D02*
X141690Y69360D01*
G01X153529Y57520D02*
X150772Y60278D01*
G01X155368Y57520D02*
X143528Y69360D01*
G01X155580Y59146D02*
X145367Y69360D01*
G01X155580Y60985D02*
X147063Y69502D01*
G01X155580Y62823D02*
X148076Y70327D01*
G01X155580Y64662D02*
X148995Y71247D01*
G01X155580Y66500D02*
X149915Y72166D01*
G01X155580Y68339D02*
X150834Y73085D01*
G01X155580Y70177D02*
X151753Y74004D01*
G01X155580Y72016D02*
X152672Y74924D01*
G01X155580Y73854D02*
X153592Y75843D01*
G01X155580Y75692D02*
X154511Y76762D01*
G01X155580Y77531D02*
X155430Y77681D01*
G01X140400Y65134D02*
Y65700D01*
G01D02*
Y66309D01*
G01X139834Y65700D02*
X140400D01*
G01D02*
X141630D01*
G01X148229Y59735D02*
X136965D01*
X134100Y62600D01*
G01X131145Y89755D02*
X132630Y91240D01*
Y97893D01*
X132600Y97923D01*
Y100000D01*
X131889Y100711D01*
Y105086D01*
G01X134559Y105800D02*
X144954D01*
X151245Y99509D01*
Y80851D01*
X144954Y74560D01*
X142018D01*
G03X141800Y78076I-2018J1640D01*
G01Y83300D01*
G03X141273Y84573I-1800J0D01*
G01X137000Y88846D01*
Y97124D01*
G03X133896Y101249I-1800J1876D01*
G03X133873Y101273I-1295J-1250D01*
G01X133690Y101456D01*
Y102373D01*
G03X134275Y103511I-815J1138D01*
G01Y105516D01*
X134559Y105800D01*
G01X143605Y99584D02*
G02I-1875J0D01*
G01X134275Y104307D02*
X135767Y105800D01*
G01X133690Y101884D02*
X137606Y105800D01*
G01X135244Y101600D02*
X139444Y105800D01*
G01X136645Y101162D02*
X141283Y105800D01*
G01X137512Y100190D02*
X143121Y105800D01*
G01X137771Y98611D02*
X144957Y105797D01*
G01X142352Y101353D02*
X145876Y104878D01*
G01X137000Y96002D02*
X139961Y98962D01*
G01X143356Y100519D02*
X146796Y103959D01*
G01X137000Y94163D02*
X140795Y97958D01*
G01X143394Y98718D02*
X147715Y103039D01*
G01X137000Y92325D02*
X142596Y97921D01*
G01X137000Y90486D02*
X148634Y102120D01*
G01X137099Y88747D02*
X149553Y101201D01*
G01X138018Y87828D02*
X150472Y100282D01*
G01X138938Y86908D02*
X151245Y99215D01*
G01X139857Y85989D02*
X151245Y97377D01*
G01X140776Y85070D02*
X151245Y95538D01*
G01X141623Y84078D02*
X151245Y93700D01*
G01X141800Y82417D02*
X151245Y91861D01*
G01X141800Y80578D02*
X151245Y90023D01*
G01X141800Y78740D02*
X151245Y88185D01*
G01X142304Y77405D02*
X151245Y86346D01*
G01X142575Y75838D02*
X151245Y84508D01*
G01X143136Y74560D02*
X151245Y82669D01*
G01X143843Y74560D02*
X142574Y75830D01*
G01X145318Y74924D02*
X141800Y78442D01*
G01X146237Y75843D02*
X141800Y80280D01*
G01X147156Y76762D02*
X141800Y82119D01*
G01X148076Y77682D02*
X141561Y84196D01*
G01X148995Y78601D02*
X137000Y90596D01*
G01X149914Y79520D02*
X137000Y92434D01*
G01X150833Y80439D02*
X137000Y94273D01*
G01X151245Y81867D02*
X137000Y96111D01*
G01X151245Y83705D02*
X137375Y97575D01*
G01X135188Y101600D02*
X134045Y102743D01*
G01X151245Y85544D02*
X137800Y98988D01*
G01X151245Y87382D02*
X134275Y104352D01*
G01X140049Y100416D02*
X134665Y105800D01*
G01X151245Y89220D02*
X142562Y97903D01*
G01X140995Y101309D02*
X136504Y105800D01*
G01X151245Y91059D02*
X143455Y98848D01*
G01X151245Y92898D02*
X138342Y105800D01*
G01X151245Y94736D02*
X140181Y105800D01*
G01X151245Y96574D02*
X142019Y105800D01*
G01X151245Y98413D02*
X143858Y105800D01*
G01X131726Y87220D02*
G03X133400Y88460I-581J2535D01*
G01Y88100D01*
G03X133927Y86827I1800J0D01*
G01X138200Y82554D01*
Y80696D01*
G03X137973Y80973I-1500J-996D01*
G01X131726Y87220D01*
G01X131811Y87135D02*
X131962Y87286D01*
G01X132730Y86216D02*
X133668Y87154D01*
G01X133649Y85297D02*
X134553Y86201D01*
G01X134568Y84378D02*
X135472Y85282D01*
G01X135488Y83458D02*
X136392Y84362D01*
G01X136407Y82539D02*
X137311Y83443D01*
G01X137326Y81620D02*
X138200Y82494D01*
G01Y82042D02*
X132625Y87617D01*
G01X123471Y98900D02*
Y92929D01*
X136700Y79700D01*
Y76200D01*
G01X135200Y99000D02*
Y88100D01*
X140000Y83300D01*
Y76200D01*
G01X129300Y99600D02*
X128980D01*
X127952Y100627D01*
Y105086D01*
G01X128946Y112000D02*
X132942D01*
G03X133007Y111964I898J1560D01*
G01X133680Y111291D01*
Y109920D01*
G03X133757Y109399I1800J0D01*
G03X132540Y108873I57J-1799D01*
G01X131729Y108061D01*
X129558D01*
G03X129225Y108520I-1606J-814D01*
G01X128900Y108846D01*
Y111954D01*
X128946Y112000D01*
G01X128900Y111802D02*
X129098Y112000D01*
G01X128900Y109963D02*
X130937Y112000D01*
G01X129260Y108485D02*
X132775Y112000D01*
G01X130675Y108061D02*
X133680Y111066D01*
G01X130565Y108062D02*
X128900Y109727D01*
G01X132066Y108399D02*
X128900Y111565D01*
G01X133066Y109238D02*
X130304Y112000D01*
G01X133680Y110462D02*
X132142Y112000D01*
G01X129922Y109147D02*
Y109874D01*
G01D02*
Y110543D01*
G01X128900Y109874D02*
X129922D01*
G01D02*
X130591D01*
G54D12*
X13490Y95560D03*
X33465Y27900D03*
Y31200D03*
X31230Y41650D03*
X34230D03*
X37230D03*
X31230Y44650D03*
X34230D03*
X37230D03*
X31230Y47650D03*
X34230D03*
X37230D03*
X31230Y50650D03*
X34230D03*
X37230D03*
X29440Y68480D03*
X25220Y72540D03*
X25610Y64720D03*
X24880Y69460D03*
X29481Y80631D03*
X24930Y76310D03*
X24290Y80460D03*
X35200Y99320D03*
X50000Y12200D03*
X46700D03*
X49700Y23200D03*
X46600D03*
X41100Y34100D03*
X44100D03*
X47100D03*
X50100D03*
X41100Y37100D03*
X44100D03*
X47100D03*
X50100D03*
X41100Y40100D03*
X44100D03*
X47100D03*
X50100D03*
X40840Y49940D03*
X43840D03*
X46840D03*
X49840D03*
X45640Y72310D03*
X45570Y68538D03*
X42470Y65650D03*
X56750Y96930D03*
X58210Y107780D03*
X64100Y12200D03*
X67000Y12100D03*
X63900Y23000D03*
X67000Y22900D03*
X74400Y52300D03*
X64100Y39700D03*
Y50700D03*
X67200Y39700D03*
X67300Y50700D03*
X77760Y34960D03*
X79400Y46120D03*
X70500Y69800D03*
X74900Y57800D03*
X71540Y83830D03*
X76050Y79310D03*
X62510Y97960D03*
X98020Y21120D03*
X93899Y26109D03*
X87000Y75100D03*
X90520Y57370D03*
X86500Y68699D03*
X81226Y70374D03*
X95305Y73430D03*
X84700Y77500D03*
X87000Y80000D03*
X89400Y77600D03*
X86474Y86085D03*
X95673Y101900D03*
X80713Y102187D03*
X100200Y96490D03*
X84140Y98510D03*
X84900Y112200D03*
X105890Y52210D03*
X115430Y74610D03*
X118890Y74560D03*
X102370Y55830D03*
X115550Y77820D03*
X118950Y77885D03*
X109240Y84810D03*
X104300Y93270D03*
X101000Y112200D03*
X122240Y74610D03*
X138900Y68400D03*
X140400Y65700D03*
X124940Y60730D03*
X134100Y62600D03*
X122090Y77770D03*
X131145Y89755D03*
X136700Y76200D03*
X140000D03*
X129300Y99600D03*
X132700Y110600D03*
X123471Y98900D03*
X135200Y99000D03*
X152420Y54550D03*
X154450Y52420D03*
X152330Y50300D03*
X154290Y47910D03*
X142100Y68200D03*
X143600Y65700D03*
X148229Y59735D03*
X150445Y82780D03*
G54D13*
X8858Y108661D03*
X41536D03*
G54D14*
X38990Y99320D03*
X59728Y12284D03*
X54209D03*
X59768Y17716D03*
X54248D03*
X59728Y23150D03*
X54209D03*
X59964Y39882D03*
X54445D03*
X59964Y50630D03*
X54445D03*
X60004Y45236D03*
X54484D03*
X44510Y99320D03*
G54D15*
X80692Y88172D03*
X76789Y84269D03*
X94112Y66946D03*
X98014Y70849D03*
G54D16*
X113285Y97611D03*
X147345D03*
G54D17*
X113285Y114071D03*
X147345D03*
G54D18*
X143036Y12298D03*
Y39462D03*
G54D19*
X132484Y32770D03*
Y30801D03*
Y28833D03*
Y26864D03*
Y24896D03*
Y22927D03*
X132491Y20951D03*
X132484Y18990D03*
M02*
