G04 ================== begin FILE IDENTIFICATION RECORD ==================*
G04 Layout Name:  D:/Projects/Mini_Audio/01.Hardware/POWER/PCB/POWER.brd*
G04 Film Name:    02.BOTTOM*
G04 File Format:  Gerber RS274X*
G04 File Origin:  Cadence Allegro 17.4-S037*
G04 Origin Date:  Wed Feb 28 20:17:22 2024*
G04 *
G04 Layer:  VIA CLASS/BOTTOM*
G04 Layer:  PIN/BOTTOM*
G04 Layer:  ETCH/BOTTOM*
G04 *
G04 Offset:    (0.000 0.000)*
G04 Mirror:    No*
G04 Mode:      Positive*
G04 Rotation:  0*
G04 FullContactRelief:  No*
G04 UndefLineWidth:     6.000*
G04 ================== end FILE IDENTIFICATION RECORD ====================*
%FSLAX35Y35*MOIN*%
%IR0*IPPOS*OFA0.00000B0.00000*MIA0B0*SFA1.00000B1.00000*%
%ADD15R,.032X.03*%
%ADD14R,.03X.032*%
%ADD25R,.045X.04*%
%ADD26R,.05X.036*%
%ADD18C,.06*%
%ADD10C,.024*%
%ADD16R,.019701X.0315*%
%ADD24R,.036X.036*%
%ADD20R,.0475X.067*%
%ADD13O,.047201X.070902*%
%ADD23R,.01102X.019882*%
%ADD11O,.047201X.078701*%
%ADD17O,.055118X.08661*%
%ADD12R,.052799X.023201*%
%ADD19R,.080571X.06378*%
%ADD22R,.064961X.035429*%
%ADD21R,.07874X.033469*%
%ADD27C,.008*%
%ADD28C,.01*%
%ADD29C,.02*%
%ADD30C,.012*%
%ADD31C,.03*%
%ADD32O,.075122X.106614*%
G75*
%LPD*%
G75*
G36*
G01X72202Y45940D02*
G03X72934Y44172I2500J0D01*
G01X90428Y26679D01*
G03X92196Y25947I1768J1768D01*
G01X112240D01*
G02X112501Y25243I0J-400D01*
G03X112424Y25172I913J-1062D01*
G01X110686Y23434D01*
G02X110032Y23565I-283J283D01*
G03X107995Y24934I-2037J-831D01*
G03X105795Y22734I0J-2200D01*
G03X106437Y21181I2200J0D01*
G01X106495Y21122D01*
Y20534D01*
G03X106935Y19473I1500J0D01*
G01X107705Y18703D01*
G03X108765Y18264I1061J1061D01*
G01X108984D01*
X108999Y18080D01*
G03X109996Y17164I997J83D01*
G01X112996D01*
G03X113996Y18164I0J1000D01*
G01Y21364D01*
G03X113754Y22017I-1000J0D01*
G02X113774Y22561I303J261D01*
G01X113994Y22781D01*
X115114D01*
G03X115246Y22635I1697J1401D01*
G02X115172Y22306I-142J-141D01*
G03X114508Y21364I336J-942D01*
G01Y18164D01*
G03X115341Y17178I1000J0D01*
G01X115508Y17149D01*
Y16670D01*
X115341Y16641D01*
G03X114508Y15655I167J-986D01*
G01Y12473D01*
G02X114308Y12273I-200J0D01*
G01X114187Y12314D01*
G03X113999Y12442I-1327J-1755D01*
G03X113999Y12455I-1003J14D01*
G01Y15655D01*
G03X112996Y16658I-1003J0D01*
G01X109996D01*
G03X108993Y15655I0J-1003D01*
G01Y12455D01*
G03X109996Y11452I1003J0D01*
G01X110071D01*
G03X110435Y10862I1425J470D01*
G01X110659Y10638D01*
X110659Y10555D01*
G03X112860Y8359I2200J4D01*
G03X115060Y10559I0J2200D01*
G03X114948Y11250I-2200J0D01*
G01X114938Y11313D01*
G02X115138Y11513I200J0D01*
G01X115200Y11504D01*
G03X115433Y11458I308J952D01*
G01X115618Y11258D01*
Y5889D01*
X83782D01*
Y6117D01*
X83787Y6137D01*
G03X83839Y6644I-2448J508D01*
G01Y24800D01*
G03X78838I-2500J0D01*
G01Y7116D01*
X78834Y7096D01*
G03X78782Y6589I2448J-508D01*
G01Y3388D01*
G03X79087Y2192I2500J0D01*
G02X78736Y1600I-351J-192D01*
G01X3937D01*
G02X1600Y3937I0J2337D01*
G01Y36942D01*
X33826D01*
X37879Y40995D01*
Y46210D01*
X53461D01*
X53957Y45715D01*
G03X54947Y45305I990J990D01*
G01X59106D01*
G03X60096Y45715I0J1400D01*
G01X62557Y48175D01*
G03X62967Y49165I-990J990D01*
G01Y54317D01*
X70940D01*
X71519Y54896D01*
G02X72202Y54614I283J-283D01*
G01Y45940D01*
G37*
G36*
G01X1600Y114173D02*
G02X3937Y116510I2337J0D01*
G01X48285D01*
Y112688D01*
G03X46558Y109527I2030J-3160D01*
G01Y106378D01*
G03X48285Y103218I3756J0D01*
G01Y102401D01*
X48304D01*
X49289Y101416D01*
X54980D01*
Y98164D01*
G03X55897Y97167I1000J0D01*
G02X56080Y96968I-17J-199D01*
G01Y96182D01*
G03X56490Y95192I1400J0D01*
G01X56540Y95142D01*
G03X56787Y94945I990J990D01*
G01X59433Y92299D01*
Y90647D01*
G03X59843Y89657I1400J0D01*
G01X60615Y88885D01*
Y71747D01*
X58939D01*
Y72327D01*
G03X57939Y73327I-1000J0D01*
G01X54739D01*
G03X53738Y72327I0J-1000D01*
G01Y71747D01*
X53151D01*
Y72248D01*
G03X52151Y73248I-1000J0D01*
G01X48951D01*
G03X47951Y72248I0J-1000D01*
G01Y71747D01*
X40503D01*
X36878Y68123D01*
Y62443D01*
X35784D01*
G03X34787Y61526I0J-1000D01*
G01X34771Y61343D01*
X34074D01*
X33953Y61464D01*
Y63164D01*
G03X34653Y64774I-1500J1609D01*
G03X30252I-2200J0D01*
G03X30952Y63164I2200J0D01*
G01Y60843D01*
G03X31392Y59782I1500J0D01*
G01X32392Y58782D01*
G03X33452Y58342I1061J1061D01*
G01X34771D01*
X34787Y58159D01*
G03X35784Y57242I997J83D01*
G01X36878D01*
Y50611D01*
X19191D01*
G03X17494Y51411I-1697J-1400D01*
G03X15293Y49211I0J-2200D01*
G03X17301Y47019I2200J0D01*
G02X17664Y46588I-35J-398D01*
G03X17657Y46413I2193J-175D01*
G03X19858Y44213I2200J0D01*
G03X21498Y44946I0J2200D01*
G01X21557Y45013D01*
X21958D01*
G03X22948Y45423I0J1400D01*
G01X23735Y46210D01*
X36878D01*
Y41409D01*
X33411Y37942D01*
X1600D01*
Y89463D01*
G02X2283Y89745I400J0D01*
G01X2635Y89393D01*
G03X3625Y88983I990J990D01*
G01X4418D01*
X4438Y88979D01*
G03X4721Y88950I284J1371D01*
G01X7136D01*
X7741Y88346D01*
Y83804D01*
G03X8151Y82814I1400J0D01*
G01X11066Y79899D01*
Y60574D01*
X10869Y60378D01*
G03X10459Y59388I990J-990D01*
G01Y58987D01*
X10392Y58928D01*
G03X9659Y57288I1467J-1640D01*
G03X11859Y55087I2200J0D01*
G03X13818Y56286I0J2200D01*
G02X14457Y56387I356J-182D01*
G01X14658Y56186D01*
X14653Y56096D01*
G03X14650Y55974I2197J-122D01*
G03X16850Y58174I2200J0D01*
G03X16728Y58171I0J-2200D01*
G01X16638Y58166D01*
X15505Y59299D01*
Y80753D01*
X16513D01*
Y80035D01*
G03X16923Y79045I1400J0D01*
G01X17587Y78381D01*
X17582Y78292D01*
G03X17579Y78170I2197J-122D01*
G03X21979Y78170I2200J0D01*
G03X20038Y80354I-2200J0D01*
G01X19862Y80375D01*
Y80753D01*
X20553D01*
G03X21554Y81753I0J1000D01*
G01Y84073D01*
G03X21258Y84783I-1000J0D01*
G03X21554Y85493I-704J710D01*
G01Y87814D01*
G03X21258Y88524I-1000J0D01*
G03X21554Y89234I-704J710D01*
G01Y91554D01*
G03X20553Y92554I-1000J0D01*
G01X19314D01*
Y94767D01*
G02X19837Y95148I400J0D01*
G03X20513Y95041I677J2093D01*
G03X22656Y96741I0J2200D01*
G02X23331Y96931I390J-91D01*
G03X24901Y96272I1570J1542D01*
G03X27101Y98472I0J2200D01*
G03X26299Y100171I-2200J0D01*
G01Y102952D01*
X26397Y103010D01*
G03X26884Y103869I-513J859D01*
G01Y107019D01*
G03X26573Y107743I-1000J0D01*
G03X26695Y108315I-1278J571D01*
G01Y112869D01*
G03X26285Y113859I-1400J0D01*
G01X25485Y114659D01*
G03X24495Y115069I-990J-990D01*
G01X14758D01*
G03X13768Y114659I0J-1400D01*
G01X2283Y103174D01*
G02X1600Y103457I-283J283D01*
G01Y114173D01*
G37*
G36*
G01X15338Y112269D02*
X23895D01*
Y108894D01*
G03X23524Y108181I1004J-976D01*
G01X23493Y108019D01*
X19977D01*
G03X19054Y107404I0J-1000D01*
G02X18422Y107256I-369J154D01*
G03X17505Y107599I-918J-1057D01*
G01X14117D01*
G03X13127Y107188I0J-1400D01*
G01X12012Y106073D01*
G03X11602Y105083I990J-990D01*
G01Y102624D01*
G03X12012Y101634I1400J0D01*
G01X12823Y100823D01*
Y99454D01*
G02X12310Y99071I-400J0D01*
G03Y96239I-419J-1416D01*
G02X12823Y95855I114J-384D01*
G01Y94234D01*
X9924Y91335D01*
G03X9705Y91051I990J-990D01*
G02X9077Y90970I-345J202D01*
G01X8706Y91340D01*
G03X7716Y91751I-990J-990D01*
G01X4992D01*
X4972Y91755D01*
G03X4688Y91784I-284J-1371D01*
G01X4205D01*
X3370Y92618D01*
Y100301D01*
X15338Y112269D01*
G37*
G36*
G01X40918Y70747D02*
X47951D01*
Y69248D01*
G03X48951Y68248I1000J0D01*
G01X49145D01*
X49176Y68085D01*
G03X49561Y67358I1375J263D01*
G01X51002Y65917D01*
Y55479D01*
G03X51412Y54489I1400J0D01*
G01X52123Y53778D01*
X51995Y53637D01*
G03X51423Y52158I1629J-1479D01*
G03X51649Y51187I2200J0D01*
G02X51290Y50611I-359J-176D01*
G01X37879D01*
Y57242D01*
X38784D01*
G03X39784Y58242I0J1000D01*
G01Y61442D01*
G03X38784Y62443I-1000J0D01*
G01X37879D01*
Y67708D01*
X40918Y70747D01*
G37*
G36*
G01X49285Y116510D02*
X153543D01*
G02X155880Y114173I0J-2337D01*
G01Y92172D01*
X154167D01*
X153859Y92480D01*
G03X152868Y92890I-990J-990D01*
G01X152660D01*
Y93108D01*
X152663Y93126D01*
G03X152679Y93303I-984J177D01*
G01Y96303D01*
G03X151679Y97303I-1000J0D01*
G01X148479D01*
G03X148170Y97255I0J-1000D01*
G02X147893Y98004I-123J380D01*
G03X148479Y97815I586J811D01*
G01X151679D01*
G03X152679Y98815I0J1000D01*
G01Y101815D01*
G03X151679Y102815I-1000J0D01*
G02X151479Y103015I0J200D01*
G01Y104564D01*
G03X151069Y105554I-1400J0D01*
G01X148405Y108217D01*
X148410Y108307D01*
G03X148414Y108429I-2197J122D01*
G03X146213Y106229I-2200J0D01*
G03X146336Y106232I0J2200D01*
G01X146425Y106237D01*
X148678Y103984D01*
Y103015D01*
G02X148478Y102815I-200J0D01*
G03X147478Y101815I0J-1000D01*
G01Y99891D01*
G02X146796Y99608I-400J0D01*
G01X146352Y100052D01*
X145761D01*
Y100426D01*
X145828Y100486D01*
G03X146561Y102126I-1467J1640D01*
G03X142161I-2200J0D01*
G03X142894Y100486I2200J0D01*
G01X142961Y100426D01*
Y100052D01*
X138983D01*
X137767Y98836D01*
Y97978D01*
X128363D01*
Y102475D01*
X133687D01*
G03X134687Y103476I0J1000D01*
G01Y107076D01*
G03X133814Y108068I-1000J0D01*
G02X133582Y108747I51J397D01*
G01X134015Y109181D01*
X134817D01*
G03X135684Y108681I866J500D01*
G01X138884D01*
G03X139884Y109681I0J1000D01*
G01Y112681D01*
G03X138884Y113681I-1000J0D01*
G01X135684D01*
G03X134817Y113181I0J-1000D01*
G01X134015D01*
X132665Y114532D01*
G03X131250Y115118I-1414J-1414D01*
G01X121264D01*
G03X119849Y114532I0J-2000D01*
G01X117849Y112532D01*
G03X117264Y111117I1414J-1414D01*
G01Y93531D01*
X113515Y89783D01*
G03X112930Y88369I1414J-1414D01*
G01Y69532D01*
G03X113515Y68117I2000J0D01*
G01X114282Y67351D01*
G02X113999Y66668I-283J-283D01*
G01X103695D01*
G03X102596Y67308I-1609J-1500D01*
G02X102293Y67754I93J389D01*
G03X102316Y68070I-2177J316D01*
G03X100115Y70270I-2200J0D01*
G03X97915Y68074I0J-2200D01*
G01X97915Y67992D01*
X97499Y67575D01*
G03X97060Y66514I1061J-1061D01*
G01Y65616D01*
X82602D01*
X80991Y64006D01*
Y52736D01*
X82208Y51520D01*
X97299D01*
X98712Y52933D01*
Y61635D01*
G02X99395Y61918I400J0D01*
G01X99906Y61407D01*
G03X100967Y60967I1061J1061D01*
G01X103204D01*
G03X104265Y61407I0J1500D01*
G01X104725Y61867D01*
X110620D01*
Y51708D01*
X105808D01*
X103843Y49743D01*
Y42768D01*
X105493Y41118D01*
X111325D01*
X112896Y42689D01*
Y44541D01*
X112901Y44546D01*
X117275D01*
X118601Y45873D01*
G02X118863Y45891I142J-141D01*
G03X119463Y45691I601J800D01*
G01X122663D01*
G03X123147Y45816I0J1000D01*
G02X123740Y45465I193J-350D01*
G01Y44601D01*
X118594D01*
X118003Y44010D01*
Y39321D01*
X118909Y38415D01*
X120682D01*
X120997Y38100D01*
Y30947D01*
X93232D01*
X77203Y46976D01*
Y56738D01*
G03X76470Y58506I-2500J0D01*
G01X74035Y60941D01*
G03X72277Y61673I-1768J-1768D01*
G02X72078Y61873I1J200D01*
G01Y67237D01*
X71098Y68217D01*
X64426D01*
G02X64143Y68899I0J400D01*
G01X64858Y69614D01*
G03X65268Y70604I-990J990D01*
G01Y85115D01*
X69848Y89696D01*
G03X70258Y90686I-990J990D01*
G01Y97007D01*
G02X70442Y97206I200J0D01*
G03X71358Y98203I-83J997D01*
G01Y101403D01*
G03X70442Y102400I-1000J0D01*
G02X70258Y102599I17J199D01*
G01Y106219D01*
G03X70403Y106559I-3605J1733D01*
G02X70778I188J-70D01*
G03X74528Y103953I3750J1394D01*
G03Y111953I0J4000D01*
G03X70948Y109739I0J-4000D01*
G02X70233I-358J179D01*
G03X63074I-3579J-1786D01*
G02X62359I-358J179D01*
G03X58779Y111953I-3579J-1786D01*
G03Y103953I0J-4000D01*
G03X62359Y106166I0J4000D01*
G02X63074I358J-179D01*
G03X66654Y103953I3579J1786D01*
G03X67021Y103970I0J4000D01*
G02X67458Y103571I37J-398D01*
G01Y102599D01*
G02X67275Y102400I-200J0D01*
G03X66358Y101403I83J-997D01*
G01Y98203D01*
G03X67275Y97206I1000J0D01*
G02X67458Y97007I-17J-199D01*
G01Y91266D01*
X64098Y87906D01*
G02X63415Y88189I-283J283D01*
G01Y88768D01*
G02X63811Y89168I400J0D01*
G03X65989Y91369I-23J2200D01*
G03X65256Y93008I-2200J0D01*
G01X65189Y93068D01*
Y93469D01*
G03X64779Y94459I-1400J0D01*
G01X64392Y94845D01*
Y96968D01*
G02X64576Y97167I200J0D01*
G03X65492Y98164I-83J997D01*
G01Y101364D01*
G03X64492Y102364I-1000J0D01*
G01X61492D01*
G03X60848Y102129I0J-1000D01*
G02X60578Y102140I-129J153D01*
G01X60302Y102416D01*
X52455D01*
G02X52249Y103159I0J400D01*
G03X54071Y106378I-1934J3219D01*
G01Y109527D01*
G03X50314Y113284I-3756J0D01*
G03X49746Y113240I0J-3756D01*
G02X49285Y113636I-61J395D01*
G01Y116510D01*
G37*
G36*
G01X62460Y67216D02*
X70684D01*
X71078Y66822D01*
Y55869D01*
X70526Y55318D01*
X62055D01*
X59043Y58330D01*
Y63800D01*
X62460Y67216D01*
G37*
G36*
G01X83016Y64616D02*
X96885D01*
X97156Y64345D01*
X97171Y64308D01*
G03X97499Y63814I1389J567D01*
G01X97712Y63601D01*
Y53348D01*
X96885Y52520D01*
X82622D01*
X81991Y53151D01*
Y63592D01*
X83016Y64616D01*
G37*
G36*
G01X121452Y22219D02*
G03X122013Y22919I-1400J1697D01*
G02X122634Y23038I357J-181D01*
G03X124284Y22417I1650J1879D01*
G01X131397D01*
Y12395D01*
G03X132129Y10627I2500J0D01*
G01X132166Y10591D01*
G03X133934Y9858I1768J1768D01*
G01X137834D01*
G03Y14859I0J2500D01*
G01X136397D01*
Y19579D01*
X144716D01*
G03X145777Y20018I0J1500D01*
G01X146801Y21043D01*
G03X147241Y22103I-1061J1061D01*
G01Y22837D01*
X155880D01*
Y3937D01*
G02X153543Y1600I-2337J0D01*
G01X145135D01*
G02X144784Y2192I0J400D01*
G03X145089Y3388I-2195J1197D01*
G03X142589Y5889I-2500J0D01*
G01X118418D01*
Y11260D01*
G02X118600Y11459I200J0D01*
G03X119508Y12455I-92J996D01*
G01Y15655D01*
G03X118675Y16641I-1000J0D01*
G01X118508Y16670D01*
Y17149D01*
X118675Y17178D01*
G03X119508Y18164I-167J986D01*
G01Y18357D01*
X119671Y18388D01*
G03X120398Y18774I-263J1375D01*
G01X121042Y19418D01*
G03X121452Y20408I-990J990D01*
G01Y22219D01*
G37*
G36*
G01X112457Y61867D02*
X116615D01*
X117412Y61070D01*
Y46098D01*
X116860Y45546D01*
X112487D01*
X111896Y44955D01*
Y43104D01*
X110911Y42119D01*
X105907D01*
X104843Y43182D01*
Y49329D01*
X106222Y50708D01*
X111305D01*
X111620Y51023D01*
Y61031D01*
X112457Y61867D01*
G37*
G36*
G01X118412D02*
X119970D01*
X121713Y60124D01*
Y53462D01*
X120002Y51752D01*
G03X119573Y50865I1061J-1061D01*
G02X119389Y50688I-199J23D01*
G03X118998Y50576I74J-997D01*
G02X118412Y50931I-186J354D01*
G01Y61867D01*
G37*
G36*
G01X131951Y65531D02*
X144724D01*
X145553Y64703D01*
Y41322D01*
X144685Y40455D01*
X138583D01*
G03X137168Y39869I0J-2000D01*
G01X135751Y38451D01*
G03X135165Y37037I1414J-1414D01*
G01Y36403D01*
G03X134665Y35537I500J-866D01*
G01Y29221D01*
X132862Y27417D01*
X125319D01*
X124740Y27996D01*
Y29432D01*
X126316D01*
X127341Y30456D01*
Y38179D01*
X128365Y39203D01*
X129468D01*
X130178Y39912D01*
Y44664D01*
X135161D01*
X135324Y44502D01*
Y42256D01*
X136343Y41237D01*
X140836D01*
X144219Y44620D01*
Y49625D01*
X142412Y51432D01*
X140678D01*
X140008Y52102D01*
X137014D01*
X136773Y52344D01*
Y62666D01*
X135793Y63646D01*
X131951D01*
Y65531D01*
G37*
G36*
G01X141998Y50432D02*
X143219Y49211D01*
Y45034D01*
X140422Y42237D01*
X136757D01*
X136324Y42670D01*
Y44916D01*
X135575Y45665D01*
X130769D01*
X129981Y46453D01*
Y61858D01*
X130769Y62646D01*
X135378D01*
X135772Y62252D01*
Y51929D01*
X136600Y51102D01*
X139594D01*
X140264Y50432D01*
X141998D01*
G37*
G36*
G01X155287Y91172D02*
X155880D01*
Y23837D01*
X149886D01*
Y25850D01*
X150053Y25878D01*
G03X150886Y26865I-167J986D01*
G01Y30065D01*
G03X150728Y30604I-1000J0D01*
G02X150999Y31215I337J216D01*
G03X152840Y33386I-359J2171D01*
G03X151082Y35541I-2200J0D01*
G02X150879Y36216I80J392D01*
G01X152041Y37377D01*
G03X152626Y38792I-1414J1414D01*
G01Y68241D01*
G03X152041Y69655I-2000J0D01*
G01X149219Y72477D01*
G03X147804Y73063I-1414J-1414D01*
G01X137725D01*
X137670Y73175D01*
G03X137513Y73407I-899J-439D01*
G01X137661Y73742D01*
X149622D01*
X152414Y76534D01*
Y80287D01*
X152526Y80342D01*
G03X152895Y80607I-621J1255D01*
G01X155005Y82717D01*
G03X155415Y83707I-990J990D01*
G01Y90344D01*
G03X155303Y90893I-1400J0D01*
G01X155287Y90931D01*
Y91172D01*
G37*
G36*
G01X125355Y90713D02*
G03X125787Y90811I0J1000D01*
G03X126220Y90713I433J902D01*
G01X127094D01*
X127714Y90093D01*
X131300D01*
X131659Y89734D01*
X130950Y89025D01*
Y84568D01*
X128322D01*
Y86397D01*
G03X127322Y87397I-1000J0D01*
G01X126265D01*
X125746Y87917D01*
X123774D01*
X123255Y87397D01*
X122446D01*
G02X122102Y88001I0J400D01*
G03X122410Y89123I-1893J1121D01*
G03X122166Y90130I-2200J0D01*
G02X122521Y90713I356J183D01*
G01X125355D01*
G37*
G36*
G01X128050Y87087D02*
Y87350D01*
X130453Y89753D01*
X137112D01*
X137427Y89438D01*
Y84198D01*
X137151Y83922D01*
X128338D01*
X128322Y83938D01*
Y86397D01*
G03X128095Y87032I-1000J0D01*
G01X128050Y87087D01*
G37*
G36*
G01X139397Y99052D02*
X145938D01*
X146647Y98342D01*
Y89556D01*
X147789Y88414D01*
X150863D01*
X152005Y87271D01*
Y83678D01*
X151325Y82998D01*
X146192D01*
X146135Y83055D01*
X139397D01*
X138767Y83686D01*
Y98421D01*
X139397Y99052D01*
G37*
G36*
G01X128819Y94778D02*
X136915D01*
Y90896D01*
X136773Y90753D01*
X132054D01*
X131714Y91093D01*
X130009D01*
X129957Y91215D01*
G03X129035Y91827I-922J-389D01*
G01X128322D01*
Y93701D01*
G03X128259Y94052I-1000J0D01*
G01X128214Y94172D01*
X128819Y94778D01*
G37*
G36*
G01X124386Y86283D02*
X125220D01*
Y84409D01*
G03X125346Y83923I1000J0D01*
G01X125371Y83878D01*
Y83509D01*
G03X125781Y82519I1400J0D01*
G01X127693Y80607D01*
G03X128683Y80197I990J990D01*
G01X151414D01*
Y76948D01*
X149208Y74742D01*
X129035D01*
X125984Y77793D01*
X125971Y77851D01*
G03X125565Y78600I-1467J-312D01*
G01X125134Y79030D01*
Y79233D01*
X124335Y80033D01*
Y84092D01*
X124343Y84121D01*
G03X124386Y84409I-958J288D01*
G01Y86283D01*
G37*
%LPC*%
G75*
G36*
G01X55176Y40868D02*
G02X59577I2200J0D01*
G02X58777Y39171I-2200J0D01*
G01Y34012D01*
G02X58366Y33022I-1400J0D01*
G01X56702Y31357D01*
G02X55712Y30947I-990J990D01*
G01X22171D01*
X21494Y30270D01*
Y22264D01*
G02X22294Y20567I-1400J-1697D01*
G02X17894I-2200J0D01*
G02X18694Y22264I2200J0D01*
G01Y30850D01*
G02X19104Y31840I1400J0D01*
G01X20601Y33338D01*
G02X21591Y33748I990J-990D01*
G01X55132D01*
X55976Y34592D01*
Y39171D01*
G02X55176Y40868I1400J1697D01*
G37*
G36*
G01X64090Y44289D02*
G03X64252Y44474I-37J196D01*
G02X65250Y45414I998J-60D01*
G01X68450D01*
G02X69451Y44413I0J-1000D01*
G01Y41413D01*
G02X68450Y40413I-1000J0D01*
G01X65250D01*
G02X64597Y40656I0J1000D01*
G03X64053Y40636I-261J-303D01*
G01X62982Y39565D01*
Y37039D01*
G02X63782Y35342I-1400J-1697D01*
G02X59382I-2200J0D01*
G02X60182Y37039I2200J0D01*
G01Y40145D01*
G02X60592Y41135I1400J0D01*
G01X63360Y43904D01*
G02X64090Y44289I990J-990D01*
G37*
G36*
G01X24643Y85074D02*
X29923D01*
G02X30894Y84314I0J-1000D01*
G01X31004D01*
G02X31879Y84007I0J-1400D01*
G03X32386Y84024I244J317D01*
G02X33046Y84272I660J-752D01*
G01X36246D01*
G02X37246Y83272I0J-1000D01*
G01Y80272D01*
G02X36246Y79272I-1000J0D01*
G01X33046D01*
G02X32047Y80212I0J1000D01*
G03X31885Y80396I-200J-12D01*
G02X31156Y80782I261J1376D01*
G01X30763Y81174D01*
X30621Y81037D01*
G02X29923Y80753I-698J716D01*
G01X28684D01*
Y80166D01*
X28716Y80117D01*
G02X29071Y78918I-1845J-1199D01*
G02X24671Y78918I-2200J0D01*
G02X25036Y80132I2200J0D01*
G03X24702Y80753I-334J221D01*
G01X24643D01*
G02X23643Y81753I0J1000D01*
G01Y84073D01*
G02X24643Y85074I1000J0D01*
G37*
G36*
G01X48951Y78760D02*
X49090D01*
G03X49418Y79390I0J400D01*
G02X49020Y80652I1802J1262D01*
G02X53420I2200J0D01*
G02X52687Y79012I-2200J0D01*
G01X52620Y78952D01*
Y78643D01*
G02X53151Y77760I-469J-883D01*
G01Y74760D01*
G02X52151Y73760I-1000J0D01*
G01X48951D01*
G02X47951Y74760I0J1000D01*
G01Y77760D01*
G02X48951Y78760I1000J0D01*
G37*
G36*
G01X26293Y95569D02*
X31377Y100652D01*
X31372Y100742D01*
G02X31369Y100864I2197J122D01*
G02X35769Y100864I2200J0D01*
G02X35322Y99534I-2200J0D01*
G03X35445Y98944I319J-242D01*
G02X33248Y97610I-721J-1289D01*
G03X32566Y97881I-400J-12D01*
G01X28684Y93999D01*
Y92554D01*
X29923D01*
G02X30924Y91554I0J-1000D01*
G01Y89234D01*
G02X29923Y88233I-1000J0D01*
G01X24643D01*
G02X23643Y89234I0J1000D01*
G01Y91554D01*
G02X24643Y92554I1000J0D01*
G01X25883D01*
Y94579D01*
G02X26293Y95569I1400J0D01*
G37*
G36*
G01X93775Y83604D02*
G02X94836Y84043I1061J-1061D01*
G01X96418D01*
G02X98027Y84743I1609J-1500D01*
G02Y80343I0J-2200D01*
G02X96418Y81043I0J2200D01*
G01X95457D01*
X94484Y80070D01*
Y79918D01*
G03X94668Y79719I200J0D01*
G02X95584Y78722I-83J-997D01*
G01Y75722D01*
G02X94584Y74722I-1000J0D01*
G01X91384D01*
G02X90384Y75722I0J1000D01*
G01Y78722D01*
G02X91300Y79719I1000J0D01*
G03X91484Y79918I-17J199D01*
G01Y80691D01*
G02X91923Y81752I1500J0D01*
G01X93775Y83604D01*
G37*
G54D32*
X82992Y107953D03*
%LPD*%
G75*
G36*
G01X132951Y88196D02*
X133059Y88304D01*
X136766D01*
Y83998D01*
X132951D01*
Y88196D01*
G37*
G54D10*
X4019Y13317D03*
X5122Y30062D03*
X17494Y49211D03*
X16850Y55974D03*
X11859Y57288D03*
X5004Y67177D03*
X4176Y59139D03*
X17100Y60440D03*
X13514Y85656D03*
X16272Y103031D03*
X8983Y101337D03*
X38415Y4452D03*
X23876Y25374D03*
X32544Y25846D03*
X20094Y20567D03*
X19858Y46413D03*
X23522Y40937D03*
X32452Y64774D03*
X19779Y78170D03*
X26871Y78918D03*
X36522Y78089D03*
X20513Y97241D03*
X24901Y98472D03*
X33569Y100864D03*
X19070Y110232D03*
X32702Y108468D03*
X57376Y40868D03*
X57366Y50905D03*
X53623Y52158D03*
X46906Y68438D03*
X46886Y65049D03*
X49723Y63946D03*
X51220Y80652D03*
X54608Y80731D03*
X57839Y84277D03*
Y87389D03*
Y90502D03*
X56303Y114418D03*
X45940Y98382D03*
X39479Y104568D03*
X73048Y3625D03*
X75412Y35302D03*
X65404Y52126D03*
X68792Y52166D03*
X61582Y35342D03*
X72575Y68832D03*
X72338Y71747D03*
X72260Y74978D03*
X60243Y60834D03*
X61897Y64183D03*
X65483Y64931D03*
X68635Y64852D03*
X63789Y91369D03*
X69699Y78327D03*
X61779Y113945D03*
X62449Y103740D03*
X92314Y8550D03*
X81282Y3388D03*
X89950Y23916D03*
X98500Y22655D03*
X81338Y24800D03*
X99485Y38257D03*
X92866Y36760D03*
X83173Y46925D03*
X100115Y68070D03*
X92551Y62922D03*
X92472Y59100D03*
X92551Y55121D03*
X95663Y62567D03*
Y59021D03*
Y55081D03*
X97436Y70881D03*
X98027Y82543D03*
X98579Y77810D03*
X89044Y96609D03*
X89005Y102401D03*
X97318Y114615D03*
X91014Y114693D03*
X88847Y107168D03*
X112860Y10559D03*
X104962Y19979D03*
X120052Y23916D03*
X116811Y24182D03*
X107995Y22734D03*
X109926Y43970D03*
X106419Y44010D03*
X102992Y35893D03*
X120131Y54214D03*
X102085Y65168D03*
X120012Y57721D03*
X120209Y89123D03*
X112329Y114299D03*
X105395Y114378D03*
X140028Y8038D03*
X129350Y12884D03*
X136954Y7880D03*
X133921Y7801D03*
X137834Y12359D03*
X133897Y12395D03*
X138727Y3388D03*
X135024D03*
X128168Y29077D03*
X132108Y29038D03*
X126592Y19700D03*
X137939Y44010D03*
X125829Y34844D03*
X122352D03*
X124071Y89044D03*
X127577D03*
X121313Y76081D03*
X141525Y105789D03*
X153699Y13317D03*
X142589Y3388D03*
X150587Y16193D03*
X150640Y33386D03*
X142313Y23916D03*
X141840Y46256D03*
X154369Y53269D03*
X154409Y47910D03*
X154448Y42749D03*
X143692Y52954D03*
X151887Y72890D03*
X154290Y58745D03*
X143692Y62528D03*
X143731Y59376D03*
X143771Y56224D03*
X153936Y75766D03*
X154133Y79667D03*
X153879Y95387D03*
X150079Y91490D03*
X143219Y113393D03*
X144361Y102126D03*
X146213Y108429D03*
G54D11*
X6279Y95686D03*
X40335D03*
G54D20*
X118273Y34844D03*
X129917D03*
G54D30*
G01X119264Y92551D02*
X119420Y92707D01*
X122834D01*
G01X123187Y109026D02*
X126763Y105449D01*
Y96378D01*
G01D02*
X142722D01*
G54D21*
X132835Y71063D03*
Y77599D03*
G54D12*
X17913Y90394D03*
Y86654D03*
Y82913D03*
X27283D03*
Y86654D03*
Y90394D03*
G54D31*
G01X66239Y59173D02*
X72267D01*
X74702Y56738D01*
Y45940D01*
X92196Y28447D01*
X120754D01*
X124284Y24917D01*
X133897D01*
G01X81338Y24800D02*
Y6645D01*
X81282Y6588D01*
Y3388D01*
G01D02*
X117018D01*
G01D02*
X135024D01*
G01X137834Y12359D02*
X133934D01*
X133897Y12395D01*
G01D02*
Y21118D01*
G01X135024Y3388D02*
X138727D01*
G01D02*
X142589D01*
G01X133897Y24917D02*
X137165Y28185D01*
Y33937D01*
G01X133897Y21118D02*
Y24917D01*
G54D22*
X125787Y89055D03*
G54D13*
X6278Y112142D03*
X40336D03*
G54D23*
X122834Y85403D03*
X124804D03*
X126771D03*
X128740D03*
Y92707D03*
X126771D03*
X124804D03*
X122834D03*
G54D14*
X37284Y59842D03*
X42795D03*
X57480Y99764D03*
X62992D03*
X68858Y99803D03*
X74370D03*
X117008Y14055D03*
X111496D03*
Y19764D03*
X117008D03*
X114370Y54018D03*
X108859D03*
X119620Y71038D03*
X114291Y59648D03*
X108780D03*
X137165Y33937D03*
X133032Y53939D03*
X138544D03*
X125132Y71038D03*
X133032Y59569D03*
X138544D03*
X142677Y33937D03*
X148386Y28465D03*
X142874D03*
G54D24*
X134722Y92628D03*
X123187Y109026D03*
Y101526D03*
X134722Y100128D03*
G54D15*
X34646Y87284D03*
Y81772D03*
X56339Y70827D03*
X50551Y70748D03*
X56339Y76339D03*
X50551Y76260D03*
X66850Y42913D03*
Y48425D03*
X92984Y71710D03*
Y77222D03*
X121063Y48191D03*
Y42679D03*
X114843Y48191D03*
Y42679D03*
X127126Y48230D03*
Y42719D03*
X133229Y48230D03*
Y42719D03*
X137284Y111181D03*
Y105669D03*
X150079Y94803D03*
X149094Y84213D03*
Y78701D03*
X150079Y100315D03*
G54D16*
X22932Y110232D03*
X20962Y105444D03*
X24899D03*
G54D25*
X141772Y77654D03*
Y85654D03*
G54D17*
X50314Y107953D03*
X82992D03*
G54D26*
X131187Y105276D03*
X142722Y96378D03*
G54D27*
G01X17494Y49211D02*
X55384D01*
X56289Y48305D01*
X58443D01*
X59966Y49828D01*
Y53151D01*
X55909Y57209D01*
Y64908D01*
X62015Y71015D01*
Y89465D01*
X60833Y90647D01*
Y92879D01*
X57581Y96132D01*
X57530D01*
X57480Y96182D01*
Y99764D01*
G01X16850Y55974D02*
X14105Y58719D01*
Y81388D01*
X10914Y84578D01*
Y90345D01*
X14223Y93654D01*
Y101403D01*
X13002Y102624D01*
Y105083D01*
X14117Y106198D01*
X17505D01*
X18260Y105444D01*
X20962D01*
G01X24899D02*
Y107919D01*
X25295Y108315D01*
Y112869D01*
X24495Y113669D01*
X14758D01*
X1970Y100881D01*
Y92038D01*
X3625Y90384D01*
X4688D01*
X4721Y90350D01*
X7716D01*
X9141Y88926D01*
Y83804D01*
X12466Y80479D01*
Y59994D01*
X11859Y59388D01*
Y57288D01*
G01X13514Y85656D02*
X16916D01*
X17913Y86654D01*
G01X16272Y103031D02*
Y99918D01*
X17913Y98277D01*
Y90394D01*
G01X57376Y40868D02*
Y34012D01*
X55712Y32347D01*
X21591D01*
X20094Y30850D01*
Y20567D01*
G01X68858Y99803D02*
Y90686D01*
X63867Y85695D01*
Y70604D01*
X57643Y64380D01*
Y57738D01*
X61566Y53814D01*
Y49165D01*
X59106Y46705D01*
X54947D01*
X54041Y47611D01*
X23155D01*
X21958Y46413D01*
X19858D01*
G01X27283Y90394D02*
Y94579D01*
X33569Y100864D01*
G01X19779Y78170D02*
X17913Y80035D01*
Y82913D01*
G01X27283D02*
X31004D01*
X32146Y81772D01*
X34646D01*
G01X27283Y82913D02*
Y79331D01*
X26871Y78918D01*
G01X20962Y105444D02*
Y99790D01*
X20513Y99341D01*
Y97241D01*
G01X24901Y98472D02*
Y99642D01*
X24899Y99644D01*
Y105444D01*
G01X22932Y110232D02*
X19070D01*
G01X57366Y50905D02*
Y53229D01*
X54002Y56594D01*
Y66090D01*
X56339Y68427D01*
Y70827D01*
G01X53623Y52158D02*
Y54258D01*
X52402Y55479D01*
Y66497D01*
X50551Y68348D01*
Y70748D01*
G01X51220Y80652D02*
Y76929D01*
X50551Y76260D01*
G01X54608Y80731D02*
X56339Y79000D01*
Y76339D01*
G01X61582Y35342D02*
Y40145D01*
X64350Y42913D01*
X66850D01*
G01X62992Y99764D02*
Y94265D01*
X63789Y93469D01*
Y91369D01*
G01X68858Y99803D02*
Y105748D01*
X66654Y107953D01*
G01X117018Y3388D02*
Y11545D01*
X117008Y11555D01*
Y14055D01*
G01Y19864D02*
Y19764D01*
G01X120052Y23916D02*
Y20408D01*
X119408Y19764D01*
X117008D01*
G01X111496D02*
Y22264D01*
X113414Y24182D01*
X116811D01*
G01X126771Y92707D02*
Y96370D01*
X126763Y96378D01*
G01X126771Y85403D02*
Y83509D01*
X128683Y81597D01*
X151905D01*
X154015Y83707D01*
Y90344D01*
X152868Y91490D01*
X150079D01*
G01X124804Y92707D02*
Y97209D01*
X123187Y98826D01*
Y101526D01*
G01X126238Y79864D02*
X124804Y81298D01*
Y85403D01*
G01X150079Y94803D02*
Y91490D01*
G01X142722Y96378D02*
X144361Y98017D01*
G01D02*
Y102126D01*
G01X150079Y100315D02*
Y104564D01*
X146213Y108429D01*
G54D18*
X58779Y107953D03*
X66654D03*
X74528D03*
G54D28*
G01X37284Y59842D02*
X33452D01*
X32452Y60843D01*
Y64774D01*
G01X121063Y48191D02*
Y50691D01*
X123213Y52841D01*
Y60746D01*
X120591Y63368D01*
X104104D01*
X103204Y62468D01*
X100967D01*
X98560Y64875D01*
Y66514D01*
X100115Y68070D01*
G01X92984Y77222D02*
Y80691D01*
X94836Y82543D01*
X98027D01*
G01X111496Y14055D02*
Y11923D01*
X112860Y10559D01*
G01X117008Y19764D02*
Y14055D01*
G01X107995Y22734D02*
Y20534D01*
X108765Y19764D01*
X111496D01*
G01X118273Y34844D02*
X122352D01*
G01X127126Y48230D02*
Y50730D01*
X125013Y52844D01*
Y61491D01*
X121337Y65168D01*
X102085D01*
G01X122834Y85403D02*
Y79209D01*
X124504Y77539D01*
Y74924D01*
X122925Y73345D01*
X121828D01*
X119620Y71138D01*
Y71038D01*
G01X120209Y89123D02*
X118791Y87704D01*
Y76830D01*
X119540Y76081D01*
X121313D01*
G01X150640Y33386D02*
X149084Y31830D01*
X146918D01*
X145741Y30653D01*
Y22103D01*
X144716Y21079D01*
X133937D01*
X133897Y21118D01*
G01X129917Y34844D02*
X125829D01*
G01X127126Y42719D02*
Y40218D01*
X125829Y38921D01*
Y34844D01*
G01X121063Y42679D02*
Y40179D01*
X122352Y38890D01*
Y34844D01*
G01X148386Y28465D02*
Y21704D01*
G54D19*
X66239Y59173D03*
X86439D03*
G54D29*
G01X119264Y92551D02*
X119036Y92323D01*
X118884D01*
X114930Y88369D01*
Y69532D01*
X116930Y67532D01*
X145553D01*
X147553Y65532D01*
Y40494D01*
X145514Y38454D01*
X138583D01*
X137165Y37037D01*
Y33937D01*
G01X119264Y92551D02*
Y111117D01*
X121264Y113117D01*
X131250D01*
X133187Y111181D01*
G01X132835Y71063D02*
X125157D01*
X125132Y71038D01*
G01X142677Y33937D02*
X145772D01*
X150626Y38792D01*
Y68241D01*
X147804Y71063D01*
X132835D01*
G01X133187Y111181D02*
X137284D01*
G01X131187Y105276D02*
Y109181D01*
X133187Y111181D01*
G01X142313Y23916D02*
Y27903D01*
X142874Y28465D01*
G01X142677Y33937D02*
Y28661D01*
X142874Y28465D01*
M02*
