G04 ================== begin FILE IDENTIFICATION RECORD ==================*
G04 Layout Name:  D:/Projects/Mini_Audio/01.Hardware/POWER/PCB/POWER.brd*
G04 Film Name:    PASTBOT*
G04 File Format:  Gerber RS274X*
G04 File Origin:  Cadence Allegro 17.4-S037*
G04 Origin Date:  Wed Feb 28 20:17:22 2024*
G04 *
G04 Layer:  PACKAGE GEOMETRY/PASTEMASK_BOTTOM*
G04 Layer:  PIN/PASTEMASK_BOTTOM*
G04 *
G04 Offset:    (0.000 0.000)*
G04 Mirror:    No*
G04 Mode:      Positive*
G04 Rotation:  0*
G04 FullContactRelief:  No*
G04 UndefLineWidth:     6.000*
G04 ================== end FILE IDENTIFICATION RECORD ====================*
%FSLAX35Y35*MOIN*%
%IR0*IPPOS*OFA0.00000B0.00000*MIA0B0*SFA1.00000B1.00000*%
%ADD12R,.032X.03*%
%ADD11R,.03X.032*%
%ADD19R,.045X.04*%
%ADD20R,.05X.036*%
%ADD13R,.019701X.0315*%
%ADD18R,.036X.036*%
%ADD17R,.01102X.019882*%
%ADD10R,.052799X.023201*%
%ADD14R,.080571X.06378*%
%ADD16R,.064961X.035429*%
%ADD15R,.07874X.033469*%
G75*
%LPD*%
G75*
G36*
G01X120650Y37798D02*
Y36376D01*
X120256Y35982D01*
X119427D01*
X119034Y35588D01*
Y34099D01*
X119427Y33706D01*
X120256D01*
X120650Y33312D01*
Y31889D01*
X120256Y31495D01*
X116290D01*
X115896Y31889D01*
Y37798D01*
X116290Y38192D01*
X120256D01*
X120650Y37798D01*
G37*
G36*
G01X127540D02*
Y36376D01*
X127934Y35982D01*
X128762D01*
X129156Y35588D01*
Y34099D01*
X128762Y33706D01*
X127934D01*
X127540Y33312D01*
Y31889D01*
X127934Y31495D01*
X131900D01*
X132294Y31889D01*
Y37798D01*
X131900Y38192D01*
X127934D01*
X127540Y37798D01*
G37*
G54D10*
X17913Y90394D03*
Y86654D03*
Y82913D03*
X27283D03*
Y86654D03*
Y90394D03*
G54D20*
X131187Y105276D03*
X142722Y96378D03*
G54D11*
X37284Y59842D03*
X42795D03*
X57480Y99764D03*
X62992D03*
X68858Y99803D03*
X74370D03*
X117008Y14055D03*
X111496D03*
Y19764D03*
X117008D03*
X114370Y54018D03*
X108859D03*
X119620Y71038D03*
X114291Y59648D03*
X108780D03*
X137165Y33937D03*
X133032Y53939D03*
X138544D03*
X125132Y71038D03*
X133032Y59569D03*
X138544D03*
X142677Y33937D03*
X148386Y28465D03*
X142874D03*
G54D12*
X34646Y87284D03*
Y81772D03*
X56339Y70827D03*
X50551Y70748D03*
X56339Y76339D03*
X50551Y76260D03*
X66850Y42913D03*
Y48425D03*
X92984Y71710D03*
Y77222D03*
X121063Y48191D03*
Y42679D03*
X114843Y48191D03*
Y42679D03*
X127126Y48230D03*
Y42719D03*
X133229Y48230D03*
Y42719D03*
X137284Y111181D03*
Y105669D03*
X150079Y94803D03*
X149094Y84213D03*
Y78701D03*
X150079Y100315D03*
G54D13*
X22932Y110232D03*
X20962Y105444D03*
X24899D03*
G54D14*
X66239Y59173D03*
X86439D03*
G54D15*
X132835Y71063D03*
Y77599D03*
G54D16*
X125787Y89055D03*
G54D17*
X122834Y85403D03*
X124804D03*
X126771D03*
X128740D03*
Y92707D03*
X126771D03*
X124804D03*
X122834D03*
G54D18*
X134722Y92628D03*
X123187Y109026D03*
Y101526D03*
X134722Y100128D03*
G54D19*
X141772Y77654D03*
Y85654D03*
M02*
