G04 ================== begin FILE IDENTIFICATION RECORD ==================*
G04 Layout Name:  D:/Projects/Mini_Audio/01.Hardware/POWER/PCB/POWER.brd*
G04 Film Name:    PASTTOP*
G04 File Format:  Gerber RS274X*
G04 File Origin:  Cadence Allegro 17.4-S037*
G04 Origin Date:  Wed Feb 28 20:17:22 2024*
G04 *
G04 Layer:  PACKAGE GEOMETRY/PASTEMASK_TOP*
G04 Layer:  PIN/PASTEMASK_TOP*
G04 *
G04 Offset:    (0.000 0.000)*
G04 Mirror:    No*
G04 Mode:      Positive*
G04 Rotation:  0*
G04 FullContactRelief:  No*
G04 UndefLineWidth:     6.000*
G04 ================== end FILE IDENTIFICATION RECORD ====================*
%FSLAX35Y35*MOIN*%
%IR0*IPPOS*OFA0.00000B0.00000*MIA0B0*SFA1.00000B1.00000*%
%ADD12R,.062988X.07874*%
%ADD19R,.0945X.126*%
%ADD25O,.007902X.0315*%
%ADD17O,.0315X.007902*%
%AMMACRO33*
4,1,26,.000098,.028598,
.000038,.029284,
-.00014,.029948,
-.000431,.030572,
-.000826,.031136,
-.001312,.031623,
-.001876,.032018,
-.0025,.032309,
-.003164,.032487,
-.00385,.032547,
-.004536,.032487,
-.005201,.032309,
-.005824,.032018,
-.006388,.031623,
-.006875,.031137,
-.00727,.030573,
-.007561,.029949,
-.007739,.029284,
-.007799,.028599,
-.007799,.028598,
-.007799,.001799,
.000098,-.003701,
.000098,-.0325,
.007902,-.0325,
.007902,.005299,
.000098,.010799,
.000098,.028598,
0.0*
%
%ADD33MACRO33*%
%AMMACRO23*
4,1,25,.007799,.000402,
0.0,-.006299,
0.0,-.031902,
-.007902,-.031902,
-.007902,-.001201,
0.0,.0055,
0.0,.028,
.000065,.028677,
.000247,.029332,
.00054,.029945,
.000935,.030498,
.00142,.030975,
.00198,.031359,
.002599,.031641,
.003257,.031811,
.003935,.031864,
.004611,.031799,
.005266,.031617,
.00588,.031324,
.006433,.030929,
.006909,.030444,
.007294,.029884,
.007576,.029265,
.007746,.028607,
.007799,.028,
.007799,.000402,
0.0*
%
%ADD23MACRO23*%
%AMMACRO24*
4,1,22,.004,-.031902,
.004,.028299,
.003897,.028966,
.003679,.029606,
.003353,.030198,
.00293,.030724,
.002422,.031169,
.001844,.031519,
.001214,.031763,
.000551,.031894,
-.000124,.031908,
-.000201,.031902,
-.000899,.031776,
-.001565,.031531,
-.002179,.031174,
-.00272,.030716,
-.003175,.030171,
-.003527,.029555,
-.003767,.028887,
-.003888,.028188,
-.003902,.027799,
-.003902,-.031902,
.004,-.031902,
0.0*
%
%ADD24MACRO24*%
%AMMACRO22*
4,1,25,.007902,-.031902,
0.0,-.031902,
0.0,-.006299,
-.007902,.000402,
-.007902,.028098,
-.007821,.028782,
-.007622,.029442,
-.007312,.030057,
-.0069,.030609,
-.006398,.031081,
-.005822,.031459,
-.005189,.031731,
-.004518,.031889,
-.00383,.031928,
-.003146,.031847,
-.002486,.031648,
-.001871,.031338,
-.001319,.030926,
-.000847,.030424,
-.000469,.029847,
-.000197,.029214,
-.000039,.028544,
0.0,.028098,
0.0,.0055,
.007902,-.001201,
.007902,-.031902,
0.0*
%
%ADD22MACRO22*%
%AMMACRO21*
4,1,25,-.007902,-.028598,
-.007832,-.029275,
-.007645,-.029929,
-.007347,-.03054,
-.006948,-.031091,
-.006459,-.031564,
-.005895,-.031945,
-.005274,-.032222,
-.004614,-.032388,
-.003936,-.032436,
-.003259,-.032365,
-.002605,-.032179,
-.001993,-.031881,
-.001443,-.031482,
-.00097,-.030993,
-.000589,-.030429,
-.000311,-.029808,
-.000146,-.029148,
-.000098,-.028598,
-.000098,-.010799,
.007799,-.005299,
.007799,.0325,
-.000098,.0325,
-.000098,.003701,
-.007902,-.001799,
-.007902,-.028598,
0.0*
%
%ADD21MACRO21*%
%ADD27R,.047201X.137799*%
%ADD39R,.04X.03*%
%ADD16R,.032X.03*%
%ADD11R,.03X.04*%
%ADD10R,.03X.032*%
%ADD15R,.05X.036*%
%ADD18R,.051181X.011811*%
%ADD14R,.036X.036*%
%ADD13C,.039402*%
%AMMACRO20*
4,1,26,-.000098,-.028598,
-.000038,-.029284,
.00014,-.029948,
.000431,-.030572,
.000826,-.031136,
.001312,-.031623,
.001876,-.032018,
.0025,-.032309,
.003164,-.032487,
.00385,-.032547,
.004536,-.032487,
.005201,-.032309,
.005824,-.032018,
.006388,-.031623,
.006875,-.031137,
.00727,-.030573,
.007561,-.029949,
.007739,-.029284,
.007799,-.028599,
.007799,-.028598,
.007799,-.001799,
-.000098,.003701,
-.000098,.0325,
-.007902,.0325,
-.007902,-.005299,
-.000098,-.010799,
-.000098,-.028598,
0.0*
%
%ADD20MACRO20*%
%AMMACRO31*
4,1,25,-.007799,-.000402,
0.0,.006299,
0.0,.031902,
.007902,.031902,
.007902,.001201,
0.0,-.0055,
0.0,-.028,
-.000065,-.028677,
-.000247,-.029332,
-.00054,-.029945,
-.000935,-.030498,
-.00142,-.030975,
-.00198,-.031359,
-.002599,-.031641,
-.003257,-.031811,
-.003935,-.031864,
-.004611,-.031799,
-.005266,-.031617,
-.00588,-.031324,
-.006433,-.030929,
-.006909,-.030444,
-.007294,-.029884,
-.007576,-.029265,
-.007746,-.028607,
-.007799,-.028,
-.007799,-.000402,
0.0*
%
%ADD31MACRO31*%
%ADD29R,.023201X.052799*%
%ADD35R,.04724X.098421*%
%AMMACRO32*
4,1,22,-.004,.031902,
-.004,-.028299,
-.003897,-.028966,
-.003679,-.029606,
-.003353,-.030198,
-.00293,-.030724,
-.002422,-.031169,
-.001844,-.031519,
-.001214,-.031763,
-.000551,-.031894,
.000124,-.031908,
.000201,-.031902,
.000899,-.031776,
.001565,-.031531,
.002179,-.031174,
.00272,-.030716,
.003175,-.030171,
.003527,-.029555,
.003767,-.028887,
.003888,-.028188,
.003902,-.027799,
.003902,.031902,
-.004,.031902,
0.0*
%
%ADD32MACRO32*%
%ADD28R,.052799X.023201*%
%ADD38R,.098421X.04724*%
%AMMACRO30*
4,1,25,-.007902,.031902,
0.0,.031902,
0.0,.006299,
.007902,-.000402,
.007902,-.028098,
.007821,-.028782,
.007622,-.029442,
.007312,-.030057,
.0069,-.030609,
.006398,-.031081,
.005822,-.031459,
.005189,-.031731,
.004518,-.031889,
.00383,-.031928,
.003146,-.031847,
.002486,-.031648,
.001871,-.031338,
.001319,-.030926,
.000847,-.030424,
.000469,-.029847,
.000197,-.029214,
.000039,-.028544,
0.0,-.028098,
0.0,-.0055,
-.007902,.001201,
-.007902,.031902,
0.0*
%
%ADD30MACRO30*%
%ADD26R,.080571X.06378*%
%AMMACRO34*
4,1,25,.007902,.028598,
.007832,.029275,
.007645,.029929,
.007347,.03054,
.006948,.031091,
.006459,.031564,
.005895,.031945,
.005274,.032222,
.004614,.032388,
.003936,.032436,
.003259,.032365,
.002605,.032179,
.001993,.031881,
.001443,.031482,
.00097,.030993,
.000589,.030429,
.000311,.029808,
.000146,.029148,
.000098,.028598,
.000098,.010799,
-.007799,.005299,
-.007799,-.0325,
.000098,-.0325,
.000098,-.003701,
.007902,.001799,
.007902,.028598,
0.0*
%
%ADD34MACRO34*%
%ADD36R,.023618X.066929*%
%ADD37R,.066929X.023618*%
G75*
%LPD*%
G75*
G36*
G01X6103Y91756D02*
X6220Y91750D01*
X6338D01*
X6456Y91756D01*
X6573Y91766D01*
X6690Y91785D01*
X6805Y91808D01*
X6919Y91837D01*
X7032Y91872D01*
X7142Y91911D01*
X7251Y91958D01*
X7357Y92009D01*
X7460Y92065D01*
X7561Y92126D01*
X7658Y92192D01*
X7752Y92263D01*
X7842Y92340D01*
X7929Y92420D01*
X8011Y92505D01*
X8089Y92592D01*
X8162Y92685D01*
X8231Y92781D01*
X8295Y92879D01*
X8354Y92981D01*
X8408Y93085D01*
X8456Y93194D01*
X8499Y93303D01*
X8537Y93415D01*
X8569Y93528D01*
X8595Y93642D01*
X8615Y93759D01*
X8630Y93876D01*
X8639Y93992D01*
X8642Y94111D01*
Y97261D01*
X8639Y97379D01*
X8630Y97496D01*
X8615Y97613D01*
X8595Y97729D01*
X8569Y97844D01*
X8537Y97957D01*
X8499Y98068D01*
X8456Y98178D01*
X8408Y98285D01*
X8354Y98391D01*
X8295Y98492D01*
X8231Y98591D01*
X8162Y98687D01*
X8089Y98779D01*
X8011Y98866D01*
X7929Y98952D01*
X7842Y99032D01*
X7752Y99108D01*
X7658Y99179D01*
X7561Y99244D01*
X7460Y99307D01*
X7357Y99363D01*
X7251Y99413D01*
X7142Y99459D01*
X7032Y99500D01*
X6919Y99535D01*
X6805Y99563D01*
X6690Y99587D01*
X6573Y99605D01*
X6456Y99616D01*
X6338Y99622D01*
X6220D01*
X6103Y99616D01*
X5986Y99605D01*
X5869Y99587D01*
X5754Y99563D01*
X5640Y99535D01*
X5527Y99500D01*
X5416Y99459D01*
X5308Y99413D01*
X5202Y99363D01*
X5098Y99307D01*
X4998Y99244D01*
X4900Y99179D01*
X4807Y99108D01*
X4716Y99032D01*
X4630Y98952D01*
X4548Y98866D01*
X4470Y98779D01*
X4396Y98687D01*
X4328Y98591D01*
X4264Y98492D01*
X4205Y98391D01*
X4151Y98285D01*
X4103Y98178D01*
X4060Y98068D01*
X4022Y97957D01*
X3990Y97844D01*
X3964Y97729D01*
X3944Y97613D01*
X3929Y97496D01*
X3920Y97379D01*
X3917Y97261D01*
Y94111D01*
X3920Y93992D01*
X3929Y93876D01*
X3944Y93759D01*
X3964Y93642D01*
X3990Y93528D01*
X4022Y93415D01*
X4060Y93303D01*
X4103Y93194D01*
X4151Y93085D01*
X4205Y92981D01*
X4264Y92879D01*
X4328Y92781D01*
X4396Y92685D01*
X4470Y92592D01*
X4548Y92505D01*
X4630Y92420D01*
X4716Y92340D01*
X4807Y92263D01*
X4900Y92192D01*
X4998Y92126D01*
X5098Y92065D01*
X5202Y92009D01*
X5308Y91958D01*
X5416Y91911D01*
X5527Y91872D01*
X5640Y91837D01*
X5754Y91808D01*
X5869Y91785D01*
X5986Y91766D01*
X6103Y91756D01*
G37*
G36*
G01Y108606D02*
X6220Y108600D01*
X6338D01*
X6456Y108606D01*
X6573Y108616D01*
X6690Y108635D01*
X6805Y108658D01*
X6919Y108687D01*
X7032Y108722D01*
X7142Y108761D01*
X7251Y108808D01*
X7357Y108859D01*
X7460Y108915D01*
X7561Y108977D01*
X7658Y109042D01*
X7752Y109113D01*
X7842Y109190D01*
X7929Y109270D01*
X8011Y109354D01*
X8089Y109442D01*
X8162Y109535D01*
X8231Y109631D01*
X8295Y109729D01*
X8354Y109831D01*
X8408Y109935D01*
X8456Y110044D01*
X8499Y110153D01*
X8537Y110265D01*
X8569Y110378D01*
X8595Y110492D01*
X8615Y110609D01*
X8630Y110726D01*
X8639Y110842D01*
X8642Y110961D01*
Y113322D01*
X8639Y113441D01*
X8630Y113559D01*
X8615Y113674D01*
X8595Y113791D01*
X8569Y113906D01*
X8537Y114020D01*
X8499Y114131D01*
X8456Y114241D01*
X8408Y114348D01*
X8354Y114453D01*
X8295Y114555D01*
X8231Y114654D01*
X8162Y114750D01*
X8089Y114842D01*
X8011Y114930D01*
X7929Y115013D01*
X7842Y115094D01*
X7752Y115170D01*
X7658Y115241D01*
X7561Y115308D01*
X7460Y115368D01*
X7357Y115424D01*
X7251Y115477D01*
X7142Y115522D01*
X7032Y115563D01*
X6919Y115596D01*
X6805Y115626D01*
X6690Y115650D01*
X6573Y115666D01*
X6456Y115679D01*
X6338Y115685D01*
X6220D01*
X6103Y115679D01*
X5986Y115666D01*
X5869Y115650D01*
X5754Y115626D01*
X5640Y115596D01*
X5527Y115563D01*
X5416Y115522D01*
X5308Y115477D01*
X5202Y115424D01*
X5098Y115368D01*
X4998Y115308D01*
X4900Y115241D01*
X4807Y115170D01*
X4716Y115094D01*
X4630Y115013D01*
X4548Y114930D01*
X4470Y114842D01*
X4396Y114750D01*
X4328Y114654D01*
X4264Y114555D01*
X4205Y114453D01*
X4151Y114348D01*
X4103Y114241D01*
X4060Y114131D01*
X4022Y114020D01*
X3990Y113906D01*
X3964Y113791D01*
X3944Y113674D01*
X3929Y113559D01*
X3920Y113441D01*
X3917Y113322D01*
Y110961D01*
X3920Y110842D01*
X3929Y110726D01*
X3944Y110609D01*
X3964Y110492D01*
X3990Y110378D01*
X4022Y110265D01*
X4060Y110153D01*
X4103Y110044D01*
X4151Y109935D01*
X4205Y109831D01*
X4264Y109729D01*
X4328Y109631D01*
X4396Y109535D01*
X4470Y109442D01*
X4548Y109354D01*
X4630Y109270D01*
X4716Y109190D01*
X4807Y109113D01*
X4900Y109042D01*
X4998Y108977D01*
X5098Y108915D01*
X5202Y108859D01*
X5308Y108808D01*
X5416Y108761D01*
X5527Y108722D01*
X5640Y108687D01*
X5754Y108658D01*
X5869Y108635D01*
X5986Y108616D01*
X6103Y108606D01*
G37*
G36*
G01X40159Y91756D02*
X40276Y91750D01*
X40394D01*
X40512Y91756D01*
X40629Y91766D01*
X40746Y91785D01*
X40861Y91808D01*
X40975Y91837D01*
X41088Y91872D01*
X41198Y91911D01*
X41307Y91958D01*
X41413Y92009D01*
X41516Y92065D01*
X41617Y92126D01*
X41714Y92192D01*
X41808Y92263D01*
X41898Y92340D01*
X41985Y92420D01*
X42067Y92505D01*
X42145Y92592D01*
X42218Y92685D01*
X42287Y92781D01*
X42351Y92879D01*
X42410Y92981D01*
X42464Y93085D01*
X42512Y93194D01*
X42555Y93303D01*
X42593Y93415D01*
X42625Y93528D01*
X42651Y93642D01*
X42671Y93759D01*
X42686Y93876D01*
X42695Y93992D01*
X42698Y94111D01*
Y97261D01*
X42695Y97379D01*
X42686Y97496D01*
X42671Y97613D01*
X42651Y97729D01*
X42625Y97844D01*
X42593Y97957D01*
X42555Y98068D01*
X42512Y98178D01*
X42464Y98285D01*
X42410Y98391D01*
X42351Y98492D01*
X42287Y98591D01*
X42218Y98687D01*
X42145Y98779D01*
X42067Y98866D01*
X41985Y98952D01*
X41898Y99032D01*
X41808Y99108D01*
X41714Y99179D01*
X41617Y99244D01*
X41516Y99307D01*
X41413Y99363D01*
X41307Y99413D01*
X41198Y99459D01*
X41088Y99500D01*
X40975Y99535D01*
X40861Y99563D01*
X40746Y99587D01*
X40629Y99605D01*
X40512Y99616D01*
X40394Y99622D01*
X40276D01*
X40159Y99616D01*
X40042Y99605D01*
X39925Y99587D01*
X39810Y99563D01*
X39696Y99535D01*
X39583Y99500D01*
X39472Y99459D01*
X39364Y99413D01*
X39258Y99363D01*
X39154Y99307D01*
X39054Y99244D01*
X38956Y99179D01*
X38863Y99108D01*
X38772Y99032D01*
X38686Y98952D01*
X38604Y98866D01*
X38526Y98779D01*
X38452Y98687D01*
X38384Y98591D01*
X38320Y98492D01*
X38261Y98391D01*
X38207Y98285D01*
X38159Y98178D01*
X38116Y98068D01*
X38078Y97957D01*
X38046Y97844D01*
X38020Y97729D01*
X38000Y97613D01*
X37985Y97496D01*
X37976Y97379D01*
X37973Y97261D01*
Y94111D01*
X37976Y93992D01*
X37985Y93876D01*
X38000Y93759D01*
X38020Y93642D01*
X38046Y93528D01*
X38078Y93415D01*
X38116Y93303D01*
X38159Y93194D01*
X38207Y93085D01*
X38261Y92981D01*
X38320Y92879D01*
X38384Y92781D01*
X38452Y92685D01*
X38526Y92592D01*
X38604Y92505D01*
X38686Y92420D01*
X38772Y92340D01*
X38863Y92263D01*
X38956Y92192D01*
X39054Y92126D01*
X39154Y92065D01*
X39258Y92009D01*
X39364Y91958D01*
X39472Y91911D01*
X39583Y91872D01*
X39696Y91837D01*
X39810Y91808D01*
X39925Y91785D01*
X40042Y91766D01*
X40159Y91756D01*
G37*
G36*
G01X49862Y80789D02*
Y79366D01*
X49468Y78973D01*
X48640D01*
X48246Y78579D01*
Y77090D01*
X48640Y76696D01*
X49468D01*
X49862Y76302D01*
Y74880D01*
X49468Y74486D01*
X45502D01*
X45108Y74880D01*
Y80789D01*
X45502Y81183D01*
X49468D01*
X49862Y80789D01*
G37*
G36*
G01X56752D02*
Y79366D01*
X57146Y78973D01*
X57975D01*
X58368Y78579D01*
Y77090D01*
X57975Y76696D01*
X57146D01*
X56752Y76302D01*
Y74880D01*
X57146Y74486D01*
X61112D01*
X61506Y74880D01*
Y80789D01*
X61112Y81183D01*
X57146D01*
X56752Y80789D01*
G37*
G36*
G01X40394Y108600D02*
X40512Y108606D01*
X40629Y108616D01*
X40746Y108635D01*
X40861Y108658D01*
X40975Y108687D01*
X41088Y108722D01*
X41198Y108761D01*
X41307Y108808D01*
X41413Y108859D01*
X41516Y108915D01*
X41617Y108977D01*
X41714Y109042D01*
X41808Y109113D01*
X41898Y109190D01*
X41985Y109270D01*
X42067Y109354D01*
X42145Y109442D01*
X42218Y109535D01*
X42287Y109631D01*
X42351Y109729D01*
X42410Y109831D01*
X42464Y109935D01*
X42512Y110044D01*
X42555Y110153D01*
X42593Y110265D01*
X42625Y110378D01*
X42651Y110492D01*
X42671Y110609D01*
X42686Y110726D01*
X42695Y110842D01*
X42698Y110961D01*
Y113322D01*
X42695Y113441D01*
X42686Y113559D01*
X42671Y113674D01*
X42651Y113791D01*
X42625Y113906D01*
X42593Y114020D01*
X42555Y114131D01*
X42512Y114241D01*
X42464Y114348D01*
X42410Y114453D01*
X42351Y114555D01*
X42287Y114654D01*
X42218Y114750D01*
X42145Y114842D01*
X42067Y114930D01*
X41985Y115013D01*
X41898Y115094D01*
X41808Y115170D01*
X41714Y115241D01*
X41617Y115308D01*
X41516Y115368D01*
X41413Y115424D01*
X41307Y115477D01*
X41198Y115522D01*
X41088Y115563D01*
X40975Y115596D01*
X40861Y115626D01*
X40746Y115650D01*
X40629Y115666D01*
X40512Y115679D01*
X40394Y115685D01*
X40276D01*
X40159Y115679D01*
X40042Y115666D01*
X39925Y115650D01*
X39810Y115626D01*
X39696Y115596D01*
X39583Y115563D01*
X39472Y115522D01*
X39364Y115477D01*
X39258Y115424D01*
X39154Y115368D01*
X39054Y115308D01*
X38956Y115241D01*
X38863Y115170D01*
X38772Y115094D01*
X38686Y115013D01*
X38604Y114930D01*
X38526Y114842D01*
X38452Y114750D01*
X38384Y114654D01*
X38320Y114555D01*
X38261Y114453D01*
X38207Y114348D01*
X38159Y114241D01*
X38116Y114131D01*
X38078Y114020D01*
X38046Y113906D01*
X38020Y113791D01*
X38000Y113674D01*
X37985Y113559D01*
X37976Y113441D01*
X37973Y113322D01*
Y110961D01*
X37976Y110842D01*
X37985Y110726D01*
X38000Y110609D01*
X38020Y110492D01*
X38046Y110378D01*
X38078Y110265D01*
X38116Y110153D01*
X38159Y110044D01*
X38207Y109935D01*
X38261Y109831D01*
X38320Y109729D01*
X38384Y109631D01*
X38452Y109535D01*
X38526Y109442D01*
X38604Y109354D01*
X38686Y109270D01*
X38772Y109190D01*
X38863Y109113D01*
X38956Y109042D01*
X39054Y108977D01*
X39154Y108915D01*
X39258Y108859D01*
X39364Y108808D01*
X39472Y108761D01*
X39583Y108722D01*
X39696Y108687D01*
X39810Y108658D01*
X39925Y108635D01*
X40042Y108616D01*
X40159Y108606D01*
X40276Y108600D01*
X40394D01*
G37*
G36*
G01X11890Y95220D02*
Y90102D01*
X9528D01*
Y95220D01*
X11890D01*
G37*
G36*
G01X17008D02*
Y90102D01*
X15827D01*
Y95220D01*
X17008D01*
G37*
G36*
G01X15039D02*
Y90102D01*
X12677D01*
Y95220D01*
X15039D01*
G37*
G36*
G01X26851D02*
Y90102D01*
X25670D01*
Y95220D01*
X26851D01*
G37*
G36*
G01X37087D02*
Y90102D01*
X34725D01*
Y95220D01*
X37087D01*
G37*
G36*
G01X22914D02*
Y90102D01*
X21733D01*
Y95220D01*
X22914D01*
G37*
G36*
G01X28819D02*
Y90102D01*
X27638D01*
Y95220D01*
X28819D01*
G37*
G36*
G01X18978D02*
Y90102D01*
X17797D01*
Y95220D01*
X18978D01*
G37*
G36*
G01X20945D02*
Y90102D01*
X19764D01*
Y95220D01*
X20945D01*
G37*
G36*
G01X30788D02*
Y90102D01*
X29607D01*
Y95220D01*
X30788D01*
G37*
G36*
G01X24882D02*
Y90102D01*
X23701D01*
Y95220D01*
X24882D01*
G37*
G36*
G01X33937D02*
Y90102D01*
X31575D01*
Y95220D01*
X33937D01*
G37*
G54D10*
X10433Y13307D03*
X15945D03*
X15787Y18976D03*
X10276D03*
X15906Y24921D03*
X10394D03*
X37244Y66260D03*
X37284Y59842D03*
X36522Y82346D03*
X31010D03*
X25529Y82425D03*
X20017D03*
X47598Y34685D03*
X53110D03*
X54252Y59646D03*
X48740D03*
X42756Y66260D03*
X42795Y59842D03*
X66549Y42000D03*
X72060D03*
X70800Y35460D03*
X65288D03*
X77284Y94803D03*
X82795D03*
X116811Y13150D03*
X116693Y7441D03*
X116811Y18898D03*
X118044Y84749D03*
X107402Y84409D03*
X101890D03*
X122323Y13150D03*
X122205Y7441D03*
X122323Y18898D03*
X123556Y84749D03*
G54D20*
X47618Y41978D03*
G54D11*
X9882Y6024D03*
X16182D03*
X24645Y6220D03*
X30945D03*
G54D30*
X113910Y68782D03*
G54D21*
X44458Y41988D03*
G54D12*
X14448Y40276D03*
Y67440D03*
G54D31*
X106810Y68812D03*
G54D13*
X5315Y76024D03*
X5433Y84409D03*
X71511Y47753D03*
X78622Y87480D03*
X84198Y80809D03*
X102008Y25591D03*
X130532Y58942D03*
X135276Y86614D03*
X154370Y33386D03*
X154291Y27126D03*
X154173Y21063D03*
G54D22*
X42468Y50588D03*
G54D32*
X110370Y68812D03*
G54D14*
X31380Y12785D03*
Y20285D03*
G54D23*
X49568Y50558D03*
G54D15*
X23380Y16535D03*
G54D24*
X46008Y50558D03*
G54D33*
X108760Y77392D03*
G54D34*
X111920Y77382D03*
G54D16*
X38494Y29788D03*
X31535Y54528D03*
X31654Y43425D03*
Y48937D03*
X38494Y35300D03*
X31535Y60039D03*
X60794Y41884D03*
Y47396D03*
X131005Y71513D03*
X125528Y71552D03*
X131005Y77025D03*
X125528Y77064D03*
X139279Y94759D03*
Y100271D03*
G54D25*
X51929Y40347D03*
Y52158D03*
X104449Y67212D03*
Y79023D03*
G54D26*
X49388Y89882D03*
X69588D03*
G54D35*
X128779Y5276D03*
X150826D03*
G54D17*
X39134Y43301D03*
Y45269D03*
Y47236D03*
Y49206D03*
X54881Y49205D03*
Y47236D03*
Y45268D03*
Y43299D03*
X117244Y74101D03*
Y72134D03*
Y70164D03*
X101497Y70165D03*
Y72134D03*
Y74102D03*
X117244Y76069D03*
X101497Y76071D03*
G54D36*
X137834Y18661D03*
X133897D03*
X145708D03*
X141771D03*
G54D18*
X25000Y52874D03*
Y50905D03*
X24993Y48929D03*
X25000Y46968D03*
Y60749D03*
Y58779D03*
Y56811D03*
Y54842D03*
G54D27*
X76988Y53434D03*
Y74458D03*
X109882Y32126D03*
Y53150D03*
X137716Y31929D03*
Y52953D03*
G54D37*
X138661Y73937D03*
Y70000D03*
Y81811D03*
Y77874D03*
G54D28*
X98622Y9173D03*
Y12913D03*
Y16654D03*
X107992Y12913D03*
Y9173D03*
Y16654D03*
G54D19*
X44488Y17323D03*
X68110D03*
X100945Y101575D03*
X124567D03*
G54D38*
X152047Y64882D03*
Y86928D03*
G54D29*
X88858Y8622D03*
X85118D03*
X81378D03*
Y17992D03*
X85118D03*
X88858D03*
X88819Y30118D03*
X85079D03*
X81338D03*
Y39488D03*
X85079D03*
X88819D03*
G54D39*
X150984Y108426D03*
Y102126D03*
M02*
