G04 ================== begin FILE IDENTIFICATION RECORD ==================*
G04 Layout Name:  D:/Projects/Mini_Audio/01.Hardware/POWER/PCB/POWER.brd*
G04 Film Name:    SILKBOT*
G04 File Format:  Gerber RS274X*
G04 File Origin:  Cadence Allegro 17.4-S037*
G04 Origin Date:  Thu Feb  1 14:49:59 2024*
G04 *
G04 Layer:  BOARD GEOMETRY/SILKSCREEN_BOTTOM*
G04 Layer:  PACKAGE GEOMETRY/SILKSCREEN_BOTTOM*
G04 Layer:  REF DES/SILKSCREEN_BOTTOM*
G04 Layer:  MANUFACTURING/NO_PROBE_BOTTOM*
G04 *
G04 Offset:    (0.000 0.000)*
G04 Mirror:    No*
G04 Mode:      Positive*
G04 Rotation:  0*
G04 FullContactRelief:  No*
G04 UndefLineWidth:     6.000*
G04 ================== end FILE IDENTIFICATION RECORD ====================*
%FSLAX35Y35*MOIN*%
%IR0*IPPOS*OFA0.00000B0.00000*MIA0B0*SFA1.00000B1.00000*%
%ADD10C,.005*%
%ADD11C,.003902*%
%ADD12C,.00787*%
%ADD13C,.01*%
G75*
%LPD*%
G75*
G36*
G01X126402Y67100D02*
X128720D01*
Y65128D01*
X128604D01*
Y64898D01*
X128489D01*
Y64667D01*
X128374D01*
Y64321D01*
X128259D01*
Y64091D01*
X128143D01*
Y63745D01*
X128028D01*
Y63399D01*
X127912D01*
Y63168D01*
X127797D01*
Y62822D01*
X127682D01*
Y62592D01*
X127567D01*
Y62246D01*
X127451D01*
Y61900D01*
X127336D01*
Y61669D01*
X127221D01*
Y61323D01*
X127105D01*
Y61093D01*
X126990D01*
Y60747D01*
X126875D01*
Y60401D01*
X126760D01*
Y60170D01*
X126644D01*
Y59824D01*
X126529D01*
Y59594D01*
X126414D01*
Y59248D01*
X126298D01*
Y58902D01*
X126183D01*
Y58671D01*
X126068D01*
Y58326D01*
X125952D01*
Y58095D01*
X125837D01*
Y57749D01*
X125722D01*
Y57403D01*
X125607D01*
Y57173D01*
X125491D01*
Y56827D01*
X125376D01*
Y56596D01*
X125261D01*
Y56250D01*
X125145D01*
Y55904D01*
X125030D01*
Y55674D01*
X124915D01*
Y55328D01*
X124799D01*
Y55097D01*
X124684D01*
Y54751D01*
X124569D01*
Y54405D01*
X124454D01*
Y54175D01*
X124338D01*
Y53829D01*
X124223D01*
Y53598D01*
X124108D01*
Y53252D01*
X123992D01*
Y52906D01*
X123877D01*
Y52676D01*
X123762D01*
Y52330D01*
X123646D01*
Y52099D01*
X123531D01*
Y51753D01*
X123416D01*
Y51408D01*
X123301D01*
Y51177D01*
X123185D01*
Y50831D01*
X123070D01*
Y50601D01*
X122955D01*
Y50255D01*
X122839D01*
Y49909D01*
X122724D01*
Y49678D01*
X122609D01*
Y49332D01*
X122493D01*
Y49102D01*
X122378D01*
Y48756D01*
X122263D01*
Y48410D01*
X122148D01*
Y48179D01*
X122032D01*
Y47833D01*
X121917D01*
Y47603D01*
X121802D01*
Y47257D01*
X121686D01*
Y46911D01*
X121571D01*
Y46680D01*
X121456D01*
Y46334D01*
X121340D01*
Y46104D01*
X121225D01*
Y45758D01*
X121110D01*
Y45412D01*
X120995D01*
Y45181D01*
X120879D01*
Y44835D01*
X120764D01*
Y44605D01*
X120649D01*
Y44259D01*
X120533D01*
Y43913D01*
X120418D01*
Y43682D01*
X120303D01*
Y43336D01*
X120187D01*
Y43106D01*
X120072D01*
Y42656D01*
X120291D01*
Y42772D01*
X121790D01*
Y42887D01*
X123289D01*
Y43002D01*
X123762D01*
Y42887D01*
X124223D01*
Y42772D01*
X124454D01*
Y42656D01*
X124569D01*
Y42541D01*
X124799D01*
Y42426D01*
X124915D01*
Y42310D01*
X125030D01*
Y42080D01*
X125145D01*
Y41849D01*
X125261D01*
Y41503D01*
X125376D01*
Y40685D01*
X125261D01*
Y40339D01*
X125145D01*
Y40108D01*
X125030D01*
Y39993D01*
X124915D01*
Y39762D01*
X124799D01*
Y39532D01*
X124684D01*
Y39301D01*
X124569D01*
Y39186D01*
X124454D01*
Y38955D01*
X124338D01*
Y38725D01*
X124223D01*
Y38609D01*
X124108D01*
Y38379D01*
X123992D01*
Y38148D01*
X123877D01*
Y37917D01*
X123762D01*
Y37802D01*
X123646D01*
Y37572D01*
X123531D01*
Y37341D01*
X123416D01*
Y37110D01*
X123301D01*
Y36995D01*
X123185D01*
Y36764D01*
X123070D01*
Y36534D01*
X122955D01*
Y36419D01*
X122839D01*
Y36188D01*
X122724D01*
Y35957D01*
X122609D01*
Y35727D01*
X122493D01*
Y35611D01*
X122378D01*
Y35381D01*
X122263D01*
Y35150D01*
X122148D01*
Y34920D01*
X122032D01*
Y34804D01*
X121917D01*
Y34574D01*
X121802D01*
Y34343D01*
X121686D01*
Y34228D01*
X121571D01*
Y33997D01*
X121456D01*
Y33767D01*
X121340D01*
Y33536D01*
X121225D01*
Y33421D01*
X121110D01*
Y33190D01*
X120995D01*
Y32960D01*
X120879D01*
Y32729D01*
X120764D01*
Y32614D01*
X120649D01*
Y32383D01*
X120533D01*
Y32152D01*
X120418D01*
Y32037D01*
X120303D01*
Y31807D01*
X120187D01*
Y31576D01*
X120072D01*
Y31345D01*
X119957D01*
Y31230D01*
X119842D01*
Y30999D01*
X119726D01*
Y30769D01*
X119611D01*
Y30538D01*
X119496D01*
Y30423D01*
X119380D01*
Y30192D01*
X119265D01*
Y29962D01*
X119150D01*
Y29846D01*
X119034D01*
Y29616D01*
X118919D01*
Y29385D01*
X118804D01*
Y29155D01*
X118689D01*
Y29039D01*
X118573D01*
Y28809D01*
X118458D01*
Y28578D01*
X118343D01*
Y28348D01*
X118227D01*
Y28232D01*
X118112D01*
Y28002D01*
X117997D01*
Y27771D01*
X117881D01*
Y27656D01*
X117766D01*
Y27425D01*
X117651D01*
Y27194D01*
X117536D01*
Y26964D01*
X117420D01*
Y26849D01*
X117305D01*
Y26618D01*
X117190D01*
Y26387D01*
X117074D01*
Y26157D01*
X116959D01*
Y26042D01*
X116844D01*
Y25811D01*
X116728D01*
Y25580D01*
X116613D01*
Y25465D01*
X116498D01*
Y25234D01*
X116383D01*
Y25004D01*
X116267D01*
Y24773D01*
X116152D01*
Y24658D01*
X116037D01*
Y24427D01*
X115921D01*
Y24197D01*
X115806D01*
Y23966D01*
X115691D01*
Y23851D01*
X115575D01*
Y23620D01*
X115460D01*
Y23390D01*
X115345D01*
Y23274D01*
X115230D01*
Y23044D01*
X115114D01*
Y22813D01*
X114999D01*
Y22582D01*
X114884D01*
Y22467D01*
X114768D01*
Y22237D01*
X114653D01*
Y22006D01*
X114538D01*
Y21775D01*
X114422D01*
Y21660D01*
X114307D01*
Y21430D01*
X114192D01*
Y21199D01*
X114077D01*
Y21084D01*
X113961D01*
Y20853D01*
X113846D01*
Y20622D01*
X113731D01*
Y20392D01*
X113615D01*
Y20276D01*
X113500D01*
Y20046D01*
X113385D01*
Y19815D01*
X113269D01*
Y19585D01*
X113154D01*
Y19469D01*
X113039D01*
Y19239D01*
X112924D01*
Y19124D01*
X112808D01*
Y18893D01*
X112693D01*
Y18662D01*
X112578D01*
Y18547D01*
X112462D01*
Y18316D01*
X112347D01*
Y18201D01*
X112232D01*
Y18086D01*
X112116D01*
Y17855D01*
X112001D01*
Y17740D01*
X111886D01*
Y17509D01*
X111771D01*
Y17394D01*
X111655D01*
Y17279D01*
X111540D01*
Y17163D01*
X111425D01*
Y16933D01*
X111309D01*
Y16818D01*
X111194D01*
Y16702D01*
X111079D01*
Y16587D01*
X110963D01*
Y16356D01*
X110848D01*
Y16241D01*
X110733D01*
Y16126D01*
X110618D01*
Y16010D01*
X110502D01*
Y15895D01*
X110387D01*
Y15780D01*
X110272D01*
Y15664D01*
X110156D01*
Y15549D01*
X110041D01*
Y15434D01*
X109926D01*
Y15319D01*
X109811D01*
Y15203D01*
X109695D01*
Y15088D01*
X109580D01*
Y14973D01*
X109465D01*
Y14857D01*
X109349D01*
Y14742D01*
X109234D01*
Y14627D01*
X109119D01*
Y14512D01*
X109003D01*
Y14396D01*
X108888D01*
Y14281D01*
X108773D01*
Y14166D01*
X108657D01*
Y14050D01*
X108542D01*
Y13935D01*
X108427D01*
Y13820D01*
X108312D01*
Y13704D01*
X108081D01*
Y13589D01*
X107966D01*
Y13474D01*
X107850D01*
Y13359D01*
X107735D01*
Y13243D01*
X107504D01*
Y13128D01*
X107389D01*
Y13013D01*
X107274D01*
Y12897D01*
X107043D01*
Y12782D01*
X106928D01*
Y12667D01*
X106813D01*
Y12551D01*
X106582D01*
Y12436D01*
X106467D01*
Y12321D01*
X106236D01*
Y12206D01*
X106121D01*
Y12090D01*
X105890D01*
Y11975D01*
X105775D01*
Y11860D01*
X105544D01*
Y11744D01*
X105429D01*
Y11629D01*
X105198D01*
Y11514D01*
X104968D01*
Y11398D01*
X104853D01*
Y11283D01*
X104622D01*
Y11168D01*
X104391D01*
Y11053D01*
X104161D01*
Y10937D01*
X104045D01*
Y10822D01*
X103815D01*
Y10707D01*
X103584D01*
Y10591D01*
X103354D01*
Y10476D01*
X103123D01*
Y10361D01*
X102777D01*
Y10245D01*
X102547D01*
Y10130D01*
X102316D01*
Y10015D01*
X101970D01*
Y9900D01*
X101739D01*
Y9784D01*
X101394D01*
Y9669D01*
X101163D01*
Y9554D01*
X100817D01*
Y9438D01*
X100471D01*
Y9323D01*
X100125D01*
Y9208D01*
X99779D01*
Y9092D01*
X99318D01*
Y8977D01*
X98857D01*
Y8862D01*
X98396D01*
Y8746D01*
X97935D01*
Y8631D01*
X97358D01*
Y8516D01*
X96666D01*
Y8401D01*
X95859D01*
Y8285D01*
X95283D01*
Y8170D01*
X90890D01*
Y8285D01*
X90313D01*
Y8401D01*
X89506D01*
Y8516D01*
X88814D01*
Y8631D01*
X88238D01*
Y8746D01*
X87661D01*
Y8862D01*
X87200D01*
Y8977D01*
X86854D01*
Y9092D01*
X86393D01*
Y9208D01*
X86047D01*
Y9323D01*
X85701D01*
Y9438D01*
X85355D01*
Y9554D01*
X85009D01*
Y9669D01*
X84664D01*
Y9784D01*
X84433D01*
Y9900D01*
X84087D01*
Y10015D01*
X83856D01*
Y10130D01*
X83626D01*
Y10245D01*
X83280D01*
Y10361D01*
X83049D01*
Y10476D01*
X82819D01*
Y10591D01*
X82588D01*
Y10707D01*
X82358D01*
Y10822D01*
X82127D01*
Y10937D01*
X81896D01*
Y11053D01*
X81781D01*
Y11168D01*
X81550D01*
Y11283D01*
X81320D01*
Y11398D01*
X81089D01*
Y11514D01*
X80974D01*
Y11629D01*
X80743D01*
Y11744D01*
X80628D01*
Y11860D01*
X80397D01*
Y11975D01*
X80167D01*
Y12090D01*
X80052D01*
Y12206D01*
X79821D01*
Y12321D01*
X79706D01*
Y12436D01*
X79590D01*
Y12551D01*
X79360D01*
Y12667D01*
X79244D01*
Y12782D01*
X79014D01*
Y12897D01*
X78899D01*
Y13013D01*
X78783D01*
Y13128D01*
X78668D01*
Y13243D01*
X78437D01*
Y13359D01*
X78322D01*
Y13474D01*
X78207D01*
Y13589D01*
X78092D01*
Y13704D01*
X77861D01*
Y13820D01*
X77746D01*
Y13935D01*
X77630D01*
Y14050D01*
X77515D01*
Y14166D01*
X77400D01*
Y14281D01*
X77284D01*
Y14396D01*
X77169D01*
Y14512D01*
X77054D01*
Y14627D01*
X76938D01*
Y14742D01*
X76823D01*
Y14857D01*
X76708D01*
Y14973D01*
X76593D01*
Y15088D01*
X76477D01*
Y15203D01*
X76362D01*
Y15319D01*
X76247D01*
Y15434D01*
X76131D01*
Y15549D01*
X76016D01*
Y15664D01*
X75901D01*
Y15780D01*
X75785D01*
Y15895D01*
X75670D01*
Y16010D01*
X75555D01*
Y16126D01*
X75440D01*
Y16241D01*
X75324D01*
Y16356D01*
X75209D01*
Y16587D01*
X75094D01*
Y16702D01*
X74978D01*
Y16818D01*
X74863D01*
Y16933D01*
X74748D01*
Y17163D01*
X74632D01*
Y17279D01*
X74517D01*
Y17394D01*
X74402D01*
Y17509D01*
X74287D01*
Y17740D01*
X74171D01*
Y17855D01*
X74056D01*
Y18086D01*
X73941D01*
Y18201D01*
X73825D01*
Y18316D01*
X73710D01*
Y18547D01*
X73595D01*
Y18662D01*
X73479D01*
Y18893D01*
X73364D01*
Y19124D01*
X73249D01*
Y19239D01*
X73134D01*
Y19469D01*
X73018D01*
Y19585D01*
X72903D01*
Y19815D01*
X72788D01*
Y20046D01*
X72672D01*
Y20276D01*
X72557D01*
Y20392D01*
X72442D01*
Y20622D01*
X72326D01*
Y20853D01*
X72211D01*
Y21084D01*
X72096D01*
Y21314D01*
X71981D01*
Y21545D01*
X71865D01*
Y21775D01*
X71750D01*
Y22121D01*
X71635D01*
Y22352D01*
X71519D01*
Y22582D01*
X71404D01*
Y22928D01*
X71289D01*
Y23159D01*
X71173D01*
Y23505D01*
X71058D01*
Y23851D01*
X70943D01*
Y24197D01*
X70828D01*
Y24543D01*
X70712D01*
Y24888D01*
X70597D01*
Y25350D01*
X70482D01*
Y25696D01*
X70366D01*
Y26157D01*
X70251D01*
Y26733D01*
X70136D01*
Y27310D01*
X70021D01*
Y28002D01*
X69905D01*
Y28809D01*
X69790D01*
Y29385D01*
X69675D01*
Y33778D01*
X69790D01*
Y34355D01*
X69905D01*
Y35162D01*
X70021D01*
Y35854D01*
X70136D01*
Y36430D01*
X70251D01*
Y36891D01*
X70366D01*
Y37468D01*
X70482D01*
Y37814D01*
X70597D01*
Y38275D01*
X70712D01*
Y38621D01*
X70828D01*
Y38967D01*
X70943D01*
Y39312D01*
X71058D01*
Y39658D01*
X71173D01*
Y39889D01*
X71289D01*
Y40235D01*
X71404D01*
Y40581D01*
X71519D01*
Y40811D01*
X71635D01*
Y41042D01*
X71750D01*
Y41273D01*
X71865D01*
Y41618D01*
X71981D01*
Y41849D01*
X72096D01*
Y42080D01*
X72211D01*
Y42310D01*
X72326D01*
Y42541D01*
X72442D01*
Y42656D01*
X72557D01*
Y42887D01*
X72672D01*
Y43117D01*
X72788D01*
Y43348D01*
X72903D01*
Y43463D01*
X73018D01*
Y43694D01*
X73134D01*
Y43925D01*
X73249D01*
Y44040D01*
X73364D01*
Y44270D01*
X73479D01*
Y44386D01*
X73595D01*
Y44616D01*
X73710D01*
Y44732D01*
X73825D01*
Y44962D01*
X73941D01*
Y45078D01*
X74056D01*
Y45308D01*
X74171D01*
Y45424D01*
X74287D01*
Y45539D01*
X74402D01*
Y45769D01*
X74517D01*
Y45885D01*
X74632D01*
Y46000D01*
X74748D01*
Y46230D01*
X74863D01*
Y46346D01*
X74978D01*
Y46461D01*
X75094D01*
Y46576D01*
X75209D01*
Y46692D01*
X75324D01*
Y46922D01*
X75440D01*
Y47038D01*
X75555D01*
Y47153D01*
X75670D01*
Y47268D01*
X75785D01*
Y47384D01*
X75901D01*
Y47499D01*
X76016D01*
Y47614D01*
X76131D01*
Y47729D01*
X76247D01*
Y47845D01*
X76362D01*
Y47960D01*
X76477D01*
Y48075D01*
X76593D01*
Y48191D01*
X76708D01*
Y48306D01*
X76823D01*
Y48421D01*
X76938D01*
Y48537D01*
X77054D01*
Y48652D01*
X77169D01*
Y48767D01*
X77284D01*
Y48882D01*
X77400D01*
Y48998D01*
X77515D01*
Y49113D01*
X77630D01*
Y49228D01*
X77746D01*
Y49344D01*
X77976D01*
Y49459D01*
X78092D01*
Y49574D01*
X78207D01*
Y49690D01*
X78322D01*
Y49805D01*
X78437D01*
Y49920D01*
X78668D01*
Y50035D01*
X78783D01*
Y50151D01*
X78899D01*
Y50266D01*
X79129D01*
Y50381D01*
X79244D01*
Y50497D01*
X79360D01*
Y50612D01*
X79590D01*
Y50727D01*
X79706D01*
Y50842D01*
X79936D01*
Y50958D01*
X80052D01*
Y51073D01*
X80282D01*
Y51188D01*
X80397D01*
Y51304D01*
X80628D01*
Y51419D01*
X80743D01*
Y51534D01*
X80974D01*
Y51650D01*
X81205D01*
Y51765D01*
X81320D01*
Y51880D01*
X81550D01*
Y51996D01*
X81781D01*
Y52111D01*
X82012D01*
Y52226D01*
X82127D01*
Y52341D01*
X82358D01*
Y52457D01*
X82588D01*
Y52572D01*
X82703D01*
Y52687D01*
X82934D01*
Y52803D01*
X83165D01*
Y52918D01*
X83395D01*
Y53033D01*
X83511D01*
Y53149D01*
X83741D01*
Y53264D01*
X83972D01*
Y53379D01*
X84202D01*
Y53494D01*
X84318D01*
Y53610D01*
X84548D01*
Y53725D01*
X84779D01*
Y53840D01*
X84894D01*
Y53956D01*
X85125D01*
Y54071D01*
X85355D01*
Y54186D01*
X85586D01*
Y54302D01*
X85701D01*
Y54417D01*
X85932D01*
Y54532D01*
X86162D01*
Y54648D01*
X86393D01*
Y54763D01*
X86508D01*
Y54878D01*
X86739D01*
Y54993D01*
X86970D01*
Y55109D01*
X87085D01*
Y55224D01*
X87315D01*
Y55339D01*
X87546D01*
Y55455D01*
X87777D01*
Y55570D01*
X87892D01*
Y55685D01*
X88123D01*
Y55800D01*
X88353D01*
Y55916D01*
X88584D01*
Y56031D01*
X88699D01*
Y56146D01*
X88930D01*
Y56262D01*
X89160D01*
Y56377D01*
X89276D01*
Y56492D01*
X89506D01*
Y56608D01*
X89737D01*
Y56723D01*
X89967D01*
Y56838D01*
X90083D01*
Y56953D01*
X90313D01*
Y57069D01*
X90544D01*
Y57184D01*
X90659D01*
Y57299D01*
X90890D01*
Y57415D01*
X91120D01*
Y57530D01*
X91351D01*
Y57645D01*
X91466D01*
Y57761D01*
X91697D01*
Y57876D01*
X91927D01*
Y57991D01*
X92158D01*
Y58106D01*
X92273D01*
Y58222D01*
X92504D01*
Y58337D01*
X92735D01*
Y58452D01*
X92850D01*
Y58568D01*
X93080D01*
Y58683D01*
X93311D01*
Y58798D01*
X93542D01*
Y58914D01*
X93657D01*
Y59029D01*
X93888D01*
Y59144D01*
X94118D01*
Y59259D01*
X94349D01*
Y59375D01*
X94464D01*
Y59490D01*
X94695D01*
Y59605D01*
X94925D01*
Y59721D01*
X95041D01*
Y59836D01*
X95271D01*
Y59951D01*
X95502D01*
Y60066D01*
X95732D01*
Y60182D01*
X95848D01*
Y60297D01*
X96078D01*
Y60412D01*
X96309D01*
Y60528D01*
X96540D01*
Y60643D01*
X96655D01*
Y60758D01*
X96885D01*
Y60874D01*
X97116D01*
Y60989D01*
X97231D01*
Y61104D01*
X97462D01*
Y61220D01*
X97692D01*
Y61335D01*
X97923D01*
Y61450D01*
X98038D01*
Y61565D01*
X98269D01*
Y61681D01*
X98500D01*
Y61796D01*
X98615D01*
Y61911D01*
X98845D01*
Y62027D01*
X99076D01*
Y62142D01*
X99307D01*
Y62257D01*
X99422D01*
Y62373D01*
X99653D01*
Y62488D01*
X99883D01*
Y62603D01*
X100114D01*
Y62718D01*
X100229D01*
Y62834D01*
X100460D01*
Y62949D01*
X100690D01*
Y63064D01*
X100806D01*
Y63180D01*
X101036D01*
Y63295D01*
X101267D01*
Y63410D01*
X101497D01*
Y63526D01*
X101613D01*
Y63641D01*
X101843D01*
Y63756D01*
X102189D01*
Y63871D01*
X103008D01*
Y63756D01*
X103354D01*
Y63641D01*
X103584D01*
Y63526D01*
X103700D01*
Y63410D01*
X103930D01*
Y63295D01*
X104045D01*
Y63064D01*
X104161D01*
Y62949D01*
X104276D01*
Y62718D01*
X104391D01*
Y62257D01*
X104507D01*
Y61785D01*
X104391D01*
Y60286D01*
X104276D01*
Y58787D01*
X104161D01*
Y58568D01*
X104610D01*
Y58683D01*
X104841D01*
Y58798D01*
X105187D01*
Y58914D01*
X105418D01*
Y59029D01*
X105763D01*
Y59144D01*
X106109D01*
Y59259D01*
X106340D01*
Y59375D01*
X106686D01*
Y59490D01*
X106916D01*
Y59605D01*
X107262D01*
Y59721D01*
X107608D01*
Y59836D01*
X107839D01*
Y59951D01*
X108185D01*
Y60066D01*
X108415D01*
Y60182D01*
X108761D01*
Y60297D01*
X109107D01*
Y60412D01*
X109338D01*
Y60528D01*
X109684D01*
Y60643D01*
X109914D01*
Y60758D01*
X110260D01*
Y60874D01*
X110606D01*
Y60989D01*
X110837D01*
Y61104D01*
X111183D01*
Y61220D01*
X111413D01*
Y61335D01*
X111759D01*
Y61450D01*
X112105D01*
Y61565D01*
X112336D01*
Y61681D01*
X112681D01*
Y61796D01*
X112912D01*
Y61911D01*
X113258D01*
Y62027D01*
X113604D01*
Y62142D01*
X113834D01*
Y62257D01*
X114180D01*
Y62373D01*
X114411D01*
Y62488D01*
X114757D01*
Y62603D01*
X115103D01*
Y62718D01*
X115333D01*
Y62834D01*
X115679D01*
Y62949D01*
X115910D01*
Y63064D01*
X116256D01*
Y63180D01*
X116602D01*
Y63295D01*
X116832D01*
Y63410D01*
X117178D01*
Y63526D01*
X117409D01*
Y63641D01*
X117755D01*
Y63756D01*
X118101D01*
Y63871D01*
X118331D01*
Y63987D01*
X118677D01*
Y64102D01*
X119023D01*
Y64217D01*
X119254D01*
Y64333D01*
X119599D01*
Y64448D01*
X119830D01*
Y64563D01*
X120176D01*
Y64679D01*
X120522D01*
Y64794D01*
X120752D01*
Y64909D01*
X121098D01*
Y65025D01*
X121329D01*
Y65140D01*
X121675D01*
Y65255D01*
X121905D01*
Y65370D01*
X122251D01*
Y65486D01*
X122597D01*
Y65601D01*
X122828D01*
Y65716D01*
X123174D01*
Y65832D01*
X123404D01*
Y65947D01*
X123750D01*
Y66062D01*
X124096D01*
Y66178D01*
X124327D01*
Y66293D01*
X124673D01*
Y66408D01*
X124903D01*
Y66523D01*
X125249D01*
Y66639D01*
X125595D01*
Y66754D01*
X125826D01*
Y66869D01*
X126172D01*
Y66985D01*
X126402D01*
Y67100D01*
G37*
%LPC*%
G75*
G36*
G01X90325Y44951D02*
Y45066D01*
X93311D01*
Y44951D01*
X94118D01*
Y44835D01*
X94810D01*
Y44720D01*
X95271D01*
Y44605D01*
X95732D01*
Y44490D01*
X96194D01*
Y44374D01*
X96540D01*
Y44259D01*
X96885D01*
Y44144D01*
X97116D01*
Y44028D01*
X97462D01*
Y43913D01*
X97692D01*
Y43798D01*
X97923D01*
Y43682D01*
X98154D01*
Y43567D01*
X98384D01*
Y43452D01*
X98615D01*
Y43336D01*
X98845D01*
Y43221D01*
X99076D01*
Y43106D01*
X99307D01*
Y42991D01*
X99422D01*
Y42875D01*
X99653D01*
Y42760D01*
X99883D01*
Y42645D01*
X99998D01*
Y42529D01*
X100229D01*
Y42414D01*
X100344D01*
Y42299D01*
X100460D01*
Y42184D01*
X100690D01*
Y42068D01*
X100806D01*
Y41953D01*
X100921D01*
Y41838D01*
X101151D01*
Y41722D01*
X101267D01*
Y41607D01*
X101382D01*
Y41492D01*
X101497D01*
Y41376D01*
X101613D01*
Y41261D01*
X101728D01*
Y41146D01*
X101959D01*
Y41031D01*
X102074D01*
Y40915D01*
X102189D01*
Y40800D01*
X102304D01*
Y40685D01*
X102420D01*
Y40569D01*
X102535D01*
Y40454D01*
X102650D01*
Y40223D01*
X102766D01*
Y40108D01*
X102881D01*
Y39993D01*
X102996D01*
Y39878D01*
X103112D01*
Y39762D01*
X103227D01*
Y39647D01*
X103342D01*
Y39416D01*
X103457D01*
Y39301D01*
X103573D01*
Y39186D01*
X103688D01*
Y38955D01*
X103803D01*
Y38840D01*
X103919D01*
Y38725D01*
X104034D01*
Y38494D01*
X104149D01*
Y38379D01*
X104265D01*
Y38148D01*
X104380D01*
Y37917D01*
X104495D01*
Y37802D01*
X104610D01*
Y37572D01*
X104726D01*
Y37341D01*
X104841D01*
Y37110D01*
X104956D01*
Y36880D01*
X105072D01*
Y36649D01*
X105187D01*
Y36419D01*
X105302D01*
Y36188D01*
X105418D01*
Y35957D01*
X105533D01*
Y35611D01*
X105648D01*
Y35266D01*
X105763D01*
Y35035D01*
X105879D01*
Y34574D01*
X105994D01*
Y34228D01*
X106109D01*
Y33767D01*
X106225D01*
Y33305D01*
X106340D01*
Y32614D01*
X106455D01*
Y31691D01*
X106571D01*
Y28936D01*
X106455D01*
Y28013D01*
X106340D01*
Y27321D01*
X106225D01*
Y26860D01*
X106109D01*
Y26399D01*
X105994D01*
Y26053D01*
X105879D01*
Y25592D01*
X105763D01*
Y25361D01*
X105648D01*
Y25015D01*
X105533D01*
Y24669D01*
X105418D01*
Y24439D01*
X105302D01*
Y24208D01*
X105187D01*
Y23978D01*
X105072D01*
Y23747D01*
X104956D01*
Y23516D01*
X104841D01*
Y23286D01*
X104726D01*
Y23055D01*
X104610D01*
Y22825D01*
X104495D01*
Y22709D01*
X104380D01*
Y22479D01*
X104265D01*
Y22248D01*
X104149D01*
Y22133D01*
X104034D01*
Y21902D01*
X103919D01*
Y21787D01*
X103803D01*
Y21672D01*
X103688D01*
Y21441D01*
X103573D01*
Y21326D01*
X103457D01*
Y21210D01*
X103342D01*
Y20980D01*
X103227D01*
Y20865D01*
X103112D01*
Y20749D01*
X102996D01*
Y20634D01*
X102881D01*
Y20519D01*
X102766D01*
Y20403D01*
X102650D01*
Y20173D01*
X102535D01*
Y20057D01*
X102420D01*
Y19942D01*
X102304D01*
Y19827D01*
X102189D01*
Y19712D01*
X102074D01*
Y19596D01*
X101959D01*
Y19481D01*
X101728D01*
Y19366D01*
X101613D01*
Y19250D01*
X101497D01*
Y19135D01*
X101382D01*
Y19020D01*
X101267D01*
Y18904D01*
X101151D01*
Y18789D01*
X100921D01*
Y18674D01*
X100806D01*
Y18559D01*
X100690D01*
Y18443D01*
X100460D01*
Y18328D01*
X100344D01*
Y18213D01*
X100229D01*
Y18097D01*
X99998D01*
Y17982D01*
X99883D01*
Y17867D01*
X99653D01*
Y17751D01*
X99422D01*
Y17636D01*
X99307D01*
Y17521D01*
X99076D01*
Y17406D01*
X98845D01*
Y17290D01*
X98615D01*
Y17175D01*
X98384D01*
Y17060D01*
X98154D01*
Y16944D01*
X97923D01*
Y16829D01*
X97692D01*
Y16714D01*
X97462D01*
Y16598D01*
X97116D01*
Y16483D01*
X96770D01*
Y16368D01*
X96540D01*
Y16252D01*
X96078D01*
Y16137D01*
X95732D01*
Y16022D01*
X95271D01*
Y15907D01*
X94810D01*
Y15791D01*
X94118D01*
Y15676D01*
X93196D01*
Y15561D01*
X90440D01*
Y15676D01*
X89518D01*
Y15791D01*
X88826D01*
Y15907D01*
X88365D01*
Y16022D01*
X87903D01*
Y16137D01*
X87558D01*
Y16252D01*
X87096D01*
Y16368D01*
X86866D01*
Y16483D01*
X86520D01*
Y16598D01*
X86174D01*
Y16714D01*
X85943D01*
Y16829D01*
X85713D01*
Y16944D01*
X85482D01*
Y17060D01*
X85252D01*
Y17175D01*
X85021D01*
Y17290D01*
X84790D01*
Y17406D01*
X84560D01*
Y17521D01*
X84329D01*
Y17636D01*
X84214D01*
Y17751D01*
X83983D01*
Y17867D01*
X83753D01*
Y17982D01*
X83637D01*
Y18097D01*
X83407D01*
Y18213D01*
X83292D01*
Y18328D01*
X83176D01*
Y18443D01*
X82946D01*
Y18559D01*
X82830D01*
Y18674D01*
X82715D01*
Y18789D01*
X82484D01*
Y18904D01*
X82369D01*
Y19020D01*
X82254D01*
Y19135D01*
X82138D01*
Y19250D01*
X82023D01*
Y19366D01*
X81908D01*
Y19481D01*
X81677D01*
Y19596D01*
X81562D01*
Y19712D01*
X81447D01*
Y19827D01*
X81331D01*
Y19942D01*
X81216D01*
Y20057D01*
X81101D01*
Y20173D01*
X80986D01*
Y20403D01*
X80870D01*
Y20519D01*
X80755D01*
Y20634D01*
X80640D01*
Y20749D01*
X80524D01*
Y20865D01*
X80409D01*
Y20980D01*
X80294D01*
Y21210D01*
X80178D01*
Y21326D01*
X80063D01*
Y21441D01*
X79948D01*
Y21672D01*
X79832D01*
Y21787D01*
X79717D01*
Y21902D01*
X79602D01*
Y22133D01*
X79487D01*
Y22248D01*
X79371D01*
Y22479D01*
X79256D01*
Y22709D01*
X79141D01*
Y22825D01*
X79025D01*
Y23055D01*
X78910D01*
Y23286D01*
X78795D01*
Y23516D01*
X78679D01*
Y23747D01*
X78564D01*
Y23978D01*
X78449D01*
Y24208D01*
X78334D01*
Y24439D01*
X78218D01*
Y24669D01*
X78103D01*
Y25015D01*
X77988D01*
Y25246D01*
X77872D01*
Y25592D01*
X77757D01*
Y25938D01*
X77642D01*
Y26399D01*
X77526D01*
Y26860D01*
X77411D01*
Y27321D01*
X77296D01*
Y28013D01*
X77180D01*
Y28820D01*
X77065D01*
Y31807D01*
X77180D01*
Y32614D01*
X77296D01*
Y33305D01*
X77411D01*
Y33767D01*
X77526D01*
Y34228D01*
X77642D01*
Y34689D01*
X77757D01*
Y35035D01*
X77872D01*
Y35381D01*
X77988D01*
Y35611D01*
X78103D01*
Y35957D01*
X78218D01*
Y36188D01*
X78334D01*
Y36419D01*
X78449D01*
Y36649D01*
X78564D01*
Y36880D01*
X78679D01*
Y37110D01*
X78795D01*
Y37341D01*
X78910D01*
Y37572D01*
X79025D01*
Y37802D01*
X79141D01*
Y37917D01*
X79256D01*
Y38148D01*
X79371D01*
Y38379D01*
X79487D01*
Y38494D01*
X79602D01*
Y38725D01*
X79717D01*
Y38840D01*
X79832D01*
Y38955D01*
X79948D01*
Y39186D01*
X80063D01*
Y39301D01*
X80178D01*
Y39416D01*
X80294D01*
Y39647D01*
X80409D01*
Y39762D01*
X80524D01*
Y39878D01*
X80640D01*
Y39993D01*
X80755D01*
Y40108D01*
X80870D01*
Y40223D01*
X80986D01*
Y40454D01*
X81101D01*
Y40569D01*
X81216D01*
Y40685D01*
X81331D01*
Y40800D01*
X81447D01*
Y40915D01*
X81562D01*
Y41031D01*
X81677D01*
Y41146D01*
X81908D01*
Y41261D01*
X82023D01*
Y41376D01*
X82138D01*
Y41492D01*
X82254D01*
Y41607D01*
X82369D01*
Y41722D01*
X82484D01*
Y41838D01*
X82715D01*
Y41953D01*
X82830D01*
Y42068D01*
X82946D01*
Y42184D01*
X83176D01*
Y42299D01*
X83292D01*
Y42414D01*
X83407D01*
Y42529D01*
X83637D01*
Y42645D01*
X83753D01*
Y42760D01*
X83983D01*
Y42875D01*
X84099D01*
Y42991D01*
X84329D01*
Y43106D01*
X84560D01*
Y43221D01*
X84790D01*
Y43336D01*
X85021D01*
Y43452D01*
X85252D01*
Y43567D01*
X85482D01*
Y43682D01*
X85713D01*
Y43798D01*
X85943D01*
Y43913D01*
X86174D01*
Y44028D01*
X86520D01*
Y44144D01*
X86750D01*
Y44259D01*
X87096D01*
Y44374D01*
X87442D01*
Y44490D01*
X87903D01*
Y44605D01*
X88365D01*
Y44720D01*
X88826D01*
Y44835D01*
X89518D01*
Y44951D01*
X90325D01*
G37*
%LPD*%
G75*
G36*
G01X93196Y26630D02*
X94130D01*
Y26514D01*
X94476D01*
Y26399D01*
X94591D01*
Y26284D01*
X94821D01*
Y26168D01*
X94937D01*
Y26053D01*
X95052D01*
Y25938D01*
X95167D01*
Y25707D01*
X95283D01*
Y25477D01*
X95398D01*
Y25131D01*
X95513D01*
Y24427D01*
X95398D01*
Y24081D01*
X95283D01*
Y23851D01*
X95167D01*
Y23620D01*
X95052D01*
Y23505D01*
X94937D01*
Y23390D01*
X94821D01*
Y23274D01*
X94591D01*
Y23159D01*
X94360D01*
Y23044D01*
X94014D01*
Y22928D01*
X93311D01*
Y23044D01*
X92965D01*
Y23159D01*
X92735D01*
Y23274D01*
X92504D01*
Y23390D01*
X92389D01*
Y23505D01*
X92273D01*
Y23620D01*
X92158D01*
Y23851D01*
X92043D01*
Y23966D01*
X91927D01*
Y24427D01*
X91812D01*
Y25246D01*
X91927D01*
Y25592D01*
X92043D01*
Y25707D01*
X92158D01*
Y25938D01*
X92273D01*
Y26053D01*
X92389D01*
Y26168D01*
X92504D01*
Y26284D01*
X92735D01*
Y26399D01*
X92850D01*
Y26514D01*
X93196D01*
Y26630D01*
G37*
G36*
G01X87546Y37698D02*
X88711D01*
Y37583D01*
X89172D01*
Y37468D01*
X89518D01*
Y37352D01*
X89748D01*
Y37237D01*
X89979D01*
Y37122D01*
X90209D01*
Y37006D01*
X90325D01*
Y36891D01*
X90440D01*
Y36776D01*
X90671D01*
Y36661D01*
X90786D01*
Y36545D01*
X90901D01*
Y36315D01*
X91017D01*
Y36200D01*
X91132D01*
Y36084D01*
X91247D01*
Y35854D01*
X91362D01*
Y35623D01*
X91478D01*
Y35392D01*
X91593D01*
Y35046D01*
X91708D01*
Y34585D01*
X91824D01*
Y33421D01*
X91708D01*
Y32960D01*
X91593D01*
Y32614D01*
X91478D01*
Y32383D01*
X91362D01*
Y32152D01*
X91247D01*
Y31922D01*
X91132D01*
Y31807D01*
X91017D01*
Y31691D01*
X90901D01*
Y31461D01*
X90786D01*
Y31345D01*
X90671D01*
Y31230D01*
X90440D01*
Y31115D01*
X90325D01*
Y30999D01*
X90209D01*
Y30884D01*
X89979D01*
Y30769D01*
X89748D01*
Y30654D01*
X89518D01*
Y30538D01*
X89172D01*
Y30423D01*
X88711D01*
Y30308D01*
X87546D01*
Y30423D01*
X87085D01*
Y30538D01*
X86739D01*
Y30654D01*
X86508D01*
Y30769D01*
X86278D01*
Y30884D01*
X86047D01*
Y30999D01*
X85932D01*
Y31115D01*
X85817D01*
Y31230D01*
X85586D01*
Y31345D01*
X85471D01*
Y31461D01*
X85355D01*
Y31691D01*
X85240D01*
Y31807D01*
X85125D01*
Y31922D01*
X85009D01*
Y32152D01*
X84894D01*
Y32383D01*
X84779D01*
Y32614D01*
X84664D01*
Y32960D01*
X84548D01*
Y33421D01*
X84433D01*
Y34585D01*
X84548D01*
Y35046D01*
X84664D01*
Y35392D01*
X84779D01*
Y35623D01*
X84894D01*
Y35854D01*
X85009D01*
Y36084D01*
X85125D01*
Y36200D01*
X85240D01*
Y36315D01*
X85355D01*
Y36545D01*
X85471D01*
Y36661D01*
X85586D01*
Y36776D01*
X85817D01*
Y36891D01*
X85932D01*
Y37006D01*
X86047D01*
Y37122D01*
X86278D01*
Y37237D01*
X86508D01*
Y37352D01*
X86739D01*
Y37468D01*
X87085D01*
Y37583D01*
X87546D01*
Y37698D01*
G37*
G54D10*
G01X36630Y101680D02*
Y96960D01*
X46870D01*
Y101680D01*
X36630D01*
G01X54609Y9923D02*
X51849D01*
Y14643D01*
X54609D01*
G01X54648Y15356D02*
X51888D01*
Y20076D01*
X54648D01*
G01X54609Y20789D02*
X51848D01*
Y25509D01*
X54609D01*
G01X54845Y37522D02*
X52085D01*
Y42242D01*
X54845D01*
G01X54845Y48270D02*
X52085D01*
Y52990D01*
X54845D01*
G01X54884Y42876D02*
X52124D01*
Y47596D01*
X54884D01*
G01X59329Y9923D02*
X62089D01*
Y14643D01*
X59329D01*
G01X59368Y15356D02*
X62128D01*
Y20076D01*
X59368D01*
G01X59329Y20789D02*
X62089D01*
Y25509D01*
X59329D01*
G01X59565Y37522D02*
X62325D01*
Y42242D01*
X59565D01*
G01Y48270D02*
X62325D01*
Y52990D01*
X59565D01*
G01X59604Y42876D02*
X62364D01*
Y47596D01*
X59604D01*
G01X84029Y88172D02*
X80692Y91510D01*
X73451Y84269D01*
X76789Y80932D01*
X84029Y88172D01*
G01X90774Y66946D02*
X94111Y63609D01*
X101352Y70850D01*
X98015Y74187D01*
X90774Y66946D01*
G54D11*
G01X56579Y10704D02*
Y13863D01*
G01X57359Y10704D02*
Y13863D01*
G01X56618Y16137D02*
Y19296D01*
G01X57398Y16137D02*
Y19296D01*
G01X56579Y21570D02*
Y24730D01*
G01X57359Y21570D02*
Y24730D01*
G01X56815Y38302D02*
Y41462D01*
G01X57595Y38302D02*
Y41462D01*
G01X56815Y49050D02*
Y52210D01*
G01X57595Y49050D02*
Y52210D01*
G01X56854Y43656D02*
Y46817D01*
G01X57634Y43656D02*
Y46817D01*
G01X42140Y100500D02*
X41360D01*
Y98140D01*
X42140D01*
Y100500D01*
G01X41360D02*
X41750D01*
Y101680D01*
G01X42140Y98140D02*
X41750D01*
Y96960D01*
G01X79299Y85111D02*
X79850Y85662D01*
X78182Y87331D01*
X77630Y86779D01*
X79299Y85111D01*
G01X77630Y86779D02*
X77906Y87055D01*
X77071Y87889D01*
G01X95505Y70008D02*
X94953Y69456D01*
X96621Y67787D01*
X97173Y68339D01*
X95505Y70008D01*
G01X94953Y69456D02*
X95229Y69732D01*
X94394Y70566D01*
G01X97173Y68339D02*
X96897Y68063D01*
X97732Y67229D01*
G01X79850Y85662D02*
X79574Y85386D01*
X80409Y84552D01*
G54D12*
G01X126378Y109055D02*
Y105906D01*
G01D02*
Y105512D01*
G01Y105906D02*
Y105512D01*
G01X128133Y109055D02*
X126378D01*
G01X133464D02*
Y105512D01*
G01Y109055D02*
X131710D01*
G01X130101Y105512D02*
X129741D01*
G01X129995D02*
X129847D01*
G54D13*
G01X132484Y9337D02*
X138976D01*
G01X132484D02*
Y17489D01*
G01Y34270D02*
Y42423D01*
G01D02*
X138976D01*
G01X156500Y9337D02*
Y42423D01*
G01X147095Y9337D02*
X156500D01*
G01X147095Y42423D02*
X156500D01*
M02*
