G04 ================== begin FILE IDENTIFICATION RECORD ==================*
G04 Layout Name:  D:/Projects/Mini_Audio/01.Hardware/POWER/PCB/POWER.brd*
G04 Film Name:    SILKBOT*
G04 File Format:  Gerber RS274X*
G04 File Origin:  Cadence Allegro 17.4-S037*
G04 Origin Date:  Wed Jan 24 15:03:11 2024*
G04 *
G04 Layer:  BOARD GEOMETRY/SILKSCREEN_BOTTOM*
G04 Layer:  PACKAGE GEOMETRY/SILKSCREEN_BOTTOM*
G04 Layer:  REF DES/SILKSCREEN_BOTTOM*
G04 Layer:  MANUFACTURING/NO_PROBE_BOTTOM*
G04 *
G04 Offset:    (0.000 0.000)*
G04 Mirror:    No*
G04 Mode:      Positive*
G04 Rotation:  0*
G04 FullContactRelief:  No*
G04 UndefLineWidth:     6.000*
G04 ================== end FILE IDENTIFICATION RECORD ====================*
%FSLAX35Y35*MOIN*%
%IR0*IPPOS*OFA0.00000B0.00000*MIA0B0*SFA1.00000B1.00000*%
%ADD10C,.005*%
%ADD11C,.003902*%
%ADD12C,.00787*%
G75*
%LPD*%
G75*
G36*
G01X147852Y63590D02*
X150170D01*
Y61618D01*
X150054D01*
Y61388D01*
X149939D01*
Y61157D01*
X149824D01*
Y60811D01*
X149708D01*
Y60581D01*
X149593D01*
Y60235D01*
X149478D01*
Y59889D01*
X149362D01*
Y59658D01*
X149247D01*
Y59312D01*
X149132D01*
Y59082D01*
X149017D01*
Y58736D01*
X148901D01*
Y58390D01*
X148786D01*
Y58159D01*
X148671D01*
Y57813D01*
X148555D01*
Y57583D01*
X148440D01*
Y57237D01*
X148325D01*
Y56891D01*
X148210D01*
Y56660D01*
X148094D01*
Y56314D01*
X147979D01*
Y56084D01*
X147864D01*
Y55738D01*
X147748D01*
Y55392D01*
X147633D01*
Y55161D01*
X147518D01*
Y54816D01*
X147402D01*
Y54585D01*
X147287D01*
Y54239D01*
X147172D01*
Y53893D01*
X147057D01*
Y53663D01*
X146941D01*
Y53317D01*
X146826D01*
Y53086D01*
X146711D01*
Y52740D01*
X146595D01*
Y52394D01*
X146480D01*
Y52164D01*
X146365D01*
Y51818D01*
X146249D01*
Y51587D01*
X146134D01*
Y51241D01*
X146019D01*
Y50895D01*
X145904D01*
Y50665D01*
X145788D01*
Y50319D01*
X145673D01*
Y50088D01*
X145558D01*
Y49742D01*
X145442D01*
Y49396D01*
X145327D01*
Y49166D01*
X145212D01*
Y48820D01*
X145096D01*
Y48589D01*
X144981D01*
Y48243D01*
X144866D01*
Y47898D01*
X144751D01*
Y47667D01*
X144635D01*
Y47321D01*
X144520D01*
Y47090D01*
X144405D01*
Y46745D01*
X144289D01*
Y46399D01*
X144174D01*
Y46168D01*
X144059D01*
Y45822D01*
X143943D01*
Y45592D01*
X143828D01*
Y45246D01*
X143713D01*
Y44900D01*
X143598D01*
Y44669D01*
X143482D01*
Y44323D01*
X143367D01*
Y44093D01*
X143252D01*
Y43747D01*
X143136D01*
Y43401D01*
X143021D01*
Y43170D01*
X142906D01*
Y42824D01*
X142790D01*
Y42594D01*
X142675D01*
Y42248D01*
X142560D01*
Y41902D01*
X142445D01*
Y41671D01*
X142329D01*
Y41325D01*
X142214D01*
Y41095D01*
X142099D01*
Y40749D01*
X141983D01*
Y40403D01*
X141868D01*
Y40172D01*
X141753D01*
Y39826D01*
X141637D01*
Y39596D01*
X141522D01*
Y39146D01*
X141741D01*
Y39262D01*
X143240D01*
Y39377D01*
X144739D01*
Y39492D01*
X145212D01*
Y39377D01*
X145673D01*
Y39262D01*
X145904D01*
Y39146D01*
X146019D01*
Y39031D01*
X146249D01*
Y38916D01*
X146365D01*
Y38800D01*
X146480D01*
Y38570D01*
X146595D01*
Y38339D01*
X146711D01*
Y37993D01*
X146826D01*
Y37175D01*
X146711D01*
Y36829D01*
X146595D01*
Y36598D01*
X146480D01*
Y36483D01*
X146365D01*
Y36252D01*
X146249D01*
Y36022D01*
X146134D01*
Y35791D01*
X146019D01*
Y35676D01*
X145904D01*
Y35445D01*
X145788D01*
Y35215D01*
X145673D01*
Y35099D01*
X145558D01*
Y34869D01*
X145442D01*
Y34638D01*
X145327D01*
Y34407D01*
X145212D01*
Y34292D01*
X145096D01*
Y34062D01*
X144981D01*
Y33831D01*
X144866D01*
Y33600D01*
X144751D01*
Y33485D01*
X144635D01*
Y33254D01*
X144520D01*
Y33024D01*
X144405D01*
Y32909D01*
X144289D01*
Y32678D01*
X144174D01*
Y32447D01*
X144059D01*
Y32217D01*
X143943D01*
Y32101D01*
X143828D01*
Y31871D01*
X143713D01*
Y31640D01*
X143598D01*
Y31410D01*
X143482D01*
Y31294D01*
X143367D01*
Y31064D01*
X143252D01*
Y30833D01*
X143136D01*
Y30718D01*
X143021D01*
Y30487D01*
X142906D01*
Y30257D01*
X142790D01*
Y30026D01*
X142675D01*
Y29911D01*
X142560D01*
Y29680D01*
X142445D01*
Y29450D01*
X142329D01*
Y29219D01*
X142214D01*
Y29104D01*
X142099D01*
Y28873D01*
X141983D01*
Y28643D01*
X141868D01*
Y28527D01*
X141753D01*
Y28297D01*
X141637D01*
Y28066D01*
X141522D01*
Y27835D01*
X141407D01*
Y27720D01*
X141292D01*
Y27489D01*
X141176D01*
Y27259D01*
X141061D01*
Y27028D01*
X140946D01*
Y26913D01*
X140830D01*
Y26682D01*
X140715D01*
Y26452D01*
X140600D01*
Y26336D01*
X140484D01*
Y26106D01*
X140369D01*
Y25875D01*
X140254D01*
Y25645D01*
X140139D01*
Y25529D01*
X140023D01*
Y25299D01*
X139908D01*
Y25068D01*
X139793D01*
Y24838D01*
X139677D01*
Y24722D01*
X139562D01*
Y24492D01*
X139447D01*
Y24261D01*
X139331D01*
Y24146D01*
X139216D01*
Y23915D01*
X139101D01*
Y23684D01*
X138986D01*
Y23454D01*
X138870D01*
Y23339D01*
X138755D01*
Y23108D01*
X138640D01*
Y22877D01*
X138524D01*
Y22647D01*
X138409D01*
Y22532D01*
X138294D01*
Y22301D01*
X138178D01*
Y22070D01*
X138063D01*
Y21955D01*
X137948D01*
Y21724D01*
X137833D01*
Y21494D01*
X137717D01*
Y21263D01*
X137602D01*
Y21148D01*
X137487D01*
Y20917D01*
X137371D01*
Y20687D01*
X137256D01*
Y20456D01*
X137141D01*
Y20341D01*
X137025D01*
Y20110D01*
X136910D01*
Y19880D01*
X136795D01*
Y19764D01*
X136680D01*
Y19534D01*
X136564D01*
Y19303D01*
X136449D01*
Y19072D01*
X136334D01*
Y18957D01*
X136218D01*
Y18727D01*
X136103D01*
Y18496D01*
X135988D01*
Y18265D01*
X135872D01*
Y18150D01*
X135757D01*
Y17920D01*
X135642D01*
Y17689D01*
X135527D01*
Y17574D01*
X135411D01*
Y17343D01*
X135296D01*
Y17112D01*
X135181D01*
Y16882D01*
X135065D01*
Y16766D01*
X134950D01*
Y16536D01*
X134835D01*
Y16305D01*
X134719D01*
Y16075D01*
X134604D01*
Y15959D01*
X134489D01*
Y15729D01*
X134374D01*
Y15614D01*
X134258D01*
Y15383D01*
X134143D01*
Y15152D01*
X134028D01*
Y15037D01*
X133912D01*
Y14806D01*
X133797D01*
Y14691D01*
X133682D01*
Y14576D01*
X133566D01*
Y14345D01*
X133451D01*
Y14230D01*
X133336D01*
Y13999D01*
X133221D01*
Y13884D01*
X133105D01*
Y13769D01*
X132990D01*
Y13653D01*
X132875D01*
Y13423D01*
X132759D01*
Y13308D01*
X132644D01*
Y13192D01*
X132529D01*
Y13077D01*
X132413D01*
Y12846D01*
X132298D01*
Y12731D01*
X132183D01*
Y12616D01*
X132068D01*
Y12500D01*
X131952D01*
Y12385D01*
X131837D01*
Y12270D01*
X131722D01*
Y12154D01*
X131606D01*
Y12039D01*
X131491D01*
Y11924D01*
X131376D01*
Y11809D01*
X131260D01*
Y11693D01*
X131145D01*
Y11578D01*
X131030D01*
Y11463D01*
X130915D01*
Y11347D01*
X130799D01*
Y11232D01*
X130684D01*
Y11117D01*
X130569D01*
Y11002D01*
X130453D01*
Y10886D01*
X130338D01*
Y10771D01*
X130223D01*
Y10656D01*
X130107D01*
Y10540D01*
X129992D01*
Y10425D01*
X129877D01*
Y10310D01*
X129762D01*
Y10194D01*
X129531D01*
Y10079D01*
X129416D01*
Y9964D01*
X129300D01*
Y9848D01*
X129185D01*
Y9733D01*
X128954D01*
Y9618D01*
X128839D01*
Y9503D01*
X128724D01*
Y9387D01*
X128493D01*
Y9272D01*
X128378D01*
Y9157D01*
X128263D01*
Y9041D01*
X128032D01*
Y8926D01*
X127917D01*
Y8811D01*
X127686D01*
Y8696D01*
X127571D01*
Y8580D01*
X127340D01*
Y8465D01*
X127225D01*
Y8350D01*
X126994D01*
Y8234D01*
X126879D01*
Y8119D01*
X126648D01*
Y8004D01*
X126418D01*
Y7888D01*
X126303D01*
Y7773D01*
X126072D01*
Y7658D01*
X125841D01*
Y7542D01*
X125611D01*
Y7427D01*
X125495D01*
Y7312D01*
X125265D01*
Y7197D01*
X125034D01*
Y7081D01*
X124804D01*
Y6966D01*
X124573D01*
Y6851D01*
X124227D01*
Y6735D01*
X123997D01*
Y6620D01*
X123766D01*
Y6505D01*
X123420D01*
Y6390D01*
X123189D01*
Y6274D01*
X122844D01*
Y6159D01*
X122613D01*
Y6044D01*
X122267D01*
Y5928D01*
X121921D01*
Y5813D01*
X121575D01*
Y5698D01*
X121229D01*
Y5582D01*
X120768D01*
Y5467D01*
X120307D01*
Y5352D01*
X119846D01*
Y5236D01*
X119385D01*
Y5121D01*
X118808D01*
Y5006D01*
X118116D01*
Y4891D01*
X117309D01*
Y4775D01*
X116733D01*
Y4660D01*
X112340D01*
Y4775D01*
X111763D01*
Y4891D01*
X110956D01*
Y5006D01*
X110264D01*
Y5121D01*
X109688D01*
Y5236D01*
X109111D01*
Y5352D01*
X108650D01*
Y5467D01*
X108304D01*
Y5582D01*
X107843D01*
Y5698D01*
X107497D01*
Y5813D01*
X107151D01*
Y5928D01*
X106805D01*
Y6044D01*
X106459D01*
Y6159D01*
X106114D01*
Y6274D01*
X105883D01*
Y6390D01*
X105537D01*
Y6505D01*
X105306D01*
Y6620D01*
X105076D01*
Y6735D01*
X104730D01*
Y6851D01*
X104499D01*
Y6966D01*
X104269D01*
Y7081D01*
X104038D01*
Y7197D01*
X103808D01*
Y7312D01*
X103577D01*
Y7427D01*
X103346D01*
Y7542D01*
X103231D01*
Y7658D01*
X103000D01*
Y7773D01*
X102770D01*
Y7888D01*
X102539D01*
Y8004D01*
X102424D01*
Y8119D01*
X102193D01*
Y8234D01*
X102078D01*
Y8350D01*
X101847D01*
Y8465D01*
X101617D01*
Y8580D01*
X101502D01*
Y8696D01*
X101271D01*
Y8811D01*
X101156D01*
Y8926D01*
X101040D01*
Y9041D01*
X100810D01*
Y9157D01*
X100694D01*
Y9272D01*
X100464D01*
Y9387D01*
X100349D01*
Y9503D01*
X100233D01*
Y9618D01*
X100118D01*
Y9733D01*
X99887D01*
Y9848D01*
X99772D01*
Y9964D01*
X99657D01*
Y10079D01*
X99542D01*
Y10194D01*
X99311D01*
Y10310D01*
X99196D01*
Y10425D01*
X99080D01*
Y10540D01*
X98965D01*
Y10656D01*
X98850D01*
Y10771D01*
X98734D01*
Y10886D01*
X98619D01*
Y11002D01*
X98504D01*
Y11117D01*
X98388D01*
Y11232D01*
X98273D01*
Y11347D01*
X98158D01*
Y11463D01*
X98043D01*
Y11578D01*
X97927D01*
Y11693D01*
X97812D01*
Y11809D01*
X97697D01*
Y11924D01*
X97581D01*
Y12039D01*
X97466D01*
Y12154D01*
X97351D01*
Y12270D01*
X97235D01*
Y12385D01*
X97120D01*
Y12500D01*
X97005D01*
Y12616D01*
X96890D01*
Y12731D01*
X96774D01*
Y12846D01*
X96659D01*
Y13077D01*
X96544D01*
Y13192D01*
X96428D01*
Y13308D01*
X96313D01*
Y13423D01*
X96198D01*
Y13653D01*
X96082D01*
Y13769D01*
X95967D01*
Y13884D01*
X95852D01*
Y13999D01*
X95737D01*
Y14230D01*
X95621D01*
Y14345D01*
X95506D01*
Y14576D01*
X95391D01*
Y14691D01*
X95275D01*
Y14806D01*
X95160D01*
Y15037D01*
X95045D01*
Y15152D01*
X94929D01*
Y15383D01*
X94814D01*
Y15614D01*
X94699D01*
Y15729D01*
X94584D01*
Y15959D01*
X94468D01*
Y16075D01*
X94353D01*
Y16305D01*
X94238D01*
Y16536D01*
X94122D01*
Y16766D01*
X94007D01*
Y16882D01*
X93892D01*
Y17112D01*
X93776D01*
Y17343D01*
X93661D01*
Y17574D01*
X93546D01*
Y17804D01*
X93431D01*
Y18035D01*
X93315D01*
Y18265D01*
X93200D01*
Y18611D01*
X93085D01*
Y18842D01*
X92969D01*
Y19072D01*
X92854D01*
Y19418D01*
X92739D01*
Y19649D01*
X92623D01*
Y19995D01*
X92508D01*
Y20341D01*
X92393D01*
Y20687D01*
X92278D01*
Y21033D01*
X92162D01*
Y21378D01*
X92047D01*
Y21840D01*
X91932D01*
Y22186D01*
X91816D01*
Y22647D01*
X91701D01*
Y23223D01*
X91586D01*
Y23800D01*
X91471D01*
Y24492D01*
X91355D01*
Y25299D01*
X91240D01*
Y25875D01*
X91125D01*
Y30268D01*
X91240D01*
Y30845D01*
X91355D01*
Y31652D01*
X91471D01*
Y32344D01*
X91586D01*
Y32920D01*
X91701D01*
Y33381D01*
X91816D01*
Y33958D01*
X91932D01*
Y34304D01*
X92047D01*
Y34765D01*
X92162D01*
Y35111D01*
X92278D01*
Y35457D01*
X92393D01*
Y35802D01*
X92508D01*
Y36148D01*
X92623D01*
Y36379D01*
X92739D01*
Y36725D01*
X92854D01*
Y37071D01*
X92969D01*
Y37301D01*
X93085D01*
Y37532D01*
X93200D01*
Y37763D01*
X93315D01*
Y38108D01*
X93431D01*
Y38339D01*
X93546D01*
Y38570D01*
X93661D01*
Y38800D01*
X93776D01*
Y39031D01*
X93892D01*
Y39146D01*
X94007D01*
Y39377D01*
X94122D01*
Y39607D01*
X94238D01*
Y39838D01*
X94353D01*
Y39953D01*
X94468D01*
Y40184D01*
X94584D01*
Y40415D01*
X94699D01*
Y40530D01*
X94814D01*
Y40760D01*
X94929D01*
Y40876D01*
X95045D01*
Y41106D01*
X95160D01*
Y41222D01*
X95275D01*
Y41452D01*
X95391D01*
Y41568D01*
X95506D01*
Y41798D01*
X95621D01*
Y41914D01*
X95737D01*
Y42029D01*
X95852D01*
Y42259D01*
X95967D01*
Y42375D01*
X96082D01*
Y42490D01*
X96198D01*
Y42720D01*
X96313D01*
Y42836D01*
X96428D01*
Y42951D01*
X96544D01*
Y43066D01*
X96659D01*
Y43182D01*
X96774D01*
Y43412D01*
X96890D01*
Y43528D01*
X97005D01*
Y43643D01*
X97120D01*
Y43758D01*
X97235D01*
Y43874D01*
X97351D01*
Y43989D01*
X97466D01*
Y44104D01*
X97581D01*
Y44219D01*
X97697D01*
Y44335D01*
X97812D01*
Y44450D01*
X97927D01*
Y44565D01*
X98043D01*
Y44681D01*
X98158D01*
Y44796D01*
X98273D01*
Y44911D01*
X98388D01*
Y45026D01*
X98504D01*
Y45142D01*
X98619D01*
Y45257D01*
X98734D01*
Y45372D01*
X98850D01*
Y45488D01*
X98965D01*
Y45603D01*
X99080D01*
Y45718D01*
X99196D01*
Y45834D01*
X99426D01*
Y45949D01*
X99542D01*
Y46064D01*
X99657D01*
Y46180D01*
X99772D01*
Y46295D01*
X99887D01*
Y46410D01*
X100118D01*
Y46525D01*
X100233D01*
Y46641D01*
X100349D01*
Y46756D01*
X100579D01*
Y46871D01*
X100694D01*
Y46987D01*
X100810D01*
Y47102D01*
X101040D01*
Y47217D01*
X101156D01*
Y47332D01*
X101386D01*
Y47448D01*
X101502D01*
Y47563D01*
X101732D01*
Y47678D01*
X101847D01*
Y47794D01*
X102078D01*
Y47909D01*
X102193D01*
Y48024D01*
X102424D01*
Y48140D01*
X102655D01*
Y48255D01*
X102770D01*
Y48370D01*
X103000D01*
Y48486D01*
X103231D01*
Y48601D01*
X103462D01*
Y48716D01*
X103577D01*
Y48831D01*
X103808D01*
Y48947D01*
X104038D01*
Y49062D01*
X104153D01*
Y49177D01*
X104384D01*
Y49293D01*
X104615D01*
Y49408D01*
X104845D01*
Y49523D01*
X104961D01*
Y49639D01*
X105191D01*
Y49754D01*
X105422D01*
Y49869D01*
X105652D01*
Y49984D01*
X105768D01*
Y50100D01*
X105998D01*
Y50215D01*
X106229D01*
Y50330D01*
X106344D01*
Y50446D01*
X106575D01*
Y50561D01*
X106805D01*
Y50676D01*
X107036D01*
Y50792D01*
X107151D01*
Y50907D01*
X107382D01*
Y51022D01*
X107612D01*
Y51138D01*
X107843D01*
Y51253D01*
X107958D01*
Y51368D01*
X108189D01*
Y51483D01*
X108420D01*
Y51599D01*
X108535D01*
Y51714D01*
X108765D01*
Y51829D01*
X108996D01*
Y51945D01*
X109227D01*
Y52060D01*
X109342D01*
Y52175D01*
X109573D01*
Y52290D01*
X109803D01*
Y52406D01*
X110034D01*
Y52521D01*
X110149D01*
Y52636D01*
X110380D01*
Y52752D01*
X110610D01*
Y52867D01*
X110726D01*
Y52982D01*
X110956D01*
Y53098D01*
X111187D01*
Y53213D01*
X111417D01*
Y53328D01*
X111533D01*
Y53443D01*
X111763D01*
Y53559D01*
X111994D01*
Y53674D01*
X112109D01*
Y53789D01*
X112340D01*
Y53905D01*
X112570D01*
Y54020D01*
X112801D01*
Y54135D01*
X112916D01*
Y54251D01*
X113147D01*
Y54366D01*
X113377D01*
Y54481D01*
X113608D01*
Y54596D01*
X113723D01*
Y54712D01*
X113954D01*
Y54827D01*
X114185D01*
Y54942D01*
X114300D01*
Y55058D01*
X114530D01*
Y55173D01*
X114761D01*
Y55288D01*
X114992D01*
Y55404D01*
X115107D01*
Y55519D01*
X115338D01*
Y55634D01*
X115568D01*
Y55749D01*
X115799D01*
Y55865D01*
X115914D01*
Y55980D01*
X116145D01*
Y56095D01*
X116375D01*
Y56211D01*
X116491D01*
Y56326D01*
X116721D01*
Y56441D01*
X116952D01*
Y56557D01*
X117182D01*
Y56672D01*
X117298D01*
Y56787D01*
X117528D01*
Y56902D01*
X117759D01*
Y57018D01*
X117989D01*
Y57133D01*
X118105D01*
Y57248D01*
X118335D01*
Y57364D01*
X118566D01*
Y57479D01*
X118681D01*
Y57594D01*
X118912D01*
Y57710D01*
X119142D01*
Y57825D01*
X119373D01*
Y57940D01*
X119488D01*
Y58055D01*
X119719D01*
Y58171D01*
X119950D01*
Y58286D01*
X120065D01*
Y58401D01*
X120295D01*
Y58517D01*
X120526D01*
Y58632D01*
X120757D01*
Y58747D01*
X120872D01*
Y58863D01*
X121103D01*
Y58978D01*
X121333D01*
Y59093D01*
X121564D01*
Y59208D01*
X121679D01*
Y59324D01*
X121910D01*
Y59439D01*
X122140D01*
Y59554D01*
X122256D01*
Y59670D01*
X122486D01*
Y59785D01*
X122717D01*
Y59900D01*
X122947D01*
Y60016D01*
X123063D01*
Y60131D01*
X123293D01*
Y60246D01*
X123639D01*
Y60361D01*
X124458D01*
Y60246D01*
X124804D01*
Y60131D01*
X125034D01*
Y60016D01*
X125150D01*
Y59900D01*
X125380D01*
Y59785D01*
X125495D01*
Y59554D01*
X125611D01*
Y59439D01*
X125726D01*
Y59208D01*
X125841D01*
Y58747D01*
X125957D01*
Y58275D01*
X125841D01*
Y56776D01*
X125726D01*
Y55277D01*
X125611D01*
Y55058D01*
X126060D01*
Y55173D01*
X126291D01*
Y55288D01*
X126637D01*
Y55404D01*
X126868D01*
Y55519D01*
X127213D01*
Y55634D01*
X127559D01*
Y55749D01*
X127790D01*
Y55865D01*
X128136D01*
Y55980D01*
X128366D01*
Y56095D01*
X128712D01*
Y56211D01*
X129058D01*
Y56326D01*
X129289D01*
Y56441D01*
X129635D01*
Y56557D01*
X129865D01*
Y56672D01*
X130211D01*
Y56787D01*
X130557D01*
Y56902D01*
X130788D01*
Y57018D01*
X131134D01*
Y57133D01*
X131364D01*
Y57248D01*
X131710D01*
Y57364D01*
X132056D01*
Y57479D01*
X132287D01*
Y57594D01*
X132633D01*
Y57710D01*
X132863D01*
Y57825D01*
X133209D01*
Y57940D01*
X133555D01*
Y58055D01*
X133786D01*
Y58171D01*
X134131D01*
Y58286D01*
X134362D01*
Y58401D01*
X134708D01*
Y58517D01*
X135054D01*
Y58632D01*
X135284D01*
Y58747D01*
X135630D01*
Y58863D01*
X135861D01*
Y58978D01*
X136207D01*
Y59093D01*
X136553D01*
Y59208D01*
X136783D01*
Y59324D01*
X137129D01*
Y59439D01*
X137360D01*
Y59554D01*
X137706D01*
Y59670D01*
X138052D01*
Y59785D01*
X138282D01*
Y59900D01*
X138628D01*
Y60016D01*
X138859D01*
Y60131D01*
X139205D01*
Y60246D01*
X139551D01*
Y60361D01*
X139781D01*
Y60477D01*
X140127D01*
Y60592D01*
X140473D01*
Y60707D01*
X140704D01*
Y60823D01*
X141049D01*
Y60938D01*
X141280D01*
Y61053D01*
X141626D01*
Y61169D01*
X141972D01*
Y61284D01*
X142202D01*
Y61399D01*
X142548D01*
Y61514D01*
X142779D01*
Y61630D01*
X143125D01*
Y61745D01*
X143355D01*
Y61860D01*
X143701D01*
Y61976D01*
X144047D01*
Y62091D01*
X144278D01*
Y62206D01*
X144624D01*
Y62322D01*
X144854D01*
Y62437D01*
X145200D01*
Y62552D01*
X145546D01*
Y62668D01*
X145777D01*
Y62783D01*
X146123D01*
Y62898D01*
X146353D01*
Y63013D01*
X146699D01*
Y63129D01*
X147045D01*
Y63244D01*
X147276D01*
Y63359D01*
X147622D01*
Y63475D01*
X147852D01*
Y63590D01*
G37*
%LPC*%
G75*
G36*
G01X111775Y41441D02*
Y41556D01*
X114761D01*
Y41441D01*
X115568D01*
Y41325D01*
X116260D01*
Y41210D01*
X116721D01*
Y41095D01*
X117182D01*
Y40980D01*
X117644D01*
Y40864D01*
X117989D01*
Y40749D01*
X118335D01*
Y40634D01*
X118566D01*
Y40518D01*
X118912D01*
Y40403D01*
X119142D01*
Y40288D01*
X119373D01*
Y40172D01*
X119604D01*
Y40057D01*
X119834D01*
Y39942D01*
X120065D01*
Y39826D01*
X120295D01*
Y39711D01*
X120526D01*
Y39596D01*
X120757D01*
Y39481D01*
X120872D01*
Y39365D01*
X121103D01*
Y39250D01*
X121333D01*
Y39135D01*
X121448D01*
Y39019D01*
X121679D01*
Y38904D01*
X121794D01*
Y38789D01*
X121910D01*
Y38674D01*
X122140D01*
Y38558D01*
X122256D01*
Y38443D01*
X122371D01*
Y38328D01*
X122601D01*
Y38212D01*
X122717D01*
Y38097D01*
X122832D01*
Y37982D01*
X122947D01*
Y37866D01*
X123063D01*
Y37751D01*
X123178D01*
Y37636D01*
X123409D01*
Y37521D01*
X123524D01*
Y37405D01*
X123639D01*
Y37290D01*
X123754D01*
Y37175D01*
X123870D01*
Y37059D01*
X123985D01*
Y36944D01*
X124100D01*
Y36713D01*
X124216D01*
Y36598D01*
X124331D01*
Y36483D01*
X124446D01*
Y36368D01*
X124562D01*
Y36252D01*
X124677D01*
Y36137D01*
X124792D01*
Y35906D01*
X124907D01*
Y35791D01*
X125023D01*
Y35676D01*
X125138D01*
Y35445D01*
X125253D01*
Y35330D01*
X125369D01*
Y35215D01*
X125484D01*
Y34984D01*
X125599D01*
Y34869D01*
X125715D01*
Y34638D01*
X125830D01*
Y34407D01*
X125945D01*
Y34292D01*
X126060D01*
Y34062D01*
X126176D01*
Y33831D01*
X126291D01*
Y33600D01*
X126406D01*
Y33370D01*
X126522D01*
Y33139D01*
X126637D01*
Y32909D01*
X126752D01*
Y32678D01*
X126868D01*
Y32447D01*
X126983D01*
Y32101D01*
X127098D01*
Y31756D01*
X127213D01*
Y31525D01*
X127329D01*
Y31064D01*
X127444D01*
Y30718D01*
X127559D01*
Y30257D01*
X127675D01*
Y29795D01*
X127790D01*
Y29104D01*
X127905D01*
Y28181D01*
X128021D01*
Y25426D01*
X127905D01*
Y24503D01*
X127790D01*
Y23811D01*
X127675D01*
Y23350D01*
X127559D01*
Y22889D01*
X127444D01*
Y22543D01*
X127329D01*
Y22082D01*
X127213D01*
Y21851D01*
X127098D01*
Y21505D01*
X126983D01*
Y21159D01*
X126868D01*
Y20929D01*
X126752D01*
Y20698D01*
X126637D01*
Y20468D01*
X126522D01*
Y20237D01*
X126406D01*
Y20006D01*
X126291D01*
Y19776D01*
X126176D01*
Y19545D01*
X126060D01*
Y19315D01*
X125945D01*
Y19199D01*
X125830D01*
Y18969D01*
X125715D01*
Y18738D01*
X125599D01*
Y18623D01*
X125484D01*
Y18392D01*
X125369D01*
Y18277D01*
X125253D01*
Y18162D01*
X125138D01*
Y17931D01*
X125023D01*
Y17816D01*
X124907D01*
Y17700D01*
X124792D01*
Y17470D01*
X124677D01*
Y17355D01*
X124562D01*
Y17239D01*
X124446D01*
Y17124D01*
X124331D01*
Y17009D01*
X124216D01*
Y16893D01*
X124100D01*
Y16663D01*
X123985D01*
Y16547D01*
X123870D01*
Y16432D01*
X123754D01*
Y16317D01*
X123639D01*
Y16202D01*
X123524D01*
Y16086D01*
X123409D01*
Y15971D01*
X123178D01*
Y15856D01*
X123063D01*
Y15740D01*
X122947D01*
Y15625D01*
X122832D01*
Y15510D01*
X122717D01*
Y15394D01*
X122601D01*
Y15279D01*
X122371D01*
Y15164D01*
X122256D01*
Y15049D01*
X122140D01*
Y14933D01*
X121910D01*
Y14818D01*
X121794D01*
Y14703D01*
X121679D01*
Y14587D01*
X121448D01*
Y14472D01*
X121333D01*
Y14357D01*
X121103D01*
Y14241D01*
X120872D01*
Y14126D01*
X120757D01*
Y14011D01*
X120526D01*
Y13896D01*
X120295D01*
Y13780D01*
X120065D01*
Y13665D01*
X119834D01*
Y13550D01*
X119604D01*
Y13434D01*
X119373D01*
Y13319D01*
X119142D01*
Y13204D01*
X118912D01*
Y13088D01*
X118566D01*
Y12973D01*
X118220D01*
Y12858D01*
X117989D01*
Y12743D01*
X117528D01*
Y12627D01*
X117182D01*
Y12512D01*
X116721D01*
Y12397D01*
X116260D01*
Y12281D01*
X115568D01*
Y12166D01*
X114646D01*
Y12051D01*
X111890D01*
Y12166D01*
X110968D01*
Y12281D01*
X110276D01*
Y12397D01*
X109815D01*
Y12512D01*
X109353D01*
Y12627D01*
X109008D01*
Y12743D01*
X108546D01*
Y12858D01*
X108316D01*
Y12973D01*
X107970D01*
Y13088D01*
X107624D01*
Y13204D01*
X107393D01*
Y13319D01*
X107163D01*
Y13434D01*
X106932D01*
Y13550D01*
X106702D01*
Y13665D01*
X106471D01*
Y13780D01*
X106240D01*
Y13896D01*
X106010D01*
Y14011D01*
X105779D01*
Y14126D01*
X105664D01*
Y14241D01*
X105433D01*
Y14357D01*
X105203D01*
Y14472D01*
X105087D01*
Y14587D01*
X104857D01*
Y14703D01*
X104742D01*
Y14818D01*
X104626D01*
Y14933D01*
X104396D01*
Y15049D01*
X104280D01*
Y15164D01*
X104165D01*
Y15279D01*
X103934D01*
Y15394D01*
X103819D01*
Y15510D01*
X103704D01*
Y15625D01*
X103588D01*
Y15740D01*
X103473D01*
Y15856D01*
X103358D01*
Y15971D01*
X103127D01*
Y16086D01*
X103012D01*
Y16202D01*
X102897D01*
Y16317D01*
X102781D01*
Y16432D01*
X102666D01*
Y16547D01*
X102551D01*
Y16663D01*
X102436D01*
Y16893D01*
X102320D01*
Y17009D01*
X102205D01*
Y17124D01*
X102090D01*
Y17239D01*
X101974D01*
Y17355D01*
X101859D01*
Y17470D01*
X101744D01*
Y17700D01*
X101628D01*
Y17816D01*
X101513D01*
Y17931D01*
X101398D01*
Y18162D01*
X101282D01*
Y18277D01*
X101167D01*
Y18392D01*
X101052D01*
Y18623D01*
X100937D01*
Y18738D01*
X100821D01*
Y18969D01*
X100706D01*
Y19199D01*
X100591D01*
Y19315D01*
X100475D01*
Y19545D01*
X100360D01*
Y19776D01*
X100245D01*
Y20006D01*
X100129D01*
Y20237D01*
X100014D01*
Y20468D01*
X99899D01*
Y20698D01*
X99784D01*
Y20929D01*
X99668D01*
Y21159D01*
X99553D01*
Y21505D01*
X99438D01*
Y21736D01*
X99322D01*
Y22082D01*
X99207D01*
Y22428D01*
X99092D01*
Y22889D01*
X98976D01*
Y23350D01*
X98861D01*
Y23811D01*
X98746D01*
Y24503D01*
X98630D01*
Y25310D01*
X98515D01*
Y28297D01*
X98630D01*
Y29104D01*
X98746D01*
Y29795D01*
X98861D01*
Y30257D01*
X98976D01*
Y30718D01*
X99092D01*
Y31179D01*
X99207D01*
Y31525D01*
X99322D01*
Y31871D01*
X99438D01*
Y32101D01*
X99553D01*
Y32447D01*
X99668D01*
Y32678D01*
X99784D01*
Y32909D01*
X99899D01*
Y33139D01*
X100014D01*
Y33370D01*
X100129D01*
Y33600D01*
X100245D01*
Y33831D01*
X100360D01*
Y34062D01*
X100475D01*
Y34292D01*
X100591D01*
Y34407D01*
X100706D01*
Y34638D01*
X100821D01*
Y34869D01*
X100937D01*
Y34984D01*
X101052D01*
Y35215D01*
X101167D01*
Y35330D01*
X101282D01*
Y35445D01*
X101398D01*
Y35676D01*
X101513D01*
Y35791D01*
X101628D01*
Y35906D01*
X101744D01*
Y36137D01*
X101859D01*
Y36252D01*
X101974D01*
Y36368D01*
X102090D01*
Y36483D01*
X102205D01*
Y36598D01*
X102320D01*
Y36713D01*
X102436D01*
Y36944D01*
X102551D01*
Y37059D01*
X102666D01*
Y37175D01*
X102781D01*
Y37290D01*
X102897D01*
Y37405D01*
X103012D01*
Y37521D01*
X103127D01*
Y37636D01*
X103358D01*
Y37751D01*
X103473D01*
Y37866D01*
X103588D01*
Y37982D01*
X103704D01*
Y38097D01*
X103819D01*
Y38212D01*
X103934D01*
Y38328D01*
X104165D01*
Y38443D01*
X104280D01*
Y38558D01*
X104396D01*
Y38674D01*
X104626D01*
Y38789D01*
X104742D01*
Y38904D01*
X104857D01*
Y39019D01*
X105087D01*
Y39135D01*
X105203D01*
Y39250D01*
X105433D01*
Y39365D01*
X105549D01*
Y39481D01*
X105779D01*
Y39596D01*
X106010D01*
Y39711D01*
X106240D01*
Y39826D01*
X106471D01*
Y39942D01*
X106702D01*
Y40057D01*
X106932D01*
Y40172D01*
X107163D01*
Y40288D01*
X107393D01*
Y40403D01*
X107624D01*
Y40518D01*
X107970D01*
Y40634D01*
X108200D01*
Y40749D01*
X108546D01*
Y40864D01*
X108892D01*
Y40980D01*
X109353D01*
Y41095D01*
X109815D01*
Y41210D01*
X110276D01*
Y41325D01*
X110968D01*
Y41441D01*
X111775D01*
G37*
%LPD*%
G75*
G36*
G01X114646Y23120D02*
X115580D01*
Y23004D01*
X115926D01*
Y22889D01*
X116041D01*
Y22774D01*
X116271D01*
Y22658D01*
X116387D01*
Y22543D01*
X116502D01*
Y22428D01*
X116617D01*
Y22197D01*
X116733D01*
Y21967D01*
X116848D01*
Y21621D01*
X116963D01*
Y20917D01*
X116848D01*
Y20571D01*
X116733D01*
Y20341D01*
X116617D01*
Y20110D01*
X116502D01*
Y19995D01*
X116387D01*
Y19880D01*
X116271D01*
Y19764D01*
X116041D01*
Y19649D01*
X115810D01*
Y19534D01*
X115464D01*
Y19418D01*
X114761D01*
Y19534D01*
X114415D01*
Y19649D01*
X114185D01*
Y19764D01*
X113954D01*
Y19880D01*
X113839D01*
Y19995D01*
X113723D01*
Y20110D01*
X113608D01*
Y20341D01*
X113493D01*
Y20456D01*
X113377D01*
Y20917D01*
X113262D01*
Y21736D01*
X113377D01*
Y22082D01*
X113493D01*
Y22197D01*
X113608D01*
Y22428D01*
X113723D01*
Y22543D01*
X113839D01*
Y22658D01*
X113954D01*
Y22774D01*
X114185D01*
Y22889D01*
X114300D01*
Y23004D01*
X114646D01*
Y23120D01*
G37*
G36*
G01X108996Y34188D02*
X110161D01*
Y34073D01*
X110622D01*
Y33958D01*
X110968D01*
Y33842D01*
X111198D01*
Y33727D01*
X111429D01*
Y33612D01*
X111659D01*
Y33496D01*
X111775D01*
Y33381D01*
X111890D01*
Y33266D01*
X112121D01*
Y33151D01*
X112236D01*
Y33035D01*
X112351D01*
Y32805D01*
X112467D01*
Y32690D01*
X112582D01*
Y32574D01*
X112697D01*
Y32344D01*
X112812D01*
Y32113D01*
X112928D01*
Y31882D01*
X113043D01*
Y31536D01*
X113158D01*
Y31075D01*
X113274D01*
Y29911D01*
X113158D01*
Y29450D01*
X113043D01*
Y29104D01*
X112928D01*
Y28873D01*
X112812D01*
Y28643D01*
X112697D01*
Y28412D01*
X112582D01*
Y28297D01*
X112467D01*
Y28181D01*
X112351D01*
Y27951D01*
X112236D01*
Y27835D01*
X112121D01*
Y27720D01*
X111890D01*
Y27605D01*
X111775D01*
Y27489D01*
X111659D01*
Y27374D01*
X111429D01*
Y27259D01*
X111198D01*
Y27144D01*
X110968D01*
Y27028D01*
X110622D01*
Y26913D01*
X110161D01*
Y26798D01*
X108996D01*
Y26913D01*
X108535D01*
Y27028D01*
X108189D01*
Y27144D01*
X107958D01*
Y27259D01*
X107728D01*
Y27374D01*
X107497D01*
Y27489D01*
X107382D01*
Y27605D01*
X107267D01*
Y27720D01*
X107036D01*
Y27835D01*
X106921D01*
Y27951D01*
X106805D01*
Y28181D01*
X106690D01*
Y28297D01*
X106575D01*
Y28412D01*
X106459D01*
Y28643D01*
X106344D01*
Y28873D01*
X106229D01*
Y29104D01*
X106114D01*
Y29450D01*
X105998D01*
Y29911D01*
X105883D01*
Y31075D01*
X105998D01*
Y31536D01*
X106114D01*
Y31882D01*
X106229D01*
Y32113D01*
X106344D01*
Y32344D01*
X106459D01*
Y32574D01*
X106575D01*
Y32690D01*
X106690D01*
Y32805D01*
X106805D01*
Y33035D01*
X106921D01*
Y33151D01*
X107036D01*
Y33266D01*
X107267D01*
Y33381D01*
X107382D01*
Y33496D01*
X107497D01*
Y33612D01*
X107728D01*
Y33727D01*
X107958D01*
Y33842D01*
X108189D01*
Y33958D01*
X108535D01*
Y34073D01*
X108996D01*
Y34188D01*
G37*
G54D10*
G01X54609Y9923D02*
X51849D01*
Y14643D01*
X54609D01*
G01X54648Y15356D02*
X51888D01*
Y20076D01*
X54648D01*
G01X54609Y20789D02*
X51848D01*
Y25509D01*
X54609D01*
G01X54845Y37522D02*
X52085D01*
Y42242D01*
X54845D01*
G01X54845Y48270D02*
X52085D01*
Y52990D01*
X54845D01*
G01X54884Y42876D02*
X52124D01*
Y47596D01*
X54884D01*
G01X59329Y9923D02*
X62089D01*
Y14643D01*
X59329D01*
G01X59368Y15356D02*
X62128D01*
Y20076D01*
X59368D01*
G01X59329Y20789D02*
X62089D01*
Y25509D01*
X59329D01*
G01X59565Y37522D02*
X62325D01*
Y42242D01*
X59565D01*
G01Y48270D02*
X62325D01*
Y52990D01*
X59565D01*
G01X59604Y42876D02*
X62364D01*
Y47596D01*
X59604D01*
G01X84029Y88172D02*
X80692Y91510D01*
X73451Y84269D01*
X76789Y80932D01*
X84029Y88172D01*
G01X90774Y66946D02*
X94111Y63609D01*
X101352Y70850D01*
X98015Y74187D01*
X90774Y66946D01*
G54D11*
G01X56579Y10704D02*
Y13863D01*
G01X57359Y10704D02*
Y13863D01*
G01X56618Y16137D02*
Y19296D01*
G01X57398Y16137D02*
Y19296D01*
G01X56579Y21570D02*
Y24730D01*
G01X57359Y21570D02*
Y24730D01*
G01X56815Y38302D02*
Y41462D01*
G01X57595Y38302D02*
Y41462D01*
G01X56815Y49050D02*
Y52210D01*
G01X57595Y49050D02*
Y52210D01*
G01X56854Y43656D02*
Y46817D01*
G01X57634Y43656D02*
Y46817D01*
G01X79299Y85111D02*
X79850Y85662D01*
X78182Y87331D01*
X77630Y86779D01*
X79299Y85111D01*
G01X77630Y86779D02*
X77906Y87055D01*
X77071Y87889D01*
G01X95505Y70008D02*
X94953Y69456D01*
X96621Y67787D01*
X97173Y68339D01*
X95505Y70008D01*
G01X94953Y69456D02*
X95229Y69732D01*
X94394Y70566D01*
G01X97173Y68339D02*
X96897Y68063D01*
X97732Y67229D01*
G01X79850Y85662D02*
X79574Y85386D01*
X80409Y84552D01*
G54D12*
G01X126378Y109055D02*
Y105906D01*
G01D02*
Y105512D01*
G01Y105906D02*
Y105512D01*
G01X128133Y109055D02*
X126378D01*
G01X133464D02*
Y105512D01*
G01Y109055D02*
X131710D01*
G01X130101Y105512D02*
X129741D01*
G01X129995D02*
X129847D01*
M02*
