G04 ================== begin FILE IDENTIFICATION RECORD ==================*
G04 Layout Name:  D:/Projects/Mini_Audio/01.Hardware/POWER/PCB/POWER.brd*
G04 Film Name:    SILKTOP*
G04 File Format:  Gerber RS274X*
G04 File Origin:  Cadence Allegro 17.4-S037*
G04 Origin Date:  Thu Feb  1 14:49:59 2024*
G04 *
G04 Layer:  BOARD GEOMETRY/SILKSCREEN_TOP*
G04 Layer:  PACKAGE GEOMETRY/SILKSCREEN_TOP*
G04 Layer:  REF DES/SILKSCREEN_TOP*
G04 Layer:  MANUFACTURING/PEN3*
G04 Layer:  MANUFACTURING/PROBE_BOTTOM*
G04 *
G04 Offset:    (0.000 0.000)*
G04 Mirror:    No*
G04 Mode:      Positive*
G04 Rotation:  0*
G04 FullContactRelief:  No*
G04 UndefLineWidth:     6.000*
G04 ================== end FILE IDENTIFICATION RECORD ====================*
%FSLAX35Y35*MOIN*%
%IR0*IPPOS*OFA0.00000B0.00000*MIA0B0*SFA1.00000B1.00000*%
%ADD10C,.003*%
%ADD11C,.005*%
%ADD12C,.006*%
%ADD13C,.003902*%
%ADD14C,.004921*%
%ADD15C,.007902*%
%ADD16C,.00787*%
%ADD17C,.005909*%
%ADD18C,.01*%
%ADD19C,.01181*%
G75*
%LPD*%
G75*
G36*
G01X4154Y5254D02*
X4654D01*
Y5220D01*
X4638D01*
Y5108D01*
X4622D01*
Y4995D01*
X4606D01*
Y4882D01*
X4590D01*
Y4770D01*
X4574D01*
Y4723D01*
X5121D01*
Y4625D01*
X5105D01*
Y4528D01*
X5089D01*
Y4415D01*
X4526D01*
Y4303D01*
X4510D01*
Y4190D01*
X4493D01*
Y4077D01*
X4477D01*
Y3965D01*
X4461D01*
Y3852D01*
X4445D01*
Y3804D01*
X3960D01*
Y3902D01*
X3976D01*
Y4015D01*
X3993D01*
Y4127D01*
X4009D01*
Y4240D01*
X4025D01*
Y4353D01*
X4041D01*
Y4415D01*
X3494D01*
Y4481D01*
X3510D01*
Y4610D01*
X3526D01*
Y4723D01*
X4089D01*
Y4819D01*
X4105D01*
Y4932D01*
X4122D01*
Y5045D01*
X4138D01*
Y5158D01*
X4154D01*
Y5254D01*
G37*
G36*
G01X3817Y6981D02*
X4929D01*
Y6963D01*
X4913D01*
Y6866D01*
X4897D01*
Y6770D01*
X4881D01*
Y6673D01*
X3768D01*
Y6691D01*
X3784D01*
Y6804D01*
X3800D01*
Y6900D01*
X3817D01*
Y6981D01*
G37*
G36*
G01X11456Y6879D02*
X13405D01*
Y6845D01*
X13389D01*
Y6684D01*
X13373D01*
Y6587D01*
X12005D01*
Y6459D01*
X11989D01*
Y6330D01*
X11973D01*
Y6217D01*
X11956D01*
Y6088D01*
X11940D01*
Y5960D01*
X11924D01*
Y5831D01*
X11908D01*
Y5718D01*
X11892D01*
Y5589D01*
X11876D01*
Y5461D01*
X11860D01*
Y5382D01*
X13082D01*
Y5398D01*
X13098D01*
Y5414D01*
X13114D01*
Y5430D01*
X13130D01*
Y5446D01*
X13162D01*
Y5462D01*
X13178D01*
Y5478D01*
X13212D01*
Y5412D01*
X13196D01*
Y5300D01*
X13180D01*
Y5187D01*
X13164D01*
Y5074D01*
X11343D01*
Y5090D01*
X11311D01*
Y5106D01*
X11279D01*
Y5122D01*
X11263D01*
Y5155D01*
X11246D01*
Y5187D01*
X11230D01*
Y5285D01*
X11246D01*
Y5414D01*
X11263D01*
Y5526D01*
X11279D01*
Y5655D01*
X11295D01*
Y5768D01*
X11311D01*
Y5897D01*
X11327D01*
Y6009D01*
X11343D01*
Y6138D01*
X11359D01*
Y6251D01*
X11375D01*
Y6380D01*
X11391D01*
Y6492D01*
X11407D01*
Y6605D01*
X11424D01*
Y6734D01*
X11440D01*
Y6847D01*
X11456D01*
Y6879D01*
G37*
G36*
G01X7753Y6895D02*
X8366D01*
Y6861D01*
X8350D01*
Y6829D01*
X8334D01*
Y6797D01*
X8318D01*
Y6765D01*
X8302D01*
Y6732D01*
X8286D01*
Y6700D01*
X8270D01*
Y6652D01*
X8253D01*
Y6620D01*
X8237D01*
Y6587D01*
X8221D01*
Y6555D01*
X8205D01*
Y6523D01*
X8189D01*
Y6491D01*
X8173D01*
Y6459D01*
X8157D01*
Y6427D01*
X8141D01*
Y6394D01*
X8125D01*
Y6346D01*
X8109D01*
Y6314D01*
X8092D01*
Y6282D01*
X8076D01*
Y6249D01*
X8060D01*
Y6217D01*
X8044D01*
Y6185D01*
X8028D01*
Y6153D01*
X8012D01*
Y6121D01*
X7996D01*
Y6088D01*
X7980D01*
Y6040D01*
X7964D01*
Y6008D01*
X7948D01*
Y5976D01*
X7931D01*
Y5944D01*
X7915D01*
Y5911D01*
X7899D01*
Y5879D01*
X7883D01*
Y5847D01*
X7867D01*
Y5815D01*
X7851D01*
Y5783D01*
X7835D01*
Y5734D01*
X7819D01*
Y5702D01*
X7803D01*
Y5670D01*
X7787D01*
Y5638D01*
X7770D01*
Y5605D01*
X7754D01*
Y5573D01*
X7738D01*
Y5541D01*
X7722D01*
Y5509D01*
X7706D01*
Y5477D01*
X7690D01*
Y5428D01*
X7674D01*
Y5396D01*
X7658D01*
Y5364D01*
X7642D01*
Y5332D01*
X7626D01*
Y5300D01*
X7609D01*
Y5267D01*
X7593D01*
Y5235D01*
X7577D01*
Y5203D01*
X7561D01*
Y5171D01*
X7545D01*
Y5122D01*
X7529D01*
Y5090D01*
X7513D01*
Y5074D01*
X6642D01*
Y5090D01*
X6626D01*
Y5171D01*
X6610D01*
Y5251D01*
X6594D01*
Y5332D01*
X6577D01*
Y5412D01*
X6561D01*
Y5493D01*
X6545D01*
Y5589D01*
X6529D01*
Y5670D01*
X6513D01*
Y5750D01*
X6497D01*
Y5831D01*
X6481D01*
Y5911D01*
X6465D01*
Y5992D01*
X6449D01*
Y6072D01*
X6433D01*
Y6153D01*
X6416D01*
Y6233D01*
X6400D01*
Y6314D01*
X6384D01*
Y6394D01*
X6368D01*
Y6475D01*
X6352D01*
Y6555D01*
X6336D01*
Y6652D01*
X6320D01*
Y6732D01*
X6304D01*
Y6797D01*
X6288D01*
Y6829D01*
X6272D01*
Y6845D01*
X6255D01*
Y6877D01*
X6239D01*
Y6895D01*
X6885D01*
Y6863D01*
X6901D01*
Y6782D01*
X6917D01*
Y6702D01*
X6933D01*
Y6621D01*
X6949D01*
Y6541D01*
X6965D01*
Y6460D01*
X6982D01*
Y6364D01*
X6998D01*
Y6283D01*
X7014D01*
Y6203D01*
X7030D01*
Y6122D01*
X7046D01*
Y6042D01*
X7062D01*
Y5945D01*
X7078D01*
Y5865D01*
X7094D01*
Y5784D01*
X7110D01*
Y5704D01*
X7126D01*
Y5623D01*
X7141D01*
Y5655D01*
X7157D01*
Y5687D01*
X7173D01*
Y5720D01*
X7189D01*
Y5752D01*
X7205D01*
Y5784D01*
X7221D01*
Y5816D01*
X7238D01*
Y5865D01*
X7254D01*
Y5897D01*
X7270D01*
Y5929D01*
X7286D01*
Y5961D01*
X7302D01*
Y5993D01*
X7318D01*
Y6026D01*
X7334D01*
Y6058D01*
X7350D01*
Y6090D01*
X7366D01*
Y6122D01*
X7382D01*
Y6154D01*
X7399D01*
Y6187D01*
X7415D01*
Y6219D01*
X7431D01*
Y6251D01*
X7447D01*
Y6283D01*
X7463D01*
Y6315D01*
X7479D01*
Y6348D01*
X7495D01*
Y6380D01*
X7511D01*
Y6412D01*
X7527D01*
Y6444D01*
X7543D01*
Y6476D01*
X7560D01*
Y6525D01*
X7576D01*
Y6557D01*
X7592D01*
Y6589D01*
X7608D01*
Y6621D01*
X7624D01*
Y6653D01*
X7640D01*
Y6686D01*
X7656D01*
Y6718D01*
X7672D01*
Y6750D01*
X7688D01*
Y6782D01*
X7704D01*
Y6814D01*
X7721D01*
Y6847D01*
X7737D01*
Y6879D01*
X7753D01*
Y6895D01*
G37*
G36*
G01X8928D02*
X10878D01*
Y6749D01*
X10862D01*
Y6587D01*
X9493D01*
Y6507D01*
X9477D01*
Y6378D01*
X9461D01*
Y6265D01*
X9445D01*
Y6137D01*
X9429D01*
Y6008D01*
X9413D01*
Y5879D01*
X9397D01*
Y5750D01*
X9380D01*
Y5638D01*
X9364D01*
Y5509D01*
X9348D01*
Y5382D01*
X10554D01*
Y5398D01*
X10586D01*
Y5414D01*
X10602D01*
Y5430D01*
X10619D01*
Y5446D01*
X10635D01*
Y5462D01*
X10667D01*
Y5478D01*
X10701D01*
Y5461D01*
X10685D01*
Y5348D01*
X10668D01*
Y5235D01*
X10652D01*
Y5122D01*
X10636D01*
Y5074D01*
X8815D01*
Y5090D01*
X8783D01*
Y5106D01*
X8767D01*
Y5122D01*
X8751D01*
Y5139D01*
X8735D01*
Y5171D01*
X8719D01*
Y5333D01*
X8735D01*
Y5462D01*
X8751D01*
Y5575D01*
X8767D01*
Y5704D01*
X8783D01*
Y5816D01*
X8799D01*
Y5929D01*
X8815D01*
Y6058D01*
X8831D01*
Y6170D01*
X8848D01*
Y6299D01*
X8864D01*
Y6412D01*
X8880D01*
Y6541D01*
X8896D01*
Y6653D01*
X8912D01*
Y6782D01*
X8928D01*
Y6895D01*
G37*
G36*
G01X10663Y92292D02*
X12628D01*
Y92210D01*
X12612D01*
Y92113D01*
X12596D01*
Y92033D01*
X12580D01*
Y92000D01*
X11920D01*
Y91872D01*
X11904D01*
Y91759D01*
X11888D01*
Y91646D01*
X11872D01*
Y91533D01*
X11856D01*
Y91421D01*
X11839D01*
Y91308D01*
X11823D01*
Y91195D01*
X11807D01*
Y91083D01*
X11791D01*
Y90970D01*
X11775D01*
Y90857D01*
X11759D01*
Y90745D01*
X11743D01*
Y90632D01*
X11727D01*
Y90519D01*
X11711D01*
Y90487D01*
X11097D01*
Y90569D01*
X11113D01*
Y90682D01*
X11129D01*
Y90794D01*
X11146D01*
Y90907D01*
X11162D01*
Y91020D01*
X11178D01*
Y91132D01*
X11194D01*
Y91245D01*
X11210D01*
Y91358D01*
X11226D01*
Y91471D01*
X11242D01*
Y91583D01*
X11258D01*
Y91696D01*
X11274D01*
Y91809D01*
X11290D01*
Y91921D01*
X11307D01*
Y92000D01*
X10630D01*
Y92082D01*
X10646D01*
Y92227D01*
X10663D01*
Y92292D01*
G37*
G36*
G01X5720Y92308D02*
X7782D01*
Y92210D01*
X7766D01*
Y92081D01*
X7750D01*
Y91952D01*
X7734D01*
Y91823D01*
X7718D01*
Y91694D01*
X7702D01*
Y91566D01*
X7686D01*
Y91550D01*
X7670D01*
Y91533D01*
X7637D01*
Y91517D01*
X7621D01*
Y91501D01*
X7589D01*
Y91485D01*
X7573D01*
Y91469D01*
X7541D01*
Y91453D01*
X7509D01*
Y91438D01*
X7525D01*
Y91422D01*
X7541D01*
Y91406D01*
X7557D01*
Y91390D01*
X7573D01*
Y91374D01*
X7589D01*
Y91358D01*
X7621D01*
Y91342D01*
X7637D01*
Y91326D01*
X7653D01*
Y91211D01*
X7637D01*
Y91099D01*
X7621D01*
Y91002D01*
X7605D01*
Y90889D01*
X7589D01*
Y90793D01*
X7573D01*
Y90696D01*
X7557D01*
Y90648D01*
X7541D01*
Y90600D01*
X7525D01*
Y90584D01*
X7509D01*
Y90567D01*
X7492D01*
Y90551D01*
X7476D01*
Y90535D01*
X7460D01*
Y90519D01*
X7444D01*
Y90503D01*
X7412D01*
Y90487D01*
X5591D01*
Y90569D01*
X5607D01*
Y90698D01*
X5623D01*
Y90827D01*
X5639D01*
Y90939D01*
X5655D01*
Y91068D01*
X5672D01*
Y91197D01*
X5688D01*
Y91326D01*
X5704D01*
Y91455D01*
X5720D01*
Y91583D01*
X5736D01*
Y91712D01*
X5752D01*
Y91825D01*
X5768D01*
Y91954D01*
X5784D01*
Y92082D01*
X5800D01*
Y92194D01*
X5784D01*
Y92210D01*
X5768D01*
Y92242D01*
X5752D01*
Y92258D01*
X5736D01*
Y92274D01*
X5720D01*
Y92308D01*
G37*
G36*
G01X8763D02*
X10036D01*
Y92195D01*
X10052D01*
Y92082D01*
X10068D01*
Y91954D01*
X10085D01*
Y91841D01*
X10101D01*
Y91712D01*
X10117D01*
Y91599D01*
X10133D01*
Y91471D01*
X10149D01*
Y91358D01*
X10165D01*
Y91245D01*
X10181D01*
Y91116D01*
X10197D01*
Y91004D01*
X10213D01*
Y90875D01*
X10229D01*
Y90762D01*
X10246D01*
Y90633D01*
X10262D01*
Y90521D01*
X10278D01*
Y90487D01*
X9713D01*
Y90600D01*
X9697D01*
Y90712D01*
X9680D01*
Y90841D01*
X9664D01*
Y90970D01*
X8877D01*
Y90938D01*
X8861D01*
Y90906D01*
X8845D01*
Y90873D01*
X8829D01*
Y90825D01*
X8813D01*
Y90793D01*
X8797D01*
Y90761D01*
X8780D01*
Y90712D01*
X8764D01*
Y90680D01*
X8748D01*
Y90648D01*
X8732D01*
Y90616D01*
X8716D01*
Y90567D01*
X8700D01*
Y90535D01*
X8684D01*
Y90503D01*
X8668D01*
Y90487D01*
X8151D01*
Y90521D01*
X8167D01*
Y90569D01*
X8183D01*
Y90601D01*
X8199D01*
Y90633D01*
X8215D01*
Y90682D01*
X8231D01*
Y90714D01*
X8248D01*
Y90762D01*
X8264D01*
Y90794D01*
X8280D01*
Y90843D01*
X8296D01*
Y90875D01*
X8312D01*
Y90907D01*
X8328D01*
Y90955D01*
X8344D01*
Y90988D01*
X8360D01*
Y91036D01*
X8376D01*
Y91068D01*
X8392D01*
Y91116D01*
X8409D01*
Y91149D01*
X8425D01*
Y91181D01*
X8441D01*
Y91229D01*
X8457D01*
Y91261D01*
X8473D01*
Y91310D01*
X8489D01*
Y91342D01*
X8505D01*
Y91390D01*
X8521D01*
Y91422D01*
X8537D01*
Y91471D01*
X8553D01*
Y91503D01*
X8570D01*
Y91535D01*
X8586D01*
Y91583D01*
X8602D01*
Y91616D01*
X8618D01*
Y91664D01*
X8634D01*
Y91696D01*
X8650D01*
Y91744D01*
X8666D01*
Y91777D01*
X8682D01*
Y91809D01*
X8698D01*
Y91857D01*
X8714D01*
Y91889D01*
X8731D01*
Y91938D01*
X8747D01*
Y91970D01*
X8763D01*
Y92018D01*
X8779D01*
Y92050D01*
X8795D01*
Y92082D01*
X8811D01*
Y92131D01*
X8827D01*
Y92163D01*
X8843D01*
Y92226D01*
X8827D01*
Y92242D01*
X8811D01*
Y92258D01*
X8795D01*
Y92274D01*
X8779D01*
Y92290D01*
X8763D01*
Y92308D01*
G37*
G36*
G01X3401Y90843D02*
X3902D01*
Y90810D01*
X3886D01*
Y90697D01*
X3870D01*
Y90584D01*
X3854D01*
Y90472D01*
X3838D01*
Y90359D01*
X3822D01*
Y90312D01*
X4369D01*
Y90214D01*
X4353D01*
Y90117D01*
X4337D01*
Y90005D01*
X3773D01*
Y89892D01*
X3757D01*
Y89779D01*
X3741D01*
Y89667D01*
X3725D01*
Y89554D01*
X3709D01*
Y89441D01*
X3693D01*
Y89393D01*
X3208D01*
Y89491D01*
X3224D01*
Y89604D01*
X3240D01*
Y89716D01*
X3256D01*
Y89829D01*
X3273D01*
Y89942D01*
X3289D01*
Y90005D01*
X2741D01*
Y90071D01*
X2757D01*
Y90199D01*
X2773D01*
Y90312D01*
X3337D01*
Y90409D01*
X3353D01*
Y90521D01*
X3369D01*
Y90634D01*
X3385D01*
Y90747D01*
X3401D01*
Y90843D01*
G37*
G36*
G01X3077Y93058D02*
X4189D01*
Y93041D01*
X4173D01*
Y92944D01*
X4157D01*
Y92847D01*
X4141D01*
Y92751D01*
X3028D01*
Y92768D01*
X3044D01*
Y92881D01*
X3060D01*
Y92978D01*
X3077D01*
Y93058D01*
G37*
G36*
G01X46412Y114074D02*
X49478D01*
Y114046D01*
X49591D01*
Y114018D01*
X49619D01*
Y113990D01*
X49675D01*
Y113962D01*
X49703D01*
Y113934D01*
X49731D01*
Y113849D01*
X49759D01*
Y113650D01*
X49731D01*
Y113453D01*
X49703D01*
Y113228D01*
X49675D01*
Y113032D01*
X49647D01*
Y112807D01*
X49619D01*
Y112610D01*
X49591D01*
Y112414D01*
X49562D01*
Y112189D01*
X49534D01*
Y111992D01*
X49506D01*
Y111767D01*
X49478D01*
Y111571D01*
X49450D01*
Y111346D01*
X49422D01*
Y111149D01*
X49394D01*
Y110924D01*
X49366D01*
Y110896D01*
X46188D01*
Y110924D01*
X46160D01*
Y110952D01*
X46103D01*
Y110980D01*
X46075D01*
Y111009D01*
X46047D01*
Y111065D01*
X46019D01*
Y111320D01*
X46047D01*
Y111517D01*
X46075D01*
Y111742D01*
X46103D01*
Y111939D01*
X46131D01*
Y112163D01*
X46160D01*
Y112360D01*
X46188D01*
Y112585D01*
X46216D01*
Y112782D01*
X46244D01*
Y112978D01*
X46272D01*
Y113203D01*
X46300D01*
Y113400D01*
X46328D01*
Y113625D01*
X46356D01*
Y113821D01*
X46384D01*
Y114046D01*
X46412D01*
Y114074D01*
G37*
G36*
G01X50656D02*
X53834D01*
Y113790D01*
X53806D01*
Y113538D01*
X51839D01*
Y113313D01*
X51810D01*
Y113060D01*
X51782D01*
Y112835D01*
X51754D01*
Y112613D01*
X53525D01*
Y112470D01*
X53496D01*
Y112189D01*
X53468D01*
Y112076D01*
X51642D01*
Y111992D01*
X51614D01*
Y111795D01*
X51586D01*
Y111599D01*
X51558D01*
Y111402D01*
X51529D01*
Y111177D01*
X51501D01*
Y110980D01*
X51473D01*
Y110896D01*
X50403D01*
Y111068D01*
X50431D01*
Y111264D01*
X50459D01*
Y111461D01*
X50487D01*
Y111630D01*
X50515D01*
Y111826D01*
X50543D01*
Y112023D01*
X50571D01*
Y112220D01*
X50599D01*
Y112416D01*
X50627D01*
Y112613D01*
X50656D01*
Y112782D01*
X50684D01*
Y112978D01*
X50712D01*
Y113175D01*
X50740D01*
Y113372D01*
X50768D01*
Y113568D01*
X50796D01*
Y113765D01*
X50824D01*
Y113875D01*
X50796D01*
Y113903D01*
X50768D01*
Y113931D01*
X50740D01*
Y113987D01*
X50712D01*
Y114015D01*
X50684D01*
Y114043D01*
X50656D01*
Y114074D01*
G37*
G36*
G01X54702D02*
X57880D01*
Y113819D01*
X57852D01*
Y113538D01*
X55885D01*
Y113313D01*
X55857D01*
Y113088D01*
X55829D01*
Y112835D01*
X55801D01*
Y112613D01*
X57571D01*
Y112498D01*
X57543D01*
Y112217D01*
X57515D01*
Y112076D01*
X55688D01*
Y112020D01*
X55660D01*
Y111823D01*
X55632D01*
Y111599D01*
X55604D01*
Y111402D01*
X55576D01*
Y111205D01*
X55548D01*
Y111009D01*
X55520D01*
Y110896D01*
X54449D01*
Y111068D01*
X54477D01*
Y111264D01*
X54505D01*
Y111461D01*
X54533D01*
Y111658D01*
X54561D01*
Y111826D01*
X54590D01*
Y112023D01*
X54618D01*
Y112220D01*
X54646D01*
Y112416D01*
X54674D01*
Y112613D01*
X54702D01*
Y112810D01*
X54730D01*
Y113006D01*
X54758D01*
Y113175D01*
X54786D01*
Y113372D01*
X54814D01*
Y113568D01*
X54842D01*
Y113765D01*
X54871D01*
Y113875D01*
X54842D01*
Y113903D01*
X54814D01*
Y113931D01*
X54786D01*
Y113987D01*
X54758D01*
Y114015D01*
X54730D01*
Y114043D01*
X54702D01*
Y114074D01*
G37*
G36*
G01X61109D02*
X64203D01*
Y114046D01*
X64287D01*
Y114018D01*
X64343D01*
Y113990D01*
X64371D01*
Y113962D01*
X64399D01*
Y113934D01*
X64427D01*
Y113906D01*
X64455D01*
Y113793D01*
X64484D01*
Y113734D01*
X64455D01*
Y113538D01*
X64427D01*
Y113341D01*
X64399D01*
Y113116D01*
X64371D01*
Y112919D01*
X64343D01*
Y112695D01*
X64315D01*
Y112498D01*
X64287D01*
Y112301D01*
X64259D01*
Y112076D01*
X64231D01*
Y111880D01*
X64203D01*
Y111655D01*
X64174D01*
Y111458D01*
X64146D01*
Y111233D01*
X64118D01*
Y111037D01*
X64090D01*
Y110896D01*
X60912D01*
Y110924D01*
X60856D01*
Y110952D01*
X60828D01*
Y110980D01*
X60800D01*
Y111009D01*
X60772D01*
Y111037D01*
X60743D01*
Y111121D01*
X60715D01*
Y111208D01*
X60743D01*
Y111405D01*
X60772D01*
Y111630D01*
X60800D01*
Y111826D01*
X60828D01*
Y112051D01*
X60856D01*
Y112248D01*
X60884D01*
Y112473D01*
X60912D01*
Y112669D01*
X60940D01*
Y112866D01*
X60968D01*
Y113091D01*
X60996D01*
Y113287D01*
X61024D01*
Y113512D01*
X61053D01*
Y113709D01*
X61081D01*
Y113934D01*
X61109D01*
Y114074D01*
G37*
G36*
G01X68021D02*
X68923D01*
Y113847D01*
X68895D01*
Y113650D01*
X68867D01*
Y113453D01*
X68839D01*
Y113228D01*
X68811D01*
Y113032D01*
X68783D01*
Y112835D01*
X68755D01*
Y112610D01*
X68727D01*
Y112414D01*
X68699D01*
Y112189D01*
X68670D01*
Y111992D01*
X68642D01*
Y111795D01*
X68614D01*
Y111571D01*
X68586D01*
Y111374D01*
X68558D01*
Y111177D01*
X68530D01*
Y110952D01*
X68502D01*
Y110896D01*
X67403D01*
Y110952D01*
X67375D01*
Y111009D01*
X67347D01*
Y111037D01*
X67319D01*
Y111093D01*
X67291D01*
Y111149D01*
X67263D01*
Y111205D01*
X67235D01*
Y111261D01*
X67206D01*
Y111290D01*
X67178D01*
Y111346D01*
X67150D01*
Y111402D01*
X67122D01*
Y111458D01*
X67094D01*
Y111514D01*
X67066D01*
Y111542D01*
X67038D01*
Y111599D01*
X67010D01*
Y111655D01*
X66982D01*
Y111711D01*
X66954D01*
Y111767D01*
X66925D01*
Y111795D01*
X66897D01*
Y111852D01*
X66869D01*
Y111908D01*
X66841D01*
Y111964D01*
X66813D01*
Y112020D01*
X66785D01*
Y112048D01*
X66757D01*
Y112104D01*
X66729D01*
Y112161D01*
X66701D01*
Y112217D01*
X66673D01*
Y112273D01*
X66644D01*
Y112301D01*
X66616D01*
Y112357D01*
X66588D01*
Y112414D01*
X66560D01*
Y112470D01*
X66532D01*
Y112526D01*
X66504D01*
Y112554D01*
X66476D01*
Y112610D01*
X66448D01*
Y112666D01*
X66420D01*
Y112723D01*
X66392D01*
Y112779D01*
X66363D01*
Y112807D01*
X66338D01*
Y112666D01*
X66310D01*
Y112470D01*
X66282D01*
Y112245D01*
X66254D01*
Y112048D01*
X66226D01*
Y111852D01*
X66198D01*
Y111655D01*
X66170D01*
Y111430D01*
X66141D01*
Y111233D01*
X66113D01*
Y111037D01*
X66085D01*
Y110896D01*
X65099D01*
Y110955D01*
X65127D01*
Y111152D01*
X65155D01*
Y111349D01*
X65183D01*
Y111545D01*
X65211D01*
Y111742D01*
X65239D01*
Y111911D01*
X65268D01*
Y112107D01*
X65296D01*
Y112304D01*
X65324D01*
Y112501D01*
X65352D01*
Y112697D01*
X65380D01*
Y112894D01*
X65408D01*
Y113091D01*
X65436D01*
Y113259D01*
X65464D01*
Y113456D01*
X65492D01*
Y113653D01*
X65520D01*
Y113875D01*
X65492D01*
Y113903D01*
X65464D01*
Y113931D01*
X65436D01*
Y113959D01*
X65408D01*
Y113987D01*
X65380D01*
Y114015D01*
X65352D01*
Y114043D01*
X65324D01*
Y114074D01*
X66619D01*
Y114046D01*
X66647D01*
Y113990D01*
X66675D01*
Y113934D01*
X66703D01*
Y113878D01*
X66732D01*
Y113849D01*
X66760D01*
Y113793D01*
X66788D01*
Y113737D01*
X66816D01*
Y113681D01*
X66844D01*
Y113653D01*
X66872D01*
Y113597D01*
X66900D01*
Y113540D01*
X66928D01*
Y113484D01*
X66956D01*
Y113428D01*
X66984D01*
Y113400D01*
X67013D01*
Y113344D01*
X67041D01*
Y113287D01*
X67069D01*
Y113231D01*
X67097D01*
Y113203D01*
X67125D01*
Y113147D01*
X67153D01*
Y113091D01*
X67181D01*
Y113035D01*
X67209D01*
Y113006D01*
X67237D01*
Y112950D01*
X67265D01*
Y112894D01*
X67294D01*
Y112838D01*
X67322D01*
Y112810D01*
X67350D01*
Y112754D01*
X67378D01*
Y112697D01*
X67406D01*
Y112641D01*
X67434D01*
Y112585D01*
X67462D01*
Y112557D01*
X67490D01*
Y112501D01*
X67518D01*
Y112444D01*
X67546D01*
Y112388D01*
X67575D01*
Y112360D01*
X67603D01*
Y112304D01*
X67631D01*
Y112248D01*
X67659D01*
Y112192D01*
X67687D01*
Y112163D01*
X67715D01*
Y112107D01*
X67740D01*
Y112135D01*
X67768D01*
Y112360D01*
X67797D01*
Y112557D01*
X67825D01*
Y112782D01*
X67853D01*
Y112978D01*
X67881D01*
Y113175D01*
X67909D01*
Y113400D01*
X67937D01*
Y113597D01*
X67965D01*
Y113793D01*
X67993D01*
Y114018D01*
X68021D01*
Y114074D01*
G37*
G36*
G01X59395Y114383D02*
X60156D01*
Y114324D01*
X60128D01*
Y114240D01*
X60100D01*
Y114128D01*
X60072D01*
Y114015D01*
X60044D01*
Y113903D01*
X60016D01*
Y113790D01*
X59988D01*
Y113678D01*
X59959D01*
Y113594D01*
X59931D01*
Y113481D01*
X59903D01*
Y113369D01*
X59875D01*
Y113257D01*
X59847D01*
Y113144D01*
X59819D01*
Y113060D01*
X59791D01*
Y112947D01*
X59763D01*
Y112835D01*
X59735D01*
Y112723D01*
X59707D01*
Y112610D01*
X59678D01*
Y112526D01*
X59650D01*
Y112414D01*
X59622D01*
Y112301D01*
X59594D01*
Y112189D01*
X59566D01*
Y112076D01*
X59538D01*
Y111992D01*
X59510D01*
Y111880D01*
X59482D01*
Y111767D01*
X59454D01*
Y111655D01*
X59426D01*
Y111542D01*
X59397D01*
Y111430D01*
X59369D01*
Y111346D01*
X59341D01*
Y111233D01*
X59313D01*
Y111121D01*
X59285D01*
Y111009D01*
X59257D01*
Y110896D01*
X58495D01*
Y110983D01*
X58524D01*
Y111096D01*
X58552D01*
Y111208D01*
X58580D01*
Y111320D01*
X58608D01*
Y111433D01*
X58636D01*
Y111545D01*
X58664D01*
Y111630D01*
X58692D01*
Y111742D01*
X58720D01*
Y111854D01*
X58748D01*
Y111967D01*
X58776D01*
Y112079D01*
X58805D01*
Y112163D01*
X58833D01*
Y112276D01*
X58861D01*
Y112388D01*
X58889D01*
Y112501D01*
X58917D01*
Y112613D01*
X58945D01*
Y112697D01*
X58973D01*
Y112810D01*
X59001D01*
Y112922D01*
X59029D01*
Y113035D01*
X59057D01*
Y113147D01*
X59086D01*
Y113231D01*
X59114D01*
Y113344D01*
X59142D01*
Y113456D01*
X59170D01*
Y113568D01*
X59198D01*
Y113681D01*
X59226D01*
Y113765D01*
X59254D01*
Y113878D01*
X59282D01*
Y113990D01*
X59310D01*
Y114102D01*
X59338D01*
Y114215D01*
X59367D01*
Y114299D01*
X59395D01*
Y114383D01*
G37*
G36*
G01X86186Y46849D02*
X87346D01*
X86186Y45689D01*
Y46849D01*
G37*
G36*
G01X115233Y12313D02*
X117054D01*
Y12247D01*
X117038D01*
Y12102D01*
X117022D01*
Y11973D01*
X117006D01*
Y11828D01*
X116990D01*
Y11780D01*
X116376D01*
Y11862D01*
X116392D01*
Y11975D01*
X116408D01*
Y12005D01*
X115814D01*
Y11941D01*
X115798D01*
Y11861D01*
X115782D01*
Y11780D01*
X115766D01*
Y11716D01*
X115750D01*
Y11635D01*
X115734D01*
Y11555D01*
X115718D01*
Y11540D01*
X116957D01*
Y11458D01*
X116941D01*
Y11361D01*
X116925D01*
Y11249D01*
X116909D01*
Y11136D01*
X116893D01*
Y11023D01*
X116877D01*
Y10911D01*
X116861D01*
Y10814D01*
X116845D01*
Y10701D01*
X116829D01*
Y10621D01*
X116812D01*
Y10589D01*
X116796D01*
Y10573D01*
X116780D01*
Y10556D01*
X116764D01*
Y10540D01*
X116748D01*
Y10524D01*
X116716D01*
Y10508D01*
X116684D01*
Y10492D01*
X114975D01*
Y10510D01*
X114992D01*
Y10639D01*
X115008D01*
Y10767D01*
X115024D01*
Y10896D01*
X115040D01*
Y10944D01*
X115074D01*
Y10928D01*
X115090D01*
Y10912D01*
X115106D01*
Y10880D01*
X115122D01*
Y10864D01*
X116247D01*
Y10896D01*
X116263D01*
Y10993D01*
X116280D01*
Y11089D01*
X116296D01*
Y11186D01*
X116312D01*
Y11233D01*
X115072D01*
Y11266D01*
X115088D01*
Y11379D01*
X115104D01*
Y11492D01*
X115120D01*
Y11604D01*
X115136D01*
Y11717D01*
X115153D01*
Y11830D01*
X115169D01*
Y11943D01*
X115185D01*
Y12055D01*
X115201D01*
Y12168D01*
X115217D01*
Y12281D01*
X115233D01*
Y12313D01*
G37*
G36*
G01X119500D02*
X120242D01*
Y12279D01*
X120226D01*
Y12166D01*
X120210D01*
Y12054D01*
X120193D01*
Y11941D01*
X120177D01*
Y11828D01*
X120161D01*
Y11716D01*
X120145D01*
Y11603D01*
X120129D01*
Y11490D01*
X120113D01*
Y11377D01*
X120097D01*
Y11265D01*
X120081D01*
Y11152D01*
X120065D01*
Y11039D01*
X120049D01*
Y10927D01*
X120032D01*
Y10814D01*
X120016D01*
Y10799D01*
X121224D01*
Y10685D01*
X121208D01*
Y10508D01*
X121192D01*
Y10492D01*
X119500D01*
Y10508D01*
X119483D01*
Y10524D01*
X119467D01*
Y10540D01*
X119451D01*
Y10556D01*
X119435D01*
Y10589D01*
X119419D01*
Y10637D01*
X119403D01*
Y10767D01*
X119419D01*
Y10896D01*
X119435D01*
Y11025D01*
X119451D01*
Y11154D01*
X119467D01*
Y11282D01*
X119483D01*
Y11411D01*
X119500D01*
Y11540D01*
X119516D01*
Y11669D01*
X119532D01*
Y11798D01*
X119548D01*
Y11926D01*
X119564D01*
Y12055D01*
X119580D01*
Y12199D01*
X119564D01*
Y12231D01*
X119548D01*
Y12247D01*
X119532D01*
Y12263D01*
X119516D01*
Y12295D01*
X119500D01*
Y12313D01*
G37*
G36*
G01X114428Y12329D02*
X114639D01*
Y12295D01*
X114623D01*
Y12183D01*
X114607D01*
Y12054D01*
X114591D01*
Y11941D01*
X114575D01*
Y11828D01*
X114558D01*
Y11716D01*
X114542D01*
Y11603D01*
X114526D01*
Y11490D01*
X114510D01*
Y11361D01*
X114494D01*
Y11249D01*
X114478D01*
Y11136D01*
X114462D01*
Y11023D01*
X114446D01*
Y10911D01*
X114430D01*
Y10798D01*
X114414D01*
Y10685D01*
X114397D01*
Y10556D01*
X114381D01*
Y10492D01*
X113768D01*
Y10558D01*
X113784D01*
Y10671D01*
X113800D01*
Y10799D01*
X113816D01*
Y10912D01*
X113832D01*
Y11025D01*
X113848D01*
Y11138D01*
X113865D01*
Y11250D01*
X113881D01*
Y11363D01*
X113897D01*
Y11476D01*
X113913D01*
Y11588D01*
X113929D01*
Y11701D01*
X113945D01*
Y11814D01*
X113961D01*
Y11925D01*
X113898D01*
Y11909D01*
X113786D01*
Y11893D01*
X113720D01*
Y11975D01*
X113736D01*
Y12087D01*
X113752D01*
Y12200D01*
X113768D01*
Y12232D01*
X113865D01*
Y12248D01*
X113977D01*
Y12265D01*
X114090D01*
Y12281D01*
X114203D01*
Y12297D01*
X114315D01*
Y12313D01*
X114428D01*
Y12329D01*
G37*
G36*
G01X116327Y9100D02*
X118019D01*
Y9018D01*
X118003D01*
Y8905D01*
X117987D01*
Y8792D01*
X117971D01*
Y8680D01*
X117954D01*
Y8567D01*
X117938D01*
Y8454D01*
X117922D01*
Y8326D01*
X117906D01*
Y8213D01*
X117890D01*
Y8100D01*
X117874D01*
Y7987D01*
X117858D01*
Y7875D01*
X117842D01*
Y7762D01*
X117826D01*
Y7633D01*
X117810D01*
Y7520D01*
X117793D01*
Y7440D01*
X117777D01*
Y7408D01*
X117761D01*
Y7376D01*
X117745D01*
Y7359D01*
X117729D01*
Y7343D01*
X117713D01*
Y7327D01*
X117697D01*
Y7311D01*
X117665D01*
Y7295D01*
X117632D01*
Y7279D01*
X115940D01*
Y7393D01*
X115956D01*
Y7506D01*
X115973D01*
Y7619D01*
X115989D01*
Y7747D01*
X116005D01*
Y7860D01*
X116021D01*
Y7973D01*
X116037D01*
Y8086D01*
X116053D01*
Y8198D01*
X116069D01*
Y8311D01*
X116085D01*
Y8440D01*
X116101D01*
Y8552D01*
X116117D01*
Y8665D01*
X116134D01*
Y8778D01*
X116150D01*
Y8891D01*
X116166D01*
Y8939D01*
X116182D01*
Y8987D01*
X116198D01*
Y9003D01*
X116214D01*
Y9019D01*
X116230D01*
Y9035D01*
X116246D01*
Y9052D01*
X116262D01*
Y9068D01*
X116295D01*
Y9084D01*
X116327D01*
Y9100D01*
G37*
G36*
G01X113735Y9116D02*
X115572D01*
Y9050D01*
X115556D01*
Y8937D01*
X115539D01*
Y8825D01*
X115523D01*
Y8696D01*
X115507D01*
Y8583D01*
X115491D01*
Y8470D01*
X115475D01*
Y8358D01*
X115459D01*
Y8245D01*
X115443D01*
Y8132D01*
X115427D01*
Y8020D01*
X115411D01*
Y8003D01*
X114139D01*
Y7987D01*
X114123D01*
Y7875D01*
X114107D01*
Y7746D01*
X114090D01*
Y7633D01*
X114074D01*
Y7586D01*
X115248D01*
Y7603D01*
X115280D01*
Y7619D01*
X115296D01*
Y7635D01*
X115312D01*
Y7651D01*
X115329D01*
Y7667D01*
X115345D01*
Y7683D01*
X115378D01*
Y7665D01*
X115362D01*
Y7553D01*
X115346D01*
Y7440D01*
X115330D01*
Y7327D01*
X115314D01*
Y7279D01*
X113622D01*
Y7295D01*
X113590D01*
Y7311D01*
X113574D01*
Y7327D01*
X113558D01*
Y7343D01*
X113541D01*
Y7359D01*
X113525D01*
Y7392D01*
X113509D01*
Y7554D01*
X113525D01*
Y7667D01*
X113541D01*
Y7780D01*
X113558D01*
Y7892D01*
X113574D01*
Y8005D01*
X113590D01*
Y8118D01*
X113606D01*
Y8230D01*
X113622D01*
Y8311D01*
X114846D01*
Y8359D01*
X114862D01*
Y8472D01*
X114878D01*
Y8585D01*
X114894D01*
Y8697D01*
X114910D01*
Y8809D01*
X114300D01*
Y8696D01*
X114284D01*
Y8567D01*
X114268D01*
Y8551D01*
X113654D01*
Y8569D01*
X113670D01*
Y8681D01*
X113686D01*
Y8794D01*
X113702D01*
Y8907D01*
X113719D01*
Y9019D01*
X113735D01*
Y9116D01*
G37*
G36*
G01X118613D02*
X120450D01*
Y9066D01*
X120434D01*
Y8953D01*
X120418D01*
Y8841D01*
X120402D01*
Y8728D01*
X120386D01*
Y8599D01*
X120369D01*
Y8487D01*
X120353D01*
Y8374D01*
X120337D01*
Y8261D01*
X120321D01*
Y8148D01*
X120305D01*
Y8036D01*
X120289D01*
Y8003D01*
X119001D01*
Y7891D01*
X118985D01*
Y7778D01*
X118969D01*
Y7649D01*
X118953D01*
Y7586D01*
X120126D01*
Y7603D01*
X120142D01*
Y7619D01*
X120159D01*
Y7635D01*
X120191D01*
Y7651D01*
X120207D01*
Y7667D01*
X120241D01*
Y7569D01*
X120225D01*
Y7456D01*
X120208D01*
Y7343D01*
X120192D01*
Y7279D01*
X118484D01*
Y7295D01*
X118468D01*
Y7311D01*
X118436D01*
Y7327D01*
X118420D01*
Y7359D01*
X118404D01*
Y7392D01*
X118388D01*
Y7554D01*
X118404D01*
Y7683D01*
X118420D01*
Y7796D01*
X118436D01*
Y7908D01*
X118452D01*
Y8021D01*
X118468D01*
Y8134D01*
X118484D01*
Y8247D01*
X118500D01*
Y8311D01*
X119724D01*
Y8375D01*
X119740D01*
Y8488D01*
X119756D01*
Y8601D01*
X119772D01*
Y8713D01*
X119788D01*
Y8809D01*
X119178D01*
Y8728D01*
X119162D01*
Y8583D01*
X119146D01*
Y8551D01*
X118532D01*
Y8585D01*
X118549D01*
Y8697D01*
X118565D01*
Y8810D01*
X118581D01*
Y8923D01*
X118597D01*
Y9035D01*
X118613D01*
Y9116D01*
G37*
G36*
G01X113508Y18583D02*
X118484D01*
Y18339D01*
X118444D01*
Y18018D01*
X118404D01*
Y17697D01*
X118364D01*
Y17336D01*
X118324D01*
Y17015D01*
X118284D01*
Y16694D01*
X118244D01*
Y16374D01*
X118204D01*
Y16093D01*
X118164D01*
Y15973D01*
X118124D01*
Y15892D01*
X118083D01*
Y15852D01*
X118043D01*
Y15812D01*
X118003D01*
Y15772D01*
X117963D01*
Y15732D01*
X117923D01*
Y15692D01*
X117883D01*
Y15652D01*
X117803D01*
Y15612D01*
X117723D01*
Y15572D01*
X114875D01*
Y15451D01*
X114835D01*
Y15171D01*
X114795D01*
Y14890D01*
X114755D01*
Y14649D01*
X114715D01*
Y14369D01*
X114675D01*
Y14088D01*
X114635D01*
Y14048D01*
X113187D01*
Y14252D01*
X113227D01*
Y14573D01*
X113267D01*
Y14894D01*
X113308D01*
Y15215D01*
X113348D01*
Y15536D01*
X113388D01*
Y15856D01*
X113428D01*
Y16177D01*
X113468D01*
Y16498D01*
X113508D01*
Y16819D01*
X113548D01*
Y17140D01*
X113588D01*
Y17460D01*
X113628D01*
Y17781D01*
X113668D01*
Y18102D01*
X113709D01*
Y18379D01*
X113668D01*
Y18419D01*
X113628D01*
Y18459D01*
X113588D01*
Y18499D01*
X113548D01*
Y18539D01*
X113508D01*
Y18583D01*
G37*
G36*
G01X119643D02*
X124820D01*
Y18379D01*
X124780D01*
Y18098D01*
X124740D01*
Y17777D01*
X124700D01*
Y17496D01*
X124660D01*
Y17216D01*
X124620D01*
Y16895D01*
X124580D01*
Y16614D01*
X124540D01*
Y16334D01*
X124499D01*
Y16013D01*
X124459D01*
Y15732D01*
X124419D01*
Y15411D01*
X124379D01*
Y15131D01*
X124339D01*
Y14850D01*
X124299D01*
Y14529D01*
X124259D01*
Y14369D01*
X124219D01*
Y14288D01*
X124179D01*
Y14248D01*
X124139D01*
Y14208D01*
X124098D01*
Y14168D01*
X124058D01*
Y14128D01*
X123978D01*
Y14088D01*
X123898D01*
Y14048D01*
X119363D01*
Y14252D01*
X119403D01*
Y14573D01*
X119443D01*
Y14894D01*
X119483D01*
Y15215D01*
X119523D01*
Y15536D01*
X119563D01*
Y15856D01*
X119603D01*
Y16177D01*
X119643D01*
Y16498D01*
X119683D01*
Y16819D01*
X119724D01*
Y17099D01*
X119764D01*
Y17420D01*
X119804D01*
Y17741D01*
X119844D01*
Y18062D01*
X119884D01*
Y18298D01*
X119844D01*
Y18339D01*
X119804D01*
Y18419D01*
X119764D01*
Y18459D01*
X119724D01*
Y18499D01*
X119683D01*
Y18539D01*
X119643D01*
Y18583D01*
G37*
G36*
G01X122720Y11395D02*
X123832D01*
Y11361D01*
X123816D01*
Y11265D01*
X123800D01*
Y11168D01*
X123784D01*
Y11072D01*
X122671D01*
Y11089D01*
X122687D01*
Y11202D01*
X122703D01*
Y11299D01*
X122720D01*
Y11395D01*
G37*
G36*
G01X121609Y11846D02*
X122319D01*
Y11796D01*
X122303D01*
Y11667D01*
X122286D01*
Y11555D01*
X122270D01*
Y11442D01*
X122254D01*
Y11313D01*
X122238D01*
Y11200D01*
X122222D01*
Y11088D01*
X122206D01*
Y10975D01*
X122190D01*
Y10846D01*
X122174D01*
Y10733D01*
X122158D01*
Y10621D01*
X122142D01*
Y10492D01*
X121512D01*
Y10542D01*
X121528D01*
Y10655D01*
X121544D01*
Y10767D01*
X121560D01*
Y10880D01*
X121576D01*
Y10977D01*
X121593D01*
Y11089D01*
X121609D01*
Y11202D01*
X121625D01*
Y11315D01*
X121641D01*
Y11427D01*
X121657D01*
Y11524D01*
X121673D01*
Y11637D01*
X121689D01*
Y11764D01*
X121673D01*
Y11780D01*
X121657D01*
Y11796D01*
X121641D01*
Y11812D01*
X121625D01*
Y11828D01*
X121609D01*
Y11846D01*
G37*
G36*
G01X124297D02*
X125732D01*
Y11830D01*
X125780D01*
Y11814D01*
X125796D01*
Y11798D01*
X125812D01*
Y11782D01*
X125828D01*
Y11765D01*
X125845D01*
Y11717D01*
X125861D01*
Y11685D01*
X125877D01*
Y11522D01*
X125861D01*
Y11410D01*
X125845D01*
Y11297D01*
X125828D01*
Y11168D01*
X125812D01*
Y11055D01*
X125796D01*
Y10943D01*
X125780D01*
Y10830D01*
X125764D01*
Y10717D01*
X125748D01*
Y10589D01*
X125732D01*
Y10492D01*
X124249D01*
Y10508D01*
X124217D01*
Y10524D01*
X124201D01*
Y10540D01*
X124185D01*
Y10573D01*
X124169D01*
Y10605D01*
X124152D01*
Y10816D01*
X124169D01*
Y10928D01*
X124185D01*
Y11057D01*
X124201D01*
Y11170D01*
X124217D01*
Y11299D01*
X124233D01*
Y11411D01*
X124249D01*
Y11524D01*
X124265D01*
Y11653D01*
X124281D01*
Y11765D01*
X124297D01*
Y11846D01*
G37*
G36*
G01X126294D02*
X127986D01*
Y11748D01*
X127970D01*
Y11635D01*
X127954D01*
Y11522D01*
X127938D01*
Y11410D01*
X127921D01*
Y11281D01*
X127905D01*
Y11168D01*
X127889D01*
Y11055D01*
X127873D01*
Y10927D01*
X127857D01*
Y10814D01*
X127841D01*
Y10701D01*
X127825D01*
Y10573D01*
X127809D01*
Y10492D01*
X127179D01*
Y10510D01*
X127195D01*
Y10622D01*
X127211D01*
Y10735D01*
X127228D01*
Y10848D01*
X127244D01*
Y10944D01*
X127260D01*
Y11057D01*
X127276D01*
Y11170D01*
X127292D01*
Y11282D01*
X127308D01*
Y11379D01*
X127324D01*
Y11492D01*
X127340D01*
Y11539D01*
X126972D01*
Y11490D01*
X126955D01*
Y11377D01*
X126939D01*
Y11281D01*
X126923D01*
Y11168D01*
X126907D01*
Y11055D01*
X126891D01*
Y10943D01*
X126875D01*
Y10846D01*
X126859D01*
Y10733D01*
X126843D01*
Y10621D01*
X126827D01*
Y10508D01*
X126811D01*
Y10492D01*
X126197D01*
Y10558D01*
X126213D01*
Y10671D01*
X126229D01*
Y10767D01*
X126245D01*
Y10880D01*
X126262D01*
Y10993D01*
X126278D01*
Y11105D01*
X126294D01*
Y11202D01*
X126310D01*
Y11315D01*
X126326D01*
Y11427D01*
X126342D01*
Y11540D01*
X126358D01*
Y11637D01*
X126374D01*
Y11764D01*
X126358D01*
Y11780D01*
X126342D01*
Y11796D01*
X126326D01*
Y11812D01*
X126310D01*
Y11828D01*
X126294D01*
Y11846D01*
G37*
G36*
G01X121754Y12313D02*
X122383D01*
Y12279D01*
X122367D01*
Y12183D01*
X122351D01*
Y12086D01*
X122335D01*
Y11989D01*
X122319D01*
Y11941D01*
X121721D01*
Y11959D01*
X121737D01*
Y12152D01*
X121754D01*
Y12313D01*
G37*
G36*
G01X130448D02*
X132510D01*
Y12215D01*
X132494D01*
Y12086D01*
X132478D01*
Y11957D01*
X132462D01*
Y11844D01*
X132446D01*
Y11716D01*
X132429D01*
Y11587D01*
X132413D01*
Y11555D01*
X132397D01*
Y11539D01*
X132365D01*
Y11522D01*
X132349D01*
Y11506D01*
X132317D01*
Y11490D01*
X132285D01*
Y11474D01*
X132268D01*
Y11458D01*
X132236D01*
Y11427D01*
X132268D01*
Y11411D01*
X132285D01*
Y11395D01*
X132301D01*
Y11379D01*
X132317D01*
Y11363D01*
X132349D01*
Y11347D01*
X132365D01*
Y11331D01*
X132381D01*
Y11217D01*
X132365D01*
Y11120D01*
X132349D01*
Y11007D01*
X132333D01*
Y10911D01*
X132317D01*
Y10798D01*
X132301D01*
Y10701D01*
X132285D01*
Y10653D01*
X132268D01*
Y10621D01*
X132252D01*
Y10589D01*
X132236D01*
Y10573D01*
X132220D01*
Y10556D01*
X132204D01*
Y10540D01*
X132188D01*
Y10524D01*
X132172D01*
Y10508D01*
X132140D01*
Y10492D01*
X130319D01*
Y10574D01*
X130335D01*
Y10703D01*
X130351D01*
Y10832D01*
X130367D01*
Y10961D01*
X130383D01*
Y11089D01*
X130399D01*
Y11218D01*
X130415D01*
Y11347D01*
X130431D01*
Y11460D01*
X130448D01*
Y11588D01*
X130464D01*
Y11717D01*
X130480D01*
Y11846D01*
X130496D01*
Y11975D01*
X130512D01*
Y12104D01*
X130528D01*
Y12199D01*
X130512D01*
Y12215D01*
X130496D01*
Y12247D01*
X130480D01*
Y12263D01*
X130464D01*
Y12279D01*
X130448D01*
Y12313D01*
G37*
G36*
G01X133490D02*
X134764D01*
Y12200D01*
X134780D01*
Y12071D01*
X134796D01*
Y11959D01*
X134812D01*
Y11830D01*
X134828D01*
Y11717D01*
X134844D01*
Y11588D01*
X134861D01*
Y11476D01*
X134877D01*
Y11363D01*
X134893D01*
Y11234D01*
X134909D01*
Y11121D01*
X134925D01*
Y10993D01*
X134941D01*
Y10880D01*
X134957D01*
Y10751D01*
X134973D01*
Y10639D01*
X134989D01*
Y10510D01*
X135005D01*
Y10492D01*
X134440D01*
Y10589D01*
X134424D01*
Y10717D01*
X134408D01*
Y10846D01*
X134392D01*
Y10959D01*
X134376D01*
Y10975D01*
X133605D01*
Y10943D01*
X133589D01*
Y10911D01*
X133573D01*
Y10878D01*
X133556D01*
Y10830D01*
X133540D01*
Y10798D01*
X133524D01*
Y10766D01*
X133508D01*
Y10733D01*
X133492D01*
Y10685D01*
X133476D01*
Y10653D01*
X133460D01*
Y10621D01*
X133444D01*
Y10573D01*
X133428D01*
Y10540D01*
X133412D01*
Y10508D01*
X133395D01*
Y10492D01*
X132879D01*
Y10526D01*
X132895D01*
Y10574D01*
X132911D01*
Y10606D01*
X132927D01*
Y10655D01*
X132943D01*
Y10687D01*
X132959D01*
Y10719D01*
X132975D01*
Y10767D01*
X132991D01*
Y10799D01*
X133007D01*
Y10848D01*
X133024D01*
Y10880D01*
X133040D01*
Y10928D01*
X133056D01*
Y10961D01*
X133072D01*
Y10993D01*
X133088D01*
Y11041D01*
X133104D01*
Y11073D01*
X133120D01*
Y11121D01*
X133136D01*
Y11154D01*
X133152D01*
Y11202D01*
X133168D01*
Y11234D01*
X133185D01*
Y11266D01*
X133201D01*
Y11315D01*
X133217D01*
Y11347D01*
X133233D01*
Y11395D01*
X133249D01*
Y11427D01*
X133265D01*
Y11476D01*
X133281D01*
Y11508D01*
X133297D01*
Y11556D01*
X133313D01*
Y11588D01*
X133329D01*
Y11621D01*
X133346D01*
Y11669D01*
X133362D01*
Y11701D01*
X133378D01*
Y11749D01*
X133394D01*
Y11782D01*
X133410D01*
Y11830D01*
X133426D01*
Y11862D01*
X133442D01*
Y11894D01*
X133458D01*
Y11943D01*
X133474D01*
Y11975D01*
X133490D01*
Y12023D01*
X133507D01*
Y12055D01*
X133523D01*
Y12104D01*
X133539D01*
Y12136D01*
X133555D01*
Y12168D01*
X133571D01*
Y12231D01*
X133555D01*
Y12247D01*
X133539D01*
Y12263D01*
X133523D01*
Y12279D01*
X133507D01*
Y12295D01*
X133490D01*
Y12313D01*
G37*
G36*
G01X135390D02*
X137372D01*
Y12295D01*
X137356D01*
Y12215D01*
X137340D01*
Y12134D01*
X137324D01*
Y12054D01*
X137308D01*
Y12005D01*
X136648D01*
Y11893D01*
X136632D01*
Y11780D01*
X136615D01*
Y11667D01*
X136599D01*
Y11555D01*
X136583D01*
Y11442D01*
X136567D01*
Y11329D01*
X136551D01*
Y11217D01*
X136535D01*
Y11104D01*
X136519D01*
Y10991D01*
X136503D01*
Y10878D01*
X136487D01*
Y10766D01*
X136471D01*
Y10653D01*
X136454D01*
Y10540D01*
X136438D01*
Y10492D01*
X135825D01*
Y10590D01*
X135841D01*
Y10703D01*
X135857D01*
Y10816D01*
X135873D01*
Y10928D01*
X135889D01*
Y11041D01*
X135905D01*
Y11154D01*
X135922D01*
Y11266D01*
X135938D01*
Y11379D01*
X135954D01*
Y11492D01*
X135970D01*
Y11604D01*
X135986D01*
Y11717D01*
X136002D01*
Y11830D01*
X136018D01*
Y11943D01*
X136034D01*
Y12005D01*
X135358D01*
Y12087D01*
X135374D01*
Y12248D01*
X135390D01*
Y12313D01*
G37*
G36*
G01X123137Y8182D02*
X124233D01*
Y8100D01*
X124217D01*
Y8003D01*
X124201D01*
Y7907D01*
X124185D01*
Y7859D01*
X123089D01*
Y7925D01*
X123105D01*
Y8021D01*
X123121D01*
Y8134D01*
X123137D01*
Y8182D01*
G37*
G36*
G01X129480D02*
X130593D01*
Y8148D01*
X130577D01*
Y8052D01*
X130561D01*
Y7955D01*
X130545D01*
Y7859D01*
X129432D01*
Y7876D01*
X129448D01*
Y7973D01*
X129464D01*
Y8069D01*
X129480D01*
Y8182D01*
G37*
G36*
G01X121962Y9100D02*
X122688D01*
Y9018D01*
X122672D01*
Y8905D01*
X122656D01*
Y8792D01*
X122640D01*
Y8680D01*
X122623D01*
Y8567D01*
X122607D01*
Y8454D01*
X122591D01*
Y8342D01*
X122575D01*
Y8213D01*
X122559D01*
Y8100D01*
X122543D01*
Y7987D01*
X122527D01*
Y7941D01*
X122768D01*
Y7859D01*
X122752D01*
Y7746D01*
X122736D01*
Y7633D01*
X122479D01*
Y7537D01*
X122462D01*
Y7408D01*
X122446D01*
Y7295D01*
X122430D01*
Y7279D01*
X121817D01*
Y7297D01*
X121833D01*
Y7409D01*
X121849D01*
Y7538D01*
X121865D01*
Y7633D01*
X120770D01*
Y7667D01*
X120786D01*
Y7780D01*
X120803D01*
Y7908D01*
X120819D01*
Y7973D01*
X120835D01*
Y8037D01*
X120851D01*
Y8086D01*
X120867D01*
Y8134D01*
X120883D01*
Y8198D01*
X120899D01*
Y8247D01*
X120915D01*
Y8295D01*
X120931D01*
Y8359D01*
X120947D01*
Y8408D01*
X120964D01*
Y8456D01*
X120980D01*
Y8520D01*
X120996D01*
Y8569D01*
X121012D01*
Y8617D01*
X121028D01*
Y8681D01*
X121044D01*
Y8730D01*
X121060D01*
Y8778D01*
X121076D01*
Y8842D01*
X121092D01*
Y8891D01*
X121108D01*
Y8939D01*
X121125D01*
Y9003D01*
X121141D01*
Y9034D01*
X121125D01*
Y9050D01*
X121108D01*
Y9066D01*
X121092D01*
Y9082D01*
X121076D01*
Y9100D01*
X121770D01*
Y9066D01*
X121754D01*
Y9002D01*
X121738D01*
Y8953D01*
X121722D01*
Y8889D01*
X121706D01*
Y8841D01*
X121690D01*
Y8776D01*
X121674D01*
Y8728D01*
X121657D01*
Y8664D01*
X121641D01*
Y8615D01*
X121625D01*
Y8567D01*
X121609D01*
Y8503D01*
X121593D01*
Y8454D01*
X121577D01*
Y8390D01*
X121561D01*
Y8342D01*
X121545D01*
Y8277D01*
X121529D01*
Y8229D01*
X121513D01*
Y8164D01*
X121496D01*
Y8116D01*
X121480D01*
Y8052D01*
X121464D01*
Y8003D01*
X121448D01*
Y7941D01*
X121913D01*
Y7989D01*
X121930D01*
Y8102D01*
X121946D01*
Y8214D01*
X121962D01*
Y8327D01*
X121978D01*
Y8440D01*
X121994D01*
Y8552D01*
X122010D01*
Y8681D01*
X122026D01*
Y8794D01*
X122042D01*
Y8907D01*
X122058D01*
Y9002D01*
X122042D01*
Y9018D01*
X122026D01*
Y9034D01*
X122010D01*
Y9050D01*
X121994D01*
Y9066D01*
X121978D01*
Y9082D01*
X121962D01*
Y9100D01*
G37*
G36*
G01X124972D02*
X126665D01*
Y9050D01*
X126648D01*
Y8937D01*
X126632D01*
Y8825D01*
X126616D01*
Y8712D01*
X126600D01*
Y8583D01*
X126584D01*
Y8470D01*
X126568D01*
Y8358D01*
X126552D01*
Y8245D01*
X126536D01*
Y8132D01*
X126520D01*
Y8020D01*
X126504D01*
Y7907D01*
X126487D01*
Y7778D01*
X126471D01*
Y7665D01*
X126455D01*
Y7553D01*
X126439D01*
Y7456D01*
X126423D01*
Y7424D01*
X126407D01*
Y7392D01*
X126391D01*
Y7359D01*
X126375D01*
Y7343D01*
X126359D01*
Y7327D01*
X126326D01*
Y7311D01*
X126310D01*
Y7295D01*
X126278D01*
Y7279D01*
X124570D01*
Y7313D01*
X124586D01*
Y7425D01*
X124602D01*
Y7538D01*
X124618D01*
Y7667D01*
X124634D01*
Y7780D01*
X124650D01*
Y7892D01*
X124667D01*
Y8005D01*
X124683D01*
Y8118D01*
X124699D01*
Y8230D01*
X124715D01*
Y8359D01*
X124731D01*
Y8472D01*
X124747D01*
Y8585D01*
X124763D01*
Y8697D01*
X124779D01*
Y8810D01*
X124795D01*
Y8907D01*
X124811D01*
Y8955D01*
X124828D01*
Y8987D01*
X124844D01*
Y9003D01*
X124860D01*
Y9019D01*
X124876D01*
Y9035D01*
X124892D01*
Y9052D01*
X124908D01*
Y9068D01*
X124940D01*
Y9084D01*
X124972D01*
Y9100D01*
G37*
G36*
G01X131316D02*
X133008D01*
Y9002D01*
X132992D01*
Y8873D01*
X132976D01*
Y8760D01*
X132960D01*
Y8648D01*
X132944D01*
Y8535D01*
X132927D01*
Y8422D01*
X132911D01*
Y8309D01*
X132895D01*
Y8181D01*
X132879D01*
Y8068D01*
X132863D01*
Y7955D01*
X132847D01*
Y7842D01*
X132831D01*
Y7730D01*
X132815D01*
Y7617D01*
X132799D01*
Y7504D01*
X132783D01*
Y7440D01*
X132766D01*
Y7408D01*
X132750D01*
Y7376D01*
X132734D01*
Y7359D01*
X132718D01*
Y7343D01*
X132702D01*
Y7327D01*
X132686D01*
Y7311D01*
X132654D01*
Y7295D01*
X132622D01*
Y7279D01*
X130929D01*
Y7361D01*
X130946D01*
Y7474D01*
X130962D01*
Y7603D01*
X130978D01*
Y7715D01*
X130994D01*
Y7828D01*
X131010D01*
Y7941D01*
X131026D01*
Y8053D01*
X131042D01*
Y8166D01*
X131058D01*
Y8295D01*
X131074D01*
Y8408D01*
X131090D01*
Y8520D01*
X131107D01*
Y8633D01*
X131123D01*
Y8746D01*
X131139D01*
Y8858D01*
X131155D01*
Y8939D01*
X131171D01*
Y8971D01*
X131187D01*
Y9003D01*
X131203D01*
Y9019D01*
X131219D01*
Y9035D01*
X131235D01*
Y9052D01*
X131251D01*
Y9068D01*
X131284D01*
Y9084D01*
X131316D01*
Y9100D01*
G37*
G36*
G01X127259Y9116D02*
X129096D01*
Y9098D01*
X129080D01*
Y8986D01*
X129063D01*
Y8873D01*
X129047D01*
Y8760D01*
X129031D01*
Y8631D01*
X129015D01*
Y8519D01*
X128999D01*
Y8406D01*
X128983D01*
Y8293D01*
X128967D01*
Y8181D01*
X128951D01*
Y8068D01*
X128935D01*
Y8003D01*
X127647D01*
Y7923D01*
X127631D01*
Y7810D01*
X127614D01*
Y7681D01*
X127598D01*
Y7586D01*
X128772D01*
Y7603D01*
X128788D01*
Y7619D01*
X128804D01*
Y7635D01*
X128820D01*
Y7651D01*
X128836D01*
Y7667D01*
X128886D01*
Y7601D01*
X128870D01*
Y7488D01*
X128854D01*
Y7376D01*
X128838D01*
Y7279D01*
X127130D01*
Y7295D01*
X127098D01*
Y7311D01*
X127082D01*
Y7327D01*
X127065D01*
Y7343D01*
X127049D01*
Y7376D01*
X127033D01*
Y7440D01*
X127017D01*
Y7474D01*
X127033D01*
Y7603D01*
X127049D01*
Y7715D01*
X127065D01*
Y7828D01*
X127082D01*
Y7941D01*
X127098D01*
Y8053D01*
X127114D01*
Y8166D01*
X127130D01*
Y8279D01*
X127146D01*
Y8311D01*
X128370D01*
Y8408D01*
X128386D01*
Y8520D01*
X128402D01*
Y8633D01*
X128418D01*
Y8746D01*
X128434D01*
Y8809D01*
X127824D01*
Y8760D01*
X127808D01*
Y8631D01*
X127792D01*
Y8551D01*
X127178D01*
Y8617D01*
X127194D01*
Y8730D01*
X127210D01*
Y8842D01*
X127226D01*
Y8955D01*
X127243D01*
Y9084D01*
X127259D01*
Y9116D01*
G37*
G36*
G01X134117D02*
X134312D01*
Y9066D01*
X134296D01*
Y8953D01*
X134280D01*
Y8825D01*
X134264D01*
Y8712D01*
X134248D01*
Y8599D01*
X134232D01*
Y8487D01*
X134215D01*
Y8374D01*
X134199D01*
Y8261D01*
X134183D01*
Y8148D01*
X134167D01*
Y8020D01*
X134151D01*
Y7907D01*
X134135D01*
Y7794D01*
X134119D01*
Y7681D01*
X134103D01*
Y7569D01*
X134087D01*
Y7456D01*
X134071D01*
Y7343D01*
X134054D01*
Y7279D01*
X133441D01*
Y7345D01*
X133457D01*
Y7458D01*
X133473D01*
Y7570D01*
X133489D01*
Y7683D01*
X133505D01*
Y7796D01*
X133522D01*
Y7908D01*
X133538D01*
Y8021D01*
X133554D01*
Y8134D01*
X133570D01*
Y8263D01*
X133586D01*
Y8375D01*
X133602D01*
Y8488D01*
X133618D01*
Y8601D01*
X133634D01*
Y8712D01*
X133571D01*
Y8696D01*
X133459D01*
Y8680D01*
X133393D01*
Y8746D01*
X133409D01*
Y8858D01*
X133425D01*
Y8971D01*
X133441D01*
Y9019D01*
X133538D01*
Y9035D01*
X133650D01*
Y9052D01*
X133763D01*
Y9068D01*
X133876D01*
Y9084D01*
X133988D01*
Y9100D01*
X134117D01*
Y9116D01*
G37*
G36*
G01X131032Y18583D02*
X135607D01*
Y18339D01*
X135567D01*
Y18058D01*
X135527D01*
Y17777D01*
X135487D01*
Y17496D01*
X135447D01*
Y17216D01*
X135407D01*
Y16935D01*
X135367D01*
Y16654D01*
X135326D01*
Y16374D01*
X135286D01*
Y16093D01*
X135246D01*
Y15812D01*
X135206D01*
Y15532D01*
X135166D01*
Y15251D01*
X135126D01*
Y14970D01*
X135086D01*
Y14689D01*
X135046D01*
Y14449D01*
X135006D01*
Y14369D01*
X134966D01*
Y14288D01*
X134925D01*
Y14248D01*
X134885D01*
Y14208D01*
X134845D01*
Y14168D01*
X134805D01*
Y14128D01*
X134725D01*
Y14088D01*
X134645D01*
Y14048D01*
X130430D01*
Y14333D01*
X130470D01*
Y14613D01*
X130510D01*
Y14814D01*
X133558D01*
Y14934D01*
X133598D01*
Y15215D01*
X133638D01*
Y15495D01*
X133678D01*
Y15776D01*
X133718D01*
Y16013D01*
X130992D01*
Y16177D01*
X131032D01*
Y16458D01*
X131072D01*
Y16739D01*
X131112D01*
Y16779D01*
X133839D01*
Y16939D01*
X133879D01*
Y17220D01*
X133919D01*
Y17500D01*
X133959D01*
Y17781D01*
X133999D01*
Y17857D01*
X130952D01*
Y18062D01*
X130992D01*
Y18343D01*
X131032D01*
Y18583D01*
G37*
G36*
G01X137488D02*
X141702D01*
Y18339D01*
X141662D01*
Y18058D01*
X141622D01*
Y17777D01*
X141582D01*
Y17496D01*
X141542D01*
Y17176D01*
X141502D01*
Y16895D01*
X141462D01*
Y16614D01*
X141422D01*
Y16334D01*
X141382D01*
Y16053D01*
X141341D01*
Y15772D01*
X141301D01*
Y15451D01*
X141261D01*
Y15171D01*
X141221D01*
Y14890D01*
X141181D01*
Y14609D01*
X141141D01*
Y14449D01*
X141101D01*
Y14369D01*
X141061D01*
Y14288D01*
X141021D01*
Y14248D01*
X140981D01*
Y14208D01*
X140940D01*
Y14168D01*
X140900D01*
Y14128D01*
X140820D01*
Y14088D01*
X140740D01*
Y14048D01*
X136525D01*
Y14292D01*
X136566D01*
Y14573D01*
X136606D01*
Y14894D01*
X136646D01*
Y15175D01*
X136686D01*
Y15455D01*
X136726D01*
Y15736D01*
X136766D01*
Y16017D01*
X136806D01*
Y16297D01*
X136846D01*
Y16578D01*
X136886D01*
Y16899D01*
X136926D01*
Y17180D01*
X136967D01*
Y17460D01*
X137007D01*
Y17741D01*
X137047D01*
Y18022D01*
X137087D01*
Y18182D01*
X137127D01*
Y18262D01*
X137167D01*
Y18343D01*
X137207D01*
Y18383D01*
X137247D01*
Y18423D01*
X137287D01*
Y18463D01*
X137327D01*
Y18503D01*
X137408D01*
Y18543D01*
X137488D01*
Y18583D01*
G37*
G36*
G01X142581D02*
X144028D01*
Y18423D01*
X144068D01*
Y17942D01*
X144108D01*
Y17460D01*
X144148D01*
Y16979D01*
X144189D01*
Y16498D01*
X144229D01*
Y16057D01*
X144269D01*
Y15856D01*
X144305D01*
Y15977D01*
X144345D01*
Y16057D01*
X144385D01*
Y16177D01*
X144425D01*
Y16257D01*
X144465D01*
Y16378D01*
X144505D01*
Y16498D01*
X144545D01*
Y16578D01*
X144586D01*
Y16698D01*
X144626D01*
Y16779D01*
X144666D01*
Y16899D01*
X144706D01*
Y17019D01*
X144746D01*
Y17099D01*
X144786D01*
Y17220D01*
X144826D01*
Y17300D01*
X144866D01*
Y17420D01*
X144906D01*
Y17541D01*
X144946D01*
Y17621D01*
X144987D01*
Y17741D01*
X145027D01*
Y17861D01*
X145067D01*
Y17942D01*
X145107D01*
Y18062D01*
X145147D01*
Y18142D01*
X145187D01*
Y18262D01*
X145227D01*
Y18383D01*
X145267D01*
Y18423D01*
X146514D01*
Y18102D01*
X146554D01*
Y17621D01*
X146595D01*
Y17180D01*
X146635D01*
Y16698D01*
X146675D01*
Y16257D01*
X146715D01*
Y15816D01*
X146751D01*
Y15896D01*
X146791D01*
Y16017D01*
X146831D01*
Y16137D01*
X146871D01*
Y16217D01*
X146911D01*
Y16338D01*
X146951D01*
Y16418D01*
X146992D01*
Y16538D01*
X147032D01*
Y16618D01*
X147072D01*
Y16739D01*
X147112D01*
Y16819D01*
X147152D01*
Y16939D01*
X147192D01*
Y17059D01*
X147232D01*
Y17140D01*
X147272D01*
Y17260D01*
X147312D01*
Y17340D01*
X147352D01*
Y17460D01*
X147393D01*
Y17541D01*
X147433D01*
Y17661D01*
X147473D01*
Y17741D01*
X147513D01*
Y17861D01*
X147553D01*
Y17982D01*
X147593D01*
Y18062D01*
X147633D01*
Y18182D01*
X147673D01*
Y18262D01*
X147713D01*
Y18383D01*
X147753D01*
Y18463D01*
X147794D01*
Y18543D01*
X149121D01*
Y18499D01*
X149081D01*
Y18419D01*
X149041D01*
Y18339D01*
X149001D01*
Y18218D01*
X148960D01*
Y18138D01*
X148920D01*
Y18018D01*
X148880D01*
Y17938D01*
X148840D01*
Y17817D01*
X148800D01*
Y17737D01*
X148760D01*
Y17617D01*
X148720D01*
Y17537D01*
X148680D01*
Y17416D01*
X148640D01*
Y17336D01*
X148600D01*
Y17216D01*
X148559D01*
Y17136D01*
X148519D01*
Y17055D01*
X148479D01*
Y16935D01*
X148439D01*
Y16855D01*
X148399D01*
Y16735D01*
X148359D01*
Y16654D01*
X148319D01*
Y16534D01*
X148279D01*
Y16454D01*
X148239D01*
Y16334D01*
X148199D01*
Y16253D01*
X148158D01*
Y16133D01*
X148118D01*
Y16053D01*
X148078D01*
Y15933D01*
X148038D01*
Y15852D01*
X147998D01*
Y15772D01*
X147958D01*
Y15652D01*
X147918D01*
Y15572D01*
X147878D01*
Y15451D01*
X147838D01*
Y15371D01*
X147798D01*
Y15251D01*
X147757D01*
Y15171D01*
X147717D01*
Y15050D01*
X147677D01*
Y14970D01*
X147637D01*
Y14850D01*
X147597D01*
Y14770D01*
X147557D01*
Y14649D01*
X147517D01*
Y14569D01*
X147477D01*
Y14489D01*
X147437D01*
Y14369D01*
X147397D01*
Y14288D01*
X147356D01*
Y14168D01*
X147316D01*
Y14088D01*
X147276D01*
Y14048D01*
X145869D01*
Y14288D01*
X145829D01*
Y14569D01*
X145789D01*
Y14850D01*
X145748D01*
Y15171D01*
X145708D01*
Y15451D01*
X145668D01*
Y15732D01*
X145628D01*
Y16013D01*
X145588D01*
Y16253D01*
X145552D01*
Y16133D01*
X145512D01*
Y16053D01*
X145472D01*
Y15973D01*
X145432D01*
Y15852D01*
X145392D01*
Y15772D01*
X145351D01*
Y15652D01*
X145311D01*
Y15572D01*
X145271D01*
Y15451D01*
X145231D01*
Y15371D01*
X145191D01*
Y15291D01*
X145151D01*
Y15171D01*
X145111D01*
Y15090D01*
X145071D01*
Y14970D01*
X145031D01*
Y14890D01*
X144991D01*
Y14810D01*
X144950D01*
Y14689D01*
X144910D01*
Y14609D01*
X144870D01*
Y14489D01*
X144830D01*
Y14409D01*
X144790D01*
Y14288D01*
X144750D01*
Y14208D01*
X144710D01*
Y14128D01*
X144670D01*
Y14048D01*
X143262D01*
Y14208D01*
X143222D01*
Y14529D01*
X143182D01*
Y14850D01*
X143142D01*
Y15171D01*
X143102D01*
Y15491D01*
X143062D01*
Y15812D01*
X143022D01*
Y16173D01*
X142982D01*
Y16494D01*
X142941D01*
Y16815D01*
X142901D01*
Y17136D01*
X142861D01*
Y17456D01*
X142821D01*
Y17817D01*
X142781D01*
Y18138D01*
X142741D01*
Y18419D01*
X142701D01*
Y18459D01*
X142661D01*
Y18499D01*
X142621D01*
Y18539D01*
X142581D01*
Y18583D01*
G37*
%LPC*%
G75*
G36*
G01X6301Y91211D02*
Y91292D01*
X7040D01*
Y91213D01*
X7024D01*
Y91084D01*
X7008D01*
Y90955D01*
X6992D01*
Y90827D01*
X6976D01*
Y90794D01*
X6237D01*
Y90825D01*
X6253D01*
Y90954D01*
X6269D01*
Y91083D01*
X6285D01*
Y91211D01*
X6301D01*
G37*
G36*
G01X6398Y91936D02*
Y92000D01*
X7137D01*
Y91954D01*
X7121D01*
Y91857D01*
X7104D01*
Y91744D01*
X7088D01*
Y91648D01*
X7072D01*
Y91599D01*
X6365D01*
Y91727D01*
X6382D01*
Y91936D01*
X6398D01*
G37*
G36*
G01X9312Y91952D02*
Y92000D01*
X9536D01*
Y91904D01*
X9552D01*
Y91791D01*
X9568D01*
Y91662D01*
X9584D01*
Y91550D01*
X9600D01*
Y91421D01*
X9616D01*
Y91294D01*
X9022D01*
Y91340D01*
X9038D01*
Y91372D01*
X9054D01*
Y91405D01*
X9070D01*
Y91437D01*
X9086D01*
Y91485D01*
X9102D01*
Y91517D01*
X9119D01*
Y91550D01*
X9135D01*
Y91598D01*
X9151D01*
Y91630D01*
X9167D01*
Y91662D01*
X9183D01*
Y91694D01*
X9199D01*
Y91743D01*
X9215D01*
Y91775D01*
X9231D01*
Y91807D01*
X9247D01*
Y91855D01*
X9263D01*
Y91888D01*
X9280D01*
Y91920D01*
X9296D01*
Y91952D01*
X9312D01*
G37*
G36*
G01X47371Y113369D02*
Y113538D01*
X48660D01*
Y113400D01*
X48632D01*
Y113203D01*
X48604D01*
Y113035D01*
X48576D01*
Y112838D01*
X48548D01*
Y112641D01*
X48520D01*
Y112473D01*
X48492D01*
Y112276D01*
X48464D01*
Y112107D01*
X48436D01*
Y111911D01*
X48408D01*
Y111742D01*
X48379D01*
Y111545D01*
X48351D01*
Y111433D01*
X47118D01*
Y111599D01*
X47146D01*
Y111823D01*
X47174D01*
Y112048D01*
X47202D01*
Y112273D01*
X47230D01*
Y112498D01*
X47258D01*
Y112695D01*
X47286D01*
Y112919D01*
X47314D01*
Y113144D01*
X47343D01*
Y113369D01*
X47371D01*
G37*
G36*
G01X62095Y113481D02*
Y113538D01*
X63385D01*
Y113484D01*
X63357D01*
Y113287D01*
X63329D01*
Y113119D01*
X63301D01*
Y112922D01*
X63272D01*
Y112754D01*
X63244D01*
Y112557D01*
X63216D01*
Y112360D01*
X63188D01*
Y112192D01*
X63160D01*
Y111995D01*
X63132D01*
Y111826D01*
X63104D01*
Y111630D01*
X63076D01*
Y111461D01*
X63048D01*
Y111433D01*
X61814D01*
Y111486D01*
X61842D01*
Y111711D01*
X61870D01*
Y111936D01*
X61898D01*
Y112161D01*
X61926D01*
Y112357D01*
X61955D01*
Y112582D01*
X61983D01*
Y112807D01*
X62011D01*
Y113032D01*
X62039D01*
Y113257D01*
X62067D01*
Y113481D01*
X62095D01*
G37*
G36*
G01X116763Y8760D02*
Y8809D01*
X117373D01*
Y8794D01*
X117357D01*
Y8681D01*
X117341D01*
Y8569D01*
X117325D01*
Y8456D01*
X117309D01*
Y8343D01*
X117293D01*
Y8214D01*
X117277D01*
Y8102D01*
X117261D01*
Y7989D01*
X117244D01*
Y7876D01*
X117228D01*
Y7764D01*
X117212D01*
Y7651D01*
X117196D01*
Y7586D01*
X116586D01*
Y7633D01*
X116602D01*
Y7746D01*
X116618D01*
Y7859D01*
X116634D01*
Y7971D01*
X116650D01*
Y8084D01*
X116666D01*
Y8197D01*
X116683D01*
Y8309D01*
X116699D01*
Y8422D01*
X116715D01*
Y8535D01*
X116731D01*
Y8648D01*
X116747D01*
Y8760D01*
X116763D01*
G37*
G36*
G01X115196Y17697D02*
Y17817D01*
X116876D01*
Y17661D01*
X116836D01*
Y17420D01*
X116796D01*
Y17180D01*
X116756D01*
Y16899D01*
X116716D01*
Y16658D01*
X116676D01*
Y16418D01*
X116636D01*
Y16338D01*
X115036D01*
Y16574D01*
X115076D01*
Y16935D01*
X115116D01*
Y17336D01*
X115156D01*
Y17697D01*
X115196D01*
G37*
G36*
G01X121452Y17777D02*
Y17817D01*
X123292D01*
Y17741D01*
X123252D01*
Y17460D01*
X123212D01*
Y17220D01*
X123172D01*
Y16979D01*
X123132D01*
Y16698D01*
X123092D01*
Y16458D01*
X123052D01*
Y16177D01*
X123012D01*
Y15937D01*
X122972D01*
Y15656D01*
X122932D01*
Y15415D01*
X122891D01*
Y15175D01*
X122851D01*
Y14894D01*
X122811D01*
Y14814D01*
X120971D01*
Y14890D01*
X121011D01*
Y15171D01*
X121051D01*
Y15411D01*
X121091D01*
Y15692D01*
X121131D01*
Y15933D01*
X121171D01*
Y16213D01*
X121211D01*
Y16454D01*
X121251D01*
Y16735D01*
X121291D01*
Y16975D01*
X121332D01*
Y17256D01*
X121372D01*
Y17537D01*
X121412D01*
Y17777D01*
X121452D01*
G37*
G36*
G01X124895Y11522D02*
Y11539D01*
X125263D01*
Y11508D01*
X125247D01*
Y11411D01*
X125231D01*
Y11315D01*
X125215D01*
Y11234D01*
X125199D01*
Y11138D01*
X125183D01*
Y11041D01*
X125167D01*
Y10944D01*
X125151D01*
Y10848D01*
X125135D01*
Y10799D01*
X124766D01*
Y10846D01*
X124782D01*
Y10943D01*
X124798D01*
Y11039D01*
X124814D01*
Y11136D01*
X124830D01*
Y11233D01*
X124846D01*
Y11329D01*
X124862D01*
Y11426D01*
X124879D01*
Y11522D01*
X124895D01*
G37*
G36*
G01X131029Y11233D02*
Y11297D01*
X131768D01*
Y11234D01*
X131752D01*
Y11105D01*
X131736D01*
Y10961D01*
X131719D01*
Y10832D01*
X131703D01*
Y10799D01*
X130964D01*
Y10830D01*
X130980D01*
Y10959D01*
X130997D01*
Y11104D01*
X131013D01*
Y11233D01*
X131029D01*
G37*
G36*
G01X131125Y11941D02*
Y12005D01*
X131864D01*
Y11975D01*
X131848D01*
Y11862D01*
X131832D01*
Y11765D01*
X131816D01*
Y11653D01*
X131800D01*
Y11604D01*
X131093D01*
Y11748D01*
X131109D01*
Y11941D01*
X131125D01*
G37*
G36*
G01X134039Y11973D02*
Y12005D01*
X134263D01*
Y11909D01*
X134279D01*
Y11780D01*
X134295D01*
Y11667D01*
X134312D01*
Y11539D01*
X134328D01*
Y11426D01*
X134344D01*
Y11299D01*
X133750D01*
Y11345D01*
X133766D01*
Y11377D01*
X133782D01*
Y11410D01*
X133798D01*
Y11458D01*
X133814D01*
Y11490D01*
X133830D01*
Y11522D01*
X133846D01*
Y11555D01*
X133862D01*
Y11603D01*
X133878D01*
Y11635D01*
X133895D01*
Y11667D01*
X133911D01*
Y11716D01*
X133927D01*
Y11748D01*
X133943D01*
Y11780D01*
X133959D01*
Y11812D01*
X133975D01*
Y11861D01*
X133991D01*
Y11893D01*
X134007D01*
Y11925D01*
X134023D01*
Y11973D01*
X134039D01*
G37*
G36*
G01X125409Y8792D02*
Y8809D01*
X126003D01*
Y8713D01*
X125987D01*
Y8601D01*
X125971D01*
Y8488D01*
X125955D01*
Y8375D01*
X125938D01*
Y8247D01*
X125922D01*
Y8134D01*
X125906D01*
Y8021D01*
X125890D01*
Y7908D01*
X125874D01*
Y7796D01*
X125858D01*
Y7683D01*
X125842D01*
Y7586D01*
X125232D01*
Y7665D01*
X125248D01*
Y7778D01*
X125264D01*
Y7891D01*
X125280D01*
Y8003D01*
X125296D01*
Y8116D01*
X125312D01*
Y8229D01*
X125328D01*
Y8342D01*
X125344D01*
Y8454D01*
X125360D01*
Y8567D01*
X125377D01*
Y8680D01*
X125393D01*
Y8792D01*
X125409D01*
G37*
G36*
G01X131752Y8744D02*
Y8809D01*
X132362D01*
Y8762D01*
X132346D01*
Y8649D01*
X132330D01*
Y8536D01*
X132314D01*
Y8424D01*
X132298D01*
Y8311D01*
X132282D01*
Y8198D01*
X132266D01*
Y8086D01*
X132250D01*
Y7973D01*
X132234D01*
Y7860D01*
X132217D01*
Y7747D01*
X132201D01*
Y7635D01*
X132185D01*
Y7586D01*
X131575D01*
Y7601D01*
X131591D01*
Y7714D01*
X131607D01*
Y7826D01*
X131623D01*
Y7939D01*
X131639D01*
Y8052D01*
X131656D01*
Y8164D01*
X131672D01*
Y8277D01*
X131688D01*
Y8390D01*
X131704D01*
Y8503D01*
X131720D01*
Y8631D01*
X131736D01*
Y8744D01*
X131752D01*
G37*
G36*
G01X138575Y17697D02*
Y17857D01*
X140094D01*
Y17781D01*
X140054D01*
Y17500D01*
X140014D01*
Y17220D01*
X139974D01*
Y16939D01*
X139934D01*
Y16658D01*
X139894D01*
Y16378D01*
X139854D01*
Y16097D01*
X139814D01*
Y15816D01*
X139774D01*
Y15536D01*
X139733D01*
Y15215D01*
X139693D01*
Y14934D01*
X139653D01*
Y14814D01*
X138133D01*
Y14890D01*
X138174D01*
Y15171D01*
X138214D01*
Y15451D01*
X138254D01*
Y15732D01*
X138294D01*
Y16013D01*
X138334D01*
Y16293D01*
X138374D01*
Y16574D01*
X138414D01*
Y16855D01*
X138454D01*
Y17136D01*
X138494D01*
Y17416D01*
X138534D01*
Y17697D01*
X138575D01*
G37*
%LPD*%
G75*
G36*
G01X47996Y24087D02*
Y23307D01*
X44877D01*
Y24087D01*
X47996D01*
G37*
G36*
G01Y51646D02*
Y50866D01*
X44877D01*
Y51646D01*
X47996D01*
G37*
G36*
G01X69296Y24087D02*
Y23307D01*
X66187D01*
Y24087D01*
X69296D01*
G37*
G36*
G01X68127Y26296D02*
Y21096D01*
X67347D01*
Y26296D01*
X68127D01*
G37*
G36*
G01X69296Y51646D02*
Y50866D01*
X66187D01*
Y51646D01*
X69296D01*
G37*
G36*
G01X68127Y53856D02*
Y48656D01*
X67347D01*
Y53856D01*
X68127D01*
G37*
G54D10*
G01X77980Y101290D02*
X78513D01*
Y100540D01*
X78353Y100290D01*
X78167Y100123D01*
X77900Y100040D01*
X77633Y100123D01*
X77447Y100290D01*
X77287Y100540D01*
X77180Y100832D01*
X77127Y101165D01*
Y101457D01*
X77180Y101707D01*
X77287Y101998D01*
X77447Y102248D01*
X77607Y102415D01*
X77820Y102540D01*
X78007D01*
X78220Y102457D01*
X78380Y102290D01*
G01X92317Y99950D02*
Y102450D01*
X92983D01*
X93197Y102325D01*
X93330Y102158D01*
X93383Y101825D01*
X93330Y101492D01*
X93170Y101283D01*
X92983Y101158D01*
X92317D01*
G01X92983D02*
X93383Y99950D01*
G54D11*
G01X780Y9071D02*
X23280D01*
Y15071D01*
X21780D01*
Y21071D01*
X23280D01*
Y45071D01*
X21780D01*
Y51071D01*
X23280D01*
Y57071D01*
X780D01*
Y9071D01*
G01X27955Y96454D02*
Y91734D01*
X17715D01*
Y96454D01*
X27955D01*
G01X45274Y59451D02*
Y64171D01*
X55514D01*
Y59451D01*
X45274D01*
G01X55116Y87399D02*
X57876D01*
Y82680D01*
X55116D01*
G01X50396Y87399D02*
X47636D01*
Y82680D01*
X50396D01*
G01X50702Y104139D02*
X54039Y100801D01*
X46799Y93561D01*
X43461Y96898D01*
X50702Y104139D01*
G01X53680Y87640D02*
Y92360D01*
X63920D01*
Y87640D01*
X53680D01*
G01X86616Y54722D02*
Y50002D01*
X76376D01*
Y54722D01*
X86616D01*
G01X74013Y74805D02*
Y72045D01*
X69294D01*
Y74805D01*
G01X86616Y60234D02*
Y55514D01*
X76376D01*
Y60234D01*
X86616D01*
G01X76378Y91920D02*
X78330Y93872D01*
X81667Y90535D01*
X79715Y88583D01*
G01X73041D02*
X71089Y86631D01*
X74426Y83294D01*
X76378Y85245D01*
G01X74013Y79525D02*
Y82285D01*
X69294D01*
Y79525D01*
G01X71559Y115205D02*
X84559D01*
Y109205D01*
X71559D01*
Y115205D01*
G01X78449Y112185D02*
X76719Y113915D01*
G01D02*
Y110455D01*
G01D02*
X78449Y112185D01*
G01X72833Y103546D02*
Y108266D01*
X83073D01*
Y103546D01*
X72833D01*
G01X90137Y8789D02*
X85417D01*
Y19028D01*
X90137D01*
Y8789D01*
G01X95688Y8789D02*
X90968D01*
Y19029D01*
X95688D01*
Y8789D01*
G01X101279Y8710D02*
X96559D01*
Y18950D01*
X101279D01*
Y8710D01*
G01X95771Y24576D02*
Y19856D01*
X85532D01*
Y24576D01*
X95771D01*
G01X96960Y54960D02*
X99720D01*
Y50240D01*
X96960D01*
G01X92240Y54960D02*
X89480D01*
Y50240D01*
X92240D01*
G01X94711Y90141D02*
X98048Y93478D01*
X105289Y86237D01*
X101952Y82900D01*
X94711Y90141D01*
G01X92915Y96061D02*
Y91341D01*
X82675D01*
Y96061D01*
X92915D01*
G01X99307Y115205D02*
Y109205D01*
G01X87307Y115205D02*
X100307D01*
Y109205D01*
X87307D01*
Y115205D01*
G01X94197Y112185D02*
X92467Y113915D01*
G01D02*
Y110455D01*
G01D02*
X94197Y112185D01*
G01X84159Y115205D02*
Y109205D01*
G01X83959Y115205D02*
Y109205D01*
G01X83559Y115205D02*
Y109205D01*
G01X87793Y103546D02*
Y108266D01*
X98034D01*
Y103546D01*
X87793D01*
G01X108160Y23840D02*
Y21080D01*
X103440D01*
Y23840D01*
G01X108160Y28560D02*
Y31320D01*
X103440D01*
Y28560D01*
G01X107960Y41740D02*
Y38980D01*
X103240D01*
Y41740D01*
G01X107960Y46460D02*
Y49220D01*
X103240D01*
Y46460D01*
G01X107478Y74412D02*
X107478Y71652D01*
X102759D01*
X102758Y74412D01*
G01X107478Y79132D02*
X107478Y81892D01*
X102759D01*
X102758Y79132D01*
G01X99907Y115205D02*
Y109205D01*
G01X99707Y115205D02*
Y109205D01*
G01X139766Y55908D02*
X144486D01*
Y45667D01*
X139766D01*
Y55908D01*
G01X127561Y70474D02*
X132282D01*
Y60234D01*
X127561D01*
Y70474D01*
G01Y81892D02*
X132281D01*
Y71652D01*
X127561D01*
Y81892D01*
G01X145278Y55908D02*
X149998D01*
Y45667D01*
X145278D01*
Y55908D01*
G01X148034Y69289D02*
Y72049D01*
X152754D01*
Y69289D01*
G01X148034Y64569D02*
Y61809D01*
X152754D01*
Y64569D01*
G01X141790Y83870D02*
X141010Y83080D01*
X141790Y82290D01*
X141010Y81510D01*
X141790Y80720D01*
X141010Y79930D01*
G54D12*
G01X29215Y25787D02*
Y20428D01*
G01D02*
X37715D01*
G01Y25787D02*
Y20428D01*
G01X29215Y38628D02*
Y33267D01*
G01Y38628D02*
X37715D01*
G01D02*
Y33267D01*
G01X43816Y14926D02*
X43796Y4426D01*
G01X64887D02*
X43796D01*
G01X43877Y20626D02*
X43796Y31007D01*
G01X64887D02*
X43796D01*
G01X43816Y42485D02*
X43796Y31985D01*
G01X64887D02*
X43796D01*
G01X43877Y48185D02*
X43796Y58566D01*
G01X64887D02*
X43796D01*
G01X70377Y9916D02*
X64887Y4426D01*
G01X70377Y15016D02*
Y9916D01*
G01Y25516D02*
X64887Y31007D01*
G01X70377Y25516D02*
X70327Y20416D01*
G01X70377Y37476D02*
X64887Y31985D01*
G01X70377Y53076D02*
X64887Y58566D01*
G01X70377Y53076D02*
X70327Y47976D01*
G01X70377Y42576D02*
Y37476D01*
G01X97026Y29529D02*
X99576D01*
G01X86186D02*
X88726D01*
G01X86186Y32069D02*
Y29529D01*
G01Y46849D02*
Y44489D01*
G01Y46849D02*
X88556D01*
G01X87516D02*
X86196Y45529D01*
G01X86186Y36009D02*
Y34469D01*
G01Y39949D02*
Y38399D01*
G01X97036Y46849D02*
X99576D01*
G01Y34039D02*
Y29529D01*
G01Y46849D02*
Y44309D01*
G01Y41909D02*
Y40369D01*
G01Y37979D02*
Y36429D01*
G01X136100Y73134D02*
X135133D01*
G01D02*
Y60723D01*
G01X136100D02*
X135133D01*
G01X148400Y78400D02*
X134400D01*
Y85400D01*
X148400D01*
Y78400D01*
G01X147544Y73134D02*
X146577D01*
G01X147544D02*
Y60723D01*
G01D02*
X146577D01*
G54D13*
G01X22444Y95274D02*
X23224D01*
Y92914D01*
X22444D01*
Y95274D01*
G01Y92914D02*
X22835D01*
Y91734D01*
G01X23224Y95274D02*
X22835D01*
Y96454D01*
G01X50784Y60631D02*
X50004D01*
Y62991D01*
X50784D01*
Y60631D01*
G01X50004D02*
X50394D01*
Y59451D01*
G01X50784Y62991D02*
X50394D01*
Y64171D01*
G01X52366Y86619D02*
Y83459D01*
G01X53146Y86619D02*
Y83459D01*
G01X47640Y99408D02*
X48191Y99960D01*
X49860Y98291D01*
X49309Y97740D01*
X47640Y99408D01*
G01X48191Y99960D02*
X47916Y99684D01*
X47081Y100519D01*
G01X49309Y97740D02*
X49585Y98015D01*
X50419Y97181D01*
G01X74985Y89424D02*
X77219Y87190D01*
G01X75537Y89976D02*
X77771Y87741D01*
G01X73234Y77556D02*
X70074D01*
G01X73234Y76775D02*
X70074D01*
G01X59190Y88820D02*
X58410D01*
Y91180D01*
X59190D01*
Y88820D01*
G01X58410D02*
X58800D01*
Y87640D01*
G01X59190Y91180D02*
X58800D01*
Y92360D01*
G01X78343Y104726D02*
X77563D01*
Y107085D01*
X78343D01*
Y104726D01*
G01X77563D02*
X77953D01*
Y103546D01*
G01X78343Y107085D02*
X77953D01*
Y108266D01*
G01X88957Y14298D02*
Y13518D01*
X86597D01*
Y14298D01*
X88957D01*
G01Y13518D02*
Y13909D01*
X90137D01*
G01X86597Y14298D02*
Y13909D01*
X85417D01*
G01X90261Y23396D02*
X91041D01*
Y21036D01*
X90261D01*
Y23396D01*
G01X91041D02*
X90651D01*
Y24576D01*
G01X90261Y21036D02*
X90651D01*
Y19856D01*
G01X94508Y14299D02*
Y13519D01*
X92148D01*
Y14299D01*
X94508D01*
G01Y13519D02*
Y13909D01*
X95688D01*
G01X92148Y14299D02*
Y13909D01*
X90968D01*
G01X100099Y14220D02*
Y13440D01*
X97739D01*
Y14220D01*
X100099D01*
G01X97739D02*
Y13830D01*
X96559D01*
G01X94210Y54180D02*
Y51020D01*
G01X94990Y54180D02*
Y51020D01*
G01X81106Y53542D02*
X81886D01*
Y51182D01*
X81106D01*
Y53542D01*
G01X81886D02*
X81496D01*
Y54722D01*
G01X81106Y51182D02*
X81496D01*
Y50002D01*
G01X81106Y59054D02*
X81886D01*
Y56694D01*
X81106D01*
Y59054D01*
G01X81886D02*
X81496D01*
Y60234D01*
G01X81106Y56694D02*
X81496D01*
Y55514D01*
G01X99442Y87079D02*
X98890Y87631D01*
X100558Y89299D01*
X101110Y88747D01*
X99442Y87079D01*
G01X98890Y87631D02*
X99166Y87355D01*
X98332Y86521D01*
G01X87405Y94881D02*
X88185D01*
Y92521D01*
X87405D01*
Y94881D01*
G01Y92521D02*
X87795D01*
Y91341D01*
G01X93304Y104726D02*
X92523D01*
Y107085D01*
X93304D01*
Y104726D01*
G01X92523D02*
X92913D01*
Y103546D01*
G01X93304Y107085D02*
X92913D01*
Y108266D01*
G01X88185Y94881D02*
X87795D01*
Y96061D01*
G01X107380Y26590D02*
X104220D01*
G01X107380Y25810D02*
X104220D01*
G01X100099Y13440D02*
Y13830D01*
X101279D01*
G01X107180Y44490D02*
X104020D01*
G01X107180Y43710D02*
X104020D01*
G01X106698Y77162D02*
X103538D01*
G01X106698Y76382D02*
X103538D01*
G01X101110Y88747D02*
X100834Y89023D01*
X101668Y89858D01*
G01X140946Y51178D02*
Y50787D01*
X139766D01*
G01X128741Y64964D02*
Y65744D01*
X131102D01*
Y64964D01*
X128741D01*
G01Y65744D02*
Y65354D01*
X127561D01*
G01X131102Y64964D02*
Y65354D01*
X132282D01*
G01X128741Y76382D02*
Y77162D01*
X131101D01*
Y76382D01*
X128741D01*
G01Y77162D02*
Y76772D01*
X127561D01*
G01X131101Y76382D02*
Y76772D01*
X132281D01*
G01X146458Y50398D02*
Y51178D01*
X148818D01*
Y50398D01*
X146458D01*
G01Y51178D02*
Y50787D01*
X145278D01*
G01X148818Y50398D02*
Y50787D01*
X149998D01*
G01X140946Y50398D02*
Y51178D01*
X143306D01*
Y50398D01*
X140946D01*
G01X143306D02*
Y50787D01*
X144486D01*
G01X148814Y66539D02*
X151974D01*
G01X148814Y67319D02*
X151974D01*
G54D14*
G01X787Y59055D02*
X23425D01*
Y88189D01*
X787D01*
Y59055D01*
G01X23425Y65354D02*
X20276D01*
Y72047D01*
X23425D01*
G01Y75197D02*
X20276D01*
Y81890D01*
X23425D01*
G54D15*
G01X45346Y66066D02*
G03I-390J0D01*
G01X58666Y69878D02*
Y64998D01*
X58646Y64978D01*
G01X58686Y65018D02*
X58646Y64978D01*
X46846D01*
Y81308D01*
X58626D01*
X58666Y81268D01*
Y76578D01*
G01D02*
Y69878D01*
G54D16*
G01X112992Y69292D02*
Y81103D01*
G01X113405Y66930D02*
G03I-412J0D01*
G01X124803Y69292D02*
Y81103D01*
G54D17*
G01X145571Y74961D02*
G03I-295J0D01*
G54D18*
G01X42323Y100000D02*
X8071D01*
G01Y103506D02*
Y100000D01*
G01Y117318D02*
Y113817D01*
G01X42319Y117318D02*
X8067D01*
G01X28092Y65209D02*
X27415D01*
G01Y82531D02*
Y65209D01*
G01X39225Y75870D02*
G03X39230Y71870I3J-2000D01*
G01X28092Y82531D02*
X27415D01*
G01X33365Y133070D02*
Y117322D01*
G01Y133070D02*
X25197D01*
G01D02*
Y117322D01*
G01X39226Y71870D02*
Y65209D01*
G01D02*
X38548D01*
G01X39226Y82531D02*
Y75870D01*
G01Y82531D02*
X38548D01*
G01X42319Y117318D02*
Y113817D01*
G01Y103506D02*
Y100000D01*
G01X78656Y77559D02*
X79758Y76457D01*
G01X79748Y78651D02*
X78656Y77559D01*
G01X84872Y45188D02*
G03I-489J0D01*
G01X85917Y70298D02*
X87008Y69207D01*
G01X88104Y70304D02*
X87008Y69207D01*
G01X94268Y78650D02*
X95359Y77559D01*
G01X87008Y85910D02*
X88110Y84808D01*
G01X95359Y77559D02*
X94259Y76458D01*
G01X87008Y85910D02*
X85908Y84810D01*
G01X85674Y86283D02*
G03I-214J0D01*
G01X115432Y24409D02*
X110632D01*
G01D02*
Y51889D01*
G01D02*
X110712Y51969D01*
G01X115432D02*
X110632D01*
G01X112715Y109751D02*
Y102411D01*
G01X147905Y124391D02*
X112715D01*
G01D02*
Y118551D01*
G01X136612Y24449D02*
Y51969D01*
G01Y24409D02*
Y24449D01*
G01Y24409D02*
X131812D01*
G01X136612Y51969D02*
X131812D01*
G01X147905Y109751D02*
Y102411D01*
G01Y124391D02*
Y118551D01*
G54D19*
G01X40137Y85394D02*
G03I-591J0D01*
M02*
