G04 ================== begin FILE IDENTIFICATION RECORD ==================*
G04 Layout Name:  D:/Projects/Mini_Audio/01.Hardware/POWER/PCB/POWER.brd*
G04 Film Name:    SILKTOP*
G04 File Format:  Gerber RS274X*
G04 File Origin:  Cadence Allegro 17.4-S037*
G04 Origin Date:  Wed Feb 28 20:17:22 2024*
G04 *
G04 Layer:  BOARD GEOMETRY/SILKSCREEN_TOP*
G04 Layer:  PACKAGE GEOMETRY/SILKSCREEN_TOP*
G04 Layer:  REF DES/SILKSCREEN_TOP*
G04 Layer:  MANUFACTURING/PEN3*
G04 Layer:  MANUFACTURING/PROBE_BOTTOM*
G04 *
G04 Offset:    (0.000 0.000)*
G04 Mirror:    No*
G04 Mode:      Positive*
G04 Rotation:  0*
G04 FullContactRelief:  No*
G04 UndefLineWidth:     6.000*
G04 ================== end FILE IDENTIFICATION RECORD ====================*
%FSLAX35Y35*MOIN*%
%IR0*IPPOS*OFA0.00000B0.00000*MIA0B0*SFA1.00000B1.00000*%
%ADD10C,.003*%
%ADD11C,.005*%
%ADD12C,.006*%
%ADD13C,.003941*%
%ADD14C,.007874*%
%ADD15C,.01*%
G75*
%LPD*%
G75*
G36*
G01X55669Y52945D02*
Y51783D01*
X54507Y52945D01*
X55669D01*
G37*
G36*
G01X100709Y66426D02*
Y67587D01*
X101871Y66426D01*
X100709D01*
G37*
G36*
G01X71622Y86093D02*
Y84213D01*
X69822D01*
Y86093D01*
X71622D01*
G37*
G36*
G01Y95551D02*
Y93671D01*
X69822D01*
Y95551D01*
X71622D01*
G37*
G36*
G01X83354Y51733D02*
X82575D01*
Y54851D01*
X83354D01*
Y51733D01*
G37*
G36*
G01X85562Y52902D02*
X80366D01*
Y53682D01*
X85562D01*
Y52902D01*
G37*
G36*
G01X83354Y73040D02*
X82575D01*
Y76158D01*
X83354D01*
Y73040D01*
G37*
G36*
G01X103516Y33544D02*
X104295D01*
Y30426D01*
X103516D01*
Y33544D01*
G37*
G36*
G01Y54851D02*
X104295D01*
Y51733D01*
X103516D01*
Y54851D01*
G37*
G36*
G01X101307Y53682D02*
X106504D01*
Y52902D01*
X101307D01*
Y53682D01*
G37*
G36*
G01X131350Y33347D02*
X132130D01*
Y30229D01*
X131350D01*
Y33347D01*
G37*
G36*
G01Y54654D02*
X132130D01*
Y51536D01*
X131350D01*
Y54654D01*
G37*
G36*
G01X129141Y53485D02*
X134339D01*
Y52705D01*
X129141D01*
Y53485D01*
G37*
G54D10*
G01X8289Y83349D02*
X8956Y80849D01*
X9622Y83349D01*
G01X11369Y82182D02*
X11476Y82307D01*
X11556Y82515D01*
X11609Y82807D01*
X11556Y83057D01*
X11449Y83224D01*
X11262Y83349D01*
X10542D01*
Y80849D01*
X11422D01*
X11609Y81015D01*
X11716Y81266D01*
X11769Y81557D01*
X11716Y81849D01*
X11556Y82099D01*
X11369Y82182D01*
X10542D01*
G01X12769Y83349D02*
Y81557D01*
X12876Y81182D01*
X13089Y80932D01*
X13356Y80849D01*
X13622Y80932D01*
X13836Y81182D01*
X13943Y81557D01*
Y83349D01*
G01X14996Y81182D02*
X15209Y80974D01*
X15449Y80849D01*
X15663D01*
X15876Y80974D01*
X16036Y81182D01*
X16116Y81474D01*
X16062Y81765D01*
X15929Y82015D01*
X15689Y82182D01*
X15369Y82266D01*
X15182Y82432D01*
X15102Y82724D01*
X15156Y83016D01*
X15289Y83224D01*
X15476Y83349D01*
X15663D01*
X15849Y83266D01*
X16009Y83057D01*
G01X9037Y78710D02*
X9570D01*
Y77960D01*
X9410Y77710D01*
X9224Y77544D01*
X8957Y77460D01*
X8690Y77544D01*
X8504Y77710D01*
X8344Y77960D01*
X8237Y78252D01*
X8184Y78585D01*
Y78877D01*
X8237Y79127D01*
X8344Y79419D01*
X8504Y79669D01*
X8664Y79835D01*
X8877Y79960D01*
X9064D01*
X9277Y79877D01*
X9437Y79710D01*
G01X10464Y77460D02*
Y79960D01*
X11690Y77460D01*
Y79960D01*
G01X12690Y77460D02*
Y79960D01*
X13224D01*
X13437Y79835D01*
X13597Y79669D01*
X13730Y79419D01*
X13837Y79127D01*
X13864Y78710D01*
X13837Y78294D01*
X13730Y78002D01*
X13597Y77752D01*
X13437Y77585D01*
X13224Y77460D01*
X12690D01*
G01X16064Y79752D02*
X15904Y79877D01*
X15717Y79960D01*
X15504D01*
X15264Y79835D01*
X15077Y79627D01*
X14944Y79377D01*
X14837Y78960D01*
X14810Y78585D01*
X14864Y78210D01*
X14944Y77960D01*
X15104Y77710D01*
X15290Y77544D01*
X15477Y77460D01*
X15664D01*
X15850Y77544D01*
X16010Y77669D01*
X16144Y77835D01*
G01X59870Y51432D02*
X62370Y52099D01*
X59870Y52766D01*
G01X61037Y54512D02*
X60912Y54619D01*
X60704Y54699D01*
X60412Y54752D01*
X60162Y54699D01*
X59995Y54592D01*
X59870Y54405D01*
Y53686D01*
X62370D01*
Y54566D01*
X62204Y54752D01*
X61953Y54859D01*
X61662Y54912D01*
X61370Y54859D01*
X61120Y54699D01*
X61037Y54512D01*
Y53686D01*
G01X62370Y55832D02*
X59870Y56499D01*
X62370Y57166D01*
G01X61495Y56925D02*
Y56072D01*
G01X59870Y58699D02*
X62370D01*
G01X59870Y58086D02*
Y59312D01*
G01X91870Y24461D02*
X91976Y24586D01*
X92056Y24794D01*
X92110Y25086D01*
X92056Y25336D01*
X91950Y25503D01*
X91763Y25628D01*
X91043D01*
Y23128D01*
X91923D01*
X92110Y23294D01*
X92216Y23544D01*
X92270Y23836D01*
X92216Y24128D01*
X92056Y24378D01*
X91870Y24461D01*
X91043D01*
G01X94016Y24378D02*
X94550D01*
Y23628D01*
X94390Y23378D01*
X94203Y23211D01*
X93936Y23128D01*
X93670Y23211D01*
X93483Y23378D01*
X93323Y23628D01*
X93216Y23920D01*
X93163Y24253D01*
Y24544D01*
X93216Y24794D01*
X93323Y25086D01*
X93483Y25336D01*
X93643Y25503D01*
X93856Y25628D01*
X94043D01*
X94256Y25544D01*
X94416Y25378D01*
G01X95443Y23128D02*
Y25628D01*
X96670Y23128D01*
Y25628D01*
G01X97670Y23128D02*
Y25628D01*
X98203D01*
X98416Y25503D01*
X98576Y25336D01*
X98710Y25086D01*
X98816Y24794D01*
X98843Y24378D01*
X98816Y23961D01*
X98710Y23669D01*
X98576Y23419D01*
X98416Y23253D01*
X98203Y23128D01*
X97670D01*
G01X82164Y89771D02*
X82831Y87271D01*
X83498Y89771D01*
G01X84711D02*
X85351D01*
G01X85031D02*
Y87271D01*
G01X84711D02*
X85351D01*
G01X86617D02*
Y89771D01*
X87844Y87271D01*
Y89771D01*
G01X88087Y82970D02*
X88194Y83095D01*
X88274Y83303D01*
X88327Y83595D01*
X88274Y83845D01*
X88167Y84012D01*
X87981Y84137D01*
X87261D01*
Y81637D01*
X88141D01*
X88327Y81803D01*
X88434Y82054D01*
X88487Y82345D01*
X88434Y82637D01*
X88274Y82887D01*
X88087Y82970D01*
X87261D01*
G01X90234Y82887D02*
X90767D01*
Y82137D01*
X90607Y81887D01*
X90421Y81720D01*
X90154Y81637D01*
X89887Y81720D01*
X89701Y81887D01*
X89541Y82137D01*
X89434Y82428D01*
X89381Y82762D01*
Y83054D01*
X89434Y83303D01*
X89541Y83595D01*
X89701Y83845D01*
X89861Y84012D01*
X90074Y84137D01*
X90261D01*
X90474Y84054D01*
X90634Y83887D01*
G01X91661Y81637D02*
Y84137D01*
X92887Y81637D01*
Y84137D01*
G01X93887Y81637D02*
Y84137D01*
X94421D01*
X94634Y84012D01*
X94794Y83845D01*
X94927Y83595D01*
X95034Y83303D01*
X95061Y82887D01*
X95034Y82470D01*
X94927Y82178D01*
X94794Y81928D01*
X94634Y81762D01*
X94421Y81637D01*
X93887D01*
G01X127750Y64949D02*
X128417Y62449D01*
X129083Y64949D01*
G01X131203Y64741D02*
X131043Y64866D01*
X130857Y64949D01*
X130643D01*
X130403Y64824D01*
X130217Y64616D01*
X130083Y64366D01*
X129977Y63949D01*
X129950Y63574D01*
X130003Y63199D01*
X130083Y62949D01*
X130243Y62699D01*
X130430Y62532D01*
X130617Y62449D01*
X130803D01*
X130990Y62532D01*
X131150Y62657D01*
X131283Y62824D01*
G01X133403Y64741D02*
X133243Y64866D01*
X133057Y64949D01*
X132843D01*
X132603Y64824D01*
X132417Y64616D01*
X132283Y64366D01*
X132177Y63949D01*
X132150Y63574D01*
X132203Y63199D01*
X132283Y62949D01*
X132443Y62699D01*
X132630Y62532D01*
X132817Y62449D01*
X133003D01*
X133190Y62532D01*
X133350Y62657D01*
X133483Y62824D01*
G01X131059Y91476D02*
X131592D01*
Y90726D01*
X131432Y90476D01*
X131246Y90309D01*
X130979Y90226D01*
X130712Y90309D01*
X130526Y90476D01*
X130366Y90726D01*
X130259Y91018D01*
X130205Y91351D01*
Y91643D01*
X130259Y91893D01*
X130366Y92184D01*
X130526Y92434D01*
X130685Y92601D01*
X130899Y92726D01*
X131086D01*
X131299Y92643D01*
X131459Y92476D01*
G01X132486Y90226D02*
Y92726D01*
X133712Y90226D01*
Y92726D01*
G01X134712Y90226D02*
Y92726D01*
X135246D01*
X135459Y92601D01*
X135619Y92434D01*
X135752Y92184D01*
X135859Y91893D01*
X135886Y91476D01*
X135859Y91059D01*
X135752Y90768D01*
X135619Y90518D01*
X135459Y90351D01*
X135246Y90226D01*
X134712D01*
G01X154122Y50347D02*
X154228Y50472D01*
X154308Y50680D01*
X154362Y50972D01*
X154308Y51222D01*
X154202Y51389D01*
X154015Y51514D01*
X153295D01*
Y49014D01*
X154175D01*
X154362Y49180D01*
X154468Y49430D01*
X154522Y49722D01*
X154468Y50014D01*
X154308Y50264D01*
X154122Y50347D01*
X153295D01*
G01X155815Y49847D02*
X156455D01*
G01X156108Y50389D02*
Y49305D01*
G01X154082Y39670D02*
X154189Y39794D01*
X154269Y40003D01*
X154322Y40295D01*
X154269Y40544D01*
X154162Y40711D01*
X153976Y40836D01*
X153256D01*
Y38336D01*
X154136D01*
X154322Y38503D01*
X154429Y38753D01*
X154482Y39044D01*
X154429Y39336D01*
X154269Y39586D01*
X154082Y39670D01*
X153256D01*
G01X155722Y39170D02*
X156416D01*
G01X153530Y44049D02*
Y46549D01*
X154224Y44466D01*
X154917Y46549D01*
Y44049D01*
G54D11*
G01X8071Y10945D02*
Y15669D01*
X18307D01*
Y10945D01*
X8071D01*
G01X7032Y9024D02*
X20032D01*
Y3024D01*
X7032D01*
Y9024D01*
G01X13922Y6006D02*
X12191Y7737D01*
G01D02*
Y4272D01*
G01D02*
X13922Y6006D01*
G01X18150Y21339D02*
Y16615D01*
X7913D01*
Y21339D01*
X18150D01*
G01X18268Y27284D02*
Y22559D01*
X8032D01*
Y27284D01*
X18268D01*
G01X19632Y9024D02*
Y3024D01*
G01X19432Y9024D02*
Y3024D01*
G01X19032Y9024D02*
Y3024D01*
G01X34395Y9220D02*
Y3220D01*
G01X34195Y9220D02*
Y3220D01*
G01X33795Y9220D02*
Y3220D01*
G01X21795Y9220D02*
X34795D01*
Y3220D01*
X21795D01*
Y9220D01*
G01X28686Y6202D02*
X26954Y7934D01*
G01D02*
Y4469D01*
G01D02*
X28686Y6202D01*
G01X36132Y30183D02*
Y27427D01*
X40856D01*
Y30183D01*
G01X33897Y52166D02*
X29174D01*
Y62402D01*
X33897D01*
Y52166D01*
G01X34015Y41063D02*
X29292D01*
Y51299D01*
X34015D01*
Y41063D01*
G01X36132Y34907D02*
Y37662D01*
X40856D01*
Y34907D01*
G01X37638Y68622D02*
X34882D01*
Y63898D01*
X37638D01*
G01X37678Y62205D02*
X34922D01*
Y57481D01*
X37678D01*
G01X38884Y84708D02*
Y79984D01*
X28648D01*
Y84708D01*
X38884D01*
G01X27891Y84787D02*
Y80063D01*
X17655D01*
Y84787D01*
X27891D01*
G01X47993Y32323D02*
X45236D01*
Y37047D01*
X47993D01*
G01X52716Y32323D02*
X55472D01*
Y37047D01*
X52716D01*
G01X53858Y62008D02*
X56614D01*
Y57284D01*
X53858D01*
G01X49134Y62008D02*
X46378D01*
Y57284D01*
X49134D01*
G01X42362Y68622D02*
X45118D01*
Y63898D01*
X42362D01*
G01X42402Y62205D02*
X45158D01*
Y57481D01*
X42402D01*
G01X73162Y37822D02*
Y33098D01*
X62926D01*
Y37822D01*
X73162D01*
G01X64186Y39638D02*
Y44362D01*
X74423D01*
Y39638D01*
X64186D01*
G01X63156Y42278D02*
Y39522D01*
X58432D01*
Y42278D01*
G01X63156Y47002D02*
Y49758D01*
X58432D01*
Y47002D01*
G01X85158Y97165D02*
Y92441D01*
X74921D01*
Y97165D01*
X85158D01*
G01X124685Y15511D02*
Y10787D01*
X114449D01*
Y15511D01*
X124685D01*
G01X114331Y5079D02*
Y9803D01*
X124567D01*
Y5079D01*
X114331D01*
G01X114449Y16535D02*
Y21259D01*
X124685D01*
Y16535D01*
X114449D01*
G01X118439Y87112D02*
X115682D01*
Y82388D01*
X118439D01*
G01X107008Y86772D02*
X109763D01*
Y82048D01*
X107008D01*
G01X102284Y86772D02*
X99528D01*
Y82048D01*
X102284D01*
G01X128643Y79387D02*
X133367D01*
Y69151D01*
X128643D01*
Y79387D01*
G01X123166Y79426D02*
X127890D01*
Y69190D01*
X123166D01*
Y79426D01*
G01X141641Y95153D02*
Y92397D01*
X136917D01*
Y95153D01*
G01X123163Y87112D02*
X125918D01*
Y82388D01*
X123163D01*
G01X141641Y99877D02*
Y102633D01*
X136917D01*
Y99877D01*
G01X153984Y98676D02*
X147984D01*
G01X153984Y98876D02*
X147984D01*
G01X153984Y99276D02*
X147984D01*
G01X153984Y111276D02*
Y98276D01*
X147984D01*
Y111276D01*
X153984D01*
G01X150966Y104385D02*
X152698Y106117D01*
G01D02*
X149233D01*
G01D02*
X150966Y104385D01*
G54D12*
G01X55669Y52945D02*
X53307D01*
G01X55669D02*
Y50582D01*
G01X55668Y51622D02*
X54348Y52942D01*
G01X44826Y52945D02*
X43284D01*
G01X48763D02*
X47221D01*
G01X55669Y39559D02*
X53126D01*
G01X55669Y42102D02*
Y39559D01*
G01X50731D02*
X49189D01*
G01X46794D02*
X45252D01*
G01X42857D02*
X38346D01*
G01Y42103D02*
Y39559D01*
G01Y52945D02*
Y50403D01*
G01X40889Y52945D02*
X38346D01*
G01X44208Y82083D02*
Y73587D01*
G01X49562D02*
X44208D01*
G01X62406D02*
X57052D01*
G01X70122Y84513D02*
X48854D01*
G01Y85893D02*
Y84513D01*
G01Y95251D02*
Y93871D01*
G01X49562Y82083D02*
X44208D01*
G01X62406D02*
X57052D01*
G01X70122Y95251D02*
X48854D01*
G01X69193Y50654D02*
X63696Y56151D01*
G01X74288Y50654D02*
X69193D01*
G01X63696Y56151D02*
Y77238D01*
G01X62406Y82083D02*
Y73587D01*
G01X64759Y95251D02*
Y84513D01*
G01X74202Y77212D02*
X63696Y77238D01*
G01X106971Y29427D02*
X96592Y29348D01*
G01Y50438D02*
Y29348D01*
G01X102082Y55928D02*
X96592Y50438D01*
G01X84788Y50656D02*
X90278Y56146D01*
G01X84788Y50656D02*
X79688Y50709D01*
G01X90278Y56146D02*
Y77236D01*
G01X79899Y77157D02*
X90278Y77236D01*
G01X112668Y29372D02*
X123174Y29346D01*
G01X100709Y66426D02*
X103071D01*
G01X100709D02*
Y68789D01*
G01X100710Y67748D02*
X102030Y66428D01*
G01X111552Y66426D02*
X113094D01*
G01X107615D02*
X109157D01*
G01X118032D02*
Y68967D01*
G01X115489Y66426D02*
X118032D01*
G01X102082Y55928D02*
X107182Y55875D01*
G01X117677Y55930D02*
X123174Y50433D01*
G01X112582Y55930D02*
X117677D01*
G01X100709Y79811D02*
X103252D01*
G01X100709Y77268D02*
Y79811D01*
G01X105647D02*
X107189D01*
G01X109584D02*
X111126D01*
G01X113521D02*
X118032D01*
G01Y77267D02*
Y79811D01*
G01X134806Y29230D02*
X124426Y29151D01*
G01Y50241D02*
Y29151D01*
G01X123174Y50433D02*
Y29346D01*
G01X129916Y55731D02*
X124426Y50241D01*
G01X129916Y55731D02*
X135016Y55678D01*
G01X140502Y29175D02*
X151009Y29149D01*
G01Y50236D02*
Y29149D01*
G01X145511Y55733D02*
X151009Y50236D01*
G01X140416Y55733D02*
X145511D01*
G01X7815Y76034D02*
G03I-2500J0D01*
G01X7933Y84419D02*
G03I-2500J0D01*
G01X74011Y47763D02*
G03I-2500J0D01*
G01X81122Y87490D02*
G03I-2500J0D01*
G01X86698Y80819D02*
G03I-2500J0D01*
G01X104508Y25600D02*
G03I-2500J0D01*
G01X133032Y58952D02*
G03I-2500J0D01*
G01X137776Y86624D02*
G03I-2500J0D01*
G01X156870Y33396D02*
G03I-2500J0D01*
G01X156791Y27136D02*
G03I-2500J0D01*
G01X156673Y21073D02*
G03I-2500J0D01*
G54D13*
G01X13583Y12126D02*
X12795D01*
Y14488D01*
X13583D01*
Y12126D01*
G01X12795D02*
X13189D01*
Y10945D01*
G01X12637Y20158D02*
X13426D01*
Y17796D01*
X12637D01*
Y20158D01*
G01X13426D02*
X13032D01*
Y21339D01*
G01X12637Y17796D02*
X13032D01*
Y16615D01*
G01X12756Y26102D02*
X13544D01*
Y23741D01*
X12756D01*
Y26102D01*
G01X13544D02*
X13150D01*
Y27284D01*
G01X12756Y23741D02*
X13150D01*
Y22559D01*
G01X13583Y14488D02*
X13189D01*
Y15669D01*
G01X36919Y32151D02*
X40069D01*
G01X36919Y32938D02*
X40069D01*
G01X32835Y46575D02*
Y45787D01*
X30472D01*
Y46575D01*
X32835D01*
G01Y45787D02*
Y46181D01*
X34015D01*
G01X30472Y46575D02*
Y46181D01*
X29292D01*
G01X32717Y57678D02*
Y56890D01*
X30354D01*
Y57678D01*
X32717D01*
G01Y56890D02*
Y57284D01*
X33897D01*
G01X30354Y57678D02*
Y57284D01*
X29174D01*
G01X33372Y83527D02*
X34160D01*
Y81165D01*
X33372D01*
Y83527D01*
G01X34160D02*
X33766D01*
Y84708D01*
G01X33372Y81165D02*
X33766D01*
Y79984D01*
G01X22380Y83606D02*
X23167D01*
Y81244D01*
X22380D01*
Y83606D01*
G01X23167D02*
X22773D01*
Y84787D01*
G01X22380Y81244D02*
X22773D01*
Y80063D01*
G01X50748Y33110D02*
Y36260D01*
G01X49960Y33110D02*
Y36260D01*
G01X51102Y61220D02*
Y58070D01*
G01X51890Y61220D02*
Y58070D01*
G01X39606Y67835D02*
Y64685D01*
G01X40394Y67835D02*
Y64685D01*
G01X39646Y61418D02*
Y58268D01*
G01X40434Y61418D02*
Y58268D01*
G01X69699Y40819D02*
X68911D01*
Y43181D01*
X69699D01*
Y40819D01*
G01X68911D02*
X69305D01*
Y39638D01*
G01X69699Y43181D02*
X69305D01*
Y44362D01*
G01X67650Y36641D02*
X68438D01*
Y34279D01*
X67650D01*
Y36641D01*
G01X68438D02*
X68044D01*
Y37822D01*
G01X67650Y34279D02*
X68044D01*
Y33098D01*
G01X62369Y45034D02*
X59219D01*
G01X62369Y44246D02*
X59219D01*
G01X79645Y95984D02*
X80434D01*
Y93622D01*
X79645D01*
Y95984D01*
G01Y93622D02*
X80039D01*
Y92441D01*
G01X80434Y95984D02*
X80039D01*
Y97165D01*
G01X119173Y14331D02*
X119961D01*
Y11968D01*
X119173D01*
Y14331D01*
G01Y11968D02*
X119567D01*
Y10787D01*
G01X119843Y6260D02*
X119055D01*
Y8622D01*
X119843D01*
Y6260D01*
G01X119055D02*
X119449D01*
Y5079D01*
G01X119843Y8622D02*
X119449D01*
Y9803D01*
G01X119961Y14331D02*
X119567D01*
Y15511D01*
G01X119961Y17716D02*
X119173D01*
Y20079D01*
X119961D01*
Y17716D01*
G01X119173D02*
X119567D01*
Y16535D01*
G01X119961Y20079D02*
X119567D01*
Y21259D01*
G01X104252Y85985D02*
Y82835D01*
G01X105039Y85985D02*
Y82835D01*
G01X129824Y73875D02*
Y74663D01*
X132186D01*
Y73875D01*
X129824D01*
G01X132186D02*
Y74269D01*
X133367D01*
G01X124347Y73914D02*
Y74702D01*
X126710D01*
Y73914D01*
X124347D01*
G01X126710D02*
Y74308D01*
X127890D01*
G01X129824Y74663D02*
Y74269D01*
X128643D01*
G01X124347Y74702D02*
Y74308D01*
X123166D01*
G01X120406Y86325D02*
Y83175D01*
G01X121194Y86325D02*
Y83175D01*
G01X140854Y97909D02*
X137704D01*
G01X140854Y97121D02*
X137704D01*
G54D14*
G01X78150Y8070D02*
G03I-394J0D01*
G01X78110Y29566D02*
G03I-394J0D01*
G01X99961Y7008D02*
X95072D01*
X95057Y7023D01*
G01X95097Y6983D02*
X95057Y7023D01*
Y18823D01*
X95061Y18819D01*
X111383D01*
Y7039D01*
X111352Y7008D01*
X106654D01*
G01X81673Y12490D02*
G03I-394J0D01*
G01X91024Y9960D02*
Y5072D01*
X91008Y5057D01*
G01X91048Y5097D02*
X91008Y5057D01*
X79208D01*
X79213Y5061D01*
Y21383D01*
X90992D01*
X91024Y21352D01*
Y16654D01*
G01D02*
Y9960D01*
G01X98465Y20276D02*
G03I-394J0D01*
G01X90984Y31456D02*
Y26568D01*
X90969Y26553D01*
G01X91009Y26593D02*
X90969Y26553D01*
X79169D01*
X79173Y26558D01*
Y42879D01*
X90953D01*
X90984Y42848D01*
Y38150D01*
G01D02*
Y31456D01*
G01X81634Y33986D02*
G03I-394J0D01*
G01X106654Y7008D02*
X99961D01*
G01X102884Y16752D02*
G03I-394J0D01*
G54D15*
G01X984Y37315D02*
Y70401D01*
G01X10389Y37315D02*
X984D01*
G01X10389Y70401D02*
X984D01*
G01X5705Y107818D02*
Y100482D01*
G01X40901Y122457D02*
X5705D01*
G01D02*
Y116624D01*
G01X23480Y11035D02*
X28480D01*
G01X23480Y13535D02*
Y11035D01*
G01X32480Y16035D02*
Y17035D01*
G01X23480Y22035D02*
X28480D01*
G01X23480Y19535D02*
Y22035D01*
G01X25000Y37315D02*
X18508D01*
G01X25000D02*
Y45467D01*
G01Y62248D02*
Y70401D01*
G01D02*
X18508D01*
G01X42559Y4331D02*
X70079D01*
G01X42519D02*
X42559D01*
G01X42519D02*
Y9130D01*
G01Y25516D02*
Y30315D01*
G01D02*
X70000D01*
G01X54500Y54752D02*
G03I-493J0D01*
G01X40901Y107818D02*
Y100484D01*
G01X83780Y99292D02*
X49528D01*
G01Y102798D02*
Y99292D01*
G01Y116610D02*
Y113108D01*
G01X40901Y122457D02*
Y116624D01*
G01X83775Y116610D02*
X49523D01*
G01X70079Y4331D02*
Y9130D01*
G01X70000Y30315D02*
X70079Y30236D01*
G01Y25516D02*
Y30315D01*
G01X74821Y132362D02*
Y116614D01*
G01Y132362D02*
X66654D01*
G01D02*
Y116614D01*
G01X126536Y88583D02*
X99055D01*
G01D02*
X98976Y88662D01*
G01Y93382D02*
Y88583D01*
G01X83775Y116610D02*
Y113109D01*
G01Y102797D02*
Y99292D01*
G01X98976Y114567D02*
Y109768D01*
G01X126496Y114567D02*
X98976D01*
G01X102864Y64619D02*
G03I-494J0D01*
G01X127992Y10541D02*
Y18023D01*
G01X131929Y1092D02*
X147677D01*
G01X127992Y18023D02*
X131806D01*
G01X146782Y64095D02*
X139299D01*
G01D02*
Y67909D01*
G01Y87716D02*
X146782D01*
G01X139299Y83902D02*
Y87716D01*
G01X126536Y93382D02*
Y88583D01*
G01Y114567D02*
X126496D01*
G01X126536D02*
Y109768D01*
G01X151614Y18023D02*
Y10541D01*
G01X147799Y18023D02*
X151614D01*
G01X156230Y68032D02*
Y83780D01*
M02*
