G04 ================== begin FILE IDENTIFICATION RECORD ==================*
G04 Layout Name:  D:/Projects/Mini_Audio/01.Hardware/POWER/PCB/POWER.brd*
G04 Film Name:    SOLDTOP*
G04 File Format:  Gerber RS274X*
G04 File Origin:  Cadence Allegro 17.4-S037*
G04 Origin Date:  Wed Feb 28 20:17:22 2024*
G04 *
G04 Layer:  BOARD GEOMETRY/SOLDERMASK_TOP*
G04 Layer:  PACKAGE GEOMETRY/SOLDERMASK_TOP*
G04 Layer:  PIN/SOLDERMASK_TOP*
G04 *
G04 Offset:    (0.000 0.000)*
G04 Mirror:    No*
G04 Mode:      Positive*
G04 Rotation:  0*
G04 FullContactRelief:  No*
G04 UndefLineWidth:     6.000*
G04 ================== end FILE IDENTIFICATION RECORD ====================*
%FSLAX35Y35*MOIN*%
%IR0*IPPOS*OFA0.00000B0.00000*MIA0B0*SFA1.00000B1.00000*%
%ADD12R,.070988X.08674*%
%ADD41R,.05524X.106421*%
%ADD44R,.106421X.05524*%
%AMMACRO39*
4,1,26,.000098,.028598,
.000038,.029284,
-.00014,.029948,
-.000431,.030572,
-.000826,.031136,
-.001312,.031623,
-.001876,.032018,
-.0025,.032309,
-.003164,.032487,
-.00385,.032547,
-.004536,.032487,
-.005201,.032309,
-.005824,.032018,
-.006388,.031623,
-.006875,.031137,
-.00727,.030573,
-.007561,.029949,
-.007739,.029284,
-.007799,.028599,
-.007799,.028598,
-.007799,.001799,
.000098,-.003701,
.000098,-.0325,
.007902,-.0325,
.007902,.005299,
.000098,.010799,
.000098,.028598,
0.0*
%
%ADD39MACRO39*%
%AMMACRO26*
4,1,25,.007799,.000402,
0.0,-.006299,
0.0,-.031902,
-.007902,-.031902,
-.007902,-.001201,
0.0,.0055,
0.0,.028,
.000065,.028677,
.000247,.029332,
.00054,.029945,
.000935,.030498,
.00142,.030975,
.00198,.031359,
.002599,.031641,
.003257,.031811,
.003935,.031864,
.004611,.031799,
.005266,.031617,
.00588,.031324,
.006433,.030929,
.006909,.030444,
.007294,.029884,
.007576,.029265,
.007746,.028607,
.007799,.028,
.007799,.000402,
0.0*
%
%ADD26MACRO26*%
%ADD33R,.051201X.141799*%
%AMMACRO27*
4,1,22,.004,-.031902,
.004,.028299,
.003897,.028966,
.003679,.029606,
.003353,.030198,
.00293,.030724,
.002422,.031169,
.001844,.031519,
.001214,.031763,
.000551,.031894,
-.000124,.031908,
-.000201,.031902,
-.000899,.031776,
-.001565,.031531,
-.002179,.031174,
-.00272,.030716,
-.003175,.030171,
-.003527,.029555,
-.003767,.028887,
-.003888,.028188,
-.003902,.027799,
-.003902,-.031902,
.004,-.031902,
0.0*
%
%ADD27MACRO27*%
%AMMACRO25*
4,1,25,.007902,-.031902,
0.0,-.031902,
0.0,-.006299,
-.007902,.000402,
-.007902,.028098,
-.007821,.028782,
-.007622,.029442,
-.007312,.030057,
-.0069,.030609,
-.006398,.031081,
-.005822,.031459,
-.005189,.031731,
-.004518,.031889,
-.00383,.031928,
-.003146,.031847,
-.002486,.031648,
-.001871,.031338,
-.001319,.030926,
-.000847,.030424,
-.000469,.029847,
-.000197,.029214,
-.000039,.028544,
0.0,.028098,
0.0,.0055,
.007902,-.001201,
.007902,-.031902,
0.0*
%
%ADD25MACRO25*%
%AMMACRO24*
4,1,25,-.007902,-.028598,
-.007832,-.029275,
-.007645,-.029929,
-.007347,-.03054,
-.006948,-.031091,
-.006459,-.031564,
-.005895,-.031945,
-.005274,-.032222,
-.004614,-.032388,
-.003936,-.032436,
-.003259,-.032365,
-.002605,-.032179,
-.001993,-.031881,
-.001443,-.031482,
-.00097,-.030993,
-.000589,-.030429,
-.000311,-.029808,
-.000146,-.029148,
-.000098,-.028598,
-.000098,-.010799,
.007799,-.005299,
.007799,.0325,
-.000098,.0325,
-.000098,.003701,
-.007902,-.001799,
-.007902,-.028598,
0.0*
%
%ADD24MACRO24*%
%ADD45R,.05X.04*%
%ADD19R,.042X.04*%
%ADD11R,.04X.05*%
%ADD10R,.04X.042*%
%ADD22R,.1025X.134*%
%ADD15O,.052X.083*%
%ADD30R,.0515X.071*%
%ADD28O,.011902X.0355*%
%ADD20O,.0355X.011902*%
%ADD32C,.068*%
%ADD16O,.051201X.074902*%
%ADD35R,.027201X.056701*%
%ADD34R,.056701X.027201*%
%AMMACRO23*
4,1,26,-.000098,-.028598,
-.000038,-.029284,
.00014,-.029948,
.000431,-.030572,
.000826,-.031136,
.001312,-.031623,
.001876,-.032018,
.0025,-.032309,
.003164,-.032487,
.00385,-.032547,
.004536,-.032487,
.005201,-.032309,
.005824,-.032018,
.006388,-.031623,
.006875,-.031137,
.00727,-.030573,
.007561,-.029949,
.007739,-.029284,
.007799,-.028599,
.007799,-.028598,
.007799,-.001799,
-.000098,.003701,
-.000098,.0325,
-.007902,.0325,
-.007902,-.005299,
-.000098,-.010799,
-.000098,-.028598,
0.0*
%
%ADD23MACRO23*%
%ADD13C,.04528*%
%ADD31O,.063118X.09461*%
%AMMACRO37*
4,1,25,-.007799,-.000402,
0.0,.006299,
0.0,.031902,
.007902,.031902,
.007902,.001201,
0.0,-.0055,
0.0,-.028,
-.000065,-.028677,
-.000247,-.029332,
-.00054,-.029945,
-.000935,-.030498,
-.00142,-.030975,
-.00198,-.031359,
-.002599,-.031641,
-.003257,-.031811,
-.003935,-.031864,
-.004611,-.031799,
-.005266,-.031617,
-.00588,-.031324,
-.006433,-.030929,
-.006909,-.030444,
-.007294,-.029884,
-.007576,-.029265,
-.007746,-.028607,
-.007799,-.028,
-.007799,-.000402,
0.0*
%
%ADD37MACRO37*%
%AMMACRO38*
4,1,22,-.004,.031902,
-.004,-.028299,
-.003897,-.028966,
-.003679,-.029606,
-.003353,-.030198,
-.00293,-.030724,
-.002422,-.031169,
-.001844,-.031519,
-.001214,-.031763,
-.000551,-.031894,
.000124,-.031908,
.000201,-.031902,
.000899,-.031776,
.001565,-.031531,
.002179,-.031174,
.00272,-.030716,
.003175,-.030171,
.003527,-.029555,
.003767,-.028887,
.003888,-.028188,
.003902,-.027799,
.003902,.031902,
-.004,.031902,
0.0*
%
%ADD38MACRO38*%
%AMMACRO36*
4,1,25,-.007902,.031902,
0.0,.031902,
0.0,.006299,
.007902,-.000402,
.007902,-.028098,
.007821,-.028782,
.007622,-.029442,
.007312,-.030057,
.0069,-.030609,
.006398,-.031081,
.005822,-.031459,
.005189,-.031731,
.004518,-.031889,
.00383,-.031928,
.003146,-.031847,
.002486,-.031648,
.001871,-.031338,
.001319,-.030926,
.000847,-.030424,
.000469,-.029847,
.000197,-.029214,
.000039,-.028544,
0.0,-.028098,
0.0,-.0055,
-.007902,.001201,
-.007902,.031902,
0.0*
%
%ADD36MACRO36*%
%ADD21R,.055118X.015748*%
%ADD14R,.015799X.055201*%
%AMMACRO40*
4,1,25,.007902,.028598,
.007832,.029275,
.007645,.029929,
.007347,.03054,
.006948,.031091,
.006459,.031564,
.005895,.031945,
.005274,.032222,
.004614,.032388,
.003936,.032436,
.003259,.032365,
.002605,.032179,
.001993,.031881,
.001443,.031482,
.00097,.030993,
.000589,.030429,
.000311,.029808,
.000146,.029148,
.000098,.028598,
.000098,.010799,
-.007799,.005299,
-.007799,-.0325,
.000098,-.0325,
.000098,-.003701,
.007902,.001799,
.007902,.028598,
0.0*
%
%ADD40MACRO40*%
%ADD17R,.039941X.039941*%
%ADD18R,.053941X.039941*%
%ADD42R,.031618X.074929*%
%ADD43R,.074929X.031618*%
%ADD29R,.084571X.06778*%
%LPD*%
G75*
G54D10*
X10433Y13307D03*
X15945D03*
X15787Y18976D03*
X10276D03*
X15906Y24921D03*
X10394D03*
X37244Y66260D03*
X37284Y59842D03*
X36522Y82346D03*
X31010D03*
X25529Y82425D03*
X20017D03*
X47598Y34685D03*
X53110D03*
X54252Y59646D03*
X48740D03*
X42756Y66260D03*
X42795Y59842D03*
X66549Y42000D03*
X72060D03*
X70800Y35460D03*
X65288D03*
X77284Y94803D03*
X82795D03*
X116811Y13150D03*
X116693Y7441D03*
X116811Y18898D03*
X118044Y84749D03*
X107402Y84409D03*
X101890D03*
X122323Y13150D03*
X122205Y7441D03*
X122323Y18898D03*
X123556Y84749D03*
G54D20*
X39134Y43301D03*
Y45269D03*
Y47236D03*
Y49206D03*
X54881Y49205D03*
Y47236D03*
Y45268D03*
Y43299D03*
X117244Y74101D03*
Y72134D03*
Y70164D03*
X101497Y70165D03*
Y72134D03*
Y74102D03*
X117244Y76069D03*
X101497Y76071D03*
G54D11*
X9882Y6024D03*
X16182D03*
X24645Y6220D03*
X30945D03*
G54D21*
X25000Y52874D03*
Y50905D03*
X24993Y48929D03*
X25000Y46968D03*
Y60749D03*
Y58779D03*
Y56811D03*
Y54842D03*
G54D30*
X47485Y77835D03*
X59129D03*
G54D12*
X14448Y40276D03*
Y67440D03*
G54D40*
X111920Y77382D03*
G54D31*
X50314Y107953D03*
X82992D03*
G54D13*
X5315Y76024D03*
X5433Y84409D03*
X71511Y47753D03*
X78622Y87480D03*
X84198Y80809D03*
X102008Y25591D03*
X130532Y58942D03*
X135276Y86614D03*
X154370Y33386D03*
X154291Y27126D03*
X154173Y21063D03*
G54D22*
X44488Y17323D03*
X68110D03*
X100945Y101575D03*
X124567D03*
G54D14*
X16417Y92661D03*
X14449D03*
X11299D03*
X13267D03*
X10118D03*
X32165D03*
X30197D03*
X26260D03*
X20354D03*
X35315D03*
X18387D03*
X22323D03*
X24291D03*
X28228D03*
X33346D03*
X36496D03*
G54D23*
X47618Y41978D03*
G54D32*
X58779Y107953D03*
X66654D03*
X74528D03*
G54D41*
X128779Y5276D03*
X150826D03*
G54D42*
X137834Y18661D03*
X133897D03*
X145708D03*
X141771D03*
G54D15*
X6279Y95686D03*
X40335D03*
G54D24*
X44458Y41988D03*
G54D33*
X76988Y53434D03*
Y74458D03*
X109882Y32126D03*
Y53150D03*
X137716Y31929D03*
Y52953D03*
G54D43*
X138661Y73937D03*
Y70000D03*
Y81811D03*
Y77874D03*
G54D34*
X98622Y9173D03*
Y12913D03*
Y16654D03*
X107992Y12913D03*
Y9173D03*
Y16654D03*
G54D16*
X6278Y112142D03*
X40336D03*
G54D25*
X42468Y50588D03*
G54D17*
X31380Y12785D03*
Y20285D03*
G54D35*
X88858Y8622D03*
X85118D03*
X81378D03*
Y17992D03*
X85118D03*
X88858D03*
X88819Y30118D03*
X85079D03*
X81338D03*
Y39488D03*
X85079D03*
X88819D03*
G54D26*
X49568Y50558D03*
G54D44*
X152047Y64882D03*
Y86928D03*
G54D18*
X23380Y16535D03*
G54D36*
X113910Y68782D03*
G54D45*
X150984Y108426D03*
Y102126D03*
G54D27*
X46008Y50558D03*
G54D37*
X106810Y68812D03*
G54D28*
X51929Y40347D03*
Y52158D03*
X104449Y67212D03*
Y79023D03*
G54D19*
X38494Y29788D03*
X31535Y54528D03*
X31654Y43425D03*
Y48937D03*
X38494Y35300D03*
X31535Y60039D03*
X60794Y41884D03*
Y47396D03*
X131005Y71513D03*
X125528Y71552D03*
X131005Y77025D03*
X125528Y77064D03*
X139279Y94759D03*
Y100271D03*
G54D29*
X49388Y89882D03*
X69588D03*
G54D38*
X110370Y68812D03*
G54D39*
X108760Y77392D03*
M02*
