G04 ================== begin FILE IDENTIFICATION RECORD ==================*
G04 Layout Name:  D:/Projects/Mini_Audio/01.Hardware/POWER/PCB/POWER.brd*
G04 Film Name:    SOLDBOT*
G04 File Format:  Gerber RS274X*
G04 File Origin:  Cadence Allegro 17.4-S037*
G04 Origin Date:  Wed Feb 28 20:17:22 2024*
G04 *
G04 Layer:  BOARD GEOMETRY/SOLDERMASK_BOTTOM*
G04 Layer:  PACKAGE GEOMETRY/SOLDERMASK_BOTTOM*
G04 Layer:  PIN/SOLDERMASK_BOTTOM*
G04 *
G04 Offset:    (0.000 0.000)*
G04 Mirror:    No*
G04 Mode:      Positive*
G04 Rotation:  0*
G04 FullContactRelief:  No*
G04 UndefLineWidth:     6.000*
G04 ================== end FILE IDENTIFICATION RECORD ====================*
%FSLAX35Y35*MOIN*%
%IR0*IPPOS*OFA0.00000B0.00000*MIA0B0*SFA1.00000B1.00000*%
%ADD14R,.042X.04*%
%ADD13R,.04X.042*%
%ADD22R,.051X.046*%
%ADD10O,.052X.083*%
%ADD17R,.0515X.071*%
%ADD12O,.051201X.074902*%
%ADD11R,.056701X.027201*%
%ADD15R,.027701X.0395*%
%ADD20R,.01902X.027882*%
%ADD18R,.08674X.041461*%
%ADD21R,.039941X.039941*%
%ADD23R,.053941X.039941*%
%ADD19R,.072961X.043429*%
%ADD16R,.084571X.06778*%
%LPD*%
G75*
G54D10*
X6279Y95686D03*
X40335D03*
G54D20*
X122834Y85403D03*
X124804D03*
X126771D03*
X128740D03*
Y92707D03*
X126771D03*
X124804D03*
X122834D03*
G54D11*
X17913Y90394D03*
Y86654D03*
Y82913D03*
X27283D03*
Y86654D03*
Y90394D03*
G54D21*
X134722Y92628D03*
X123187Y109026D03*
Y101526D03*
X134722Y100128D03*
G54D12*
X6278Y112142D03*
X40336D03*
G54D22*
X141772Y77654D03*
Y85654D03*
G54D13*
X37284Y59842D03*
X42795D03*
X57480Y99764D03*
X62992D03*
X68858Y99803D03*
X74370D03*
X117008Y14055D03*
X111496D03*
Y19764D03*
X117008D03*
X114370Y54018D03*
X108859D03*
X119620Y71038D03*
X114291Y59648D03*
X108780D03*
X137165Y33937D03*
X133032Y53939D03*
X138544D03*
X125132Y71038D03*
X133032Y59569D03*
X138544D03*
X142677Y33937D03*
X148386Y28465D03*
X142874D03*
G54D23*
X131187Y105276D03*
X142722Y96378D03*
G54D14*
X34646Y87284D03*
Y81772D03*
X56339Y70827D03*
X50551Y70748D03*
X56339Y76339D03*
X50551Y76260D03*
X66850Y42913D03*
Y48425D03*
X92984Y71710D03*
Y77222D03*
X121063Y48191D03*
Y42679D03*
X114843Y48191D03*
Y42679D03*
X127126Y48230D03*
Y42719D03*
X133229Y48230D03*
Y42719D03*
X137284Y111181D03*
Y105669D03*
X150079Y94803D03*
X149094Y84213D03*
Y78701D03*
X150079Y100315D03*
G54D15*
X22932Y110232D03*
X20962Y105444D03*
X24899D03*
G54D16*
X66239Y59173D03*
X86439D03*
G54D17*
X118273Y34844D03*
X129917D03*
G54D18*
X132835Y71063D03*
Y77599D03*
G54D19*
X125787Y89055D03*
M02*
