G04 ================== begin FILE IDENTIFICATION RECORD ==================*
G04 Layout Name:  D:/Projects/Mini_Audio/01.Hardware/POWER/PCB/POWER.brd*
G04 Film Name:    SOLDTOP*
G04 File Format:  Gerber RS274X*
G04 File Origin:  Cadence Allegro 17.4-S037*
G04 Origin Date:  Wed Jan 24 15:03:11 2024*
G04 *
G04 Layer:  BOARD GEOMETRY/SOLDERMASK_TOP*
G04 Layer:  PACKAGE GEOMETRY/SOLDERMASK_TOP*
G04 Layer:  PIN/SOLDERMASK_TOP*
G04 *
G04 Offset:    (0.000 0.000)*
G04 Mirror:    No*
G04 Mode:      Positive*
G04 Rotation:  0*
G04 FullContactRelief:  No*
G04 UndefLineWidth:     6.000*
G04 ================== end FILE IDENTIFICATION RECORD ====================*
%FSLAX35Y35*MOIN*%
%IR0*IPPOS*OFA0.00000B0.00000*MIA0B0*SFA1.00000B1.00000*%
%AMMACRO33*
21,1,.04,.042,0.0,0.0,135.*%
%ADD33MACRO33*%
%ADD41R,.082681X.062988*%
%ADD22R,.027598X.011799*%
%AMMACRO27*
4,1,25,-.000402,.007799,
.006299,0.0,
.031902,0.0,
.031902,-.007902,
.001201,-.007902,
-.0055,0.0,
-.028,0.0,
-.028677,.000066,
-.029331,.000249,
-.029945,.000542,
-.030497,.000937,
-.030973,.001423,
-.031358,.001984,
-.031639,.002603,
-.031808,.003261,
-.03186,.003939,
-.031794,.004615,
-.031612,.00527,
-.031318,.005883,
-.030923,.006436,
-.030438,.006912,
-.029877,.007296,
-.029258,.007577,
-.0286,.007747,
-.028,.007799,
-.000402,.007799,
0.0*
%
%ADD27MACRO27*%
%AMMACRO28*
4,1,22,.031902,.004,
-.028299,.004,
-.028966,.003897,
-.029606,.003679,
-.030198,.003353,
-.030724,.00293,
-.031169,.002422,
-.031519,.001844,
-.031763,.001214,
-.031894,.000551,
-.031908,-.000124,
-.031902,-.000201,
-.031776,-.000899,
-.031531,-.001565,
-.031174,-.002179,
-.030716,-.00272,
-.030171,-.003175,
-.029555,-.003527,
-.028887,-.003767,
-.028188,-.003888,
-.027799,-.003902,
.031902,-.003902,
.031902,.004,
0.0*
%
%ADD28MACRO28*%
%AMMACRO23*
4,1,25,.031902,.007902,
.031902,0.0,
.006299,0.0,
-.000402,-.007902,
-.028098,-.007902,
-.028782,-.007821,
-.029442,-.007623,
-.030058,-.007313,
-.03061,-.006901,
-.031082,-.0064,
-.03146,-.005823,
-.031732,-.005191,
-.031891,-.00452,
-.03193,-.003832,
-.031849,-.003148,
-.031651,-.002488,
-.031341,-.001872,
-.030929,-.00132,
-.030428,-.000848,
-.029852,-.00047,
-.029219,-.000198,
-.028548,-.000039,
-.028098,0.0,
-.0055,0.0,
.001201,.007902,
.031902,.007902,
0.0*
%
%ADD23MACRO23*%
%ADD17R,.141799X.051201*%
%ADD35R,.106358X.08274*%
%AMMACRO26*
4,1,25,.028598,-.007902,
.029275,-.007832,
.029929,-.007645,
.03054,-.007347,
.031091,-.006948,
.031564,-.006459,
.031945,-.005895,
.032222,-.005274,
.032388,-.004614,
.032436,-.003936,
.032365,-.003259,
.032179,-.002605,
.031881,-.001993,
.031482,-.001443,
.030993,-.00097,
.030429,-.000589,
.029808,-.000311,
.029148,-.000146,
.028598,-.000098,
.010799,-.000098,
.005299,.007799,
-.0325,.007799,
-.0325,-.000098,
-.003701,-.000098,
.001799,-.007902,
.028598,-.007902,
0.0*
%
%ADD26MACRO26*%
%AMMACRO31*
21,1,.013839,.027618,0.0,0.0,135.*%
%ADD31MACRO31*%
%ADD21R,.04X.05*%
%AMMACRO20*
21,1,.04,.042,0.0,0.0,45.*%
%ADD20MACRO20*%
%ADD19R,.042X.04*%
%ADD34R,.134X.1025*%
%ADD16R,.04X.042*%
%ADD38O,.052X.083*%
%ADD42R,.046X.051*%
%ADD14R,.071X.0515*%
%ADD10C,.07*%
%ADD24O,.011902X.0355*%
%ADD29O,.0355X.011902*%
%ADD13C,.068*%
%ADD11R,.07X.07*%
%ADD39O,.051201X.074902*%
%ADD18R,.027201X.056701*%
%AMMACRO25*
4,1,26,.028598,-.000098,
.029284,-.000038,
.029949,.000139,
.030573,.00043,
.031137,.000824,
.031623,.001311,
.032019,.001875,
.03231,.002498,
.032488,.003163,
.032549,.003848,
.032489,.004534,
.032311,.005199,
.032021,.005823,
.031626,.006387,
.03114,.006874,
.030576,.007269,
.029952,.00756,
.029288,.007739,
.028602,.007799,
.028598,.007799,
.001799,.007799,
-.003701,-.000098,
-.0325,-.000098,
-.0325,-.007902,
.005299,-.007902,
.010799,-.000098,
.028598,-.000098,
0.0*
%
%ADD25MACRO25*%
%ADD15R,.024X.053299*%
%ADD40R,.014961X.030118*%
%ADD44R,.0395X.019811*%
%ADD12O,.063118X.09461*%
%ADD43R,.0395X.023748*%
%ADD36R,.019748X.0355*%
%AMMACRO32*
21,1,.063059,.063059,0.0,0.0,45.*%
%ADD32MACRO32*%
%ADD37R,.015799X.055201*%
%AMMACRO30*
21,1,.013839,.027618,0.0,0.0,45.*%
%ADD30MACRO30*%
%LPD*%
G75*
G54D10*
X13780Y28150D03*
Y47835D03*
Y37992D03*
Y78543D03*
G54D11*
Y18307D03*
Y68701D03*
G54D20*
X78330Y90534D03*
X74426Y86631D03*
G54D30*
X89097Y71296D03*
X91880Y74080D03*
X90488Y72687D03*
X80740Y79644D03*
X82132Y81035D03*
X83524Y82428D03*
X93268Y75467D03*
X84916Y83819D03*
G54D12*
X8858Y108661D03*
X41536D03*
G54D21*
X74409Y112205D03*
X90157D03*
X96457D03*
X80709D03*
G54D40*
X139370Y61388D03*
X137402D03*
Y72470D03*
X139370D03*
X143307Y61388D03*
X141339D03*
Y72470D03*
X143307D03*
X145276Y61388D03*
Y72470D03*
G54D13*
X17323Y108661D03*
X25197D03*
X33071D03*
G54D31*
X84926Y71290D03*
X83534Y72682D03*
X82142Y74074D03*
X80751Y75465D03*
X89102Y83817D03*
X90494Y82425D03*
X91886Y81033D03*
X93278Y79642D03*
G54D22*
X87777Y5607D03*
Y7307D03*
X93328Y5607D03*
Y7307D03*
X98919Y5607D03*
Y7307D03*
G54D32*
X87008Y77559D03*
G54D14*
X33465Y23707D03*
Y35348D03*
G54D23*
X88546Y33649D03*
G54D41*
X141339Y66928D03*
G54D15*
X37315Y65062D03*
X34715D03*
X32215D03*
X29615D03*
Y82182D03*
X32215D03*
X34715D03*
X37315D03*
G54D24*
X95836Y30319D03*
X93866D03*
X91896D03*
X89926D03*
Y46059D03*
X91896D03*
X93866D03*
X95836D03*
G54D42*
X137400Y81900D03*
X145400D03*
G54D33*
X98048Y90140D03*
X101952Y86238D03*
G54D43*
X155315Y24410D03*
Y40158D03*
G54D25*
X97156Y38799D03*
G54D16*
X38980Y94094D03*
X33461D03*
X25594D03*
X20075D03*
X47634Y61811D03*
X53154D03*
X55516Y85039D03*
X49996D03*
X56040Y90000D03*
X78736Y52362D03*
Y57874D03*
X61560Y90000D03*
X75193Y105906D03*
X93411Y22216D03*
X87891D03*
X97360Y52600D03*
X91840D03*
X84256Y52362D03*
Y57874D03*
X90555Y93701D03*
X85036D03*
X90154Y105906D03*
X95673D03*
X80713D03*
G54D34*
X123622Y26379D03*
Y49999D03*
G54D44*
X145473Y32284D03*
Y30315D03*
Y28346D03*
Y36220D03*
Y34252D03*
G54D26*
X97146Y35639D03*
G54D35*
X118898Y76575D03*
G54D17*
X46577Y17716D03*
Y45276D03*
X67596Y17716D03*
Y45276D03*
G54D36*
X120178Y69291D03*
X117618D03*
X115059D03*
Y81102D03*
X117618D03*
X120178D03*
X122737Y69291D03*
Y81102D03*
G54D18*
X56496Y68538D03*
X52756D03*
X49016D03*
Y77918D03*
X52756D03*
X56496D03*
G54D27*
X88576Y40749D03*
G54D37*
X118305Y94590D03*
X120275D03*
X117125D03*
X139175D03*
X137205D03*
X133265D03*
X127365D03*
X123425D03*
X121455D03*
X125395D03*
X129335D03*
X131295D03*
X135235D03*
X140355D03*
X142325D03*
X143505D03*
G54D19*
X71654Y74406D03*
Y79925D03*
X87777Y11149D03*
X93328D03*
X98919Y11070D03*
X87777Y16668D03*
X93328D03*
X98919Y16590D03*
X105800Y23440D03*
Y28960D03*
X105600Y41340D03*
Y46860D03*
X105118Y74012D03*
Y79532D03*
X142126Y53547D03*
Y48028D03*
X129921Y68114D03*
Y62595D03*
Y74012D03*
Y79532D03*
X147638Y53547D03*
Y48028D03*
X150394Y69689D03*
Y64169D03*
G54D28*
X88576Y37189D03*
G54D29*
X98786Y43109D03*
X86976D03*
G54D38*
X113285Y97611D03*
X147345D03*
G54D39*
X113285Y114071D03*
X147345D03*
M02*
