G04 ================== begin FILE IDENTIFICATION RECORD ==================*
G04 Layout Name:  E:/PROJECTS/Mini_Audio/01.Hardware/DSP/PCB/DSP.brd*
G04 Film Name:    01.TOP*
G04 File Format:  Gerber RS274X*
G04 File Origin:  Cadence Allegro 17.4-S035*
G04 Origin Date:  Sun Jan 28 21:08:53 2024*
G04 *
G04 Layer:  VIA CLASS/TOP*
G04 Layer:  PIN/TOP*
G04 Layer:  ETCH/TOP*
G04 *
G04 Offset:    (0.000 0.000)*
G04 Mirror:    No*
G04 Mode:      Positive*
G04 Rotation:  0*
G04 FullContactRelief:  No*
G04 UndefLineWidth:     5.000*
G04 ================== end FILE IDENTIFICATION RECORD ====================*
%FSLAX35Y35*MOIN*%
%IR0*IPPOS*OFA0.00000B0.00000*MIA0B0*SFA1.00000B1.00000*%
%ADD10R,.086598X.059098*%
%ADD24R,.177201X.177201*%
%ADD26R,.047201X.137799*%
%ADD20R,.04X.03*%
%ADD23O,.0315X.011*%
%ADD12R,.032X.03*%
%ADD25O,.011X.0315*%
%ADD13R,.03X.032*%
%ADD17R,.064X.01*%
%ADD16R,.01X.064*%
%ADD29R,.045X.04*%
%ADD30R,.05X.045*%
%ADD22R,.045X.05*%
%ADD18C,.06*%
%ADD11C,.024*%
%ADD32R,.0315X.011811*%
%ADD28R,.062X.0265*%
%ADD31R,.019701X.0315*%
%ADD19R,.06X.06*%
%ADD21R,.070902X.053201*%
%ADD33R,.0315X.015748*%
%ADD14R,.047201X.055098*%
%ADD15R,.055098X.047201*%
%ADD34C,.01*%
%ADD35C,.02*%
%ADD36C,.015*%
%ADD39C,.035404*%
%ADD40C,.076004*%
%ADD37C,.035406*%
%ADD38C,.035407*%
G75*
%LPD*%
G75*
G36*
G01X182880Y154980D02*
X212598D01*
G02X214035Y153543I0J-1437D01*
G01Y27060D01*
X212047D01*
G03X211247Y26260I0J-800D01*
G01Y24685D01*
G03X212047Y23885I800J0D01*
G01X214035D01*
Y11312D01*
X212047D01*
G03X211247Y10512I0J-800D01*
G01Y8937D01*
G03X212047Y8137I800J0D01*
G01X214035D01*
Y3937D01*
G02X212598Y2500I-1437J0D01*
G01X19100D01*
Y41574D01*
X27066D01*
Y41274D01*
G03X27866Y40474I800J0D01*
G01X30866D01*
G03X31666Y41274I0J800D01*
G01Y44474D01*
G03X30866Y45274I-800J0D01*
G01X27866D01*
G03X27066Y44474I0J-800D01*
G01Y44174D01*
X19100D01*
Y154980D01*
X109520D01*
G02X109803Y154298I0J-400D01*
G01X108700Y153194D01*
Y127294D01*
X107500Y126094D01*
Y118932D01*
X109468Y116963D01*
X113968D01*
X114500Y116432D01*
Y112261D01*
G02X113817Y111978I-400J0D01*
G01X106394Y119400D01*
X68800D01*
Y123997D01*
X69813Y125010D01*
G03X70340Y126283I-1273J1273D01*
G01Y128149D01*
X70440Y128207D01*
G03X70840Y128900I-400J693D01*
G01Y132100D01*
G03X70440Y132793I-800J0D01*
G01X70340Y132851D01*
Y133600D01*
G03X69813Y134873I-1800J0D01*
G01X69160Y135526D01*
Y140100D01*
X70360D01*
G03X71160Y140900I0J800D01*
G01Y146900D01*
G03X70360Y147700I-800J0D01*
G01X64360D01*
G03X63560Y146900I0J-800D01*
G01Y140900D01*
G03X64360Y140100I800J0D01*
G01X65560D01*
Y134780D01*
G03X66087Y133508I1800J0D01*
G01X66420Y133174D01*
G02X66438Y132627I-283J-283D01*
G03X66240Y132100I602J-527D01*
G01Y128900D01*
G03X66640Y128207I800J0D01*
G01X66740Y128149D01*
Y127029D01*
X65727Y126016D01*
G03X65200Y124743I1273J-1273D01*
G01Y119400D01*
X46368D01*
X40300Y113332D01*
Y74000D01*
X35368D01*
X34600Y73232D01*
Y69200D01*
X22868D01*
X21700Y68032D01*
Y56368D01*
X23168Y54900D01*
X32932D01*
X33700Y55668D01*
Y59400D01*
X39475D01*
Y56038D01*
G03X40276Y55238I800J0D01*
G01X43276D01*
G03X44076Y56038I0J800D01*
G01Y56338D01*
X46638D01*
G03X47557Y56718I0J1300D01*
G01X48122Y57283D01*
X58590D01*
G03X59390Y58083I0J800D01*
G01Y59358D01*
X59900Y59868D01*
Y61332D01*
X59390Y61842D01*
Y62213D01*
G02X60073Y62496I400J0D01*
G01X62068Y60500D01*
X69632D01*
X70600Y61468D01*
Y64823D01*
X72040D01*
G03X72520Y64983I0J800D01*
G03X73000Y64823I480J640D01*
G01X79910D01*
G03X80395Y64986I0J800D01*
G03X80880Y64823I485J637D01*
G01X83850D01*
G03X84650Y65623I0J800D01*
G01Y67523D01*
X87423D01*
G03X88342Y67903I0J1300D01*
G01X92376Y71937D01*
G03X92757Y72857I-919J919D01*
G01Y80846D01*
X93057D01*
G03X93857Y81646I0J800D01*
G01Y84646D01*
G03X93057Y85446I-800J0D01*
G01X89857D01*
G03X89056Y84646I0J-800D01*
G01Y81646D01*
G03X89857Y80846I800J0D01*
G01X90156D01*
Y73395D01*
X86884Y70123D01*
X84650D01*
Y72023D01*
G03X83850Y72823I-800J0D01*
G01X80880D01*
G03X80395Y72659I0J-800D01*
G03X79910Y72823I-485J-637D01*
G01X78740D01*
Y73601D01*
X81638Y76499D01*
X83700D01*
G03X84620Y76880I0J1300D01*
G01X86982Y79244D01*
G03X87363Y80163I-920J919D01*
G01Y80846D01*
X87663D01*
G03X88463Y81646I0J800D01*
G01Y84646D01*
G03X87663Y85446I-800J0D01*
G01X84463D01*
G03X83663Y84646I0J-800D01*
G01Y81646D01*
G03X84170Y80901I800J0D01*
G02X84307Y80246I-146J-372D01*
G01X83161Y79100D01*
X81418D01*
G02X81269Y79433I0J200D01*
G03X81324Y79499I-970J866D01*
G01X81332Y79509D01*
X81589Y79766D01*
G03X81970Y80685I-919J919D01*
G01Y80885D01*
X82269D01*
G03X83070Y81685I0J800D01*
G01Y84685D01*
G03X82269Y85485I-800J0D01*
G01X79069D01*
G03X78269Y84685I0J-800D01*
G01Y81685D01*
G03X78578Y81053I800J0D01*
G02X78616Y80454I-245J-316D01*
G01X74550Y76389D01*
G03X74170Y75470I919J-919D01*
G01Y72823D01*
X73000D01*
G03X72520Y72663I0J-800D01*
G03X72229Y72800I-480J-640D01*
G02X72040Y73472I94J389D01*
G01X73000Y74432D01*
Y75461D01*
X75845Y78306D01*
G03X76225Y79225I-919J919D01*
G01Y80667D01*
G02X76425Y80867I200J0D01*
G03X77225Y81668I0J800D01*
G01Y84868D01*
G03X76516Y85663I-800J0D01*
G02X76339Y85878I23J199D01*
G03X76344Y85986I-1296J108D01*
G01Y86061D01*
G02X76544Y86261I200J0D01*
G03X77344Y87061I0J800D01*
G01Y90600D01*
X78269D01*
Y87205D01*
G03X79069Y86404I800J0D01*
G01X82269D01*
G03X83070Y87205I0J800D01*
G01Y90205D01*
G03X83054Y90361I-800J0D01*
G01X83050Y90380D01*
Y90600D01*
X83263D01*
G02X83663Y90188I0J-400D01*
G03X83663Y90165I800J-22D01*
G01Y87165D01*
G03X84463Y86365I800J0D01*
G01X87663D01*
G03X88463Y87165I0J800D01*
G01Y90165D01*
G03X88441Y90353I-800J0D01*
G01X88435Y90376D01*
Y90600D01*
X88657D01*
G02X89057Y90188I0J-400D01*
G03X89056Y90165I800J-22D01*
G01Y87165D01*
G03X89857Y86365I800J0D01*
G01X93057D01*
G03X93857Y87165I0J800D01*
G01Y87365D01*
X94841D01*
X94884Y87223D01*
G03X96345Y85853I1915J578D01*
G01X96500Y85817D01*
Y68360D01*
X96200D01*
G03X95400Y67560I0J-800D01*
G01Y64560D01*
G03X96200Y63760I800J0D01*
G01X99400D01*
G03X100200Y64560I0J800D01*
G01Y67560D01*
G03X99400Y68360I-800J0D01*
G01X99100D01*
Y86800D01*
G03X98793Y87640I-1300J0D01*
G03X98799Y87801I-1994J161D01*
G03X96799Y89801I-2000J0D01*
G03X96588Y89790I0J-2000D01*
G03X95935Y89966I-653J-1124D01*
G01X93932D01*
G02X94256Y90600I324J234D01*
G01X112832D01*
X113817Y91585D01*
G02X114500Y91302I283J-283D01*
G01Y86094D01*
X113768Y85363D01*
X109568D01*
X107100Y82894D01*
Y76232D01*
X108100Y75232D01*
Y51732D01*
X111668Y48163D01*
X166094D01*
X170532Y52600D01*
X174832D01*
X176100Y53868D01*
Y53968D01*
X183417Y61285D01*
G02X184100Y61003I283J-283D01*
G01Y59232D01*
X180000Y55132D01*
Y52000D01*
X175068D01*
X173900Y50831D01*
Y39968D01*
X175168Y38700D01*
X179568D01*
X179700Y38568D01*
Y35832D01*
X177868Y34000D01*
X170868D01*
X169800Y32932D01*
Y30300D01*
X159168D01*
X158300Y29432D01*
Y22905D01*
G02X157617Y22622I-400J0D01*
G01X156100Y24139D01*
Y40946D01*
G03X155719Y41865I-1300J0D01*
G01X151862Y45722D01*
G03X150943Y46103I-919J-919D01*
G01X93650D01*
Y47273D01*
G03X93486Y47758I-800J0D01*
G03X93650Y48243I-636J485D01*
G01Y49243D01*
G03X93486Y49728I-800J0D01*
G03X93650Y50213I-636J485D01*
G01Y51213D01*
G03X93490Y51693I-800J0D01*
G03X93650Y52173I-640J480D01*
G01Y53173D01*
G03X93486Y53658I-800J0D01*
G03X93650Y54143I-636J485D01*
G01Y55143D01*
G03X93486Y55628I-800J0D01*
G03X93650Y56113I-636J485D01*
G01Y57113D01*
G03X93486Y57598I-800J0D01*
G03X93650Y58083I-636J485D01*
G01Y59253D01*
X95019D01*
X95032Y59251D01*
G03X95200Y59240I168J1289D01*
G02X95400Y59040I0J-200D01*
G03X96200Y58240I800J0D01*
G01X99400D01*
G03X100200Y59040I0J800D01*
G01Y62040D01*
G03X99400Y62840I-800J0D01*
G01X96200D01*
G03X95400Y62050I0J-800D01*
G01X95397Y61853D01*
X93650D01*
Y63023D01*
G03X92850Y63823I-800J0D01*
G01X86450D01*
G03X85649Y63023I0J-800D01*
G01Y62023D01*
G03X85813Y61538I800J0D01*
G03X85649Y61053I636J-485D01*
G01Y60053D01*
G03X85813Y59568I800J0D01*
G03X85649Y59083I637J-485D01*
G01Y58083D01*
G03X85813Y57598I800J0D01*
G03X85649Y57113I636J-485D01*
G01Y56113D01*
G03X85813Y55628I800J0D01*
G03X85649Y55143I636J-485D01*
G01Y54143D01*
G03X85813Y53658I800J0D01*
G03X85649Y53173I636J-485D01*
G01Y52173D01*
G03X85809Y51693I800J0D01*
G03X85649Y51213I640J-480D01*
G01Y50213D01*
G03X85813Y49728I800J0D01*
G03X85649Y49243I636J-485D01*
G01Y48243D01*
G03X85813Y47758I800J0D01*
G03X85649Y47273I636J-485D01*
G01Y46273D01*
G03X85813Y45788I800J0D01*
G03X85649Y45303I636J-485D01*
G01Y44303D01*
G03X85813Y43818I800J0D01*
G03X85649Y43333I637J-485D01*
G01Y42333D01*
G03X85813Y41848I800J0D01*
G03X85649Y41363I636J-485D01*
G01Y40363D01*
G03X86450Y39563I800J0D01*
G01X92850D01*
G03X93650Y40363I0J800D01*
G01Y41533D01*
X149828D01*
X151700Y39661D01*
Y22854D01*
G03X152081Y21935I1300J0D01*
G01X159828Y14187D01*
G03X160748Y13806I919J919D01*
G01X191520D01*
Y13532D01*
G03X192320Y12732I800J0D01*
G01X197192D01*
X197371Y12553D01*
X197279Y12417D01*
G03X196938Y11300I1659J-1117D01*
G03X200938I2000J0D01*
G03X200238Y12820I-2000J0D01*
G01Y12824D01*
G03X200000Y13575I-1300J0D01*
G02X200068Y14112I327J231D01*
G03X200150Y14187I-838J994D01*
G01X200292Y14329D01*
X201833D01*
X201872Y14311D01*
G03X202205Y14239I333J728D01*
G01X205355D01*
G03X206155Y15039I0J800D01*
G01Y18189D01*
G03X206052Y18582I-800J0D01*
G03X206155Y18976I-697J393D01*
G01Y22126D01*
G03X205355Y22926I-800J0D01*
G01X202205D01*
G03X201872Y22854I0J-800D01*
G01X201833Y22836D01*
X199700D01*
G03X198400Y21535I0J-1300D01*
G01Y20833D01*
G03X198493Y20349I1300J0D01*
G02X198122Y19800I-371J-149D01*
G01X194124D01*
G03X193204Y19419I0J-1300D01*
G01X192386Y18601D01*
G03X192330Y18542I920J-919D01*
G02X191675Y18622I-300J264D01*
G03X189900Y19700I-1775J-922D01*
G03X188380Y19000I0J-2000D01*
G01X187700D01*
G03X186781Y18619I0J-1300D01*
G01X186368Y18207D01*
X162032D01*
X161622Y18617D01*
G02X161905Y19300I283J283D01*
G01X179332D01*
X180200Y20168D01*
Y25500D01*
X195032D01*
X196500Y26968D01*
Y35232D01*
X193432Y38300D01*
X191432D01*
X189500Y40232D01*
Y46932D01*
X188615Y47817D01*
G02X188897Y48500I283J283D01*
G01X189232D01*
X190700Y49968D01*
Y52332D01*
X192432Y54063D01*
X207132D01*
X209700Y56632D01*
Y75295D01*
X208132Y76863D01*
X202132D01*
X197500Y81494D01*
Y124394D01*
X191532Y130363D01*
X176568D01*
X175300Y129094D01*
Y115832D01*
X176168Y114963D01*
X183868D01*
X184300Y114532D01*
Y111160D01*
G02X183617Y110878I-400J0D01*
G01X183532Y110963D01*
X173868D01*
X168968Y106063D01*
X161000D01*
Y112463D01*
G03X160619Y113382I-1300J0D01*
G01X159856Y114146D01*
G03X158936Y114527I-919J-919D01*
G01X155982D01*
Y114827D01*
G03X155182Y115627I-800J0D01*
G01X152182D01*
G03X151382Y114827I0J-800D01*
G01Y111627D01*
G03X152182Y110827I800J0D01*
G01X155182D01*
G03X155982Y111627I0J800D01*
G01Y111927D01*
X158398D01*
X158400Y111924D01*
Y106063D01*
X150423D01*
Y109472D01*
G03X149623Y110273I-800J0D01*
G01X146623D01*
G03X145823Y109472I0J-800D01*
G01Y109173D01*
X143314D01*
G02X143031Y109855I0J400D01*
G01X145102Y111927D01*
X145862D01*
Y111627D01*
G03X146662Y110827I800J0D01*
G01X149662D01*
G03X150462Y111627I0J800D01*
G01Y114827D01*
G03X149662Y115627I-800J0D01*
G01X146662D01*
G03X145862Y114827I0J-800D01*
G01Y114527D01*
X144564D01*
G03X143644Y114146I0J-1300D01*
G01X142883Y113385D01*
G02X142200Y113668I-283J283D01*
G01Y116024D01*
X143496Y117320D01*
X145823D01*
Y117020D01*
G03X146623Y116220I800J0D01*
G01X149623D01*
G03X150423Y117020I0J800D01*
G01Y120220D01*
G03X149623Y121021I-800J0D01*
G01X146623D01*
G03X145823Y120220I0J-800D01*
G01Y119921D01*
X142958D01*
G03X142038Y119540I0J-1300D01*
G01X139981Y117482D01*
G03X139600Y116563I919J-919D01*
G01Y113102D01*
X138269Y111771D01*
X136367D01*
X136342Y111777D01*
G03X136002Y111821I-340J-1307D01*
G01X133952D01*
G03X132602Y110470I0J-1350D01*
G03X132909Y109614I1350J0D01*
G02Y109360I-155J-127D01*
G03X132602Y108503I1043J-857D01*
G03X133952Y107153I1350J0D01*
G01X136002D01*
G03X136342Y107196I0J1350D01*
G01X136367Y107203D01*
X139835D01*
G02X140118Y106520I0J-400D01*
G01X139464Y105866D01*
X136367D01*
X136342Y105872D01*
G03X136002Y105916I-340J-1307D01*
G01X133952D01*
G03X132602Y104566I0J-1350D01*
G03X132698Y104064I1350J0D01*
G01X132747Y103942D01*
X132200Y103394D01*
Y101732D01*
X132725Y101206D01*
X132682Y101087D01*
G03X132602Y100629I1270J-458D01*
G03X133952Y99278I1350J0D01*
G01X136002D01*
G03X136342Y99322I0J1350D01*
G01X136367Y99328D01*
X140896D01*
X141281Y98944D01*
G03X142200Y98563I919J919D01*
G01X142880D01*
G03X144400Y97863I1520J1300D01*
G03X145583Y98250I0J2000D01*
G02X145849Y98224I118J-161D01*
G03X146440Y97963I591J539D01*
G01X149440D01*
G03X150240Y98763I0J800D01*
G01Y102063D01*
X169868D01*
X172200Y99732D01*
Y96032D01*
X173568Y94663D01*
X183132D01*
X183617Y95148D01*
G02X184300Y94866I283J-283D01*
G01Y85794D01*
X183868Y85363D01*
X176468D01*
X175100Y83994D01*
Y77632D01*
X176468Y76263D01*
X182968D01*
X184100Y75132D01*
Y72060D01*
G02X183417Y71778I-400J0D01*
G01X183032Y72163D01*
X175168D01*
X168268Y65263D01*
X140732D01*
X139100Y66894D01*
Y75532D01*
X140500Y76932D01*
Y84594D01*
X139532Y85563D01*
X135632D01*
X133832Y87363D01*
X132232D01*
X131800Y87795D01*
Y91895D01*
X130932Y92763D01*
X129268D01*
X129000Y92495D01*
X128732Y92763D01*
X125268D01*
X124608Y92102D01*
X124496Y92132D01*
G03X124150Y92177I-346J-1305D01*
G03X123293Y91870I0J-1350D01*
G02X123039I-127J155D01*
G03X122182Y92177I-857J-1043D01*
G03X121748Y92105I0J-1350D01*
G01X121630Y92065D01*
X120932Y92763D01*
X117868D01*
X117600Y92495D01*
X117332Y92763D01*
X115468D01*
X115183Y92478D01*
G02X114500Y92760I-283J283D01*
G01Y110466D01*
G02X115183Y110748I400J0D01*
G01X115468Y110463D01*
X117232D01*
X117332Y110563D01*
X120932D01*
X121561Y111192D01*
X121683Y111144D01*
G03X122182Y111048I499J1255D01*
G03X123039Y111355I0J1350D01*
G02X123293I127J-155D01*
G03X124150Y111048I857J1043D01*
G03X124807Y111219I0J1350D01*
G01X124939Y111292D01*
X125368Y110863D01*
X129069D01*
X129268Y110663D01*
X130932D01*
X131700Y111432D01*
Y116932D01*
X132332Y117563D01*
X139132D01*
X140100Y118532D01*
Y126594D01*
X139600Y127094D01*
Y134032D01*
X140732Y135163D01*
X182632D01*
X184300Y136832D01*
Y152594D01*
X182597Y154298D01*
G02X182880Y154980I283J283D01*
G37*
G36*
G01X23200Y68400D02*
X33800D01*
X34700Y67500D01*
Y62800D01*
X35500Y62000D01*
X49600D01*
X50200Y61400D01*
X50420D01*
X50464Y61376D01*
G03X51077Y61223I613J1147D01*
G01X58590D01*
G03X58740Y61237I0J800D01*
G01X58843Y61256D01*
X59100Y61000D01*
Y60200D01*
X58800Y59900D01*
X45100D01*
X44800Y60200D01*
X33100D01*
X32900Y60000D01*
Y56000D01*
X32600Y55700D01*
X23500D01*
X22500Y56700D01*
Y67700D01*
X23200Y68400D01*
G37*
G36*
G01X46700Y118600D02*
X106063D01*
X107304Y117359D01*
G02X107021Y116677I-283J-283D01*
G01X102938D01*
Y116976D01*
G03X102138Y117777I-800J0D01*
G01X99138D01*
G03X98338Y116976I0J-800D01*
G01Y113776D01*
G03X99138Y112976I800J0D01*
G01X102138D01*
G03X102938Y113776I0J800D01*
G01Y114076D01*
X107461D01*
X109464Y112073D01*
G02X109443Y111489I-283J-283D01*
G03X109048Y110894I887J-1018D01*
G02X108385Y110736I-380J125D01*
G01X108141Y110981D01*
G03X107221Y111362I-919J-919D01*
G01X102938D01*
Y111661D01*
G03X102138Y112462I-800J0D01*
G01X99138D01*
G03X98338Y111661I0J-800D01*
G01Y108461D01*
G03X99138Y107661I800J0D01*
G01X101131D01*
G02X101272Y107320I0J-200D01*
G01X101099Y107147D01*
X99138D01*
G03X98338Y106346I0J-800D01*
G01Y103146D01*
G03X99138Y102346I800J0D01*
G01X102138D01*
G03X102938Y103146I0J800D01*
G01Y105308D01*
X103530Y105900D01*
X104145D01*
G02X104219Y105236I-182J-356D01*
G03X103500Y103700I1281J-1536D01*
G03X105500Y101700I2000J0D01*
G03X105655Y101706I1J2000D01*
G01X105684Y101677D01*
G03X106604Y101296I919J919D01*
G01X109965D01*
X109990Y101290D01*
G03X110330Y101246I340J1307D01*
G01X112380D01*
G03X112940Y101368I0J1350D01*
G02X113506Y101004I166J-364D01*
G01Y96315D01*
G02X112940Y95951I-400J0D01*
G03X112380Y96073I-560J-1229D01*
G01X110330D01*
G03X109990Y96029I0J-1350D01*
G01X109965Y96023D01*
X108205D01*
G03X107981Y96003I0J-1300D01*
G01X107964Y96000D01*
X105729D01*
X102899Y98831D01*
Y100992D01*
G03X102098Y101792I-800J0D01*
G01X99098D01*
G03X98298Y100992I0J-800D01*
G01Y97792D01*
G03X99098Y96992I800J0D01*
G01X101060D01*
X101272Y96779D01*
G02X101131Y96438I-141J-141D01*
G01X99059D01*
G03X98259Y95638I0J-800D01*
G01Y92438D01*
G03X98381Y92013I800J0D01*
G02X98042Y91400I-339J-213D01*
G01X72700D01*
X72200Y90900D01*
Y78339D01*
X68650Y74789D01*
G03X68270Y73870I919J-919D01*
G01Y65623D01*
G03X69070Y64823I800J0D01*
G01X69800D01*
Y61800D01*
X69300Y61300D01*
X62400D01*
X56300Y67400D01*
X36100D01*
X35400Y68100D01*
Y72900D01*
X35700Y73200D01*
X40700D01*
X41100Y73600D01*
Y113000D01*
X46700Y118600D01*
G37*
G36*
G01X46096Y66600D02*
X55968D01*
X58063Y64506D01*
G02X57780Y63823I-283J-283D01*
G01X51616D01*
X49720Y65719D01*
G03X48801Y66099I-919J-919D01*
G01X46101D01*
Y66299D01*
G03X46097Y66380I-800J0D01*
G01X46096Y66390D01*
Y66600D01*
G37*
G36*
G01X113284Y101579D02*
X113506Y101357D01*
Y96069D01*
X113218Y95781D01*
G03X112380Y96073I-838J-1059D01*
G01X110330D01*
G03X109990Y96029I0J-1350D01*
G01X109965Y96023D01*
X108205D01*
G03X107981Y96003I0J-1300D01*
G01X107964Y96000D01*
X105729D01*
X103300Y98429D01*
Y100063D01*
X104800Y101563D01*
X105815D01*
G03X106604Y101296I789J1033D01*
G01X109965D01*
X109990Y101290D01*
G03X110330Y101246I340J1307D01*
G01X112380D01*
G03X113146Y101485I0J1350D01*
G01X113284Y101579D01*
G37*
G36*
G01X129589Y91952D02*
X130611D01*
X130724Y91839D01*
Y91192D01*
X130717Y91167D01*
G03X130674Y90827I1307J-340D01*
G01Y88777D01*
G03X131000Y87897I1350J0D01*
G01Y87463D01*
X131900Y86563D01*
X133500D01*
X135300Y84763D01*
X139200D01*
X139700Y84263D01*
Y77263D01*
X138300Y75863D01*
Y66563D01*
X140400Y64463D01*
X168600D01*
X175500Y71363D01*
X182700D01*
X183700Y70363D01*
Y62700D01*
X175300Y54300D01*
Y54200D01*
X174500Y53400D01*
X170200D01*
X165763Y48963D01*
X112000D01*
X108900Y52063D01*
Y75563D01*
X107900Y76563D01*
Y82563D01*
X109900Y84563D01*
X114100D01*
X115300Y85763D01*
Y87860D01*
G03X115658Y88777I-992J916D01*
G01Y90827D01*
G03X115615Y91167I-1350J0D01*
G01X115608Y91192D01*
Y91771D01*
X115789Y91952D01*
X117011D01*
X117200Y91763D01*
Y91681D01*
G03X116895Y90827I1045J-855D01*
G01Y88777D01*
G03X116939Y88436I1350J0D01*
G01X116945Y88411D01*
Y87808D01*
G03X117200Y87035I1300J0D01*
G01Y83463D01*
X115900Y82163D01*
X113500D01*
X112600Y81263D01*
Y76663D01*
X113250Y76013D01*
X115450D01*
X116050Y75413D01*
Y68513D01*
X116800Y67763D01*
X130800D01*
X131600Y68563D01*
Y75563D01*
X132200Y76163D01*
X134100D01*
X134800Y76863D01*
Y81263D01*
X132600Y83463D01*
X131100D01*
X129300Y85263D01*
Y87207D01*
X129312Y87239D01*
G03X129387Y87676I-1225J437D01*
G01Y88412D01*
X129394Y88436D01*
G03X129437Y88777I-1307J340D01*
G01Y90827D01*
G03X129318Y91382I-1350J0D01*
G01X129300Y91421D01*
Y91663D01*
X129589Y91952D01*
G37*
G36*
G01X118189D02*
X120611D01*
X121026Y91537D01*
X120964Y91410D01*
G03X120832Y90827I1218J-583D01*
G01Y88777D01*
G03X120876Y88436I1350J0D01*
G01X120882Y88411D01*
Y83724D01*
X120007Y82848D01*
G03X119672Y82272I919J-919D01*
G01X119658Y82221D01*
X119096Y81659D01*
X119067Y81644D01*
G03X118711Y81288I359J-715D01*
G01X118696Y81259D01*
X118400Y80963D01*
Y77863D01*
X118629Y77634D01*
X118641Y77574D01*
G03X119271Y76944I785J155D01*
G01X119331Y76932D01*
X120200Y76063D01*
X122200D01*
X123300Y74963D01*
Y69063D01*
X122800Y68563D01*
X117300D01*
X116900Y68963D01*
Y75663D01*
X116850Y75713D01*
Y75744D01*
X115782Y76813D01*
X113582D01*
X113400Y76995D01*
Y80932D01*
X113832Y81363D01*
X116232D01*
X118000Y83132D01*
Y91763D01*
X118189Y91952D01*
G37*
G36*
G01X125589D02*
X128411D01*
X128500Y91863D01*
Y84932D01*
X130768Y82663D01*
X132268D01*
X134000Y80932D01*
Y77363D01*
X133600Y76963D01*
X131868D01*
X131500Y76963D01*
X130800Y76263D01*
Y75895D01*
X130800Y68894D01*
X130468Y68563D01*
X125400D01*
X124500Y69463D01*
Y75263D01*
X125300Y76063D01*
X127400D01*
X128900Y77563D01*
Y80963D01*
X127394Y82468D01*
X127379Y82502D01*
G03X127113Y82888I-1186J-533D01*
G01X125450Y84551D01*
Y88412D01*
X125457Y88436D01*
G03X125500Y88777I-1307J340D01*
G01Y90827D01*
G03X125329Y91486I-1350J0D01*
G01X125255Y91618D01*
X125589Y91952D01*
G37*
G36*
G01X110700Y154063D02*
X181700D01*
X183500Y152263D01*
Y137163D01*
X182300Y135963D01*
X172351D01*
G03X169249I-1551J-1263D01*
G01X140400D01*
X138800Y134363D01*
Y126763D01*
X139300Y126263D01*
Y118863D01*
X138800Y118363D01*
X132000D01*
X130900Y117263D01*
Y115197D01*
G03X130674Y114449I1124J-748D01*
G01Y112399D01*
G03X130794Y111841I1350J0D01*
G01X130852Y111715D01*
X130600Y111463D01*
X129600D01*
X129290Y111772D01*
X129340Y111895D01*
G03X129437Y112399I-1253J504D01*
G01Y114449D01*
G03X129394Y114789I-1350J0D01*
G01X129387Y114813D01*
Y115976D01*
G03X129100Y116791I-1300J0D01*
G01Y118063D01*
X130900Y119863D01*
X134700D01*
Y126263D01*
X134400Y126563D01*
X132800D01*
X132000Y127363D01*
Y133363D01*
X131200Y134163D01*
X116800D01*
X116100Y133463D01*
Y128163D01*
X115000Y127063D01*
X114000D01*
X112800Y125863D01*
Y120863D01*
X113200Y120463D01*
X115200D01*
X117200Y118463D01*
Y116482D01*
G03X116945Y115708I1045J-773D01*
G01Y114814D01*
X116939Y114789D01*
G03X116895Y114449I1307J-340D01*
G01Y112399D01*
G03X117191Y111554I1350J0D01*
G01X116910Y111273D01*
X115790D01*
X115430Y111633D01*
X115500Y111764D01*
G03X115658Y112399I-1192J635D01*
G01Y114449D01*
G03X115300Y115365I-1350J0D01*
G01Y116763D01*
X114300Y117763D01*
X109800D01*
X108300Y119263D01*
Y125763D01*
X109500Y126963D01*
Y152863D01*
X110700Y154063D01*
G37*
G36*
G01X117300Y133163D02*
X123100D01*
X123600Y132663D01*
Y126963D01*
X123200Y126563D01*
X119200D01*
X118600Y125963D01*
Y121663D01*
X119100Y121163D01*
X119500D01*
X119907Y120756D01*
X119922Y120709D01*
G03X120243Y120180I1240J390D01*
G01X120882Y119540D01*
Y114814D01*
X120876Y114789D01*
G03X120832Y114449I1307J-340D01*
G01Y112399D01*
G03X120937Y111876I1350J0D01*
G01X120989Y111752D01*
X120600Y111363D01*
X118000D01*
Y118794D01*
X115532Y121263D01*
X113600D01*
Y125532D01*
X114332Y126263D01*
X115332D01*
X115632Y126563D01*
X115700D01*
X116800Y127663D01*
Y127731D01*
X116900Y127832D01*
Y132763D01*
X117300Y133163D01*
G37*
G36*
G01X125500Y133363D02*
X130500D01*
X131200Y132663D01*
Y127032D01*
X132468Y125763D01*
X133900D01*
Y120663D01*
X130568D01*
X128300Y118394D01*
Y111663D01*
X125700D01*
X125425Y111938D01*
X125454Y112050D01*
G03X125500Y112399I-1305J349D01*
G01Y114449D01*
G03X125457Y114789I-1350J0D01*
G01X125450Y114813D01*
Y118281D01*
X127349Y120180D01*
G03X127699Y120818I-919J919D01*
G01X127712Y120875D01*
X127900Y121063D01*
X128600D01*
X129300Y121763D01*
Y126163D01*
X128900Y126563D01*
X125200D01*
X124800Y126963D01*
Y132663D01*
X125500Y133363D01*
G37*
G36*
G01X174200Y110163D02*
X183200D01*
X183700Y109663D01*
Y96363D01*
X182800Y95463D01*
X173900D01*
X173000Y96363D01*
Y100063D01*
X170200Y102863D01*
X145600D01*
X144593Y101856D01*
X144504Y101860D01*
G03X144400Y101863I-104J-1998D01*
G03X143803Y101772I0J-2000D01*
G01X143774Y101763D01*
X142072D01*
X142029Y101785D01*
G03X141434Y101929I-594J-1156D01*
G01X136367D01*
X136342Y101935D01*
G03X136002Y101979I-340J-1307D01*
G01X133952D01*
G03X133391Y101857I0J-1350D01*
G01X133264Y101799D01*
X133000Y102063D01*
Y103063D01*
X133308Y103371D01*
X133432Y103320D01*
G03X133952Y103216I520J1246D01*
G01X136002D01*
G03X136342Y103259I0J1350D01*
G01X136367Y103266D01*
X140003D01*
G03X140648Y103437I0J1300D01*
G01X140694Y103463D01*
X141800D01*
X143600Y105263D01*
X163020D01*
G03X164300Y104800I1280J1537D01*
G03X165528Y105221I0J2000D01*
G01X165582Y105263D01*
X166018D01*
X166072Y105221D01*
G03X167300Y104800I1228J1579D01*
G03X168580Y105263I0J2000D01*
G01X169300D01*
X174200Y110163D01*
G37*
G36*
G01X159500Y29500D02*
X169800D01*
Y28669D01*
X171068Y27400D01*
X176668D01*
X178568Y25500D01*
X179000D01*
X179400Y25100D01*
Y20500D01*
X179000Y20100D01*
X161700D01*
X159100Y22700D01*
Y29100D01*
X159500Y29500D01*
G37*
G36*
G01X178900Y26300D02*
X177000Y28200D01*
X171400D01*
X170600Y29000D01*
Y32600D01*
X171200Y33200D01*
X178300D01*
X178500Y33400D01*
Y33500D01*
X180500Y35500D01*
Y38900D01*
X179900Y39500D01*
X175500D01*
X174700Y40300D01*
Y50500D01*
X175400Y51200D01*
X179300D01*
X179900Y50600D01*
Y49200D01*
X181200Y47900D01*
X187400D01*
X188700Y46600D01*
Y39900D01*
X191100Y37500D01*
X193100D01*
X195700Y34900D01*
Y27300D01*
X194700Y26300D01*
X178900D01*
G37*
G36*
G01X189900Y52663D02*
Y50300D01*
X188900Y49300D01*
X182000D01*
X180800Y50500D01*
Y54800D01*
X184900Y58900D01*
Y75463D01*
X183300Y77063D01*
X176800D01*
X175900Y77963D01*
Y83663D01*
X176800Y84563D01*
X184200D01*
X185100Y85463D01*
Y114863D01*
X184200Y115763D01*
X176500D01*
X176100Y116163D01*
Y128763D01*
X176900Y129563D01*
X191200D01*
X196700Y124063D01*
Y81163D01*
X201800Y76063D01*
X207800D01*
X208900Y74963D01*
Y56963D01*
X206800Y54863D01*
X192100D01*
X189900Y52663D01*
G37*
%LPC*%
G75*
G36*
G01X199225Y127191D02*
Y133191D01*
G02X200025Y133992I800J0D01*
G01X206025D01*
G02X206825Y133191I0J-800D01*
G01Y127191D01*
G02X206025Y126391I-800J0D01*
G01X200025D01*
G02X199225Y127191I0J800D01*
G37*
G36*
G01X199107Y96404D02*
Y102404D01*
G02X199907Y103204I800J0D01*
G01X205907D01*
G02X206707Y102404I0J-800D01*
G01Y96404D01*
G02X205907Y95604I-800J0D01*
G01X199907D01*
G02X199107Y96404I0J800D01*
G37*
G36*
G01X115019Y31117D02*
Y34317D01*
G02X115819Y35117I800J0D01*
G01X118819D01*
G02X119619Y34317I0J-800D01*
G01Y31117D01*
G02X118819Y30316I-800J0D01*
G03X118619Y30116I0J-200D01*
G01Y29859D01*
X123348D01*
G02X124148Y29058I0J-800D01*
G01Y23738D01*
G02X123348Y22938I-800J0D01*
G01X116258D01*
G02X115458Y23738I0J800D01*
G01Y29058D01*
G02X115906Y29777I800J0D01*
G01X116019Y29832D01*
Y30116D01*
G03X115819Y30316I-200J0D01*
G02X115019Y31117I0J800D01*
G37*
G36*
G01X80079Y28320D02*
Y37763D01*
G02X80880Y38563I800J0D01*
G01X83850D01*
G02X84650Y37763I0J-800D01*
G01Y31363D01*
G02X83850Y30563I-800J0D01*
G01X82680D01*
Y28859D01*
X86825Y24714D01*
G02X87206Y23794I-919J-919D01*
G01Y21359D01*
X87505D01*
G02X88291Y20711I0J-800D01*
G03X88874Y20436I393J76D01*
G02X89492Y20592I618J-1144D01*
G01X90231D01*
Y20792D01*
G02X91032Y21592I800J0D01*
G01X95032D01*
G02X95832Y20792I0J-800D01*
G01Y17792D01*
G02X95032Y16992I-800J0D01*
G01X91032D01*
G02X90744Y17045I0J800D01*
G03X90200Y16672I-144J-373D01*
G01Y13934D01*
G02X89819Y13015I-1300J0D01*
G01X89425Y12620D01*
G02X88506Y12239I-919J919D01*
G03X88306Y12039I0J-200D01*
G02X87505Y11239I-800J0D01*
G01X84306D01*
G02X83505Y12039I0J800D01*
G01Y15039D01*
G02X84306Y15840I800J0D01*
G01X87600D01*
Y16759D01*
X84306D01*
G02X83505Y17559I0J800D01*
G01Y20559D01*
G02X84306Y21359I800J0D01*
G01X84605D01*
Y23256D01*
X80460Y27401D01*
G02X80079Y28320I919J919D01*
G37*
G36*
G01X47757Y53996D02*
X49324Y55562D01*
G02X50243Y55943I919J-919D01*
G01X58590D01*
G02X59390Y55143I0J-800D01*
G01Y54143D01*
G02X59226Y53658I-800J0D01*
G02X59390Y53173I-636J-485D01*
G01Y52173D01*
G02X59230Y51693I-800J0D01*
G02X59390Y51213I-640J-480D01*
G01Y50213D01*
G02X59226Y49728I-800J0D01*
G02X59390Y49243I-636J-485D01*
G01Y48243D01*
G02X59226Y47758I-800J0D01*
G02X59390Y47273I-636J-485D01*
G01Y46103D01*
X60202D01*
G02X61800Y46900I1598J-1203D01*
G02Y42900I0J-2000D01*
G02X60369Y43502I0J2000D01*
G01X59390D01*
Y42333D01*
G02X58590Y41533I-800J0D01*
G01X37427D01*
G02X37391Y41533I1J1300D01*
G03X37186Y41334I-5J-200D01*
G01Y41274D01*
G02X36386Y40474I-800J0D01*
G01X33386D01*
G02X32586Y41274I0J800D01*
G01Y44474D01*
G02X33386Y45274I800J0D01*
G01X36386D01*
G02X37186Y44474I0J-800D01*
G01Y44374D01*
G03X37386Y44174I200J0D01*
G02X37687Y44139I0J-1300D01*
G01X37710Y44133D01*
X51390D01*
Y45303D01*
G02X51553Y45788I800J0D01*
G02X51390Y46273I636J485D01*
G01Y47273D01*
G02X51553Y47758I800J0D01*
G02X51390Y48243I636J485D01*
G01Y49243D01*
G02X51553Y49728I800J0D01*
G02X51390Y50213I636J485D01*
G01Y51213D01*
G02X51550Y51693I800J0D01*
G02X51390Y52173I640J480D01*
G01Y53343D01*
X50782D01*
X49596Y52157D01*
X49599Y52070D01*
G02X49600Y52000I-1999J-69D01*
G02X47600Y50000I-2000J0D01*
G02X46137Y50636I0J2000D01*
G01X46078Y50700D01*
X45654D01*
X45634Y50696D01*
G02X45368Y50668I-265J1273D01*
G01X43997D01*
Y50369D01*
G02X43197Y49568I-800J0D01*
G01X40197D01*
G02X39397Y50369I0J800D01*
G01Y53568D01*
G02X40197Y54369I800J0D01*
G01X43197D01*
G02X43997Y53568I0J-800D01*
G01Y53269D01*
X45115D01*
X45135Y53273D01*
G02X45400Y53300I265J-1273D01*
G01X46080D01*
G02X47600Y54000I1520J-1300D01*
G02X47670Y53999I1J-2000D01*
G01X47757Y53996D01*
G37*
G36*
G01X28678Y84283D02*
G03Y84917I-244J317D01*
G02X27900Y86500I1222J1583D01*
G02X31900I2000J0D01*
G02X31122Y84917I-2000J0D01*
G03Y84283I244J-317D01*
G02X31900Y82700I-1222J-1583D01*
G02X31718Y81867I-2000J0D01*
G01X31700Y81827D01*
Y81527D01*
X32084D01*
G02X32885Y80726I0J-800D01*
G01Y75217D01*
G02X32084Y74416I-800J0D01*
G01X27364D01*
G02X26564Y75217I0J800D01*
G01Y80726D01*
G02X27364Y81527I800J0D01*
G01X28100D01*
Y81827D01*
X28082Y81867D01*
G02X27900Y82700I1818J833D01*
G02X28678Y84283I2000J0D01*
G37*
G36*
G01X132909Y95580D02*
G03Y95834I-155J127D01*
G02X132602Y96692I1043J858D01*
G02X133952Y98042I1350J0D01*
G01X136002D01*
G02X136342Y97998I0J-1350D01*
G01X136367Y97992D01*
X142271D01*
G02X143191Y97611I0J-1300D01*
G01X144424Y96377D01*
X145665D01*
Y96677D01*
G02X146465Y97477I800J0D01*
G01X149465D01*
G02X150266Y96677I0J-800D01*
G01Y93477D01*
G02X149465Y92677I-800J0D01*
G01X146465D01*
G02X145665Y93477I0J800D01*
G01Y93777D01*
X143886D01*
G02X142966Y94158I0J1300D01*
G01X141733Y95392D01*
X141630D01*
G03X141489Y95050I0J-200D01*
G01X145073Y91466D01*
G03X145713Y91567I283J283D01*
G02X146426Y92005I713J-363D01*
G01X149426D01*
G02X150226Y91205I0J-800D01*
G01Y88005D01*
G02X149426Y87204I-800J0D01*
G01X146426D01*
G02X145626Y88005I0J800D01*
G01Y88304D01*
X145095D01*
G02X145023Y88307I-1J1300D01*
G03X144600Y87907I-22J-399D01*
G01Y86402D01*
X144968Y86034D01*
G03X145629Y86188I283J283D01*
G02X146387Y86729I757J-258D01*
G01X149387D01*
G02X150187Y85929I0J-800D01*
G01Y82729D01*
G02X149387Y81929I-800J0D01*
G01X146387D01*
G02X145586Y82729I0J800D01*
G01Y83029D01*
X144834D01*
G02X143914Y83410I0J1300D01*
G01X142381Y84944D01*
G02X142000Y85863I919J919D01*
G01Y88179D01*
X138724Y91454D01*
X136367D01*
X136342Y91448D01*
G02X136002Y91404I-340J1307D01*
G01X133952D01*
G02X132602Y92755I0J1350D01*
G02X132909Y93612I1350J0D01*
G03Y93866I-155J127D01*
G02X132602Y94722I1043J857D01*
G02X132909Y95580I1350J0D01*
G37*
G36*
G01X75900Y137400D02*
Y140329D01*
G02X73400Y143900I1300J3571D01*
G02X81000I3800J0D01*
G02X78500Y140329I-3800J0D01*
G01Y137939D01*
X80460Y135979D01*
G02X80840Y135060I-919J-919D01*
G01Y133200D01*
G03X81040Y133000I200J0D01*
G02X81840Y132200I0J-800D01*
G01Y129000D01*
G02X81040Y128200I-800J0D01*
G01X78040D01*
G02X77248Y128884I0J800D01*
G03X76784Y129219I-396J-58D01*
G02X76560Y129200I-224J1281D01*
G03X76360Y129000I0J-200D01*
G01Y128900D01*
G02X75560Y128100I-800J0D01*
G01X72560D01*
G02X71760Y128900I0J800D01*
G01Y132100D01*
G02X72560Y132900I800J0D01*
G01X75560D01*
G02X76360Y132100I0J-800D01*
G01Y132097D01*
G03X76573Y131897I200J0D01*
G02X76660Y131900I87J-1297D01*
G01X77240D01*
Y132200D01*
G02X78040Y133000I800J0D01*
G03X78240Y133200I0J200D01*
G01Y134521D01*
X76281Y136481D01*
G02X75900Y137400I919J919D01*
G37*
G36*
G01X85740Y135719D02*
Y140329D01*
G02X83240Y143900I1300J3571D01*
G02X90840I3800J0D01*
G02X88340Y140329I-3800J0D01*
G01Y135180D01*
G02X87960Y134261I-1300J0D01*
G01X87076Y133378D01*
G03X87093Y132797I283J-283D01*
G02X87360Y132200I-533J-597D01*
G01Y129000D01*
G02X86560Y128200I-800J0D01*
G01X83560D01*
G02X82760Y129000I0J800D01*
G01Y132200D01*
G02X83560Y133000I800J0D01*
G03X83760Y133200I0J200D01*
G02X84140Y134119I1300J0D01*
G01X85740Y135719D01*
G37*
G36*
G01X108704Y35782D02*
X108640Y35841D01*
G02X108004Y37304I1364J1463D01*
G02X110004Y39304I2000J0D01*
G02X111524Y38604I0J-2000D01*
G01X146896D01*
G02X147816Y38223I0J-1300D01*
G01X149034Y37005D01*
G02X149414Y36086I-919J-919D01*
G01Y34726D01*
G03X149614Y34526I200J0D01*
G02X150414Y33726I0J-800D01*
G01Y30526D01*
G02X149835Y29757I-800J0D01*
G03X149584Y29202I111J-384D01*
G02X149660Y28862I-724J-341D01*
G01Y23542D01*
G02X148860Y22741I-800J0D01*
G01X141770D01*
G02X140970Y23542I0J800D01*
G01Y28862D01*
G02X141053Y29217I800J0D01*
G03X140828Y29772I-358J178D01*
G02X140294Y30526I267J754D01*
G01Y33726D01*
G02X141094Y34526I800J0D01*
G01X144094D01*
G02X144895Y33726I0J-800D01*
G01Y30526D01*
G02X144832Y30216I-800J0D01*
G03X145201Y29662I369J-155D01*
G01X145507D01*
G03X145876Y30216I0J400D01*
G02X145814Y30526I738J310D01*
G01Y33726D01*
G02X146614Y34526I800J0D01*
G03X146814Y34726I0J200D01*
G01Y35547D01*
X146358Y36004D01*
X136698D01*
Y34844D01*
G03X136898Y34644I200J0D01*
G02X137698Y33844I0J-800D01*
G01Y30644D01*
G02X137096Y29869I-800J0D01*
G03X136831Y29314I99J-388D01*
G02X136904Y28980I-727J-334D01*
G01Y23660D01*
G02X136104Y22859I-800J0D01*
G01X129014D01*
G02X128214Y23660I0J800D01*
G01Y28980D01*
G02X128301Y29343I800J0D01*
G03X128089Y29898I-356J182D01*
G02X127578Y30644I289J746D01*
G01Y33844D01*
G02X128378Y34644I800J0D01*
G01X131378D01*
G02X132178Y33844I0J-800D01*
G01Y30644D01*
G02X132116Y30335I-800J0D01*
G03X132485Y29780I369J-155D01*
G01X132791D01*
G03X133160Y30335I0J400D01*
G02X133097Y30644I738J310D01*
G01Y33844D01*
G02X133897Y34644I800J0D01*
G03X134097Y34844I0J200D01*
G01Y36004D01*
X124139D01*
Y35317D01*
G03X124339Y35117I200J0D01*
G02X125139Y34317I0J-800D01*
G01Y31117D01*
G02X124338Y30316I-800J0D01*
G01X121338D01*
G02X120538Y31117I0J800D01*
G01Y34317D01*
G02X121338Y35117I800J0D01*
G03X121538Y35317I0J200D01*
G01Y36004D01*
X111524D01*
G02X111368Y35841I-1520J1301D01*
G01X111304Y35782D01*
Y35356D01*
G03X111504Y35156I200J0D01*
G02X112304Y34356I0J-800D01*
G01Y31156D01*
G02X111504Y30356I-800J0D01*
G01X111348D01*
G03X111044Y29696I0J-400D01*
G02X111235Y29177I-609J-519D01*
G01Y23857D01*
G02X110435Y23056I-800J0D01*
G01X103345D01*
G02X102544Y23857I0J800D01*
G01Y29177D01*
G02X103056Y29923I800J0D01*
G01X103184Y29973D01*
Y30156D01*
G03X102984Y30356I-200J0D01*
G02X102184Y31156I0J800D01*
G01Y34356D01*
G02X102984Y35156I800J0D01*
G01X105984D01*
G02X106785Y34356I0J-800D01*
G01Y31156D01*
G02X106593Y30636I-800J0D01*
G03X106897Y29977I304J-260D01*
G01X107591D01*
G03X107895Y30636I0J400D01*
G02X107704Y31156I609J519D01*
G01Y34356D01*
G02X108504Y35156I800J0D01*
G03X108704Y35356I0J200D01*
G01Y35782D01*
G37*
G36*
G01X72520Y38403D02*
G02X73000Y38563I480J-640D01*
G01X77940D01*
G02X78740Y37763I0J-800D01*
G01Y31363D01*
G02X77940Y30563I-800J0D01*
G01X73000D01*
G02X72520Y30723I0J800D01*
G02X72040Y30563I-480J640D01*
G01X68900D01*
Y28921D01*
X70246Y27574D01*
G02X70627Y26655I-919J-919D01*
G03X70827Y26455I200J0D01*
G02X71627Y25655I0J-800D01*
G01Y22455D01*
G02X70827Y21655I-800J0D01*
G03X70627Y21455I0J-200D01*
G01Y20695D01*
X73581D01*
G02X74381Y19895I0J-800D01*
G01Y15175D01*
G02X73581Y14374I-800J0D01*
G01X67612D01*
X67586Y14204D01*
G02X67219Y13474I-1286J190D01*
G01X65721Y11976D01*
Y8294D01*
G02X64921Y7494I-800J0D01*
G01X59411D01*
G02X58611Y8294I0J800D01*
G01Y13014D01*
G02X59411Y13815I800J0D01*
G01X63883D01*
X65000Y14932D01*
Y20900D01*
X64245Y21655D01*
X62283D01*
G02X61483Y22455I0J800D01*
G01Y25655D01*
G02X62283Y26455I800J0D01*
G03X62483Y26655I0J200D01*
G02X62565Y27110I1300J0D01*
G03X62184Y27650I-375J140D01*
G02X62160Y27650I-25J1550D01*
G01X56942D01*
X53519Y24226D01*
Y22872D01*
X53689Y22846D01*
G02X54369Y22055I-120J-791D01*
G01Y19055D01*
G02X53568Y18255I-800J0D01*
G01X50369D01*
G02X49568Y19055I0J800D01*
G01Y22055D01*
G02X50248Y22846I800J0D01*
G01X50418Y22872D01*
Y24268D01*
G03X49880Y24643I-400J0D01*
G02X49346Y24548I-534J1455D01*
G01X48910D01*
X48871Y24398D01*
G02X48096Y23798I-775J200D01*
G01X47796D01*
Y22934D01*
X48096D01*
G02X48896Y22134I0J-800D01*
G01Y19134D01*
G02X48096Y18334I-800J0D01*
G01X44896D01*
G02X44096Y19134I0J800D01*
G01Y22134D01*
G02X44896Y22934I800J0D01*
G01X45196D01*
Y23798D01*
X44896D01*
G02X44096Y24598I0J800D01*
G01X44096Y24798D01*
X42637D01*
X42442Y24603D01*
Y22934D01*
X42742D01*
G02X43542Y22134I0J-800D01*
G01Y19134D01*
G02X42742Y18334I-800J0D01*
G01X39542D01*
G02X38742Y19134I0J800D01*
G01Y22134D01*
G02X39542Y22934I800J0D01*
G01X39842D01*
Y25142D01*
G02X40222Y26061I1300J0D01*
G01X41179Y27018D01*
G02X42098Y27399I919J-919D01*
G01X44096D01*
Y27599D01*
G02X44896Y28399I800J0D01*
G01X48096D01*
G02X48659Y28167I0J-800D01*
G03X49224Y28168I282J284D01*
G01X50116Y29061D01*
G03X49961Y29723I-283J283D01*
G02X49388Y30027I639J1895D01*
G01X49334Y30068D01*
X48910D01*
X48871Y29918D01*
G02X48096Y29318I-775J200D01*
G01X44896D01*
G02X44096Y30118I0J800D01*
G01Y33118D01*
G02X44896Y33918I800J0D01*
G01X48096D01*
G02X48871Y33318I0J-800D01*
G01X48910Y33168D01*
X49334D01*
X49388Y33209D01*
G02X50600Y33618I1212J-1591D01*
G02X52495Y32257I0J-2000D01*
G03X53157Y32102I379J128D01*
G01X56714Y35659D01*
G02X57811Y36113I1096J-1096D01*
G02X58655Y35863I0J-1550D01*
G01X60390D01*
Y37763D01*
G02X61190Y38563I800J0D01*
G01X64160D01*
G02X64645Y38400I0J-800D01*
G02X65129Y38563I485J-637D01*
G01X72040D01*
G02X72520Y38403I0J-800D01*
G37*
G36*
G01X50868Y87205D02*
Y90205D01*
G02X51668Y91005I800J0D01*
G01X54868D01*
G02X55668Y90205I0J-800D01*
G01Y87205D01*
G02X54868Y86404I-800J0D01*
G01X51668D01*
G02X50868Y87205I0J800D01*
G37*
G36*
G01X61497Y81685D02*
Y84685D01*
G02X62298Y85485I800J0D01*
G01X65498D01*
G02X66298Y84685I0J-800D01*
G01Y81685D01*
G02X65498Y80885I-800J0D01*
G01X65198D01*
Y79041D01*
X66549Y77690D01*
G02X66930Y76771I-919J-919D01*
G01Y65623D01*
G02X66130Y64823I-800J0D01*
G01X65129D01*
G02X64645Y64986I0J800D01*
G02X64160Y64823I-485J637D01*
G01X61190D01*
G02X60390Y65623I0J800D01*
G01Y72484D01*
X58274Y74600D01*
X55400D01*
G02X54481Y74981I0J1300D01*
G01X52348Y77113D01*
G02X51968Y78032I919J919D01*
G01Y80885D01*
X51668D01*
G02X50868Y81685I0J800D01*
G01Y84685D01*
G02X51668Y85485I800J0D01*
G01X54868D01*
G02X55668Y84685I0J-800D01*
G01Y81685D01*
G02X54868Y80885I-800J0D01*
G01X54568D01*
Y78571D01*
X55939Y77200D01*
X57895D01*
G03X58178Y77883I0J400D01*
G01X57663Y78398D01*
G02X57282Y79317I919J919D01*
G01Y80885D01*
X56983D01*
G02X56182Y81685I0J800D01*
G01Y84685D01*
G02X56983Y85485I800J0D01*
G01X60183D01*
G02X60983Y84685I0J-800D01*
G01Y81685D01*
G02X60183Y80885I-800J0D01*
G01X59883D01*
Y79856D01*
X60739Y79000D01*
X61700D01*
G02X62080Y78943I0J-1300D01*
G03X62597Y79326I117J383D01*
G01Y80885D01*
X62298D01*
G02X61497Y81685I0J800D01*
G37*
G36*
G01X62597Y91005D02*
Y91580D01*
X62534Y91639D01*
G02X61897Y93102I1364J1463D01*
G02X65898I2000J0D01*
G02X65261Y91639I-2000J0D01*
G01X65198Y91580D01*
Y91005D01*
X65498D01*
G02X66298Y90205I0J-800D01*
G01Y87205D01*
G02X65498Y86404I-800J0D01*
G01X62298D01*
G02X61497Y87205I0J800D01*
G01Y90205D01*
G02X62298Y91005I800J0D01*
G01X62597D01*
G37*
G36*
G01X92779Y100692D02*
Y100992D01*
G02X93579Y101792I800J0D01*
G01X96579D01*
G02X97379Y100992I0J-800D01*
G01Y97792D01*
G02X96579Y96992I-800J0D01*
G01X93579D01*
G02X92779Y97792I0J800D01*
G01Y98092D01*
X64031D01*
X59883Y93944D01*
Y91005D01*
X60183D01*
G02X60983Y90205I0J-800D01*
G01Y87205D01*
G02X60183Y86404I-800J0D01*
G01X56983D01*
G02X56182Y87205I0J800D01*
G01Y90205D01*
G02X56983Y91005I800J0D01*
G01X57282D01*
Y94483D01*
G02X57663Y95402I1300J0D01*
G01X62573Y100312D01*
G02X63492Y100692I919J-919D01*
G01X92779D01*
G37*
G36*
G01X92818Y111600D02*
Y111661D01*
G02X93618Y112462I800J0D01*
G01X96618D01*
G02X97418Y111661I0J-800D01*
G01Y108461D01*
G02X96618Y107661I-800J0D01*
G01X93618D01*
G02X92818Y108461I0J800D01*
G01Y108561D01*
G03X92618Y108761I-200J0D01*
G02X92325Y108795I0J1300D01*
G01X92303Y108800D01*
X90520D01*
G02X89000Y108100I-1520J1300D01*
G02Y112100I0J2000D01*
G02X90520Y111400I0J-2000D01*
G01X92580D01*
G02X92613Y111400I1J-1300D01*
G03X92818Y111600I5J200D01*
G37*
G54D39*
X141772Y18031D03*
X148858D03*
G54D40*
X202907Y89561D03*
X203025Y120349D03*
G54D37*
X103347Y18346D03*
X110433D03*
G54D38*
X116260Y18228D03*
X123346D03*
X129016Y18150D03*
X136102D03*
%LPD*%
G75*
G36*
G01X58703Y33263D02*
X60390D01*
Y31363D01*
G03X60402Y31221I800J0D01*
G02X60009Y30750I-394J-71D01*
G01X57156D01*
G02X56873Y31433I0J400D01*
G01X58703Y33263D01*
G37*
G54D10*
X7717Y21733D03*
Y42913D03*
G54D11*
X20900Y38800D03*
X20500Y47100D03*
X20700Y51200D03*
X28100Y24300D03*
X31700Y8000D03*
X25300Y12300D03*
X33900Y18300D03*
X22800Y22800D03*
X24300Y38600D03*
X30300Y38200D03*
X35300Y38100D03*
X38700Y39300D03*
X42000Y40000D03*
X23200Y33800D03*
X36800Y30500D03*
X31300Y31700D03*
X41700Y46600D03*
X29800Y47100D03*
X23510Y45832D03*
X37900Y47300D03*
X33600Y47200D03*
X26300Y47400D03*
X29900Y86500D03*
Y82700D03*
X43700Y85300D03*
X25500Y98300D03*
X34000Y95400D03*
X28600Y111400D03*
X38400Y119700D03*
X30100Y125500D03*
X24700Y139900D03*
X45000Y8200D03*
X51600Y8300D03*
X60700Y5400D03*
X57200Y9900D03*
Y13900D03*
Y17500D03*
X46000Y39700D03*
X50600Y31618D03*
X61800Y44900D03*
X47600Y52000D03*
X45200Y46200D03*
X56500Y70600D03*
X48300Y81000D03*
X63898Y93102D03*
X58500Y105300D03*
X46900Y95700D03*
X47100Y103400D03*
X47500Y113600D03*
X59500Y113000D03*
X44700Y136800D03*
X76200Y17300D03*
Y12700D03*
Y7000D03*
X66900Y5400D03*
X71200D03*
X67600Y63600D03*
X69406Y78100D03*
X80700Y104000D03*
X71100Y121600D03*
X74100D03*
X77100D03*
X71100Y124600D03*
X74100D03*
X77100D03*
X65600Y109900D03*
X70200Y109200D03*
X78800Y114300D03*
X103100Y58200D03*
X106100D03*
X103100Y61200D03*
X106100D03*
X103100Y64200D03*
X106100D03*
X101800Y50500D03*
X100300Y71000D03*
Y74000D03*
Y77000D03*
Y80000D03*
X103100Y67200D03*
X106100D03*
X96799Y87801D03*
X105700Y107200D03*
X105500Y103700D03*
X105300Y99800D03*
X89000Y110100D03*
X97000Y122400D03*
X100000D03*
X97000Y125400D03*
X100000D03*
X97000Y128400D03*
X100000D03*
X90500Y114700D03*
X100200Y137000D03*
X105200D03*
X100200Y142000D03*
X105200D03*
X100200Y147000D03*
X105200D03*
X97000Y131400D03*
X100000D03*
X110004Y37304D03*
X118500Y73900D03*
X121700D03*
X118500Y70900D03*
X121900D03*
X126200Y73800D03*
X126100Y70500D03*
X117000Y95400D03*
X120000D03*
X123000D03*
X126000D03*
X117000Y98400D03*
X120000D03*
X123000D03*
X126000D03*
X117000Y101400D03*
X120000D03*
X123000D03*
X126000D03*
X117000Y104400D03*
X120000D03*
X123000D03*
X126000D03*
X117000Y107400D03*
X120000D03*
X123000D03*
X126000D03*
X107780Y97200D03*
X118500Y128863D03*
X121800D03*
X126600Y128963D03*
X118500Y131763D03*
X121800D03*
X126600D03*
X129100Y73800D03*
Y70500D03*
X144400Y99863D03*
X129000Y95400D03*
Y98400D03*
Y101400D03*
Y104400D03*
Y107400D03*
X137900Y89200D03*
X129400Y128963D03*
X147100Y129000D03*
X129300Y131763D03*
X147100Y132000D03*
X167800Y22400D03*
X164900D03*
X162000D03*
X160200Y37500D03*
X154800Y59263D03*
X165600Y59363D03*
X158800Y95800D03*
X163800D03*
X168800D03*
X158800Y100800D03*
X163800D03*
X168800D03*
X164300Y106800D03*
X167300D03*
X150100Y129000D03*
X165700Y127800D03*
X168700D03*
X164300Y109800D03*
X167300D03*
X155500Y142763D03*
X166600Y142363D03*
X150100Y132000D03*
X189900Y17700D03*
X179700Y9800D03*
X171700Y127800D03*
X170800Y131700D03*
Y134700D03*
X198938Y11300D03*
X205500Y28300D03*
G54D20*
X93032Y19292D03*
Y12992D03*
G54D21*
X106890Y10176D03*
Y26517D03*
X119803Y10058D03*
Y26398D03*
X145315Y9861D03*
X132559Y9980D03*
X145315Y26202D03*
X132559Y26320D03*
G54D30*
X179409Y91933D03*
Y98933D03*
G54D12*
X41142Y15114D03*
Y20634D03*
X25118Y57760D03*
Y52240D03*
X30551Y57760D03*
Y52240D03*
X38268Y64799D03*
X43701D03*
X38268Y70319D03*
X43701D03*
X51968Y15035D03*
Y20555D03*
X46496Y15114D03*
Y20634D03*
Y26099D03*
Y31618D03*
X63898Y83185D03*
X53268D03*
X58583D03*
X63898Y88705D03*
X53268D03*
X58583D03*
X85906Y19059D03*
Y13539D03*
X80669Y83185D03*
X86063Y83146D03*
X80669Y88705D03*
X86063Y88665D03*
X97800Y60540D03*
Y66060D03*
X91457Y83146D03*
Y88665D03*
X161633Y32724D03*
Y27205D03*
X167106Y32764D03*
Y27244D03*
G54D31*
X195276Y10326D03*
X193306Y15107D03*
X197246D03*
G54D22*
X105296Y72715D03*
X105532Y130392D03*
X112296Y72715D03*
X112532Y130392D03*
X141784Y72794D03*
X134784D03*
X142099Y130550D03*
X135099D03*
G54D13*
X34886Y42874D03*
X29366D03*
X36177Y51968D03*
X41697D03*
X41776Y57638D03*
X36256D03*
X38240Y75800D03*
X43760D03*
X58264Y24055D03*
X63783D03*
X74846D03*
X69327D03*
X74925Y83268D03*
X69406D03*
X75043Y88661D03*
X69524D03*
X85060Y130600D03*
X79540D03*
X74060Y130500D03*
X68540D03*
X104484Y32756D03*
X104619Y79290D03*
X95118Y104746D03*
X100638D03*
X95079Y99392D03*
X100598D03*
X95039Y94038D03*
X100559D03*
X95118Y110061D03*
X100638D03*
X95118Y115376D03*
X100638D03*
X104816Y123699D03*
X110004Y32756D03*
X122838Y32717D03*
X117319D03*
X115406Y79329D03*
X120926D03*
X126194Y79368D03*
X110138Y79290D03*
X115643Y123699D03*
X121162D03*
X126430D03*
X110335D03*
X148114Y32126D03*
X142594D03*
X135398Y32244D03*
X129878D03*
X147887Y84329D03*
X131713Y79368D03*
X142501D03*
X136981D03*
X148123Y107872D03*
X147926Y89605D03*
X147965Y95077D03*
X147940Y100363D03*
X142737Y123699D03*
X137217D03*
X148123Y118620D03*
X131950Y123699D03*
X148162Y113227D03*
X153406Y84329D03*
X153642Y107872D03*
X153446Y89605D03*
X153485Y95077D03*
X153460Y100363D03*
X153642Y118620D03*
X153682Y113227D03*
X171704Y43093D03*
X177224D03*
X171743Y48526D03*
X177263D03*
G54D14*
X29724Y64312D03*
Y77972D03*
X179567Y67107D03*
Y80767D03*
X179646Y105572D03*
Y119232D03*
X179567Y125808D03*
Y139468D03*
G54D32*
X203780Y21535D03*
Y19566D03*
Y17598D03*
Y15629D03*
Y13661D03*
G54D23*
X111355Y94722D03*
Y96692D03*
Y98660D03*
Y100629D03*
Y102596D03*
Y104566D03*
Y106534D03*
Y92755D03*
Y108503D03*
Y110470D03*
X134977Y106534D03*
Y104566D03*
Y102596D03*
Y100629D03*
Y98660D03*
Y96692D03*
Y94722D03*
Y92755D03*
Y110470D03*
Y108503D03*
G54D15*
X62166Y17535D03*
Y10654D03*
X70826Y17535D03*
Y10654D03*
G54D33*
X213622Y9724D03*
Y25472D03*
G54D24*
X123166Y101613D03*
G54D34*
G01X29366Y42874D02*
X13085D01*
X13046Y42913D01*
X7717D01*
G01X46496Y26099D02*
Y26098D01*
X42098D01*
X41142Y25142D01*
Y20634D01*
G01X55390Y42833D02*
X37427D01*
X37386Y42874D01*
X34886D01*
G01X41697Y51968D02*
X45368D01*
X45400Y52000D01*
X47600D01*
G01X55390Y58583D02*
X47583D01*
X46638Y57638D01*
X41776D01*
G01X38268Y64799D02*
X43701Y64799D01*
G01X58264Y24055D02*
Y21455D01*
X57200Y20391D01*
Y17500D01*
G01D02*
Y13900D01*
G01Y17500D02*
X57235Y17535D01*
X62166D01*
G01X60700Y5400D02*
X66900D01*
G01X57200Y9900D02*
Y6300D01*
X58100Y5400D01*
X60700D01*
G01X57200Y13900D02*
Y9900D01*
G01X63660Y34563D02*
Y30700D01*
X62160Y29200D01*
G01X46496Y20634D02*
Y26099D01*
G01X63783Y24055D02*
X63784D01*
Y23955D01*
X66300Y21439D01*
Y14393D01*
X62561Y10654D01*
X62166D01*
G01X61690Y34563D02*
X57811D01*
G01X65630D02*
Y28501D01*
X63783Y26655D01*
Y24055D01*
G01X47600Y52000D02*
X50243Y54643D01*
X55390D01*
G01Y44803D02*
X61703D01*
G01X43701Y64799D02*
X48801Y64799D01*
X51077Y62523D01*
X55390D01*
G01X53268Y83185D02*
Y78032D01*
X55400Y75900D01*
X58813D01*
X61690Y73023D01*
Y68823D01*
G01X58583Y83185D02*
Y79317D01*
X60200Y77700D01*
X61700D01*
X63660Y75740D01*
Y68823D01*
G01X95079Y99392D02*
X63492D01*
X58583Y94483D01*
Y88705D01*
G01X74846Y24055D02*
X74846Y21455D01*
X76200Y20102D01*
Y17300D01*
G01D02*
Y12700D01*
G01D02*
Y10500D01*
G01X66900Y5400D02*
X71200D01*
G01D02*
X74600D01*
X76200Y7000D01*
G01Y10500D02*
Y7000D01*
G01Y10500D02*
X76046Y10654D01*
X70826D01*
G01X69327Y24055D02*
Y19034D01*
X70826Y17535D01*
G01X69327Y24055D02*
Y26655D01*
X67600Y28382D01*
Y34563D01*
G01X85906Y19059D02*
Y23794D01*
X81380Y28320D01*
Y34563D01*
G01X65630Y68823D02*
Y76771D01*
X63898Y78502D01*
Y83185D01*
G01X74925Y83268D02*
Y79225D01*
X69570Y73870D01*
Y68823D01*
G01X75043Y88661D02*
Y85986D01*
X74925Y85868D01*
Y83268D01*
G01X69524Y88661D02*
X69524Y85986D01*
X69406Y85868D01*
Y83268D01*
G01X69406D02*
Y80668D01*
X69406Y78100D01*
G01X67600Y68823D02*
Y76500D01*
X69200Y78100D01*
X69406D01*
G01X80669Y83185D02*
Y80685D01*
X80300Y80316D01*
Y80300D01*
X75470Y75470D01*
Y68823D01*
G01X77440D02*
Y74140D01*
X81100Y77800D01*
X83700D01*
X86063Y80163D01*
Y83146D01*
G01X83350Y68823D02*
X87423D01*
X91457Y72857D01*
Y83146D01*
G01X63898Y88705D02*
Y93102D01*
G01X79540Y130600D02*
X76660D01*
X76560Y130500D01*
X74060D01*
G01X79540Y130600D02*
Y135060D01*
X77200Y137400D01*
Y143900D01*
G01X85906Y13539D02*
X88505D01*
X88900Y13934D01*
Y18700D01*
X89492Y19292D01*
X93032D01*
G01X104484Y32756D02*
Y28922D01*
X106890Y26517D01*
G01X193306Y15107D02*
X160748D01*
X153000Y22854D01*
Y40200D01*
X150367Y42833D01*
X89650D01*
G01X189900Y17700D02*
X187700D01*
X186907Y16907D01*
X161493D01*
X154800Y23600D01*
Y40946D01*
X150943Y44803D01*
X89650D01*
G01Y60553D02*
X95187Y60553D01*
X95200Y60540D01*
X97800D01*
G01X96799Y87801D02*
X97800Y86800D01*
Y66060D01*
G01X91457Y88665D02*
X95935Y88665D01*
X96799Y87801D01*
G01X106367Y106534D02*
X105700Y107200D01*
G01D02*
X102991D01*
X100638Y104846D01*
Y104746D01*
G01X111355Y102596D02*
X106604D01*
X105500Y103700D01*
G01X100598Y99392D02*
Y99292D01*
X105191Y94700D01*
X108183D01*
X108205Y94722D01*
X111355D01*
G01Y92755D02*
X104342D01*
X103059Y94038D01*
X100559D01*
G01X111355Y110470D02*
Y112020D01*
X107999Y115376D01*
X100638D01*
G01X111355Y108503D02*
X108780D01*
X107221Y110061D01*
X100638D01*
G01X89000Y110100D02*
X92580D01*
X92618Y110061D01*
X95118D01*
G01X87040Y143900D02*
Y135180D01*
X85060Y133200D01*
Y130600D01*
G01X110004Y32756D02*
Y37304D01*
G01X135400D02*
X122800D01*
G01D02*
X110004D01*
G01X122838Y32717D02*
X122839D01*
Y37265D01*
X122800Y37304D01*
G01X117319Y32717D02*
Y28883D01*
X119803Y26398D01*
G01X124150Y89802D02*
Y84012D01*
X126194Y81968D01*
Y79368D01*
G01X122182Y89802D02*
X122182Y83185D01*
X120926Y81929D01*
Y79329D01*
G01X111355Y104566D02*
X108334D01*
X106367Y106534D01*
G01X111355D02*
X106367D01*
G01X116276Y86787D02*
Y89802D01*
G01X120213D02*
Y87976D01*
G01X118245Y87808D02*
Y89802D01*
G01X126119Y87682D02*
Y89802D01*
G01X132024D02*
Y92755D01*
X123166Y101613D01*
G01X114308Y89802D02*
Y92755D01*
X123166Y101613D01*
G01X122182Y113424D02*
X122182Y120079D01*
X121162Y121099D01*
Y123699D01*
G01X124150Y113424D02*
Y118819D01*
X126430Y121099D01*
Y123699D01*
G01X116276Y115587D02*
Y113424D01*
G01X120213D02*
Y116050D01*
G01X118245Y115708D02*
Y113424D01*
G01X126119Y116144D02*
Y113424D01*
G01X111900Y116100D02*
X112657D01*
X114308Y114449D01*
Y113424D01*
G01X148114Y32126D02*
X148114Y36086D01*
X146896Y37304D01*
X135400D01*
G01X135398Y32244D02*
Y37302D01*
X135400Y37304D01*
G01X142594Y32126D02*
Y28922D01*
X145315Y26202D01*
G01X129878Y32244D02*
Y29001D01*
X132559Y26320D01*
G01X134977Y92755D02*
X139263D01*
X143300Y88717D01*
Y85863D01*
X144834Y84329D01*
X147887D01*
G01X134977Y96692D02*
X142271D01*
X143886Y95077D01*
X147965D01*
G01X134977Y94722D02*
X139978D01*
X145095Y89605D01*
X147926D01*
G01X147940Y100363D02*
X144900D01*
X144400Y99863D01*
G01X134977Y100629D02*
X141434D01*
X142200Y99863D01*
X144400D01*
G01X130056Y89802D02*
Y87707D01*
G01X128087Y89802D02*
Y87676D01*
G01X134977Y106534D02*
X138566D01*
G01X134977Y98660D02*
X138360D01*
G01X134977Y106534D02*
X131800D01*
G01X134977Y102596D02*
X138066D01*
G01X148123Y107872D02*
X143309D01*
X140003Y104566D01*
X134977D01*
G01X130056Y113424D02*
Y116719D01*
G01X128087Y113424D02*
Y115976D01*
G01X132024Y113424D02*
X135524D01*
G01X134977Y108503D02*
X139840D01*
X144564Y113227D01*
X148162D01*
G01X148123Y118620D02*
X142958D01*
X140900Y116563D01*
Y112563D01*
X138808Y110470D01*
X134977D01*
G01X159700Y104663D02*
Y112463D01*
X158936Y113227D01*
X153682D01*
G01X203780Y15629D02*
X199754D01*
X199231Y15107D01*
X197246D01*
G01X198938Y11300D02*
Y12824D01*
X197246Y14517D01*
Y15107D01*
G01X203780Y17598D02*
X199802D01*
X198900Y18500D01*
X194124D01*
X193306Y17682D01*
Y15107D01*
G01X203780Y21535D02*
X199700D01*
Y20833D01*
X200966Y19566D01*
X203780D01*
G54D16*
X63660Y34563D03*
X61690D03*
Y68823D03*
X63660D03*
X83350Y34563D03*
X81380D03*
X79410D03*
X77440D03*
X75470D03*
X73500D03*
X71540D03*
X69570D03*
X67600D03*
X65630D03*
Y68823D03*
X67600D03*
X69570D03*
X71540D03*
X73500D03*
X75470D03*
X77440D03*
X79410D03*
X81380D03*
X83350D03*
G54D25*
X126119Y89802D03*
X124150D03*
X122182D03*
X120213D03*
X118245D03*
X116276D03*
X114308D03*
Y113424D03*
X116276D03*
X118245D03*
X120213D03*
X122182D03*
X124150D03*
X126119D03*
X132024Y89802D03*
X130056D03*
X128087D03*
Y113424D03*
X130056D03*
X132024D03*
G54D35*
G01X29900Y82700D02*
Y78147D01*
X29724Y77972D01*
G01X67000Y117100D02*
Y124743D01*
X68540Y126283D01*
Y130500D01*
G01D02*
Y133600D01*
X67360Y134780D01*
Y143900D01*
G54D17*
X55390Y40863D03*
Y42833D03*
Y44803D03*
Y46773D03*
Y48743D03*
Y50713D03*
Y52673D03*
Y54643D03*
Y56613D03*
Y58583D03*
Y60553D03*
Y62523D03*
X89650Y42833D03*
Y40863D03*
Y62523D03*
Y60553D03*
Y58583D03*
Y56613D03*
Y54643D03*
Y52673D03*
Y50713D03*
Y48743D03*
Y46773D03*
Y44803D03*
G54D26*
X160300Y56653D03*
Y77673D03*
X160900Y125453D03*
Y146473D03*
G54D36*
G01X62160Y29200D02*
X56300D01*
X51968Y24868D01*
Y20555D01*
G01X57811Y34563D02*
X49346Y26098D01*
X46496D01*
Y26099D01*
G01Y31618D02*
X50600D01*
G01X61703Y44803D02*
X61800Y44900D01*
G36*
G01X188648Y26933D02*
X188828Y26953D01*
X188998Y26973D01*
X189168Y26993D01*
X189338Y27033D01*
X189508Y27083D01*
X189678Y27133D01*
X189848Y27193D01*
X190008Y27263D01*
X190168Y27333D01*
X190318Y27423D01*
X190468Y27513D01*
X190618Y27603D01*
X190758Y27713D01*
X190888Y27823D01*
X191028Y27933D01*
X191148Y28063D01*
X191268Y28193D01*
X191378Y28323D01*
X191488Y28463D01*
X191588Y28603D01*
X191678Y28753D01*
X191768Y28903D01*
X191848Y29063D01*
X191918Y29223D01*
X191988Y29383D01*
X192038Y29553D01*
X192088Y29723D01*
X192128Y29893D01*
X192168Y30063D01*
X192188Y30233D01*
X192208Y30413D01*
Y30583D01*
Y30763D01*
Y30933D01*
X192188Y31113D01*
X192168Y31283D01*
X192128Y31453D01*
X192088Y31623D01*
X192038Y31793D01*
X191988Y31963D01*
X191918Y32123D01*
X191848Y32283D01*
X191768Y32443D01*
X191678Y32593D01*
X191588Y32743D01*
X191488Y32883D01*
X191378Y33023D01*
X191268Y33153D01*
X191148Y33283D01*
X191028Y33413D01*
X190888Y33523D01*
X190758Y33633D01*
X190618Y33743D01*
X190468Y33833D01*
X190318Y33923D01*
X190168Y34013D01*
X190008Y34083D01*
X189848Y34153D01*
X189678Y34213D01*
X189508Y34263D01*
X189338Y34313D01*
X189168Y34353D01*
X188998Y34373D01*
X188828Y34393D01*
X188648Y34413D01*
X188468D01*
X181168D01*
X180998D01*
X180828Y34393D01*
X180648Y34373D01*
X180478Y34353D01*
X180308Y34313D01*
X180138Y34263D01*
X179968Y34213D01*
X179808Y34153D01*
X179638Y34083D01*
X179488Y34013D01*
X179328Y33923D01*
X179178Y33833D01*
X179028Y33743D01*
X178888Y33633D01*
X178758Y33523D01*
X178628Y33413D01*
X178498Y33283D01*
X178378Y33153D01*
X178268Y33023D01*
X178158Y32883D01*
X178058Y32743D01*
X177968Y32593D01*
X177878Y32443D01*
X177798Y32283D01*
X177728Y31973D01*
X171048D01*
Y29373D01*
X177728D01*
X177798Y29063D01*
X177878Y28903D01*
X177968Y28753D01*
X178058Y28603D01*
X178158Y28463D01*
X178268Y28323D01*
X178378Y28193D01*
X178498Y28063D01*
X178628Y27933D01*
X178758Y27823D01*
X178888Y27713D01*
X179028Y27603D01*
X179178Y27513D01*
X179328Y27423D01*
X179488Y27333D01*
X179638Y27263D01*
X179808Y27193D01*
X179968Y27133D01*
X180138Y27083D01*
X180308Y27033D01*
X180478Y26993D01*
X180648Y26973D01*
X180828Y26953D01*
X180998Y26933D01*
X181168D01*
X188468D01*
X188648D01*
G37*
G54D18*
X87040Y143900D03*
X77200D03*
X202789Y39443D03*
Y49286D03*
Y59128D03*
X202907Y89561D03*
X203025Y120349D03*
G54D19*
X67360Y143900D03*
X202789Y68971D03*
X202907Y99404D03*
X203025Y130191D03*
G54D28*
X174088Y24773D03*
Y36583D03*
G54D29*
X184582Y44487D03*
Y52487D03*
M02*
