G04 ================== begin FILE IDENTIFICATION RECORD ==================*
G04 Layout Name:  E:/PROJECTS/Mini_Audio/01.Hardware/DSP/PCB/DSP.brd*
G04 Film Name:    SILKTOP*
G04 File Format:  Gerber RS274X*
G04 File Origin:  Cadence Allegro 17.4-S035*
G04 Origin Date:  Sun Jan 28 21:08:53 2024*
G04 *
G04 Layer:  BOARD GEOMETRY/SILKSCREEN_TOP*
G04 Layer:  PACKAGE GEOMETRY/SILKSCREEN_TOP*
G04 Layer:  REF DES/SILKSCREEN_TOP*
G04 Layer:  MANUFACTURING/PEN3*
G04 Layer:  MANUFACTURING/PROBE_BOTTOM*
G04 *
G04 Offset:    (0.000 0.000)*
G04 Mirror:    No*
G04 Mode:      Positive*
G04 Rotation:  0*
G04 FullContactRelief:  No*
G04 UndefLineWidth:     6.000*
G04 ================== end FILE IDENTIFICATION RECORD ====================*
%FSLAX35Y35*MOIN*%
%IR0*IPPOS*OFA0.00000B0.00000*MIA0B0*SFA1.00000B1.00000*%
%ADD10C,.005*%
%ADD11C,.006*%
%ADD12C,.003902*%
%ADD13C,.004902*%
%ADD14C,.004921*%
%ADD15C,.005902*%
%ADD16C,.003941*%
%ADD17C,.007902*%
%ADD18C,.00787*%
%ADD19C,.01*%
%ADD20C,.011811*%
G75*
%LPD*%
G75*
G36*
G01X39189Y143695D02*
X44088D01*
Y143492D01*
X44048D01*
Y143174D01*
X44009D01*
Y142855D01*
X43969D01*
Y142537D01*
X43929D01*
Y142218D01*
X43889D01*
Y141900D01*
X43849D01*
Y141582D01*
X43810D01*
Y141263D01*
X43770D01*
Y141144D01*
X43730D01*
Y141104D01*
X43690D01*
Y141024D01*
X43650D01*
Y140984D01*
X43611D01*
Y140945D01*
X43571D01*
Y140905D01*
X43531D01*
Y140865D01*
X43491D01*
Y140825D01*
X43412D01*
Y140786D01*
X43332D01*
Y140746D01*
X40506D01*
Y140626D01*
X40466D01*
Y140348D01*
X40427D01*
Y140069D01*
X40387D01*
Y139830D01*
X40347D01*
Y139552D01*
X40307D01*
Y139313D01*
X40267D01*
Y139233D01*
X38830D01*
Y139436D01*
X38870D01*
Y139755D01*
X38910D01*
Y140073D01*
X38950D01*
Y140392D01*
X38990D01*
Y140710D01*
X39030D01*
Y141028D01*
X39069D01*
Y141347D01*
X39109D01*
Y141665D01*
X39149D01*
Y141984D01*
X39189D01*
Y142302D01*
X39229D01*
Y142620D01*
X39268D01*
Y142939D01*
X39308D01*
Y143297D01*
X39348D01*
Y143532D01*
X39308D01*
Y143571D01*
X39268D01*
Y143611D01*
X39229D01*
Y143651D01*
X39189D01*
Y143695D01*
G37*
G36*
G01X26811Y143735D02*
X31909D01*
Y143492D01*
X31870D01*
Y143213D01*
X31830D01*
Y142935D01*
X31790D01*
Y142616D01*
X31750D01*
Y142338D01*
X31710D01*
Y142059D01*
X31671D01*
Y141741D01*
X31631D01*
Y141462D01*
X31591D01*
Y141184D01*
X31551D01*
Y140865D01*
X31511D01*
Y140586D01*
X31471D01*
Y140308D01*
X31432D01*
Y139990D01*
X31392D01*
Y139711D01*
X31352D01*
Y139552D01*
X31312D01*
Y139472D01*
X31273D01*
Y139432D01*
X31233D01*
Y139392D01*
X31193D01*
Y139353D01*
X31153D01*
Y139313D01*
X31074D01*
Y139273D01*
X30994D01*
Y139233D01*
X26493D01*
Y139436D01*
X26532D01*
Y139755D01*
X26572D01*
Y140073D01*
X26612D01*
Y140352D01*
X26652D01*
Y140670D01*
X26692D01*
Y140988D01*
X26731D01*
Y141307D01*
X26771D01*
Y141625D01*
X26811D01*
Y141944D01*
X26851D01*
Y142262D01*
X26890D01*
Y142541D01*
X26930D01*
Y142859D01*
X26970D01*
Y143178D01*
X27010D01*
Y143452D01*
X26970D01*
Y143492D01*
X26930D01*
Y143571D01*
X26890D01*
Y143611D01*
X26851D01*
Y143651D01*
X26811D01*
Y143735D01*
G37*
G36*
G01X33418D02*
X37919D01*
Y143412D01*
X37879D01*
Y143054D01*
X37840D01*
Y142736D01*
X37800D01*
Y142417D01*
X36244D01*
Y142501D01*
X36283D01*
Y142780D01*
X36323D01*
Y142974D01*
X34894D01*
Y142935D01*
X34855D01*
Y142736D01*
X34815D01*
Y142537D01*
X34775D01*
Y142338D01*
X34735D01*
Y142139D01*
X34695D01*
Y141940D01*
X34656D01*
Y141824D01*
X37720D01*
Y141781D01*
X37680D01*
Y141502D01*
X37640D01*
Y141223D01*
X37601D01*
Y140945D01*
X37561D01*
Y140706D01*
X37521D01*
Y140427D01*
X37481D01*
Y140149D01*
X37442D01*
Y139870D01*
X37402D01*
Y139631D01*
X37362D01*
Y139512D01*
X37322D01*
Y139472D01*
X37282D01*
Y139432D01*
X37242D01*
Y139392D01*
X37203D01*
Y139353D01*
X37163D01*
Y139313D01*
X37083D01*
Y139273D01*
X37004D01*
Y139233D01*
X32821D01*
Y139436D01*
X32861D01*
Y139755D01*
X32900D01*
Y140073D01*
X32940D01*
Y140392D01*
X33024D01*
Y140352D01*
X33064D01*
Y140272D01*
X33103D01*
Y140232D01*
X33143D01*
Y140192D01*
X33183D01*
Y140153D01*
X35965D01*
Y140352D01*
X36005D01*
Y140590D01*
X36045D01*
Y140829D01*
X36084D01*
Y141064D01*
X33060D01*
Y141307D01*
X33099D01*
Y141586D01*
X33139D01*
Y141864D01*
X33179D01*
Y142143D01*
X33219D01*
Y142421D01*
X33258D01*
Y142700D01*
X33298D01*
Y142978D01*
X33338D01*
Y143257D01*
X33378D01*
Y143536D01*
X33418D01*
Y143735D01*
G37*
G36*
G01X36251Y136361D02*
X37348D01*
Y136279D01*
X37331D01*
Y136182D01*
X37315D01*
Y136086D01*
X37299D01*
Y136037D01*
X36203D01*
Y136103D01*
X36219D01*
Y136200D01*
X36235D01*
Y136313D01*
X36251D01*
Y136361D01*
G37*
G36*
G01X41451D02*
X42564D01*
Y136327D01*
X42548D01*
Y136231D01*
X42532D01*
Y136134D01*
X42516D01*
Y136037D01*
X41403D01*
Y136055D01*
X41419D01*
Y136168D01*
X41435D01*
Y136264D01*
X41451D01*
Y136361D01*
G37*
G36*
G01X29441Y137279D02*
X31133D01*
Y137197D01*
X31117D01*
Y137084D01*
X31101D01*
Y136971D01*
X31085D01*
Y136859D01*
X31069D01*
Y136746D01*
X31052D01*
Y136633D01*
X31036D01*
Y136504D01*
X31020D01*
Y136392D01*
X31004D01*
Y136279D01*
X30988D01*
Y136166D01*
X30972D01*
Y136054D01*
X30956D01*
Y135941D01*
X30940D01*
Y135812D01*
X30924D01*
Y135699D01*
X30908D01*
Y135619D01*
X30891D01*
Y135587D01*
X30875D01*
Y135554D01*
X30859D01*
Y135538D01*
X30843D01*
Y135522D01*
X30827D01*
Y135506D01*
X30811D01*
Y135490D01*
X30779D01*
Y135474D01*
X30747D01*
Y135458D01*
X29054D01*
Y135572D01*
X29071D01*
Y135685D01*
X29087D01*
Y135798D01*
X29103D01*
Y135926D01*
X29119D01*
Y136039D01*
X29135D01*
Y136152D01*
X29151D01*
Y136264D01*
X29167D01*
Y136377D01*
X29183D01*
Y136490D01*
X29199D01*
Y136619D01*
X29216D01*
Y136731D01*
X29232D01*
Y136844D01*
X29248D01*
Y136957D01*
X29264D01*
Y137069D01*
X29280D01*
Y137118D01*
X29296D01*
Y137166D01*
X29312D01*
Y137182D01*
X29328D01*
Y137198D01*
X29344D01*
Y137214D01*
X29360D01*
Y137230D01*
X29377D01*
Y137247D01*
X29409D01*
Y137263D01*
X29441D01*
Y137279D01*
G37*
G36*
G01X35076D02*
X35802D01*
Y137197D01*
X35786D01*
Y137084D01*
X35770D01*
Y136971D01*
X35754D01*
Y136859D01*
X35738D01*
Y136746D01*
X35721D01*
Y136633D01*
X35705D01*
Y136520D01*
X35689D01*
Y136392D01*
X35673D01*
Y136279D01*
X35657D01*
Y136166D01*
X35641D01*
Y136120D01*
X35882D01*
Y136037D01*
X35866D01*
Y135925D01*
X35850D01*
Y135812D01*
X35593D01*
Y135715D01*
X35577D01*
Y135587D01*
X35560D01*
Y135474D01*
X35544D01*
Y135458D01*
X34931D01*
Y135476D01*
X34947D01*
Y135588D01*
X34963D01*
Y135717D01*
X34979D01*
Y135812D01*
X33885D01*
Y135846D01*
X33901D01*
Y135959D01*
X33917D01*
Y136087D01*
X33933D01*
Y136152D01*
X33949D01*
Y136216D01*
X33965D01*
Y136264D01*
X33981D01*
Y136313D01*
X33997D01*
Y136377D01*
X34013D01*
Y136425D01*
X34029D01*
Y136474D01*
X34046D01*
Y136538D01*
X34062D01*
Y136586D01*
X34078D01*
Y136635D01*
X34094D01*
Y136699D01*
X34110D01*
Y136747D01*
X34126D01*
Y136796D01*
X34142D01*
Y136860D01*
X34158D01*
Y136908D01*
X34174D01*
Y136957D01*
X34190D01*
Y137021D01*
X34207D01*
Y137069D01*
X34223D01*
Y137118D01*
X34239D01*
Y137182D01*
X34255D01*
Y137213D01*
X34239D01*
Y137229D01*
X34223D01*
Y137245D01*
X34207D01*
Y137261D01*
X34190D01*
Y137279D01*
X34884D01*
Y137245D01*
X34868D01*
Y137181D01*
X34852D01*
Y137132D01*
X34836D01*
Y137068D01*
X34820D01*
Y137020D01*
X34804D01*
Y136955D01*
X34788D01*
Y136907D01*
X34772D01*
Y136842D01*
X34755D01*
Y136794D01*
X34739D01*
Y136746D01*
X34723D01*
Y136681D01*
X34707D01*
Y136633D01*
X34691D01*
Y136569D01*
X34675D01*
Y136520D01*
X34659D01*
Y136456D01*
X34643D01*
Y136408D01*
X34627D01*
Y136343D01*
X34611D01*
Y136295D01*
X34594D01*
Y136231D01*
X34578D01*
Y136182D01*
X34562D01*
Y136120D01*
X35028D01*
Y136168D01*
X35044D01*
Y136281D01*
X35060D01*
Y136393D01*
X35076D01*
Y136506D01*
X35092D01*
Y136619D01*
X35108D01*
Y136731D01*
X35124D01*
Y136860D01*
X35140D01*
Y136973D01*
X35156D01*
Y137086D01*
X35173D01*
Y137181D01*
X35156D01*
Y137197D01*
X35140D01*
Y137213D01*
X35124D01*
Y137229D01*
X35108D01*
Y137245D01*
X35092D01*
Y137261D01*
X35076D01*
Y137279D01*
G37*
G36*
G01X38087D02*
X39779D01*
Y137229D01*
X39763D01*
Y137116D01*
X39746D01*
Y137003D01*
X39730D01*
Y136891D01*
X39714D01*
Y136762D01*
X39698D01*
Y136649D01*
X39682D01*
Y136537D01*
X39666D01*
Y136424D01*
X39650D01*
Y136311D01*
X39634D01*
Y136198D01*
X39618D01*
Y136086D01*
X39602D01*
Y135957D01*
X39585D01*
Y135844D01*
X39569D01*
Y135732D01*
X39553D01*
Y135635D01*
X39537D01*
Y135603D01*
X39521D01*
Y135571D01*
X39505D01*
Y135538D01*
X39489D01*
Y135522D01*
X39473D01*
Y135506D01*
X39441D01*
Y135490D01*
X39424D01*
Y135474D01*
X39392D01*
Y135458D01*
X37684D01*
Y135492D01*
X37700D01*
Y135604D01*
X37716D01*
Y135717D01*
X37732D01*
Y135846D01*
X37748D01*
Y135959D01*
X37765D01*
Y136071D01*
X37781D01*
Y136184D01*
X37797D01*
Y136297D01*
X37813D01*
Y136409D01*
X37829D01*
Y136538D01*
X37845D01*
Y136651D01*
X37861D01*
Y136764D01*
X37877D01*
Y136876D01*
X37893D01*
Y136989D01*
X37910D01*
Y137086D01*
X37926D01*
Y137134D01*
X37942D01*
Y137166D01*
X37958D01*
Y137182D01*
X37974D01*
Y137198D01*
X37990D01*
Y137214D01*
X38006D01*
Y137230D01*
X38022D01*
Y137247D01*
X38054D01*
Y137263D01*
X38087D01*
Y137279D01*
G37*
G36*
G01X26849Y137295D02*
X28686D01*
Y137229D01*
X28670D01*
Y137116D01*
X28654D01*
Y137003D01*
X28637D01*
Y136875D01*
X28621D01*
Y136762D01*
X28605D01*
Y136649D01*
X28589D01*
Y136537D01*
X28573D01*
Y136424D01*
X28557D01*
Y136311D01*
X28541D01*
Y136198D01*
X28525D01*
Y136182D01*
X27253D01*
Y136166D01*
X27237D01*
Y136054D01*
X27221D01*
Y135925D01*
X27205D01*
Y135812D01*
X27188D01*
Y135765D01*
X28362D01*
Y135781D01*
X28394D01*
Y135798D01*
X28411D01*
Y135814D01*
X28427D01*
Y135830D01*
X28443D01*
Y135846D01*
X28459D01*
Y135862D01*
X28493D01*
Y135844D01*
X28476D01*
Y135732D01*
X28460D01*
Y135619D01*
X28444D01*
Y135506D01*
X28428D01*
Y135458D01*
X26736D01*
Y135474D01*
X26704D01*
Y135490D01*
X26688D01*
Y135506D01*
X26672D01*
Y135522D01*
X26656D01*
Y135538D01*
X26640D01*
Y135571D01*
X26623D01*
Y135733D01*
X26640D01*
Y135846D01*
X26656D01*
Y135959D01*
X26672D01*
Y136071D01*
X26688D01*
Y136184D01*
X26704D01*
Y136297D01*
X26720D01*
Y136409D01*
X26736D01*
Y136490D01*
X27960D01*
Y136538D01*
X27976D01*
Y136651D01*
X27992D01*
Y136764D01*
X28008D01*
Y136876D01*
X28024D01*
Y136987D01*
X27414D01*
Y136875D01*
X27398D01*
Y136746D01*
X27382D01*
Y136730D01*
X26768D01*
Y136747D01*
X26784D01*
Y136860D01*
X26801D01*
Y136973D01*
X26817D01*
Y137086D01*
X26833D01*
Y137198D01*
X26849D01*
Y137295D01*
G37*
G36*
G01X31727D02*
X33564D01*
Y137245D01*
X33548D01*
Y137132D01*
X33532D01*
Y137020D01*
X33516D01*
Y136907D01*
X33500D01*
Y136778D01*
X33484D01*
Y136665D01*
X33467D01*
Y136553D01*
X33451D01*
Y136440D01*
X33435D01*
Y136327D01*
X33419D01*
Y136215D01*
X33403D01*
Y136182D01*
X32115D01*
Y136070D01*
X32099D01*
Y135957D01*
X32083D01*
Y135828D01*
X32067D01*
Y135765D01*
X33241D01*
Y135781D01*
X33257D01*
Y135798D01*
X33273D01*
Y135814D01*
X33305D01*
Y135830D01*
X33321D01*
Y135846D01*
X33355D01*
Y135748D01*
X33339D01*
Y135635D01*
X33323D01*
Y135522D01*
X33306D01*
Y135458D01*
X31598D01*
Y135474D01*
X31582D01*
Y135490D01*
X31550D01*
Y135506D01*
X31534D01*
Y135538D01*
X31518D01*
Y135571D01*
X31502D01*
Y135733D01*
X31518D01*
Y135862D01*
X31534D01*
Y135975D01*
X31550D01*
Y136087D01*
X31566D01*
Y136200D01*
X31582D01*
Y136313D01*
X31598D01*
Y136425D01*
X31614D01*
Y136490D01*
X32838D01*
Y136554D01*
X32854D01*
Y136667D01*
X32870D01*
Y136780D01*
X32886D01*
Y136892D01*
X32902D01*
Y136987D01*
X32292D01*
Y136907D01*
X32276D01*
Y136762D01*
X32260D01*
Y136730D01*
X31647D01*
Y136764D01*
X31663D01*
Y136876D01*
X31679D01*
Y136989D01*
X31695D01*
Y137102D01*
X31711D01*
Y137214D01*
X31727D01*
Y137295D01*
G37*
G36*
G01X40872D02*
X41067D01*
Y137197D01*
X41051D01*
Y137084D01*
X41034D01*
Y136955D01*
X41018D01*
Y136842D01*
X41002D01*
Y136730D01*
X40986D01*
Y136617D01*
X40970D01*
Y136504D01*
X40954D01*
Y136392D01*
X40938D01*
Y136263D01*
X40922D01*
Y136150D01*
X40906D01*
Y136037D01*
X40890D01*
Y135925D01*
X40874D01*
Y135812D01*
X40857D01*
Y135699D01*
X40841D01*
Y135587D01*
X40825D01*
Y135458D01*
X40212D01*
Y135572D01*
X40228D01*
Y135701D01*
X40244D01*
Y135814D01*
X40260D01*
Y135926D01*
X40276D01*
Y136039D01*
X40292D01*
Y136152D01*
X40308D01*
Y136264D01*
X40324D01*
Y136377D01*
X40341D01*
Y136490D01*
X40357D01*
Y136603D01*
X40373D01*
Y136715D01*
X40389D01*
Y136844D01*
X40405D01*
Y136891D01*
X40342D01*
Y136875D01*
X40229D01*
Y136859D01*
X40147D01*
Y136876D01*
X40164D01*
Y136989D01*
X40180D01*
Y137102D01*
X40196D01*
Y137198D01*
X40292D01*
Y137214D01*
X40405D01*
Y137230D01*
X40534D01*
Y137247D01*
X40647D01*
Y137263D01*
X40759D01*
Y137279D01*
X40872D01*
Y137295D01*
G37*
G36*
G01X51222Y125068D02*
Y125986D01*
X51303D01*
Y125997D01*
X51384D01*
Y126009D01*
X51477D01*
Y126021D01*
X51559D01*
Y126032D01*
X51651D01*
Y126044D01*
X51732D01*
Y126056D01*
X51825D01*
Y126067D01*
X51907D01*
Y126079D01*
X51988D01*
Y126090D01*
X52080D01*
Y126102D01*
X52162D01*
Y126114D01*
X52254D01*
Y126125D01*
X52336D01*
Y126137D01*
X52428D01*
Y126148D01*
X52510D01*
Y126160D01*
X52534D01*
Y125753D01*
X52453D01*
Y125741D01*
X52372D01*
Y125730D01*
X52279D01*
Y125718D01*
X52186D01*
Y125151D01*
X52209D01*
Y125139D01*
X52233D01*
Y125128D01*
X52256D01*
Y125116D01*
X52290D01*
Y125104D01*
X52314D01*
Y125093D01*
X52337D01*
Y125081D01*
X52372D01*
Y125069D01*
X52395D01*
Y125058D01*
X52418D01*
Y125046D01*
X52441D01*
Y125035D01*
X52476D01*
Y125023D01*
X52499D01*
Y125012D01*
X52523D01*
Y125000D01*
X52534D01*
Y124628D01*
X52510D01*
Y124639D01*
X52475D01*
Y124651D01*
X52452D01*
Y124662D01*
X52428D01*
Y124674D01*
X52394D01*
Y124686D01*
X52371D01*
Y124697D01*
X52336D01*
Y124709D01*
X52313D01*
Y124720D01*
X52278D01*
Y124732D01*
X52254D01*
Y124744D01*
X52231D01*
Y124755D01*
X52196D01*
Y124767D01*
X52173D01*
Y124778D01*
X52138D01*
Y124790D01*
X52115D01*
Y124802D01*
X52080D01*
Y124813D01*
X52057D01*
Y124825D01*
X52034D01*
Y124836D01*
X51999D01*
Y124848D01*
X51976D01*
Y124860D01*
X51941D01*
Y124871D01*
X51918D01*
Y124883D01*
X51883D01*
Y124894D01*
X51860D01*
Y124906D01*
X51825D01*
Y124917D01*
X51802D01*
Y124929D01*
X51779D01*
Y124941D01*
X51744D01*
Y124952D01*
X51721D01*
Y124964D01*
X51686D01*
Y124976D01*
X51663D01*
Y124987D01*
X51628D01*
Y124999D01*
X51605D01*
Y125010D01*
X51582D01*
Y125022D01*
X51547D01*
Y125034D01*
X51524D01*
Y125045D01*
X51489D01*
Y125057D01*
X51466D01*
Y125068D01*
X51431D01*
Y125080D01*
X51408D01*
Y125092D01*
X51384D01*
Y125103D01*
X51350D01*
Y125115D01*
X51326D01*
Y125126D01*
X51281D01*
Y125115D01*
X51270D01*
Y125103D01*
X51258D01*
Y125092D01*
X51247D01*
Y125080D01*
X51235D01*
Y125068D01*
X51222D01*
G37*
G36*
G01Y126576D02*
Y127981D01*
X51247D01*
Y127970D01*
X51351D01*
Y127958D01*
X51455D01*
Y127946D01*
X51548D01*
Y127935D01*
X51606D01*
Y127493D01*
X51524D01*
Y127504D01*
X51444D01*
Y126972D01*
X51525D01*
Y126960D01*
X51618D01*
Y126949D01*
X51711D01*
Y126937D01*
X51792D01*
Y126926D01*
X51884D01*
Y126914D01*
X51977D01*
Y126902D01*
X52070D01*
Y126891D01*
X52163D01*
Y126879D01*
X52244D01*
Y126868D01*
X52313D01*
Y127400D01*
X52220D01*
Y127412D01*
X52080D01*
Y127423D01*
X52047D01*
Y127412D01*
X52024D01*
Y127400D01*
X52012D01*
Y127388D01*
X51989D01*
Y127377D01*
X51966D01*
Y127365D01*
X51954D01*
Y127354D01*
X51931D01*
Y127342D01*
X51908D01*
Y127330D01*
X51896D01*
Y127319D01*
X51873D01*
Y127307D01*
X51850D01*
Y127296D01*
X51838D01*
Y127284D01*
X51825D01*
Y127888D01*
X51873D01*
Y127877D01*
X51966D01*
Y127865D01*
X52059D01*
Y127854D01*
X52151D01*
Y127842D01*
X52244D01*
Y127830D01*
X52337D01*
Y127819D01*
X52430D01*
Y127807D01*
X52523D01*
Y127796D01*
X52534D01*
Y126495D01*
X52523D01*
Y126472D01*
X52511D01*
Y126449D01*
X52499D01*
Y126437D01*
X52476D01*
Y126426D01*
X52453D01*
Y126414D01*
X52371D01*
Y126426D01*
X52278D01*
Y126437D01*
X52196D01*
Y126449D01*
X52104D01*
Y126460D01*
X52023D01*
Y126472D01*
X51941D01*
Y126484D01*
X51848D01*
Y126495D01*
X51767D01*
Y126507D01*
X51674D01*
Y126518D01*
X51593D01*
Y126530D01*
X51501D01*
Y126542D01*
X51419D01*
Y126553D01*
X51338D01*
Y126565D01*
X51245D01*
Y126576D01*
X51222D01*
G37*
G36*
G01X57290Y125926D02*
Y126490D01*
X57321D01*
Y126475D01*
X57351D01*
Y126460D01*
X57380D01*
Y126446D01*
X57410D01*
Y126431D01*
X57439D01*
Y126416D01*
X57469D01*
Y126401D01*
X57513D01*
Y126386D01*
X57543D01*
Y126372D01*
X57573D01*
Y126357D01*
X57602D01*
Y126342D01*
X57632D01*
Y126327D01*
X57661D01*
Y126312D01*
X57691D01*
Y126298D01*
X57721D01*
Y126283D01*
X57750D01*
Y126268D01*
X57795D01*
Y126253D01*
X57824D01*
Y126238D01*
X57854D01*
Y126224D01*
X57883D01*
Y126209D01*
X57913D01*
Y126194D01*
X57943D01*
Y126179D01*
X57972D01*
Y126164D01*
X58002D01*
Y126150D01*
X58031D01*
Y126135D01*
X58076D01*
Y126120D01*
X58105D01*
Y126105D01*
X58135D01*
Y126090D01*
X58165D01*
Y126076D01*
X58194D01*
Y126061D01*
X58224D01*
Y126046D01*
X58253D01*
Y126031D01*
X58283D01*
Y126016D01*
X58313D01*
Y126002D01*
X58357D01*
Y125987D01*
X58387D01*
Y125972D01*
X58416D01*
Y125957D01*
X58446D01*
Y125942D01*
X58475D01*
Y125928D01*
X58505D01*
Y125913D01*
X58535D01*
Y125898D01*
X58564D01*
Y125883D01*
X58594D01*
Y125868D01*
X58638D01*
Y125854D01*
X58668D01*
Y125839D01*
X58697D01*
Y125824D01*
X58727D01*
Y125809D01*
X58757D01*
Y125794D01*
X58786D01*
Y125780D01*
X58816D01*
Y125765D01*
X58845D01*
Y125750D01*
X58875D01*
Y125735D01*
X58919D01*
Y125720D01*
X58949D01*
Y125706D01*
X58964D01*
Y124905D01*
X58949D01*
Y124890D01*
X58875D01*
Y124875D01*
X58801D01*
Y124860D01*
X58727D01*
Y124846D01*
X58653D01*
Y124831D01*
X58579D01*
Y124816D01*
X58490D01*
Y124801D01*
X58416D01*
Y124786D01*
X58342D01*
Y124772D01*
X58268D01*
Y124757D01*
X58194D01*
Y124742D01*
X58120D01*
Y124727D01*
X58046D01*
Y124712D01*
X57972D01*
Y124698D01*
X57898D01*
Y124683D01*
X57824D01*
Y124668D01*
X57750D01*
Y124653D01*
X57676D01*
Y124638D01*
X57602D01*
Y124624D01*
X57513D01*
Y124609D01*
X57439D01*
Y124594D01*
X57380D01*
Y124579D01*
X57351D01*
Y124564D01*
X57336D01*
Y124550D01*
X57306D01*
Y124535D01*
X57290D01*
Y125128D01*
X57320D01*
Y125143D01*
X57394D01*
Y125158D01*
X57468D01*
Y125173D01*
X57542D01*
Y125188D01*
X57616D01*
Y125202D01*
X57690D01*
Y125217D01*
X57778D01*
Y125232D01*
X57852D01*
Y125247D01*
X57926D01*
Y125262D01*
X58000D01*
Y125276D01*
X58074D01*
Y125291D01*
X58163D01*
Y125306D01*
X58237D01*
Y125321D01*
X58311D01*
Y125336D01*
X58385D01*
Y125350D01*
X58459D01*
Y125364D01*
X58430D01*
Y125378D01*
X58400D01*
Y125393D01*
X58370D01*
Y125408D01*
X58341D01*
Y125423D01*
X58311D01*
Y125438D01*
X58282D01*
Y125452D01*
X58237D01*
Y125467D01*
X58208D01*
Y125482D01*
X58178D01*
Y125497D01*
X58148D01*
Y125512D01*
X58119D01*
Y125526D01*
X58089D01*
Y125541D01*
X58060D01*
Y125556D01*
X58030D01*
Y125571D01*
X58000D01*
Y125586D01*
X57971D01*
Y125600D01*
X57941D01*
Y125615D01*
X57912D01*
Y125630D01*
X57882D01*
Y125645D01*
X57852D01*
Y125660D01*
X57823D01*
Y125674D01*
X57793D01*
Y125689D01*
X57764D01*
Y125704D01*
X57734D01*
Y125719D01*
X57704D01*
Y125734D01*
X57675D01*
Y125748D01*
X57630D01*
Y125763D01*
X57601D01*
Y125778D01*
X57571D01*
Y125793D01*
X57542D01*
Y125808D01*
X57512D01*
Y125822D01*
X57482D01*
Y125837D01*
X57453D01*
Y125852D01*
X57423D01*
Y125867D01*
X57394D01*
Y125882D01*
X57364D01*
Y125896D01*
X57334D01*
Y125911D01*
X57305D01*
Y125926D01*
X57290D01*
G37*
G36*
G01Y126918D02*
Y128828D01*
X57351D01*
Y128814D01*
X57469D01*
Y128799D01*
X57573D01*
Y128784D01*
X57676D01*
Y128769D01*
X57795D01*
Y128754D01*
X57898D01*
Y128740D01*
X58002D01*
Y128725D01*
X58120D01*
Y128710D01*
X58224D01*
Y128695D01*
X58327D01*
Y128680D01*
X58446D01*
Y128666D01*
X58549D01*
Y128651D01*
X58653D01*
Y128636D01*
X58771D01*
Y128621D01*
X58845D01*
Y128606D01*
X58875D01*
Y128592D01*
X58890D01*
Y128577D01*
X58905D01*
Y128562D01*
X58919D01*
Y128547D01*
X58934D01*
Y128518D01*
X58949D01*
Y128488D01*
X58964D01*
Y126814D01*
X58874D01*
Y126829D01*
X58755D01*
Y126844D01*
X58637D01*
Y126858D01*
X58518D01*
Y126873D01*
X58415D01*
Y126888D01*
X58296D01*
Y126903D01*
X58178D01*
Y126918D01*
X58060D01*
Y126932D01*
X57941D01*
Y126947D01*
X57823D01*
Y126962D01*
X57704D01*
Y126977D01*
X57586D01*
Y126992D01*
X57468D01*
Y127006D01*
X57395D01*
Y126992D01*
X57380D01*
Y126977D01*
X57365D01*
Y126962D01*
X57336D01*
Y126947D01*
X57321D01*
Y126932D01*
X57306D01*
Y126918D01*
X57290D01*
G37*
G36*
G01X53934Y128184D02*
Y130836D01*
X54040D01*
Y130815D01*
X54205D01*
Y130795D01*
X54371D01*
Y130774D01*
X54516D01*
Y130753D01*
X54681D01*
Y130732D01*
X54847D01*
Y130712D01*
X54888D01*
Y130691D01*
X54909D01*
Y130650D01*
X54930D01*
Y130629D01*
X54950D01*
Y130588D01*
X54971D01*
Y130546D01*
X54992D01*
Y130526D01*
X55013D01*
Y130484D01*
X55052D01*
Y130526D01*
X55073D01*
Y130546D01*
X55093D01*
Y130567D01*
X55114D01*
Y130588D01*
X55135D01*
Y130629D01*
X55155D01*
Y130650D01*
X55176D01*
Y130670D01*
X55323D01*
Y130650D01*
X55447D01*
Y130629D01*
X55592D01*
Y130608D01*
X55716D01*
Y130588D01*
X55861D01*
Y130567D01*
X55986D01*
Y130546D01*
X56048D01*
Y130526D01*
X56089D01*
Y130505D01*
X56130D01*
Y130484D01*
X56151D01*
Y130463D01*
X56172D01*
Y130443D01*
X56192D01*
Y130422D01*
X56213D01*
Y130401D01*
X56234D01*
Y130360D01*
X56255D01*
Y128019D01*
X56149D01*
Y128039D01*
X55983D01*
Y128060D01*
X55818D01*
Y128081D01*
X55652D01*
Y128102D01*
X55487D01*
Y128122D01*
X55321D01*
Y128143D01*
X55155D01*
Y128164D01*
X55011D01*
Y128184D01*
X54845D01*
Y128205D01*
X54679D01*
Y128226D01*
X54514D01*
Y128246D01*
X54348D01*
Y128267D01*
X54183D01*
Y128288D01*
X54060D01*
Y128267D01*
X54040D01*
Y128246D01*
X53998D01*
Y128226D01*
X53978D01*
Y128205D01*
X53957D01*
Y128184D01*
X53934D01*
G37*
G36*
G01X53913Y125245D02*
Y127586D01*
X53957D01*
Y127565D01*
X54164D01*
Y127545D01*
X54309D01*
Y126116D01*
X54350D01*
Y126096D01*
X54516D01*
Y126075D01*
X54702D01*
Y126054D01*
X54868D01*
Y126034D01*
X54990D01*
Y127338D01*
X55137D01*
Y127317D01*
X55344D01*
Y127296D01*
X55385D01*
Y125951D01*
X55468D01*
Y125930D01*
X55613D01*
Y125909D01*
X55778D01*
Y125889D01*
X55923D01*
Y125868D01*
X56068D01*
Y125847D01*
X56234D01*
Y125827D01*
X56255D01*
Y125038D01*
X56170D01*
Y125059D01*
X56025D01*
Y125079D01*
X55880D01*
Y125100D01*
X55735D01*
Y125121D01*
X55590D01*
Y125141D01*
X55466D01*
Y125162D01*
X55321D01*
Y125183D01*
X55176D01*
Y125204D01*
X55031D01*
Y125224D01*
X54886D01*
Y125245D01*
X54741D01*
Y125266D01*
X54617D01*
Y125286D01*
X54472D01*
Y125307D01*
X54327D01*
Y125328D01*
X54183D01*
Y125348D01*
X54060D01*
Y125328D01*
X54040D01*
Y125307D01*
X53998D01*
Y125286D01*
X53978D01*
Y125266D01*
X53957D01*
Y125245D01*
X53913D01*
G37*
G36*
G01X43126Y137295D02*
X44963D01*
Y137261D01*
X44947D01*
Y137148D01*
X44931D01*
Y137020D01*
X44915D01*
Y136907D01*
X44899D01*
Y136794D01*
X44882D01*
Y136681D01*
X44866D01*
Y136569D01*
X44850D01*
Y136456D01*
X44834D01*
Y136327D01*
X44818D01*
Y136215D01*
X44802D01*
Y136182D01*
X43514D01*
Y136086D01*
X43498D01*
Y135957D01*
X43482D01*
Y135844D01*
X43466D01*
Y135765D01*
X44639D01*
Y135781D01*
X44655D01*
Y135798D01*
X44672D01*
Y135814D01*
X44704D01*
Y135830D01*
X44720D01*
Y135846D01*
X44754D01*
Y135764D01*
X44737D01*
Y135651D01*
X44721D01*
Y135538D01*
X44705D01*
Y135458D01*
X42997D01*
Y135474D01*
X42981D01*
Y135490D01*
X42949D01*
Y135506D01*
X42933D01*
Y135538D01*
X42917D01*
Y135571D01*
X42900D01*
Y135749D01*
X42917D01*
Y135862D01*
X42933D01*
Y135975D01*
X42949D01*
Y136087D01*
X42965D01*
Y136200D01*
X42981D01*
Y136329D01*
X42997D01*
Y136442D01*
X43013D01*
Y136490D01*
X44237D01*
Y136570D01*
X44253D01*
Y136683D01*
X44269D01*
Y136796D01*
X44285D01*
Y136908D01*
X44301D01*
Y136987D01*
X43691D01*
Y136907D01*
X43675D01*
Y136778D01*
X43659D01*
Y136730D01*
X43045D01*
Y136764D01*
X43061D01*
Y136892D01*
X43078D01*
Y137005D01*
X43094D01*
Y137118D01*
X43110D01*
Y137230D01*
X43126D01*
Y137295D01*
G37*
G36*
G01X45798D02*
X47410D01*
Y137213D01*
X47394D01*
Y137100D01*
X47378D01*
Y136987D01*
X47362D01*
Y136875D01*
X47346D01*
Y136746D01*
X47330D01*
Y136633D01*
X47314D01*
Y136520D01*
X47297D01*
Y136408D01*
X47281D01*
Y136295D01*
X47265D01*
Y136182D01*
X47249D01*
Y136070D01*
X47233D01*
Y135957D01*
X47217D01*
Y135844D01*
X47201D01*
Y135732D01*
X47185D01*
Y135635D01*
X47169D01*
Y135587D01*
X47152D01*
Y135571D01*
X47136D01*
Y135538D01*
X47120D01*
Y135522D01*
X47104D01*
Y135506D01*
X47072D01*
Y135490D01*
X47056D01*
Y135474D01*
X47024D01*
Y135458D01*
X45316D01*
Y135492D01*
X45332D01*
Y135604D01*
X45348D01*
Y135717D01*
X45364D01*
Y135830D01*
X45380D01*
Y135942D01*
X45396D01*
Y136071D01*
X45412D01*
Y136184D01*
X45428D01*
Y136297D01*
X45444D01*
Y136409D01*
X45460D01*
Y136522D01*
X45476D01*
Y136635D01*
X45493D01*
Y136747D01*
X45509D01*
Y136876D01*
X45525D01*
Y136989D01*
X45541D01*
Y137086D01*
X45557D01*
Y137134D01*
X45573D01*
Y137166D01*
X45589D01*
Y137182D01*
X45605D01*
Y137198D01*
X45621D01*
Y137214D01*
X45637D01*
Y137230D01*
X45654D01*
Y137247D01*
X45670D01*
Y137263D01*
X45702D01*
Y137279D01*
X45798D01*
Y137295D01*
G37*
G36*
G01X51234Y130184D02*
Y131670D01*
X51247D01*
Y131658D01*
X51328D01*
Y131647D01*
X51420D01*
Y131635D01*
X51502D01*
Y131623D01*
X51583D01*
Y131612D01*
X51676D01*
Y131600D01*
X51757D01*
Y131589D01*
X51838D01*
Y131577D01*
X51931D01*
Y131566D01*
X52012D01*
Y131554D01*
X52093D01*
Y131542D01*
X52186D01*
Y131531D01*
X52267D01*
Y131519D01*
X52348D01*
Y131508D01*
X52430D01*
Y131496D01*
X52453D01*
Y131484D01*
X52476D01*
Y131473D01*
X52488D01*
Y131461D01*
X52499D01*
Y131438D01*
X52511D01*
Y131426D01*
X52523D01*
Y131403D01*
X52534D01*
Y130080D01*
X52521D01*
Y130091D01*
X52428D01*
Y130103D01*
X52336D01*
Y130114D01*
X52243D01*
Y130126D01*
X52162D01*
Y130138D01*
X52069D01*
Y130149D01*
X51976D01*
Y130161D01*
X51883D01*
Y130172D01*
X51790D01*
Y130184D01*
X51698D01*
Y130196D01*
X51605D01*
Y130207D01*
X51524D01*
Y130219D01*
X51431D01*
Y130230D01*
X51338D01*
Y130242D01*
X51316D01*
Y130230D01*
X51293D01*
Y130219D01*
X51281D01*
Y130207D01*
X51270D01*
Y130196D01*
X51247D01*
Y130184D01*
X51234D01*
G37*
G36*
G01X51222Y129442D02*
Y129826D01*
X51247D01*
Y129814D01*
X51339D01*
Y129802D01*
X51420D01*
Y129791D01*
X51502D01*
Y129779D01*
X51595D01*
Y129767D01*
X51676D01*
Y129756D01*
X51757D01*
Y129744D01*
X51850D01*
Y129733D01*
X51931D01*
Y129721D01*
X52012D01*
Y129710D01*
X52105D01*
Y129698D01*
X52186D01*
Y129686D01*
X52267D01*
Y129675D01*
X52360D01*
Y129663D01*
X52441D01*
Y129652D01*
X52534D01*
Y129186D01*
X52511D01*
Y129175D01*
X52488D01*
Y129163D01*
X52464D01*
Y129152D01*
X52441D01*
Y129140D01*
X52430D01*
Y129128D01*
X52407D01*
Y129117D01*
X52383D01*
Y129105D01*
X52360D01*
Y129094D01*
X52337D01*
Y129082D01*
X52325D01*
Y129070D01*
X52302D01*
Y129059D01*
X52279D01*
Y129047D01*
X52256D01*
Y129036D01*
X52233D01*
Y129024D01*
X52221D01*
Y129012D01*
X52198D01*
Y129001D01*
X52174D01*
Y128989D01*
X52151D01*
Y128978D01*
X52128D01*
Y128966D01*
X52116D01*
Y128954D01*
X52093D01*
Y128943D01*
X52070D01*
Y128931D01*
X52047D01*
Y128919D01*
X52024D01*
Y128908D01*
X52012D01*
Y128896D01*
X51989D01*
Y128885D01*
X51966D01*
Y128873D01*
X51942D01*
Y128862D01*
X51919D01*
Y128850D01*
X51908D01*
Y128838D01*
X51884D01*
Y128827D01*
X51861D01*
Y128815D01*
X51838D01*
Y128804D01*
X51815D01*
Y128792D01*
X51803D01*
Y128780D01*
X51780D01*
Y128769D01*
X51757D01*
Y128757D01*
X51745D01*
Y128747D01*
X51826D01*
Y128735D01*
X51908D01*
Y128723D01*
X51989D01*
Y128712D01*
X52082D01*
Y128700D01*
X52163D01*
Y128689D01*
X52244D01*
Y128677D01*
X52325D01*
Y128666D01*
X52407D01*
Y128654D01*
X52488D01*
Y128642D01*
X52534D01*
Y128247D01*
X52452D01*
Y128258D01*
X52371D01*
Y128270D01*
X52289D01*
Y128282D01*
X52208D01*
Y128293D01*
X52127D01*
Y128305D01*
X52046D01*
Y128316D01*
X51976D01*
Y128328D01*
X51895D01*
Y128340D01*
X51814D01*
Y128351D01*
X51732D01*
Y128363D01*
X51651D01*
Y128374D01*
X51570D01*
Y128386D01*
X51489D01*
Y128397D01*
X51419D01*
Y128409D01*
X51338D01*
Y128421D01*
X51316D01*
Y128409D01*
X51304D01*
Y128397D01*
X51293D01*
Y128386D01*
X51281D01*
Y128374D01*
X51270D01*
Y128363D01*
X51258D01*
Y128351D01*
X51247D01*
Y128340D01*
X51235D01*
Y128328D01*
X51222D01*
Y128863D01*
X51234D01*
Y128874D01*
X51257D01*
Y128886D01*
X51280D01*
Y128898D01*
X51292D01*
Y128909D01*
X51315D01*
Y128921D01*
X51338D01*
Y128932D01*
X51361D01*
Y128944D01*
X51373D01*
Y128956D01*
X51396D01*
Y128967D01*
X51419D01*
Y128979D01*
X51442D01*
Y128990D01*
X51454D01*
Y129002D01*
X51477D01*
Y129014D01*
X51501D01*
Y129025D01*
X51524D01*
Y129037D01*
X51535D01*
Y129048D01*
X51559D01*
Y129060D01*
X51582D01*
Y129071D01*
X51605D01*
Y129083D01*
X51616D01*
Y129095D01*
X51640D01*
Y129106D01*
X51663D01*
Y129118D01*
X51686D01*
Y129130D01*
X51709D01*
Y129141D01*
X51721D01*
Y129153D01*
X51744D01*
Y129164D01*
X51767D01*
Y129176D01*
X51790D01*
Y129188D01*
X51802D01*
Y129199D01*
X51825D01*
Y129211D01*
X51848D01*
Y129222D01*
X51872D01*
Y129234D01*
X51883D01*
Y129245D01*
X51907D01*
Y129257D01*
X51930D01*
Y129269D01*
X51953D01*
Y129280D01*
X51964D01*
Y129292D01*
X51988D01*
Y129304D01*
X52011D01*
Y129315D01*
X52034D01*
Y129337D01*
X51953D01*
Y129349D01*
X51872D01*
Y129360D01*
X51779D01*
Y129372D01*
X51698D01*
Y129384D01*
X51605D01*
Y129395D01*
X51524D01*
Y129407D01*
X51431D01*
Y129418D01*
X51350D01*
Y129430D01*
X51268D01*
Y129442D01*
X51222D01*
G37*
G36*
G01X57305Y129286D02*
Y131182D01*
X57351D01*
Y131167D01*
X57469D01*
Y131152D01*
X57573D01*
Y131137D01*
X57676D01*
Y131122D01*
X57795D01*
Y131108D01*
X57898D01*
Y131093D01*
X58002D01*
Y131078D01*
X58120D01*
Y131063D01*
X58224D01*
Y131048D01*
X58327D01*
Y131034D01*
X58446D01*
Y131019D01*
X58549D01*
Y131004D01*
X58653D01*
Y130989D01*
X58771D01*
Y130974D01*
X58845D01*
Y130960D01*
X58875D01*
Y130945D01*
X58890D01*
Y130930D01*
X58905D01*
Y130915D01*
X58919D01*
Y130900D01*
X58934D01*
Y130871D01*
X58949D01*
Y130841D01*
X58964D01*
Y129167D01*
X58874D01*
Y129182D01*
X58755D01*
Y129197D01*
X58637D01*
Y129212D01*
X58518D01*
Y129226D01*
X58400D01*
Y129241D01*
X58282D01*
Y129256D01*
X58163D01*
Y129271D01*
X58060D01*
Y129286D01*
X57941D01*
Y129300D01*
X57823D01*
Y129315D01*
X57704D01*
Y129330D01*
X57586D01*
Y129345D01*
X57468D01*
Y129360D01*
X57395D01*
Y129345D01*
X57380D01*
Y129330D01*
X57365D01*
Y129315D01*
X57336D01*
Y129300D01*
X57321D01*
Y129286D01*
X57305D01*
G37*
G36*
G01X185489Y64390D02*
X187257D01*
Y64374D01*
X187242D01*
Y64243D01*
X187228D01*
Y64126D01*
X187213D01*
Y63995D01*
X187198D01*
Y63907D01*
X186628D01*
Y63923D01*
X186642D01*
Y64025D01*
X186657D01*
Y64112D01*
X185987D01*
Y64024D01*
X185972D01*
Y63907D01*
X185957D01*
Y63790D01*
X185943D01*
Y63674D01*
X185928D01*
Y63571D01*
X185914D01*
Y63455D01*
X185899D01*
Y63338D01*
X185884D01*
Y63221D01*
X185870D01*
Y63104D01*
X185855D01*
Y63018D01*
X186525D01*
Y63164D01*
X186540D01*
Y63325D01*
X186555D01*
Y63352D01*
X186540D01*
Y63382D01*
X186525D01*
Y63396D01*
X186511D01*
Y63425D01*
X186496D01*
Y63440D01*
X186482D01*
Y63469D01*
X186467D01*
Y63498D01*
X186452D01*
Y63513D01*
X186438D01*
Y63542D01*
X186423D01*
Y63571D01*
X186409D01*
Y63586D01*
X186394D01*
Y63615D01*
X186379D01*
Y63631D01*
X187140D01*
Y63586D01*
X187125D01*
Y63469D01*
X187111D01*
Y63352D01*
X187096D01*
Y63236D01*
X187082D01*
Y63119D01*
X187067D01*
Y63002D01*
X187052D01*
Y62885D01*
X187038D01*
Y62768D01*
X187023D01*
Y62739D01*
X185372D01*
Y62754D01*
X185357D01*
Y62768D01*
X185328D01*
Y62783D01*
X185314D01*
Y62798D01*
X185299D01*
Y62827D01*
X185284D01*
Y62960D01*
X185299D01*
Y63062D01*
X185314D01*
Y63179D01*
X185328D01*
Y63281D01*
X185343D01*
Y63398D01*
X185357D01*
Y63500D01*
X185372D01*
Y63617D01*
X185387D01*
Y63719D01*
X185401D01*
Y63821D01*
X185416D01*
Y63938D01*
X185430D01*
Y64040D01*
X185445D01*
Y64157D01*
X185460D01*
Y64259D01*
X185474D01*
Y64376D01*
X185489D01*
Y64390D01*
G37*
G36*
G01X189095D02*
X189578D01*
Y64374D01*
X189564D01*
Y64258D01*
X189549D01*
Y64155D01*
X189534D01*
Y64053D01*
X189520D01*
Y63936D01*
X189505D01*
Y63834D01*
X189491D01*
Y63732D01*
X189476D01*
Y63615D01*
X189461D01*
Y63513D01*
X189447D01*
Y63411D01*
X189432D01*
Y63294D01*
X189418D01*
Y63192D01*
X189403D01*
Y63075D01*
X189388D01*
Y62973D01*
X189374D01*
Y62871D01*
X189359D01*
Y62754D01*
X189345D01*
Y62739D01*
X188774D01*
Y62768D01*
X188759D01*
Y62798D01*
X188745D01*
Y62827D01*
X188730D01*
Y62841D01*
X188715D01*
Y62871D01*
X188701D01*
Y62900D01*
X188686D01*
Y62929D01*
X188672D01*
Y62958D01*
X188657D01*
Y62973D01*
X188642D01*
Y63002D01*
X188628D01*
Y63031D01*
X188613D01*
Y63060D01*
X188599D01*
Y63090D01*
X188584D01*
Y63104D01*
X188569D01*
Y63133D01*
X188555D01*
Y63163D01*
X188540D01*
Y63192D01*
X188526D01*
Y63221D01*
X188511D01*
Y63236D01*
X188496D01*
Y63265D01*
X188482D01*
Y63294D01*
X188467D01*
Y63323D01*
X188453D01*
Y63352D01*
X188438D01*
Y63367D01*
X188423D01*
Y63396D01*
X188409D01*
Y63425D01*
X188394D01*
Y63455D01*
X188380D01*
Y63484D01*
X188365D01*
Y63498D01*
X188350D01*
Y63528D01*
X188336D01*
Y63557D01*
X188321D01*
Y63586D01*
X188307D01*
Y63615D01*
X188292D01*
Y63630D01*
X188277D01*
Y63659D01*
X188263D01*
Y63688D01*
X188248D01*
Y63717D01*
X188234D01*
Y63747D01*
X188220D01*
Y63644D01*
X188206D01*
Y63542D01*
X188191D01*
Y63425D01*
X188177D01*
Y63323D01*
X188162D01*
Y63221D01*
X188147D01*
Y63119D01*
X188133D01*
Y63002D01*
X188118D01*
Y62900D01*
X188104D01*
Y62798D01*
X188089D01*
Y62739D01*
X187577D01*
Y62755D01*
X187591D01*
Y62857D01*
X187606D01*
Y62960D01*
X187620D01*
Y63062D01*
X187635D01*
Y63164D01*
X187650D01*
Y63266D01*
X187664D01*
Y63354D01*
X187679D01*
Y63456D01*
X187693D01*
Y63558D01*
X187708D01*
Y63660D01*
X187723D01*
Y63763D01*
X187737D01*
Y63865D01*
X187752D01*
Y63967D01*
X187766D01*
Y64055D01*
X187781D01*
Y64157D01*
X187796D01*
Y64259D01*
X187810D01*
Y64272D01*
X187796D01*
Y64287D01*
X187781D01*
Y64301D01*
X187766D01*
Y64316D01*
X187752D01*
Y64331D01*
X187737D01*
Y64345D01*
X187723D01*
Y64360D01*
X187708D01*
Y64374D01*
X187693D01*
Y64390D01*
X188366D01*
Y64376D01*
X188381D01*
Y64347D01*
X188396D01*
Y64317D01*
X188410D01*
Y64303D01*
X188425D01*
Y64274D01*
X188439D01*
Y64244D01*
X188454D01*
Y64215D01*
X188469D01*
Y64201D01*
X188483D01*
Y64171D01*
X188498D01*
Y64142D01*
X188512D01*
Y64113D01*
X188527D01*
Y64084D01*
X188542D01*
Y64069D01*
X188556D01*
Y64040D01*
X188571D01*
Y64011D01*
X188585D01*
Y63982D01*
X188600D01*
Y63967D01*
X188615D01*
Y63938D01*
X188629D01*
Y63909D01*
X188644D01*
Y63879D01*
X188658D01*
Y63865D01*
X188673D01*
Y63836D01*
X188688D01*
Y63806D01*
X188702D01*
Y63777D01*
X188717D01*
Y63763D01*
X188731D01*
Y63733D01*
X188746D01*
Y63704D01*
X188761D01*
Y63675D01*
X188775D01*
Y63646D01*
X188790D01*
Y63631D01*
X188804D01*
Y63602D01*
X188819D01*
Y63573D01*
X188834D01*
Y63544D01*
X188848D01*
Y63529D01*
X188863D01*
Y63500D01*
X188877D01*
Y63471D01*
X188892D01*
Y63441D01*
X188907D01*
Y63427D01*
X188921D01*
Y63398D01*
X188936D01*
Y63368D01*
X188949D01*
Y63383D01*
X188964D01*
Y63485D01*
X188978D01*
Y63587D01*
X188993D01*
Y63704D01*
X189007D01*
Y63806D01*
X189022D01*
Y63909D01*
X189037D01*
Y64025D01*
X189051D01*
Y64128D01*
X189066D01*
Y64244D01*
X189080D01*
Y64347D01*
X189095D01*
Y64390D01*
G37*
G36*
G01X187172Y74431D02*
X187739D01*
Y74400D01*
X187724D01*
Y74370D01*
X187709D01*
Y74340D01*
X187694D01*
Y74310D01*
X187680D01*
Y74280D01*
X187665D01*
Y74251D01*
X187650D01*
Y74206D01*
X187635D01*
Y74176D01*
X187620D01*
Y74146D01*
X187605D01*
Y74116D01*
X187590D01*
Y74087D01*
X187575D01*
Y74057D01*
X187560D01*
Y74027D01*
X187546D01*
Y73997D01*
X187531D01*
Y73968D01*
X187516D01*
Y73923D01*
X187501D01*
Y73893D01*
X187486D01*
Y73863D01*
X187471D01*
Y73833D01*
X187456D01*
Y73804D01*
X187441D01*
Y73774D01*
X187426D01*
Y73744D01*
X187411D01*
Y73714D01*
X187396D01*
Y73684D01*
X187382D01*
Y73640D01*
X187367D01*
Y73610D01*
X187352D01*
Y73580D01*
X187337D01*
Y73550D01*
X187322D01*
Y73521D01*
X187307D01*
Y73491D01*
X187292D01*
Y73461D01*
X187277D01*
Y73431D01*
X187262D01*
Y73401D01*
X187248D01*
Y73357D01*
X187233D01*
Y73327D01*
X187218D01*
Y73297D01*
X187203D01*
Y73267D01*
X187188D01*
Y73237D01*
X187173D01*
Y73208D01*
X187158D01*
Y73178D01*
X187143D01*
Y73148D01*
X187128D01*
Y73118D01*
X187113D01*
Y73074D01*
X187098D01*
Y73044D01*
X187084D01*
Y73014D01*
X187069D01*
Y72984D01*
X187054D01*
Y72954D01*
X187039D01*
Y72924D01*
X187024D01*
Y72895D01*
X187009D01*
Y72865D01*
X186994D01*
Y72835D01*
X186979D01*
Y72790D01*
X186964D01*
Y72761D01*
X186950D01*
Y72746D01*
X186143D01*
Y72761D01*
X186128D01*
Y72835D01*
X186114D01*
Y72910D01*
X186099D01*
Y72984D01*
X186084D01*
Y73059D01*
X186069D01*
Y73133D01*
X186054D01*
Y73222D01*
X186039D01*
Y73297D01*
X186024D01*
Y73372D01*
X186009D01*
Y73446D01*
X185994D01*
Y73521D01*
X185980D01*
Y73595D01*
X185965D01*
Y73670D01*
X185950D01*
Y73744D01*
X185935D01*
Y73818D01*
X185920D01*
Y73893D01*
X185905D01*
Y73968D01*
X185890D01*
Y74042D01*
X185875D01*
Y74116D01*
X185860D01*
Y74206D01*
X185845D01*
Y74280D01*
X185830D01*
Y74340D01*
X185816D01*
Y74370D01*
X185801D01*
Y74385D01*
X185786D01*
Y74414D01*
X185771D01*
Y74431D01*
X186368D01*
Y74401D01*
X186383D01*
Y74327D01*
X186398D01*
Y74252D01*
X186413D01*
Y74178D01*
X186428D01*
Y74103D01*
X186443D01*
Y74029D01*
X186458D01*
Y73939D01*
X186473D01*
Y73865D01*
X186488D01*
Y73790D01*
X186503D01*
Y73716D01*
X186517D01*
Y73641D01*
X186532D01*
Y73552D01*
X186547D01*
Y73477D01*
X186562D01*
Y73403D01*
X186577D01*
Y73328D01*
X186592D01*
Y73254D01*
X186605D01*
Y73284D01*
X186620D01*
Y73313D01*
X186635D01*
Y73343D01*
X186650D01*
Y73373D01*
X186665D01*
Y73403D01*
X186680D01*
Y73433D01*
X186695D01*
Y73477D01*
X186710D01*
Y73507D01*
X186724D01*
Y73537D01*
X186739D01*
Y73567D01*
X186754D01*
Y73597D01*
X186769D01*
Y73626D01*
X186784D01*
Y73656D01*
X186799D01*
Y73686D01*
X186814D01*
Y73716D01*
X186829D01*
Y73746D01*
X186844D01*
Y73775D01*
X186859D01*
Y73805D01*
X186874D01*
Y73835D01*
X186888D01*
Y73865D01*
X186903D01*
Y73895D01*
X186918D01*
Y73924D01*
X186933D01*
Y73954D01*
X186948D01*
Y73984D01*
X186963D01*
Y74014D01*
X186978D01*
Y74044D01*
X186993D01*
Y74088D01*
X187008D01*
Y74118D01*
X187022D01*
Y74148D01*
X187037D01*
Y74178D01*
X187052D01*
Y74207D01*
X187067D01*
Y74237D01*
X187082D01*
Y74267D01*
X187097D01*
Y74297D01*
X187112D01*
Y74327D01*
X187127D01*
Y74356D01*
X187142D01*
Y74386D01*
X187157D01*
Y74416D01*
X187172D01*
Y74431D01*
G37*
G36*
G01X188259D02*
X190064D01*
Y74295D01*
X190049D01*
Y74146D01*
X188782D01*
Y74072D01*
X188767D01*
Y73953D01*
X188752D01*
Y73848D01*
X188738D01*
Y73729D01*
X188723D01*
Y73610D01*
X188708D01*
Y73491D01*
X188693D01*
Y73372D01*
X188678D01*
Y73267D01*
X188663D01*
Y73148D01*
X188648D01*
Y73030D01*
X189764D01*
Y73045D01*
X189794D01*
Y73060D01*
X189809D01*
Y73075D01*
X189824D01*
Y73090D01*
X189839D01*
Y73105D01*
X189868D01*
Y73120D01*
X189900D01*
Y73103D01*
X189885D01*
Y72999D01*
X189870D01*
Y72895D01*
X189855D01*
Y72790D01*
X189840D01*
Y72746D01*
X188155D01*
Y72761D01*
X188125D01*
Y72776D01*
X188110D01*
Y72790D01*
X188095D01*
Y72805D01*
X188080D01*
Y72835D01*
X188066D01*
Y72986D01*
X188080D01*
Y73105D01*
X188095D01*
Y73209D01*
X188110D01*
Y73328D01*
X188125D01*
Y73433D01*
X188140D01*
Y73537D01*
X188155D01*
Y73656D01*
X188170D01*
Y73760D01*
X188185D01*
Y73880D01*
X188200D01*
Y73984D01*
X188214D01*
Y74103D01*
X188229D01*
Y74207D01*
X188244D01*
Y74327D01*
X188259D01*
Y74431D01*
G37*
G36*
G01X187082Y71073D02*
X187649D01*
Y71041D01*
X187634D01*
Y71012D01*
X187620D01*
Y70982D01*
X187605D01*
Y70952D01*
X187590D01*
Y70922D01*
X187575D01*
Y70892D01*
X187560D01*
Y70848D01*
X187545D01*
Y70818D01*
X187530D01*
Y70788D01*
X187515D01*
Y70758D01*
X187500D01*
Y70728D01*
X187485D01*
Y70699D01*
X187470D01*
Y70669D01*
X187456D01*
Y70639D01*
X187441D01*
Y70609D01*
X187426D01*
Y70565D01*
X187411D01*
Y70535D01*
X187396D01*
Y70505D01*
X187381D01*
Y70475D01*
X187366D01*
Y70445D01*
X187351D01*
Y70416D01*
X187336D01*
Y70386D01*
X187321D01*
Y70356D01*
X187307D01*
Y70326D01*
X187292D01*
Y70282D01*
X187277D01*
Y70252D01*
X187262D01*
Y70222D01*
X187247D01*
Y70192D01*
X187232D01*
Y70162D01*
X187217D01*
Y70133D01*
X187202D01*
Y70103D01*
X187187D01*
Y70073D01*
X187172D01*
Y70043D01*
X187158D01*
Y69998D01*
X187143D01*
Y69969D01*
X187128D01*
Y69939D01*
X187113D01*
Y69909D01*
X187098D01*
Y69879D01*
X187083D01*
Y69849D01*
X187068D01*
Y69820D01*
X187053D01*
Y69790D01*
X187038D01*
Y69760D01*
X187024D01*
Y69715D01*
X187009D01*
Y69686D01*
X186994D01*
Y69656D01*
X186979D01*
Y69626D01*
X186964D01*
Y69596D01*
X186949D01*
Y69566D01*
X186934D01*
Y69536D01*
X186919D01*
Y69507D01*
X186904D01*
Y69477D01*
X186889D01*
Y69432D01*
X186874D01*
Y69402D01*
X186860D01*
Y69388D01*
X186054D01*
Y69402D01*
X186039D01*
Y69477D01*
X186024D01*
Y69551D01*
X186009D01*
Y69626D01*
X185994D01*
Y69700D01*
X185979D01*
Y69775D01*
X185964D01*
Y69864D01*
X185949D01*
Y69939D01*
X185934D01*
Y70013D01*
X185919D01*
Y70088D01*
X185904D01*
Y70162D01*
X185890D01*
Y70237D01*
X185875D01*
Y70311D01*
X185860D01*
Y70386D01*
X185845D01*
Y70460D01*
X185830D01*
Y70535D01*
X185815D01*
Y70609D01*
X185800D01*
Y70684D01*
X185785D01*
Y70758D01*
X185770D01*
Y70848D01*
X185756D01*
Y70922D01*
X185741D01*
Y70982D01*
X185726D01*
Y71012D01*
X185711D01*
Y71026D01*
X185696D01*
Y71056D01*
X185681D01*
Y71073D01*
X186278D01*
Y71043D01*
X186293D01*
Y70968D01*
X186308D01*
Y70894D01*
X186323D01*
Y70819D01*
X186338D01*
Y70745D01*
X186353D01*
Y70670D01*
X186368D01*
Y70581D01*
X186383D01*
Y70506D01*
X186398D01*
Y70432D01*
X186413D01*
Y70358D01*
X186428D01*
Y70283D01*
X186442D01*
Y70194D01*
X186457D01*
Y70119D01*
X186472D01*
Y70045D01*
X186487D01*
Y69970D01*
X186502D01*
Y69896D01*
X186515D01*
Y69925D01*
X186530D01*
Y69955D01*
X186545D01*
Y69985D01*
X186560D01*
Y70015D01*
X186575D01*
Y70045D01*
X186590D01*
Y70074D01*
X186605D01*
Y70119D01*
X186620D01*
Y70149D01*
X186635D01*
Y70179D01*
X186650D01*
Y70208D01*
X186664D01*
Y70238D01*
X186679D01*
Y70268D01*
X186694D01*
Y70298D01*
X186709D01*
Y70328D01*
X186724D01*
Y70358D01*
X186739D01*
Y70387D01*
X186754D01*
Y70417D01*
X186769D01*
Y70447D01*
X186784D01*
Y70477D01*
X186798D01*
Y70506D01*
X186813D01*
Y70536D01*
X186828D01*
Y70566D01*
X186843D01*
Y70596D01*
X186858D01*
Y70626D01*
X186873D01*
Y70656D01*
X186888D01*
Y70685D01*
X186903D01*
Y70730D01*
X186918D01*
Y70760D01*
X186933D01*
Y70790D01*
X186948D01*
Y70819D01*
X186962D01*
Y70849D01*
X186977D01*
Y70879D01*
X186992D01*
Y70909D01*
X187007D01*
Y70939D01*
X187022D01*
Y70968D01*
X187037D01*
Y70998D01*
X187052D01*
Y71028D01*
X187067D01*
Y71058D01*
X187082D01*
Y71073D01*
G37*
G36*
G01X188169D02*
X189974D01*
Y70937D01*
X189959D01*
Y70788D01*
X188692D01*
Y70714D01*
X188677D01*
Y70594D01*
X188662D01*
Y70490D01*
X188648D01*
Y70371D01*
X188633D01*
Y70252D01*
X188618D01*
Y70133D01*
X188603D01*
Y70013D01*
X188588D01*
Y69909D01*
X188573D01*
Y69790D01*
X188558D01*
Y69672D01*
X189674D01*
Y69687D01*
X189704D01*
Y69702D01*
X189719D01*
Y69717D01*
X189734D01*
Y69732D01*
X189749D01*
Y69747D01*
X189778D01*
Y69762D01*
X189810D01*
Y69745D01*
X189795D01*
Y69641D01*
X189780D01*
Y69536D01*
X189765D01*
Y69432D01*
X189750D01*
Y69388D01*
X188065D01*
Y69402D01*
X188035D01*
Y69417D01*
X188020D01*
Y69432D01*
X188005D01*
Y69447D01*
X187990D01*
Y69477D01*
X187976D01*
Y69627D01*
X187990D01*
Y69747D01*
X188005D01*
Y69851D01*
X188020D01*
Y69970D01*
X188035D01*
Y70074D01*
X188050D01*
Y70179D01*
X188065D01*
Y70298D01*
X188080D01*
Y70402D01*
X188095D01*
Y70521D01*
X188110D01*
Y70626D01*
X188125D01*
Y70745D01*
X188140D01*
Y70849D01*
X188154D01*
Y70968D01*
X188169D01*
Y71073D01*
G37*
G36*
G01X185811Y67669D02*
X187579D01*
Y67653D01*
X187565D01*
Y67522D01*
X187550D01*
Y67405D01*
X187535D01*
Y67274D01*
X187521D01*
Y67186D01*
X186950D01*
Y67202D01*
X186964D01*
Y67304D01*
X186979D01*
Y67391D01*
X186309D01*
Y67303D01*
X186294D01*
Y67186D01*
X186280D01*
Y67069D01*
X186265D01*
Y66953D01*
X186251D01*
Y66850D01*
X186236D01*
Y66734D01*
X186221D01*
Y66617D01*
X186207D01*
Y66500D01*
X186192D01*
Y66383D01*
X186178D01*
Y66297D01*
X186848D01*
Y66443D01*
X186862D01*
Y66604D01*
X186877D01*
Y66631D01*
X186862D01*
Y66661D01*
X186848D01*
Y66675D01*
X186833D01*
Y66704D01*
X186818D01*
Y66719D01*
X186804D01*
Y66748D01*
X186789D01*
Y66777D01*
X186775D01*
Y66792D01*
X186760D01*
Y66821D01*
X186745D01*
Y66850D01*
X186731D01*
Y66865D01*
X186716D01*
Y66894D01*
X186702D01*
Y66910D01*
X187462D01*
Y66865D01*
X187448D01*
Y66748D01*
X187433D01*
Y66631D01*
X187419D01*
Y66515D01*
X187404D01*
Y66398D01*
X187389D01*
Y66281D01*
X187375D01*
Y66164D01*
X187360D01*
Y66047D01*
X187346D01*
Y66018D01*
X185694D01*
Y66033D01*
X185680D01*
Y66047D01*
X185650D01*
Y66062D01*
X185636D01*
Y66077D01*
X185621D01*
Y66106D01*
X185607D01*
Y66239D01*
X185621D01*
Y66341D01*
X185636D01*
Y66458D01*
X185650D01*
Y66560D01*
X185665D01*
Y66677D01*
X185680D01*
Y66779D01*
X185694D01*
Y66896D01*
X185709D01*
Y66998D01*
X185723D01*
Y67100D01*
X185738D01*
Y67217D01*
X185753D01*
Y67319D01*
X185767D01*
Y67436D01*
X185782D01*
Y67538D01*
X185796D01*
Y67655D01*
X185811D01*
Y67669D01*
G37*
G36*
G01X189417D02*
X189901D01*
Y67653D01*
X189886D01*
Y67537D01*
X189871D01*
Y67434D01*
X189857D01*
Y67332D01*
X189842D01*
Y67215D01*
X189828D01*
Y67113D01*
X189813D01*
Y67011D01*
X189798D01*
Y66894D01*
X189784D01*
Y66792D01*
X189769D01*
Y66690D01*
X189755D01*
Y66573D01*
X189740D01*
Y66471D01*
X189725D01*
Y66354D01*
X189711D01*
Y66252D01*
X189696D01*
Y66150D01*
X189682D01*
Y66033D01*
X189667D01*
Y66018D01*
X189096D01*
Y66047D01*
X189081D01*
Y66077D01*
X189067D01*
Y66106D01*
X189052D01*
Y66120D01*
X189038D01*
Y66150D01*
X189023D01*
Y66179D01*
X189008D01*
Y66208D01*
X188994D01*
Y66237D01*
X188979D01*
Y66252D01*
X188965D01*
Y66281D01*
X188950D01*
Y66310D01*
X188935D01*
Y66339D01*
X188921D01*
Y66369D01*
X188906D01*
Y66383D01*
X188892D01*
Y66412D01*
X188877D01*
Y66442D01*
X188862D01*
Y66471D01*
X188848D01*
Y66500D01*
X188833D01*
Y66515D01*
X188819D01*
Y66544D01*
X188804D01*
Y66573D01*
X188789D01*
Y66602D01*
X188775D01*
Y66631D01*
X188760D01*
Y66646D01*
X188746D01*
Y66675D01*
X188731D01*
Y66704D01*
X188716D01*
Y66734D01*
X188702D01*
Y66763D01*
X188687D01*
Y66777D01*
X188673D01*
Y66807D01*
X188658D01*
Y66836D01*
X188643D01*
Y66865D01*
X188629D01*
Y66894D01*
X188614D01*
Y66909D01*
X188600D01*
Y66938D01*
X188585D01*
Y66967D01*
X188570D01*
Y66996D01*
X188556D01*
Y67026D01*
X188543D01*
Y66923D01*
X188528D01*
Y66821D01*
X188514D01*
Y66704D01*
X188499D01*
Y66602D01*
X188484D01*
Y66500D01*
X188470D01*
Y66398D01*
X188455D01*
Y66281D01*
X188441D01*
Y66179D01*
X188426D01*
Y66077D01*
X188411D01*
Y66018D01*
X187899D01*
Y66034D01*
X187913D01*
Y66136D01*
X187928D01*
Y66239D01*
X187943D01*
Y66341D01*
X187957D01*
Y66443D01*
X187972D01*
Y66545D01*
X187986D01*
Y66633D01*
X188001D01*
Y66735D01*
X188016D01*
Y66837D01*
X188030D01*
Y66939D01*
X188045D01*
Y67042D01*
X188059D01*
Y67144D01*
X188074D01*
Y67246D01*
X188089D01*
Y67334D01*
X188103D01*
Y67436D01*
X188118D01*
Y67538D01*
X188132D01*
Y67551D01*
X188118D01*
Y67566D01*
X188103D01*
Y67580D01*
X188089D01*
Y67595D01*
X188074D01*
Y67610D01*
X188059D01*
Y67624D01*
X188045D01*
Y67639D01*
X188030D01*
Y67653D01*
X188016D01*
Y67669D01*
X188689D01*
Y67655D01*
X188703D01*
Y67626D01*
X188718D01*
Y67596D01*
X188733D01*
Y67582D01*
X188747D01*
Y67553D01*
X188762D01*
Y67523D01*
X188776D01*
Y67494D01*
X188791D01*
Y67480D01*
X188806D01*
Y67450D01*
X188820D01*
Y67421D01*
X188835D01*
Y67392D01*
X188849D01*
Y67363D01*
X188864D01*
Y67348D01*
X188879D01*
Y67319D01*
X188893D01*
Y67290D01*
X188908D01*
Y67261D01*
X188922D01*
Y67246D01*
X188937D01*
Y67217D01*
X188952D01*
Y67188D01*
X188966D01*
Y67158D01*
X188981D01*
Y67144D01*
X188995D01*
Y67115D01*
X189010D01*
Y67085D01*
X189025D01*
Y67056D01*
X189039D01*
Y67042D01*
X189054D01*
Y67012D01*
X189068D01*
Y66983D01*
X189083D01*
Y66954D01*
X189098D01*
Y66925D01*
X189112D01*
Y66910D01*
X189127D01*
Y66881D01*
X189141D01*
Y66852D01*
X189156D01*
Y66823D01*
X189171D01*
Y66808D01*
X189185D01*
Y66779D01*
X189200D01*
Y66750D01*
X189214D01*
Y66720D01*
X189229D01*
Y66706D01*
X189244D01*
Y66677D01*
X189258D01*
Y66647D01*
X189271D01*
Y66662D01*
X189286D01*
Y66764D01*
X189300D01*
Y66866D01*
X189315D01*
Y66983D01*
X189330D01*
Y67085D01*
X189344D01*
Y67188D01*
X189359D01*
Y67304D01*
X189373D01*
Y67407D01*
X189388D01*
Y67523D01*
X189403D01*
Y67626D01*
X189417D01*
Y67669D01*
G37*
G36*
G01X187157Y97981D02*
X188189D01*
Y97815D01*
X188166D01*
Y97651D01*
X188142D01*
Y97487D01*
X188119D01*
Y97323D01*
X188096D01*
Y97160D01*
X188072D01*
Y96996D01*
X188049D01*
Y96832D01*
X188025D01*
Y96668D01*
X188002D01*
Y96504D01*
X187979D01*
Y96341D01*
X187955D01*
Y96177D01*
X187932D01*
Y95990D01*
X187908D01*
Y95826D01*
X187885D01*
Y95805D01*
X189640D01*
Y95662D01*
X189617D01*
Y95405D01*
X189593D01*
Y95358D01*
X187134D01*
Y95381D01*
X187110D01*
Y95405D01*
X187064D01*
Y95451D01*
X187040D01*
Y95498D01*
X187017D01*
Y95545D01*
X186993D01*
Y95781D01*
X187017D01*
Y95968D01*
X187040D01*
Y96156D01*
X187064D01*
Y96343D01*
X187087D01*
Y96530D01*
X187110D01*
Y96717D01*
X187134D01*
Y96904D01*
X187157D01*
Y97092D01*
X187181D01*
Y97279D01*
X187204D01*
Y97466D01*
X187227D01*
Y97653D01*
X187251D01*
Y97838D01*
X187227D01*
Y97885D01*
X187204D01*
Y97908D01*
X187181D01*
Y97932D01*
X187157D01*
Y97981D01*
G37*
G36*
G01X187163Y93876D02*
X188292D01*
Y93694D01*
X188266D01*
Y93514D01*
X188240D01*
Y93335D01*
X188215D01*
Y93156D01*
X188189D01*
Y92977D01*
X188164D01*
Y92798D01*
X188138D01*
Y92618D01*
X188112D01*
Y92439D01*
X188087D01*
Y92260D01*
X188061D01*
Y92081D01*
X188036D01*
Y91902D01*
X188010D01*
Y91697D01*
X187984D01*
Y91518D01*
X187959D01*
Y91495D01*
X189879D01*
Y91338D01*
X189853D01*
Y91057D01*
X189828D01*
Y91006D01*
X187137D01*
Y91031D01*
X187112D01*
Y91057D01*
X187060D01*
Y91108D01*
X187035D01*
Y91159D01*
X187009D01*
Y91210D01*
X186984D01*
Y91469D01*
X187009D01*
Y91674D01*
X187035D01*
Y91879D01*
X187060D01*
Y92084D01*
X187086D01*
Y92288D01*
X187112D01*
Y92493D01*
X187137D01*
Y92698D01*
X187163D01*
Y92903D01*
X187188D01*
Y93108D01*
X187214D01*
Y93312D01*
X187240D01*
Y93517D01*
X187265D01*
Y93719D01*
X187240D01*
Y93770D01*
X187214D01*
Y93796D01*
X187188D01*
Y93822D01*
X187163D01*
Y93876D01*
G37*
G36*
G01X190194Y127659D02*
X190881D01*
Y127613D01*
X190859D01*
Y127458D01*
X190837D01*
Y127304D01*
X190815D01*
Y127149D01*
X190793D01*
Y126994D01*
X190771D01*
Y126908D01*
X191522D01*
Y126795D01*
X191500D01*
Y126663D01*
X191478D01*
Y126508D01*
X191456D01*
Y126486D01*
X190704D01*
Y126353D01*
X190682D01*
Y126199D01*
X190660D01*
Y126044D01*
X190638D01*
Y125889D01*
X190616D01*
Y125712D01*
X190594D01*
Y125646D01*
X189929D01*
Y125781D01*
X189951D01*
Y125936D01*
X189973D01*
Y126090D01*
X189995D01*
Y126245D01*
X190017D01*
Y126400D01*
X190039D01*
Y126486D01*
X189288D01*
Y126599D01*
X189310D01*
Y126775D01*
X189332D01*
Y126908D01*
X190106D01*
Y127063D01*
X190128D01*
Y127217D01*
X190150D01*
Y127372D01*
X190172D01*
Y127527D01*
X190194D01*
Y127659D01*
G37*
G36*
G01X186039Y128123D02*
X188782D01*
Y128011D01*
X188760D01*
Y127834D01*
X188738D01*
Y127679D01*
X188715D01*
Y127502D01*
X188693D01*
Y127348D01*
X188671D01*
Y127171D01*
X188649D01*
Y127016D01*
X188627D01*
Y126839D01*
X188605D01*
Y126751D01*
X188583D01*
Y126707D01*
X188561D01*
Y126685D01*
X188539D01*
Y126663D01*
X188517D01*
Y126641D01*
X188472D01*
Y126618D01*
X188450D01*
Y126596D01*
X188384D01*
Y126574D01*
X187721D01*
Y126554D01*
X187743D01*
Y126532D01*
X187765D01*
Y126510D01*
X187787D01*
Y126488D01*
X187809D01*
Y126466D01*
X187831D01*
Y126444D01*
X187854D01*
Y126422D01*
X187876D01*
Y126400D01*
X187898D01*
Y126378D01*
X187920D01*
Y126355D01*
X187942D01*
Y126333D01*
X187964D01*
Y126311D01*
X187986D01*
Y126289D01*
X188008D01*
Y126267D01*
X188030D01*
Y126245D01*
X188052D01*
Y126223D01*
X188075D01*
Y126201D01*
X188097D01*
Y126179D01*
X188119D01*
Y126157D01*
X188141D01*
Y126134D01*
X188163D01*
Y126112D01*
X188185D01*
Y126068D01*
X188207D01*
Y126046D01*
X188229D01*
Y126024D01*
X188251D01*
Y126002D01*
X188273D01*
Y125980D01*
X188296D01*
Y125958D01*
X188318D01*
Y125936D01*
X188340D01*
Y125913D01*
X188362D01*
Y125891D01*
X188384D01*
Y125869D01*
X188406D01*
Y125847D01*
X188428D01*
Y125825D01*
X188450D01*
Y125803D01*
X188472D01*
Y125781D01*
X188494D01*
Y125759D01*
X188517D01*
Y125737D01*
X188539D01*
Y125715D01*
X188561D01*
Y125692D01*
X188583D01*
Y125670D01*
X188605D01*
Y125646D01*
X187675D01*
Y125668D01*
X187652D01*
Y125690D01*
X187630D01*
Y125712D01*
X187608D01*
Y125734D01*
X187586D01*
Y125757D01*
X187564D01*
Y125779D01*
X187542D01*
Y125801D01*
X187520D01*
Y125823D01*
X187498D01*
Y125845D01*
X187476D01*
Y125867D01*
X187454D01*
Y125911D01*
X187431D01*
Y125933D01*
X187409D01*
Y125955D01*
X187387D01*
Y125978D01*
X187365D01*
Y126000D01*
X187343D01*
Y126022D01*
X187321D01*
Y126044D01*
X187299D01*
Y126066D01*
X187277D01*
Y126088D01*
X187255D01*
Y126110D01*
X187233D01*
Y126132D01*
X187210D01*
Y126176D01*
X187188D01*
Y126199D01*
X187166D01*
Y126221D01*
X187144D01*
Y126243D01*
X187122D01*
Y126265D01*
X187100D01*
Y126287D01*
X187078D01*
Y126309D01*
X187056D01*
Y126331D01*
X187034D01*
Y126353D01*
X187012D01*
Y126375D01*
X186989D01*
Y126420D01*
X186967D01*
Y126442D01*
X186945D01*
Y126464D01*
X186923D01*
Y126486D01*
X186901D01*
Y126508D01*
X186879D01*
Y126530D01*
X186857D01*
Y126552D01*
X186837D01*
Y126486D01*
X186815D01*
Y126331D01*
X186793D01*
Y126154D01*
X186771D01*
Y126000D01*
X186749D01*
Y125845D01*
X186726D01*
Y125668D01*
X186704D01*
Y125646D01*
X185862D01*
Y125759D01*
X185884D01*
Y125936D01*
X185907D01*
Y126112D01*
X185929D01*
Y126267D01*
X185951D01*
Y126444D01*
X185973D01*
Y126621D01*
X185995D01*
Y126797D01*
X186017D01*
Y126974D01*
X186039D01*
Y127151D01*
X186061D01*
Y127328D01*
X186083D01*
Y127483D01*
X186105D01*
Y127659D01*
X186128D01*
Y127836D01*
X186150D01*
Y127989D01*
X186128D01*
Y128011D01*
X186105D01*
Y128055D01*
X186083D01*
Y128077D01*
X186061D01*
Y128099D01*
X186039D01*
Y128123D01*
G37*
G36*
G01X186202Y122999D02*
X189180D01*
Y122877D01*
X189156D01*
Y122684D01*
X189132D01*
Y122516D01*
X189108D01*
Y122324D01*
X189084D01*
Y122156D01*
X189060D01*
Y121965D01*
X189036D01*
Y121796D01*
X189012D01*
Y121604D01*
X188988D01*
Y121508D01*
X188964D01*
Y121460D01*
X188940D01*
Y121437D01*
X188916D01*
Y121413D01*
X188892D01*
Y121389D01*
X188844D01*
Y121365D01*
X188820D01*
Y121340D01*
X188748D01*
Y121316D01*
X188028D01*
Y121295D01*
X188052D01*
Y121271D01*
X188076D01*
Y121247D01*
X188100D01*
Y121223D01*
X188124D01*
Y121199D01*
X188148D01*
Y121175D01*
X188172D01*
Y121151D01*
X188196D01*
Y121127D01*
X188220D01*
Y121103D01*
X188244D01*
Y121079D01*
X188268D01*
Y121055D01*
X188292D01*
Y121031D01*
X188316D01*
Y121007D01*
X188340D01*
Y120983D01*
X188364D01*
Y120959D01*
X188388D01*
Y120935D01*
X188412D01*
Y120911D01*
X188436D01*
Y120887D01*
X188460D01*
Y120863D01*
X188484D01*
Y120839D01*
X188508D01*
Y120815D01*
X188532D01*
Y120767D01*
X188556D01*
Y120743D01*
X188580D01*
Y120719D01*
X188604D01*
Y120695D01*
X188628D01*
Y120671D01*
X188652D01*
Y120647D01*
X188676D01*
Y120623D01*
X188700D01*
Y120599D01*
X188724D01*
Y120575D01*
X188748D01*
Y120551D01*
X188772D01*
Y120527D01*
X188796D01*
Y120503D01*
X188820D01*
Y120479D01*
X188844D01*
Y120455D01*
X188868D01*
Y120431D01*
X188892D01*
Y120407D01*
X188916D01*
Y120383D01*
X188940D01*
Y120359D01*
X188964D01*
Y120335D01*
X188988D01*
Y120308D01*
X187978D01*
Y120332D01*
X187954D01*
Y120356D01*
X187930D01*
Y120380D01*
X187906D01*
Y120404D01*
X187882D01*
Y120428D01*
X187858D01*
Y120452D01*
X187834D01*
Y120477D01*
X187810D01*
Y120501D01*
X187786D01*
Y120524D01*
X187762D01*
Y120548D01*
X187738D01*
Y120596D01*
X187714D01*
Y120620D01*
X187690D01*
Y120644D01*
X187666D01*
Y120668D01*
X187642D01*
Y120692D01*
X187618D01*
Y120716D01*
X187594D01*
Y120740D01*
X187570D01*
Y120765D01*
X187546D01*
Y120789D01*
X187521D01*
Y120813D01*
X187498D01*
Y120837D01*
X187474D01*
Y120884D01*
X187450D01*
Y120908D01*
X187426D01*
Y120932D01*
X187402D01*
Y120956D01*
X187378D01*
Y120980D01*
X187354D01*
Y121004D01*
X187330D01*
Y121028D01*
X187306D01*
Y121053D01*
X187282D01*
Y121077D01*
X187258D01*
Y121101D01*
X187234D01*
Y121148D01*
X187210D01*
Y121172D01*
X187186D01*
Y121196D01*
X187162D01*
Y121220D01*
X187138D01*
Y121244D01*
X187114D01*
Y121268D01*
X187090D01*
Y121292D01*
X187068D01*
Y121220D01*
X187044D01*
Y121053D01*
X187020D01*
Y120861D01*
X186996D01*
Y120692D01*
X186972D01*
Y120524D01*
X186948D01*
Y120332D01*
X186924D01*
Y120308D01*
X186010D01*
Y120431D01*
X186034D01*
Y120623D01*
X186058D01*
Y120815D01*
X186082D01*
Y120983D01*
X186106D01*
Y121175D01*
X186130D01*
Y121367D01*
X186154D01*
Y121559D01*
X186178D01*
Y121751D01*
X186202D01*
Y121943D01*
X186226D01*
Y122135D01*
X186250D01*
Y122303D01*
X186274D01*
Y122495D01*
X186298D01*
Y122687D01*
X186322D01*
Y122853D01*
X186298D01*
Y122877D01*
X186274D01*
Y122924D01*
X186250D01*
Y122948D01*
X186226D01*
Y122972D01*
X186202D01*
Y122999D01*
G37*
G36*
G01X190029Y64376D02*
X191885D01*
Y64258D01*
X191870D01*
Y64155D01*
X191856D01*
Y64053D01*
X191841D01*
Y63936D01*
X191827D01*
Y63834D01*
X191812D01*
Y63732D01*
X191797D01*
Y63615D01*
X191783D01*
Y63513D01*
X191768D01*
Y63411D01*
X191754D01*
Y63294D01*
X191739D01*
Y63192D01*
X191724D01*
Y63075D01*
X191710D01*
Y62973D01*
X191695D01*
Y62871D01*
X191681D01*
Y62841D01*
X191666D01*
Y62827D01*
X191651D01*
Y62798D01*
X191637D01*
Y62783D01*
X191608D01*
Y62768D01*
X191593D01*
Y62754D01*
X191564D01*
Y62739D01*
X189898D01*
Y62755D01*
X189913D01*
Y62872D01*
X189927D01*
Y62989D01*
X189942D01*
Y63106D01*
X189956D01*
Y63222D01*
X189971D01*
Y63339D01*
X189986D01*
Y63456D01*
X190000D01*
Y63573D01*
X190015D01*
Y63690D01*
X190029D01*
Y63806D01*
X190044D01*
Y63909D01*
X190059D01*
Y64025D01*
X190073D01*
Y64142D01*
X190088D01*
Y64259D01*
X190102D01*
Y64272D01*
X190088D01*
Y64301D01*
X190073D01*
Y64316D01*
X190059D01*
Y64331D01*
X190044D01*
Y64345D01*
X190029D01*
Y64376D01*
G37*
G36*
G01X190598Y74416D02*
X192403D01*
Y74385D01*
X192388D01*
Y74236D01*
X192373D01*
Y74146D01*
X191107D01*
Y74027D01*
X191092D01*
Y73908D01*
X191077D01*
Y73804D01*
X191062D01*
Y73684D01*
X191047D01*
Y73565D01*
X191032D01*
Y73446D01*
X191017D01*
Y73342D01*
X191002D01*
Y73222D01*
X190987D01*
Y73103D01*
X190972D01*
Y73030D01*
X192103D01*
Y73045D01*
X192118D01*
Y73060D01*
X192133D01*
Y73075D01*
X192148D01*
Y73090D01*
X192178D01*
Y73105D01*
X192193D01*
Y73120D01*
X192224D01*
Y73059D01*
X192209D01*
Y72954D01*
X192194D01*
Y72850D01*
X192179D01*
Y72746D01*
X190494D01*
Y72761D01*
X190464D01*
Y72776D01*
X190435D01*
Y72790D01*
X190420D01*
Y72820D01*
X190405D01*
Y72850D01*
X190390D01*
Y72941D01*
X190405D01*
Y73060D01*
X190420D01*
Y73164D01*
X190435D01*
Y73284D01*
X190449D01*
Y73388D01*
X190464D01*
Y73507D01*
X190479D01*
Y73611D01*
X190494D01*
Y73731D01*
X190509D01*
Y73835D01*
X190524D01*
Y73954D01*
X190539D01*
Y74058D01*
X190554D01*
Y74163D01*
X190569D01*
Y74282D01*
X190584D01*
Y74386D01*
X190598D01*
Y74416D01*
G37*
G36*
G01X190509Y71058D02*
X192313D01*
Y71026D01*
X192298D01*
Y70878D01*
X192283D01*
Y70788D01*
X191017D01*
Y70669D01*
X191002D01*
Y70550D01*
X190987D01*
Y70445D01*
X190972D01*
Y70326D01*
X190957D01*
Y70207D01*
X190942D01*
Y70088D01*
X190927D01*
Y69984D01*
X190912D01*
Y69864D01*
X190898D01*
Y69745D01*
X190883D01*
Y69672D01*
X192014D01*
Y69687D01*
X192028D01*
Y69702D01*
X192043D01*
Y69717D01*
X192058D01*
Y69732D01*
X192088D01*
Y69747D01*
X192103D01*
Y69762D01*
X192134D01*
Y69700D01*
X192119D01*
Y69596D01*
X192104D01*
Y69492D01*
X192090D01*
Y69388D01*
X190404D01*
Y69402D01*
X190374D01*
Y69417D01*
X190345D01*
Y69432D01*
X190330D01*
Y69462D01*
X190315D01*
Y69492D01*
X190300D01*
Y69583D01*
X190315D01*
Y69702D01*
X190330D01*
Y69806D01*
X190345D01*
Y69925D01*
X190360D01*
Y70030D01*
X190374D01*
Y70149D01*
X190389D01*
Y70253D01*
X190404D01*
Y70372D01*
X190419D01*
Y70477D01*
X190434D01*
Y70596D01*
X190449D01*
Y70700D01*
X190464D01*
Y70804D01*
X190479D01*
Y70924D01*
X190494D01*
Y71028D01*
X190509D01*
Y71058D01*
G37*
G36*
G01X190352Y67655D02*
X192207D01*
Y67537D01*
X192193D01*
Y67434D01*
X192178D01*
Y67332D01*
X192164D01*
Y67215D01*
X192149D01*
Y67113D01*
X192134D01*
Y67011D01*
X192120D01*
Y66894D01*
X192105D01*
Y66792D01*
X192091D01*
Y66690D01*
X192076D01*
Y66573D01*
X192061D01*
Y66471D01*
X192047D01*
Y66354D01*
X192032D01*
Y66252D01*
X192018D01*
Y66150D01*
X192003D01*
Y66120D01*
X191988D01*
Y66106D01*
X191974D01*
Y66077D01*
X191959D01*
Y66062D01*
X191930D01*
Y66047D01*
X191915D01*
Y66033D01*
X191886D01*
Y66018D01*
X190220D01*
Y66034D01*
X190235D01*
Y66151D01*
X190249D01*
Y66268D01*
X190264D01*
Y66385D01*
X190279D01*
Y66501D01*
X190293D01*
Y66618D01*
X190308D01*
Y66735D01*
X190322D01*
Y66852D01*
X190337D01*
Y66969D01*
X190352D01*
Y67085D01*
X190366D01*
Y67188D01*
X190381D01*
Y67304D01*
X190395D01*
Y67421D01*
X190410D01*
Y67538D01*
X190425D01*
Y67551D01*
X190410D01*
Y67580D01*
X190395D01*
Y67595D01*
X190381D01*
Y67610D01*
X190366D01*
Y67624D01*
X190352D01*
Y67655D01*
G37*
G36*
G01X191042Y97489D02*
X191769D01*
Y97417D01*
X191746D01*
Y97253D01*
X191723D01*
Y97089D01*
X191699D01*
Y96926D01*
X191676D01*
Y96762D01*
X191652D01*
Y96694D01*
X192448D01*
Y96551D01*
X192425D01*
Y96411D01*
X192401D01*
Y96247D01*
X191582D01*
Y96083D01*
X191559D01*
Y95919D01*
X191535D01*
Y95756D01*
X191512D01*
Y95592D01*
X191489D01*
Y95428D01*
X191465D01*
Y95358D01*
X190761D01*
Y95477D01*
X190784D01*
Y95641D01*
X190808D01*
Y95805D01*
X190831D01*
Y95968D01*
X190854D01*
Y96156D01*
X190878D01*
Y96247D01*
X190082D01*
Y96343D01*
X190106D01*
Y96530D01*
X190129D01*
Y96694D01*
X190948D01*
Y96811D01*
X190971D01*
Y96998D01*
X190995D01*
Y97162D01*
X191018D01*
Y97326D01*
X191042D01*
Y97489D01*
G37*
G36*
G01X190414Y92442D02*
X192183D01*
Y92388D01*
X192157D01*
Y92235D01*
X192132D01*
Y92081D01*
X192106D01*
Y91927D01*
X190337D01*
Y91956D01*
X190363D01*
Y92135D01*
X190388D01*
Y92288D01*
X190414D01*
Y92442D01*
G37*
G36*
G01X189778Y121655D02*
X191436D01*
Y121628D01*
X191412D01*
Y121484D01*
X191388D01*
Y121340D01*
X191364D01*
Y121196D01*
X191340D01*
Y121172D01*
X189706D01*
Y121223D01*
X189730D01*
Y121391D01*
X189754D01*
Y121535D01*
X189778D01*
Y121655D01*
G37*
%LPC*%
G75*
G36*
G01X40825Y142855D02*
Y142974D01*
X42492D01*
Y142819D01*
X42452D01*
Y142580D01*
X42413D01*
Y142342D01*
X42373D01*
Y142103D01*
X42333D01*
Y141824D01*
X42293D01*
Y141586D01*
X42253D01*
Y141506D01*
X40665D01*
Y141741D01*
X40705D01*
Y142099D01*
X40745D01*
Y142497D01*
X40785D01*
Y142855D01*
X40825D01*
G37*
G36*
G01X28566Y142935D02*
Y142974D01*
X30393D01*
Y142859D01*
X30353D01*
Y142620D01*
X30313D01*
Y142382D01*
X30274D01*
Y142103D01*
X30234D01*
Y141864D01*
X30194D01*
Y141586D01*
X30154D01*
Y141347D01*
X30114D01*
Y141068D01*
X30075D01*
Y140829D01*
X30035D01*
Y140551D01*
X29995D01*
Y140312D01*
X29955D01*
Y140033D01*
X29915D01*
Y139994D01*
X28089D01*
Y140029D01*
X28128D01*
Y140308D01*
X28168D01*
Y140547D01*
X28208D01*
Y140825D01*
X28248D01*
Y141104D01*
X28288D01*
Y141343D01*
X28327D01*
Y141621D01*
X28367D01*
Y141860D01*
X28407D01*
Y142139D01*
X28447D01*
Y142417D01*
X28487D01*
Y142656D01*
X28526D01*
Y142935D01*
X28566D01*
G37*
G36*
G01X29877Y136939D02*
Y136987D01*
X30487D01*
Y136973D01*
X30471D01*
Y136860D01*
X30455D01*
Y136747D01*
X30439D01*
Y136635D01*
X30423D01*
Y136522D01*
X30407D01*
Y136393D01*
X30391D01*
Y136281D01*
X30375D01*
Y136168D01*
X30359D01*
Y136055D01*
X30343D01*
Y135942D01*
X30326D01*
Y135830D01*
X30310D01*
Y135765D01*
X29700D01*
Y135812D01*
X29716D01*
Y135925D01*
X29732D01*
Y136037D01*
X29748D01*
Y136150D01*
X29764D01*
Y136263D01*
X29781D01*
Y136376D01*
X29797D01*
Y136488D01*
X29813D01*
Y136601D01*
X29829D01*
Y136714D01*
X29845D01*
Y136826D01*
X29861D01*
Y136939D01*
X29877D01*
G37*
G36*
G01X38523Y136971D02*
Y136987D01*
X39117D01*
Y136892D01*
X39101D01*
Y136780D01*
X39085D01*
Y136667D01*
X39069D01*
Y136554D01*
X39053D01*
Y136425D01*
X39036D01*
Y136313D01*
X39020D01*
Y136200D01*
X39004D01*
Y136087D01*
X38988D01*
Y135975D01*
X38972D01*
Y135862D01*
X38956D01*
Y135765D01*
X38346D01*
Y135844D01*
X38362D01*
Y135957D01*
X38378D01*
Y136070D01*
X38394D01*
Y136182D01*
X38410D01*
Y136295D01*
X38426D01*
Y136408D01*
X38442D01*
Y136520D01*
X38458D01*
Y136633D01*
X38475D01*
Y136746D01*
X38491D01*
Y136859D01*
X38507D01*
Y136971D01*
X38523D01*
G37*
G36*
G01X51478Y125464D02*
X51444D01*
Y125625D01*
X51513D01*
Y125637D01*
X51595D01*
Y125648D01*
X51687D01*
Y125660D01*
X51768D01*
Y125672D01*
X51861D01*
Y125683D01*
X51953D01*
Y125255D01*
X51931D01*
Y125267D01*
X51896D01*
Y125278D01*
X51873D01*
Y125290D01*
X51850D01*
Y125302D01*
X51815D01*
Y125313D01*
X51792D01*
Y125325D01*
X51768D01*
Y125336D01*
X51745D01*
Y125348D01*
X51711D01*
Y125360D01*
X51687D01*
Y125371D01*
X51664D01*
Y125383D01*
X51629D01*
Y125394D01*
X51606D01*
Y125406D01*
X51583D01*
Y125418D01*
X51560D01*
Y125429D01*
X51525D01*
Y125441D01*
X51502D01*
Y125452D01*
X51478D01*
Y125464D01*
G37*
G36*
G01X57676Y127570D02*
X57573D01*
Y128264D01*
X57601D01*
Y128250D01*
X57690D01*
Y128235D01*
X57793D01*
Y128220D01*
X57882D01*
Y128205D01*
X57971D01*
Y128190D01*
X58074D01*
Y128176D01*
X58163D01*
Y128161D01*
X58267D01*
Y128146D01*
X58356D01*
Y128131D01*
X58459D01*
Y128116D01*
X58548D01*
Y128102D01*
X58637D01*
Y128087D01*
X58681D01*
Y127408D01*
X58638D01*
Y127422D01*
X58549D01*
Y127437D01*
X58446D01*
Y127452D01*
X58357D01*
Y127467D01*
X58253D01*
Y127482D01*
X58165D01*
Y127496D01*
X58061D01*
Y127511D01*
X57957D01*
Y127526D01*
X57869D01*
Y127541D01*
X57765D01*
Y127556D01*
X57676D01*
Y127570D01*
G37*
G36*
G01X55323Y128932D02*
X55220D01*
Y129882D01*
X55321D01*
Y129861D01*
X55487D01*
Y129840D01*
X55652D01*
Y129820D01*
X55818D01*
Y129799D01*
X55859D01*
Y128849D01*
X55820D01*
Y128869D01*
X55654D01*
Y128890D01*
X55489D01*
Y128911D01*
X55323D01*
Y128932D01*
G37*
G36*
G01X54392Y129056D02*
X54309D01*
Y130006D01*
X54348D01*
Y129985D01*
X54493D01*
Y129964D01*
X54617D01*
Y129944D01*
X54762D01*
Y129923D01*
X54824D01*
Y129014D01*
X54640D01*
Y129035D01*
X54392D01*
Y129056D01*
G37*
G36*
G01X46042Y136166D02*
Y136247D01*
X46652D01*
Y136168D01*
X46636D01*
Y136055D01*
X46620D01*
Y135942D01*
X46604D01*
Y135846D01*
X46587D01*
Y135765D01*
X45977D01*
Y135844D01*
X45993D01*
Y135941D01*
X46009D01*
Y136054D01*
X46026D01*
Y136166D01*
X46042D01*
G37*
G36*
G01X46154Y136971D02*
Y136987D01*
X46765D01*
Y136973D01*
X46748D01*
Y136860D01*
X46732D01*
Y136747D01*
X46716D01*
Y136635D01*
X46700D01*
Y136554D01*
X46090D01*
Y136633D01*
X46106D01*
Y136746D01*
X46122D01*
Y136859D01*
X46138D01*
Y136971D01*
X46154D01*
G37*
G36*
G01X51502Y130684D02*
X51444D01*
Y131216D01*
X51512D01*
Y131205D01*
X51582D01*
Y131193D01*
X51663D01*
Y131182D01*
X51732D01*
Y131170D01*
X51814D01*
Y131158D01*
X51883D01*
Y131147D01*
X51964D01*
Y131135D01*
X52034D01*
Y131124D01*
X52115D01*
Y131112D01*
X52185D01*
Y131100D01*
X52254D01*
Y131089D01*
X52313D01*
Y130556D01*
X52256D01*
Y130568D01*
X52186D01*
Y130580D01*
X52105D01*
Y130591D01*
X52035D01*
Y130603D01*
X51954D01*
Y130614D01*
X51873D01*
Y130626D01*
X51803D01*
Y130638D01*
X51722D01*
Y130649D01*
X51652D01*
Y130661D01*
X51571D01*
Y130672D01*
X51502D01*
Y130684D01*
G37*
G36*
G01X57676Y129924D02*
X57573D01*
Y130618D01*
X57586D01*
Y130603D01*
X57690D01*
Y130588D01*
X57778D01*
Y130573D01*
X57882D01*
Y130558D01*
X57971D01*
Y130544D01*
X58074D01*
Y130529D01*
X58163D01*
Y130514D01*
X58267D01*
Y130499D01*
X58356D01*
Y130484D01*
X58459D01*
Y130470D01*
X58548D01*
Y130455D01*
X58637D01*
Y130440D01*
X58681D01*
Y129761D01*
X58638D01*
Y129776D01*
X58549D01*
Y129790D01*
X58446D01*
Y129805D01*
X58357D01*
Y129820D01*
X58253D01*
Y129835D01*
X58165D01*
Y129850D01*
X58061D01*
Y129864D01*
X57957D01*
Y129879D01*
X57869D01*
Y129894D01*
X57765D01*
Y129909D01*
X57676D01*
Y129924D01*
G37*
G36*
G01X186970Y127657D02*
Y127723D01*
X187896D01*
Y127615D01*
X187873D01*
Y127416D01*
X187851D01*
Y127239D01*
X187829D01*
Y127041D01*
X187807D01*
Y126996D01*
X186881D01*
Y127105D01*
X186903D01*
Y127304D01*
X186925D01*
Y127480D01*
X186947D01*
Y127657D01*
X186970D01*
G37*
G36*
G01X187212Y122492D02*
Y122565D01*
X188218D01*
Y122447D01*
X188194D01*
Y122231D01*
X188170D01*
Y122039D01*
X188146D01*
Y121823D01*
X188122D01*
Y121775D01*
X187116D01*
Y121892D01*
X187140D01*
Y122108D01*
X187164D01*
Y122301D01*
X187188D01*
Y122492D01*
X187212D01*
G37*
G36*
G01X190659Y64053D02*
Y64112D01*
X191329D01*
Y64040D01*
X191314D01*
Y63938D01*
X191300D01*
Y63850D01*
X191285D01*
Y63748D01*
X191270D01*
Y63660D01*
X191256D01*
Y63558D01*
X191241D01*
Y63471D01*
X191227D01*
Y63383D01*
X191212D01*
Y63281D01*
X191197D01*
Y63193D01*
X191183D01*
Y63091D01*
X191168D01*
Y63018D01*
X190498D01*
Y63090D01*
X190513D01*
Y63192D01*
X190527D01*
Y63279D01*
X190542D01*
Y63382D01*
X190556D01*
Y63484D01*
X190571D01*
Y63571D01*
X190586D01*
Y63674D01*
X190600D01*
Y63761D01*
X190615D01*
Y63863D01*
X190629D01*
Y63951D01*
X190644D01*
Y64053D01*
X190659D01*
G37*
G36*
G01X190981Y67332D02*
Y67391D01*
X191651D01*
Y67319D01*
X191636D01*
Y67217D01*
X191622D01*
Y67129D01*
X191607D01*
Y67027D01*
X191593D01*
Y66939D01*
X191578D01*
Y66837D01*
X191563D01*
Y66750D01*
X191549D01*
Y66662D01*
X191534D01*
Y66560D01*
X191520D01*
Y66472D01*
X191505D01*
Y66370D01*
X191490D01*
Y66297D01*
X190820D01*
Y66369D01*
X190835D01*
Y66471D01*
X190850D01*
Y66558D01*
X190864D01*
Y66661D01*
X190879D01*
Y66763D01*
X190893D01*
Y66850D01*
X190908D01*
Y66953D01*
X190923D01*
Y67040D01*
X190937D01*
Y67142D01*
X190952D01*
Y67230D01*
X190966D01*
Y67332D01*
X190981D01*
G37*
%LPD*%
G75*
G36*
G01X27034Y64822D02*
X25774D01*
Y66022D01*
X27034D01*
Y64822D01*
G37*
G36*
G01X33674D02*
X32415D01*
Y66022D01*
X33674D01*
Y64822D01*
G37*
G36*
G01X166670Y54953D02*
X165890D01*
Y58063D01*
X166670D01*
Y54953D01*
G37*
G36*
G01X168880Y56123D02*
X163680D01*
Y56903D01*
X168880D01*
Y56123D01*
G37*
G36*
G01X166670Y76253D02*
X165890D01*
Y79373D01*
X166670D01*
Y76253D01*
G37*
G36*
G01X154530Y126873D02*
X155310D01*
Y123753D01*
X154530D01*
Y126873D01*
G37*
G36*
G01Y148173D02*
X155310D01*
Y145063D01*
X154530D01*
Y148173D01*
G37*
G36*
G01X152320Y147003D02*
X157520D01*
Y146223D01*
X152320D01*
Y147003D01*
G37*
G36*
G01X176877Y67617D02*
X175617D01*
Y68817D01*
X176877D01*
Y67617D01*
G37*
G36*
G01X183517D02*
X182257D01*
Y68817D01*
X183517D01*
Y67617D01*
G37*
G36*
G01X176956Y106082D02*
X175696D01*
Y107282D01*
X176956D01*
Y106082D01*
G37*
G36*
G01X183596D02*
X182336D01*
Y107282D01*
X183596D01*
Y106082D01*
G37*
G36*
G01X182257Y138958D02*
X183517D01*
Y137758D01*
X182257D01*
Y138958D01*
G37*
G36*
G01X175617D02*
X176877D01*
Y137758D01*
X175617D01*
Y138958D01*
G37*
G54D10*
G01X43502Y15514D02*
Y12754D01*
X38782D01*
Y15514D01*
G01X43502Y20234D02*
Y22994D01*
X38782D01*
Y20234D01*
G01X34486Y45234D02*
X37246D01*
Y40514D01*
X34486D01*
G01X29766Y45234D02*
X27006D01*
Y40514D01*
X29766D01*
G01X22758Y57360D02*
Y60120D01*
X27478D01*
Y57360D01*
G01X22758Y52640D02*
Y49880D01*
X27478D01*
Y52640D01*
G01X28191Y57360D02*
Y60120D01*
X32911D01*
Y57360D01*
G01X28191Y52640D02*
Y49880D01*
X32911D01*
Y52640D01*
G01X36577Y49608D02*
X33817D01*
Y54328D01*
X36577D01*
G01X41297Y49608D02*
X44057D01*
Y54328D01*
X41297D01*
G01X41376Y59998D02*
X44136D01*
Y55278D01*
X41376D01*
G01X36656Y59998D02*
X33896D01*
Y55278D01*
X36656D01*
G01X40628Y65199D02*
Y62439D01*
X35908D01*
Y65199D01*
G01X46061D02*
Y62439D01*
X41341D01*
Y65199D01*
G01X40628Y69919D02*
Y72679D01*
X35908D01*
Y69919D01*
G01X46061D02*
Y72679D01*
X41341D01*
Y69919D01*
G01X35880Y73440D02*
Y78160D01*
X46120D01*
Y73440D01*
X35880D01*
G01X58664Y21695D02*
X55903D01*
Y26415D01*
X58664D01*
G01X54328Y15435D02*
Y12675D01*
X49609D01*
Y15435D01*
G01X54328Y20155D02*
Y22915D01*
X49609D01*
Y20155D01*
G01X48856Y15514D02*
Y12754D01*
X44136D01*
Y15514D01*
G01X48856Y20234D02*
Y22994D01*
X44136D01*
Y20234D01*
G01X48856Y23738D02*
X44136D01*
Y33978D01*
X48856D01*
Y23738D01*
G01X66258Y83585D02*
Y80825D01*
X61538D01*
Y83585D01*
G01X55628D02*
Y80825D01*
X50907D01*
Y83585D01*
G01X60942Y83585D02*
Y80825D01*
X56222D01*
Y83585D01*
G01X66258Y88305D02*
Y91065D01*
X61538D01*
Y88305D01*
G01X55628Y88305D02*
Y91065D01*
X50907D01*
Y88305D01*
G01X60942Y88305D02*
Y91065D01*
X56222D01*
Y88305D01*
G01X63384Y21695D02*
X66144D01*
Y26415D01*
X63384D01*
G01X74446D02*
X77207D01*
Y21695D01*
X74446D01*
G01X69727Y26415D02*
X66966D01*
Y21695D01*
X69727D01*
G01X83546Y21419D02*
X88266D01*
Y11179D01*
X83546D01*
Y21419D01*
G01X83029Y83585D02*
Y80825D01*
X78309D01*
Y83585D01*
G01X74525Y85628D02*
X77285D01*
Y80908D01*
X74525D01*
G01X69806Y85628D02*
X67045D01*
Y80908D01*
X69806D01*
G01X88423Y83546D02*
Y80785D01*
X83703D01*
Y83546D01*
G01X83029Y88305D02*
Y91065D01*
X78309D01*
Y88305D01*
G01X74643Y91021D02*
X77404D01*
Y86301D01*
X74643D01*
G01X69924Y91021D02*
X67163D01*
Y86301D01*
X69924D01*
G01X88423Y88266D02*
Y91026D01*
X83703D01*
Y88266D01*
G01X87420Y132960D02*
Y128240D01*
X77180D01*
Y132960D01*
X87420D01*
G01X76420Y132860D02*
Y128140D01*
X66180D01*
Y132860D01*
X76420D01*
G01X96032Y9542D02*
X90032D01*
G01X96032Y9742D02*
X90032D01*
G01X96032Y10142D02*
X90032D01*
G01X96032Y22142D02*
Y9142D01*
X90032D01*
Y22142D01*
X96032D01*
G01X93011Y15252D02*
X94742Y16982D01*
G01D02*
X91282D01*
G01D02*
X93011Y15252D01*
G01X112364Y35116D02*
Y30396D01*
X102124D01*
Y35116D01*
X112364D01*
G01X100160Y58180D02*
X95440D01*
Y68420D01*
X100160D01*
Y58180D01*
G01X105019Y76930D02*
X102259D01*
Y81650D01*
X105019D01*
G01X93816Y80785D02*
X89096D01*
Y91025D01*
X93816D01*
Y80785D01*
G01X95518Y102386D02*
X92758D01*
Y107106D01*
X95518D01*
G01X100238Y102386D02*
X102998D01*
Y107106D01*
X100238D01*
G01X95479Y97032D02*
X92718D01*
Y101752D01*
X95479D01*
G01X100198Y97032D02*
X102959D01*
Y101752D01*
X100198D01*
G01X95439Y91678D02*
X92679D01*
Y96398D01*
X95439D01*
G01X100159Y91678D02*
X102919D01*
Y96398D01*
X100159D01*
G01X95518Y107701D02*
X92758D01*
Y112421D01*
X95518D01*
G01X100238Y107701D02*
X102998D01*
Y112421D01*
X100238D01*
G01X95518Y113017D02*
X92758D01*
Y117737D01*
X95518D01*
G01X100238Y113017D02*
X102998D01*
Y117737D01*
X100238D01*
G01X105216Y121339D02*
X102456D01*
Y126059D01*
X105216D01*
G01X125199Y35076D02*
Y30356D01*
X114959D01*
Y35076D01*
X125199D01*
G01X115806Y76969D02*
X113046D01*
Y81689D01*
X115806D01*
G01X120526Y76969D02*
X123286D01*
Y81689D01*
X120526D01*
G01X126594Y81728D02*
X123834D01*
Y77008D01*
X126594D01*
G01X109739Y76930D02*
X112499D01*
Y81650D01*
X109739D01*
G01X116042Y121339D02*
X113282D01*
Y126059D01*
X116042D01*
G01X120762Y121339D02*
X123522D01*
Y126059D01*
X120762D01*
G01X126830D02*
X124070D01*
Y121339D01*
X126830D01*
G01X109935D02*
X112696D01*
Y126059D01*
X109935D01*
G01X150474Y34486D02*
Y29766D01*
X140235D01*
Y34486D01*
X150474D01*
G01X137758Y34604D02*
Y29884D01*
X127518D01*
Y34604D01*
X137758D01*
G01X148286Y81969D02*
X145526D01*
Y86689D01*
X148286D01*
G01X131314Y81728D02*
X134074D01*
Y77008D01*
X131314D01*
G01X142101Y81728D02*
X144861D01*
Y77009D01*
X142101D01*
G01X137381Y81728D02*
X134621D01*
Y77009D01*
X137381D01*
G01X148523Y105512D02*
X145763D01*
Y110232D01*
X148523D01*
G01X148326Y87245D02*
X145566D01*
Y91965D01*
X148326D01*
G01X155845Y97437D02*
Y92717D01*
X145605D01*
Y97437D01*
X155845D01*
G01X155820Y102723D02*
Y98003D01*
X145580D01*
Y102723D01*
X155820D01*
G01X142337Y126059D02*
X145097D01*
Y121339D01*
X142337D01*
G01X137617Y126059D02*
X134857D01*
Y121339D01*
X137617D01*
G01X148523Y116261D02*
X145763D01*
Y120980D01*
X148523D01*
G01X131550Y126059D02*
X134310D01*
Y121339D01*
X131550D01*
G01X156042Y115587D02*
Y110867D01*
X145802D01*
Y115587D01*
X156042D01*
G01X159273Y32324D02*
Y35085D01*
X163993D01*
Y32324D01*
G01X159273Y27605D02*
Y24844D01*
X163993D01*
Y27605D01*
G01X164746Y32364D02*
Y35124D01*
X169465D01*
Y32364D01*
G01X164746Y27644D02*
Y24884D01*
X169465D01*
Y27644D01*
G01X153006Y81969D02*
X155766D01*
Y86689D01*
X153006D01*
G01X153242Y105512D02*
X156003D01*
Y110232D01*
X153242D01*
G01X153046Y87245D02*
X155806D01*
Y91965D01*
X153046D01*
G01X153242Y116261D02*
X156003D01*
Y120980D01*
X153242D01*
G01X172104Y40733D02*
X169344D01*
Y45453D01*
X172104D01*
G01X176824Y40733D02*
X179584D01*
Y45453D01*
X176824D01*
G01X172143Y46166D02*
X169383D01*
Y50886D01*
X172143D01*
G01X176863Y46166D02*
X179623D01*
Y50886D01*
X176863D01*
G01X182612Y48877D02*
X183402Y48096D01*
X184192Y48877D01*
X184972Y48096D01*
X185762Y48877D01*
X186552Y48096D01*
G01X215789Y78207D02*
X193289D01*
Y72207D01*
X194789D01*
Y66207D01*
X193289D01*
Y42207D01*
X194789D01*
Y36207D01*
X193289D01*
Y30207D01*
X215789D01*
Y78207D01*
G54D20*
G01X109186Y113222D02*
G03Y113213I-591J-5D01*
G54D11*
G01X33374Y65722D02*
Y76562D01*
G01X26074Y65722D02*
Y76562D01*
G01X26834D02*
X26074D01*
G01X33374D02*
X32615D01*
G01X33174Y67532D02*
X26274D01*
G01X57496Y6594D02*
Y8594D01*
G01Y6594D02*
X59496D01*
G01X58506Y7485D02*
Y20594D01*
G01D02*
X74496D01*
G01X58506Y7485D02*
X74496Y7594D01*
G01Y14094D02*
Y20594D01*
G01Y7594D02*
Y14094D01*
G01X107796Y69215D02*
X102296D01*
Y69715D01*
Y76215D01*
X107796D01*
G01X108032Y126892D02*
X102532D01*
Y127392D01*
Y133892D01*
X108032D01*
G01X115296Y69215D02*
X109796D01*
G01X109096Y71215D02*
Y74215D01*
G01X108396Y71215D02*
Y74215D01*
G01X109796Y76215D02*
X115296D01*
Y69215D01*
G01X115532Y126892D02*
X110032D01*
G01Y133892D02*
X115532D01*
Y126892D01*
G01X109332Y128892D02*
Y131892D01*
G01X108632Y128892D02*
Y131892D01*
G01X147010Y59363D02*
Y80453D01*
G01X152500Y53873D02*
X147010Y59363D01*
G01X157510Y80433D02*
X147010Y80453D01*
G01X144784Y69294D02*
X139284D01*
G01X138584Y71294D02*
Y74294D01*
G01X137884Y71294D02*
Y74294D01*
G01X137284Y69294D02*
X131784D01*
Y69794D01*
Y76294D01*
X137284D01*
G01X139284D02*
X144784D01*
Y69294D01*
G01X157990Y122753D02*
X147610Y122673D01*
G01Y143763D02*
Y122673D01*
G01X145099Y127050D02*
X139599D01*
G01X137599D02*
X132099D01*
Y127550D01*
Y134050D01*
X137599D01*
G01X139599D02*
X145099D01*
Y127050D01*
G01X153100Y149253D02*
X147610Y143763D01*
G01X138899Y129050D02*
Y132050D01*
G01X138199Y129050D02*
Y132050D01*
G01X168100Y53873D02*
X173590Y59363D01*
G01X168100Y53873D02*
X163000Y53923D01*
G01X157600Y53873D02*
X152500D01*
G01X163210Y80373D02*
X173590Y80453D01*
G01X163690Y122693D02*
X174190Y122673D01*
G01X153100Y149253D02*
X158200Y149203D01*
G01X168700Y149253D02*
X174190Y143763D01*
G01X163600Y149253D02*
X168700D01*
G01X187108Y21513D02*
X176658D01*
G01X187108Y26033D02*
Y21513D01*
G01Y39833D02*
X176658D01*
G01X187108D02*
Y35313D01*
G01X188082Y55487D02*
Y41487D01*
X181082D01*
Y55487D01*
X188082D01*
G01X173590Y59363D02*
Y80453D01*
G01X183217Y68517D02*
Y79357D01*
G01X175917Y68517D02*
Y79357D01*
G01X176677D02*
X175917D01*
G01X183217D02*
X182457D01*
G01X183017Y70327D02*
X176117D01*
G01X183296Y106982D02*
Y117822D01*
G01X175996Y106982D02*
Y117822D01*
G01X175909Y88933D02*
Y94433D01*
G01X177909Y95133D02*
X180909D01*
G01X177909Y95833D02*
X180909D01*
G01X175909Y96433D02*
Y101933D01*
X176409D01*
X182909D01*
Y96433D01*
G01Y94433D02*
Y88933D01*
X175909D01*
G01X174190Y143763D02*
Y122673D01*
G01X176756Y117822D02*
X175996D01*
G01X183296D02*
X182536D01*
G01X183096Y108792D02*
X176196D01*
G01X175917Y138058D02*
Y127218D01*
G01X183217Y138058D02*
Y127218D01*
G01X182457D02*
X183217D01*
G01X175917D02*
X176677D01*
G01X176117Y136248D02*
X183017D01*
G54D12*
G01X42722Y18264D02*
X39562D01*
G01X42722Y17484D02*
X39562D01*
G01X31736Y44454D02*
Y41294D01*
G01X32516Y44454D02*
Y41294D01*
G01X23538Y54610D02*
X26698D01*
G01X23538Y55390D02*
X26698D01*
G01X28971Y54610D02*
X32132D01*
G01X28971Y55390D02*
X32132D01*
G01X39327Y50388D02*
Y53548D01*
G01X38547Y50388D02*
Y53548D01*
G01X38626Y59218D02*
Y56058D01*
G01X39406Y59218D02*
Y56058D01*
G01X39848Y67949D02*
X36688D01*
G01X39848Y67169D02*
X36688D01*
G01X45281Y67949D02*
X42121D01*
G01X45281Y67169D02*
X42121D01*
G01X41390Y74620D02*
X40610D01*
Y76980D01*
X41390D01*
Y74620D01*
G01X40610D02*
X41000D01*
Y73440D01*
G01X41390Y76980D02*
X41000D01*
Y78160D01*
G01X61414Y22475D02*
Y25635D01*
G01X60634Y22475D02*
Y25635D01*
G01X53548Y18185D02*
X50389D01*
G01X53548Y17405D02*
X50389D01*
G01X48076Y18264D02*
X44916D01*
G01X48076Y17484D02*
X44916D01*
G01X47676Y29248D02*
Y28468D01*
X45316D01*
Y29248D01*
X47676D01*
G01Y28468D02*
Y28858D01*
X48856D01*
G01X45316Y29248D02*
Y28858D01*
X44136D01*
G01X65478Y85555D02*
X62318D01*
G01X54848Y85555D02*
X51687D01*
G01X60163Y85555D02*
X57002D01*
G01X65478Y86335D02*
X62318D01*
G01X54848D02*
X51687D01*
G01X60163Y86335D02*
X57002D01*
G01X71697Y25635D02*
Y22475D01*
G01X72477Y25635D02*
Y22475D01*
G01X84726Y16689D02*
Y16299D01*
X83546D01*
G01X82249Y85555D02*
X79089D01*
G01X71775Y84848D02*
Y81687D01*
G01X72556Y84848D02*
Y81687D01*
G01X82249Y86335D02*
X79089D01*
G01X71893Y90241D02*
Y87081D01*
G01X72674Y90241D02*
Y87081D01*
G01X81910Y129420D02*
X82300D01*
Y128240D01*
G01X70910Y129320D02*
X71300D01*
Y128140D01*
G01X81910Y131780D02*
X82690D01*
Y129420D01*
X81910D01*
Y131780D01*
G01X82690D02*
X82300D01*
Y132960D01*
G01X70910Y131680D02*
X71690D01*
Y129320D01*
X70910D01*
Y131680D01*
G01X71690D02*
X71300D01*
Y132860D01*
G01X84726Y15909D02*
Y16689D01*
X87086D01*
Y15909D01*
X84726D01*
G01X87086D02*
Y16299D01*
X88266D01*
G01X98980Y63690D02*
Y62910D01*
X96620D01*
Y63690D01*
X98980D01*
G01Y62910D02*
Y63300D01*
X100160D01*
G01X96620Y63690D02*
Y63300D01*
X95440D01*
G01X87643Y85516D02*
X84483D01*
G01X92637Y86295D02*
Y85515D01*
X90276D01*
Y86295D01*
X92637D01*
G01Y85515D02*
Y85906D01*
X93816D01*
G01X90276Y86295D02*
Y85906D01*
X89096D01*
G01X98268Y103166D02*
Y106326D01*
G01X97488Y103166D02*
Y106326D01*
G01X87643Y86296D02*
X84483D01*
G01X98229Y97812D02*
Y100972D01*
G01X97448Y97812D02*
Y100972D01*
G01X98189Y92458D02*
Y95618D01*
G01X97409Y92458D02*
Y95618D01*
G01X98268Y108482D02*
Y111641D01*
G01X97488Y108482D02*
Y111641D01*
G01X98268Y113796D02*
Y116957D01*
G01X97488Y113796D02*
Y116957D01*
G01X106854Y33936D02*
X107634D01*
Y31576D01*
X106854D01*
Y33936D01*
G01X107634D02*
X107244D01*
Y35116D01*
G01X106854Y31576D02*
X107244D01*
Y30396D01*
G01X119689Y33896D02*
X120469D01*
Y31537D01*
X119689D01*
Y33896D01*
G01X120469D02*
X120079D01*
Y35076D01*
G01X119689Y31537D02*
X120079D01*
Y30356D01*
G01X118556Y77749D02*
Y80909D01*
G01X117776Y77749D02*
Y80909D01*
G01X107769Y77710D02*
Y80870D01*
G01X106989Y77710D02*
Y80870D01*
G01X118792Y122119D02*
Y125279D01*
G01X118012Y122119D02*
Y125279D01*
G01X107966Y122119D02*
Y125279D01*
G01X107185Y122119D02*
Y125279D01*
G01X144965Y33306D02*
X145744D01*
Y30946D01*
X144965D01*
Y33306D01*
G01X145744D02*
X145354D01*
Y34486D01*
G01X144965Y30946D02*
X145354D01*
Y29766D01*
G01X132248Y33424D02*
X133028D01*
Y31064D01*
X132248D01*
Y33424D01*
G01X133028D02*
X132638D01*
Y34604D01*
G01X132248Y31064D02*
X132638D01*
Y29884D01*
G01X128564Y80948D02*
Y77788D01*
G01X129344Y80948D02*
Y77788D01*
G01X139351Y80948D02*
Y77789D01*
G01X140131Y80948D02*
Y77789D01*
G01X139587Y125279D02*
Y122119D01*
G01X140367Y125279D02*
Y122119D01*
G01X128800Y125279D02*
Y122119D01*
G01X129580Y125279D02*
Y122119D01*
G01X160053Y29574D02*
X163213D01*
G01X160053Y30355D02*
X163213D01*
G01X165526Y29614D02*
X168685D01*
G01X165526Y30394D02*
X168685D01*
G01X151036Y82749D02*
Y85909D01*
G01X150256Y82749D02*
Y85909D01*
G01X151273Y106292D02*
Y109452D01*
G01X150492Y106292D02*
Y109452D01*
G01X151076Y88025D02*
Y91185D01*
G01X150296Y88025D02*
Y91185D01*
G01X150335Y96257D02*
X151115D01*
Y93897D01*
X150335D01*
Y96257D01*
G01X151115D02*
X150725D01*
Y97437D01*
G01X150335Y93897D02*
X150725D01*
Y92717D01*
G01X150310Y101543D02*
X151090D01*
Y99183D01*
X150310D01*
Y101543D01*
G01X151090D02*
X150700D01*
Y102723D01*
G01X150310Y99183D02*
X150700D01*
Y98003D01*
G01X151273Y117041D02*
Y120200D01*
G01X150492Y117041D02*
Y120200D01*
G01X150532Y114407D02*
X151312D01*
Y112047D01*
X150532D01*
Y114407D01*
G01X151312D02*
X150922D01*
Y115587D01*
G01X150532Y112047D02*
X150922D01*
Y110867D01*
G01X174854Y41513D02*
Y44673D01*
G01X174074Y41513D02*
Y44673D01*
G01X174893Y46946D02*
Y50106D01*
G01X174113Y46946D02*
Y50106D01*
G54D13*
G01X85120Y64293D02*
X59920D01*
Y39093D01*
X85120D01*
Y64293D01*
G01X62380Y62716D02*
G03I-883J0D01*
G01X57710Y156890D02*
Y134250D01*
X96690D01*
Y156890D01*
X57710D01*
G01X83890Y134250D02*
Y137400D01*
X90590D01*
Y134250D01*
G01X64090D02*
Y137400D01*
X70780D01*
Y134250D01*
G54D14*
G01X215899Y109050D02*
X193261D01*
Y79916D01*
X215899D01*
Y109050D01*
G01X193261Y92908D02*
X196411D01*
Y86215D01*
X193261D01*
G01Y102750D02*
X196411D01*
Y96058D01*
X193261D01*
G01X193380Y123695D02*
X196529D01*
Y117002D01*
X193380D01*
G01Y133538D02*
X196529D01*
Y126845D01*
X193380D01*
G01X216017Y139837D02*
X193380D01*
Y110703D01*
X216017D01*
Y139837D01*
G54D15*
G01X18300Y27392D02*
X15150Y28350D01*
X18300Y29308D01*
G01X17198Y28963D02*
Y27737D01*
G01X18300Y30568D02*
X15150D01*
X18300Y32332D01*
X15150D01*
G01Y34550D02*
X18300D01*
G01X15150Y33668D02*
Y35432D01*
G01X18300Y37650D02*
X15150D01*
X15780Y37190D01*
G01X18300D02*
Y38110D01*
G01X13331Y52993D02*
X13173Y52763D01*
X13068Y52495D01*
Y52188D01*
X13226Y51843D01*
X13488Y51575D01*
X13803Y51383D01*
X14328Y51230D01*
X14801Y51192D01*
X15273Y51268D01*
X15588Y51383D01*
X15903Y51613D01*
X16113Y51882D01*
X16218Y52150D01*
Y52418D01*
X16113Y52687D01*
X15956Y52917D01*
X15746Y53108D01*
G01X15588Y54407D02*
X15956Y54637D01*
X16166Y54943D01*
X16218Y55288D01*
X16166Y55595D01*
X15903Y55902D01*
X15588Y56093D01*
X15273Y56132D01*
X14906Y56055D01*
X14643Y55787D01*
X14538Y55518D01*
Y55173D01*
G01Y55518D02*
X14381Y55748D01*
X14118Y55940D01*
X13803Y56017D01*
X13488Y55940D01*
X13226Y55748D01*
X13068Y55403D01*
X13121Y55058D01*
X13331Y54713D01*
G01X15746Y57507D02*
X16008Y57737D01*
X16166Y58005D01*
X16218Y58350D01*
X16113Y58695D01*
X15903Y58963D01*
X15536Y59155D01*
X15116Y59193D01*
X14696Y59117D01*
X14433Y58925D01*
X14223Y58657D01*
X14171Y58388D01*
X14223Y58120D01*
X14433Y57775D01*
X13068Y57890D01*
Y58925D01*
G01X18764Y52993D02*
X18606Y52763D01*
X18501Y52495D01*
Y52188D01*
X18659Y51843D01*
X18921Y51575D01*
X19236Y51383D01*
X19761Y51230D01*
X20234Y51192D01*
X20706Y51268D01*
X21021Y51383D01*
X21336Y51613D01*
X21546Y51882D01*
X21651Y52150D01*
Y52418D01*
X21546Y52687D01*
X21389Y52917D01*
X21179Y53108D01*
G01X21021Y54407D02*
X21389Y54637D01*
X21599Y54943D01*
X21651Y55288D01*
X21599Y55595D01*
X21336Y55902D01*
X21021Y56093D01*
X20706Y56132D01*
X20339Y56055D01*
X20076Y55787D01*
X19971Y55518D01*
Y55173D01*
G01Y55518D02*
X19814Y55748D01*
X19551Y55940D01*
X19236Y56017D01*
X18921Y55940D01*
X18659Y55748D01*
X18501Y55403D01*
X18554Y55058D01*
X18764Y54713D01*
G01X20339Y57622D02*
X19971Y57890D01*
X19761Y58120D01*
X19656Y58427D01*
X19761Y58695D01*
X19971Y58887D01*
X20286Y59040D01*
X20654Y59078D01*
X20969Y59040D01*
X21284Y58887D01*
X21546Y58657D01*
X21651Y58388D01*
X21546Y58082D01*
X21231Y57813D01*
X20759Y57660D01*
X20234Y57622D01*
X19551Y57698D01*
X19184Y57813D01*
X18816Y58005D01*
X18554Y58273D01*
X18501Y58542D01*
X18606Y58810D01*
X18869Y59002D01*
G01X24100Y69007D02*
X20950D01*
Y69773D01*
X21108Y70080D01*
X21318Y70310D01*
X21632Y70502D01*
X22000Y70655D01*
X22525Y70693D01*
X23050Y70655D01*
X23418Y70502D01*
X23733Y70310D01*
X23943Y70080D01*
X24100Y69773D01*
Y69007D01*
G01Y73410D02*
X20950D01*
X23208Y71992D01*
Y73908D01*
G01X39554Y5567D02*
X39397Y5337D01*
X39292Y5069D01*
Y4762D01*
X39449Y4417D01*
X39712Y4149D01*
X40027Y3957D01*
X40552Y3804D01*
X41024Y3766D01*
X41497Y3842D01*
X41812Y3957D01*
X42127Y4187D01*
X42337Y4456D01*
X42442Y4724D01*
Y4992D01*
X42337Y5261D01*
X42179Y5491D01*
X41969Y5682D01*
G01X42442Y8284D02*
X39292D01*
X41549Y6866D01*
Y8782D01*
G01X41969Y10081D02*
X42232Y10311D01*
X42389Y10579D01*
X42442Y10924D01*
X42337Y11269D01*
X42127Y11537D01*
X41759Y11729D01*
X41339Y11767D01*
X40919Y11691D01*
X40657Y11499D01*
X40447Y11231D01*
X40394Y10962D01*
X40447Y10694D01*
X40657Y10349D01*
X39292Y10464D01*
Y11499D01*
G01X40993Y44088D02*
X40763Y44245D01*
X40495Y44350D01*
X40188D01*
X39843Y44192D01*
X39575Y43930D01*
X39383Y43615D01*
X39230Y43090D01*
X39192Y42618D01*
X39268Y42145D01*
X39383Y41830D01*
X39613Y41515D01*
X39882Y41305D01*
X40150Y41200D01*
X40418D01*
X40687Y41305D01*
X40917Y41462D01*
X41108Y41672D01*
G01X42407Y41830D02*
X42637Y41462D01*
X42943Y41252D01*
X43288Y41200D01*
X43595Y41252D01*
X43902Y41515D01*
X44093Y41830D01*
X44132Y42145D01*
X44055Y42512D01*
X43787Y42775D01*
X43518Y42880D01*
X43173D01*
G01X43518D02*
X43748Y43038D01*
X43940Y43300D01*
X44017Y43615D01*
X43940Y43930D01*
X43748Y44192D01*
X43403Y44350D01*
X43058Y44298D01*
X42713Y44088D01*
G01X46273Y41200D02*
X46350Y41882D01*
X46465Y42460D01*
X46618Y42985D01*
X46810Y43562D01*
X47117Y44350D01*
X45583D01*
G01X29993Y38988D02*
X29763Y39145D01*
X29495Y39250D01*
X29188D01*
X28843Y39092D01*
X28575Y38830D01*
X28383Y38515D01*
X28230Y37990D01*
X28192Y37518D01*
X28268Y37045D01*
X28383Y36730D01*
X28613Y36415D01*
X28882Y36205D01*
X29150Y36100D01*
X29418D01*
X29687Y36205D01*
X29917Y36362D01*
X30108Y36572D01*
G01X32710Y36100D02*
Y39250D01*
X31292Y36992D01*
X33208D01*
G01X35350Y39250D02*
X35043Y39145D01*
X34813Y38882D01*
X34660Y38568D01*
X34545Y38147D01*
X34507Y37675D01*
X34545Y37202D01*
X34660Y36782D01*
X34813Y36467D01*
X35043Y36205D01*
X35350Y36100D01*
X35657Y36205D01*
X35887Y36467D01*
X36040Y36782D01*
X36155Y37202D01*
X36193Y37675D01*
X36155Y38147D01*
X36040Y38568D01*
X35887Y38882D01*
X35657Y39145D01*
X35350Y39250D01*
G01X42900Y26322D02*
X39750D01*
Y27778D01*
G01X41272Y27242D02*
Y26322D01*
G01X41220Y30457D02*
X41062Y30610D01*
X40800Y30725D01*
X40432Y30802D01*
X40118Y30725D01*
X39908Y30572D01*
X39750Y30303D01*
Y29268D01*
X42900D01*
Y30533D01*
X42690Y30802D01*
X42375Y30955D01*
X42008Y31032D01*
X41640Y30955D01*
X41325Y30725D01*
X41220Y30457D01*
Y29268D01*
G01X42900Y33250D02*
X39750D01*
X40380Y32790D01*
G01X42900D02*
Y33710D01*
G01X40993Y48588D02*
X40763Y48745D01*
X40495Y48850D01*
X40188D01*
X39843Y48692D01*
X39575Y48430D01*
X39383Y48115D01*
X39230Y47590D01*
X39192Y47118D01*
X39268Y46645D01*
X39383Y46330D01*
X39613Y46015D01*
X39882Y45805D01*
X40150Y45700D01*
X40418D01*
X40687Y45805D01*
X40917Y45962D01*
X41108Y46172D01*
G01X42407Y46330D02*
X42637Y45962D01*
X42943Y45752D01*
X43288Y45700D01*
X43595Y45752D01*
X43902Y46015D01*
X44093Y46330D01*
X44132Y46645D01*
X44055Y47012D01*
X43787Y47275D01*
X43518Y47380D01*
X43173D01*
G01X43518D02*
X43748Y47538D01*
X43940Y47800D01*
X44017Y48115D01*
X43940Y48430D01*
X43748Y48692D01*
X43403Y48850D01*
X43058Y48798D01*
X42713Y48588D01*
G01X46810Y45700D02*
Y48850D01*
X45392Y46592D01*
X47308D01*
G01X39583Y79700D02*
Y82850D01*
X40542D01*
X40848Y82692D01*
X41040Y82482D01*
X41117Y82062D01*
X41040Y81642D01*
X40810Y81380D01*
X40542Y81223D01*
X39583D01*
G01X40542D02*
X41117Y79700D01*
G01X43373D02*
X43450Y80382D01*
X43565Y80960D01*
X43718Y81485D01*
X43910Y82062D01*
X44217Y82850D01*
X42683D01*
G01X50381Y5489D02*
X50224Y5259D01*
X50118Y4990D01*
Y4684D01*
X50276Y4339D01*
X50538Y4070D01*
X50854Y3879D01*
X51378Y3725D01*
X51851Y3687D01*
X52324Y3764D01*
X52638Y3879D01*
X52954Y4109D01*
X53164Y4377D01*
X53268Y4645D01*
Y4914D01*
X53164Y5182D01*
X53006Y5412D01*
X52796Y5604D01*
G01X53268Y8205D02*
X50118D01*
X52376Y6787D01*
Y8704D01*
G01X53268Y10769D02*
X52586Y10845D01*
X52009Y10960D01*
X51484Y11114D01*
X50906Y11305D01*
X50118Y11612D01*
Y10079D01*
G01X44909Y5567D02*
X44751Y5337D01*
X44646Y5069D01*
Y4762D01*
X44804Y4417D01*
X45066Y4149D01*
X45381Y3957D01*
X45906Y3804D01*
X46379Y3766D01*
X46851Y3842D01*
X47166Y3957D01*
X47481Y4187D01*
X47691Y4456D01*
X47796Y4724D01*
Y4992D01*
X47691Y5261D01*
X47534Y5491D01*
X47324Y5682D01*
G01X47796Y8284D02*
X44646D01*
X46904Y6866D01*
Y8782D01*
G01X46484Y10196D02*
X46116Y10464D01*
X45906Y10694D01*
X45801Y11001D01*
X45906Y11269D01*
X46116Y11461D01*
X46431Y11614D01*
X46799Y11652D01*
X47114Y11614D01*
X47429Y11461D01*
X47691Y11231D01*
X47796Y10962D01*
X47691Y10656D01*
X47376Y10387D01*
X46904Y10234D01*
X46379Y10196D01*
X45696Y10272D01*
X45329Y10387D01*
X44961Y10579D01*
X44699Y10847D01*
X44646Y11116D01*
X44751Y11384D01*
X45014Y11576D01*
G01X58393Y30288D02*
X58163Y30445D01*
X57895Y30550D01*
X57588D01*
X57243Y30392D01*
X56975Y30130D01*
X56783Y29815D01*
X56630Y29290D01*
X56592Y28818D01*
X56668Y28345D01*
X56783Y28030D01*
X57013Y27715D01*
X57282Y27505D01*
X57550Y27400D01*
X57818D01*
X58087Y27505D01*
X58317Y27662D01*
X58508Y27872D01*
G01X61110Y27400D02*
Y30550D01*
X59692Y28293D01*
X61608D01*
G01X64210Y27400D02*
Y30550D01*
X62792Y28293D01*
X64708D01*
G01X47280Y66352D02*
X47123Y66122D01*
X47018Y65854D01*
Y65548D01*
X47175Y65202D01*
X47438Y64934D01*
X47753Y64742D01*
X48278Y64589D01*
X48750Y64551D01*
X49223Y64627D01*
X49538Y64742D01*
X49853Y64972D01*
X50063Y65241D01*
X50168Y65509D01*
Y65777D01*
X50063Y66046D01*
X49905Y66276D01*
X49695Y66468D01*
G01X49538Y67766D02*
X49905Y67996D01*
X50115Y68302D01*
X50168Y68648D01*
X50115Y68954D01*
X49853Y69261D01*
X49538Y69452D01*
X49223Y69491D01*
X48855Y69414D01*
X48593Y69146D01*
X48488Y68877D01*
Y68532D01*
G01Y68877D02*
X48330Y69107D01*
X48068Y69299D01*
X47753Y69376D01*
X47438Y69299D01*
X47175Y69107D01*
X47018Y68762D01*
X47070Y68417D01*
X47280Y68072D01*
G01X50168Y71709D02*
X47018D01*
X47648Y71249D01*
G01X50168D02*
Y72169D01*
G01X52713Y66352D02*
X52556Y66122D01*
X52451Y65854D01*
Y65548D01*
X52608Y65202D01*
X52871Y64934D01*
X53186Y64742D01*
X53711Y64589D01*
X54183Y64551D01*
X54656Y64627D01*
X54971Y64742D01*
X55286Y64972D01*
X55496Y65241D01*
X55601Y65509D01*
Y65777D01*
X55496Y66046D01*
X55338Y66276D01*
X55128Y66468D01*
G01X54971Y67766D02*
X55338Y67996D01*
X55548Y68302D01*
X55601Y68648D01*
X55548Y68954D01*
X55286Y69261D01*
X54971Y69452D01*
X54656Y69491D01*
X54288Y69414D01*
X54026Y69146D01*
X53921Y68877D01*
Y68532D01*
G01Y68877D02*
X53763Y69107D01*
X53501Y69299D01*
X53186Y69376D01*
X52871Y69299D01*
X52608Y69107D01*
X52451Y68762D01*
X52503Y68417D01*
X52713Y68072D01*
G01X52976Y70981D02*
X52661Y71211D01*
X52503Y71479D01*
X52451Y71786D01*
X52556Y72169D01*
X52818Y72438D01*
X53133Y72514D01*
X53448Y72476D01*
X53711Y72322D01*
X54236Y71556D01*
X54603Y71211D01*
X55128Y70981D01*
X55601Y70904D01*
Y72514D01*
G01X62210Y94338D02*
X62053Y94108D01*
X61948Y93840D01*
Y93533D01*
X62105Y93188D01*
X62368Y92920D01*
X62683Y92728D01*
X63208Y92575D01*
X63680Y92536D01*
X64153Y92613D01*
X64468Y92728D01*
X64783Y92958D01*
X64993Y93227D01*
X65098Y93495D01*
Y93763D01*
X64993Y94032D01*
X64835Y94262D01*
X64625Y94453D01*
G01X62473Y95866D02*
X62158Y96097D01*
X62000Y96365D01*
X61948Y96672D01*
X62053Y97055D01*
X62315Y97323D01*
X62630Y97400D01*
X62945Y97362D01*
X63208Y97208D01*
X63733Y96442D01*
X64100Y96097D01*
X64625Y95866D01*
X65098Y95790D01*
Y97400D01*
G01X61948Y99695D02*
X62053Y99388D01*
X62315Y99158D01*
X62630Y99005D01*
X63050Y98890D01*
X63523Y98852D01*
X63995Y98890D01*
X64415Y99005D01*
X64730Y99158D01*
X64993Y99388D01*
X65098Y99695D01*
X64993Y100002D01*
X64730Y100232D01*
X64415Y100385D01*
X63995Y100500D01*
X63523Y100538D01*
X63050Y100500D01*
X62630Y100385D01*
X62315Y100232D01*
X62053Y100002D01*
X61948Y99695D01*
G01X51580Y94338D02*
X51423Y94108D01*
X51318Y93840D01*
Y93533D01*
X51475Y93188D01*
X51738Y92920D01*
X52053Y92728D01*
X52578Y92575D01*
X53050Y92536D01*
X53523Y92613D01*
X53838Y92728D01*
X54153Y92958D01*
X54363Y93227D01*
X54468Y93495D01*
Y93763D01*
X54363Y94032D01*
X54205Y94262D01*
X53995Y94453D01*
G01X54468Y96595D02*
X51318D01*
X51948Y96135D01*
G01X54468D02*
Y97055D01*
G01Y99695D02*
X54415Y99963D01*
X54258Y100270D01*
X53995Y100462D01*
X53628Y100538D01*
X53260Y100462D01*
X52945Y100232D01*
X52788Y99887D01*
Y99503D01*
X52683Y99273D01*
X52420Y99082D01*
X52053Y99005D01*
X51685Y99120D01*
X51423Y99388D01*
X51318Y99695D01*
X51423Y100002D01*
X51685Y100270D01*
X52053Y100385D01*
X52420Y100308D01*
X52683Y100117D01*
X52788Y99887D01*
Y99503D01*
X52945Y99158D01*
X53260Y98928D01*
X53628Y98852D01*
X53995Y98928D01*
X54258Y99120D01*
X54415Y99427D01*
X54468Y99695D01*
G01X56895Y94338D02*
X56738Y94108D01*
X56633Y93840D01*
Y93533D01*
X56790Y93188D01*
X57053Y92920D01*
X57368Y92728D01*
X57893Y92575D01*
X58365Y92536D01*
X58838Y92613D01*
X59153Y92728D01*
X59468Y92958D01*
X59678Y93227D01*
X59783Y93495D01*
Y93763D01*
X59678Y94032D01*
X59520Y94262D01*
X59310Y94453D01*
G01X59783Y96595D02*
X56633D01*
X57263Y96135D01*
G01X59783D02*
Y97055D01*
G01X59415Y99043D02*
X59678Y99312D01*
X59783Y99618D01*
X59678Y99925D01*
X59363Y100193D01*
X58890Y100385D01*
X58418Y100462D01*
X57840D01*
X57368Y100385D01*
X56948Y100193D01*
X56738Y99963D01*
X56633Y99695D01*
X56738Y99388D01*
X56948Y99158D01*
X57263Y99005D01*
X57683Y98928D01*
X58050Y99005D01*
X58418Y99197D01*
X58628Y99427D01*
X58680Y99695D01*
X58575Y100002D01*
X58313Y100232D01*
X57840Y100462D01*
G01X51183Y153430D02*
X51375Y153115D01*
X51605Y152905D01*
X51873Y152800D01*
X52180Y152905D01*
X52410Y153115D01*
X52640Y153430D01*
X52717Y153850D01*
Y155950D01*
G01X55050Y152800D02*
Y155950D01*
X54590Y155320D01*
G01Y152800D02*
X55510D01*
G01X82400Y12483D02*
X79250D01*
Y13442D01*
X79408Y13748D01*
X79618Y13940D01*
X80038Y14017D01*
X80458Y13940D01*
X80720Y13710D01*
X80878Y13442D01*
Y12483D01*
G01Y13442D02*
X82400Y14017D01*
G01Y16350D02*
X79250D01*
X79880Y15890D01*
G01X82400D02*
Y16810D01*
G01Y19910D02*
X79250D01*
X81508Y18492D01*
Y20408D01*
G01X71350Y3100D02*
Y4518D01*
X70583Y6250D01*
G01X72117D02*
X71350Y4518D01*
G01X74450Y3100D02*
Y6250D01*
X73990Y5620D01*
G01Y3100D02*
X74910D01*
G01X69493Y30288D02*
X69263Y30445D01*
X68995Y30550D01*
X68688D01*
X68343Y30392D01*
X68075Y30130D01*
X67883Y29815D01*
X67730Y29290D01*
X67692Y28818D01*
X67768Y28345D01*
X67883Y28030D01*
X68113Y27715D01*
X68382Y27505D01*
X68650Y27400D01*
X68918D01*
X69187Y27505D01*
X69417Y27662D01*
X69608Y27872D01*
G01X72210Y27400D02*
Y30550D01*
X70792Y28293D01*
X72708D01*
G01X74007Y28030D02*
X74237Y27662D01*
X74543Y27452D01*
X74888Y27400D01*
X75195Y27452D01*
X75502Y27715D01*
X75693Y28030D01*
X75732Y28345D01*
X75655Y28712D01*
X75387Y28975D01*
X75118Y29080D01*
X74773D01*
G01X75118D02*
X75348Y29238D01*
X75540Y29500D01*
X75617Y29815D01*
X75540Y30130D01*
X75348Y30392D01*
X75003Y30550D01*
X74658Y30498D01*
X74313Y30288D01*
G01X84512Y73793D02*
X84355Y73563D01*
X84250Y73295D01*
Y72988D01*
X84408Y72643D01*
X84670Y72375D01*
X84985Y72183D01*
X85510Y72030D01*
X85982Y71992D01*
X86455Y72068D01*
X86770Y72183D01*
X87085Y72413D01*
X87295Y72682D01*
X87400Y72950D01*
Y73218D01*
X87295Y73487D01*
X87138Y73717D01*
X86928Y73908D01*
G01X84775Y75322D02*
X84460Y75552D01*
X84302Y75820D01*
X84250Y76127D01*
X84355Y76510D01*
X84618Y76778D01*
X84933Y76855D01*
X85248Y76817D01*
X85510Y76663D01*
X86035Y75897D01*
X86402Y75552D01*
X86928Y75322D01*
X87400Y75245D01*
Y76855D01*
G01X84775Y78422D02*
X84460Y78652D01*
X84302Y78920D01*
X84250Y79227D01*
X84355Y79610D01*
X84618Y79878D01*
X84933Y79955D01*
X85248Y79917D01*
X85510Y79763D01*
X86035Y78997D01*
X86402Y78652D01*
X86928Y78422D01*
X87400Y78345D01*
Y79955D01*
G01X85371Y106234D02*
X85141Y106392D01*
X84873Y106496D01*
X84566D01*
X84221Y106339D01*
X83953Y106077D01*
X83761Y105762D01*
X83608Y105236D01*
X83570Y104764D01*
X83646Y104292D01*
X83761Y103976D01*
X83991Y103661D01*
X84260Y103452D01*
X84528Y103346D01*
X84796D01*
X85065Y103452D01*
X85295Y103609D01*
X85486Y103819D01*
G01X87628Y103346D02*
Y106496D01*
X87168Y105866D01*
G01Y103346D02*
X88088D01*
G01X90000Y105972D02*
X90230Y106286D01*
X90498Y106444D01*
X90805Y106496D01*
X91188Y106392D01*
X91456Y106129D01*
X91533Y105814D01*
X91495Y105499D01*
X91341Y105236D01*
X90575Y104712D01*
X90230Y104344D01*
X90000Y103819D01*
X89923Y103346D01*
X91533D01*
G01X79112Y94493D02*
X78955Y94263D01*
X78850Y93995D01*
Y93688D01*
X79008Y93343D01*
X79270Y93075D01*
X79585Y92883D01*
X80110Y92730D01*
X80582Y92692D01*
X81055Y92768D01*
X81370Y92883D01*
X81685Y93113D01*
X81895Y93382D01*
X82000Y93650D01*
Y93918D01*
X81895Y94187D01*
X81738Y94417D01*
X81528Y94608D01*
G01X79375Y96022D02*
X79060Y96252D01*
X78902Y96520D01*
X78850Y96827D01*
X78955Y97210D01*
X79218Y97478D01*
X79532Y97555D01*
X79848Y97517D01*
X80110Y97363D01*
X80635Y96597D01*
X81002Y96252D01*
X81528Y96022D01*
X82000Y95945D01*
Y97555D01*
G01Y99850D02*
X78850D01*
X79480Y99390D01*
G01X82000D02*
Y100310D01*
G01X70259Y94955D02*
X70029Y95113D01*
X69760Y95218D01*
X69454D01*
X69109Y95060D01*
X68840Y94798D01*
X68649Y94483D01*
X68495Y93958D01*
X68457Y93485D01*
X68534Y93013D01*
X68649Y92698D01*
X68879Y92383D01*
X69147Y92173D01*
X69415Y92068D01*
X69684D01*
X69952Y92173D01*
X70182Y92330D01*
X70374Y92540D01*
G01X71787Y94693D02*
X72017Y95008D01*
X72285Y95165D01*
X72592Y95218D01*
X72975Y95113D01*
X73244Y94850D01*
X73320Y94535D01*
X73282Y94220D01*
X73129Y93958D01*
X72362Y93433D01*
X72017Y93065D01*
X71787Y92540D01*
X71710Y92068D01*
X73320D01*
G01X76075D02*
Y95218D01*
X74657Y92960D01*
X76574D01*
G01X70377Y100349D02*
X70147Y100506D01*
X69878Y100611D01*
X69572D01*
X69227Y100454D01*
X68958Y100191D01*
X68767Y99876D01*
X68614Y99351D01*
X68575Y98879D01*
X68652Y98406D01*
X68767Y98091D01*
X68997Y97776D01*
X69265Y97566D01*
X69534Y97461D01*
X69802D01*
X70070Y97566D01*
X70300Y97724D01*
X70492Y97934D01*
G01X72634Y97461D02*
Y100611D01*
X72174Y99981D01*
G01Y97461D02*
X73093D01*
G01X75657D02*
X75734Y98144D01*
X75849Y98721D01*
X76002Y99246D01*
X76193Y99824D01*
X76500Y100611D01*
X74967D01*
G01X85332Y100880D02*
X85102Y101037D01*
X84834Y101142D01*
X84527D01*
X84182Y100985D01*
X83914Y100722D01*
X83722Y100407D01*
X83569Y99882D01*
X83530Y99410D01*
X83607Y98937D01*
X83722Y98622D01*
X83952Y98307D01*
X84220Y98097D01*
X84489Y97992D01*
X84757D01*
X85025Y98097D01*
X85255Y98254D01*
X85447Y98464D01*
G01X87589Y97992D02*
Y101142D01*
X87129Y100512D01*
G01Y97992D02*
X88049D01*
G01X89845Y98622D02*
X90075Y98254D01*
X90382Y98045D01*
X90727Y97992D01*
X91034Y98045D01*
X91340Y98307D01*
X91532Y98622D01*
X91570Y98937D01*
X91494Y99304D01*
X91225Y99567D01*
X90957Y99672D01*
X90612D01*
G01X90957D02*
X91187Y99830D01*
X91379Y100092D01*
X91455Y100407D01*
X91379Y100722D01*
X91187Y100985D01*
X90842Y101142D01*
X90497Y101090D01*
X90152Y100880D01*
G01X85292Y95525D02*
X85062Y95683D01*
X84794Y95788D01*
X84488D01*
X84142Y95630D01*
X83874Y95368D01*
X83682Y95053D01*
X83529Y94528D01*
X83491Y94055D01*
X83568Y93583D01*
X83682Y93268D01*
X83912Y92953D01*
X84181Y92743D01*
X84449Y92638D01*
X84718D01*
X84986Y92743D01*
X85216Y92900D01*
X85408Y93110D01*
G01X87549Y92638D02*
Y95788D01*
X87089Y95158D01*
G01Y92638D02*
X88009D01*
G01X89806Y93110D02*
X90036Y92848D01*
X90304Y92690D01*
X90649Y92638D01*
X90994Y92743D01*
X91262Y92953D01*
X91454Y93320D01*
X91492Y93740D01*
X91416Y94160D01*
X91224Y94423D01*
X90956Y94633D01*
X90688Y94685D01*
X90419Y94633D01*
X90074Y94423D01*
X90189Y95788D01*
X91224D01*
G01X85371Y111549D02*
X85141Y111706D01*
X84873Y111811D01*
X84566D01*
X84221Y111654D01*
X83953Y111391D01*
X83761Y111076D01*
X83608Y110551D01*
X83570Y110079D01*
X83646Y109606D01*
X83761Y109291D01*
X83991Y108976D01*
X84260Y108766D01*
X84528Y108661D01*
X84796D01*
X85065Y108766D01*
X85295Y108924D01*
X85486Y109134D01*
G01X87628Y108661D02*
Y111811D01*
X87168Y111181D01*
G01Y108661D02*
X88088D01*
G01X90728Y111811D02*
X90421Y111706D01*
X90191Y111444D01*
X90038Y111129D01*
X89923Y110709D01*
X89885Y110236D01*
X89923Y109764D01*
X90038Y109344D01*
X90191Y109029D01*
X90421Y108766D01*
X90728Y108661D01*
X91035Y108766D01*
X91265Y109029D01*
X91418Y109344D01*
X91533Y109764D01*
X91571Y110236D01*
X91533Y110709D01*
X91418Y111129D01*
X91265Y111444D01*
X91035Y111706D01*
X90728Y111811D01*
G01X85371Y116864D02*
X85141Y117021D01*
X84873Y117126D01*
X84566D01*
X84221Y116969D01*
X83953Y116706D01*
X83761Y116391D01*
X83608Y115866D01*
X83570Y115394D01*
X83646Y114921D01*
X83761Y114606D01*
X83991Y114291D01*
X84260Y114081D01*
X84528Y113976D01*
X84796D01*
X85065Y114081D01*
X85295Y114239D01*
X85486Y114449D01*
G01X86976Y114344D02*
X87245Y114081D01*
X87551Y113976D01*
X87858Y114081D01*
X88126Y114396D01*
X88318Y114869D01*
X88395Y115341D01*
Y115919D01*
X88318Y116391D01*
X88126Y116811D01*
X87896Y117021D01*
X87628Y117126D01*
X87321Y117021D01*
X87091Y116811D01*
X86938Y116496D01*
X86861Y116076D01*
X86938Y115709D01*
X87130Y115341D01*
X87360Y115131D01*
X87628Y115079D01*
X87935Y115184D01*
X88165Y115446D01*
X88395Y115919D01*
G01X80813Y134200D02*
Y137350D01*
X81772D01*
X82078Y137192D01*
X82270Y136982D01*
X82347Y136562D01*
X82270Y136142D01*
X82040Y135880D01*
X81772Y135722D01*
X80813D01*
G01X81772D02*
X82347Y134200D01*
G01X84680D02*
Y137350D01*
X84220Y136720D01*
G01Y134200D02*
X85140D01*
G01X69813Y134100D02*
Y137250D01*
X70772D01*
X71078Y137092D01*
X71270Y136883D01*
X71347Y136462D01*
X71270Y136042D01*
X71040Y135780D01*
X70772Y135622D01*
X69813D01*
G01X70772D02*
X71347Y134100D01*
G01X72952Y136725D02*
X73182Y137040D01*
X73450Y137198D01*
X73757Y137250D01*
X74140Y137145D01*
X74408Y136883D01*
X74485Y136568D01*
X74447Y136252D01*
X74293Y135990D01*
X73527Y135465D01*
X73182Y135098D01*
X72952Y134572D01*
X72875Y134100D01*
X74485D01*
G01X90907Y23400D02*
Y26550D01*
X91673D01*
X91980Y26392D01*
X92210Y26182D01*
X92402Y25868D01*
X92555Y25500D01*
X92593Y24975D01*
X92555Y24450D01*
X92402Y24082D01*
X92210Y23767D01*
X91980Y23558D01*
X91673Y23400D01*
X90907D01*
G01X94007Y23872D02*
X94237Y23610D01*
X94505Y23452D01*
X94850Y23400D01*
X95195Y23505D01*
X95463Y23715D01*
X95655Y24082D01*
X95693Y24503D01*
X95617Y24922D01*
X95425Y25185D01*
X95157Y25395D01*
X94888Y25447D01*
X94620Y25395D01*
X94275Y25185D01*
X94390Y26550D01*
X95425D01*
G01X103835Y3866D02*
X104142Y3604D01*
X104486Y3447D01*
X104793D01*
X105100Y3604D01*
X105330Y3866D01*
X105445Y4234D01*
X105368Y4601D01*
X105176Y4916D01*
X104832Y5127D01*
X104372Y5232D01*
X104103Y5442D01*
X103988Y5809D01*
X104065Y6176D01*
X104256Y6439D01*
X104525Y6597D01*
X104793D01*
X105062Y6492D01*
X105292Y6229D01*
G01X107740Y3447D02*
Y6597D01*
X107280Y5966D01*
G01Y3447D02*
X108200D01*
G01X105758Y36356D02*
Y39506D01*
X106716D01*
X107023Y39348D01*
X107214Y39138D01*
X107291Y38718D01*
X107214Y38298D01*
X106984Y38036D01*
X106716Y37878D01*
X105758D01*
G01X106716D02*
X107291Y36356D01*
G01X109624D02*
Y39506D01*
X109164Y38876D01*
G01Y36356D02*
X110084D01*
G01X112724Y39506D02*
X112418Y39401D01*
X112188Y39138D01*
X112034Y38823D01*
X111919Y38403D01*
X111881Y37931D01*
X111919Y37458D01*
X112034Y37038D01*
X112188Y36723D01*
X112418Y36461D01*
X112724Y36356D01*
X113031Y36461D01*
X113261Y36723D01*
X113414Y37038D01*
X113529Y37458D01*
X113568Y37931D01*
X113529Y38403D01*
X113414Y38823D01*
X113261Y39138D01*
X113031Y39401D01*
X112724Y39506D01*
G01X101400Y64787D02*
X104550D01*
Y63828D01*
X104392Y63522D01*
X104182Y63330D01*
X103762Y63253D01*
X103342Y63330D01*
X103080Y63560D01*
X102922Y63828D01*
Y64787D01*
G01Y63828D02*
X101400Y63253D01*
G01Y60920D02*
X101452Y60652D01*
X101610Y60345D01*
X101872Y60153D01*
X102240Y60077D01*
X102607Y60153D01*
X102922Y60383D01*
X103080Y60728D01*
Y61112D01*
X103185Y61342D01*
X103447Y61534D01*
X103815Y61610D01*
X104182Y61495D01*
X104445Y61227D01*
X104550Y60920D01*
X104445Y60614D01*
X104182Y60345D01*
X103815Y60230D01*
X103447Y60307D01*
X103185Y60498D01*
X103080Y60728D01*
Y61112D01*
X102922Y61457D01*
X102607Y61687D01*
X102240Y61763D01*
X101872Y61687D01*
X101610Y61495D01*
X101452Y61188D01*
X101400Y60920D01*
G01X105093Y85788D02*
X104863Y85945D01*
X104595Y86050D01*
X104288D01*
X103943Y85892D01*
X103675Y85630D01*
X103483Y85315D01*
X103330Y84790D01*
X103292Y84318D01*
X103368Y83845D01*
X103483Y83530D01*
X103713Y83215D01*
X103982Y83005D01*
X104250Y82900D01*
X104518D01*
X104787Y83005D01*
X105017Y83162D01*
X105208Y83372D01*
G01X106622Y85525D02*
X106852Y85840D01*
X107120Y85998D01*
X107427Y86050D01*
X107810Y85945D01*
X108078Y85682D01*
X108155Y85368D01*
X108117Y85052D01*
X107963Y84790D01*
X107197Y84265D01*
X106852Y83898D01*
X106622Y83372D01*
X106545Y82900D01*
X108155D01*
G01X110450D02*
X110718Y82952D01*
X111025Y83110D01*
X111217Y83372D01*
X111293Y83740D01*
X111217Y84107D01*
X110987Y84422D01*
X110642Y84580D01*
X110258D01*
X110028Y84685D01*
X109837Y84947D01*
X109760Y85315D01*
X109875Y85682D01*
X110143Y85945D01*
X110450Y86050D01*
X110757Y85945D01*
X111025Y85682D01*
X111140Y85315D01*
X111063Y84947D01*
X110872Y84685D01*
X110642Y84580D01*
X110258D01*
X109913Y84422D01*
X109683Y84107D01*
X109607Y83740D01*
X109683Y83372D01*
X109875Y83110D01*
X110182Y82952D01*
X110450Y82900D01*
G01X93000Y74583D02*
X89850D01*
Y75542D01*
X90008Y75848D01*
X90218Y76040D01*
X90638Y76117D01*
X91058Y76040D01*
X91320Y75810D01*
X91478Y75542D01*
Y74583D01*
G01Y75542D02*
X93000Y76117D01*
G01X91688Y77722D02*
X91320Y77990D01*
X91110Y78220D01*
X91005Y78527D01*
X91110Y78795D01*
X91320Y78987D01*
X91635Y79140D01*
X92002Y79178D01*
X92318Y79140D01*
X92633Y78987D01*
X92895Y78757D01*
X93000Y78488D01*
X92895Y78182D01*
X92580Y77913D01*
X92108Y77760D01*
X91583Y77722D01*
X90900Y77798D01*
X90532Y77913D01*
X90165Y78105D01*
X89902Y78373D01*
X89850Y78642D01*
X89955Y78910D01*
X90218Y79102D01*
G01X85607Y69850D02*
Y67592D01*
X85760Y67120D01*
X86067Y66805D01*
X86450Y66700D01*
X86833Y66805D01*
X87140Y67120D01*
X87293Y67592D01*
Y69850D01*
G01X88822Y69325D02*
X89052Y69640D01*
X89320Y69798D01*
X89627Y69850D01*
X90010Y69745D01*
X90278Y69482D01*
X90355Y69168D01*
X90317Y68852D01*
X90163Y68590D01*
X89397Y68065D01*
X89052Y67698D01*
X88822Y67172D01*
X88745Y66700D01*
X90355D01*
G01X116748Y3748D02*
X117055Y3486D01*
X117400Y3328D01*
X117706D01*
X118013Y3486D01*
X118243Y3748D01*
X118358Y4116D01*
X118282Y4483D01*
X118090Y4798D01*
X117745Y5008D01*
X117285Y5113D01*
X117016Y5323D01*
X116901Y5691D01*
X116978Y6058D01*
X117170Y6321D01*
X117438Y6478D01*
X117706D01*
X117975Y6373D01*
X118205Y6111D01*
G01X119925Y5953D02*
X120155Y6268D01*
X120423Y6426D01*
X120730Y6478D01*
X121113Y6373D01*
X121382Y6111D01*
X121458Y5796D01*
X121420Y5481D01*
X121266Y5218D01*
X120500Y4693D01*
X120155Y4326D01*
X119925Y3801D01*
X119848Y3328D01*
X121458D01*
G01X118592Y36316D02*
Y39467D01*
X119550D01*
X119857Y39309D01*
X120049Y39099D01*
X120125Y38679D01*
X120049Y38259D01*
X119819Y37996D01*
X119550Y37839D01*
X118592D01*
G01X119550D02*
X120125Y36316D01*
G01X122459D02*
Y39467D01*
X121999Y38836D01*
G01Y36316D02*
X122919D01*
G01X125559D02*
Y39467D01*
X125099Y38836D01*
G01Y36316D02*
X126019D01*
G01X109793Y67588D02*
X109563Y67745D01*
X109295Y67850D01*
X108988D01*
X108643Y67692D01*
X108375Y67430D01*
X108183Y67115D01*
X108030Y66590D01*
X107992Y66118D01*
X108068Y65645D01*
X108183Y65330D01*
X108413Y65015D01*
X108682Y64805D01*
X108950Y64700D01*
X109218D01*
X109487Y64805D01*
X109717Y64962D01*
X109908Y65172D01*
G01X111207Y65330D02*
X111437Y64962D01*
X111743Y64752D01*
X112088Y64700D01*
X112395Y64752D01*
X112702Y65015D01*
X112893Y65330D01*
X112932Y65645D01*
X112855Y66012D01*
X112587Y66275D01*
X112318Y66380D01*
X111973D01*
G01X112318D02*
X112548Y66538D01*
X112740Y66800D01*
X112817Y67115D01*
X112740Y67430D01*
X112548Y67692D01*
X112203Y67850D01*
X111858Y67798D01*
X111513Y67588D01*
G01X115150Y67850D02*
X114843Y67745D01*
X114613Y67482D01*
X114460Y67168D01*
X114345Y66747D01*
X114307Y66275D01*
X114345Y65802D01*
X114460Y65383D01*
X114613Y65067D01*
X114843Y64805D01*
X115150Y64700D01*
X115457Y64805D01*
X115687Y65067D01*
X115840Y65383D01*
X115955Y65802D01*
X115993Y66275D01*
X115955Y66747D01*
X115840Y67168D01*
X115687Y67482D01*
X115457Y67745D01*
X115150Y67850D01*
G01X116593Y85688D02*
X116363Y85845D01*
X116095Y85950D01*
X115788D01*
X115443Y85792D01*
X115175Y85530D01*
X114983Y85215D01*
X114830Y84690D01*
X114792Y84218D01*
X114868Y83745D01*
X114983Y83430D01*
X115213Y83115D01*
X115482Y82905D01*
X115750Y82800D01*
X116018D01*
X116287Y82905D01*
X116517Y83062D01*
X116708Y83272D01*
G01X118122Y85425D02*
X118352Y85740D01*
X118620Y85898D01*
X118927Y85950D01*
X119310Y85845D01*
X119578Y85582D01*
X119655Y85268D01*
X119617Y84952D01*
X119463Y84690D01*
X118697Y84165D01*
X118352Y83798D01*
X118122Y83272D01*
X118045Y82800D01*
X119655D01*
G01X121873D02*
X121950Y83482D01*
X122065Y84060D01*
X122218Y84585D01*
X122410Y85162D01*
X122717Y85950D01*
X121183D01*
G01X127493Y85888D02*
X127263Y86045D01*
X126995Y86150D01*
X126688D01*
X126343Y85992D01*
X126075Y85730D01*
X125883Y85415D01*
X125730Y84890D01*
X125692Y84418D01*
X125768Y83945D01*
X125883Y83630D01*
X126113Y83315D01*
X126382Y83105D01*
X126650Y83000D01*
X126918D01*
X127187Y83105D01*
X127417Y83262D01*
X127608Y83472D01*
G01X129022Y85625D02*
X129252Y85940D01*
X129520Y86098D01*
X129827Y86150D01*
X130210Y86045D01*
X130478Y85782D01*
X130555Y85468D01*
X130517Y85152D01*
X130363Y84890D01*
X129597Y84365D01*
X129252Y83998D01*
X129022Y83472D01*
X128945Y83000D01*
X130555D01*
G01X132122Y84312D02*
X132390Y84680D01*
X132620Y84890D01*
X132927Y84995D01*
X133195Y84890D01*
X133387Y84680D01*
X133540Y84365D01*
X133578Y83998D01*
X133540Y83682D01*
X133387Y83367D01*
X133157Y83105D01*
X132888Y83000D01*
X132582Y83105D01*
X132313Y83420D01*
X132160Y83892D01*
X132122Y84418D01*
X132198Y85100D01*
X132313Y85468D01*
X132505Y85835D01*
X132773Y86098D01*
X133042Y86150D01*
X133310Y86045D01*
X133502Y85782D01*
G01X108407Y90850D02*
Y88592D01*
X108560Y88120D01*
X108867Y87805D01*
X109250Y87700D01*
X109633Y87805D01*
X109940Y88120D01*
X110093Y88592D01*
Y90850D01*
G01X112350Y87700D02*
Y90850D01*
X111890Y90220D01*
G01Y87700D02*
X112810D01*
G01X117693Y120087D02*
X117463Y120245D01*
X117195Y120350D01*
X116888D01*
X116543Y120192D01*
X116275Y119930D01*
X116083Y119615D01*
X115930Y119090D01*
X115892Y118618D01*
X115968Y118145D01*
X116083Y117830D01*
X116313Y117515D01*
X116582Y117305D01*
X116850Y117200D01*
X117118D01*
X117387Y117305D01*
X117617Y117462D01*
X117808Y117672D01*
G01X119873Y117200D02*
X119950Y117882D01*
X120065Y118460D01*
X120218Y118985D01*
X120410Y119562D01*
X120717Y120350D01*
X119183D01*
G01X127593Y119588D02*
X127363Y119745D01*
X127095Y119850D01*
X126788D01*
X126443Y119692D01*
X126175Y119430D01*
X125983Y119115D01*
X125830Y118590D01*
X125792Y118118D01*
X125868Y117645D01*
X125983Y117330D01*
X126213Y117015D01*
X126482Y116805D01*
X126750Y116700D01*
X127018D01*
X127287Y116805D01*
X127517Y116962D01*
X127708Y117172D01*
G01X129007D02*
X129237Y116910D01*
X129505Y116753D01*
X129850Y116700D01*
X130195Y116805D01*
X130463Y117015D01*
X130655Y117383D01*
X130693Y117803D01*
X130617Y118222D01*
X130425Y118485D01*
X130157Y118695D01*
X129888Y118747D01*
X129620Y118695D01*
X129275Y118485D01*
X129390Y119850D01*
X130425D01*
G01X109893Y120087D02*
X109663Y120245D01*
X109395Y120350D01*
X109088D01*
X108743Y120192D01*
X108475Y119930D01*
X108283Y119615D01*
X108130Y119090D01*
X108092Y118618D01*
X108168Y118145D01*
X108283Y117830D01*
X108513Y117515D01*
X108782Y117305D01*
X109050Y117200D01*
X109318D01*
X109587Y117305D01*
X109817Y117462D01*
X110008Y117672D01*
G01X112610Y117200D02*
Y120350D01*
X111192Y118092D01*
X113108D01*
G01X108893Y138188D02*
X108663Y138345D01*
X108395Y138450D01*
X108088D01*
X107743Y138292D01*
X107475Y138030D01*
X107283Y137715D01*
X107130Y137190D01*
X107092Y136718D01*
X107168Y136245D01*
X107283Y135930D01*
X107513Y135615D01*
X107782Y135405D01*
X108050Y135300D01*
X108318D01*
X108587Y135405D01*
X108817Y135562D01*
X109008Y135772D01*
G01X110307Y135930D02*
X110537Y135562D01*
X110843Y135352D01*
X111188Y135300D01*
X111495Y135352D01*
X111802Y135615D01*
X111993Y135930D01*
X112032Y136245D01*
X111955Y136612D01*
X111687Y136875D01*
X111418Y136980D01*
X111073D01*
G01X111418D02*
X111648Y137138D01*
X111840Y137400D01*
X111917Y137715D01*
X111840Y138030D01*
X111648Y138292D01*
X111303Y138450D01*
X110958Y138398D01*
X110613Y138188D01*
G01X142260Y3551D02*
X142567Y3289D01*
X142912Y3132D01*
X143218D01*
X143525Y3289D01*
X143755Y3551D01*
X143870Y3919D01*
X143793Y4286D01*
X143602Y4602D01*
X143257Y4812D01*
X142797Y4916D01*
X142528Y5127D01*
X142413Y5494D01*
X142490Y5862D01*
X142682Y6124D01*
X142950Y6282D01*
X143218D01*
X143487Y6176D01*
X143717Y5914D01*
G01X146625Y3132D02*
Y6282D01*
X145207Y4024D01*
X147123D01*
G01X129504Y3670D02*
X129811Y3407D01*
X130156Y3250D01*
X130462D01*
X130769Y3407D01*
X130999Y3670D01*
X131114Y4037D01*
X131038Y4404D01*
X130846Y4720D01*
X130501Y4930D01*
X130041Y5035D01*
X129772Y5245D01*
X129657Y5612D01*
X129734Y5980D01*
X129926Y6242D01*
X130194Y6400D01*
X130462D01*
X130731Y6295D01*
X130961Y6032D01*
G01X132566Y3880D02*
X132796Y3512D01*
X133102Y3302D01*
X133448Y3250D01*
X133754Y3302D01*
X134061Y3565D01*
X134252Y3880D01*
X134291Y4195D01*
X134214Y4562D01*
X133946Y4825D01*
X133677Y4930D01*
X133332D01*
G01X133677D02*
X133907Y5087D01*
X134099Y5350D01*
X134176Y5665D01*
X134099Y5980D01*
X133907Y6242D01*
X133562Y6400D01*
X133217Y6347D01*
X132872Y6137D01*
G01X143868Y35726D02*
Y38876D01*
X144826D01*
X145133Y38718D01*
X145325Y38508D01*
X145401Y38088D01*
X145325Y37668D01*
X145095Y37406D01*
X144826Y37248D01*
X143868D01*
G01X144826D02*
X145401Y35726D01*
G01X147735D02*
Y38876D01*
X147275Y38246D01*
G01Y35726D02*
X148194D01*
G01X149991Y36356D02*
X150221Y35988D01*
X150528Y35778D01*
X150873Y35726D01*
X151180Y35778D01*
X151486Y36041D01*
X151678Y36356D01*
X151716Y36671D01*
X151640Y37038D01*
X151371Y37301D01*
X151103Y37406D01*
X150758D01*
G01X151103D02*
X151333Y37564D01*
X151525Y37826D01*
X151601Y38141D01*
X151525Y38456D01*
X151333Y38718D01*
X150988Y38876D01*
X150643Y38824D01*
X150298Y38614D01*
G01X131151Y35844D02*
Y38994D01*
X132109D01*
X132416Y38836D01*
X132608Y38627D01*
X132684Y38207D01*
X132608Y37787D01*
X132378Y37524D01*
X132109Y37367D01*
X131151D01*
G01X132109D02*
X132684Y35844D01*
G01X135018D02*
Y38994D01*
X134558Y38364D01*
G01Y35844D02*
X135478D01*
G01X137389Y38469D02*
X137619Y38784D01*
X137888Y38942D01*
X138194Y38994D01*
X138578Y38889D01*
X138846Y38627D01*
X138923Y38312D01*
X138884Y37996D01*
X138731Y37734D01*
X137964Y37209D01*
X137619Y36842D01*
X137389Y36316D01*
X137313Y35844D01*
X138923D01*
G01X137893Y67988D02*
X137663Y68145D01*
X137395Y68250D01*
X137088D01*
X136743Y68092D01*
X136475Y67830D01*
X136283Y67515D01*
X136130Y66990D01*
X136092Y66518D01*
X136168Y66045D01*
X136283Y65730D01*
X136513Y65415D01*
X136782Y65205D01*
X137050Y65100D01*
X137318D01*
X137587Y65205D01*
X137817Y65362D01*
X138008Y65572D01*
G01X139422Y67725D02*
X139652Y68040D01*
X139920Y68198D01*
X140227Y68250D01*
X140610Y68145D01*
X140878Y67882D01*
X140955Y67567D01*
X140917Y67252D01*
X140763Y66990D01*
X139997Y66465D01*
X139652Y66098D01*
X139422Y65572D01*
X139345Y65100D01*
X140955D01*
G01X142598Y65467D02*
X142867Y65205D01*
X143173Y65100D01*
X143480Y65205D01*
X143748Y65520D01*
X143940Y65992D01*
X144017Y66465D01*
Y67042D01*
X143940Y67515D01*
X143748Y67935D01*
X143518Y68145D01*
X143250Y68250D01*
X142943Y68145D01*
X142713Y67935D01*
X142560Y67620D01*
X142483Y67200D01*
X142560Y66832D01*
X142752Y66465D01*
X142982Y66255D01*
X143250Y66202D01*
X143557Y66307D01*
X143787Y66570D01*
X144017Y67042D01*
G01X137493Y85788D02*
X137263Y85945D01*
X136995Y86050D01*
X136688D01*
X136343Y85892D01*
X136075Y85630D01*
X135883Y85315D01*
X135730Y84790D01*
X135692Y84318D01*
X135768Y83845D01*
X135883Y83530D01*
X136113Y83215D01*
X136382Y83005D01*
X136650Y82900D01*
X136918D01*
X137187Y83005D01*
X137417Y83162D01*
X137608Y83372D01*
G01X139022Y85525D02*
X139252Y85840D01*
X139520Y85998D01*
X139827Y86050D01*
X140210Y85945D01*
X140478Y85682D01*
X140555Y85368D01*
X140517Y85052D01*
X140363Y84790D01*
X139597Y84265D01*
X139252Y83898D01*
X139022Y83372D01*
X138945Y82900D01*
X140555D01*
G01X142007Y83372D02*
X142237Y83110D01*
X142505Y82952D01*
X142850Y82900D01*
X143195Y83005D01*
X143463Y83215D01*
X143655Y83582D01*
X143693Y84002D01*
X143617Y84422D01*
X143425Y84685D01*
X143157Y84895D01*
X142888Y84947D01*
X142620Y84895D01*
X142275Y84685D01*
X142390Y86050D01*
X143425D01*
G01X139193Y109188D02*
X138963Y109345D01*
X138695Y109450D01*
X138388D01*
X138043Y109292D01*
X137775Y109030D01*
X137583Y108715D01*
X137430Y108190D01*
X137392Y107718D01*
X137468Y107245D01*
X137583Y106930D01*
X137813Y106615D01*
X138082Y106405D01*
X138350Y106300D01*
X138618D01*
X138887Y106405D01*
X139117Y106562D01*
X139308Y106772D01*
G01X141450Y106300D02*
Y109450D01*
X140990Y108820D01*
G01Y106300D02*
X141910D01*
G01X144550D02*
Y109450D01*
X144090Y108820D01*
G01Y106300D02*
X145010D01*
G01X139283Y93600D02*
Y96750D01*
X140242D01*
X140548Y96592D01*
X140740Y96382D01*
X140817Y95962D01*
X140740Y95542D01*
X140510Y95280D01*
X140242Y95122D01*
X139283D01*
G01X140242D02*
X140817Y93600D01*
G01X142307Y94072D02*
X142537Y93810D01*
X142805Y93652D01*
X143150Y93600D01*
X143495Y93705D01*
X143763Y93915D01*
X143955Y94282D01*
X143993Y94702D01*
X143917Y95122D01*
X143725Y95385D01*
X143457Y95595D01*
X143188Y95647D01*
X142920Y95595D01*
X142575Y95385D01*
X142690Y96750D01*
X143725D01*
G01X137883Y99000D02*
Y102150D01*
X138842D01*
X139148Y101992D01*
X139340Y101782D01*
X139417Y101362D01*
X139340Y100942D01*
X139110Y100680D01*
X138842Y100522D01*
X137883D01*
G01X138842D02*
X139417Y99000D01*
G01X142210D02*
Y102150D01*
X140792Y99892D01*
X142708D01*
G01X134293Y119888D02*
X134063Y120045D01*
X133795Y120150D01*
X133488D01*
X133143Y119992D01*
X132875Y119730D01*
X132683Y119415D01*
X132530Y118890D01*
X132492Y118418D01*
X132568Y117945D01*
X132683Y117630D01*
X132913Y117315D01*
X133182Y117105D01*
X133450Y117000D01*
X133718D01*
X133987Y117105D01*
X134217Y117262D01*
X134408Y117472D01*
G01X135822Y118312D02*
X136090Y118680D01*
X136320Y118890D01*
X136627Y118995D01*
X136895Y118890D01*
X137087Y118680D01*
X137240Y118365D01*
X137278Y117998D01*
X137240Y117682D01*
X137087Y117367D01*
X136857Y117105D01*
X136588Y117000D01*
X136282Y117105D01*
X136013Y117420D01*
X135860Y117892D01*
X135822Y118418D01*
X135898Y119100D01*
X136013Y119468D01*
X136205Y119835D01*
X136473Y120097D01*
X136742Y120150D01*
X137010Y120045D01*
X137202Y119783D01*
G01X140893Y119888D02*
X140663Y120045D01*
X140395Y120150D01*
X140088D01*
X139743Y119992D01*
X139475Y119730D01*
X139283Y119415D01*
X139130Y118890D01*
X139092Y118418D01*
X139168Y117945D01*
X139283Y117630D01*
X139513Y117315D01*
X139782Y117105D01*
X140050Y117000D01*
X140318D01*
X140587Y117105D01*
X140817Y117262D01*
X141008Y117472D01*
G01X143150Y117000D02*
X143418Y117052D01*
X143725Y117210D01*
X143917Y117472D01*
X143993Y117840D01*
X143917Y118207D01*
X143687Y118522D01*
X143342Y118680D01*
X142958D01*
X142728Y118785D01*
X142537Y119047D01*
X142460Y119415D01*
X142575Y119783D01*
X142843Y120045D01*
X143150Y120150D01*
X143457Y120045D01*
X143725Y119783D01*
X143840Y119415D01*
X143763Y119047D01*
X143572Y118785D01*
X143342Y118680D01*
X142958D01*
X142613Y118522D01*
X142383Y118207D01*
X142307Y117840D01*
X142383Y117472D01*
X142575Y117210D01*
X142882Y117052D01*
X143150Y117000D01*
G01X139583Y111700D02*
Y114850D01*
X140542D01*
X140848Y114692D01*
X141040Y114482D01*
X141117Y114062D01*
X141040Y113642D01*
X140810Y113380D01*
X140542Y113222D01*
X139583D01*
G01X140542D02*
X141117Y111700D01*
G01X142607Y112330D02*
X142837Y111962D01*
X143143Y111753D01*
X143488Y111700D01*
X143795Y111753D01*
X144102Y112015D01*
X144293Y112330D01*
X144332Y112645D01*
X144255Y113012D01*
X143987Y113275D01*
X143718Y113380D01*
X143373D01*
G01X143718D02*
X143948Y113538D01*
X144140Y113800D01*
X144217Y114115D01*
X144140Y114430D01*
X143948Y114692D01*
X143603Y114850D01*
X143258Y114798D01*
X142913Y114588D01*
G01X138193Y138188D02*
X137963Y138345D01*
X137695Y138450D01*
X137388D01*
X137043Y138292D01*
X136775Y138030D01*
X136583Y137715D01*
X136430Y137190D01*
X136392Y136718D01*
X136468Y136245D01*
X136583Y135930D01*
X136813Y135615D01*
X137082Y135405D01*
X137350Y135300D01*
X137618D01*
X137887Y135405D01*
X138117Y135562D01*
X138308Y135772D01*
G01X139722Y137925D02*
X139952Y138240D01*
X140220Y138398D01*
X140527Y138450D01*
X140910Y138345D01*
X141178Y138082D01*
X141255Y137768D01*
X141217Y137452D01*
X141063Y137190D01*
X140297Y136665D01*
X139952Y136298D01*
X139722Y135772D01*
X139645Y135300D01*
X141255D01*
G01X159546Y16658D02*
X159388Y16428D01*
X159283Y16160D01*
Y15853D01*
X159441Y15508D01*
X159703Y15240D01*
X160018Y15048D01*
X160543Y14895D01*
X161016Y14856D01*
X161488Y14933D01*
X161803Y15048D01*
X162118Y15278D01*
X162328Y15546D01*
X162433Y15815D01*
Y16083D01*
X162328Y16351D01*
X162171Y16581D01*
X161961Y16773D01*
G01X162433Y19375D02*
X159283D01*
X161541Y17956D01*
Y19873D01*
G01X159808Y21286D02*
X159493Y21516D01*
X159336Y21785D01*
X159283Y22091D01*
X159388Y22475D01*
X159651Y22743D01*
X159966Y22820D01*
X160281Y22781D01*
X160543Y22628D01*
X161068Y21861D01*
X161436Y21516D01*
X161961Y21286D01*
X162433Y21210D01*
Y22820D01*
G01X165018Y16697D02*
X164860Y16467D01*
X164756Y16199D01*
Y15892D01*
X164913Y15547D01*
X165176Y15279D01*
X165490Y15087D01*
X166016Y14934D01*
X166488Y14896D01*
X166960Y14972D01*
X167276Y15087D01*
X167591Y15317D01*
X167801Y15586D01*
X167906Y15854D01*
Y16122D01*
X167801Y16391D01*
X167643Y16621D01*
X167433Y16812D01*
G01X167906Y19414D02*
X164756D01*
X167013Y17996D01*
Y19912D01*
G01X167906Y22054D02*
X164756D01*
X165386Y21594D01*
G01X167906D02*
Y22514D01*
G01X161857Y43580D02*
X161627Y43738D01*
X161359Y43843D01*
X161052D01*
X160707Y43685D01*
X160439Y43423D01*
X160247Y43108D01*
X160094Y42583D01*
X160055Y42110D01*
X160132Y41638D01*
X160247Y41323D01*
X160477Y41008D01*
X160746Y40798D01*
X161014Y40693D01*
X161282D01*
X161551Y40798D01*
X161781Y40955D01*
X161972Y41165D01*
G01X163270Y41323D02*
X163500Y40955D01*
X163807Y40745D01*
X164152Y40693D01*
X164459Y40745D01*
X164766Y41008D01*
X164957Y41323D01*
X164996Y41638D01*
X164919Y42005D01*
X164650Y42268D01*
X164382Y42373D01*
X164037D01*
G01X164382D02*
X164612Y42530D01*
X164804Y42793D01*
X164880Y43108D01*
X164804Y43423D01*
X164612Y43685D01*
X164267Y43843D01*
X163922Y43790D01*
X163577Y43580D01*
G01X166562Y41060D02*
X166830Y40798D01*
X167137Y40693D01*
X167444Y40798D01*
X167712Y41113D01*
X167904Y41585D01*
X167980Y42058D01*
Y42635D01*
X167904Y43108D01*
X167712Y43528D01*
X167482Y43738D01*
X167214Y43843D01*
X166907Y43738D01*
X166677Y43528D01*
X166524Y43213D01*
X166447Y42793D01*
X166524Y42425D01*
X166716Y42058D01*
X166946Y41848D01*
X167214Y41795D01*
X167520Y41900D01*
X167751Y42163D01*
X167980Y42635D01*
G01X164707Y39250D02*
Y36992D01*
X164860Y36520D01*
X165167Y36205D01*
X165550Y36100D01*
X165933Y36205D01*
X166240Y36520D01*
X166393Y36992D01*
Y39250D01*
G01X167807Y36730D02*
X168037Y36362D01*
X168343Y36152D01*
X168688Y36100D01*
X168995Y36152D01*
X169302Y36415D01*
X169493Y36730D01*
X169532Y37045D01*
X169455Y37412D01*
X169187Y37675D01*
X168918Y37780D01*
X168573D01*
G01X168918D02*
X169148Y37938D01*
X169340Y38200D01*
X169417Y38515D01*
X169340Y38830D01*
X169148Y39092D01*
X168803Y39250D01*
X168458Y39198D01*
X168113Y38988D01*
G01X161896Y49014D02*
X161666Y49171D01*
X161398Y49276D01*
X161092D01*
X160746Y49118D01*
X160478Y48856D01*
X160286Y48541D01*
X160133Y48016D01*
X160095Y47544D01*
X160171Y47071D01*
X160286Y46756D01*
X160516Y46441D01*
X160785Y46231D01*
X161053Y46126D01*
X161321D01*
X161590Y46231D01*
X161820Y46388D01*
X162012Y46598D01*
G01X163310Y46756D02*
X163540Y46388D01*
X163846Y46179D01*
X164192Y46126D01*
X164498Y46179D01*
X164805Y46441D01*
X164996Y46756D01*
X165035Y47071D01*
X164958Y47438D01*
X164690Y47701D01*
X164421Y47806D01*
X164076D01*
G01X164421D02*
X164651Y47964D01*
X164843Y48226D01*
X164920Y48541D01*
X164843Y48856D01*
X164651Y49118D01*
X164306Y49276D01*
X163961Y49224D01*
X163616Y49014D01*
G01X167253Y46126D02*
X167521Y46179D01*
X167828Y46336D01*
X168020Y46598D01*
X168096Y46966D01*
X168020Y47333D01*
X167790Y47649D01*
X167445Y47806D01*
X167061D01*
X166831Y47911D01*
X166640Y48173D01*
X166563Y48541D01*
X166678Y48908D01*
X166946Y49171D01*
X167253Y49276D01*
X167560Y49171D01*
X167828Y48908D01*
X167943Y48541D01*
X167866Y48173D01*
X167675Y47911D01*
X167445Y47806D01*
X167061D01*
X166716Y47649D01*
X166486Y47333D01*
X166410Y46966D01*
X166486Y46598D01*
X166678Y46336D01*
X166985Y46179D01*
X167253Y46126D01*
G01X158840Y88217D02*
X158610Y88374D01*
X158342Y88479D01*
X158035D01*
X157690Y88322D01*
X157422Y88059D01*
X157230Y87744D01*
X157077Y87219D01*
X157038Y86747D01*
X157115Y86274D01*
X157230Y85959D01*
X157460Y85644D01*
X157728Y85434D01*
X157996Y85329D01*
X158265D01*
X158533Y85434D01*
X158763Y85592D01*
X158955Y85802D01*
G01X160368Y87954D02*
X160598Y88269D01*
X160866Y88427D01*
X161173Y88479D01*
X161556Y88374D01*
X161825Y88112D01*
X161902Y87797D01*
X161863Y87482D01*
X161710Y87219D01*
X160943Y86694D01*
X160598Y86327D01*
X160368Y85802D01*
X160292Y85329D01*
X161902D01*
G01X163353Y85959D02*
X163583Y85592D01*
X163890Y85382D01*
X164235Y85329D01*
X164542Y85382D01*
X164848Y85644D01*
X165040Y85959D01*
X165078Y86274D01*
X165002Y86642D01*
X164733Y86904D01*
X164465Y87009D01*
X164120D01*
G01X164465D02*
X164695Y87167D01*
X164886Y87429D01*
X164963Y87744D01*
X164886Y88059D01*
X164695Y88322D01*
X164350Y88479D01*
X164005Y88427D01*
X163660Y88217D01*
G01X167193Y84588D02*
X166963Y84745D01*
X166695Y84850D01*
X166388D01*
X166043Y84692D01*
X165775Y84430D01*
X165583Y84115D01*
X165430Y83590D01*
X165392Y83118D01*
X165468Y82645D01*
X165583Y82330D01*
X165813Y82015D01*
X166082Y81805D01*
X166350Y81700D01*
X166618D01*
X166887Y81805D01*
X167117Y81962D01*
X167308Y82172D01*
G01X168607Y82330D02*
X168837Y81962D01*
X169143Y81752D01*
X169488Y81700D01*
X169795Y81752D01*
X170102Y82015D01*
X170293Y82330D01*
X170332Y82645D01*
X170255Y83012D01*
X169987Y83275D01*
X169718Y83380D01*
X169373D01*
G01X169718D02*
X169948Y83538D01*
X170140Y83800D01*
X170217Y84115D01*
X170140Y84430D01*
X169948Y84692D01*
X169603Y84850D01*
X169258Y84798D01*
X168913Y84588D01*
G01X171707Y82330D02*
X171937Y81962D01*
X172243Y81752D01*
X172588Y81700D01*
X172895Y81752D01*
X173202Y82015D01*
X173393Y82330D01*
X173432Y82645D01*
X173355Y83012D01*
X173087Y83275D01*
X172818Y83380D01*
X172473D01*
G01X172818D02*
X173048Y83538D01*
X173240Y83800D01*
X173317Y84115D01*
X173240Y84430D01*
X173048Y84692D01*
X172703Y84850D01*
X172358Y84798D01*
X172013Y84588D01*
G01X158879Y93492D02*
X158649Y93650D01*
X158381Y93755D01*
X158074D01*
X157729Y93597D01*
X157461Y93335D01*
X157269Y93020D01*
X157116Y92495D01*
X157077Y92022D01*
X157154Y91550D01*
X157269Y91235D01*
X157499Y90920D01*
X157768Y90710D01*
X158036Y90605D01*
X158304D01*
X158572Y90710D01*
X158802Y90867D01*
X158994Y91077D01*
G01X161136Y90605D02*
Y93755D01*
X160676Y93125D01*
G01Y90605D02*
X161596D01*
G01X163507Y91917D02*
X163776Y92285D01*
X164006Y92495D01*
X164312Y92600D01*
X164581Y92495D01*
X164772Y92285D01*
X164926Y91970D01*
X164964Y91602D01*
X164926Y91287D01*
X164772Y90972D01*
X164542Y90710D01*
X164274Y90605D01*
X163968Y90710D01*
X163699Y91025D01*
X163546Y91497D01*
X163507Y92022D01*
X163584Y92705D01*
X163699Y93072D01*
X163891Y93440D01*
X164159Y93702D01*
X164428Y93755D01*
X164696Y93650D01*
X164888Y93387D01*
G01X166993Y121588D02*
X166763Y121745D01*
X166495Y121850D01*
X166188D01*
X165843Y121692D01*
X165575Y121430D01*
X165383Y121115D01*
X165230Y120590D01*
X165192Y120117D01*
X165268Y119645D01*
X165383Y119330D01*
X165613Y119015D01*
X165882Y118805D01*
X166150Y118700D01*
X166418D01*
X166687Y118805D01*
X166917Y118962D01*
X167108Y119172D01*
G01X169250Y118700D02*
Y121850D01*
X168790Y121220D01*
G01Y118700D02*
X169710D01*
G01X186200Y57183D02*
X183050D01*
Y58142D01*
X183208Y58448D01*
X183418Y58640D01*
X183838Y58717D01*
X184258Y58640D01*
X184520Y58410D01*
X184678Y58142D01*
Y57183D01*
G01Y58142D02*
X186200Y58717D01*
G01X185833Y60398D02*
X186095Y60667D01*
X186200Y60973D01*
X186095Y61280D01*
X185780Y61548D01*
X185308Y61740D01*
X184835Y61817D01*
X184258D01*
X183785Y61740D01*
X183365Y61548D01*
X183155Y61318D01*
X183050Y61050D01*
X183155Y60743D01*
X183365Y60513D01*
X183680Y60360D01*
X184100Y60283D01*
X184468Y60360D01*
X184835Y60552D01*
X185045Y60782D01*
X185098Y61050D01*
X184993Y61357D01*
X184730Y61587D01*
X184258Y61817D01*
G01X177207Y84400D02*
Y87550D01*
X177973D01*
X178280Y87392D01*
X178510Y87182D01*
X178702Y86868D01*
X178855Y86500D01*
X178893Y85975D01*
X178855Y85450D01*
X178702Y85082D01*
X178510Y84767D01*
X178280Y84558D01*
X177973Y84400D01*
X177207D01*
G01X180307Y85030D02*
X180537Y84662D01*
X180843Y84452D01*
X181188Y84400D01*
X181495Y84452D01*
X181802Y84715D01*
X181993Y85030D01*
X182032Y85345D01*
X181955Y85712D01*
X181687Y85975D01*
X181418Y86080D01*
X181073D01*
G01X181418D02*
X181648Y86238D01*
X181840Y86500D01*
X181917Y86815D01*
X181840Y87130D01*
X181648Y87392D01*
X181303Y87550D01*
X180958Y87498D01*
X180613Y87288D01*
G01X186583Y75730D02*
X186775Y75415D01*
X187005Y75205D01*
X187273Y75100D01*
X187580Y75205D01*
X187810Y75415D01*
X188040Y75730D01*
X188117Y76150D01*
Y78250D01*
G01X190910Y75100D02*
Y78250D01*
X189492Y75992D01*
X191408D01*
G01X187583Y105830D02*
X187775Y105515D01*
X188005Y105305D01*
X188273Y105200D01*
X188580Y105305D01*
X188810Y105515D01*
X189040Y105830D01*
X189117Y106250D01*
Y108350D01*
G01X190607Y105830D02*
X190837Y105462D01*
X191143Y105253D01*
X191488Y105200D01*
X191795Y105253D01*
X192102Y105515D01*
X192293Y105830D01*
X192332Y106145D01*
X192255Y106512D01*
X191987Y106775D01*
X191718Y106880D01*
X191373D01*
G01X191718D02*
X191948Y107038D01*
X192140Y107300D01*
X192217Y107615D01*
X192140Y107930D01*
X191948Y108192D01*
X191603Y108350D01*
X191258Y108298D01*
X190913Y108088D01*
G01X171912Y93293D02*
X171755Y93063D01*
X171650Y92795D01*
Y92488D01*
X171808Y92143D01*
X172070Y91875D01*
X172385Y91683D01*
X172910Y91530D01*
X173383Y91492D01*
X173855Y91568D01*
X174170Y91683D01*
X174485Y91913D01*
X174695Y92182D01*
X174800Y92450D01*
Y92718D01*
X174695Y92987D01*
X174538Y93217D01*
X174328Y93408D01*
G01X174800Y95550D02*
X171650D01*
X172280Y95090D01*
G01X174800D02*
Y96010D01*
G01Y99110D02*
X171650D01*
X173908Y97692D01*
Y99608D01*
G01X187500Y109807D02*
X184350D01*
Y110573D01*
X184508Y110880D01*
X184718Y111110D01*
X185032Y111302D01*
X185400Y111455D01*
X185925Y111493D01*
X186450Y111455D01*
X186818Y111302D01*
X187133Y111110D01*
X187342Y110880D01*
X187500Y110573D01*
Y109807D01*
G01X184875Y113022D02*
X184560Y113252D01*
X184402Y113520D01*
X184350Y113827D01*
X184455Y114210D01*
X184718Y114478D01*
X185032Y114555D01*
X185348Y114517D01*
X185610Y114363D01*
X186135Y113597D01*
X186503Y113252D01*
X187028Y113022D01*
X187500Y112945D01*
Y114555D01*
G01X187400Y130107D02*
X184250D01*
Y130873D01*
X184408Y131180D01*
X184618Y131410D01*
X184932Y131602D01*
X185300Y131755D01*
X185825Y131793D01*
X186350Y131755D01*
X186718Y131602D01*
X187033Y131410D01*
X187242Y131180D01*
X187400Y130873D01*
Y130107D01*
G01Y134050D02*
X184250D01*
X184880Y133590D01*
G01X187400D02*
Y134510D01*
G01X192922Y21450D02*
X194378D01*
X192922Y18300D01*
X194378D01*
G01X196750D02*
Y21450D01*
X196290Y20820D01*
G01Y18300D02*
X197210D01*
G01X202670Y23783D02*
X202985Y23975D01*
X203195Y24205D01*
X203300Y24473D01*
X203195Y24780D01*
X202985Y25010D01*
X202670Y25240D01*
X202250Y25317D01*
X200150D01*
G01X202828Y26807D02*
X203090Y27037D01*
X203247Y27305D01*
X203300Y27650D01*
X203195Y27995D01*
X202985Y28263D01*
X202617Y28455D01*
X202198Y28493D01*
X201778Y28417D01*
X201515Y28225D01*
X201305Y27957D01*
X201253Y27688D01*
X201305Y27420D01*
X201515Y27075D01*
X200150Y27190D01*
Y28225D01*
G01X193983Y141730D02*
X194175Y141415D01*
X194405Y141205D01*
X194673Y141100D01*
X194980Y141205D01*
X195210Y141415D01*
X195440Y141730D01*
X195517Y142150D01*
Y144250D01*
G01X197122Y143725D02*
X197352Y144040D01*
X197620Y144198D01*
X197927Y144250D01*
X198310Y144145D01*
X198578Y143882D01*
X198655Y143568D01*
X198617Y143252D01*
X198463Y142990D01*
X197697Y142465D01*
X197352Y142098D01*
X197122Y141572D01*
X197045Y141100D01*
X198655D01*
G54D16*
G01X203280Y10546D02*
X201280Y11046D01*
G01X203280Y10546D02*
Y11547D01*
G01X201280Y11046D02*
X203280Y11547D01*
G54D17*
G01X191735Y11137D02*
Y14296D01*
G01D02*
Y14687D01*
G01Y14296D02*
Y14687D01*
G01X193485Y11137D02*
X191735D01*
G01X198816D02*
Y14687D01*
G01Y11137D02*
X197066D01*
G01X195456Y14687D02*
X195096D01*
G01X195346D02*
X195206D01*
G54D18*
G01X110764Y89211D02*
X112339D01*
G01X110764Y90785D02*
Y89211D01*
G01Y114015D02*
Y112440D01*
G01Y114015D02*
X112339D01*
G01X133993Y89211D02*
X135568D01*
G01Y90785D02*
Y89211D01*
G01X133993Y114015D02*
X135568D01*
G01D02*
Y112440D01*
G54D19*
G01X12837Y42363D02*
Y22283D01*
G01X2596Y42403D02*
Y22323D01*
G01X7717Y35323D02*
Y25323D01*
G01X4716Y35323D02*
X10717D01*
G01X4716D02*
X7717Y32323D01*
G01X10717Y35323D02*
X7717Y32323D01*
G01X8718Y38324D02*
G03I-1001J0D01*
G01X102440Y10476D02*
X101180D01*
G01D02*
Y17046D01*
G01Y19646D02*
Y26217D01*
G01X103390Y16346D02*
G03X110240Y16106I3499J2000D01*
G01X109890Y20846D02*
G03X103640Y20516I-3002J-2499D01*
G01X102440Y26217D02*
X101180D01*
G01X112600Y10476D02*
X111340D01*
G01X112600D02*
Y17046D01*
G01Y19646D02*
Y26217D01*
G01X115353Y10358D02*
X114093D01*
G01X125513D02*
X124253D01*
G01X114093D02*
Y16928D01*
G01Y19528D02*
Y26098D01*
G01X125513Y10358D02*
Y16928D01*
G01Y19528D02*
Y26098D01*
G01X116303Y16228D02*
G03X123153Y15988I3499J2000D01*
G01X122803Y20728D02*
G03X116553Y20398I-3002J-2499D01*
G01X128109Y10280D02*
X126849D01*
G01D02*
Y16850D01*
G01Y19450D02*
Y26020D01*
G01X112600Y26217D02*
X111340D01*
G01X115353Y26098D02*
X114093D01*
G01X125513D02*
X124253D01*
G01X128109Y26020D02*
X126849D01*
G01X140865Y10161D02*
X139605D01*
G01D02*
Y16732D01*
G01Y19332D02*
Y25901D01*
G01X141815Y16032D02*
G03X148665Y15791I3499J2000D01*
G01X148315Y20532D02*
G03X142065Y20201I-3002J-2499D01*
G01X138269Y10280D02*
X137009D01*
G01X138269D02*
Y16850D01*
G01Y19450D02*
Y26020D01*
G01X129059Y16150D02*
G03X135909Y15909I3499J2000D01*
G01X135559Y20650D02*
G03X129309Y20320I-3002J-2499D01*
G01X140865Y25901D02*
X139605D01*
G01X138269Y26020D02*
X137009D01*
G01X151025Y10161D02*
X149765D01*
G01X151025D02*
Y16732D01*
G01Y19332D02*
Y25901D01*
G01D02*
X149765D01*
G01X204371Y8739D02*
Y12046D01*
G01X211160Y8739D02*
X204371D01*
G01X211160Y26456D02*
X204371D01*
G01Y23150D02*
Y26456D01*
G01X215591Y11330D02*
Y23866D01*
M02*
